<?xml version="1.0" encoding="UTF-8" standalone="no"?>
<!-- Created with Inkscape (http://www.inkscape.org/) -->

<svg
   width="65.628014mm"
   height="92.57476mm"
   viewBox="0 0 65.628014 92.57476"
   version="1.1"
   id="svg4015"
   inkscape:version="1.1.2 (0a00cf5339, 2022-02-04, custom)"
   sodipodi:docname="module_anatomy.svg"
   xmlns:inkscape="http://www.inkscape.org/namespaces/inkscape"
   xmlns:sodipodi="http://sodipodi.sourceforge.net/DTD/sodipodi-0.dtd"
   xmlns="http://www.w3.org/2000/svg"
   xmlns:svg="http://www.w3.org/2000/svg">
  <sodipodi:namedview
     id="namedview4017"
     pagecolor="#ffffff"
     bordercolor="#666666"
     borderopacity="1.0"
     inkscape:pageshadow="2"
     inkscape:pageopacity="0.0"
     inkscape:pagecheckerboard="0"
     inkscape:document-units="mm"
     showgrid="false"
     fit-margin-top="5"
     fit-margin-bottom="5"
     fit-margin-left="2"
     fit-margin-right="2"
     inkscape:zoom="2.5620932"
     inkscape:cx="122.7512"
     inkscape:cy="203.73966"
     inkscape:current-layer="layer1" />
  <defs
     id="defs4012" />
  <g
     inkscape:label="Layer 1"
     inkscape:groupmode="layer"
     id="layer1"
     transform="translate(-80.368188,-56.154901)">
    <g
       id="par_g64642"
       transform="matrix(0.19242427,0,0,0.19242427,49.711675,-403.83142)">
      <g
         id="g20456">
        <path
           id="STROKE_c5142097-418f-4c68-9825-b1f90d12709c"
           opacity="1"
           fill="none"
           stroke="#000000"
           stroke-width="1.336"
           stroke-opacity="1"
           stroke-linecap="round"
           stroke-linejoin="round"
           d="m 295.137,2435.963 q 0.108,-0.087 0.108,-0.116 0.062,-0.145 -0.721,2.643 -0.783,2.787 -1.56,5.689 -0.777,2.903 -1.636,5.681 -0.859,2.778 -2.847,8.383 -0.017,-0.099 0.077,-0.3 0.094,-0.201 0.239,-0.444" />
        <path
           id="STROKE_78f5fbd1-495b-488e-af49-6341c22d6b10"
           opacity="1"
           fill="none"
           stroke="#000000"
           stroke-width="1.644"
           stroke-opacity="1"
           stroke-linecap="round"
           stroke-linejoin="round"
           d="m 294.017,2436.998 q 0.135,-0.075 0.311,-0.468 0.177,-0.393 0.457,-0.78 0.279,-0.387 0.595,-0.54 0.316,-0.152 0.604,0.188 0.287,0.34 0.466,0.731 0.178,0.391 0.543,2.607 0.364,2.217 0.543,5.717 0.179,3.499 0.353,5.445 0.175,1.946 0.324,3.035 0.149,1.088 0.853,1.546 0.169,0.522 1.17,-2.677 1,-3.2 1.823,-5.53 0.823,-2.33 1.313,-3.49 0.49,-1.16 1.502,-3.151 1.011,-1.992 1.762,-3.176 0.751,-1.184 1.152,-1.587 0.401,-0.403 0.631,-0.565 0.23,-0.161 0.278,-0.164 0.048,0 0.155,-0.06 0.108,-0.057 0.303,-0.044 0.194,0.013 0.387,0.064 0.194,0.05 0.237,0.217 0.043,0.166 0.093,0.127 0.049,-0.039 0.584,1.08 0.536,1.119 0.923,2.283 0.388,1.164 0.465,4.672 0.077,3.509 0.015,5.539 -0.062,2.03 -0.152,2.941 -0.09,0.912 -0.477,3.411 -0.386,2.499 -0.559,8.058 0.399,0.036 0.509,-0.42 0.109,-0.457 0.195,-0.717" />
        <path
           id="STROKE_b5b13dde-96d6-4016-9bef-e4a3641bcbeb"
           opacity="1"
           fill="none"
           stroke="#000000"
           stroke-width="1.828"
           stroke-opacity="1"
           stroke-linecap="round"
           stroke-linejoin="round"
           d="m 319.81,2449.104 q 0,-0.014 -0.013,-0.217 -0.3,-0.258 -1.291,0.377 -0.992,0.636 -1.604,1.849 -0.612,1.212 -0.816,2.637 -0.204,1.424 -0.103,2.354 0.101,0.931 0.589,1.521 0.488,0.592 1.41,0.825 0.921,0.233 1.902,0.04 0.981,-0.193 1.468,-0.585 0.487,-0.392 1.149,-1.107 0.663,-0.715 1.099,-1.366 0.436,-0.651 0.843,-1.838 0.408,-1.187 0.398,-2.095 -0.01,-0.908 -0.264,-1.55 -0.255,-0.641 -0.618,-0.979 -0.363,-0.338 -1.23,-0.737 -0.868,-0.398 -2.141,-0.199 -1.273,0.199 -2.31,1.044 -1.037,0.845 -1.394,1.203" />
        <path
           id="STROKE_26b64cd0-f380-4788-8211-4b23a069d3dd"
           opacity="1"
           fill="none"
           stroke="#000000"
           stroke-width="1.684"
           stroke-opacity="1"
           stroke-linecap="round"
           stroke-linejoin="round"
           d="m 339.345,2429.321 q 0.21,0.341 0.075,8.551 -0.135,8.209 -0.508,16.58 h -0.014 q -0.06,-0.126 -0.184,-2.483 -0.123,-2.358 -0.475,-3.862 -0.351,-1.503 -0.588,-2.274 -0.237,-0.77 -0.59,-1.147 -0.352,-0.378 -0.997,-0.596 -0.645,-0.218 -1.971,0.673 -1.326,0.892 -2.103,1.757 -0.776,0.865 -1.473,1.792 -0.697,0.926 -1.041,2.412 -0.343,1.486 -0.328,2.791 0.015,1.305 0.414,2.326 0.399,1.021 0.805,1.649 0.406,0.627 1.122,1.035 0.715,0.408 1.674,0.62 0.959,0.211 2.228,-0.292 1.268,-0.503 1.988,-1.108 0.72,-0.605 0.964,-0.849" />
        <path
           id="STROKE_b2412841-1c70-4b5b-8f0d-e70a40e7fe5f"
           opacity="1"
           fill="none"
           stroke="#000000"
           stroke-width="1.828"
           stroke-opacity="1"
           stroke-linecap="round"
           stroke-linejoin="round"
           d="m 344.457,2447.898 q -0.268,0 -0.632,0.249 -0.364,0.251 -0.767,1.745 -0.403,1.494 -0.406,2.813 -0.003,1.318 0.25,2.265 0.253,0.947 0.591,1.411 0.338,0.465 0.925,0.947 0.587,0.483 1.539,0.486 0.952,0 1.762,-0.623 0.81,-0.627 1.785,-2.213 0.974,-1.586 1.288,-3.054 0.313,-1.467 0.329,-2.247 0.015,-0.781 -0.038,-1.275 -0.053,-0.494 -0.485,-0.782 -0.433,-0.287 -0.605,-0.358" />
        <path
           id="STROKE_b30bb1a1-0170-499e-8bc9-a0052b4f9e44"
           opacity="1"
           fill="none"
           stroke="#000000"
           stroke-width="1.287"
           stroke-opacity="1"
           stroke-linecap="round"
           stroke-linejoin="round"
           d="m 361.553,2427.107 q -0.018,-0.39 -0.072,-0.372 -0.092,-0.121 -0.163,-0.231 -0.074,0.125 0.299,3.378 0.373,3.253 -0.233,8.415 -0.605,5.161 -1.066,7.731 -0.462,2.569 -0.693,4.397 -0.231,1.828 -0.709,5.983 0,-0.016 0.043,-0.154 0.043,-0.137 0.102,-0.279" />
        <path
           id="STROKE_3ee0e4c1-c5b3-4995-90c3-8891d4bbaeaf"
           opacity="1"
           fill="none"
           stroke="#000000"
           stroke-width="1.828"
           stroke-opacity="1"
           stroke-linecap="round"
           stroke-linejoin="round"
           d="m 364.913,2448.183 q -0.193,0.433 1.601,0.784 1.794,0.351 2.888,0.345 1.093,-0.01 1.623,0.01 0.529,0.016 0.927,-0.238 0.399,-0.255 0.548,-0.502 0.149,-0.246 0.303,-1.027 0.155,-0.78 0.019,-1.35 -0.137,-0.57 -0.341,-0.808 -0.205,-0.237 -0.359,-0.335 -0.154,-0.098 -0.267,-0.268 -0.113,-0.168 -0.951,-0.332 -0.838,-0.164 -2.03,0.338 -1.192,0.501 -2.232,1.491 -1.04,0.989 -1.625,1.895 -0.584,0.907 -0.812,2.163 -0.228,1.256 -0.241,2.316 -0.012,1.059 0.4,2.196 0.412,1.137 1.033,1.998 0.622,0.861 1.58,1.244 0.958,0.383 2.051,0.371 1.093,-0.013 2.177,-0.52 1.084,-0.508 1.839,-1.207 0.756,-0.7 0.9,-0.859" />
      </g>
      <g
         id="par_g20460">
        <path
           id="STROKE_791bcc64-671e-4bdc-8c75-0e34ae5f5d80"
           opacity="1"
           fill="none"
           stroke="#000000"
           stroke-width="1.304"
           stroke-opacity="1"
           stroke-linecap="round"
           stroke-linejoin="round"
           d="m 173.728,2427.179 q 0,0.672 0,0.529 -0.055,0.736 -0.071,0.683 -0.167,0.303 -0.125,6.719 0.041,6.416 -0.046,10.116 -0.087,3.701 -0.193,5.397 -0.106,1.696 -0.189,2.783 -0.082,1.087 -0.308,5.735 -0.227,4.647 -0.406,10.795 -0.179,6.147 -0.49,12.375 -0.311,6.227 -0.529,9.856 -0.218,3.63 -0.416,12.142 -0.197,8.512 -0.201,13.215 -0.004,4.703 -0.144,20.26 -0.139,15.558 -0.222,23.627 -0.082,8.069 0.106,11.684 0.189,3.615 0.218,5.53 0.03,1.915 0.224,5.565 0.193,3.65 0.928,15.016 0.735,11.365 1.058,17.363 0.322,5.997 0.715,8.377 0.393,2.38 1.681,14.179 1.288,11.8 1.884,22.249 0.595,10.449 0.656,16.201 0.06,5.751 -0.165,13.696 -0.224,7.945 -0.343,15.483 -0.119,7.538 -0.124,10.965 -0.004,3.427 0.162,9.777 0.167,6.35 0.33,9.227 0.163,2.878 0.676,8.57 0.513,5.693 0.826,8.687 0.313,2.995 0.507,4.951 0.194,1.955 2.028,12.973 1.834,11.018 2.873,18.472 1.039,7.455 1.286,13.838 0.247,6.383 0.375,9.228 0.128,2.845 0.317,4.71 0.189,1.864 0.627,4.456 0.437,2.592 1.199,5.451 h 0.024 q 0.023,-0.078 0.023,-0.279 0,-0.202 0,-0.529" />
        <path
           id="STROKE_ce062acd-7976-493e-a1f1-ec1227d0177d"
           opacity="1"
           fill="none"
           stroke="#000000"
           stroke-width="1.154"
           stroke-opacity="1"
           stroke-linecap="round"
           stroke-linejoin="round"
           d="m 172.064,2432.37 q 0.142,0.017 -0.104,-1.081 -0.247,-1.099 0.434,-1.685 0.681,-0.587 2.242,-1.148 1.562,-0.562 3.932,-0.967 2.37,-0.406 4.213,-0.614 1.842,-0.209 3.215,-0.364 1.372,-0.155 4.986,-0.479 3.613,-0.324 8.274,-0.798 4.661,-0.474 7.002,-0.806 2.341,-0.332 11.51,-0.978 9.168,-0.646 19.298,-1.659 10.13,-1.014 15.056,-1.43 4.926,-0.416 7.159,-0.471 2.233,-0.055 15.786,-0.28 13.552,-0.226 20.729,-0.488 7.177,-0.262 10.4,-0.496 3.223,-0.233 7.853,-0.376 4.631,-0.143 13.426,-0.358 8.795,-0.215 13.348,-0.294 4.554,-0.079 6.922,-0.07 2.367,0.01 5.443,0.025 3.076,0.015 12.892,0.021 9.817,0.01 14.987,-0.063 5.17,-0.069 11.101,-0.244 5.931,-0.175 9.311,-0.213 3.38,-0.039 7.828,0.039 4.447,0.078 10.912,0.508 6.466,0.429 10.426,0.899 3.959,0.47 5.902,1 1.942,0.529 3.5,0.996 1.558,0.468 3.935,1.511 2.378,1.043 3.484,1.639 1.106,0.596 4.028,2.536 2.922,1.939 6.868,4.352 3.947,2.413 7.133,4.218 3.187,1.805 4.739,2.89 1.552,1.085 3.129,2.783 1.577,1.698 3.002,4.479 1.424,2.781 2.779,8.701 1.354,5.92 1.864,12.579 0.509,6.659 0.782,10.462 0.273,3.803 1.729,10.139 1.456,6.336 2.328,12.096 0.872,5.76 0.997,9.036 0.125,3.276 0.146,6.348 0.021,3.073 -0.073,15.325 -0.095,12.252 -0.179,19.306 -0.084,7.053 -0.292,10.287 -0.208,3.234 -0.464,7.527 -0.256,4.294 -0.551,6.815 -0.295,2.521 -0.351,11.179 -0.057,8.658 0.116,13.246 0.173,4.588 0.37,8.002 0.196,3.414 0.336,6.989 0.139,3.575 0.836,10.139 0.697,6.565 1.105,14.871 0.409,8.306 0.36,13.205 -0.048,4.899 -0.027,8.359 0.021,3.459 -0.087,5.308 -0.107,1.848 -0.014,15.344 0.094,13.496 0.228,20.828 0.134,7.332 0.277,10.846 0.143,3.514 0.311,8.898 0.169,5.384 0.26,8.325 0.091,2.941 0.2,8.634 0.109,5.692 0,17.904 -0.109,12.211 -0.167,18.281 -0.059,6.071 -0.033,8.57 0.025,2.499 -0.019,5.619 -0.045,3.119 -0.595,7.625 -0.55,4.505 -1.448,7.782 -0.899,3.278 -2.15,6.018 -1.251,2.739 -3.461,4.774 -2.211,2.035 -4.469,3.231 -2.258,1.196 -3.468,1.794 -1.21,0.598 -4.732,1.81 -3.521,1.212 -6.888,2.077 -3.367,0.865 -7.707,1.718 -4.339,0.853 -8.945,1.535 -4.606,0.682 -9.072,1.311 -4.467,0.628 -6.891,0.97 -2.424,0.341 -10.017,1.434 -7.593,1.092 -18.418,2.753 -10.825,1.66 -16.307,2.505 -5.481,0.844 -11.73,1.797 -6.25,0.952 -11.332,1.589 -5.082,0.637 -9.14,1.134 -4.057,0.497 -10.052,0.855 -5.994,0.357 -12.118,0.626 -6.124,0.269 -15.421,0.833 -9.298,0.563 -22.747,0.963 -13.449,0.4 -20.506,0.698 -7.057,0.297 -16.649,0.672 -9.592,0.376 -15.354,0.431 -5.762,0.056 -10.254,-0.253 -4.492,-0.308 -10.442,-1.444 -5.95,-1.136 -8.776,-1.667 -2.826,-0.53 -6.93,-1.626 -4.103,-1.096 -8.143,-1.542 -4.04,-0.446 -6.083,-0.34 -2.043,0.107 -3.819,-0.435 -1.776,-0.542 -2.883,-1.299 -1.106,-0.756 -1.877,-1.937 -0.771,-1.181 0.614,-3.381 1.386,-2.199 1.964,-2.929" />
      </g>
    </g>
    <g
       id="par_g20488"
       transform="matrix(0.19242427,0,0,0.19242427,49.711675,-403.83142)">
      <g
         id="g64672">
        <path
           id="STROKE_8fff2d1d-0a35-4956-bb0d-916bfd4feed2"
           opacity="1"
           fill="none"
           stroke="#8c8c8c"
           stroke-width="1.432"
           stroke-opacity="1"
           stroke-linecap="round"
           stroke-linejoin="round"
           d="m 226.922,2494.663 q 0.157,-0.183 0.302,-0.204 0.2,-0.163 0.986,5.902 0.786,6.065 1.9,13.651 -0.007,-0.067 -0.263,-0.357 -0.257,-0.29 -0.397,-0.449" />
        <path
           id="STROKE_6d404a40-8e21-4e63-a614-64e64104911c"
           opacity="1"
           fill="none"
           stroke="#8c8c8c"
           stroke-width="1.317"
           stroke-opacity="1"
           stroke-linecap="round"
           stroke-linejoin="round"
           d="m 213.04,2501.88 q -0.022,0.158 -0.46,-0.647 -0.265,0.035 0.523,-0.204 0.788,-0.239 3.037,-1.297 2.25,-1.057 3.599,-1.737 1.349,-0.681 3.69,-1.858 2.341,-1.178 5.336,-2.575 2.995,-1.396 5.92,-2.34 2.925,-0.943 3.11,-1.014" />
        <path
           id="STROKE_f4ded136-e503-4200-ba7f-f479d9f5acc8"
           opacity="1"
           fill="none"
           stroke="#8c8c8c"
           stroke-width="1.828"
           stroke-opacity="1"
           stroke-linecap="round"
           stroke-linejoin="round"
           d="m 234.526,2507.425 q 0.034,0.07 0.293,-0.697 0.259,-0.767 1.088,-1.3 0.83,-0.534 1.742,-0.727 0.913,-0.193 1.668,-0.123 0.755,0.071 1.226,0.352 0.471,0.282 1.134,0.988 0.663,0.706 0.99,2.429 0.326,1.723 0.35,2.731 0.024,1.007 -0.073,1.57 -0.096,0.562 -0.2,0.699 -0.104,0.137 -0.116,0.108 -0.013,-0.03 0.042,-0.01 0.055,0.022 -0.326,0.113 -0.38,0.091 -0.964,-0.749 -0.584,-0.841 -1.117,-1.292 -0.532,-0.451 -1.255,-0.67 -0.724,-0.219 -1.332,-0.149 -0.608,0.071 -0.874,0.371 -0.266,0.301 -0.486,0.549 -0.22,0.249 -0.396,0.955 -0.177,0.706 -0.018,1.459 0.159,0.754 0.761,1.298 0.602,0.543 1.678,0.891 1.075,0.347 2.416,0.179 1.34,-0.169 2.303,-0.901 0.962,-0.731 1.193,-0.975" />
        <path
           id="STROKE_335a42e5-2159-463c-9e6a-b8acd631b5b5"
           opacity="1"
           fill="none"
           stroke="#8c8c8c"
           stroke-width="1.828"
           stroke-opacity="1"
           stroke-linecap="round"
           stroke-linejoin="round"
           d="m 248.127,2507.282 q -1.194,0.946 1.82,9.492 0.027,0 0.041,0 -0.094,-0.318 -0.703,-1.266 -0.609,-0.947 -1.002,-2.681 -0.392,-1.735 -0.455,-2.928 -0.062,-1.193 0.233,-2.055 0.295,-0.861 1.131,-1.438 0.836,-0.577 1.525,-0.618 0.689,-0.042 0.932,-0.056" />
        <path
           id="STROKE_598110b6-bb11-4647-b0e5-cf76b75fbca4"
           opacity="1"
           fill="none"
           stroke="#8c8c8c"
           stroke-width="1.792"
           stroke-opacity="1"
           stroke-linecap="round"
           stroke-linejoin="round"
           d="m 261.692,2506.849 q -0.072,-0.339 -0.912,-0.552 -0.841,-0.213 -1.459,-0.112 -0.617,0.1 -1.099,0.552 -0.481,0.452 -0.666,0.715 -0.186,0.263 -0.499,0.894 -0.312,0.631 -0.4,1.614 -0.087,0.983 -0.065,1.819 0.021,0.837 0.154,1.279 0.132,0.442 0.645,1.33 0.514,0.888 1.265,1.333 0.751,0.446 1.721,0.654 0.97,0.209 1.871,-0.593 0.902,-0.802 1.414,-2.204 0.512,-1.403 0.596,-2.232 0.085,-0.829 0.044,-1.54 -0.04,-0.71 -1.016,-0.885 -0.013,0.094 -0.017,0.01 -0.004,-0.087 -0.025,0.02 -0.02,0.108 -0.039,0.396 -0.018,0.288 0.019,0.583 0.037,0.295 -0.093,0.668 -0.13,0.373 0.561,2.456 0.692,2.082 1.31,3.497 0.618,1.415 0.994,2.409 0.377,0.993 1.128,3.188 0.75,2.194 1.15,3.943 0.399,1.748 0.527,2.832 0.127,1.084 -0.016,1.877 -0.144,0.792 -0.448,1.258 -0.304,0.466 -1.313,0.912 -1.01,0.445 -2.693,0.508 -1.682,0.064 -3.567,-0.393 -1.886,-0.456 -3.273,-1.079 -1.386,-0.623 -2.274,-1.313 -0.887,-0.689 -1.278,-1.336 -0.39,-0.646 -0.285,-1.268 0.105,-0.622 0.482,-1.052 0.376,-0.43 0.62,-0.687" />
        <path
           id="STROKE_ea857f12-db79-45f4-9d3a-7b1a19c94d20"
           opacity="1"
           fill="none"
           stroke="#8c8c8c"
           stroke-width="1.828"
           stroke-opacity="1"
           stroke-linecap="round"
           stroke-linejoin="round"
           d="m 268.899,2509.638 q 0,-0.013 0.014,-0.169 0.013,-0.081 1.266,0.41 1.253,0.492 1.989,0.44 0.737,-0.052 1.276,-0.154 0.54,-0.103 0.92,-0.506 0.379,-0.404 0.385,-0.934 0.006,-0.53 0.016,-0.808 0.011,-0.278 -0.237,-0.758 -0.248,-0.48 -1.269,-0.815 -1.022,-0.336 -1.907,-0.369 -0.886,-0.033 -1.73,0.147 -0.845,0.179 -1.855,0.866 -1.01,0.686 -1.268,2.182 -0.257,1.497 -0.02,2.964 0.237,1.467 0.858,2.466 0.621,0.999 1.478,1.653 0.856,0.654 1.884,1.064 1.028,0.41 2.365,0.28 1.336,-0.131 2.379,-0.932 1.043,-0.802 1.341,-1.076" />
        <path
           id="STROKE_09d8b9ed-5fb4-4381-8fd0-6b42d0f0d44b"
           opacity="1"
           fill="none"
           stroke="#8c8c8c"
           stroke-width="1.433"
           stroke-opacity="1"
           stroke-linecap="round"
           stroke-linejoin="round"
           d="m 279.854,2495.123 q -0.348,0.068 0.369,4.618 0.717,4.549 1.352,7.927 0.635,3.378 1,5.293 0.365,1.914 0.797,3.928 h 0.013 q 0.098,0.1 -0.136,-0.405 -0.234,-0.505 -0.405,-0.78" />
        <path
           id="STROKE_7f90421a-d2f4-41b9-8f0a-42cd62a90a09"
           opacity="1"
           fill="none"
           stroke="#8c8c8c"
           stroke-width="1.253"
           stroke-opacity="1"
           stroke-linecap="round"
           stroke-linejoin="round"
           d="m 272.286,2500.986 q -0.103,-0.084 2.802,-0.31 2.906,-0.227 6.677,-0.933 3.772,-0.706 7.86,-1.879 4.088,-1.174 4.779,-1.448" />
        <path
           id="STROKE_191fb584-dcf7-43cb-9b38-d91f7789ce3a"
           opacity="1"
           fill="none"
           stroke="#8c8c8c"
           stroke-width="1.704"
           stroke-opacity="1"
           stroke-linecap="round"
           stroke-linejoin="round"
           d="m 308.863,2497.161 q -0.014,0 -0.262,-0.068 0,-0.031 0.014,-0.088 0.101,0.039 1.524,-0.306 1.424,-0.346 4.154,-1.089 2.731,-0.743 6.432,-1.117 0.055,0.099 0.068,0.197" />
        <path
           id="STROKE_9f543349-2103-4135-b31d-b66c180f3d3a"
           opacity="1"
           fill="none"
           stroke="#8c8c8c"
           stroke-width="1.548"
           stroke-opacity="1"
           stroke-linecap="round"
           stroke-linejoin="round"
           d="m 314.977,2498.143 q -0.368,0.161 1.184,4.789 1.552,4.627 2.614,12.041 -0.072,0.014 -0.174,0.029 -0.102,0.015 -0.246,0.046" />
        <path
           id="STROKE_21abb1fa-325e-42f9-a7e3-d26ed9de783a"
           opacity="1"
           fill="none"
           stroke="#8c8c8c"
           stroke-width="1.828"
           stroke-opacity="1"
           stroke-linecap="round"
           stroke-linejoin="round"
           d="m 310.723,2515.907 v 0.014 q -0.03,-0.091 -0.632,0.362 l 0.018,0.044 q -0.096,0.378 6.177,-0.488 6.273,-0.866 6.431,-0.994" />
        <path
           id="STROKE_4fe73108-ec4e-439a-9b75-52775fb7e0be"
           opacity="1"
           fill="none"
           stroke="#8c8c8c"
           stroke-width="1.828"
           stroke-opacity="1"
           stroke-linecap="round"
           stroke-linejoin="round"
           d="m 325.851,2507.343 q 0.078,-0.02 -0.461,0.041 -0.107,0.546 -0.063,0.501 -0.586,0.871 2.357,8.28 -0.129,-0.358 -0.751,-2.306 -0.623,-1.948 -0.734,-3.335 -0.111,-1.386 -0.168,-2.033 -0.058,-0.646 0.207,-1.224 0.264,-0.579 1.151,-1.17 0.887,-0.592 1.952,-0.841 1.066,-0.25 1.84,-0.2 0.774,0.049 1.24,0.465 0.466,0.416 1.136,1.784 0.671,1.369 0.323,9.09 0.085,-0.142 0.171,-0.284" />
        <path
           id="STROKE_ec4a1fa8-32ce-45e2-8bdd-4113f0e42a67"
           opacity="1"
           fill="none"
           stroke="#8c8c8c"
           stroke-width="1.647"
           stroke-opacity="1"
           stroke-linecap="round"
           stroke-linejoin="round"
           d="m 349.829,2494.087 q -0.209,-0.22 -1.08,-1.032 -0.87,-0.812 -2.303,-1.633 -1.433,-0.821 -2.726,-1.213 -1.294,-0.39 -2.175,-0.551 -0.881,-0.161 -1.678,-0.094 -0.797,0.068 -1.433,0.173 -0.636,0.105 -1.38,0.917 -0.744,0.812 -1.092,2.035 -0.347,1.223 -0.439,3.224 -0.091,2.001 1.217,7.771 1.308,5.77 2.005,8.692 0.697,2.922 1.023,4.212 0.327,1.29 0.42,2.19 0.094,0.9 0.043,1.321 -0.052,0.42 -0.096,0.577 -0.045,0.157 -0.267,0.291 -0.223,0.135 -0.216,0.172 0.008,0.037 -0.159,-0.027 -0.168,-0.064 -0.332,-0.229 -0.165,-0.164 -0.341,-0.478 -0.176,-0.314 -0.38,-0.584" />
        <path
           id="STROKE_66e105c4-d9c2-496c-aa98-e3b8055ca9e4"
           opacity="1"
           fill="none"
           stroke="#8c8c8c"
           stroke-width="1.828"
           stroke-opacity="1"
           stroke-linecap="round"
           stroke-linejoin="round"
           d="m 337.899,2507.113 q 0.128,-0.391 1.28,-0.623 1.153,-0.232 2.158,0.2 1.005,0.433 1.294,0.619" />
        <path
           id="STROKE_cf8e4881-5eb8-497d-a354-4a0bf234cf51"
           opacity="1"
           fill="none"
           stroke="#8c8c8c"
           stroke-width="1.828"
           stroke-opacity="1"
           stroke-linecap="round"
           stroke-linejoin="round"
           d="m 345.214,2510.417 q -0.362,0.127 -0.796,0.599 -0.433,0.472 -0.478,1.098 -0.044,0.627 0.308,1.349 0.353,0.723 1.215,1.516 0.863,0.793 1.429,1.281 0.566,0.487 1.595,0.705 1.029,0.218 1.673,0.249 0.644,0.032 1.14,-0.451 0.496,-0.483 0.686,-0.858 0.19,-0.376 0.329,-1.633 0.14,-1.257 0.092,-2.226 -0.048,-0.969 -0.47,-1.747 -0.422,-0.777 -0.955,-1.322 -0.533,-0.544 -1.738,-0.776 -1.206,-0.231 -2.287,-0.128 -1.082,0.102 -1.837,1.059 -0.755,0.956 -0.881,1.231" />
        <path
           id="STROKE_50b9b6d6-e93a-4a10-b75d-0b4d168dbaba"
           opacity="1"
           fill="none"
           stroke="#8c8c8c"
           stroke-width="1.828"
           stroke-opacity="1"
           stroke-linecap="round"
           stroke-linejoin="round"
           d="m 354.706,2510.417 q 0,0 0,-0.01 0,-0.01 -0.108,-0.081 -0.177,-0.415 0.781,1.76 0.958,2.175 1.657,5.43 -0.071,-0.056 -0.565,-2.671 -0.494,-2.615 -0.825,-4.269 -0.331,-1.654 -0.019,-3.094 0.555,-0.648 2.285,0.883 1.73,1.531 2.014,1.792" />
        <path
           id="STROKE_c0cdca6a-633e-4e65-a1c8-5058864af821"
           opacity="1"
           fill="none"
           stroke="#8c8c8c"
           stroke-width="1.825"
           stroke-opacity="1"
           stroke-linecap="round"
           stroke-linejoin="round"
           d="m 364.207,2509.381 q -0.482,0 -0.33,0.014 0.09,0.054 -0.1,0.075 -0.191,0.022 0.187,1.753 0.377,1.731 0.655,2.712 0.278,0.98 0.428,1.585 0.15,0.604 0.609,1.972 0.027,0 0.041,0 0.273,-0.16 -0.745,-9.963 0.249,-0.129 1.461,-0.216 1.211,-0.087 2.178,0.477 0.967,0.564 1.715,1.609 0.749,1.044 1.198,2.957 0.449,1.914 -0.325,4.127 -0.045,0 -0.077,0 0.077,-0.079 -0.036,-0.118 -0.113,-0.039 0.109,-1.752 0.221,-1.714 0.66,-2.961 0.438,-1.247 0.834,-2.048 0.395,-0.802 0.959,-1.327 0.563,-0.525 1.443,-0.769 0.88,-0.244 1.549,-0.128 0.669,0.117 1.417,1.189 0.749,1.072 1.13,7.413 0.172,0.058 0.303,0.101" />
        <path
           id="STROKE_ae35ea9b-3288-461f-aa33-e81a0adbe2d7"
           opacity="1"
           fill="none"
           stroke="#8c8c8c"
           stroke-width="1.828"
           stroke-opacity="1"
           stroke-linecap="round"
           stroke-linejoin="round"
           d="m 383.281,2508.433 q -0.121,-0.047 0.734,-0.842 0.855,-0.795 1.724,-1.052 0.868,-0.257 1.713,-0.362 0.844,-0.104 1.605,0.089 0.761,0.193 1.308,2.412 0.546,2.219 -0.193,6.011 -0.344,0.31 -0.559,-0.601 -0.215,-0.911 -0.57,-1.496 -0.355,-0.586 -0.592,-0.917 -0.237,-0.331 -0.741,-0.612 -0.504,-0.281 -1.106,-0.324 -0.602,-0.043 -1.114,0.258 -0.511,0.301 -0.623,1.191 -0.111,0.89 -0.052,1.498 0.06,0.608 0.444,1.212 0.383,0.605 1.064,1.22 0.681,0.615 1.576,0.973 0.895,0.358 1.832,0.428 0.937,0.069 1.703,-0.16 0.765,-0.229 1.228,-0.661 0.463,-0.432 0.689,-0.676" />
        <path
           id="STROKE_f0215695-f8cc-49e0-a1bf-21f6a9fb41b3"
           opacity="1"
           fill="none"
           stroke="#8c8c8c"
           stroke-width="1.408"
           stroke-opacity="1"
           stroke-linecap="round"
           stroke-linejoin="round"
           d="m 397.027,2492.476 q -0.106,0.072 -0.189,3.891 -0.082,3.819 0.277,7.584 0.36,3.766 0.955,6.49 0.596,2.725 0.961,4.007 0.366,1.282 0.603,2.043 0.237,0.762 0.319,1.231 0,-0.031 -0.036,-0.146 -0.036,-0.115 -0.109,-0.315" />
        <path
           id="STROKE_5cbbc786-dd7e-4d29-a7c5-e3c08e02c7f2"
           opacity="1"
           fill="none"
           stroke="#8c8c8c"
           stroke-width="1.363"
           stroke-opacity="1"
           stroke-linecap="round"
           stroke-linejoin="round"
           d="m 387.535,2500.959 q 0.365,-0.27 2.359,-0.341 1.994,-0.072 5.959,-0.425 3.965,-0.353 6.968,-0.677 3.002,-0.324 3.562,-0.426" />
        <path
           id="STROKE_98dafd9a-d47f-4467-8e7f-443a2e5fd978"
           opacity="1"
           fill="none"
           stroke="#8c8c8c"
           stroke-width="1.828"
           stroke-opacity="1"
           stroke-linecap="round"
           stroke-linejoin="round"
           d="m 405.173,2508.264 q -0.282,0.395 -0.226,0.328 -0.248,-0.083 -0.522,1.834 -0.275,1.916 -0.309,3.296 -0.034,1.379 0.228,2.179 0.261,0.799 0.489,1.179 0.227,0.38 0.516,0.648 0.29,0.268 0.781,-0.229 0.492,-0.498 0.651,-0.759" />
        <path
           id="STROKE_1f29bbc7-dbcc-4ab8-a363-2a97a19ab77d"
           opacity="1"
           fill="none"
           stroke="#8c8c8c"
           stroke-width="1.828"
           stroke-opacity="1"
           stroke-linecap="round"
           stroke-linejoin="round"
           d="m 405.092,2504.263 q 0.26,0.129 -0.696,-0.373 0.018,0.045 0.17,0.188 0.151,0.144 0.291,0.273" />
        <path
           id="STROKE_e52280f1-0896-4a54-9152-0c3c4d6ceffc"
           opacity="1"
           fill="none"
           stroke="#8c8c8c"
           stroke-width="1.828"
           stroke-opacity="1"
           stroke-linecap="round"
           stroke-linejoin="round"
           d="m 414.529,2508 q -0.297,-0.046 -0.84,0.107 -0.543,0.154 -0.974,0.78 -0.431,0.626 -0.541,1.791 -0.11,1.164 -0.037,2.198 0.074,1.034 0.661,1.905 0.587,0.871 1.219,1.366 0.631,0.495 1.443,0.716 0.811,0.221 1.536,0.208 0.725,-0.013 1.501,-0.852 0.776,-0.839 1.034,-2.49 0.257,-1.652 0.278,-2.642 0.021,-0.989 -0.158,-1.821 -0.179,-0.832 -0.645,-1.595 -0.465,-0.763 -1.221,-1.172 -0.756,-0.409 -1.48,-0.407 -0.724,10e-4 -1.302,0.033 -0.577,0.032 -1.486,0.75 -0.909,0.719 -1.341,2.432 -0.433,1.713 -0.519,2.173" />
        <path
           id="STROKE_c82bbfaa-94e0-470b-b95b-8691016daf7e"
           opacity="1"
           fill="none"
           stroke="#8c8c8c"
           stroke-width="1.823"
           stroke-opacity="1"
           stroke-linecap="round"
           stroke-linejoin="round"
           d="m 424.428,2508.23 q 0,0 -0.259,0.342 -0.258,0.343 1.487,7.396 -0.693,-0.178 -1.002,-1.83 -0.309,-1.651 -0.303,-2.588 0.006,-0.936 0.057,-1.638 0.051,-0.703 0.483,-1.345 0.433,-0.642 0.971,-1.008 0.538,-0.366 1.411,-0.459 0.873,-0.093 1.422,0.043 0.55,0.137 1.227,0.689 0.676,0.551 1.184,1.324 0.508,0.772 0.695,1.527 0.187,0.755 0.427,2.499 0.241,1.744 -0.603,3.931 -0.844,2.186 -1.002,2.417" />
      </g>
      <g
         id="par_g64646">
        <path
           id="STROKE_c907f12f-3c7e-468e-96d0-6580ee594a5e"
           opacity="1"
           fill="none"
           stroke="#8c8c8c"
           stroke-width="1.443"
           stroke-opacity="1"
           stroke-linecap="round"
           stroke-linejoin="round"
           d="m 211.051,2483.296 q -0.084,-0.388 -0.3,-0.672 -0.216,-0.283 -0.474,-0.637 -0.258,-0.354 -0.251,-0.339 0.007,0.015 -0.006,0 -0.014,-0.012 -0.162,-0.157 -0.149,-0.146 -0.366,-0.247 -0.216,-0.1 -0.127,-0.061 0.089,0.04 0.095,0.022 0.006,-0.017 -0.383,0.035 -0.205,0.602 -0.176,0.566 -0.099,0.352 -0.381,2.589 -0.283,2.238 -0.102,7.744 0.182,5.506 0.649,9.624 0.467,4.119 0.636,10.575 0.169,6.457 0.055,10.389 -0.113,3.931 -0.225,6.007 -0.112,2.075 -0.529,3.416 -0.107,0.107 -0.46,-0.081 -0.353,-0.188 -0.44,-0.596 -0.086,-0.409 -0.184,-0.601" />
        <path
           id="STROKE_b5631f1c-1524-4295-b7e3-136cc3a637a9"
           opacity="1"
           fill="none"
           stroke="#8c8c8c"
           stroke-width="1.277"
           stroke-opacity="1"
           stroke-linecap="round"
           stroke-linejoin="round"
           d="m 210.502,2480.622 q 0,0 0.016,0 0.015,0 -0.034,0.046 -0.05,0.042 -0.089,-0.225 -0.039,-0.268 -0.014,-0.508 0.025,-0.24 0.174,-0.351 0.149,-0.11 0.062,-0.21 -0.087,-0.099 2.069,-0.55 2.157,-0.451 5.027,-0.521 2.869,-0.07 5.415,-0.134 2.545,-0.064 5.115,-0.246 2.569,-0.182 6.845,-0.387 4.276,-0.204 7.377,0.066 3.1,0.271 6.664,0.517 3.563,0.247 6.53,-0.087 2.967,-0.333 9.416,-1.1 6.448,-0.767 16.847,-1.101 10.399,-0.334 15.798,-0.335 5.399,0 11.837,0.016 6.439,0.019 10.572,0.085 4.133,0.066 6.216,0.077 2.083,0.012 4.823,0.123 2.741,0.112 12.408,0.319 9.668,0.207 15.79,0.469 6.122,0.263 10.403,0.529 4.28,0.266 7.576,0.424 3.296,0.158 15.516,0.157 12.219,0 19.55,-0.115 7.33,-0.114 11.525,-0.373 4.195,-0.258 8.359,-0.392 4.164,-0.134 6.155,-0.26 1.991,-0.125 3.115,-0.044 1.124,0.081 3.021,0.636 1.897,0.556 2.889,0.856 0.993,0.301 1.613,0.534 0.62,0.233 1.285,0.474 0.664,0.241 1.436,0.658 0.771,0.417 1.234,0.654 0.464,0.237 1.361,1.184 0.898,0.948 2.166,3.149 1.269,2.201 2.049,5.73 0.781,3.529 0.939,5.529 0.158,2 0.333,3.686 0.174,1.685 -0.885,7.355 -1.06,5.669 -1.627,8.599 -0.566,2.929 -0.643,4.493 -0.076,1.564 -0.476,3.043 -0.399,1.479 -0.658,2.003 -0.259,0.524 -0.561,1.213 -0.301,0.69 -1.217,1.459 -0.916,0.768 -1.622,1.171 -0.706,0.402 -1.615,0.65 -0.908,0.248 -3.249,0.66 -2.34,0.412 -9.985,0.542 -7.646,0.13 -12.847,0.255 -5.201,0.124 -10.031,0.619 -4.83,0.494 -15.466,1.252 -10.636,0.757 -15.914,0.926 -5.279,0.169 -13.284,0.493 -8.006,0.324 -12.548,0.548 -4.541,0.223 -9.49,0.393 -4.949,0.169 -7.339,0.319 -2.39,0.149 -5.395,0.172 -3.005,0.024 -12.329,0.676 -9.325,0.653 -14.259,1.12 -4.933,0.467 -8.591,0.862 -3.657,0.395 -7.137,0.637 -3.48,0.242 -5.437,0.308 -1.956,0.066 -3.335,0.116 -1.378,0.05 -4.138,0.047 -2.759,0 -6.909,0.104 -4.151,0.107 -7.074,0.251 -2.923,0.145 -7.568,0.348 -4.645,0.203 -11.334,0.186 -6.689,-0.018 -10.308,-0.144 -3.619,-0.126 -5.562,-0.268 -1.942,-0.142 -6.502,-0.373 -4.56,-0.23 -7.097,-0.552 -2.537,-0.321 -3.95,-0.535 -1.413,-0.213 -3.007,-0.528 0,-0.018 -0.018,-0.057 -0.018,-0.039 -0.055,-0.116" />
      </g>
    </g>
    <g
       id="par_g20557"
       transform="matrix(0.19242427,0,0,0.19242427,49.711675,-403.83142)">
      <g
         id="g64692">
        <path
           id="STROKE_ffb21308-d75b-41f9-bd4b-59faab6908fe"
           opacity="1"
           fill="none"
           stroke="#8c8c8c"
           stroke-width="1.672"
           stroke-opacity="1"
           stroke-linecap="round"
           stroke-linejoin="round"
           d="m 234.369,2763.426 q 0.144,-0.381 -0.033,-1.182 -0.177,-0.801 -0.384,-1.011 -0.207,-0.21 -0.467,-0.392 -0.259,-0.182 -0.444,-0.237 -0.184,-0.055 -0.379,-0.078 -0.195,-0.023 -0.472,-0.034 -0.278,-0.011 -1.063,0.016 -0.786,0.028 -2.193,1.342 -1.407,1.313 -2.429,3.047 -1.021,1.735 -1.43,4.195 -0.408,2.461 -0.304,4.685 0.105,2.223 0.893,4.305 0.789,2.081 1.94,3.689 1.151,1.608 2.203,2.635 1.053,1.026 2.94,1.5 1.887,0.475 3.424,0.48 1.537,0.01 2.676,-0.229 1.139,-0.235 2.44,-1.055 1.301,-0.82 2.131,-1.531 0.831,-0.712 1.971,-2.366 1.14,-1.655 1.677,-3.835 0.537,-2.18 0.578,-3.782 0.041,-1.602 -0.251,-2.96 -0.293,-1.358 -1.755,-3.075 -1.463,-1.717 -2.992,-2.884 -1.529,-1.167 -3.386,-1.667 -1.858,-0.5 -3.376,-0.599 -1.519,-0.098 -3.083,0.465 -1.565,0.564 -2.929,1.788 -1.364,1.224 -2.177,2.855 -0.813,1.63 -1.108,2.298" />
        <path
           id="STROKE_2be4d4d3-80df-4e4a-b55f-1472f60cbc75"
           opacity="1"
           fill="none"
           stroke="#8c8c8c"
           stroke-width="1.411"
           stroke-opacity="1"
           stroke-linecap="round"
           stroke-linejoin="round"
           d="m 256.927,2763.092 q 0.019,0 0.039,0 0.268,0.833 2.941,24.187 h 0.019 q 0,-0.064 0.01,-0.231 0.01,-0.167 0.03,-0.437" />
        <path
           id="STROKE_d33cb9f8-1468-4682-a222-a58f527b7adb"
           opacity="1"
           fill="none"
           stroke="#8c8c8c"
           stroke-width="1.657"
           stroke-opacity="1"
           stroke-linecap="round"
           stroke-linejoin="round"
           d="m 250.141,2770.349 q -0.086,0.052 -0.383,-0.706 -0.297,-0.758 2.013,-1.61 2.31,-0.852 4.157,-1.294 1.846,-0.443 4.917,-0.707 3.07,-0.264 3.693,-0.347" />
        <path
           id="STROKE_924e5262-dd32-47c2-a13f-fc53ef6b744e"
           opacity="1"
           fill="none"
           stroke="#8c8c8c"
           stroke-width="1.747"
           stroke-opacity="1"
           stroke-linecap="round"
           stroke-linejoin="round"
           d="m 265.952,2762.591 q -0.226,0.084 -0.564,2.04 -0.338,1.956 0.694,6.48 1.032,4.524 1.639,6.958 0.608,2.435 0.775,3.783 0.167,1.348 0.109,2.677 -0.294,0.683 -0.546,-2.458 -0.252,-3.141 -0.226,-5.028 0.026,-1.886 0.208,-2.882 0.182,-0.997 0.749,-1.451 0.566,-0.454 1.386,-0.751 0.82,-0.296 1.796,0.304 0.976,0.6 1.594,1.345 0.619,0.746 1.495,2.531 0.877,1.785 1.096,9.304 0.079,-0.04 0.157,-0.079" />
        <path
           id="STROKE_aa0a73ab-0030-4bfa-aa8a-7e547de587e9"
           opacity="1"
           fill="none"
           stroke="#8c8c8c"
           stroke-width="1.828"
           stroke-opacity="1"
           stroke-linecap="round"
           stroke-linejoin="round"
           d="m 281.069,2776.438 q -0.337,0.525 -0.209,0.437 0.499,0.78 0.432,0.569 -0.269,-0.27 0.9,0.729 1.169,0.999 2.127,1.313 0.957,0.315 1.476,0.478 0.518,0.164 0.854,-0.296 0.336,-0.46 0.338,-0.877 0.002,-0.418 -0.027,-1.043 -0.028,-0.626 0.06,-1.203 0.088,-0.577 -0.271,-1.433 -0.359,-0.857 -1.035,-1.643 -0.677,-0.785 -1.976,-1.225 -1.298,-0.44 -2.618,0.477 -1.321,0.916 -1.977,2.132 -0.656,1.216 -0.958,2.692 -0.302,1.477 -0.323,2.772 -0.022,1.294 0.427,2.529 0.449,1.236 1.737,1.949 1.288,0.713 2.488,0.912 1.2,0.199 2.624,0.159 1.423,-0.04 2.139,-0.678 0.716,-0.639 0.984,-0.914" />
        <path
           id="STROKE_93226d56-395f-48fe-ba60-a809837b76ef"
           opacity="1"
           fill="none"
           stroke="#8c8c8c"
           stroke-width="1.802"
           stroke-opacity="1"
           stroke-linecap="round"
           stroke-linejoin="round"
           d="m 291.628,2775.269 q -0.066,0.09 0.884,2.639 0.95,2.549 1.288,4.394 0.338,1.845 0.33,3.101 -0.182,-0.151 -0.306,-3.076 -0.125,-2.925 -0.135,-4.75 -0.01,-1.825 0.488,-3.224 0.499,-1.4 1.159,-2.39 0.661,-0.99 1.84,-0.843 1.179,0.147 1.369,0.359" />
        <path
           id="STROKE_8790ea34-7583-45dd-b734-e9af72edef8c"
           opacity="1"
           fill="none"
           stroke="#8c8c8c"
           stroke-width="1.828"
           stroke-opacity="1"
           stroke-linecap="round"
           stroke-linejoin="round"
           d="m 327.259,2772.431 q 0.126,0.1 0.201,0.053 0.076,-0.046 0.01,-0.045 -0.065,0 0.187,-0.028 0.251,-0.03 0.578,-1.183 0.029,0.038 0.039,0.047 0.011,0.01 -0.242,-0.145 -0.253,-0.153 -1.051,-0.169 -0.798,-0.016 -1.772,0.363 -0.974,0.379 -1.774,0.95 -0.8,0.57 -1.336,1.088 -0.536,0.518 -0.712,0.805 -0.176,0.288 -0.188,0.336 -0.013,0.048 -0.04,0.382 -0.027,0.333 -0.032,0.255 -0.005,-0.079 0.025,0.195 0.03,0.275 2.596,1.046 2.566,0.77 3.968,1.272 1.401,0.501 2.598,1.283 1.196,0.782 1.591,1.298 0.395,0.517 0.542,1.3 0.147,0.783 -0.523,1.758 -0.669,0.976 -2.424,1.683 -1.755,0.708 -3.006,0.955 -1.252,0.247 -2.567,-0.098 -1.316,-0.345 -2.047,-1.052 -0.731,-0.708 -0.948,-1.529 -0.218,-0.821 0.088,-1.379 0.305,-0.559 0.58,-0.809" />
        <path
           id="STROKE_3160d205-b825-4b6f-9705-eb7457c2b88d"
           opacity="1"
           fill="none"
           stroke="#8c8c8c"
           stroke-width="1.483"
           stroke-opacity="1"
           stroke-linecap="round"
           stroke-linejoin="round"
           d="m 335.041,2758.467 q -0.034,-0.7 -0.086,-0.668 -0.151,-0.507 -0.504,-1.129 0.072,-0.165 1.501,9.012 1.429,9.176 2.534,18.759 -0.02,0 -0.246,-0.373 -0.226,-0.373 -0.409,-0.668" />
        <path
           id="STROKE_a99f8e74-c23c-4a81-b8b4-04a7d0565b3a"
           opacity="1"
           fill="none"
           stroke="#8c8c8c"
           stroke-width="1.491"
           stroke-opacity="1"
           stroke-linecap="round"
           stroke-linejoin="round"
           d="m 325.923,2766.097 q -0.024,-0.776 -0.039,-0.732 -0.382,-0.801 2.667,-1.57 3.049,-0.77 6.291,-0.918 3.243,-0.149 5.14,0.524 1.897,0.673 2.499,1.027" />
        <path
           id="STROKE_7bdbc679-8e44-48ff-8c3b-d59d66dc1e67"
           opacity="1"
           fill="none"
           stroke="#8c8c8c"
           stroke-width="1.828"
           stroke-opacity="1"
           stroke-linecap="round"
           stroke-linejoin="round"
           d="m 345.691,2772.559 q -0.584,0.211 -1.326,0.925 -0.743,0.715 -0.887,2.71 -0.144,1.995 0.292,3.787 0.435,1.793 1.006,2.806 0.57,1.013 1.243,1.709 0.674,0.696 1.783,0.883 1.11,0.187 2.145,-0.177 1.034,-0.363 2.178,-1.657 1.145,-1.293 1.74,-3.019 0.596,-1.727 0.529,-2.856 -0.068,-1.128 -0.141,-1.888 -0.073,-0.76 -1.119,-1.331 -1.047,-0.571 -1.871,-0.593 -0.824,-0.023 -1.158,0" />
        <path
           id="STROKE_f8186a46-4afc-41c3-93c5-95b201a6e932"
           opacity="1"
           fill="none"
           stroke="#8c8c8c"
           stroke-width="1.569"
           stroke-opacity="1"
           stroke-linecap="round"
           stroke-linejoin="round"
           d="m 368.039,2765.056 q 0.075,-0.186 0.383,-1.985 0.308,-1.799 0.538,-3.138 0.229,-1.34 -0.406,-2.354 -0.635,-1.014 -1.564,-1.598 -0.928,-0.583 -2.005,-0.926 -1.077,-0.343 -2.132,-0.307 -1.056,0.036 -1.66,0.102 -0.604,0.066 -0.701,0.251 -0.097,0.185 -0.511,0.254 -0.413,0.07 -1.09,1.352 -0.677,1.281 -0.83,3.705 -0.152,2.423 0.661,7.487 0.813,5.064 1.502,8.193 0.69,3.128 1.377,6.846 0.686,3.719 0.811,5.976 0.126,2.258 -0.366,3.913 -0.281,0.079 -0.547,-0.908 -0.265,-0.987 -0.416,-1.468" />
        <path
           id="STROKE_cb8d7ac4-7e20-494b-bca0-427a4f0d1acf"
           opacity="1"
           fill="none"
           stroke="#8c8c8c"
           stroke-width="1.828"
           stroke-opacity="1"
           stroke-linecap="round"
           stroke-linejoin="round"
           d="m 360.297,2777.567 q -0.031,-0.043 1.083,-1.301 1.114,-1.259 3.972,-1.211 2.857,0.047 3.316,0.214" />
        <path
           id="STROKE_a0aec56b-4a31-4d3b-aa03-9ccc28f34e3b"
           opacity="1"
           fill="none"
           stroke="#8c8c8c"
           stroke-width="1.598"
           stroke-opacity="1"
           stroke-linecap="round"
           stroke-linejoin="round"
           d="m 385.645,2766.893 q 0.037,-0.024 0.067,-2.369 0.029,-2.344 0.026,-4.143 -0.003,-1.799 -0.597,-3.064 -0.593,-1.264 -1.595,-2.127 -1.001,-0.862 -2.23,-1.039 -1.229,-0.177 -2.098,0.126 -0.868,0.302 -1.954,1.438 -1.086,1.137 -1.544,5.741 -0.458,4.604 -0.391,9.035 0.067,4.432 0.71,8.165 0.642,3.733 1.903,9.855 -0.477,0.064 -0.654,-0.385 -0.177,-0.449 -0.341,-0.759" />
        <path
           id="STROKE_1eb733cb-ffa4-4e82-836f-f282f64a23fb"
           opacity="1"
           fill="none"
           stroke="#8c8c8c"
           stroke-width="1.828"
           stroke-opacity="1"
           stroke-linecap="round"
           stroke-linejoin="round"
           d="m 375.322,2776.104 q 0.003,-1.752 3.817,-1.77 3.814,-0.018 4.253,0.149" />
      </g>
      <g
         id="par_g64676">
        <path
           id="STROKE_39f6c97b-7710-4e10-84bc-0101d43f4445"
           opacity="1"
           fill="none"
           stroke="#8c8c8c"
           stroke-width="1.484"
           stroke-opacity="1"
           stroke-linecap="round"
           stroke-linejoin="round"
           d="m 213.562,2757.479 q 0.393,0.179 0.305,0.041 -0.088,-0.137 -0.061,-0.067 0.028,0.071 0.08,0.041 0.051,-0.029 0.187,0.443 0.135,0.472 0.169,0.869 0.033,0.398 -0.003,0.772 -0.036,0.375 -0.111,0.425 -0.076,0.051 -0.387,4.159 -0.312,4.109 -0.084,11.328 0.228,7.219 4.634,33.922 0.693,-0.481 0.575,-2.638 -0.118,-2.156 -0.144,-2.778" />
        <path
           id="STROKE_f08b034b-a1d7-4f0c-9f89-d327ca2bb990"
           opacity="1"
           fill="none"
           stroke="#8c8c8c"
           stroke-width="1.282"
           stroke-opacity="1"
           stroke-linecap="round"
           stroke-linejoin="round"
           d="m 211.566,2755.424 q 0.281,0.206 0.774,-0.379 0.494,-0.584 1.416,-1.302 0.921,-0.718 1.242,-0.75 0.32,-0.032 1.206,-0.205 0.886,-0.174 6.558,-1.016 5.672,-0.843 10.866,-2.065 5.193,-1.223 9.16,-1.705 3.968,-0.482 9.81,-0.592 5.842,-0.109 8.749,0 2.906,0.114 9.473,-1.072 6.567,-1.186 12.011,-1.862 5.444,-0.674 7.938,-1.056 2.494,-0.382 4.866,-0.812 2.371,-0.431 12.215,-1.131 9.844,-0.7 17.946,-1.491 8.102,-0.79 12.375,-1.246 4.272,-0.456 7.858,-0.595 3.586,-0.139 5.859,-0.268 2.272,-0.129 6.088,-0.115 3.816,0.014 8.508,0.016 4.692,0 9.209,-0.116 4.517,-0.118 6.407,-0.046 1.89,0.073 6.594,0.988 4.703,0.915 7.021,1.143 2.317,0.227 3.614,0.578 1.296,0.35 1.973,0.778 0.677,0.428 1.217,1.864 0.54,1.435 0.685,2.967 0.145,1.532 0.233,2.578 0.088,1.047 0.357,3.636 0.269,2.588 0.337,12.412 0.068,9.823 0.031,14.861 -0.038,5.038 -0.124,7.267 -0.087,2.23 -0.494,4.896 -0.408,2.666 -0.623,4.254 -0.216,1.588 -0.738,2.32 -0.522,0.731 -1.397,1.021 -0.875,0.291 -1.502,0.421 -0.626,0.131 -1.139,0.246 -0.513,0.114 -2.724,0.347 -2.211,0.233 -13.187,0.812 -10.976,0.578 -17.154,0.991 -6.179,0.414 -9.147,0.624 -2.968,0.21 -7.97,0.584 -5.002,0.373 -7.722,0.624 -2.721,0.25 -14.2,0.549 -11.48,0.299 -22.083,0.754 -10.604,0.454 -15.516,0.811 -4.913,0.357 -7.272,0.574 -2.358,0.217 -5.39,0.517 -3.032,0.299 -4.836,0.484 -1.804,0.183 -11.416,0.502 -9.611,0.319 -15.659,0.652 -6.049,0.333 -9.221,0.793 -3.172,0.461 -5.961,0.759 -2.788,0.299 -4.622,0.374 -1.833,0.076 -2.531,-0.798 -0.697,-0.873 -0.883,-1.165" />
      </g>
    </g>
    <g
       id="par_g67640"
       transform="matrix(0.19242427,0,0,0.19242427,49.711675,-403.83142)">
      <g
         id="par_g20539">
        <path
           id="STROKE_bbd6b1af-86c6-4fad-912e-8027a8e3dde2"
           opacity="1"
           fill="none"
           stroke="#000000"
           stroke-width="1.437"
           stroke-opacity="1"
           stroke-linecap="round"
           stroke-linejoin="round"
           d="m 213.961,2556.261 q -0.013,0.378 -0.036,0.351 -0.135,-0.167 -0.378,4.094 -0.242,4.26 -0.341,7.635 -0.1,3.375 -0.188,6.839 -0.088,3.465 -0.081,9.875 0.007,6.409 -0.046,9.695 -0.052,3.287 -0.141,4.942 -0.089,1.654 -0.209,2.933 -0.119,1.278 -0.428,5.374 -0.309,4.096 -0.42,7.288 -0.112,3.193 -0.097,5.298 0.015,2.106 -0.054,5.091 -0.069,2.985 0.092,5.138 0.16,2.154 0.551,5.222 0.39,3.069 0.594,4.653 0.204,1.585 0.343,6.307 0.139,4.722 0.107,7.585 -0.031,2.863 0.021,4.521 0.052,1.658 0.12,4.044 0.067,2.387 0.199,4.548 0.131,2.16 0.459,8.21 0.327,6.049 0.518,9.176 0.19,3.126 0.344,4.557 0.154,1.431 0.237,2.699 0.082,1.268 0.421,4.542 0.338,3.274 0.733,6.085 0.394,2.81 0.533,4.571 0.139,1.762 0.098,3.942 -0.04,2.181 0.005,3.316 0.046,1.135 -0.158,2.227 -0.204,1.092 -0.21,1.568 -0.006,0.476 -0.017,1.115 -0.012,0.638 -0.029,1.062 -0.018,0.424 -0.01,0.65 0.008,0.225 -0.007,0.41 -0.015,0.186 0.048,1.816 0.063,1.631 0.103,2.71 0.04,1.079 0.323,2.01 0,0.026 -0.063,-0.305 -0.063,-0.332 -0.189,-0.597" />
        <path
           id="STROKE_e1e89603-92cc-429f-850a-30870e065444"
           opacity="1"
           fill="none"
           stroke="#000000"
           stroke-width="1.548"
           stroke-opacity="1"
           stroke-linecap="round"
           stroke-linejoin="round"
           d="m 218.337,2727.511 q -0.245,-0.016 -0.193,0.026 0.052,0.043 -0.358,-0.251 0.469,-0.06 0.323,0.025 -0.145,0.085 1.866,-0.11 2.012,-0.194 4.797,-0.544 2.785,-0.35 4.149,-0.459 1.364,-0.108 2.911,-0.186 1.548,-0.078 2.761,-0.078 1.214,0 3.825,-0.077 2.611,-0.077 9.198,-0.564 6.586,-0.485 11.211,-0.656 4.624,-0.171 12.284,-0.194 7.66,-0.023 11.505,-0.047 3.845,-0.024 5.975,-0.051 2.13,-0.026 4.163,-0.066 2.033,-0.041 3.12,-0.084 1.088,-0.043 4.125,-0.108 3.037,-0.065 6.521,-0.079 3.483,-0.015 8.347,-0.3 4.863,-0.286 8.902,-0.586 4.04,-0.3 8.11,-0.463 4.071,-0.162 6.173,-0.207 2.102,-0.045 5.604,-0.129 3.502,-0.083 7.042,-0.142 3.541,-0.059 5.876,-0.119 2.335,-0.061 9.062,-0.14 6.727,-0.078 10.344,-0.101 3.616,-0.022 6.058,-0.023 2.443,0 3.672,-0.01 1.229,-0.01 2.877,0.021 1.647,0.028 12.194,0 10.546,-0.025 15.885,-0.01 5.339,0.016 7.757,-0.045 2.417,-0.061 4.434,-0.125 2.016,-0.063 3.817,-0.13 1.802,-0.067 3.549,-0.216 1.747,-0.149 5.306,-0.453 3.56,-0.303 6.008,-0.627 2.448,-0.323 4.096,-0.683 1.648,-0.36 2.62,-0.813 0.972,-0.453 1.268,-0.716 0.296,-0.263 0.479,-0.463 0.183,-0.199 0.272,-0.313 0.09,-0.115 0.079,-0.126 -0.01,-0.011 0.256,-0.371 0.267,-0.359 0.627,-1.929 0.361,-1.569 0.5,-2.481 0.139,-0.912 0.333,-2.176 0.195,-1.264 0.775,-3.149 0.58,-1.886 1.322,-6.933 0.741,-5.047 1.001,-7.792 0.259,-2.746 0.359,-3.904 0.101,-1.159 0.206,-3.38 0.106,-2.222 0.175,-4.873 0.068,-2.651 0.135,-4.073 0.066,-1.422 0.1,-5.913 0.034,-4.491 -0.267,-10.408 -0.301,-5.917 -0.402,-9.2 -0.102,-3.283 -0.228,-7.168 -0.127,-3.885 -0.212,-5.895 -0.085,-2.009 -0.182,-4.613 -0.097,-2.603 -0.313,-5.168 -0.216,-2.564 -0.554,-5.191 -0.338,-2.626 -0.559,-3.993 -0.22,-1.367 -0.529,-4.223 -0.31,-2.857 -0.301,-4.976 0.01,-2.12 -0.197,-6.371 -0.206,-4.252 -0.411,-6.475 -0.205,-2.223 -0.462,-5.175 -0.257,-2.953 -0.689,-6.648 -0.431,-3.695 -0.902,-6.324 -0.47,-2.629 -1.417,-6.093 -0.948,-3.464 -1.464,-5.348 -0.517,-1.884 -1.107,-5.457 -0.591,-3.573 -0.885,-6.165 -0.295,-2.593 -0.386,-3.849 -0.09,-1.257 -0.393,-2.343 -0.304,-1.087 -0.9,-1.767 -0.597,-0.68 -1.586,-1.243 -0.989,-0.563 -2.714,-0.67 -1.725,-0.108 -2.847,-0.04 -1.123,0.067 -4.042,0.422 -2.919,0.355 -4.314,0.481 -1.395,0.126 -2.334,0.184 -0.938,0.058 -3.281,0.108 -2.342,0.049 -4.317,0.098 -1.975,0.049 -6.644,0.049 -4.67,0 -7.453,0.021 -2.783,0.022 -5.221,0.06 -2.437,0.039 -3.666,0.056 -1.229,0.017 -2.492,0.054 -1.262,0.036 -1.991,0.045 -0.729,0.01 -4.117,0.164 -3.389,0.155 -5.498,0.287 -2.108,0.133 -14.526,0.787 -12.417,0.654 -19.002,1.001 -6.585,0.347 -9.604,0.468 -3.02,0.121 -4.566,0.273 -1.547,0.153 -6.934,0.297 -5.387,0.145 -8.227,0.133 -2.839,-0.011 -4.162,-0.01 -1.323,0 -2.178,0 -0.856,-0.01 -1.409,0.016 -0.554,0.022 -5.644,0.062 -5.091,0.041 -9.012,0.03 -3.921,-0.011 -12.463,0.148 -8.542,0.159 -12.837,0.248 -4.296,0.088 -6.216,0.064 -1.919,-0.025 -3.243,-0.013 -1.325,0.012 -3.478,0.01 -2.153,0 -4.101,0 -1.947,0.01 -9.687,0.355 -7.739,0.348 -12.677,0.635 -4.937,0.288 -7.276,0.435 -2.34,0.148 -4.15,0.468 -1.81,0.321 -2.726,0.564 -0.915,0.244 -1.465,0.413 -0.549,0.169 -2.415,1.001 -1.866,0.832 -2.456,1.133" />
      </g>
      <g
         id="g20504"
         inkscape:label="g20504">
        <path
           id="STROKE_15613c1f-43b4-4c3b-bd9e-682f0fb3ad5b"
           opacity="1"
           fill="none"
           stroke="#000000"
           stroke-width="1.807"
           stroke-opacity="1"
           stroke-linecap="round"
           stroke-linejoin="round"
           d="m 243.479,2563.526 q -0.027,0.01 -0.005,-0.299 0.021,-0.307 -0.298,-0.646 -0.318,-0.338 -0.856,-0.398 -0.538,-0.06 -1.24,0.015 -0.703,0.075 -2.119,1.25 -1.416,1.176 -2.452,2.141 -1.035,0.964 -2.292,2.657 -1.257,1.692 -2.117,3.634 -0.86,1.942 -1.171,3.366 -0.311,1.423 -0.262,2.438 0.048,1.014 0.308,1.639 0.259,0.625 1.006,1.353 0.747,0.727 1.219,1.156 0.472,0.429 1.949,0.554 1.477,0.125 2.229,0.131 0.752,0.01 1.803,-0.287 1.051,-0.293 2.154,-1.324 1.102,-1.031 1.645,-2.215 0.543,-1.184 0.756,-1.715 0.212,-0.531 0.243,-0.791 0.031,-0.26 -0.073,-0.512 -0.104,-0.251 -0.205,-0.359 -0.101,-0.108 -0.11,-0.149 -0.009,-0.042 -0.052,-0.115 -0.043,-0.073 -0.074,-0.136 -0.031,-0.063 -0.1,-0.162 -0.068,-0.099 -0.184,-0.266 -0.117,-0.167 -0.138,-0.163 -0.02,0.01 -0.096,-0.07 -0.077,-0.075 -0.078,-0.03 -0.001,0.046 -0.029,-0.1 -0.028,-0.147 -1.099,-0.073 -1.072,0.074 -1.827,0.337 -0.754,0.264 -1.176,0.383 -0.421,0.12 -1.583,0.697 -1.163,0.577 -1.361,0.706" />
        <path
           id="STROKE_0b20dc39-34be-40fd-806e-bdb485ffe2ba"
           opacity="1"
           fill="none"
           stroke="#000000"
           stroke-width="1.514"
           stroke-opacity="1"
           stroke-linecap="round"
           stroke-linejoin="round"
           d="m 250.506,2564.101 q 0.182,-0.251 0.13,-0.189 0.014,-0.027 0.041,-0.075 0.051,-0.144 -0.186,4.944 -0.236,5.088 -0.203,7.881 0.034,2.794 -0.005,4.014 -0.04,1.22 0.099,1.906 0.139,0.685 0.742,0.984 0.088,-0.03 0.238,-0.441 0.151,-0.412 0.236,-0.629" />
        <path
           id="STROKE_d3a80e1b-33af-4ae5-a888-97816796e93e"
           opacity="1"
           fill="none"
           stroke="#000000"
           stroke-width="1.828"
           stroke-opacity="1"
           stroke-linecap="round"
           stroke-linejoin="round"
           d="m 256.132,2575.658 q -0.013,0.013 -0.676,0.481 -0.663,0.468 -1.007,1.172 -0.345,0.703 -0.367,1.1 -0.023,0.397 -0.042,0.814 -0.019,0.417 -0.027,0.913 -0.007,0.496 0.316,1.049 0.323,0.553 0.695,0.943 0.373,0.389 0.562,0.529 0.19,0.14 0.973,0.364 0.782,0.225 1.637,0.164 0.856,-0.062 1.725,-0.652 0.87,-0.591 1.437,-1.684 0.567,-1.093 0.729,-2.046 0.161,-0.953 -0.01,-1.757 -0.17,-0.803 -0.812,-1.511 -0.642,-0.708 -1.669,-0.83 -1.026,-0.123 -1.639,-0.129 -0.613,-0.01 -1.559,0.517 -0.947,0.523 -1.466,1.513 -0.52,0.99 -0.66,1.318" />
        <path
           id="STROKE_31db4261-3f88-4269-bed0-0652b3774fc9"
           opacity="1"
           fill="none"
           stroke="#000000"
           stroke-width="1.776"
           stroke-opacity="1"
           stroke-linecap="round"
           stroke-linejoin="round"
           d="m 266.924,2564.067 q 0.028,0.029 -0.123,-0.117 -0.151,-0.146 -0.364,-0.37 -0.001,0.572 0.322,2.723 0.324,2.15 0.391,4.042 0.066,1.892 0.154,3.993 0.089,2.1 0.126,3.631 0.038,1.53 0.42,3.464 h 0.014 q 0.065,-0.078 0.026,-1.417 -0.039,-1.339 -0.045,-2.226 -0.006,-0.888 0.362,-1.608 0.368,-0.719 1.14,-1.127 0.771,-0.407 1.438,-0.425 0.667,-0.019 1.216,0.247 0.55,0.267 1.078,0.917 0.529,0.651 0.822,1.972 0.294,1.321 0.231,2.269 -0.062,0.948 -0.58,1.926 -0.518,0.978 -1.25,1.558 -0.732,0.58 -1.594,0.821 -0.861,0.241 -1.798,-0.112 -0.937,-0.353 -1.575,-1.268 -0.639,-0.915 -0.741,-1.457 -0.103,-0.541 -0.076,-0.7" />
        <path
           id="STROKE_f1ef8dfb-0493-4a11-80c8-13821d41ed6a"
           opacity="1"
           fill="none"
           stroke="#000000"
           stroke-width="1.828"
           stroke-opacity="1"
           stroke-linecap="round"
           stroke-linejoin="round"
           d="m 276.155,2576.775 q 0.257,0.01 -0.768,0.034 0.097,-0.135 -0.031,-0.075 -0.129,0.06 1.194,-0.91 1.322,-0.97 2.37,-1.43 1.048,-0.461 1.739,-0.562 0.692,-0.101 1.137,0.233 0.445,0.333 0.626,1.948 0.181,1.615 -0.063,2.957 -0.244,1.342 -0.527,2.011 -0.282,0.669 -0.481,0.886 -0.2,0.218 -0.221,0.299 -0.021,0.081 -0.23,0.107 -0.209,0.027 -0.405,0.019 -0.196,-0.01 -0.172,-0.041 0.024,-0.033 -0.055,-0.108 -0.079,-0.075 -0.494,-0.735 -0.416,-0.66 -0.947,-1.122 -0.53,-0.461 -1.084,-0.577 -0.555,-0.115 -1.049,-0.093 -0.494,0.022 -0.701,0.697 -0.207,0.676 -0.039,1.693 0.168,1.017 1.06,1.748 0.892,0.732 2.092,1.085 1.2,0.354 2.189,0.343 0.989,-0.011 2.029,-0.463 1.04,-0.452 1.492,-1.631 0.451,-1.178 0.55,-1.452" />
        <path
           id="STROKE_c278b09f-2242-41fc-b591-0554a1cdf396"
           opacity="1"
           fill="none"
           stroke="#000000"
           stroke-width="1.253"
           stroke-opacity="1"
           stroke-linecap="round"
           stroke-linejoin="round"
           d="m 288.527,2562.084 q -0.38,-0.579 -0.275,-0.373 h -0.014 q -0.128,-0.427 0.137,4.562 0.265,4.989 0.099,9.537 -0.165,4.546 -0.211,6.659 -0.045,2.113 -0.095,3.237 -0.051,1.124 0.294,1.331 0.345,0.208 0.49,0.266" />
        <path
           id="STROKE_81b5d540-3487-40c3-885a-9f8bc8bffb83"
           opacity="1"
           fill="none"
           stroke="#000000"
           stroke-width="1.828"
           stroke-opacity="1"
           stroke-linecap="round"
           stroke-linejoin="round"
           d="m 314.231,2575.482 q -0.59,0 -0.416,-0.013 -0.03,-0.071 -1.174,-0.133 -1.145,-0.062 -2.3,0.284 -1.154,0.346 -1.777,0.663 -0.622,0.316 -0.77,0.508 -0.147,0.192 -0.183,0.643 -0.035,0.45 0.623,0.683 0.659,0.232 1.205,0.408 0.547,0.176 1.149,0.3 0.602,0.124 1.854,0.651 1.251,0.527 1.839,0.865 0.588,0.337 1.047,0.728 0.458,0.39 0.888,1.15 0.43,0.76 0.5,1.405 0.069,0.646 -0.537,1.41 -0.606,0.764 -1.798,1.307 -1.191,0.543 -2.296,0.751 -1.106,0.209 -2.034,0.064 -0.928,-0.146 -1.431,-0.559 -0.503,-0.413 -0.969,-1.043 -0.467,-0.63 0.022,-1.247 0.489,-0.616 0.705,-0.802" />
        <path
           id="STROKE_50a97220-77c3-48be-b417-1a2e0e0997b1"
           opacity="1"
           fill="none"
           stroke="#000000"
           stroke-width="1.828"
           stroke-opacity="1"
           stroke-linecap="round"
           stroke-linejoin="round"
           d="m 319.333,2577.208 q -0.213,0.395 0.626,1.846 0.84,1.451 1.592,3.799 0.752,2.347 1.232,4.565 0.041,-0.075 0.082,-0.149" />
        <path
           id="STROKE_29046f10-9aef-4979-9906-d748c300f6e3"
           opacity="1"
           fill="none"
           stroke="#000000"
           stroke-width="1.225"
           stroke-opacity="1"
           stroke-linecap="round"
           stroke-linejoin="round"
           d="m 325.393,2576.43 q -0.041,-0.072 -0.43,2.979 -0.39,3.05 -0.971,6.268 -0.581,3.218 -0.995,4.941 -0.414,1.724 -0.799,3.374 -0.384,1.65 -1.371,4.89 -0.986,3.24 -2.082,6.284 -1.097,3.043 -1.236,5.223 -0.14,2.18 -0.126,2.207" />
        <path
           id="STROKE_9608ccdf-1738-45a6-bfb9-85380f41f5e8"
           opacity="1"
           fill="none"
           stroke="#000000"
           stroke-width="1.828"
           stroke-opacity="1"
           stroke-linecap="round"
           stroke-linejoin="round"
           d="m 330.27,2578.732 q -0.581,0 -0.433,0 -0.054,0 -0.172,0.013 0.186,0.504 0.831,8.151 0.03,0.041 -0.051,-2.277 -0.081,-2.318 0.012,-3.881 0.093,-1.563 0.307,-2.422 0.213,-0.86 0.693,-1.596 0.481,-0.737 1.094,-0.86 0.614,-0.122 0.964,-0.027 0.35,0.095 0.9,0.675 0.549,0.58 0.961,2.174 0.411,1.593 0.428,2.897 0.017,1.303 0.052,2.074 0.035,0.772 -0.14,1.468 -0.175,0.696 -0.6,1.288 -0.104,0.066 0.025,-1.741 0.129,-1.806 0.719,-3.462 0.591,-1.656 1.31,-2.728 0.719,-1.073 1.275,-1.639 0.557,-0.565 1.186,-0.953 0.63,-0.387 0.861,-0.419 0.23,-0.032 1.336,-0.118 1.105,-0.086 1.677,2.217 0.572,2.303 0.697,4.071 0.124,1.767 0.101,3.487 -0.023,1.72 -0.233,2.951 -0.005,-0.307 0.011,-0.484 0.016,-0.176 0.043,-0.437" />
        <path
           id="STROKE_c896c89b-01a0-4760-b2c9-3daf2e296033"
           opacity="1"
           fill="none"
           stroke="#000000"
           stroke-width="1.736"
           stroke-opacity="1"
           stroke-linecap="round"
           stroke-linejoin="round"
           d="m 349.317,2562.084 q -0.1,-0.311 -0.447,-0.399 0.059,0.023 -0.019,-0.052 -0.079,-0.076 0.053,2.308 0.132,2.383 0.337,4.095 0.204,1.712 0.309,3.656 0.104,1.944 0.123,3.946 0.019,2.002 0.448,8.469 0.053,-0.351 -0.02,-2.017 -0.072,-1.667 0.103,-3.231 0.175,-1.563 0.434,-2.535 0.259,-0.972 0.701,-1.48 0.442,-0.507 1.204,-0.657 0.762,-0.151 1.761,0.51 0.998,0.661 1.883,1.657 0.884,0.996 1.547,2.145 0.664,1.149 0.881,2.344 0.218,1.196 0.168,2.124 -0.051,0.928 -0.483,1.55 -0.432,0.622 -1.134,1.13 -0.701,0.508 -2,0.633 -1.299,0.125 -2.349,0.075 -1.05,-0.05 -2.132,-0.887 -1.082,-0.836 -1.758,-1.666 -0.676,-0.829 -0.737,-1.734 -0.06,-0.906 -0.047,-1.176" />
        <path
           id="STROKE_5b80d7ad-b60b-47cc-a598-6aebe0c81f4d"
           opacity="1"
           fill="none"
           stroke="#000000"
           stroke-width="1.828"
           stroke-opacity="1"
           stroke-linecap="round"
           stroke-linejoin="round"
           d="m 361.221,2578.244 q -0.241,0.549 -0.253,0.488 -0.171,0.179 -0.546,0.945 -0.375,0.766 -0.5,1.753 -0.125,0.988 -0.156,1.601 -0.031,0.614 0.265,1.198 0.297,0.583 0.797,1.052 0.5,0.468 1.332,0.73 0.832,0.262 1.933,0.22 1.102,-0.042 1.704,-0.418 0.602,-0.377 1.104,-1.021 0.503,-0.644 0.671,-1.575 0.168,-0.931 0.137,-1.925 -0.031,-0.995 -0.598,-1.787 -0.566,-0.792 -1.548,-1.491 -0.982,-0.699 -2.195,-0.899 -1.213,-0.2 -2.207,-0.028 -0.995,0.172 -1.948,0.848 -0.954,0.675 -1.2,2.345 -0.247,1.671 -0.206,1.986" />
        <path
           id="STROKE_3141f905-e6d9-4b17-b8be-6aaa8e969e79"
           opacity="1"
           fill="none"
           stroke="#000000"
           stroke-width="1.291"
           stroke-opacity="1"
           stroke-linecap="round"
           stroke-linejoin="round"
           d="m 371.724,2559.843 q 0.047,-0.126 0.045,7.29 -0.002,7.416 -0.018,11.328 -0.017,3.912 -0.053,5.576 -0.036,1.663 0.09,2.473 0.127,0.811 0.839,1.68 0.131,-0.071 0.217,-0.143" />
        <path
           id="STROKE_1faaf28d-e84e-4530-aacd-ca3e1267637f"
           opacity="1"
           fill="none"
           stroke="#000000"
           stroke-width="1.828"
           stroke-opacity="1"
           stroke-linecap="round"
           stroke-linejoin="round"
           d="m 384.377,2576.518 q 0.047,-0.25 -0.271,-0.604 -0.318,-0.355 -1.333,-0.345 -1.016,0.01 -2.253,0.809 -1.237,0.799 -1.816,1.366 -0.58,0.567 -0.744,0.856 -0.163,0.289 -0.099,0.47 0.064,0.18 0.256,0.341 0.192,0.161 0.818,0.305 0.625,0.144 2.256,0.509 1.631,0.364 2.83,0.882 1.198,0.518 1.83,0.918 0.632,0.401 1.169,1.03 0.536,0.629 0.503,1.42 -0.032,0.791 -0.118,1.186 -0.085,0.395 -0.662,0.872 -0.577,0.478 -0.873,0.648 -0.297,0.17 -1.534,0.272 -1.238,0.103 -2.5,-0.146 -1.262,-0.248 -1.878,-0.61 -0.616,-0.362 -0.747,-0.491" />
      </g>
    </g>
    <g
       id="par_g20518"
       inkscape:label="par_g20518"
       transform="matrix(0.19242427,0,0,0.19242427,49.711675,-403.83142)">
      <g
         id="g67656">
        <path
           id="STROKE_5e8dda49-f57d-4740-bd96-b4fd0db34d05"
           opacity="1"
           fill="none"
           stroke="#000000"
           stroke-width="1.641"
           stroke-opacity="1"
           stroke-linecap="round"
           stroke-linejoin="round"
           d="m 252.355,2623.158 q -0.104,-0.127 0.488,-1.32 0.679,0.186 1.292,1.874 0.614,1.688 1.641,4.858 1.026,3.169 1.979,5.44 0.953,2.271 1.499,3.341 0.547,1.069 0.738,1.612 0.192,0.544 0.94,1.541 0.749,0.996 1.255,1.702 0.506,0.706 1.814,0.806 0.359,0.166 0.358,-3.333 -0.002,-3.499 -0.354,-5.884 -0.352,-2.384 -0.576,-3.67 -0.225,-1.286 -0.628,-3.852 -0.403,-2.567 -1.311,-5.037 -0.027,0 -0.04,0 -0.006,0.266 0.067,0.505 0.073,0.239 0.158,0.443" />
        <path
           id="STROKE_bd54a8be-a1fc-410c-bd65-2e743f13db1a"
           opacity="1"
           fill="none"
           stroke="#000000"
           stroke-width="1.828"
           stroke-opacity="1"
           stroke-linecap="round"
           stroke-linejoin="round"
           d="m 268.566,2636.096 q -0.064,-0.578 -0.057,-0.393 0.008,0.185 -0.078,-0.173 -0.085,-0.358 0.141,-0.893 0.226,-0.535 0.925,-0.935 0.699,-0.4 1.611,-0.646 0.912,-0.245 1.782,-0.276 0.87,-0.032 1.647,0.372 0.777,0.405 1.199,1.752 0.423,1.347 0.483,2.878 0.06,1.53 -0.331,3.054 -0.391,1.525 -1.587,2.145 -0.233,-0.018 -0.542,-1.312 -0.308,-1.293 -0.655,-2.022 -0.347,-0.729 -0.654,-1.127 -0.306,-0.398 -0.453,-0.49 -0.147,-0.092 -0.463,-0.171 -0.315,-0.078 -0.872,0 -0.557,0.08 -0.678,1.105 -0.121,1.024 -0.051,2.022 0.07,0.999 0.546,1.731 0.475,0.732 1.26,1.119 0.784,0.388 2.031,0.37 1.246,-0.017 2.309,-0.606 1.063,-0.59 1.32,-0.803" />
        <path
           id="STROKE_0f944c1f-5af3-404c-b637-1773791f9273"
           opacity="1"
           fill="none"
           stroke="#000000"
           stroke-width="1.828"
           stroke-opacity="1"
           stroke-linecap="round"
           stroke-linejoin="round"
           d="m 279.864,2636.008 q 0.251,0.02 0.181,0.01 -0.071,-0.01 0.258,-0.022 0.329,-0.012 2.063,7.619 0.155,0.116 -0.31,0.062 -0.465,-0.054 -0.91,-0.516 -0.445,-0.463 -0.977,-1.596 -0.533,-1.134 -0.765,-2.386 -0.233,-1.252 -0.275,-1.942 -0.042,-0.69 0.175,-1.304 0.217,-0.614 0.801,-1.342 0.584,-0.729 2.368,-0.69 1.785,0.039 2.043,0.184" />
        <path
           id="STROKE_10de69d1-1602-4247-a692-08f505215d8e"
           opacity="1"
           fill="none"
           stroke="#000000"
           stroke-width="1.828"
           stroke-opacity="1"
           stroke-linecap="round"
           stroke-linejoin="round"
           d="m 288.327,2635.406 q 0.046,0.051 0.063,-0.833 -0.036,0.168 1.228,10.636 -0.005,-0.04 -0.101,-0.219 -0.097,-0.18 -0.215,-0.384" />
        <path
           id="STROKE_161aac67-0ca3-4931-a7a3-66600aaa123a"
           opacity="1"
           fill="none"
           stroke="#000000"
           stroke-width="1.828"
           stroke-opacity="1"
           stroke-linecap="round"
           stroke-linejoin="round"
           d="m 286.954,2630.091 q -0.48,-0.598 -0.42,-0.5 0.06,0.099 -0.013,-0.366 -0.172,-0.26 0.733,0.044 0.906,0.304 1.163,0.477" />
        <path
           id="STROKE_4c1d4f7d-c072-4dd9-9e19-b3aa64fa8c40"
           opacity="1"
           fill="none"
           stroke="#000000"
           stroke-width="1.828"
           stroke-opacity="1"
           stroke-linecap="round"
           stroke-linejoin="round"
           d="m 293.953,2636.76 q 0.025,0.13 -0.128,-0.282 -0.152,-0.412 -0.022,-0.991 0.13,-0.579 0.726,-0.942 0.596,-0.364 1.384,-0.561 0.787,-0.198 1.841,0.111 1.053,0.31 1.5,1.502 0.446,1.193 0.472,2.039 0.026,0.847 -0.035,1.249 -0.061,0.403 -0.165,0.686 -0.105,0.283 -0.317,0.657 -0.211,0.373 -0.346,0.577 -0.135,0.203 -0.271,0.393 -0.136,0.19 -0.335,0.359 -0.2,0.168 -0.389,0.267 -0.189,0.098 -0.145,0.051 0.044,-0.048 0.02,0.022 -0.025,0.071 -0.202,0.071 -0.178,-10e-4 -0.217,-0.086 -0.039,-0.085 -0.155,-0.296 -0.117,-0.211 -0.154,-0.371 -0.037,-0.161 -0.049,-0.158 -0.013,0 -0.017,-0.114 -0.004,-0.115 -0.136,-0.659 -0.131,-0.545 -0.336,-1.147 -0.204,-0.603 -0.588,-0.827 -0.384,-0.226 -0.905,-0.249 -0.521,-0.024 -1.044,0.817 -0.524,0.841 -0.631,1.867 -0.106,1.026 -0.103,1.886 0.003,0.86 0.976,1.554 0.973,0.692 1.481,0.907 0.507,0.215 1.651,0.399 1.144,0.183 2.237,-0.158 1.093,-0.341 1.57,-0.886 0.477,-0.545 0.635,-0.761" />
        <path
           id="STROKE_f3633c3a-aff6-4336-9443-9e56819c2599"
           opacity="1"
           fill="none"
           stroke="#000000"
           stroke-width="1.661"
           stroke-opacity="1"
           stroke-linecap="round"
           stroke-linejoin="round"
           d="m 305.541,2622.671 q -0.117,-0.338 -0.226,-0.372 -0.271,0.071 0.333,6.495 0.603,6.425 1.22,14.12 -0.108,-0.396 0.327,-2.332 0.436,-1.936 0.803,-3.062 0.368,-1.125 0.564,-1.623 0.196,-0.498 0.724,-0.834 0.528,-0.336 1.508,0.673 0.979,1.009 1.699,2.132 0.719,1.123 1.064,2.313 0.346,1.19 0.322,1.954 -0.024,0.764 -0.257,1.531 -0.232,0.766 -1.133,1.501 -0.9,0.735 -1.873,1.041 -0.973,0.307 -1.878,0.391 -0.905,0.083 -1.496,-0.12 -0.592,-0.203 -0.935,-0.57 -0.344,-0.367 -0.583,-0.708 -0.238,-0.34 -0.028,-1.243 0.21,-0.902 0.368,-1.105" />
        <path
           id="STROKE_c98d8649-22c7-4a11-9433-c2d333c54e44"
           opacity="1"
           fill="none"
           stroke="#000000"
           stroke-width="1.515"
           stroke-opacity="1"
           stroke-linecap="round"
           stroke-linejoin="round"
           d="m 316.703,2621.581 q 0.104,0.01 -0.316,-0.833 0.044,-0.165 0.069,3.848 0.025,4.013 -0.015,7.028 -0.041,3.015 0.385,5.922 0.425,2.908 0.754,4.561 0.328,1.653 0.948,2.79 0.082,0.016 0.116,0.041 0.034,0.025 0.182,-0.218 0.149,-0.242 0.234,-0.432" />
        <path
           id="STROKE_86d01b36-f946-408a-ac89-75b06bfa18ed"
           opacity="1"
           fill="none"
           stroke="#000000"
           stroke-width="1.828"
           stroke-opacity="1"
           stroke-linecap="round"
           stroke-linejoin="round"
           d="m 322.447,2638.716 q -0.088,0.031 1.609,-0.076 1.697,-0.106 2.618,-0.042 0.92,0.064 1.617,-0.09 0.696,-0.154 1.058,-0.505 0.362,-0.351 0.426,-1.093 0.064,-0.741 -1.04,-1.27 -1.104,-0.529 -2.375,-0.6 -1.27,-0.072 -2.095,-0.048 -0.826,0.024 -1.708,0.465 -0.883,0.44 -1.606,1.287 -0.722,0.847 -1.02,2.006 -0.298,1.158 -0.216,2.038 0.082,0.879 0.641,1.943 0.559,1.064 1.679,1.951 1.119,0.888 2.722,1.058 1.603,0.17 2.57,-0.136 0.968,-0.307 1.37,-0.51" />
        <path
           id="STROKE_ce219483-eacb-499f-b96d-5bd0188d5e84"
           opacity="1"
           fill="none"
           stroke="#000000"
           stroke-width="1.828"
           stroke-opacity="1"
           stroke-linecap="round"
           stroke-linejoin="round"
           d="m 338.713,2634.661 q -0.306,0.053 -1.031,-0.112 -0.725,-0.166 -1.428,0.026 -0.702,0.193 -1.057,0.881 -0.354,0.688 -0.438,0.84 -0.083,0.153 -0.22,1.057 -0.137,0.905 -0.037,1.252 0.101,0.348 0.584,0.794 0.483,0.446 1.537,0.989 1.054,0.543 1.611,0.857 0.557,0.314 0.948,0.552 0.39,0.239 1.253,0.875 0.863,0.636 1.295,1.354 0.432,0.719 0.572,1.54 0.14,0.822 -0.447,1.658 -0.587,0.835 -1.768,1.229 -1.182,0.394 -2.398,0.626 -1.216,0.232 -3.784,-0.015 -2.569,-0.247 -4.189,-0.714 -1.62,-0.467 -2.139,-0.609" />
      </g>
      <g
         id="par_g67644">
        <path
           id="STROKE_e635aa3b-9d31-48ff-9896-415edc068d1c"
           opacity="1"
           fill="none"
           stroke="#000000"
           stroke-width="1.662"
           stroke-opacity="1"
           stroke-linecap="round"
           stroke-linejoin="round"
           d="m 240.895,2619.411 q -0.055,0.112 0.165,2.814 0.219,2.702 0.231,5.481 0.012,2.779 0.011,6.547 -0.001,3.767 -0.076,5.995 -0.076,2.228 -0.117,3.251 -0.042,1.022 -0.099,1.661 -0.056,0.639 -0.324,4.376 -0.268,3.736 -0.104,7.661 0.142,0.01 0.192,-0.09 0.05,-0.096 0.139,-0.241" />
        <path
           id="STROKE_fc802cea-66c5-43d2-8a9a-f3c88a86dc01"
           opacity="1"
           fill="none"
           stroke="#000000"
           stroke-width="1.706"
           stroke-opacity="1"
           stroke-linecap="round"
           stroke-linejoin="round"
           d="m 240.778,2618.432 q 0,0 0.181,-0.102 0.181,-0.103 2.462,-0.316 2.281,-0.213 6.267,-0.683 3.985,-0.471 6.032,-0.684 2.047,-0.212 3.007,-0.29 0.96,-0.077 1.684,-0.115 0.725,-0.037 3.039,-0.232 2.313,-0.194 4.526,-0.346 2.212,-0.152 4.757,-0.273 2.545,-0.121 6.739,0.02 4.194,0.141 6.729,0.266 2.536,0.125 4.157,0.179 1.62,0.053 2.716,0.112 1.096,0.059 5.108,0.087 4.012,0.028 6.666,0.027 2.655,-10e-4 3.924,0.01 1.269,0.01 2.242,0.018 0.974,0.011 7.589,-0.056 6.614,-0.068 10.923,-0.077 4.308,-0.01 6.348,0.01 2.04,0.019 5.337,-0.077 3.298,-0.095 5.836,-0.08 2.537,0.016 3.796,0 1.259,-0.021 2.522,0.197 1.264,0.216 2.051,0.356 0.787,0.139 1.371,0.611 0.585,0.471 0.899,1.627 0.315,1.156 0.36,4.63 0.046,3.475 0.047,5.439 10e-4,1.965 0.018,3.775 0.017,1.809 -0.098,3.034 -0.115,1.226 -0.372,3.483 -0.258,2.256 -0.37,3.416 -0.112,1.161 -0.193,2.727 -0.082,1.567 -0.072,3.008 0.009,1.442 0.002,2.135 -0.008,0.693 -0.08,1.003 -0.072,0.31 -0.255,0.682 -0.183,0.371 -0.443,0.553 -0.26,0.181 -0.463,0.313 -0.204,0.132 -1.411,0.57 -1.207,0.438 -4.553,0.823 -3.346,0.385 -7.443,0.879 -4.097,0.495 -6.491,0.752 -2.393,0.257 -4.472,0.416 -2.079,0.16 -6.956,0.532 -4.877,0.372 -10.148,0.681 -5.271,0.308 -8.124,0.369 -2.853,0.062 -4.119,0.076 -1.265,0.014 -2.135,0.032 -0.87,0.017 -1.505,0.018 -0.636,0 -3.511,0.087 -2.875,0.085 -6.674,0.096 -3.8,0.011 -5.796,-0.032 -1.997,-0.042 -4.113,-0.154 -2.116,-0.112 -3.599,-0.219 -1.483,-0.108 -7.444,-0.267 -5.961,-0.16 -9.515,-0.136 -3.554,0.025 -6.402,0.109 -2.847,0.083 -4.183,0.107 -1.336,0.024 -2.525,0.033 -1.189,0.01 -3.247,0.088 -2.058,0.079 -2.223,0.109" />
      </g>
    </g>
    <g
       id="par_g20535"
       transform="matrix(0.19242427,0,0,0.19242427,49.711675,-403.83142)">
      <g
         id="g67675">
        <path
           id="STROKE_43c05fee-e789-44f1-a09f-17181c6e496a"
           opacity="1"
           fill="none"
           stroke="#000000"
           stroke-width="1.589"
           stroke-opacity="1"
           stroke-linecap="round"
           stroke-linejoin="round"
           d="m 250.454,2679.79 q -0.079,-0.17 -0.083,-0.15 -0.173,-0.327 -0.107,-0.209 -0.008,-0.016 -0.008,-0.039 -0.007,-0.072 0.339,1.366 0.346,1.438 0.592,3.234 0.246,1.797 0.369,2.717 0.123,0.919 0.266,2.676 0.143,1.758 -0.028,6.46 -0.016,-0.122 0.005,-0.281 0.021,-0.158 0.047,-0.282" />
        <path
           id="STROKE_cde1e0e9-1c84-4a85-a99f-2b69f2939ed6"
           opacity="1"
           fill="none"
           stroke="#000000"
           stroke-width="1.461"
           stroke-opacity="1"
           stroke-linecap="round"
           stroke-linejoin="round"
           d="m 246.562,2681.529 q -0.341,-0.052 -0.265,-0.029 0.077,0.023 -0.048,-0.094 0.129,0.053 1.763,-0.641 1.634,-0.693 3.395,-1.601 1.761,-0.908 2.919,-1.456 1.158,-0.548 1.952,-0.996 0.794,-0.448 3.106,-1.316 2.311,-0.869 3.577,-1.327 1.265,-0.457 2.134,-0.729 0.869,-0.273 1.266,-0.259 0.398,0.014 0.513,0.022" />
        <path
           id="STROKE_68101544-0f31-4e71-9f51-4c775b82e694"
           opacity="1"
           fill="none"
           stroke="#000000"
           stroke-width="1.655"
           stroke-opacity="1"
           stroke-linecap="round"
           stroke-linejoin="round"
           d="m 252.127,2687.966 q -0.079,0.06 0.038,-0.108 0.116,-0.168 0.793,-0.65 0.678,-0.481 2.445,-1.502 1.767,-1.022 2.809,-1.582 1.043,-0.56 2.327,-1.055 1.284,-0.494 2.076,-0.635 0.791,-0.142 0.966,-0.175" />
        <path
           id="STROKE_ed21e346-e2e9-4c5b-9aad-9fa3de0ab5ba"
           opacity="1"
           fill="none"
           stroke="#000000"
           stroke-width="1.828"
           stroke-opacity="1"
           stroke-linecap="round"
           stroke-linejoin="round"
           d="m 266.707,2687.189 q 0,-0.039 -0.016,-0.75 -0.227,0.319 -0.171,0.308 -0.044,0.036 -0.356,1.688 -0.312,1.652 -0.318,2.987 -0.006,1.335 0.002,2.012 0.009,0.676 0.256,1.202 0.246,0.526 0.466,0.883 0.22,0.357 0.579,0.57 0.359,0.213 0.941,0.176 0.582,-0.037 1.035,-0.244 0.452,-0.206 1.18,-0.842 0.727,-0.636 1.208,-1.425 0.48,-0.79 0.742,-1.686 0.261,-0.897 0.263,-1.544 0.001,-0.647 0.019,-1.029 0.018,-0.382 -0.135,-0.756 -0.153,-0.373 -0.416,-0.538 -0.263,-0.166 -0.531,-0.183 -0.268,-0.017 -0.356,0.34 -0.088,0.356 -0.103,0.456" />
        <path
           id="STROKE_77b736ea-2edc-41f5-8d1c-99c02fc50374"
           opacity="1"
           fill="none"
           stroke="#000000"
           stroke-width="1.828"
           stroke-opacity="1"
           stroke-linecap="round"
           stroke-linejoin="round"
           d="m 277.072,2687.517 q -0.391,0.175 -0.258,0.142 -0.143,0.138 -0.089,2.192 0.054,2.055 0.659,5.81 0.049,0.21 -0.015,-0.145 -0.063,-0.355 -0.172,-0.728 -0.108,-0.373 -0.202,-1.144 -0.093,-0.771 -0.106,-1.591 -0.013,-0.82 0.012,-1.282 0.025,-0.463 0.508,-1.151 0.483,-0.688 1.173,-1.181 0.69,-0.493 1.292,-0.68 0.602,-0.186 1.209,-0.196 0.607,-0.01 1.252,0.439 0.646,0.45 1.07,1.274 0.424,0.825 0.478,1.724 0.055,0.898 0.059,1.384 0.005,0.485 -0.03,0.913 -0.036,0.428 -0.65,2.665 0.016,-0.058 0.194,-0.382 0.179,-0.323 0.285,-0.497" />
        <path
           id="STROKE_a92d914f-bf11-4322-a735-71210b91c5b0"
           opacity="1"
           fill="none"
           stroke="#000000"
           stroke-width="1.828"
           stroke-opacity="1"
           stroke-linecap="round"
           stroke-linejoin="round"
           d="m 293.309,2687.849 q -0.077,-0.083 -0.66,-0.296 -0.584,-0.214 -1.286,0.171 -0.703,0.384 -1.193,0.905 -0.49,0.521 -0.761,0.831 -0.27,0.31 -0.701,1.031 -0.431,0.721 -0.639,1.711 -0.207,0.989 -0.224,1.677 -0.016,0.688 0.218,1.252 0.234,0.565 0.598,0.981 0.363,0.416 1.175,0.583 0.811,0.167 1.436,0.189 0.624,0.022 1.483,-0.295 0.858,-0.317 1.307,-0.75 0.45,-0.433 0.591,-0.592" />
        <path
           id="STROKE_2755c458-32c8-4776-b906-4b7265275c11"
           opacity="1"
           fill="none"
           stroke="#000000"
           stroke-width="1.429"
           stroke-opacity="1"
           stroke-linecap="round"
           stroke-linejoin="round"
           d="m 299.171,2673.685 q 0.068,-0.054 -0.211,0.014 -0.278,0.068 -0.133,2.464 0.145,2.396 0.395,3.937 0.251,1.541 0.377,4.29 0.127,2.749 0.139,4.211 0.011,1.462 0.034,3.685 0.022,2.223 -0.148,4.266 -0.075,0.023 -0.152,-0.163 -0.077,-0.187 -0.134,-0.345" />
        <path
           id="STROKE_7f7792f9-e38c-42b4-9177-a0b096c8e994"
           opacity="1"
           fill="none"
           stroke="#000000"
           stroke-width="1.473"
           stroke-opacity="1"
           stroke-linecap="round"
           stroke-linejoin="round"
           d="m 291.339,2680.802 q -0.021,-0.305 2.658,-1.22 2.679,-0.916 5.21,-1.534 2.532,-0.619 4.811,-0.687 2.279,-0.069 2.584,-0.059" />
        <path
           id="STROKE_2c31668a-ee7b-4cab-8c8e-ce8a04527028"
           opacity="1"
           fill="none"
           stroke="#000000"
           stroke-width="1.828"
           stroke-opacity="1"
           stroke-linecap="round"
           stroke-linejoin="round"
           d="m 306.075,2688.747 q 0.023,-0.069 -0.101,-0.441 0.022,0.01 -0.21,0.01 -0.232,0 -0.478,0.754 -0.245,0.752 -0.297,1.827 -0.052,1.074 0.014,1.896 0.066,0.821 0.318,1.453 0.252,0.632 0.519,0.939 0.267,0.307 0.495,0.236 0.227,-0.071 0.319,-0.122" />
        <path
           id="STROKE_31b19c91-2e8b-4f22-b0ac-73cf991f807e"
           opacity="1"
           fill="none"
           stroke="#000000"
           stroke-width="1.828"
           stroke-opacity="1"
           stroke-linecap="round"
           stroke-linejoin="round"
           d="m 304.981,2684.599 q -0.066,0.017 -0.479,-0.074 0.023,-0.034 0.046,-0.059" />
        <path
           id="STROKE_b49a8028-2150-4c9f-94e4-4d2b9e3744c7"
           opacity="1"
           fill="none"
           stroke="#000000"
           stroke-width="1.828"
           stroke-opacity="1"
           stroke-linecap="round"
           stroke-linejoin="round"
           d="m 312.578,2687.419 q -0.333,0.072 -0.821,0.682 -0.488,0.609 -0.747,1.352 -0.258,0.743 -0.314,1.562 -0.055,0.818 -0.078,1.656 -0.023,0.838 0.283,1.65 0.306,0.811 0.647,1.265 0.34,0.455 0.894,0.764 0.553,0.309 1.202,0.421 0.65,0.112 1.229,0.039 0.579,-0.073 1.218,-0.571 0.639,-0.498 1.141,-1.314 0.503,-0.816 0.761,-1.691 0.258,-0.875 0.346,-1.349 0.088,-0.475 0.168,-1.231 0.079,-0.757 -0.029,-1.477 -0.109,-0.721 -0.283,-1.116 -0.174,-0.395 -0.37,-0.69 -0.196,-0.296 -0.869,-0.438 -0.672,-0.141 -1.331,-0.13 -0.659,0.012 -1.382,0.335 -0.724,0.323 -1.209,0.691 -0.485,0.369 -0.871,0.824 -0.385,0.454 -0.552,1.613 -0.166,1.159 -0.189,1.45" />
        <path
           id="STROKE_9b904d08-be54-4b72-9c91-28c23806bb53"
           opacity="1"
           fill="none"
           stroke="#000000"
           stroke-width="1.803"
           stroke-opacity="1"
           stroke-linecap="round"
           stroke-linejoin="round"
           d="m 321.682,2688.779 q -0.323,0.306 0.123,2.064 0.445,1.758 0.754,2.902 0.309,1.144 0.259,2.434 -0.367,0.083 -0.282,0.049 -0.294,0.075 -0.352,-1.379 -0.057,-1.454 0.044,-2.686 0.101,-1.232 0.351,-2.053 0.251,-0.821 0.496,-1.303 0.245,-0.482 0.68,-0.823 0.435,-0.342 0.999,-0.448 0.563,-0.106 1.114,0.056 0.551,0.163 0.933,0.561 0.381,0.398 0.71,0.942 0.33,0.544 0.602,2.141 0.272,1.597 -0.261,4.215 -0.532,2.617 -0.589,2.734" />
        <path
           id="STROKE_54c718ff-215d-45a2-9cd0-b618c4aef938"
           opacity="1"
           fill="none"
           stroke="#000000"
           stroke-width="1.828"
           stroke-opacity="1"
           stroke-linecap="round"
           stroke-linejoin="round"
           d="m 338.395,2685.609 q 0.261,0.052 -0.74,-0.047 -1,-0.099 -2.014,0.183 -1.015,0.281 -1.36,0.552 -0.346,0.271 -0.671,0.503 -0.325,0.232 -0.73,0.679 -0.405,0.448 -0.751,0.946 -0.346,0.498 -0.35,1.103 -0.004,0.606 -0.04,0.941 -0.035,0.336 -0.059,0.317 -0.024,-0.019 0.353,0.339 0.377,0.358 0.541,0.378 0.165,0.019 0.151,0.022 -0.014,0 -0.003,0.028 0.01,0.027 1.332,0.082 1.322,0.056 2.117,0.209 0.794,0.154 1.559,0.656 0.766,0.503 1.124,1.121 0.359,0.617 0.477,1.484 0.118,0.867 -0.64,1.828 -0.758,0.961 -3.237,0.377 -2.48,-0.585 -2.691,-0.709" />
      </g>
      <g
         id="par_g67660">
        <path
           id="STROKE_b681a596-3e73-4e09-875d-3e59280a3000"
           opacity="1"
           fill="none"
           stroke="#000000"
           stroke-width="1.416"
           stroke-opacity="1"
           stroke-linecap="round"
           stroke-linejoin="round"
           d="m 240.431,2674.196 q 0.106,0.02 -0.2,0.044 -0.306,0.025 -0.398,0.38 -0.092,0.354 -0.139,1.795 -0.046,1.441 -0.052,2.19 -0.006,0.75 -0.155,4.737 -0.15,3.987 -0.206,7.925 -0.057,3.938 -0.004,6.37 0.053,2.433 0.265,4.457 0.211,2.023 0.212,5.607 0.012,-0.05 0.087,-0.559 0.075,-0.509 0.134,-0.821" />
        <path
           id="STROKE_ba543587-5dc7-400c-8be1-254e98bff58b"
           opacity="1"
           fill="none"
           stroke="#000000"
           stroke-width="1.694"
           stroke-opacity="1"
           stroke-linecap="round"
           stroke-linejoin="round"
           d="m 239.503,2671.818 q -0.024,-0.207 0.479,-0.254 0.503,-0.046 1.722,-0.089 1.22,-0.044 1.985,-0.114 0.765,-0.07 2.02,-0.277 1.255,-0.206 3.782,-0.761 2.527,-0.554 6.491,-0.644 3.964,-0.089 6.397,0.018 2.432,0.108 4.066,0.08 1.633,-0.027 2.838,-0.015 1.204,0.012 4.036,0 2.832,-0.01 6.074,0 3.242,0.013 5.221,0.023 1.98,0.01 2.952,0.034 0.971,0.025 4.52,-0.049 3.549,-0.074 6.981,-0.19 3.431,-0.116 5.096,-0.156 1.664,-0.041 2.48,-0.062 0.815,-0.022 1.501,-0.03 0.686,-0.01 1.151,-0.01 0.465,0 1.244,0.015 0.779,0.016 5.055,-0.171 4.277,-0.187 7.369,-0.326 3.092,-0.139 4.425,-0.151 1.334,-0.012 3.643,0.01 2.308,0.018 4.366,-0.012 2.059,-0.03 5.314,0.046 3.255,0.076 5.359,0.268 2.104,0.192 3.623,0.54 1.518,0.347 2.463,0.601 0.945,0.253 1.478,0.829 0.534,0.575 0.836,0.96 0.303,0.385 0.593,1.605 0.29,1.22 -0.016,6.816 -0.306,5.595 -0.45,8.493 -0.144,2.897 -0.169,4.171 -0.025,1.274 -0.017,2.682 0.009,1.407 -0.094,3.524 -0.103,2.116 -0.161,3.054 -0.058,0.938 -0.175,1.791 -0.117,0.854 -0.384,1.373 -0.267,0.519 -0.523,0.708 -0.257,0.189 -0.39,0.258 -0.133,0.068 -0.274,0.118 -0.14,0.049 -0.488,0.274 -0.348,0.225 -2.021,0.213 -1.673,-0.012 -4.566,0.306 -2.893,0.318 -5.037,0.59 -2.144,0.273 -3.171,0.48 -1.027,0.208 -4.535,0.424 -3.509,0.217 -5.365,0.267 -1.857,0.05 -2.821,0.079 -0.964,0.029 -6.446,-0.122 -5.481,-0.15 -8.906,-0.18 -3.426,-0.03 -5.161,-0.016 -1.735,0.014 -2.572,0.021 -0.836,0.01 -2.313,0.109 -1.477,0.101 -5.504,0.274 -4.027,0.173 -11.823,0.496 -7.796,0.322 -11.674,0.381 -3.878,0.06 -5.766,0.036 -1.889,-0.023 -5.113,0.024 -3.224,0.048 -7.04,0.186 -3.816,0.138 -5.907,0.159 -2.092,0.022 -3.16,-0.043 -1.068,-0.065 -1.455,-0.309 -0.387,-0.245 -0.489,-0.372" />
      </g>
    </g>
  </g>
</svg>
