<?xml version="1.0" encoding="UTF-8" standalone="no"?>
<svg
   xmlns:dc="http://purl.org/dc/elements/1.1/"
   xmlns:cc="http://creativecommons.org/ns#"
   xmlns:rdf="http://www.w3.org/1999/02/22-rdf-syntax-ns#"
   xmlns:svg="http://www.w3.org/2000/svg"
   xmlns="http://www.w3.org/2000/svg"
   xmlns:sodipodi="http://sodipodi.sourceforge.net/DTD/sodipodi-0.dtd"
   xmlns:inkscape="http://www.inkscape.org/namespaces/inkscape"
   version="1.1"
   viewBox="0 0 335.94098 337.1091"
   stroke-miterlimit="10"
   id="svg99"
   sodipodi:docname="bob_fetches.svg"
   width="335.94098"
   height="337.1091"
   style="fill:none;stroke:none;stroke-linecap:square;stroke-miterlimit:10"
   inkscape:version="0.92.5 (2060ec1f9f, 2020-04-08)">
  <metadata
     id="metadata105">
    <rdf:RDF>
      <cc:Work
         rdf:about="">
        <dc:format>image/svg+xml</dc:format>
        <dc:type
           rdf:resource="http://purl.org/dc/dcmitype/StillImage" />
        <dc:title></dc:title>
      </cc:Work>
    </rdf:RDF>
  </metadata>
  <defs
     id="defs103" />
  <sodipodi:namedview
     pagecolor="#ffffff"
     bordercolor="#666666"
     borderopacity="1"
     objecttolerance="10"
     gridtolerance="10"
     guidetolerance="10"
     inkscape:pageopacity="0"
     inkscape:pageshadow="2"
     inkscape:window-width="640"
     inkscape:window-height="480"
     id="namedview101"
     showgrid="false"
     fit-margin-top="15"
     fit-margin-left="15"
     fit-margin-right="15"
     fit-margin-bottom="15"
     inkscape:zoom="0.78333333"
     inkscape:cx="110.93752"
     inkscape:cy="93.158331"
     inkscape:current-layer="layer1" />
  <clipPath
     id="g800ff8fafc_0_973.0">
    <path
       d="M 0,0 H 960 V 540 H 0 Z"
       id="path2"
       inkscape:connector-curvature="0"
       style="clip-rule:nonzero" />
  </clipPath>
  <g
     clip-path="url(#g800ff8fafc_0_973.0)"
     id="g97"
     transform="translate(-314.01177,-218.89091)" />
  <g
     inkscape:groupmode="layer"
     id="layer1"
     inkscape:label="Layer 1"
     transform="translate(-314.01177,-218.89091)">
    <rect
       style="fill:#ffffff;fill-opacity:1;stroke:#000000;stroke-opacity:0.01162792"
       id="rect958"
       width="353.61703"
       height="366.38297"
       x="306.3522"
       y="212.59575" />
  </g>
  <g
     inkscape:groupmode="layer"
     id="layer2"
     inkscape:label="Layer 2"
     transform="translate(-314.01177,-218.89091)">
    <path
       d="M 420.7756,507.2756 H 545.56298 V 540 H 420.7756 Z"
       id="path7"
       inkscape:connector-curvature="0"
       style="fill:#000000;fill-opacity:0;fill-rule:evenodd" />
    <path
       d="M 420.7756,507.2756 H 545.56298 V 540 H 420.7756 Z"
       id="path9"
       inkscape:connector-curvature="0"
       style="fill-rule:evenodd;stroke:#000000;stroke-width:2;stroke-linecap:butt;stroke-linejoin:round" />
    <path
       d="m 452.3099,523.3884 v -0.21875 q 0,-0.23437 0.0937,-0.32812 0.0937,-0.10938 0.23438,-0.10938 0.14062,0 0.23437,0.10938 0.0937,0.0937 0.0937,0.32812 v 1.48438 q 0,0.25 -0.0937,0.35937 -0.0937,0.0937 -0.23437,0.0937 -0.14063,0 -0.23438,-0.0937 -0.0781,-0.0937 -0.0937,-0.29687 -0.0469,-0.5625 -0.73437,-1.0625 -0.6875,-0.5 -1.84375,-0.5 -1.45313,0 -2.21875,0.92187 -0.75,0.90625 -0.75,2.09375 0,1.26563 0.82812,2.09375 0.84375,0.82813 2.17188,0.82813 0.76562,0 1.54687,-0.28125 0.79688,-0.28125 1.4375,-0.90625 0.17188,-0.15625 0.29688,-0.15625 0.125,0 0.21875,0.0937 0.0937,0.0937 0.0937,0.21875 0,0.34375 -0.79688,0.85937 -1.26562,0.84375 -2.82812,0.84375 -1.59375,0 -2.60938,-1.01562 -1.01562,-1.01563 -1.01562,-2.57813 0,-1.57812 1.03125,-2.625 1.04687,-1.04687 2.64062,-1.04687 1.5,0 2.53125,0.89062 z m 10.52344,2.73438 q 0,1.5 -1.07813,2.57812 -1.0625,1.0625 -2.57812,1.0625 -1.53125,0 -2.60938,-1.0625 -1.0625,-1.07812 -1.0625,-2.57812 0,-1.5 1.0625,-2.5625 1.07813,-1.0625 2.60938,-1.0625 1.51562,0 2.57812,1.0625 1.07813,1.0625 1.07813,2.5625 z m -0.65625,0 q 0,-1.23438 -0.89063,-2.09375 -0.875,-0.875 -2.125,-0.875 -1.25,0 -2.125,0.875 -0.875,0.875 -0.875,2.09375 0,1.21875 0.875,2.09375 0.875,0.875 2.125,0.875 1.25,0 2.125,-0.85938 0.89063,-0.875 0.89063,-2.10937 z m 3.60156,-3.39063 v 0.65625 q 0.84375,-0.89062 1.6875,-0.89062 0.5,0 0.875,0.26562 0.39063,0.26563 0.65625,0.8125 0.4375,-0.54687 0.875,-0.8125 0.45313,-0.26562 0.90625,-0.26562 0.71875,0 1.14063,0.45312 0.54687,0.59375 0.54687,1.29688 v 4.59375 h 0.5625 q 0.23438,0 0.32813,0.0937 0.10937,0.0781 0.10937,0.23437 0,0.14063 -0.10937,0.23438 -0.0937,0.0937 -0.32813,0.0937 h -1.21875 v -5.1875 q 0,-0.5 -0.3125,-0.82813 -0.29687,-0.32812 -0.6875,-0.32812 -0.35937,0 -0.76562,0.28125 -0.39063,0.26562 -0.90625,1.04687 v 4.35938 h 0.54687 q 0.23438,0 0.32813,0.0937 0.10937,0.0781 0.10937,0.23437 0,0.14063 -0.10937,0.23438 -0.0937,0.0937 -0.32813,0.0937 h -1.20312 v -5.14063 q 0,-0.51562 -0.3125,-0.85937 -0.3125,-0.34375 -0.6875,-0.34375 -0.35938,0 -0.70313,0.23437 -0.46875,0.3125 -1,1.09375 v 4.35938 h 0.5625 q 0.23438,0 0.32813,0.0937 0.10937,0.0781 0.10937,0.23437 0,0.14063 -0.10937,0.23438 -0.0937,0.0937 -0.32813,0.0937 h -1.76562 q -0.23438,0 -0.34375,-0.0937 -0.0937,-0.0937 -0.0937,-0.23438 0,-0.15625 0.0937,-0.23437 0.10937,-0.0937 0.34375,-0.0937 h 0.54687 v -5.45313 h -0.54687 q -0.23438,0 -0.34375,-0.0937 -0.0937,-0.0937 -0.0937,-0.23437 0,-0.14063 0.0937,-0.23438 0.10937,-0.0937 0.34375,-0.0937 z m 9.60156,0 v 0.65625 q 0.84375,-0.89062 1.6875,-0.89062 0.5,0 0.875,0.26562 0.39063,0.26563 0.65625,0.8125 0.4375,-0.54687 0.875,-0.8125 0.45313,-0.26562 0.90625,-0.26562 0.71875,0 1.14063,0.45312 0.54687,0.59375 0.54687,1.29688 v 4.59375 h 0.5625 q 0.23438,0 0.32813,0.0937 0.10937,0.0781 0.10937,0.23437 0,0.14063 -0.10937,0.23438 -0.0937,0.0937 -0.32813,0.0937 h -1.21875 v -5.1875 q 0,-0.5 -0.3125,-0.82813 -0.29687,-0.32812 -0.6875,-0.32812 -0.35937,0 -0.76562,0.28125 -0.39063,0.26562 -0.90625,1.04687 v 4.35938 h 0.54687 q 0.23438,0 0.32813,0.0937 0.10937,0.0781 0.10937,0.23437 0,0.14063 -0.10937,0.23438 -0.0937,0.0937 -0.32813,0.0937 h -1.20312 v -5.14063 q 0,-0.51562 -0.3125,-0.85937 -0.3125,-0.34375 -0.6875,-0.34375 -0.35938,0 -0.70313,0.23437 -0.46875,0.3125 -1,1.09375 v 4.35938 h 0.5625 q 0.23438,0 0.32813,0.0937 0.10937,0.0781 0.10937,0.23437 0,0.14063 -0.10937,0.23438 -0.0937,0.0937 -0.32813,0.0937 h -1.76562 q -0.23438,0 -0.34375,-0.0937 -0.0937,-0.0937 -0.0937,-0.23438 0,-0.15625 0.0937,-0.23437 0.10937,-0.0937 0.34375,-0.0937 h 0.54687 v -5.45313 h -0.54687 q -0.23438,0 -0.34375,-0.0937 -0.0937,-0.0937 -0.0937,-0.23437 0,-0.14063 0.0937,-0.23438 0.10937,-0.0937 0.34375,-0.0937 z m 12.91407,-3.375 v 1.70313 h -0.96875 v -1.70313 z m 0.0312,3.375 v 6.10938 h 2.57812 q 0.23438,0 0.32813,0.0937 0.10937,0.0781 0.10937,0.23437 0,0.14063 -0.10937,0.23438 -0.0937,0.0937 -0.32813,0.0937 h -5.8125 q -0.23437,0 -0.34375,-0.0937 -0.0937,-0.0937 -0.0937,-0.23438 0,-0.15625 0.0937,-0.23437 0.10938,-0.0937 0.34375,-0.0937 h 2.57813 v -5.45313 h -1.92188 q -0.23437,0 -0.34375,-0.0937 -0.0937,-0.0937 -0.0937,-0.23437 0,-0.14063 0.0937,-0.23438 0.10938,-0.0937 0.34375,-0.0937 z m 7.89843,0 h 3.5625 q 0.23438,0 0.32813,0.0937 0.10937,0.0937 0.10937,0.23438 0,0.14062 -0.10937,0.23437 -0.0937,0.0937 -0.32813,0.0937 h -3.5625 v 4.375 q 0,0.5625 0.45313,0.95313 0.46875,0.375 1.34375,0.375 0.67187,0 1.4375,-0.1875 0.78125,-0.20313 1.20312,-0.45313 0.15625,-0.10937 0.26563,-0.10937 0.125,0 0.21875,0.10937 0.0937,0.0937 0.0937,0.21875 0,0.125 -0.10938,0.21875 -0.25,0.26563 -1.21875,0.57813 -0.95312,0.29687 -1.84375,0.29687 -1.14062,0 -1.82812,-0.54687 -0.67188,-0.54688 -0.67188,-1.45313 v -4.375 h -1.21875 q -0.23437,0 -0.34375,-0.0937 -0.0937,-0.0937 -0.0937,-0.23437 0,-0.14063 0.0937,-0.23438 0.10938,-0.0937 0.34375,-0.0937 h 1.21875 v -1.9375 q 0,-0.23437 0.0937,-0.32812 0.0937,-0.10938 0.23438,-0.10938 0.14062,0 0.23437,0.10938 0.0937,0.0937 0.0937,0.32812 z m 23.56253,1.04688 v 1.625 q 0,2.125 -1,3.35937 -0.79687,0.96875 -2,0.96875 -0.57812,0 -1.09375,-0.23437 -0.5,-0.23438 -0.85937,-0.64063 -0.23438,-0.26562 -0.5,-0.82812 -0.26563,-0.57813 -0.39063,-1.04688 -0.17187,-0.67187 -0.17187,-1.57812 v -1.625 q 0,-2.125 1,-3.35938 0.79687,-0.96875 2,-0.96875 0.57812,0 1.07812,0.23438 0.51563,0.23437 0.875,0.64062 0.23438,0.26563 0.5,0.84375 0.26563,0.5625 0.39063,1.03125 0.17187,0.67188 0.17187,1.57813 z m -0.65625,0.0937 q 0,-0.9375 -0.26562,-1.73438 -0.25,-0.79687 -0.57813,-1.28125 -0.20312,-0.26562 -0.51562,-0.46875 -0.4375,-0.26562 -1,-0.26562 -1.09375,0 -1.71875,1.125 -0.625,1.125 -0.625,2.625 v 1.4375 q 0,0.9375 0.25,1.75 0.26562,0.79687 0.60937,1.26562 0.1875,0.26563 0.5,0.46875 0.4375,0.28125 1,0.28125 1.09375,0 1.71875,-1.125 0.625,-1.14062 0.625,-2.64062 z"
       id="path11"
       inkscape:connector-curvature="0"
       style="fill:#000000;fill-rule:nonzero" />
    <path
       d="m 483.16928,485.23038 v 22.04724"
       id="path13"
       inkscape:connector-curvature="0"
       style="fill:#000000;fill-opacity:0;fill-rule:evenodd" />
    <path
       d="m 483.16928,485.23035 v 10.04724"
       id="path15"
       inkscape:connector-curvature="0"
       style="fill-rule:evenodd;stroke:#1a1a1a;stroke-width:2;stroke-linecap:butt;stroke-linejoin:round" />
    <path
       d="m 479.8658,495.2776 3.30347,9.0762 3.30346,-9.0762 z"
       id="path17"
       inkscape:connector-curvature="0"
       style="fill:#1a1a1a;fill-rule:evenodd;stroke:#1a1a1a;stroke-width:2;stroke-linecap:butt" />
    <path
       d="m 420.7756,452.50595 h 124.78738 v 32.72443 H 420.7756 Z"
       id="path19"
       inkscape:connector-curvature="0"
       style="fill:#000000;fill-opacity:0;fill-rule:evenodd" />
    <path
       d="m 420.7756,452.50595 h 124.78738 v 32.72443 H 420.7756 Z"
       id="path21"
       inkscape:connector-curvature="0"
       style="fill-rule:evenodd;stroke:#000000;stroke-width:2;stroke-linecap:butt;stroke-linejoin:round" />
    <path
       d="m 452.3099,468.61877 v -0.21875 q 0,-0.23438 0.0937,-0.32813 0.0937,-0.10937 0.23438,-0.10937 0.14062,0 0.23437,0.10937 0.0937,0.0937 0.0937,0.32813 v 1.48437 q 0,0.25 -0.0937,0.35938 -0.0937,0.0937 -0.23437,0.0937 -0.14063,0 -0.23438,-0.0937 -0.0781,-0.0937 -0.0937,-0.29688 -0.0469,-0.5625 -0.73437,-1.0625 -0.6875,-0.5 -1.84375,-0.5 -1.45313,0 -2.21875,0.92188 -0.75,0.90625 -0.75,2.09375 0,1.26562 0.82812,2.09375 0.84375,0.82812 2.17188,0.82812 0.76562,0 1.54687,-0.28125 0.79688,-0.28125 1.4375,-0.90625 0.17188,-0.15625 0.29688,-0.15625 0.125,0 0.21875,0.0937 0.0937,0.0937 0.0937,0.21875 0,0.34375 -0.79688,0.85938 -1.26562,0.84375 -2.82812,0.84375 -1.59375,0 -2.60938,-1.01563 -1.01562,-1.01562 -1.01562,-2.57812 0,-1.57813 1.03125,-2.625 1.04687,-1.04688 2.64062,-1.04688 1.5,0 2.53125,0.89063 z m 10.52344,2.73437 q 0,1.5 -1.07813,2.57813 -1.0625,1.0625 -2.57812,1.0625 -1.53125,0 -2.60938,-1.0625 -1.0625,-1.07813 -1.0625,-2.57813 0,-1.5 1.0625,-2.5625 1.07813,-1.0625 2.60938,-1.0625 1.51562,0 2.57812,1.0625 1.07813,1.0625 1.07813,2.5625 z m -0.65625,0 q 0,-1.23437 -0.89063,-2.09375 -0.875,-0.875 -2.125,-0.875 -1.25,0 -2.125,0.875 -0.875,0.875 -0.875,2.09375 0,1.21875 0.875,2.09375 0.875,0.875 2.125,0.875 1.25,0 2.125,-0.85937 0.89063,-0.875 0.89063,-2.10938 z m 3.60156,-3.39062 v 0.65625 q 0.84375,-0.89063 1.6875,-0.89063 0.5,0 0.875,0.26563 0.39063,0.26562 0.65625,0.8125 0.4375,-0.54688 0.875,-0.8125 0.45313,-0.26563 0.90625,-0.26563 0.71875,0 1.14063,0.45313 0.54687,0.59375 0.54687,1.29687 v 4.59375 h 0.5625 q 0.23438,0 0.32813,0.0937 0.10937,0.0781 0.10937,0.23438 0,0.14062 -0.10937,0.23437 -0.0937,0.0937 -0.32813,0.0937 h -1.21875 v -5.1875 q 0,-0.5 -0.3125,-0.82812 -0.29687,-0.32813 -0.6875,-0.32813 -0.35937,0 -0.76562,0.28125 -0.39063,0.26563 -0.90625,1.04688 v 4.35937 h 0.54687 q 0.23438,0 0.32813,0.0937 0.10937,0.0781 0.10937,0.23438 0,0.14062 -0.10937,0.23437 -0.0937,0.0937 -0.32813,0.0937 h -1.20312 v -5.14062 q 0,-0.51563 -0.3125,-0.85938 -0.3125,-0.34375 -0.6875,-0.34375 -0.35938,0 -0.70313,0.23438 -0.46875,0.3125 -1,1.09375 v 4.35937 h 0.5625 q 0.23438,0 0.32813,0.0937 0.10937,0.0781 0.10937,0.23438 0,0.14062 -0.10937,0.23437 -0.0937,0.0937 -0.32813,0.0937 h -1.76562 q -0.23438,0 -0.34375,-0.0937 -0.0937,-0.0937 -0.0937,-0.23437 0,-0.15625 0.0937,-0.23438 0.10937,-0.0937 0.34375,-0.0937 h 0.54687 v -5.45312 h -0.54687 q -0.23438,0 -0.34375,-0.0937 -0.0937,-0.0937 -0.0937,-0.23438 0,-0.14062 0.0937,-0.23437 0.10937,-0.0937 0.34375,-0.0937 z m 9.60156,0 v 0.65625 q 0.84375,-0.89063 1.6875,-0.89063 0.5,0 0.875,0.26563 0.39063,0.26562 0.65625,0.8125 0.4375,-0.54688 0.875,-0.8125 0.45313,-0.26563 0.90625,-0.26563 0.71875,0 1.14063,0.45313 0.54687,0.59375 0.54687,1.29687 v 4.59375 h 0.5625 q 0.23438,0 0.32813,0.0937 0.10937,0.0781 0.10937,0.23438 0,0.14062 -0.10937,0.23437 -0.0937,0.0937 -0.32813,0.0937 h -1.21875 v -5.1875 q 0,-0.5 -0.3125,-0.82812 -0.29687,-0.32813 -0.6875,-0.32813 -0.35937,0 -0.76562,0.28125 -0.39063,0.26563 -0.90625,1.04688 v 4.35937 h 0.54687 q 0.23438,0 0.32813,0.0937 0.10937,0.0781 0.10937,0.23438 0,0.14062 -0.10937,0.23437 -0.0937,0.0937 -0.32813,0.0937 h -1.20312 v -5.14062 q 0,-0.51563 -0.3125,-0.85938 -0.3125,-0.34375 -0.6875,-0.34375 -0.35938,0 -0.70313,0.23438 -0.46875,0.3125 -1,1.09375 v 4.35937 h 0.5625 q 0.23438,0 0.32813,0.0937 0.10937,0.0781 0.10937,0.23438 0,0.14062 -0.10937,0.23437 -0.0937,0.0937 -0.32813,0.0937 h -1.76562 q -0.23438,0 -0.34375,-0.0937 -0.0937,-0.0937 -0.0937,-0.23437 0,-0.15625 0.0937,-0.23438 0.10937,-0.0937 0.34375,-0.0937 h 0.54687 v -5.45312 h -0.54687 q -0.23438,0 -0.34375,-0.0937 -0.0937,-0.0937 -0.0937,-0.23438 0,-0.14062 0.0937,-0.23437 0.10937,-0.0937 0.34375,-0.0937 z m 12.91407,-3.375 v 1.70312 h -0.96875 v -1.70312 z m 0.0312,3.375 v 6.10937 h 2.57812 q 0.23438,0 0.32813,0.0937 0.10937,0.0781 0.10937,0.23438 0,0.14062 -0.10937,0.23437 -0.0937,0.0937 -0.32813,0.0937 h -5.8125 q -0.23437,0 -0.34375,-0.0937 -0.0937,-0.0937 -0.0937,-0.23437 0,-0.15625 0.0937,-0.23438 0.10938,-0.0937 0.34375,-0.0937 h 2.57813 v -5.45312 h -1.92188 q -0.23437,0 -0.34375,-0.0937 -0.0937,-0.0937 -0.0937,-0.23438 0,-0.14062 0.0937,-0.23437 0.10938,-0.0937 0.34375,-0.0937 z m 7.89843,0 h 3.5625 q 0.23438,0 0.32813,0.0937 0.10937,0.0937 0.10937,0.23437 0,0.14063 -0.10937,0.23438 -0.0937,0.0937 -0.32813,0.0937 h -3.5625 v 4.375 q 0,0.5625 0.45313,0.95312 0.46875,0.375 1.34375,0.375 0.67187,0 1.4375,-0.1875 0.78125,-0.20312 1.20312,-0.45312 0.15625,-0.10938 0.26563,-0.10938 0.125,0 0.21875,0.10938 0.0937,0.0937 0.0937,0.21875 0,0.125 -0.10938,0.21875 -0.25,0.26562 -1.21875,0.57812 -0.95312,0.29688 -1.84375,0.29688 -1.14062,0 -1.82812,-0.54688 -0.67188,-0.54687 -0.67188,-1.45312 v -4.375 h -1.21875 q -0.23437,0 -0.34375,-0.0937 -0.0937,-0.0937 -0.0937,-0.23438 0,-0.14062 0.0937,-0.23437 0.10938,-0.0937 0.34375,-0.0937 h 1.21875 v -1.9375 q 0,-0.23438 0.0937,-0.32813 0.0937,-0.10937 0.23438,-0.10937 0.14062,0 0.23437,0.10937 0.0937,0.0937 0.0937,0.32813 z m 20.87503,-3.17188 v 9.28125 h 2.25 q 0.23438,0 0.32813,0.0937 0.10937,0.0781 0.10937,0.23438 0,0.14062 -0.10937,0.23437 -0.0937,0.0937 -0.32813,0.0937 h -5.15625 q -0.23437,0 -0.34375,-0.0937 -0.0937,-0.0937 -0.0937,-0.23437 0,-0.15625 0.0937,-0.23438 0.10938,-0.0937 0.34375,-0.0937 h 2.25 v -8.375 l -2.14062,0.67188 q -0.15625,0.0469 -0.21875,0.0469 -0.125,0 -0.21875,-0.0937 -0.0937,-0.10937 -0.0937,-0.23437 0,-0.125 0.0781,-0.21875 0.0625,-0.0625 0.25,-0.14063 z"
       id="path23"
       inkscape:connector-curvature="0"
       style="fill:#000000;fill-rule:nonzero" />
    <path
       d="m 483.16928,430.4622 v 22.04724"
       id="path25"
       inkscape:connector-curvature="0"
       style="fill:#000000;fill-opacity:0;fill-rule:evenodd" />
    <path
       d="m 483.16928,430.4622 v 10.04724"
       id="path27"
       inkscape:connector-curvature="0"
       style="fill-rule:evenodd;stroke:#1a1a1a;stroke-width:2;stroke-linecap:butt;stroke-linejoin:round" />
    <path
       d="m 479.8658,440.50943 3.30347,9.0762 3.30346,-9.0762 z"
       id="path29"
       inkscape:connector-curvature="0"
       style="fill:#1a1a1a;fill-rule:evenodd;stroke:#1a1a1a;stroke-width:2;stroke-linecap:butt" />
    <path
       d="m 420.7756,397.73776 h 124.78738 v 32.72443 H 420.7756 Z"
       id="path31"
       inkscape:connector-curvature="0"
       style="fill:#ffff00;fill-rule:evenodd" />
    <path
       d="m 420.7756,397.73776 h 124.78738 v 32.72443 H 420.7756 Z"
       id="path33"
       inkscape:connector-curvature="0"
       style="fill-rule:evenodd;stroke:#000000;stroke-width:2;stroke-linecap:butt;stroke-linejoin:round" />
    <path
       d="m 452.3099,413.8506 v -0.21875 q 0,-0.23438 0.0937,-0.32813 0.0937,-0.10937 0.23438,-0.10937 0.14062,0 0.23437,0.10937 0.0937,0.0937 0.0937,0.32813 v 1.48437 q 0,0.25 -0.0937,0.35938 -0.0937,0.0937 -0.23437,0.0937 -0.14063,0 -0.23438,-0.0937 -0.0781,-0.0937 -0.0937,-0.29688 -0.0469,-0.5625 -0.73437,-1.0625 -0.6875,-0.5 -1.84375,-0.5 -1.45313,0 -2.21875,0.92188 -0.75,0.90625 -0.75,2.09375 0,1.26562 0.82812,2.09375 0.84375,0.82812 2.17188,0.82812 0.76562,0 1.54687,-0.28125 0.79688,-0.28125 1.4375,-0.90625 0.17188,-0.15625 0.29688,-0.15625 0.125,0 0.21875,0.0937 0.0937,0.0937 0.0937,0.21875 0,0.34375 -0.79688,0.85938 -1.26562,0.84375 -2.82812,0.84375 -1.59375,0 -2.60938,-1.01563 -1.01562,-1.01562 -1.01562,-2.57812 0,-1.57813 1.03125,-2.625 1.04687,-1.04688 2.64062,-1.04688 1.5,0 2.53125,0.89063 z m 10.52344,2.73437 q 0,1.5 -1.07813,2.57813 -1.0625,1.0625 -2.57812,1.0625 -1.53125,0 -2.60938,-1.0625 -1.0625,-1.07813 -1.0625,-2.57813 0,-1.5 1.0625,-2.5625 1.07813,-1.0625 2.60938,-1.0625 1.51562,0 2.57812,1.0625 1.07813,1.0625 1.07813,2.5625 z m -0.65625,0 q 0,-1.23437 -0.89063,-2.09375 -0.875,-0.875 -2.125,-0.875 -1.25,0 -2.125,0.875 -0.875,0.875 -0.875,2.09375 0,1.21875 0.875,2.09375 0.875,0.875 2.125,0.875 1.25,0 2.125,-0.85937 0.89063,-0.875 0.89063,-2.10938 z m 3.60156,-3.39062 v 0.65625 q 0.84375,-0.89063 1.6875,-0.89063 0.5,0 0.875,0.26563 0.39063,0.26562 0.65625,0.8125 0.4375,-0.54688 0.875,-0.8125 0.45313,-0.26563 0.90625,-0.26563 0.71875,0 1.14063,0.45313 0.54687,0.59375 0.54687,1.29687 v 4.59375 h 0.5625 q 0.23438,0 0.32813,0.0937 0.10937,0.0781 0.10937,0.23438 0,0.14062 -0.10937,0.23437 -0.0937,0.0937 -0.32813,0.0937 h -1.21875 v -5.1875 q 0,-0.5 -0.3125,-0.82812 -0.29687,-0.32813 -0.6875,-0.32813 -0.35937,0 -0.76562,0.28125 -0.39063,0.26563 -0.90625,1.04688 v 4.35937 h 0.54687 q 0.23438,0 0.32813,0.0937 0.10937,0.0781 0.10937,0.23438 0,0.14062 -0.10937,0.23437 -0.0937,0.0937 -0.32813,0.0937 h -1.20312 v -5.14062 q 0,-0.51563 -0.3125,-0.85938 -0.3125,-0.34375 -0.6875,-0.34375 -0.35938,0 -0.70313,0.23438 -0.46875,0.3125 -1,1.09375 v 4.35937 h 0.5625 q 0.23438,0 0.32813,0.0937 0.10937,0.0781 0.10937,0.23438 0,0.14062 -0.10937,0.23437 -0.0937,0.0937 -0.32813,0.0937 h -1.76562 q -0.23438,0 -0.34375,-0.0937 -0.0937,-0.0937 -0.0937,-0.23437 0,-0.15625 0.0937,-0.23438 0.10937,-0.0937 0.34375,-0.0937 h 0.54687 v -5.45312 h -0.54687 q -0.23438,0 -0.34375,-0.0937 -0.0937,-0.0937 -0.0937,-0.23438 0,-0.14062 0.0937,-0.23437 0.10937,-0.0937 0.34375,-0.0937 z m 9.60156,0 v 0.65625 q 0.84375,-0.89063 1.6875,-0.89063 0.5,0 0.875,0.26563 0.39063,0.26562 0.65625,0.8125 0.4375,-0.54688 0.875,-0.8125 0.45313,-0.26563 0.90625,-0.26563 0.71875,0 1.14063,0.45313 0.54687,0.59375 0.54687,1.29687 v 4.59375 h 0.5625 q 0.23438,0 0.32813,0.0937 0.10937,0.0781 0.10937,0.23438 0,0.14062 -0.10937,0.23437 -0.0937,0.0937 -0.32813,0.0937 h -1.21875 v -5.1875 q 0,-0.5 -0.3125,-0.82812 -0.29687,-0.32813 -0.6875,-0.32813 -0.35937,0 -0.76562,0.28125 -0.39063,0.26563 -0.90625,1.04688 v 4.35937 h 0.54687 q 0.23438,0 0.32813,0.0937 0.10937,0.0781 0.10937,0.23438 0,0.14062 -0.10937,0.23437 -0.0937,0.0937 -0.32813,0.0937 h -1.20312 v -5.14062 q 0,-0.51563 -0.3125,-0.85938 -0.3125,-0.34375 -0.6875,-0.34375 -0.35938,0 -0.70313,0.23438 -0.46875,0.3125 -1,1.09375 v 4.35937 h 0.5625 q 0.23438,0 0.32813,0.0937 0.10937,0.0781 0.10937,0.23438 0,0.14062 -0.10937,0.23437 -0.0937,0.0937 -0.32813,0.0937 h -1.76562 q -0.23438,0 -0.34375,-0.0937 -0.0937,-0.0937 -0.0937,-0.23437 0,-0.15625 0.0937,-0.23438 0.10937,-0.0937 0.34375,-0.0937 h 0.54687 v -5.45312 h -0.54687 q -0.23438,0 -0.34375,-0.0937 -0.0937,-0.0937 -0.0937,-0.23438 0,-0.14062 0.0937,-0.23437 0.10937,-0.0937 0.34375,-0.0937 z m 12.91407,-3.375 v 1.70312 h -0.96875 v -1.70312 z m 0.0312,3.375 v 6.10937 h 2.57812 q 0.23438,0 0.32813,0.0937 0.10937,0.0781 0.10937,0.23438 0,0.14062 -0.10937,0.23437 -0.0937,0.0937 -0.32813,0.0937 h -5.8125 q -0.23437,0 -0.34375,-0.0937 -0.0937,-0.0937 -0.0937,-0.23437 0,-0.15625 0.0937,-0.23438 0.10938,-0.0937 0.34375,-0.0937 h 2.57813 v -5.45312 h -1.92188 q -0.23437,0 -0.34375,-0.0937 -0.0937,-0.0937 -0.0937,-0.23438 0,-0.14062 0.0937,-0.23437 0.10938,-0.0937 0.34375,-0.0937 z m 7.89843,0 h 3.5625 q 0.23438,0 0.32813,0.0937 0.10937,0.0937 0.10937,0.23437 0,0.14063 -0.10937,0.23438 -0.0937,0.0937 -0.32813,0.0937 h -3.5625 v 4.375 q 0,0.5625 0.45313,0.95312 0.46875,0.375 1.34375,0.375 0.67187,0 1.4375,-0.1875 0.78125,-0.20312 1.20312,-0.45312 0.15625,-0.10938 0.26563,-0.10938 0.125,0 0.21875,0.10938 0.0937,0.0937 0.0937,0.21875 0,0.125 -0.10938,0.21875 -0.25,0.26562 -1.21875,0.57812 -0.95312,0.29688 -1.84375,0.29688 -1.14062,0 -1.82812,-0.54688 -0.67188,-0.54687 -0.67188,-1.45312 v -4.375 h -1.21875 q -0.23437,0 -0.34375,-0.0937 -0.0937,-0.0937 -0.0937,-0.23438 0,-0.14062 0.0937,-0.23437 0.10938,-0.0937 0.34375,-0.0937 h 1.21875 v -1.9375 q 0,-0.23438 0.0937,-0.32813 0.0937,-0.10937 0.23438,-0.10937 0.14062,0 0.23437,0.10937 0.0937,0.0937 0.0937,0.32813 z m 17.73441,6.10937 h 5.03125 v -0.26562 q 0,-0.23438 0.0937,-0.32813 0.0937,-0.10937 0.25,-0.10937 0.14062,0 0.23437,0.10937 0.0937,0.0937 0.0937,0.32813 v 0.92187 h -6.34375 v -0.96875 q 2,-1.79687 3.89063,-3.65625 0.875,-0.875 1.20312,-1.28125 0.32813,-0.40625 0.45313,-0.70312 0.125,-0.3125 0.125,-0.625 0,-0.84375 -0.6875,-1.48438 -0.67188,-0.65625 -1.64063,-0.65625 -0.85937,0 -1.53125,0.5 -0.65625,0.48438 -0.84375,1.20313 -0.0469,0.1875 -0.125,0.25 -0.0937,0.0781 -0.21875,0.0781 -0.125,0 -0.21875,-0.0937 -0.0937,-0.0937 -0.0937,-0.21875 0,-0.375 0.40625,-1.01562 0.42188,-0.64063 1.14063,-1 0.71875,-0.375 1.48437,-0.375 1.21875,0 2.09375,0.85937 0.89063,0.84375 0.89063,1.92188 0,0.45312 -0.15625,0.84375 -0.14063,0.375 -0.5,0.82812 -0.34375,0.4375 -1.26563,1.34375 -2.3125,2.28125 -3.76562,3.54688 z"
       id="path35"
       inkscape:connector-curvature="0"
       style="fill:#000000;fill-rule:nonzero" />
    <path
       d="m 465.27222,244.75029 v -9.29688 h -1.04688 q -0.28125,0 -0.40625,-0.0937 -0.10937,-0.10937 -0.10937,-0.29687 0,-0.17188 0.10937,-0.28125 0.125,-0.10938 0.40625,-0.10938 h 4.89063 q 1.46875,0 2.375,0.84375 0.92187,0.84375 0.92187,1.96875 0,1.4375 -1.53125,2.3125 1.20313,0.4375 1.76563,1.17188 0.57812,0.71875 0.57812,1.57812 0,0.78125 -0.375,1.4375 -0.375,0.64063 -1.14062,1.09375 -0.76563,0.45313 -1.65625,0.45313 h -5.82813 q -0.28125,0 -0.40625,-0.10938 -0.10937,-0.10937 -0.10937,-0.28125 0,-0.17187 0.10937,-0.28125 0.125,-0.10937 0.40625,-0.10937 z m 0.78125,-5.25 h 2.75 q 0.89062,0 1.625,-0.32813 0.5625,-0.25 0.875,-0.73437 0.3125,-0.5 0.3125,-1.01563 0,-0.73437 -0.6875,-1.34375 -0.6875,-0.625 -1.78125,-0.625 h -3.09375 z m 0,5.25 h 3.9375 q 0.75,0 1.3125,-0.32813 0.5625,-0.34375 0.84375,-0.82812 0.28125,-0.5 0.28125,-1.01563 0,-0.59375 -0.40625,-1.15625 -0.40625,-0.5625 -1.14063,-0.84375 -0.73437,-0.28125 -2.03125,-0.28125 h -2.79687 z m 18.30811,-3.21875 q 0,1.78125 -1.28125,3.04687 -1.28125,1.26563 -3.07813,1.26563 -1.8125,0 -3.09375,-1.26563 -1.26562,-1.28125 -1.26562,-3.04687 0,-1.78125 1.26562,-3.04688 1.28125,-1.26562 3.09375,-1.26562 1.79688,0 3.07813,1.26562 1.28125,1.25 1.28125,3.04688 z m -0.79688,0 q 0,-1.46875 -1.04687,-2.5 -1.03125,-1.03125 -2.51563,-1.03125 -1.48437,0 -2.53125,1.04687 -1.04687,1.03125 -1.04687,2.48438 0,1.45312 1.04687,2.5 1.04688,1.03125 2.53125,1.03125 1.48438,0 2.51563,-1.03125 1.04687,-1.04688 1.04687,-2.5 z m 4.90186,-7.64063 v 5.17188 q 1.40625,-1.84375 3.40625,-1.84375 1.70312,0 2.92187,1.25 1.21875,1.23437 1.21875,3.03125 0,1.8125 -1.23437,3.07812 -1.23438,1.26563 -2.90625,1.26563 -2.04688,0 -3.40625,-1.84375 v 1.53125 h -1.82813 q -0.28125,0 -0.40625,-0.10938 -0.10937,-0.10937 -0.10937,-0.28125 0,-0.17187 0.10937,-0.28125 0.125,-0.10937 0.40625,-0.10937 h 1.04688 v -10.07813 h -1.04688 q -0.28125,0 -0.40625,-0.10937 -0.10937,-0.10938 -0.10937,-0.28125 0,-0.17188 0.10937,-0.28125 0.125,-0.10938 0.40625,-0.10938 z m 6.76562,7.64063 q 0,-1.46875 -1.01562,-2.5 -1.01563,-1.03125 -2.35938,-1.03125 -1.35937,0 -2.375,1.03125 -1,1.03125 -1,2.5 0,1.46875 1,2.5 1.01563,1.03125 2.375,1.03125 1.34375,0 2.35938,-1.03125 1.01562,-1.03125 1.01562,-2.5 z"
       id="path39"
       inkscape:connector-curvature="0"
       style="fill:#000000;fill-rule:nonzero" />
    <path
       d="m 629.7704,277.3891 v 0 c 0,1.12958 -0.91571,2.04529 -2.04529,2.04529 v -2.04529 c 0,0.56479 -0.45782,1.02264 -1.02264,1.02264 -0.56476,0 -1.02259,-0.45785 -1.02259,-1.02264 v 2.04529 H 516.6031 v 0 c -1.12957,0 -2.04528,0.91571 -2.04528,2.04526 v 24.54333 c 0,1.12955 0.91571,2.04526 2.04528,2.04526 1.12958,0 2.04529,-0.91571 2.04529,-2.04526 v -2.04529 h 109.07672 c 1.12958,0 2.04529,-0.91571 2.04529,-2.04529 z m -113.1673,6.13583 c 1.12958,0 2.04529,-0.91571 2.04529,-2.04528 v 0 c 0,-0.56476 -0.45789,-1.02262 -1.02265,-1.02262 -0.56482,0 -1.02264,0.45786 -1.02264,1.02262 z"
       id="path41"
       inkscape:connector-curvature="0"
       style="fill:#e9edee;fill-rule:evenodd" />
    <path
       d="m 516.6031,283.52493 c 1.12958,0 2.04529,-0.91571 2.04529,-2.04529 v 0 c 0,-0.56476 -0.45789,-1.02261 -1.02265,-1.02261 -0.56482,0 -1.02264,0.45785 -1.02264,1.02261 z m 111.12201,-4.09055 c 1.12958,0 2.04529,-0.91571 2.04529,-2.04528 0,-1.12958 -0.91571,-2.04526 -2.04529,-2.04526 -1.12958,0 -2.04523,0.91568 -2.04523,2.04526 0,0.56479 0.45783,1.02264 1.02259,1.02264 0.56482,0 1.02264,-0.45785 1.02264,-1.02264 z"
       id="path43"
       inkscape:connector-curvature="0"
       style="fill:#babdbe;fill-rule:evenodd" />
    <path
       d="m 514.5578,281.47964 c 0,-1.12955 0.91571,-2.04526 2.04529,-2.04526 h 109.07678 v -2.04529 0 c 0,-1.12957 0.91565,-2.04525 2.04522,-2.04525 1.12958,0 2.04529,0.91568 2.04529,2.04525 v 24.54331 c 0,1.12958 -0.91571,2.04529 -2.04529,2.04529 H 518.64837 v 2.04528 c 0,1.12955 -0.91571,2.04526 -2.04528,2.04526 -1.12958,0 -2.04529,-0.91571 -2.04529,-2.04526 z m 111.12207,-2.04526 h 2.04523 c 1.12957,0 2.04529,-0.91571 2.04529,-2.04529 m -2.04529,2.04529 v -2.04529 c 0,0.56479 -0.45783,1.02265 -1.02265,1.02265 -0.56476,0 -1.02258,-0.45786 -1.02258,-1.02265 m -109.07678,6.13584 v -2.04529 0 c 0,-0.56476 0.45782,-1.02261 1.02264,-1.02261 0.56476,0 1.02265,0.45785 1.02265,1.02261 0,1.12958 -0.91571,2.04529 -2.04529,2.04529 -1.12958,0 -2.04529,-0.91571 -2.04529,-2.04529 m 4.09058,0 v 22.49805"
       id="path45"
       inkscape:connector-curvature="0"
       style="fill:#000000;fill-opacity:0;fill-rule:evenodd" />
    <path
       d="m 514.5578,281.47964 c 0,-1.12955 0.91571,-2.04526 2.04529,-2.04526 h 109.07678 v -2.04529 0 c 0,-1.12957 0.91565,-2.04525 2.04522,-2.04525 1.12958,0 2.04529,0.91568 2.04529,2.04525 v 24.54331 c 0,1.12958 -0.91571,2.04529 -2.04529,2.04529 H 518.64837 v 2.04528 c 0,1.12955 -0.91571,2.04526 -2.04528,2.04526 -1.12958,0 -2.04529,-0.91571 -2.04529,-2.04526 z m 111.12207,-2.04526 h 2.04523 c 1.12957,0 2.04529,-0.91571 2.04529,-2.04529 m -2.04529,2.04529 v -2.04529 c 0,0.56479 -0.45783,1.02265 -1.02265,1.02265 -0.56476,0 -1.02258,-0.45786 -1.02258,-1.02265 m -109.07678,6.13584 v -2.04529 0 c 0,-0.56476 0.45782,-1.02261 1.02264,-1.02261 0.56476,0 1.02265,0.45785 1.02265,1.02261 0,1.12958 -0.91571,2.04529 -2.04529,2.04529 -1.12958,0 -2.04529,-0.91571 -2.04529,-2.04529 m 4.09058,0 v 22.49805"
       id="path47"
       inkscape:connector-curvature="0"
       style="fill-rule:evenodd;stroke:#1a1a1a;stroke-width:1;stroke-linecap:butt;stroke-linejoin:round" />
    <path
       d="m 546.1945,290.8004 v 0.65625 q 0.84375,-0.89062 1.6875,-0.89062 0.5,0 0.875,0.26562 0.39062,0.26563 0.65625,0.8125 0.4375,-0.54687 0.875,-0.8125 0.45312,-0.26562 0.90625,-0.26562 0.71875,0 1.14062,0.45312 0.54688,0.59375 0.54688,1.29688 v 4.59375 h 0.5625 q 0.23437,0 0.32812,0.0937 0.10938,0.0781 0.10938,0.23437 0,0.14063 -0.10938,0.23438 -0.0937,0.0937 -0.32812,0.0937 h -1.21875 v -5.1875 q 0,-0.5 -0.3125,-0.82813 -0.29688,-0.32812 -0.6875,-0.32812 -0.35938,0 -0.76563,0.28125 -0.39062,0.26562 -0.90625,1.04687 v 4.35938 h 0.54688 q 0.23437,0 0.32812,0.0937 0.10938,0.0781 0.10938,0.23437 0,0.14063 -0.10938,0.23438 -0.0937,0.0937 -0.32812,0.0937 h -1.20313 v -5.14063 q 0,-0.51562 -0.3125,-0.85937 -0.3125,-0.34375 -0.6875,-0.34375 -0.35937,0 -0.70312,0.23437 -0.46875,0.3125 -1,1.09375 v 4.35938 h 0.5625 q 0.23437,0 0.32812,0.0937 0.10938,0.0781 0.10938,0.23437 0,0.14063 -0.10938,0.23438 -0.0937,0.0937 -0.32812,0.0937 h -1.76563 q -0.23437,0 -0.34375,-0.0937 -0.0937,-0.0937 -0.0937,-0.23438 0,-0.15625 0.0937,-0.23437 0.10938,-0.0937 0.34375,-0.0937 h 0.54688 v -5.45313 h -0.54688 q -0.23437,0 -0.34375,-0.0937 -0.0937,-0.0937 -0.0937,-0.23437 0,-0.14063 0.0937,-0.23438 0.10938,-0.0937 0.34375,-0.0937 z m 14.47656,6.76563 v -0.95313 q -1.42187,1.21875 -3.04687,1.21875 -1.1875,0 -1.85938,-0.59375 -0.65625,-0.60937 -0.65625,-1.48437 0,-0.95313 0.875,-1.65625 0.875,-0.71875 2.5625,-0.71875 0.45313,0 0.98438,0.0625 0.53125,0.0625 1.14062,0.1875 v -1.0625 q 0,-0.54688 -0.5,-0.9375 -0.5,-0.40625 -1.5,-0.40625 -0.76562,0 -2.14062,0.45312 -0.25,0.0781 -0.32813,0.0781 -0.125,0 -0.21875,-0.0937 -0.0781,-0.0937 -0.0781,-0.23438 0,-0.14062 0.0781,-0.21875 0.10938,-0.10937 0.875,-0.3125 1.21875,-0.32812 1.84375,-0.32812 1.25,0 1.9375,0.60937 0.70313,0.60938 0.70313,1.39063 v 4.34375 h 0.875 q 0.23437,0 0.32812,0.0937 0.10938,0.0781 0.10938,0.23437 0,0.14063 -0.10938,0.23438 -0.0937,0.0937 -0.32812,0.0937 z m 0,-3.26563 q -0.45312,-0.14062 -0.96875,-0.20312 -0.51562,-0.0625 -1.09375,-0.0625 -1.42187,0 -2.23437,0.625 -0.60938,0.45312 -0.60938,1.09375 0,0.59375 0.46875,1 0.46875,0.40625 1.35938,0.40625 0.84375,0 1.57812,-0.32813 0.73438,-0.34375 1.5,-1.09375 z m 9.88281,-3.07812 q 0,-0.21875 0.0937,-0.3125 0.0937,-0.10938 0.23438,-0.10938 0.15625,0 0.25,0.10938 0.0937,0.0937 0.0937,0.32812 v 1.125 q 0,0.23438 -0.0937,0.34375 -0.0937,0.0937 -0.25,0.0937 -0.125,0 -0.21875,-0.0781 -0.0937,-0.0937 -0.10938,-0.28125 -0.0469,-0.46875 -0.48437,-0.78125 -0.64063,-0.4375 -1.6875,-0.4375 -1.10938,0 -1.71875,0.45312 -0.45313,0.32813 -0.45313,0.75 0,0.46875 0.54688,0.78125 0.375,0.21875 1.42187,0.32813 1.35938,0.15625 1.89063,0.34375 0.76562,0.26562 1.125,0.75 0.375,0.48437 0.375,1.04687 0,0.84375 -0.8125,1.5 -0.79688,0.65625 -2.34375,0.65625 -1.5625,0 -2.54688,-0.79687 0,0.26562 -0.0312,0.34375 -0.0312,0.0781 -0.125,0.14062 -0.0781,0.0469 -0.17187,0.0469 -0.14063,0 -0.23438,-0.0937 -0.0937,-0.10938 -0.0937,-0.34375 v -1.35938 q 0,-0.23437 0.0781,-0.32812 0.0937,-0.10938 0.25,-0.10938 0.14062,0 0.23437,0.10938 0.0937,0.0937 0.0937,0.25 0,0.35937 0.1875,0.60937 0.26563,0.375 0.85938,0.625 0.60937,0.23438 1.46875,0.23438 1.28125,0 1.90625,-0.46875 0.625,-0.48438 0.625,-1.01563 0,-0.60937 -0.625,-0.96875 -0.64063,-0.375 -1.875,-0.5 -1.21875,-0.125 -1.75,-0.32812 -0.53125,-0.20313 -0.82813,-0.60938 -0.29687,-0.40625 -0.29687,-0.875 0,-0.84375 0.82812,-1.32812 0.82813,-0.5 1.98438,-0.5 1.35937,0 2.20312,0.65625 z m 6.08594,-0.42188 h 3.5625 q 0.23438,0 0.32813,0.0937 0.10937,0.0937 0.10937,0.23438 0,0.14062 -0.10937,0.23437 -0.0937,0.0937 -0.32813,0.0937 h -3.5625 v 4.375 q 0,0.5625 0.45313,0.95313 0.46875,0.375 1.34375,0.375 0.67187,0 1.4375,-0.1875 0.78125,-0.20313 1.20312,-0.45313 0.15625,-0.10937 0.26563,-0.10937 0.125,0 0.21875,0.10937 0.0937,0.0937 0.0937,0.21875 0,0.125 -0.10938,0.21875 -0.25,0.26563 -1.21875,0.57813 -0.95312,0.29687 -1.84375,0.29687 -1.14062,0 -1.82812,-0.54687 -0.67188,-0.54688 -0.67188,-1.45313 v -4.375 h -1.21875 q -0.23437,0 -0.34375,-0.0937 -0.0937,-0.0937 -0.0937,-0.23437 0,-0.14063 0.0937,-0.23438 0.10938,-0.0937 0.34375,-0.0937 h 1.21875 v -1.9375 q 0,-0.23437 0.0937,-0.32812 0.0937,-0.10938 0.23438,-0.10938 0.14062,0 0.23437,0.10938 0.0937,0.0937 0.0937,0.32812 z m 14.50788,3.53125 h -6.6875 q 0.17187,1.28125 1.0625,2.0625 0.89062,0.76563 2.21875,0.76563 0.73437,0 1.53125,-0.23438 0.8125,-0.25 1.3125,-0.64062 0.15625,-0.125 0.26562,-0.125 0.125,0 0.21875,0.10937 0.0937,0.0937 0.0937,0.21875 0,0.14063 -0.125,0.26563 -0.375,0.39062 -1.34375,0.73437 -0.95312,0.34375 -1.95312,0.34375 -1.6875,0 -2.82813,-1.10937 -1.125,-1.10938 -1.125,-2.6875 0,-1.42188 1.0625,-2.4375 1.0625,-1.03125 2.625,-1.03125 1.60938,0 2.64063,1.04687 1.04687,1.04688 1.03125,2.71875 z m -0.67188,-0.65625 q -0.1875,-1.09375 -1.03125,-1.76562 -0.82812,-0.6875 -1.96875,-0.6875 -1.15625,0 -1.98437,0.67187 -0.82813,0.67188 -1.03125,1.78125 z m 5.92969,-2.875 v 1.65625 q 1.28125,-1.15625 1.92187,-1.48437 0.64063,-0.34375 1.17188,-0.34375 0.59375,0 1.09375,0.40625 0.5,0.39062 0.5,0.59375 0,0.14062 -0.0937,0.25 -0.0937,0.0937 -0.25,0.0937 -0.0781,0 -0.14063,-0.0312 -0.0469,-0.0312 -0.1875,-0.17188 -0.28125,-0.28125 -0.48437,-0.375 -0.20313,-0.10937 -0.39063,-0.10937 -0.4375,0 -1.04687,0.34375 -0.59375,0.34375 -2.09375,1.6875 v 3.59375 h 2.90625 q 0.25,0 0.34375,0.0937 0.10937,0.0781 0.10937,0.23437 0,0.14063 -0.10937,0.23438 -0.0937,0.0937 -0.34375,0.0937 h -5.14063 q -0.23437,0 -0.34375,-0.0937 -0.0937,-0.0937 -0.0937,-0.23438 0,-0.125 0.0937,-0.21875 0.0937,-0.0937 0.34375,-0.0937 h 1.57813 v -5.46875 h -1.20313 q -0.23437,0 -0.34375,-0.0937 -0.0937,-0.0937 -0.0937,-0.23437 0,-0.14063 0.0937,-0.23438 0.0937,-0.0937 0.34375,-0.0937 z"
       id="path49"
       inkscape:connector-curvature="0"
       style="fill:#0000ff;fill-rule:nonzero" />
    <path
       d="m 572.1641,303.9777 -0.59845,23.62204"
       id="path51"
       inkscape:connector-curvature="0"
       style="fill:#000000;fill-opacity:0;fill-rule:evenodd" />
    <path
       d="m 572.16406,303.9777 -0.29449,11.62592"
       id="path53"
       inkscape:connector-curvature="0"
       style="fill-rule:evenodd;stroke:#0000ff;stroke-width:2;stroke-linecap:butt;stroke-linejoin:round" />
    <path
       d="m 568.56714,315.51993 3.07257,9.15695 3.53223,-8.98962 z"
       id="path55"
       inkscape:connector-curvature="0"
       style="fill:#0000ff;fill-rule:evenodd;stroke:#0000ff;stroke-width:2;stroke-linecap:butt" />
    <path
       d="m 509.16534,327.5908 h 124.78742 v 32.7244 H 509.16534 Z"
       id="path57"
       inkscape:connector-curvature="0"
       style="fill:#00ff00;fill-rule:evenodd" />
    <path
       d="m 509.16534,327.5908 h 124.78742 v 32.7244 H 509.16534 Z"
       id="path59"
       inkscape:connector-curvature="0"
       style="fill-rule:evenodd;stroke:#000000;stroke-width:2;stroke-linecap:butt;stroke-linejoin:round" />
    <path
       d="m 540.6997,343.7036 v -0.21875 q 0,-0.23438 0.0937,-0.32813 0.0937,-0.10937 0.23437,-0.10937 0.14063,0 0.23438,0.10937 0.0937,0.0937 0.0937,0.32813 v 1.48437 q 0,0.25 -0.0937,0.35938 -0.0937,0.0937 -0.23438,0.0937 -0.14062,0 -0.23437,-0.0937 -0.0781,-0.0937 -0.0937,-0.29688 -0.0469,-0.5625 -0.73438,-1.0625 -0.6875,-0.5 -1.84375,-0.5 -1.45312,0 -2.21875,0.92188 -0.75,0.90625 -0.75,2.09375 0,1.26562 0.82813,2.09375 0.84375,0.82812 2.17187,0.82812 0.76563,0 1.54688,-0.28125 0.79687,-0.28125 1.4375,-0.90625 0.17187,-0.15625 0.29687,-0.15625 0.125,0 0.21875,0.0937 0.0937,0.0937 0.0937,0.21875 0,0.34375 -0.79687,0.85938 -1.26563,0.84375 -2.82813,0.84375 -1.59375,0 -2.60937,-1.01563 -1.01563,-1.01562 -1.01563,-2.57812 0,-1.57813 1.03125,-2.625 1.04688,-1.04688 2.64063,-1.04688 1.5,0 2.53125,0.89063 z m 10.52344,2.73437 q 0,1.5 -1.07813,2.57813 -1.0625,1.0625 -2.57812,1.0625 -1.53125,0 -2.60938,-1.0625 -1.0625,-1.07813 -1.0625,-2.57813 0,-1.5 1.0625,-2.5625 1.07813,-1.0625 2.60938,-1.0625 1.51562,0 2.57812,1.0625 1.07813,1.0625 1.07813,2.5625 z m -0.65625,0 q 0,-1.23437 -0.89063,-2.09375 -0.875,-0.875 -2.125,-0.875 -1.25,0 -2.125,0.875 -0.875,0.875 -0.875,2.09375 0,1.21875 0.875,2.09375 0.875,0.875 2.125,0.875 1.25,0 2.125,-0.85937 0.89063,-0.875 0.89063,-2.10938 z m 3.60156,-3.39062 v 0.65625 q 0.84375,-0.89063 1.6875,-0.89063 0.5,0 0.875,0.26563 0.39062,0.26562 0.65625,0.8125 0.4375,-0.54688 0.875,-0.8125 0.45312,-0.26563 0.90625,-0.26563 0.71875,0 1.14062,0.45313 0.54688,0.59375 0.54688,1.29687 v 4.59375 h 0.5625 q 0.23437,0 0.32812,0.0937 0.10938,0.0781 0.10938,0.23438 0,0.14062 -0.10938,0.23437 -0.0937,0.0937 -0.32812,0.0937 h -1.21875 v -5.1875 q 0,-0.5 -0.3125,-0.82812 -0.29688,-0.32813 -0.6875,-0.32813 -0.35938,0 -0.76563,0.28125 -0.39062,0.26563 -0.90625,1.04688 v 4.35937 h 0.54688 q 0.23437,0 0.32812,0.0937 0.10938,0.0781 0.10938,0.23438 0,0.14062 -0.10938,0.23437 -0.0937,0.0937 -0.32812,0.0937 h -1.20313 v -5.14062 q 0,-0.51563 -0.3125,-0.85938 -0.3125,-0.34375 -0.6875,-0.34375 -0.35937,0 -0.70312,0.23438 -0.46875,0.3125 -1,1.09375 v 4.35937 h 0.5625 q 0.23437,0 0.32812,0.0937 0.10938,0.0781 0.10938,0.23438 0,0.14062 -0.10938,0.23437 -0.0937,0.0937 -0.32812,0.0937 h -1.76563 q -0.23437,0 -0.34375,-0.0937 -0.0937,-0.0937 -0.0937,-0.23437 0,-0.15625 0.0937,-0.23438 0.10938,-0.0937 0.34375,-0.0937 h 0.54688 v -5.45312 h -0.54688 q -0.23437,0 -0.34375,-0.0937 -0.0937,-0.0937 -0.0937,-0.23438 0,-0.14062 0.0937,-0.23437 0.10938,-0.0937 0.34375,-0.0937 z m 9.60156,0 v 0.65625 q 0.84375,-0.89063 1.6875,-0.89063 0.5,0 0.875,0.26563 0.39063,0.26562 0.65625,0.8125 0.4375,-0.54688 0.875,-0.8125 0.45313,-0.26563 0.90625,-0.26563 0.71875,0 1.14063,0.45313 0.54687,0.59375 0.54687,1.29687 v 4.59375 h 0.5625 q 0.23438,0 0.32813,0.0937 0.10937,0.0781 0.10937,0.23438 0,0.14062 -0.10937,0.23437 -0.0937,0.0937 -0.32813,0.0937 h -1.21875 v -5.1875 q 0,-0.5 -0.3125,-0.82812 -0.29687,-0.32813 -0.6875,-0.32813 -0.35937,0 -0.76562,0.28125 -0.39063,0.26563 -0.90625,1.04688 v 4.35937 h 0.54687 q 0.23438,0 0.32813,0.0937 0.10937,0.0781 0.10937,0.23438 0,0.14062 -0.10937,0.23437 -0.0937,0.0937 -0.32813,0.0937 h -1.20312 v -5.14062 q 0,-0.51563 -0.3125,-0.85938 -0.3125,-0.34375 -0.6875,-0.34375 -0.35938,0 -0.70313,0.23438 -0.46875,0.3125 -1,1.09375 v 4.35937 h 0.5625 q 0.23438,0 0.32813,0.0937 0.10937,0.0781 0.10937,0.23438 0,0.14062 -0.10937,0.23437 -0.0937,0.0937 -0.32813,0.0937 h -1.76562 q -0.23438,0 -0.34375,-0.0937 -0.0937,-0.0937 -0.0937,-0.23437 0,-0.15625 0.0937,-0.23438 0.10937,-0.0937 0.34375,-0.0937 h 0.54687 v -5.45312 h -0.54687 q -0.23438,0 -0.34375,-0.0937 -0.0937,-0.0937 -0.0937,-0.23438 0,-0.14062 0.0937,-0.23437 0.10937,-0.0937 0.34375,-0.0937 z m 12.91406,-3.375 v 1.70312 h -0.96875 v -1.70312 z m 0.0312,3.375 v 6.10937 h 2.57813 q 0.23437,0 0.32812,0.0937 0.10938,0.0781 0.10938,0.23438 0,0.14062 -0.10938,0.23437 -0.0937,0.0937 -0.32812,0.0937 h -5.8125 q -0.23438,0 -0.34375,-0.0937 -0.0937,-0.0937 -0.0937,-0.23437 0,-0.15625 0.0937,-0.23438 0.10937,-0.0937 0.34375,-0.0937 h 2.57812 v -5.45312 h -1.92187 q -0.23438,0 -0.34375,-0.0937 -0.0937,-0.0937 -0.0937,-0.23438 0,-0.14062 0.0937,-0.23437 0.10937,-0.0937 0.34375,-0.0937 z m 7.89844,0 h 3.5625 q 0.23438,0 0.32813,0.0937 0.10937,0.0937 0.10937,0.23437 0,0.14063 -0.10937,0.23438 -0.0937,0.0937 -0.32813,0.0937 h -3.5625 v 4.375 q 0,0.5625 0.45313,0.95312 0.46875,0.375 1.34375,0.375 0.67187,0 1.4375,-0.1875 0.78125,-0.20312 1.20312,-0.45312 0.15625,-0.10938 0.26563,-0.10938 0.125,0 0.21875,0.10938 0.0937,0.0937 0.0937,0.21875 0,0.125 -0.10938,0.21875 -0.25,0.26562 -1.21875,0.57812 -0.95312,0.29688 -1.84375,0.29688 -1.14062,0 -1.82812,-0.54688 -0.67188,-0.54687 -0.67188,-1.45312 v -4.375 h -1.21875 q -0.23437,0 -0.34375,-0.0937 -0.0937,-0.0937 -0.0937,-0.23438 0,-0.14062 0.0937,-0.23437 0.10938,-0.0937 0.34375,-0.0937 h 1.21875 v -1.9375 q 0,-0.23438 0.0937,-0.32813 0.0937,-0.10937 0.23438,-0.10937 0.14062,0 0.23437,0.10937 0.0937,0.0937 0.0937,0.32813 z m 15.32031,11.15625 h -8.73437 q -0.23438,0 -0.34375,-0.0937 -0.0937,-0.0937 -0.0937,-0.23438 0,-0.15625 0.0937,-0.25 0.10937,-0.0781 0.34375,-0.0781 h 8.73437 q 0.23438,0 0.32813,0.0781 0.10937,0.0937 0.10937,0.25 0,0.14063 -0.10937,0.23438 -0.0937,0.0937 -0.32813,0.0937 z m 2.42969,-5.04688 v -7.82812 h -0.875 q -0.23437,0 -0.34375,-0.0937 -0.0937,-0.0937 -0.0937,-0.23438 0,-0.15625 0.0937,-0.23437 0.10938,-0.0937 0.34375,-0.0937 h 4.125 q 1.21875,0 1.98438,0.70312 0.78125,0.70313 0.78125,1.65625 0,1.20313 -1.29688,1.95313 1.03125,0.35937 1.5,0.96875 0.48438,0.60937 0.48438,1.34375 0,0.65625 -0.3125,1.20312 -0.3125,0.54688 -0.96875,0.9375 -0.64063,0.375 -1.39063,0.375 h -4.90625 q -0.23437,0 -0.34375,-0.0937 -0.0937,-0.0937 -0.0937,-0.23437 0,-0.15625 0.0937,-0.23438 0.10938,-0.0937 0.34375,-0.0937 z m 0.65625,-4.42187 h 2.32813 q 0.73437,0 1.35937,-0.28125 0.46875,-0.21875 0.73438,-0.625 0.26562,-0.42188 0.26562,-0.84375 0,-0.625 -0.57812,-1.14063 -0.57813,-0.51562 -1.5,-0.51562 h -2.60938 z m 0,4.42187 h 3.32813 q 0.625,0 1.09375,-0.28125 0.46875,-0.28125 0.70312,-0.6875 0.25,-0.42187 0.25,-0.875 0,-0.5 -0.34375,-0.96875 -0.34375,-0.46875 -0.96875,-0.70312 -0.60937,-0.25 -1.70312,-0.25 h -2.35938 z"
       id="path61"
       inkscape:connector-curvature="0"
       style="fill:#000000;fill-rule:nonzero" />
    <path
       d="m 571.5591,360.3152 -88.37799,37.41733"
       id="path63"
       inkscape:connector-curvature="0"
       style="fill:#000000;fill-opacity:0;fill-rule:evenodd" />
    <path
       d="m 571.5591,360.31522 -77.32758,32.7388"
       id="path65"
       inkscape:connector-curvature="0"
       style="fill-rule:evenodd;stroke:#1a1a1a;stroke-width:2;stroke-linecap:butt;stroke-linejoin:round" />
    <path
       d="m 492.94357,390.01196 -7.07004,6.58066 9.64591,-0.49655 z"
       id="path67"
       inkscape:connector-curvature="0"
       style="fill:#1a1a1a;fill-rule:evenodd;stroke:#1a1a1a;stroke-width:2;stroke-linecap:butt" />
    <path
       d="m 479.99997,277.3891 v 0 c 0,1.12958 -0.91571,2.04529 -2.04526,2.04529 v -2.04529 0 c 0,0.56479 -0.45785,1.02264 -1.02264,1.02264 -0.56479,0 -1.02265,-0.45785 -1.02265,-1.02264 v 2.04529 H 331.55706 v 0 c -1.12957,0 -2.04528,0.91571 -2.04528,2.04526 v 24.54333 c 0,1.12955 0.91571,2.04526 2.04528,2.04526 1.12958,0 2.04526,-0.91571 2.04526,-2.04526 v -2.04529 h 144.35239 c 1.12955,0 2.04526,-0.91571 2.04526,-2.04529 z m -148.4429,6.13583 c 1.12958,0 2.04526,-0.91571 2.04526,-2.04528 0,-0.56476 -0.45783,-1.02262 -1.02262,-1.02262 -0.56478,0 -1.02264,0.45786 -1.02264,1.02262 z"
       id="path69"
       inkscape:connector-curvature="0"
       style="fill:#e9edee;fill-rule:evenodd" />
    <path
       d="m 331.55707,283.52493 c 1.12958,0 2.04526,-0.91571 2.04526,-2.04529 0,-0.56476 -0.45783,-1.02261 -1.02262,-1.02261 -0.56478,0 -1.02264,0.45785 -1.02264,1.02261 z m 146.39764,-4.09055 c 1.12955,0 2.04526,-0.91571 2.04526,-2.04528 0,-1.12958 -0.91571,-2.04526 -2.04526,-2.04526 -1.12958,0 -2.04529,0.91568 -2.04529,2.04526 0,0.56479 0.45786,1.02264 1.02265,1.02264 0.56478,0 1.02264,-0.45785 1.02264,-1.02264 z"
       id="path71"
       inkscape:connector-curvature="0"
       style="fill:#babdbe;fill-rule:evenodd" />
    <path
       d="m 329.51178,281.47964 c 0,-1.12955 0.91571,-2.04526 2.04529,-2.04526 h 144.35236 v -2.04529 0 c 0,-1.12957 0.91571,-2.04525 2.04529,-2.04525 1.12954,0 2.04525,0.91568 2.04525,2.04525 v 24.54331 c 0,1.12958 -0.91571,2.04529 -2.04525,2.04529 H 333.60233 v 2.04528 c 0,1.12955 -0.91568,2.04526 -2.04526,2.04526 -1.12958,0 -2.04529,-0.91571 -2.04529,-2.04526 z m 146.39764,-2.04526 h 2.04529 c 1.12955,0 2.04526,-0.91571 2.04526,-2.04529 m -2.04526,2.04529 v -2.04529 0 c 0,0.56479 -0.45786,1.02265 -1.02265,1.02265 -0.56478,0 -1.02264,-0.45786 -1.02264,-1.02265 m -144.35236,6.13584 v -2.04529 0 c 0,-0.56476 0.45786,-1.02261 1.02264,-1.02261 0.56479,0 1.02262,0.45785 1.02262,1.02261 0,1.12958 -0.91568,2.04529 -2.04526,2.04529 -1.12958,0 -2.04529,-0.91571 -2.04529,-2.04529 m 4.09055,0 v 22.49805"
       id="path73"
       inkscape:connector-curvature="0"
       style="fill:#000000;fill-opacity:0;fill-rule:evenodd" />
    <path
       d="m 329.51178,281.47964 c 0,-1.12955 0.91571,-2.04526 2.04529,-2.04526 h 144.35236 v -2.04529 0 c 0,-1.12957 0.91571,-2.04525 2.04529,-2.04525 1.12954,0 2.04525,0.91568 2.04525,2.04525 v 24.54331 c 0,1.12958 -0.91571,2.04529 -2.04525,2.04529 H 333.60233 v 2.04528 c 0,1.12955 -0.91568,2.04526 -2.04526,2.04526 -1.12958,0 -2.04529,-0.91571 -2.04529,-2.04526 z m 146.39764,-2.04526 h 2.04529 c 1.12955,0 2.04526,-0.91571 2.04526,-2.04529 m -2.04526,2.04529 v -2.04529 0 c 0,0.56479 -0.45786,1.02265 -1.02265,1.02265 -0.56478,0 -1.02264,-0.45786 -1.02264,-1.02265 m -144.35236,6.13584 v -2.04529 0 c 0,-0.56476 0.45786,-1.02261 1.02264,-1.02261 0.56479,0 1.02262,0.45785 1.02262,1.02261 0,1.12958 -0.91568,2.04529 -2.04526,2.04529 -1.12958,0 -2.04529,-0.91571 -2.04529,-2.04529 m 4.09055,0 v 22.49805"
       id="path75"
       inkscape:connector-curvature="0"
       style="fill-rule:evenodd;stroke:#1a1a1a;stroke-width:1;stroke-linecap:butt;stroke-linejoin:round" />
    <path
       d="m 351.83713,294.19104 q 0,1.5 -1.07813,2.57812 -1.0625,1.0625 -2.57812,1.0625 -1.53125,0 -2.60938,-1.0625 -1.0625,-1.07812 -1.0625,-2.57812 0,-1.5 1.0625,-2.5625 1.07813,-1.0625 2.60938,-1.0625 1.51562,0 2.57812,1.0625 1.07813,1.0625 1.07813,2.5625 z m -0.65625,0 q 0,-1.23438 -0.89063,-2.09375 -0.875,-0.875 -2.125,-0.875 -1.25,0 -2.125,0.875 -0.875,0.875 -0.875,2.09375 0,1.21875 0.875,2.09375 0.875,0.875 2.125,0.875 1.25,0 2.125,-0.85938 0.89063,-0.875 0.89063,-2.10937 z m 5.80469,-3.39063 v 1.65625 q 1.28125,-1.15625 1.92187,-1.48437 0.64063,-0.34375 1.17188,-0.34375 0.59375,0 1.09375,0.40625 0.5,0.39062 0.5,0.59375 0,0.14062 -0.0937,0.25 -0.0937,0.0937 -0.25,0.0937 -0.0781,0 -0.14063,-0.0312 -0.0469,-0.0312 -0.1875,-0.17188 -0.28125,-0.28125 -0.48437,-0.375 -0.20313,-0.10937 -0.39063,-0.10937 -0.4375,0 -1.04687,0.34375 -0.59375,0.34375 -2.09375,1.6875 v 3.59375 h 2.90625 q 0.25,0 0.34375,0.0937 0.10937,0.0781 0.10937,0.23437 0,0.14063 -0.10937,0.23438 -0.0937,0.0937 -0.34375,0.0937 h -5.14063 q -0.23437,0 -0.34375,-0.0937 -0.0937,-0.0937 -0.0937,-0.23438 0,-0.125 0.0937,-0.21875 0.0937,-0.0937 0.34375,-0.0937 h 1.57813 v -5.46875 h -1.20313 q -0.23437,0 -0.34375,-0.0937 -0.0937,-0.0937 -0.0937,-0.23437 0,-0.14063 0.0937,-0.23438 0.0937,-0.0937 0.34375,-0.0937 z m 10.71093,-3.375 v 1.70313 h -0.96875 v -1.70313 z m 0.0312,3.375 v 6.10938 h 2.57813 q 0.23437,0 0.32812,0.0937 0.10938,0.0781 0.10938,0.23437 0,0.14063 -0.10938,0.23438 -0.0937,0.0937 -0.32812,0.0937 h -5.8125 q -0.23438,0 -0.34375,-0.0937 -0.0937,-0.0937 -0.0937,-0.23438 0,-0.15625 0.0937,-0.23437 0.10937,-0.0937 0.34375,-0.0937 h 2.57812 v -5.45313 h -1.92187 q -0.23438,0 -0.34375,-0.0937 -0.0937,-0.0937 -0.0937,-0.23437 0,-0.14063 0.0937,-0.23438 0.10937,-0.0937 0.34375,-0.0937 z m 11.46094,1.20313 v -1.20313 h 1.53125 q 0.23438,0 0.32813,0.0937 0.10937,0.0937 0.10937,0.23438 0,0.14062 -0.10937,0.23437 -0.0937,0.0937 -0.32813,0.0937 h -0.875 v 6.5625 q 0,0.65625 -0.28125,1.17188 -0.1875,0.34375 -0.625,0.70312 -0.4375,0.375 -0.79687,0.53125 -0.35938,0.15625 -0.96875,0.15625 h -1.85938 q -0.23437,0 -0.34375,-0.0937 -0.0937,-0.0781 -0.0937,-0.23437 0,-0.14063 0.0937,-0.23438 0.10938,-0.0937 0.34375,-0.0937 h 1.89063 q 0.57812,0 1.03125,-0.29687 0.46875,-0.29688 0.78125,-0.85938 0.17187,-0.32812 0.17187,-0.84375 v -1.96875 q -1.0625,1.4375 -2.71875,1.4375 -1.35937,0 -2.34375,-1 -0.96875,-1 -0.96875,-2.42187 0,-1.40625 0.96875,-2.40625 0.98438,-1 2.34375,-1 1.65625,0 2.71875,1.4375 z m 0,1.96875 q 0,-1.15625 -0.79687,-1.95313 -0.79688,-0.79687 -1.89063,-0.79687 -1.10937,0 -1.90625,0.8125 -0.78125,0.79687 -0.78125,1.9375 0,1.15625 0.78125,1.96875 0.79688,0.79687 1.90625,0.79687 1.09375,0 1.89063,-0.79687 0.79687,-0.8125 0.79687,-1.96875 z m 7.71094,-6.54688 v 1.70313 h -0.96875 v -1.70313 z m 0.0312,3.375 v 6.10938 h 2.57812 q 0.23438,0 0.32813,0.0937 0.10937,0.0781 0.10937,0.23437 0,0.14063 -0.10937,0.23438 -0.0937,0.0937 -0.32813,0.0937 h -5.8125 q -0.23437,0 -0.34375,-0.0937 -0.0937,-0.0937 -0.0937,-0.23438 0,-0.15625 0.0937,-0.23437 0.10938,-0.0937 0.34375,-0.0937 h 2.57813 v -5.45313 h -1.92188 q -0.23437,0 -0.34375,-0.0937 -0.0937,-0.0937 -0.0937,-0.23437 0,-0.14063 0.0937,-0.23438 0.10938,-0.0937 0.34375,-0.0937 z m 7.13281,0 v 0.98438 q 0.6875,-0.6875 1.23438,-0.95313 0.5625,-0.26562 1.25,-0.26562 0.75,0 1.37497,0.3125 0.4375,0.23437 0.78125,0.78125 0.35937,0.54687 0.35937,1.10937 v 4.14063 h 0.5625 q 0.23438,0 0.32813,0.0937 0.10937,0.0781 0.10937,0.23437 0,0.14063 -0.10937,0.23438 -0.0937,0.0937 -0.32813,0.0937 h -1.76562 q -0.23438,0 -0.34372,-0.0937 -0.0937,-0.0937 -0.0937,-0.23438 0,-0.15625 0.0937,-0.23437 0.10934,-0.0937 0.34372,-0.0937 h 0.54687 v -4.03125 q 0,-0.6875 -0.51562,-1.17188 -0.49997,-0.48437 -1.34372,-0.48437 -0.65625,0 -1.14063,0.26562 -0.46875,0.26563 -1.34375,1.29688 v 4.125 h 0.73438 q 0.23437,0 0.32812,0.0937 0.10938,0.0781 0.10938,0.23437 0,0.14063 -0.10938,0.23438 -0.0937,0.0937 -0.32812,0.0937 h -2.14063 q -0.23437,0 -0.34375,-0.0937 -0.0937,-0.0937 -0.0937,-0.23438 0,-0.15625 0.0937,-0.23437 0.10938,-0.0937 0.34375,-0.0937 h 0.75 v -5.45313 h -0.5625 q -0.23437,0 -0.34375,-0.0937 -0.0937,-0.0937 -0.0937,-0.23437 0,-0.14063 0.0937,-0.23438 0.10938,-0.0937 0.34375,-0.0937 z m 14.66403,-3.51562 -5.28125,11.3125 q -0.125,0.29687 -0.34375,0.29687 -0.125,0 -0.23437,-0.10937 -0.0937,-0.0937 -0.0937,-0.20313 0,-0.0937 0.0781,-0.26562 l 5.28125,-11.3125 q 0.0781,-0.1875 0.15625,-0.23438 0.0781,-0.0625 0.1875,-0.0625 0.14063,0 0.23438,0.10938 0.0937,0.0937 0.0937,0.20312 0,0.0937 -0.0781,0.26563 z m 3.66407,3.51562 v 0.65625 q 0.84375,-0.89062 1.6875,-0.89062 0.5,0 0.875,0.26562 0.39062,0.26563 0.65625,0.8125 0.4375,-0.54687 0.875,-0.8125 0.45312,-0.26562 0.90625,-0.26562 0.71875,0 1.14062,0.45312 0.54688,0.59375 0.54688,1.29688 v 4.59375 h 0.5625 q 0.23437,0 0.32812,0.0937 0.10938,0.0781 0.10938,0.23437 0,0.14063 -0.10938,0.23438 -0.0937,0.0937 -0.32812,0.0937 h -1.21875 v -5.1875 q 0,-0.5 -0.3125,-0.82813 -0.29688,-0.32812 -0.6875,-0.32812 -0.35938,0 -0.76563,0.28125 -0.39062,0.26562 -0.90625,1.04687 v 4.35938 h 0.54688 q 0.23437,0 0.32812,0.0937 0.10938,0.0781 0.10938,0.23437 0,0.14063 -0.10938,0.23438 -0.0937,0.0937 -0.32812,0.0937 h -1.20313 v -5.14063 q 0,-0.51562 -0.3125,-0.85937 -0.3125,-0.34375 -0.6875,-0.34375 -0.35937,0 -0.70312,0.23437 -0.46875,0.3125 -1,1.09375 v 4.35938 h 0.5625 q 0.23437,0 0.32812,0.0937 0.10938,0.0781 0.10938,0.23437 0,0.14063 -0.10938,0.23438 -0.0937,0.0937 -0.32812,0.0937 h -1.76563 q -0.23437,0 -0.34375,-0.0937 -0.0937,-0.0937 -0.0937,-0.23438 0,-0.15625 0.0937,-0.23437 0.10938,-0.0937 0.34375,-0.0937 h 0.54688 v -5.45313 h -0.54688 q -0.23437,0 -0.34375,-0.0937 -0.0937,-0.0937 -0.0937,-0.23437 0,-0.14063 0.0937,-0.23438 0.10938,-0.0937 0.34375,-0.0937 z m 14.47656,6.76563 v -0.95313 q -1.42188,1.21875 -3.04688,1.21875 -1.1875,0 -1.85937,-0.59375 -0.65625,-0.60937 -0.65625,-1.48437 0,-0.95313 0.875,-1.65625 0.875,-0.71875 2.5625,-0.71875 0.45312,0 0.98437,0.0625 0.53125,0.0625 1.14063,0.1875 v -1.0625 q 0,-0.54688 -0.5,-0.9375 -0.5,-0.40625 -1.5,-0.40625 -0.76563,0 -2.14063,0.45312 -0.25,0.0781 -0.32812,0.0781 -0.125,0 -0.21875,-0.0937 -0.0781,-0.0937 -0.0781,-0.23438 0,-0.14062 0.0781,-0.21875 0.10937,-0.10937 0.875,-0.3125 1.21875,-0.32812 1.84375,-0.32812 1.25,0 1.9375,0.60937 0.70312,0.60938 0.70312,1.39063 v 4.34375 h 0.875 q 0.23438,0 0.32813,0.0937 0.10937,0.0781 0.10937,0.23437 0,0.14063 -0.10937,0.23438 -0.0937,0.0937 -0.32813,0.0937 z m 0,-3.26563 q -0.45313,-0.14062 -0.96875,-0.20312 -0.51563,-0.0625 -1.09375,-0.0625 -1.42188,0 -2.23438,0.625 -0.60937,0.45312 -0.60937,1.09375 0,0.59375 0.46875,1 0.46875,0.40625 1.35937,0.40625 0.84375,0 1.57813,-0.32813 0.73437,-0.34375 1.5,-1.09375 z m 9.88281,-3.07812 q 0,-0.21875 0.0937,-0.3125 0.0937,-0.10938 0.23438,-0.10938 0.15625,0 0.25,0.10938 0.0937,0.0937 0.0937,0.32812 v 1.125 q 0,0.23438 -0.0937,0.34375 -0.0937,0.0937 -0.25,0.0937 -0.125,0 -0.21875,-0.0781 -0.0937,-0.0937 -0.10938,-0.28125 -0.0469,-0.46875 -0.48437,-0.78125 -0.64063,-0.4375 -1.6875,-0.4375 -1.10938,0 -1.71875,0.45312 -0.45313,0.32813 -0.45313,0.75 0,0.46875 0.54688,0.78125 0.375,0.21875 1.42187,0.32813 1.35938,0.15625 1.89063,0.34375 0.76562,0.26562 1.125,0.75 0.375,0.48437 0.375,1.04687 0,0.84375 -0.8125,1.5 -0.79688,0.65625 -2.34375,0.65625 -1.5625,0 -2.54688,-0.79687 0,0.26562 -0.0312,0.34375 -0.0312,0.0781 -0.125,0.14062 -0.0781,0.0469 -0.17187,0.0469 -0.14063,0 -0.23438,-0.0937 -0.0937,-0.10938 -0.0937,-0.34375 v -1.35938 q 0,-0.23437 0.0781,-0.32812 0.0937,-0.10938 0.25,-0.10938 0.14062,0 0.23437,0.10938 0.0937,0.0937 0.0937,0.25 0,0.35937 0.1875,0.60937 0.26563,0.375 0.85938,0.625 0.60937,0.23438 1.46875,0.23438 1.28125,0 1.90625,-0.46875 0.625,-0.48438 0.625,-1.01563 0,-0.60937 -0.625,-0.96875 -0.64063,-0.375 -1.875,-0.5 -1.21875,-0.125 -1.75,-0.32812 -0.53125,-0.20313 -0.82813,-0.60938 -0.29687,-0.40625 -0.29687,-0.875 0,-0.84375 0.82812,-1.32812 0.82813,-0.5 1.98438,-0.5 1.35937,0 2.20312,0.65625 z m 6.08594,-0.42188 h 3.5625 q 0.23437,0 0.32812,0.0937 0.10938,0.0937 0.10938,0.23438 0,0.14062 -0.10938,0.23437 -0.0937,0.0937 -0.32812,0.0937 h -3.5625 v 4.375 q 0,0.5625 0.45312,0.95313 0.46875,0.375 1.34375,0.375 0.67188,0 1.4375,-0.1875 0.78125,-0.20313 1.20313,-0.45313 0.15625,-0.10937 0.26562,-0.10937 0.125,0 0.21875,0.10937 0.0937,0.0937 0.0937,0.21875 0,0.125 -0.10937,0.21875 -0.25,0.26563 -1.21875,0.57813 -0.95313,0.29687 -1.84375,0.29687 -1.14063,0 -1.82813,-0.54687 -0.67187,-0.54688 -0.67187,-1.45313 v -4.375 h -1.21875 q -0.23438,0 -0.34375,-0.0937 -0.0937,-0.0937 -0.0937,-0.23437 0,-0.14063 0.0937,-0.23438 0.10937,-0.0937 0.34375,-0.0937 h 1.21875 v -1.9375 q 0,-0.23437 0.0937,-0.32812 0.0937,-0.10938 0.23437,-0.10938 0.14063,0 0.23438,0.10938 0.0937,0.0937 0.0937,0.32812 z m 14.50781,3.53125 h -6.6875 q 0.17188,1.28125 1.0625,2.0625 0.89063,0.76563 2.21875,0.76563 0.73438,0 1.53125,-0.23438 0.8125,-0.25 1.3125,-0.64062 0.15625,-0.125 0.26563,-0.125 0.125,0 0.21875,0.10937 0.0937,0.0937 0.0937,0.21875 0,0.14063 -0.125,0.26563 -0.375,0.39062 -1.34375,0.73437 -0.95313,0.34375 -1.95313,0.34375 -1.6875,0 -2.82812,-1.10937 -1.125,-1.10938 -1.125,-2.6875 0,-1.42188 1.0625,-2.4375 1.0625,-1.03125 2.625,-1.03125 1.60937,0 2.64062,1.04687 1.04688,1.04688 1.03125,2.71875 z m -0.67187,-0.65625 q -0.1875,-1.09375 -1.03125,-1.76562 -0.82813,-0.6875 -1.96875,-0.6875 -1.15625,0 -1.98438,0.67187 -0.82812,0.67188 -1.03125,1.78125 z m 5.92968,-2.875 v 1.65625 q 1.28125,-1.15625 1.92188,-1.48437 0.64062,-0.34375 1.17187,-0.34375 0.59375,0 1.09375,0.40625 0.5,0.39062 0.5,0.59375 0,0.14062 -0.0937,0.25 -0.0937,0.0937 -0.25,0.0937 -0.0781,0 -0.14062,-0.0312 -0.0469,-0.0312 -0.1875,-0.17188 -0.28125,-0.28125 -0.48438,-0.375 -0.20312,-0.10937 -0.39062,-0.10937 -0.4375,0 -1.04688,0.34375 -0.59375,0.34375 -2.09375,1.6875 v 3.59375 h 2.90625 q 0.25,0 0.34375,0.0937 0.10938,0.0781 0.10938,0.23437 0,0.14063 -0.10938,0.23438 -0.0937,0.0937 -0.34375,0.0937 h -5.14062 q -0.23438,0 -0.34375,-0.0937 -0.0937,-0.0937 -0.0937,-0.23438 0,-0.125 0.0937,-0.21875 0.0937,-0.0937 0.34375,-0.0937 h 1.57812 v -5.46875 h -1.20312 q -0.23438,0 -0.34375,-0.0937 -0.0937,-0.0937 -0.0937,-0.23437 0,-0.14063 0.0937,-0.23438 0.0937,-0.0937 0.34375,-0.0937 z"
       id="path77"
       inkscape:connector-curvature="0"
       style="fill:#0000ff;fill-rule:nonzero" />
    <path
       d="m 404.7559,303.9777 v 23.62204"
       id="path79"
       inkscape:connector-curvature="0"
       style="fill:#000000;fill-opacity:0;fill-rule:evenodd" />
    <path
       d="m 404.75586,303.9777 v 11.62204"
       id="path81"
       inkscape:connector-curvature="0"
       style="fill-rule:evenodd;stroke:#0000ff;stroke-width:2;stroke-linecap:butt;stroke-linejoin:round" />
    <path
       d="m 401.4524,315.59973 3.30347,9.0762 3.30346,-9.0762 z"
       id="path83"
       inkscape:connector-curvature="0"
       style="fill:#0000ff;fill-rule:evenodd;stroke:#0000ff;stroke-width:2;stroke-linecap:butt" />
    <path
       d="m 342.3622,327.5908 h 124.78738 v 32.7244 H 342.3622 Z"
       id="path85"
       inkscape:connector-curvature="0"
       style="fill:#ff9900;fill-rule:evenodd" />
    <path
       d="m 342.3622,327.5908 h 124.78738 v 32.7244 H 342.3622 Z"
       id="path87"
       inkscape:connector-curvature="0"
       style="fill-rule:evenodd;stroke:#000000;stroke-width:2;stroke-linecap:butt;stroke-linejoin:round" />
    <path
       d="m 373.8965,343.7036 v -0.21875 q 0,-0.23438 0.0937,-0.32813 0.0937,-0.10937 0.23437,-0.10937 0.14063,0 0.23438,0.10937 0.0937,0.0937 0.0937,0.32813 v 1.48437 q 0,0.25 -0.0937,0.35938 -0.0937,0.0937 -0.23438,0.0937 -0.14062,0 -0.23437,-0.0937 -0.0781,-0.0937 -0.0937,-0.29688 -0.0469,-0.5625 -0.73438,-1.0625 -0.6875,-0.5 -1.84375,-0.5 -1.45312,0 -2.21875,0.92188 -0.75,0.90625 -0.75,2.09375 0,1.26562 0.82813,2.09375 0.84375,0.82812 2.17187,0.82812 0.76563,0 1.54688,-0.28125 0.79687,-0.28125 1.4375,-0.90625 0.17187,-0.15625 0.29687,-0.15625 0.125,0 0.21875,0.0937 0.0937,0.0937 0.0937,0.21875 0,0.34375 -0.79687,0.85938 -1.26563,0.84375 -2.82813,0.84375 -1.59375,0 -2.60937,-1.01563 -1.01563,-1.01562 -1.01563,-2.57812 0,-1.57813 1.03125,-2.625 1.04688,-1.04688 2.64063,-1.04688 1.5,0 2.53125,0.89063 z m 10.52344,2.73437 q 0,1.5 -1.07813,2.57813 -1.0625,1.0625 -2.57812,1.0625 -1.53125,0 -2.60938,-1.0625 -1.0625,-1.07813 -1.0625,-2.57813 0,-1.5 1.0625,-2.5625 1.07813,-1.0625 2.60938,-1.0625 1.51562,0 2.57812,1.0625 1.07813,1.0625 1.07813,2.5625 z m -0.65625,0 q 0,-1.23437 -0.89063,-2.09375 -0.875,-0.875 -2.125,-0.875 -1.25,0 -2.125,0.875 -0.875,0.875 -0.875,2.09375 0,1.21875 0.875,2.09375 0.875,0.875 2.125,0.875 1.25,0 2.125,-0.85937 0.89063,-0.875 0.89063,-2.10938 z m 3.60156,-3.39062 v 0.65625 q 0.84375,-0.89063 1.6875,-0.89063 0.5,0 0.875,0.26563 0.39062,0.26562 0.65625,0.8125 0.4375,-0.54688 0.875,-0.8125 0.45312,-0.26563 0.90625,-0.26563 0.71875,0 1.14062,0.45313 0.54688,0.59375 0.54688,1.29687 v 4.59375 h 0.5625 q 0.23437,0 0.32812,0.0937 0.10938,0.0781 0.10938,0.23438 0,0.14062 -0.10938,0.23437 -0.0937,0.0937 -0.32812,0.0937 h -1.21875 v -5.1875 q 0,-0.5 -0.3125,-0.82812 -0.29688,-0.32813 -0.6875,-0.32813 -0.35938,0 -0.76563,0.28125 -0.39062,0.26563 -0.90625,1.04688 v 4.35937 h 0.54688 q 0.23437,0 0.32812,0.0937 0.10938,0.0781 0.10938,0.23438 0,0.14062 -0.10938,0.23437 -0.0937,0.0937 -0.32812,0.0937 h -1.20313 v -5.14062 q 0,-0.51563 -0.3125,-0.85938 -0.3125,-0.34375 -0.6875,-0.34375 -0.35937,0 -0.70312,0.23438 -0.46875,0.3125 -1,1.09375 v 4.35937 h 0.5625 q 0.23437,0 0.32812,0.0937 0.10938,0.0781 0.10938,0.23438 0,0.14062 -0.10938,0.23437 -0.0937,0.0937 -0.32812,0.0937 h -1.76563 q -0.23437,0 -0.34375,-0.0937 -0.0937,-0.0937 -0.0937,-0.23437 0,-0.15625 0.0937,-0.23438 0.10938,-0.0937 0.34375,-0.0937 h 0.54688 v -5.45312 h -0.54688 q -0.23437,0 -0.34375,-0.0937 -0.0937,-0.0937 -0.0937,-0.23438 0,-0.14062 0.0937,-0.23437 0.10938,-0.0937 0.34375,-0.0937 z m 9.60156,0 v 0.65625 q 0.84375,-0.89063 1.6875,-0.89063 0.5,0 0.875,0.26563 0.39063,0.26562 0.65625,0.8125 0.4375,-0.54688 0.875,-0.8125 0.45313,-0.26563 0.90625,-0.26563 0.71875,0 1.14063,0.45313 0.54687,0.59375 0.54687,1.29687 v 4.59375 h 0.5625 q 0.23438,0 0.32813,0.0937 0.10937,0.0781 0.10937,0.23438 0,0.14062 -0.10937,0.23437 -0.0937,0.0937 -0.32813,0.0937 h -1.21875 v -5.1875 q 0,-0.5 -0.3125,-0.82812 -0.29687,-0.32813 -0.6875,-0.32813 -0.35937,0 -0.76562,0.28125 -0.39063,0.26563 -0.90625,1.04688 v 4.35937 h 0.54687 q 0.23438,0 0.32813,0.0937 0.10937,0.0781 0.10937,0.23438 0,0.14062 -0.10937,0.23437 -0.0937,0.0937 -0.32813,0.0937 h -1.20312 v -5.14062 q 0,-0.51563 -0.3125,-0.85938 -0.3125,-0.34375 -0.6875,-0.34375 -0.35938,0 -0.70313,0.23438 -0.46875,0.3125 -1,1.09375 v 4.35937 h 0.5625 q 0.23438,0 0.32813,0.0937 0.10937,0.0781 0.10937,0.23438 0,0.14062 -0.10937,0.23437 -0.0937,0.0937 -0.32813,0.0937 h -1.76562 q -0.23438,0 -0.34375,-0.0937 -0.0937,-0.0937 -0.0937,-0.23437 0,-0.15625 0.0937,-0.23438 0.10937,-0.0937 0.34375,-0.0937 h 0.54687 v -5.45312 h -0.54687 q -0.23438,0 -0.34375,-0.0937 -0.0937,-0.0937 -0.0937,-0.23438 0,-0.14062 0.0937,-0.23437 0.10937,-0.0937 0.34375,-0.0937 z m 12.91406,-3.375 v 1.70312 h -0.96875 v -1.70312 z m 0.0312,3.375 v 6.10937 h 2.57813 q 0.23437,0 0.32812,0.0937 0.10938,0.0781 0.10938,0.23438 0,0.14062 -0.10938,0.23437 -0.0937,0.0937 -0.32812,0.0937 h -5.8125 q -0.23438,0 -0.34375,-0.0937 -0.0937,-0.0937 -0.0937,-0.23437 0,-0.15625 0.0937,-0.23438 0.10937,-0.0937 0.34375,-0.0937 h 2.57812 V 343.7036 H 407.334 q -0.23438,0 -0.34375,-0.0937 -0.0937,-0.0937 -0.0937,-0.23438 0,-0.14062 0.0937,-0.23437 0.10937,-0.0937 0.34375,-0.0937 z m 7.89844,0 h 3.5625 q 0.23438,0 0.32813,0.0937 0.10937,0.0937 0.10937,0.23437 0,0.14063 -0.10937,0.23438 -0.0937,0.0937 -0.32813,0.0937 h -3.5625 v 4.375 q 0,0.5625 0.45313,0.95312 0.46875,0.375 1.34375,0.375 0.67187,0 1.4375,-0.1875 0.78125,-0.20312 1.20312,-0.45312 0.15625,-0.10938 0.26563,-0.10938 0.125,0 0.21875,0.10938 0.0937,0.0937 0.0937,0.21875 0,0.125 -0.10938,0.21875 -0.25,0.26562 -1.21875,0.57812 -0.95312,0.29688 -1.84375,0.29688 -1.14062,0 -1.82812,-0.54688 -0.67188,-0.54687 -0.67188,-1.45312 v -4.375 h -1.21875 q -0.23437,0 -0.34375,-0.0937 -0.0937,-0.0937 -0.0937,-0.23438 0,-0.14062 0.0937,-0.23437 0.10938,-0.0937 0.34375,-0.0937 h 1.21875 v -1.9375 q 0,-0.23438 0.0937,-0.32813 0.0937,-0.10937 0.23438,-0.10937 0.14062,0 0.23437,0.10937 0.0937,0.0937 0.0937,0.32813 z m 15.32031,11.15625 h -8.73437 q -0.23438,0 -0.34375,-0.0937 -0.0937,-0.0937 -0.0937,-0.23438 0,-0.15625 0.0937,-0.25 0.10937,-0.0781 0.34375,-0.0781 h 8.73437 q 0.23438,0 0.32813,0.0781 0.10937,0.0937 0.10937,0.25 0,0.14063 -0.10937,0.23438 -0.0937,0.0937 -0.32813,0.0937 z m 7.39844,-7.45313 h -4.3125 l -0.89062,2.40625 h 1.26562 q 0.23438,0 0.32813,0.0937 0.10937,0.0781 0.10937,0.23438 0,0.14062 -0.10937,0.23437 -0.0937,0.0937 -0.32813,0.0937 h -2.45312 q -0.23438,0 -0.34375,-0.0937 -0.0937,-0.0937 -0.0937,-0.23437 0,-0.15625 0.0937,-0.23438 0.10937,-0.0937 0.34375,-0.0937 h 0.5 l 2.90625,-7.82812 h -1.9375 q -0.23438,0 -0.34375,-0.0937 -0.0937,-0.0937 -0.0937,-0.23438 0,-0.15625 0.0937,-0.23437 0.10937,-0.0937 0.34375,-0.0937 h 3.29687 l 3.20313,8.48437 h 0.51562 q 0.23438,0 0.32813,0.0937 0.10937,0.0781 0.10937,0.23438 0,0.14062 -0.10937,0.23437 -0.0937,0.0937 -0.32813,0.0937 h -2.45312 q -0.23438,0 -0.34375,-0.0937 -0.0937,-0.0937 -0.0937,-0.23437 0,-0.15625 0.0937,-0.23438 0.10937,-0.0937 0.34375,-0.0937 h 1.25 z m -0.25,-0.65625 -1.8125,-4.76562 h -0.25 l -1.75,4.76562 z"
       id="path89"
       inkscape:connector-curvature="0"
       style="fill:#000000;fill-rule:nonzero" />
    <path
       d="m 404.75592,360.3152 78.42517,37.41733"
       id="path91"
       inkscape:connector-curvature="0"
       style="fill:#000000;fill-opacity:0;fill-rule:evenodd" />
    <path
       d="m 404.75592,360.31522 67.59473,32.25"
       id="path93"
       inkscape:connector-curvature="0"
       style="fill-rule:evenodd;stroke:#1a1a1a;stroke-width:2;stroke-linecap:butt;stroke-linejoin:round" />
    <path
       d="m 470.92813,395.54672 9.61414,0.92679 -6.76914,-6.8898 z"
       id="path95"
       inkscape:connector-curvature="0"
       style="fill:#1a1a1a;fill-rule:evenodd;stroke:#1a1a1a;stroke-width:2;stroke-linecap:butt" />
  </g>
</svg>
