<?xml version="1.0" encoding="UTF-8" standalone="no"?>
<svg
   xmlns:dc="http://purl.org/dc/elements/1.1/"
   xmlns:cc="http://creativecommons.org/ns#"
   xmlns:rdf="http://www.w3.org/1999/02/22-rdf-syntax-ns#"
   xmlns:svg="http://www.w3.org/2000/svg"
   xmlns="http://www.w3.org/2000/svg"
   xmlns:sodipodi="http://sodipodi.sourceforge.net/DTD/sodipodi-0.dtd"
   xmlns:inkscape="http://www.inkscape.org/namespaces/inkscape"
   version="1.1"
   viewBox="0 0 558.9422 530.99188"
   stroke-miterlimit="10"
   id="svg143"
   sodipodi:docname="frequent_rebases.svg"
   width="558.9422"
   height="530.99188"
   style="fill:none;stroke:none;stroke-linecap:square;stroke-miterlimit:10"
   inkscape:version="0.92.5 (2060ec1f9f, 2020-04-08)">
  <metadata
     id="metadata149">
    <rdf:RDF>
      <cc:Work
         rdf:about="">
        <dc:format>image/svg+xml</dc:format>
        <dc:type
           rdf:resource="http://purl.org/dc/dcmitype/StillImage" />
        <dc:title></dc:title>
      </cc:Work>
    </rdf:RDF>
  </metadata>
  <defs
     id="defs147" />
  <sodipodi:namedview
     pagecolor="#ffffff"
     bordercolor="#666666"
     borderopacity="1"
     objecttolerance="10"
     gridtolerance="10"
     guidetolerance="10"
     inkscape:pageopacity="0"
     inkscape:pageshadow="2"
     inkscape:window-width="640"
     inkscape:window-height="480"
     id="namedview145"
     showgrid="false"
     fit-margin-top="15"
     fit-margin-left="15"
     fit-margin-right="15"
     fit-margin-bottom="15"
     inkscape:zoom="0.78333333"
     inkscape:cx="130.18093"
     inkscape:cy="248.50246"
     inkscape:current-layer="layer1" />
  <clipPath
     id="g800ff8fafc_0_609.0">
    <path
       d="M 0,0 H 960 V 540 H 0 Z"
       id="path2"
       inkscape:connector-curvature="0"
       style="clip-rule:nonzero" />
  </clipPath>
  <g
     inkscape:groupmode="layer"
     id="layer1"
     inkscape:label="Layer 1"
     style="display:inline"
     transform="translate(-246.5906,-11.693174)">
    <rect
       style="fill:#ffffff;fill-opacity:1;stroke:#000000;stroke-opacity:0.01162792"
       id="rect1026"
       width="574.46808"
       height="556.59576"
       x="245.31401"
       y="3.9616523" />
  </g>
  <g
     inkscape:groupmode="layer"
     id="layer2"
     inkscape:label="Layer 2"
     style="display:inline"
     transform="translate(-246.5906,-11.693174)">
    <g
       clip-path="url(#g800ff8fafc_0_609.0)"
       id="g141">
      <path
         d="m 417.6063,493.96063 h 124.78738 v 32.72443 H 417.6063 Z"
         id="path7"
         inkscape:connector-curvature="0"
         style="fill:#000000;fill-opacity:0;fill-rule:evenodd" />
      <path
         d="m 417.6063,493.96063 h 124.78738 v 32.72443 H 417.6063 Z"
         id="path9"
         inkscape:connector-curvature="0"
         style="fill-rule:evenodd;stroke:#000000;stroke-width:2;stroke-linecap:butt;stroke-linejoin:round" />
      <path
         d="m 443.3457,509.99283 v -0.25 q 0,-0.29687 0.10938,-0.40625 0.10937,-0.125 0.28125,-0.125 0.17187,0 0.28125,0.125 0.10937,0.10938 0.10937,0.40625 v 1.75 q 0,0.29688 -0.10937,0.42188 -0.10938,0.1094 -0.28125,0.1094 -0.15625,0 -0.26563,-0.0938 -0.10937,-0.10937 -0.125,-0.35937 -0.0625,-0.67188 -0.875,-1.26563 -0.79687,-0.59375 -2.17187,-0.59375 -1.73438,0 -2.64063,1.09375 -0.90625,1.07813 -0.90625,2.48441 0,1.51562 0.98438,2.5 1,0.98437 2.57812,0.98437 0.92188,0 1.85938,-0.32812 0.9375,-0.34375 1.70312,-1.09375 0.1875,-0.17188 0.34375,-0.17188 0.15625,0 0.26563,0.10938 0.10937,0.0937 0.10937,0.25 0,0.40625 -0.9375,1.01562 -1.51562,1 -3.375,1 -1.875,0 -3.09375,-1.20312 -1.20312,-1.20313 -1.20312,-3.04688 0,-1.89065 1.23437,-3.12503 1.23438,-1.25 3.125,-1.25 1.78125,0 3,1.0625 z m 12.51123,3.25003 q 0,1.78125 -1.28125,3.04688 -1.28125,1.26562 -3.07812,1.26562 -1.8125,0 -3.09375,-1.26562 -1.26563,-1.28125 -1.26563,-3.04688 0,-1.78128 1.26563,-3.0469 1.28125,-1.26563 3.09375,-1.26563 1.79687,0 3.07812,1.26563 1.28125,1.25 1.28125,3.0469 z m -0.79687,0 q 0,-1.46878 -1.04688,-2.50003 -1.03125,-1.03125 -2.51562,-1.03125 -1.48438,0 -2.53125,1.04688 -1.04688,1.03125 -1.04688,2.4844 0,1.45313 1.04688,2.5 1.04687,1.03125 2.53125,1.03125 1.48437,0 2.51562,-1.03125 1.04688,-1.04687 1.04688,-2.5 z m 4.29248,-4.03128 v 0.78125 q 0.98437,-1.0625 1.98437,-1.0625 0.60938,0 1.0625,0.32813 0.45313,0.3125 0.76563,0.96875 0.51562,-0.65625 1.04687,-0.96875 0.53125,-0.32813 1.07813,-0.32813 0.84375,0 1.34375,0.54688 0.65625,0.70312 0.65625,1.54687 v 5.43753 h 0.65625 q 0.28125,0 0.39062,0.10938 0.125,0.10937 0.125,0.28125 0,0.17187 -0.125,0.28125 -0.10937,0.10937 -0.39062,0.10937 h -1.4375 v -6.15628 q 0,-0.59375 -0.35938,-0.98437 -0.35937,-0.39063 -0.82812,-0.39063 -0.4375,0 -0.90625,0.32813 -0.46875,0.3125 -1.07813,1.25 v 5.1719 h 0.65625 q 0.26563,0 0.39063,0.10938 0.125,0.10937 0.125,0.28125 0,0.17187 -0.125,0.28125 -0.125,0.10937 -0.39063,0.10937 h -1.4375 v -6.09378 q 0,-0.625 -0.375,-1.03125 -0.35937,-0.40625 -0.8125,-0.40625 -0.42187,0 -0.82812,0.28125 -0.5625,0.375 -1.1875,1.29688 v 5.1719 h 0.65625 q 0.28125,0 0.39062,0.10938 0.125,0.10937 0.125,0.28125 0,0.17187 -0.125,0.28125 -0.10937,0.10937 -0.39062,0.10937 h -2.09375 q -0.28125,0 -0.40625,-0.10937 -0.125,-0.10938 -0.125,-0.28125 0,-0.17188 0.125,-0.28125 0.125,-0.10938 0.40625,-0.10938 h 0.65625 v -6.46878 h -0.65625 q -0.28125,0 -0.40625,-0.10937 -0.125,-0.10938 -0.125,-0.28125 0,-0.17188 0.125,-0.28125 0.125,-0.10938 0.40625,-0.10938 z m 11.40185,0 v 0.78125 q 0.98438,-1.0625 1.98438,-1.0625 0.60937,0 1.0625,0.32813 0.45312,0.3125 0.76562,0.96875 0.51563,-0.65625 1.04688,-0.96875 0.53125,-0.32813 1.07812,-0.32813 0.84375,0 1.34375,0.54688 0.65625,0.70312 0.65625,1.54687 v 5.43753 h 0.65625 q 0.28125,0 0.39063,0.10938 0.125,0.10937 0.125,0.28125 0,0.17187 -0.125,0.28125 -0.10938,0.10937 -0.39063,0.10937 h -1.4375 v -6.15628 q 0,-0.59375 -0.35937,-0.98437 -0.35938,-0.39063 -0.82813,-0.39063 -0.4375,0 -0.90625,0.32813 -0.46875,0.3125 -1.07812,1.25 v 5.1719 h 0.65625 q 0.26562,0 0.39062,0.10938 0.125,0.10937 0.125,0.28125 0,0.17187 -0.125,0.28125 -0.125,0.10937 -0.39062,0.10937 h -1.4375 v -6.09378 q 0,-0.625 -0.375,-1.03125 -0.35938,-0.40625 -0.8125,-0.40625 -0.42188,0 -0.82813,0.28125 -0.5625,0.375 -1.1875,1.29688 v 5.1719 h 0.65625 q 0.28125,0 0.39063,0.10938 0.125,0.10937 0.125,0.28125 0,0.17187 -0.125,0.28125 -0.10938,0.10937 -0.39063,0.10937 h -2.09375 q -0.28125,0 -0.40625,-0.10937 -0.125,-0.10938 -0.125,-0.28125 0,-0.17188 0.125,-0.28125 0.125,-0.10938 0.40625,-0.10938 h 0.65625 v -6.46878 h -0.65625 q -0.28125,0 -0.40625,-0.10937 -0.125,-0.10938 -0.125,-0.28125 0,-0.17188 0.125,-0.28125 0.125,-0.10938 0.40625,-0.10938 z m 15.33936,-4 v 2.01563 h -1.15625 v -2.01563 z m 0.0156,4 v 7.25003 h 3.0625 q 0.29688,0 0.40625,0.10938 0.125,0.10937 0.125,0.28125 0,0.17187 -0.125,0.28125 -0.10937,0.10937 -0.40625,0.10937 h -6.90625 q -0.26562,0 -0.39062,-0.10937 -0.125,-0.10938 -0.125,-0.28125 0,-0.17188 0.125,-0.28125 0.125,-0.10938 0.39062,-0.10938 h 3.0625 v -6.46878 h -2.26562 q -0.28125,0 -0.40625,-0.10937 -0.125,-0.10938 -0.125,-0.28125 0,-0.17188 0.125,-0.28125 0.125,-0.10938 0.40625,-0.10938 z m 9.38623,0 h 4.23438 q 0.28125,0 0.39062,0.10938 0.125,0.10937 0.125,0.28125 0,0.17187 -0.125,0.28125 -0.10937,0.10937 -0.39062,0.10937 h -4.23438 v 5.18753 q 0,0.6875 0.54688,1.14063 0.54687,0.45312 1.59375,0.45312 0.78125,0 1.70312,-0.23437 0.92188,-0.25 1.4375,-0.54688 0.1875,-0.10937 0.29688,-0.10937 0.15625,0 0.26562,0.125 0.10938,0.10937 0.10938,0.26562 0,0.14063 -0.125,0.25 -0.29688,0.3125 -1.4375,0.67188 -1.14063,0.35937 -2.1875,0.35937 -1.375,0 -2.1875,-0.64062 -0.79688,-0.64063 -0.79688,-1.73438 v -5.18753 h -1.4375 q -0.28125,0 -0.40625,-0.10937 -0.10937,-0.10938 -0.10937,-0.28125 0,-0.17188 0.10937,-0.28125 0.125,-0.10938 0.40625,-0.10938 h 1.4375 v -2.29687 q 0,-0.28125 0.10938,-0.40625 0.10937,-0.125 0.28125,-0.125 0.17187,0 0.28125,0.125 0.10937,0.125 0.10937,0.40625 z m 27.99121,1.25 v 1.92191 q 0,2.51562 -1.20312,3.98437 -0.9375,1.15625 -2.35938,1.15625 -0.6875,0 -1.29687,-0.28125 -0.60938,-0.26562 -1.03125,-0.76562 -0.26563,-0.29688 -0.59375,-0.96875 -0.3125,-0.6875 -0.45313,-1.25 -0.21875,-0.79688 -0.21875,-1.875 v -1.92191 q 0,-2.53125 1.20313,-3.98437 0.9375,-1.15625 2.35937,-1.15625 0.70313,0 1.29688,0.28125 0.60937,0.26562 1.03125,0.76562 0.28125,0.3125 0.59375,0.98438 0.3125,0.67187 0.46875,1.23437 0.20312,0.79688 0.20312,1.875 z m -0.78125,0.0937 q 0,-1.09375 -0.3125,-2.04687 -0.3125,-0.95313 -0.70312,-1.51563 -0.23438,-0.32812 -0.59375,-0.5625 -0.53125,-0.32812 -1.1875,-0.32812 -1.3125,0 -2.0625,1.34375 -0.73438,1.32812 -0.73438,3.10937 v 1.71878 q 0,1.10938 0.3125,2.0625 0.3125,0.95313 0.70313,1.53125 0.21875,0.3125 0.59375,0.54688 0.53125,0.32812 1.20312,0.32812 1.29688,0 2.03125,-1.34375 0.75,-1.34375 0.75,-3.125 z"
         id="path11"
         inkscape:connector-curvature="0"
         style="fill:#000000;fill-rule:nonzero" />
      <path
         d="m 480,464.1621 v 29.79529"
         id="path13"
         inkscape:connector-curvature="0"
         style="fill:#000000;fill-opacity:0;fill-rule:evenodd" />
      <path
         d="m 480,464.1621 v 17.79529"
         id="path15"
         inkscape:connector-curvature="0"
         style="fill-rule:evenodd;stroke:#1a1a1a;stroke-width:2;stroke-linecap:butt;stroke-linejoin:round" />
      <path
         d="m 476.69653,481.9574 3.30347,9.0762 3.30346,-9.0762 z"
         id="path17"
         inkscape:connector-curvature="0"
         style="fill:#1a1a1a;fill-rule:evenodd;stroke:#1a1a1a;stroke-width:2;stroke-linecap:butt" />
      <path
         d="m 377.3032,186.34448 v 0 c 0,1.12958 -0.91568,2.04529 -2.04526,2.04529 v -2.04529 c 0,0.56479 -0.45785,1.02264 -1.02264,1.02264 -0.56479,0 -1.02265,-0.45785 -1.02265,-1.02264 v 2.04529 H 264.1359 v 0 c -1.12957,0 -2.04528,0.91569 -2.04528,2.04527 v 24.5433 c 0,1.12958 0.91571,2.04528 2.04528,2.04528 1.12955,0 2.04526,-0.9157 2.04526,-2.04528 v -2.04527 h 109.07678 c 1.12958,0 2.04526,-0.91571 2.04526,-2.04527 z m -113.1673,6.13583 c 1.12955,0 2.04526,-0.91569 2.04526,-2.04527 v 0 c 0,-0.56479 -0.45786,-1.02264 -1.02265,-1.02264 -0.56479,0 -1.02261,0.45785 -1.02261,1.02264 z"
         id="path19"
         inkscape:connector-curvature="0"
         style="fill:#e9edee;fill-rule:evenodd" />
      <path
         d="m 264.1359,192.48032 c 1.12955,0 2.04526,-0.9157 2.04526,-2.04527 v 0 c 0,-0.56479 -0.45786,-1.02265 -1.02265,-1.02265 -0.56479,0 -1.02261,0.45786 -1.02261,1.02265 z m 111.12204,-4.09055 c 1.12958,0 2.04526,-0.91571 2.04526,-2.04528 0,-1.12957 -0.91568,-2.04528 -2.04526,-2.04528 -1.12958,0 -2.04529,0.91571 -2.04529,2.04528 0,0.56479 0.45786,1.02264 1.02265,1.02264 0.56478,0 1.02264,-0.45785 1.02264,-1.02264 z"
         id="path21"
         inkscape:connector-curvature="0"
         style="fill:#babdbe;fill-rule:evenodd" />
      <path
         d="m 262.0906,190.43504 c 0,-1.12958 0.91571,-2.04527 2.04529,-2.04527 h 109.07675 v -2.04529 0 c 0,-1.12956 0.91571,-2.04527 2.04529,-2.04527 1.12957,0 2.04525,0.91571 2.04525,2.04527 v 24.54332 c 0,1.12956 -0.91568,2.04527 -2.04525,2.04527 H 266.18115 v 2.04527 c 0,1.12958 -0.91571,2.04528 -2.04526,2.04528 -1.12958,0 -2.04529,-0.9157 -2.04529,-2.04528 z m 111.12204,-2.04527 h 2.04529 c 1.12958,0 2.04526,-0.91571 2.04526,-2.04529 m -2.04526,2.04529 v -2.04529 c 0,0.56479 -0.45786,1.02264 -1.02265,1.02264 -0.56478,0 -1.02264,-0.45785 -1.02264,-1.02264 m -109.07675,6.13583 v -2.04527 0 c 0,-0.56479 0.45782,-1.02264 1.02261,-1.02264 0.56479,0 1.02265,0.45785 1.02265,1.02264 0,1.12958 -0.91571,2.04527 -2.04526,2.04527 -1.12958,0 -2.04529,-0.91569 -2.04529,-2.04527 m 4.09055,0 v 22.49803"
         id="path23"
         inkscape:connector-curvature="0"
         style="fill:#000000;fill-opacity:0;fill-rule:evenodd" />
      <path
         d="m 262.0906,190.43504 c 0,-1.12958 0.91571,-2.04527 2.04529,-2.04527 h 109.07675 v -2.04529 0 c 0,-1.12956 0.91571,-2.04527 2.04529,-2.04527 1.12957,0 2.04525,0.91571 2.04525,2.04527 v 24.54332 c 0,1.12956 -0.91568,2.04527 -2.04525,2.04527 H 266.18115 v 2.04527 c 0,1.12958 -0.91571,2.04528 -2.04526,2.04528 -1.12958,0 -2.04529,-0.9157 -2.04529,-2.04528 z m 111.12204,-2.04527 h 2.04529 c 1.12958,0 2.04526,-0.91571 2.04526,-2.04529 m -2.04526,2.04529 v -2.04529 c 0,0.56479 -0.45786,1.02264 -1.02265,1.02264 -0.56478,0 -1.02264,-0.45785 -1.02264,-1.02264 m -109.07675,6.13583 v -2.04527 0 c 0,-0.56479 0.45782,-1.02264 1.02261,-1.02264 0.56479,0 1.02265,0.45785 1.02265,1.02264 0,1.12958 -0.91571,2.04527 -2.04526,2.04527 -1.12958,0 -2.04529,-0.91569 -2.04529,-2.04527 m 4.09055,0 v 22.49803"
         id="path25"
         inkscape:connector-curvature="0"
         style="fill-rule:evenodd;stroke:#1a1a1a;stroke-width:1;stroke-linecap:butt;stroke-linejoin:round" />
      <path
         d="m 293.72736,199.7558 v 0.65625 q 0.84375,-0.89063 1.6875,-0.89063 0.5,0 0.875,0.26563 0.39062,0.26562 0.65625,0.8125 0.4375,-0.54688 0.875,-0.8125 0.45312,-0.26563 0.90625,-0.26563 0.71875,0 1.14062,0.45313 0.54688,0.59375 0.54688,1.29687 v 4.59375 h 0.5625 q 0.23437,0 0.32812,0.0937 0.10938,0.0781 0.10938,0.23438 0,0.14062 -0.10938,0.23437 -0.0937,0.0937 -0.32812,0.0937 h -1.21875 v -5.1875 q 0,-0.5 -0.3125,-0.82812 -0.29688,-0.32813 -0.6875,-0.32813 -0.35938,0 -0.76563,0.28125 -0.39062,0.26563 -0.90625,1.04688 v 4.35937 h 0.54688 q 0.23437,0 0.32812,0.0937 0.10938,0.0781 0.10938,0.23438 0,0.14062 -0.10938,0.23437 -0.0937,0.0937 -0.32812,0.0937 h -1.20313 v -5.14062 q 0,-0.51563 -0.3125,-0.85938 -0.3125,-0.34375 -0.6875,-0.34375 -0.35937,0 -0.70312,0.23438 -0.46875,0.3125 -1,1.09375 v 4.35937 h 0.5625 q 0.23437,0 0.32812,0.0937 0.10938,0.0781 0.10938,0.23438 0,0.14062 -0.10938,0.23437 -0.0937,0.0937 -0.32812,0.0937 h -1.76563 q -0.23437,0 -0.34375,-0.0937 -0.0937,-0.0937 -0.0937,-0.23437 0,-0.15625 0.0937,-0.23438 0.10938,-0.0937 0.34375,-0.0937 h 0.54688 v -5.45312 h -0.54688 q -0.23437,0 -0.34375,-0.0937 -0.0937,-0.0937 -0.0937,-0.23438 0,-0.14062 0.0937,-0.23437 0.10938,-0.0937 0.34375,-0.0937 z m 14.47656,6.76562 v -0.95312 q -1.42187,1.21875 -3.04687,1.21875 -1.1875,0 -1.85938,-0.59375 -0.65625,-0.60938 -0.65625,-1.48438 0,-0.95312 0.875,-1.65625 0.875,-0.71875 2.5625,-0.71875 0.45313,0 0.98438,0.0625 0.53125,0.0625 1.14062,0.1875 v -1.0625 q 0,-0.54687 -0.5,-0.9375 -0.5,-0.40625 -1.5,-0.40625 -0.76562,0 -2.14062,0.45313 -0.25,0.0781 -0.32813,0.0781 -0.125,0 -0.21875,-0.0937 -0.0781,-0.0937 -0.0781,-0.23437 0,-0.14063 0.0781,-0.21875 0.10938,-0.10938 0.875,-0.3125 1.21875,-0.32813 1.84375,-0.32813 1.25,0 1.9375,0.60938 0.70313,0.60937 0.70313,1.39062 v 4.34375 h 0.875 q 0.23437,0 0.32812,0.0937 0.10938,0.0781 0.10938,0.23438 0,0.14062 -0.10938,0.23437 -0.0937,0.0937 -0.32812,0.0937 z m 0,-3.26562 q -0.45312,-0.14063 -0.96875,-0.20313 -0.51562,-0.0625 -1.09375,-0.0625 -1.42187,0 -2.23437,0.625 -0.60938,0.45313 -0.60938,1.09375 0,0.59375 0.46875,1 0.46875,0.40625 1.35938,0.40625 0.84375,0 1.57812,-0.32812 0.73438,-0.34375 1.5,-1.09375 z m 9.88281,-3.07813 q 0,-0.21875 0.0937,-0.3125 0.0937,-0.10937 0.23438,-0.10937 0.15625,0 0.25,0.10937 0.0937,0.0937 0.0937,0.32813 v 1.125 q 0,0.23437 -0.0937,0.34375 -0.0937,0.0937 -0.25,0.0937 -0.125,0 -0.21875,-0.0781 -0.0937,-0.0937 -0.10938,-0.28125 -0.0469,-0.46875 -0.48437,-0.78125 -0.64063,-0.4375 -1.6875,-0.4375 -1.10938,0 -1.71875,0.45313 -0.45313,0.32812 -0.45313,0.75 0,0.46875 0.54688,0.78125 0.375,0.21875 1.42187,0.32812 1.35938,0.15625 1.89063,0.34375 0.76562,0.26563 1.125,0.75 0.375,0.48438 0.375,1.04688 0,0.84375 -0.8125,1.5 -0.79688,0.65625 -2.34375,0.65625 -1.5625,0 -2.54688,-0.79688 0,0.26563 -0.0312,0.34375 -0.0312,0.0781 -0.125,0.14063 -0.0781,0.0469 -0.17187,0.0469 -0.14063,0 -0.23438,-0.0937 -0.0937,-0.10937 -0.0937,-0.34375 v -1.35937 q 0,-0.23438 0.0781,-0.32813 0.0937,-0.10937 0.25,-0.10937 0.14062,0 0.23437,0.10937 0.0937,0.0937 0.0937,0.25 0,0.35938 0.1875,0.60938 0.26563,0.375 0.85938,0.625 0.60937,0.23437 1.46875,0.23437 1.28125,0 1.90625,-0.46875 0.625,-0.48437 0.625,-1.01562 0,-0.60938 -0.625,-0.96875 -0.64063,-0.375 -1.875,-0.5 -1.21875,-0.125 -1.75,-0.32813 -0.53125,-0.20312 -0.82813,-0.60937 -0.29687,-0.40625 -0.29687,-0.875 0,-0.84375 0.82812,-1.32813 0.82813,-0.5 1.98438,-0.5 1.35937,0 2.20312,0.65625 z m 6.08594,-0.42187 h 3.5625 q 0.23438,0 0.32813,0.0937 0.10937,0.0937 0.10937,0.23437 0,0.14063 -0.10937,0.23438 -0.0937,0.0937 -0.32813,0.0937 h -3.5625 v 4.375 q 0,0.5625 0.45313,0.95312 0.46875,0.375 1.34375,0.375 0.67187,0 1.4375,-0.1875 0.78125,-0.20312 1.20312,-0.45312 0.15625,-0.10938 0.26563,-0.10938 0.125,0 0.21875,0.10938 0.0937,0.0937 0.0937,0.21875 0,0.125 -0.10938,0.21875 -0.25,0.26562 -1.21875,0.57812 -0.95312,0.29688 -1.84375,0.29688 -1.14062,0 -1.82812,-0.54688 -0.67188,-0.54687 -0.67188,-1.45312 v -4.375 h -1.21875 q -0.23437,0 -0.34375,-0.0937 -0.0937,-0.0937 -0.0937,-0.23438 0,-0.14062 0.0937,-0.23437 0.10938,-0.0937 0.34375,-0.0937 h 1.21875 v -1.9375 q 0,-0.23438 0.0937,-0.32813 0.0937,-0.10937 0.23438,-0.10937 0.14062,0 0.23437,0.10937 0.0937,0.0937 0.0937,0.32813 z m 14.50781,3.53125 h -6.6875 q 0.17188,1.28125 1.0625,2.0625 0.89063,0.76562 2.21875,0.76562 0.73438,0 1.53125,-0.23437 0.8125,-0.25 1.3125,-0.64063 0.15625,-0.125 0.26563,-0.125 0.125,0 0.21875,0.10938 0.0937,0.0937 0.0937,0.21875 0,0.14062 -0.125,0.26562 -0.375,0.39063 -1.34375,0.73438 -0.95313,0.34375 -1.95313,0.34375 -1.6875,0 -2.82812,-1.10938 -1.125,-1.10937 -1.125,-2.6875 0,-1.42187 1.0625,-2.4375 1.0625,-1.03125 2.625,-1.03125 1.60937,0 2.64062,1.04688 1.04688,1.04687 1.03125,2.71875 z m -0.67187,-0.65625 q -0.1875,-1.09375 -1.03125,-1.76563 -0.82813,-0.6875 -1.96875,-0.6875 -1.15625,0 -1.98438,0.67188 -0.82812,0.67187 -1.03125,1.78125 z m 5.92969,-2.875 v 1.65625 q 1.28125,-1.15625 1.92187,-1.48438 0.64063,-0.34375 1.17188,-0.34375 0.59375,0 1.09375,0.40625 0.5,0.39063 0.5,0.59375 0,0.14063 -0.0937,0.25 -0.0937,0.0937 -0.25,0.0937 -0.0781,0 -0.14063,-0.0312 -0.0469,-0.0312 -0.1875,-0.17187 -0.28125,-0.28125 -0.48437,-0.375 -0.20313,-0.10938 -0.39063,-0.10938 -0.4375,0 -1.04687,0.34375 -0.59375,0.34375 -2.09375,1.6875 v 3.59375 h 2.90625 q 0.25,0 0.34375,0.0937 0.10937,0.0781 0.10937,0.23438 0,0.14062 -0.10937,0.23437 -0.0937,0.0937 -0.34375,0.0937 h -5.14063 q -0.23437,0 -0.34375,-0.0937 -0.0937,-0.0937 -0.0937,-0.23437 0,-0.125 0.0937,-0.21875 0.0937,-0.0937 0.34375,-0.0937 h 1.57813 v -5.46875 h -1.20313 q -0.23437,0 -0.34375,-0.0937 -0.0937,-0.0937 -0.0937,-0.23438 0,-0.14062 0.0937,-0.23437 0.0937,-0.0937 0.34375,-0.0937 z"
         id="path27"
         inkscape:connector-curvature="0"
         style="fill:#0000ff;fill-rule:nonzero" />
      <path
         d="m 417.6063,431.4377 h 124.78738 v 32.7244 H 417.6063 Z"
         id="path29"
         inkscape:connector-curvature="0"
         style="fill:#000000;fill-opacity:0;fill-rule:evenodd" />
      <path
         d="m 417.6063,431.4377 h 124.78738 v 32.7244 H 417.6063 Z"
         id="path31"
         inkscape:connector-curvature="0"
         style="fill-rule:evenodd;stroke:#000000;stroke-width:2;stroke-linecap:butt;stroke-linejoin:round" />
      <path
         d="m 443.3457,447.4699 v -0.25 q 0,-0.29688 0.10938,-0.40625 0.10937,-0.125 0.28125,-0.125 0.17187,0 0.28125,0.125 0.10937,0.10937 0.10937,0.40625 v 1.75 q 0,0.29687 -0.10937,0.42187 -0.10938,0.10938 -0.28125,0.10938 -0.15625,0 -0.26563,-0.0937 -0.10937,-0.10938 -0.125,-0.35938 -0.0625,-0.67187 -0.875,-1.26562 -0.79687,-0.59375 -2.17187,-0.59375 -1.73438,0 -2.64063,1.09375 -0.90625,1.07812 -0.90625,2.48437 0,1.51563 0.98438,2.5 1,0.98438 2.57812,0.98438 0.92188,0 1.85938,-0.32813 0.9375,-0.34375 1.70312,-1.09375 0.1875,-0.17187 0.34375,-0.17187 0.15625,0 0.26563,0.10937 0.10937,0.0937 0.10937,0.25 0,0.40625 -0.9375,1.01563 -1.51562,1 -3.375,1 -1.875,0 -3.09375,-1.20313 -1.20312,-1.20312 -1.20312,-3.04687 0,-1.89063 1.23437,-3.125 1.23438,-1.25 3.125,-1.25 1.78125,0 3,1.0625 z m 12.51123,3.25 q 0,1.78125 -1.28125,3.04687 -1.28125,1.26563 -3.07812,1.26563 -1.8125,0 -3.09375,-1.26563 -1.26563,-1.28125 -1.26563,-3.04687 0,-1.78125 1.26563,-3.04688 1.28125,-1.26562 3.09375,-1.26562 1.79687,0 3.07812,1.26562 1.28125,1.25 1.28125,3.04688 z m -0.79687,0 q 0,-1.46875 -1.04688,-2.5 -1.03125,-1.03125 -2.51562,-1.03125 -1.48438,0 -2.53125,1.04687 -1.04688,1.03125 -1.04688,2.48438 0,1.45312 1.04688,2.5 1.04687,1.03125 2.53125,1.03125 1.48437,0 2.51562,-1.03125 1.04688,-1.04688 1.04688,-2.5 z m 4.29248,-4.03125 v 0.78125 q 0.98437,-1.0625 1.98437,-1.0625 0.60938,0 1.0625,0.32812 0.45313,0.3125 0.76563,0.96875 0.51562,-0.65625 1.04687,-0.96875 0.53125,-0.32812 1.07813,-0.32812 0.84375,0 1.34375,0.54687 0.65625,0.70313 0.65625,1.54688 v 5.4375 h 0.65625 q 0.28125,0 0.39062,0.10937 0.125,0.10938 0.125,0.28125 0,0.17188 -0.125,0.28125 -0.10937,0.10938 -0.39062,0.10938 h -1.4375 v -6.15625 q 0,-0.59375 -0.35938,-0.98438 -0.35937,-0.39062 -0.82812,-0.39062 -0.4375,0 -0.90625,0.32812 -0.46875,0.3125 -1.07813,1.25 v 5.17188 h 0.65625 q 0.26563,0 0.39063,0.10937 0.125,0.10938 0.125,0.28125 0,0.17188 -0.125,0.28125 -0.125,0.10938 -0.39063,0.10938 h -1.4375 v -6.09375 q 0,-0.625 -0.375,-1.03125 -0.35937,-0.40625 -0.8125,-0.40625 -0.42187,0 -0.82812,0.28125 -0.5625,0.375 -1.1875,1.29687 v 5.17188 h 0.65625 q 0.28125,0 0.39062,0.10937 0.125,0.10938 0.125,0.28125 0,0.17188 -0.125,0.28125 -0.10937,0.10938 -0.39062,0.10938 h -2.09375 q -0.28125,0 -0.40625,-0.10938 -0.125,-0.10937 -0.125,-0.28125 0,-0.17187 0.125,-0.28125 0.125,-0.10937 0.40625,-0.10937 h 0.65625 v -6.46875 h -0.65625 q -0.28125,0 -0.40625,-0.10938 -0.125,-0.10937 -0.125,-0.28125 0,-0.17187 0.125,-0.28125 0.125,-0.10937 0.40625,-0.10937 z m 11.40185,0 v 0.78125 q 0.98438,-1.0625 1.98438,-1.0625 0.60937,0 1.0625,0.32812 0.45312,0.3125 0.76562,0.96875 0.51563,-0.65625 1.04688,-0.96875 0.53125,-0.32812 1.07812,-0.32812 0.84375,0 1.34375,0.54687 0.65625,0.70313 0.65625,1.54688 v 5.4375 h 0.65625 q 0.28125,0 0.39063,0.10937 0.125,0.10938 0.125,0.28125 0,0.17188 -0.125,0.28125 -0.10938,0.10938 -0.39063,0.10938 h -1.4375 v -6.15625 q 0,-0.59375 -0.35937,-0.98438 -0.35938,-0.39062 -0.82813,-0.39062 -0.4375,0 -0.90625,0.32812 -0.46875,0.3125 -1.07812,1.25 v 5.17188 h 0.65625 q 0.26562,0 0.39062,0.10937 0.125,0.10938 0.125,0.28125 0,0.17188 -0.125,0.28125 -0.125,0.10938 -0.39062,0.10938 h -1.4375 v -6.09375 q 0,-0.625 -0.375,-1.03125 -0.35938,-0.40625 -0.8125,-0.40625 -0.42188,0 -0.82813,0.28125 -0.5625,0.375 -1.1875,1.29687 v 5.17188 h 0.65625 q 0.28125,0 0.39063,0.10937 0.125,0.10938 0.125,0.28125 0,0.17188 -0.125,0.28125 -0.10938,0.10938 -0.39063,0.10938 h -2.09375 q -0.28125,0 -0.40625,-0.10938 -0.125,-0.10937 -0.125,-0.28125 0,-0.17187 0.125,-0.28125 0.125,-0.10937 0.40625,-0.10937 h 0.65625 v -6.46875 h -0.65625 q -0.28125,0 -0.40625,-0.10938 -0.125,-0.10937 -0.125,-0.28125 0,-0.17187 0.125,-0.28125 0.125,-0.10937 0.40625,-0.10937 z m 15.33936,-4 v 2.01562 h -1.15625 v -2.01562 z m 0.0156,4 v 7.25 h 3.0625 q 0.29688,0 0.40625,0.10937 0.125,0.10938 0.125,0.28125 0,0.17188 -0.125,0.28125 -0.10937,0.10938 -0.40625,0.10938 h -6.90625 q -0.26562,0 -0.39062,-0.10938 -0.125,-0.10937 -0.125,-0.28125 0,-0.17187 0.125,-0.28125 0.125,-0.10937 0.39062,-0.10937 h 3.0625 v -6.46875 h -2.26562 q -0.28125,0 -0.40625,-0.10938 -0.125,-0.10937 -0.125,-0.28125 0,-0.17187 0.125,-0.28125 0.125,-0.10937 0.40625,-0.10937 z m 9.38623,0 h 4.23438 q 0.28125,0 0.39062,0.10937 0.125,0.10938 0.125,0.28125 0,0.17188 -0.125,0.28125 -0.10937,0.10938 -0.39062,0.10938 h -4.23438 v 5.1875 q 0,0.6875 0.54688,1.14062 0.54687,0.45313 1.59375,0.45313 0.78125,0 1.70312,-0.23438 0.92188,-0.25 1.4375,-0.54687 0.1875,-0.10938 0.29688,-0.10938 0.15625,0 0.26562,0.125 0.10938,0.10938 0.10938,0.26563 0,0.14062 -0.125,0.25 -0.29688,0.3125 -1.4375,0.67187 -1.14063,0.35938 -2.1875,0.35938 -1.375,0 -2.1875,-0.64063 -0.79688,-0.64062 -0.79688,-1.73437 v -5.1875 h -1.4375 q -0.28125,0 -0.40625,-0.10938 -0.10937,-0.10937 -0.10937,-0.28125 0,-0.17187 0.10937,-0.28125 0.125,-0.10937 0.40625,-0.10937 h 1.4375 v -2.29688 q 0,-0.28125 0.10938,-0.40625 0.10937,-0.125 0.28125,-0.125 0.17187,0 0.28125,0.125 0.10937,0.125 0.10937,0.40625 z m 24.80371,-3.76563 v 11.01563 h 2.67188 q 0.26562,0 0.39062,0.10937 0.125,0.10938 0.125,0.28125 0,0.17188 -0.125,0.28125 -0.125,0.10938 -0.39062,0.10938 h -6.125 q -0.28125,0 -0.40625,-0.10938 -0.125,-0.10937 -0.125,-0.28125 0,-0.17187 0.125,-0.28125 0.125,-0.10937 0.40625,-0.10937 h 2.67187 v -9.9375 l -2.54687,0.79687 q -0.1875,0.0469 -0.26563,0.0469 -0.14062,0 -0.26562,-0.10938 -0.10938,-0.125 -0.10938,-0.28125 0,-0.14062 0.0937,-0.25 0.0781,-0.0781 0.3125,-0.15625 z"
         id="path33"
         inkscape:connector-curvature="0"
         style="fill:#000000;fill-rule:nonzero" />
      <path
         d="m 480,401.14722 v 29.79529"
         id="path35"
         inkscape:connector-curvature="0"
         style="fill:#000000;fill-opacity:0;fill-rule:evenodd" />
      <path
         d="m 480,401.14722 v 17.79529"
         id="path37"
         inkscape:connector-curvature="0"
         style="fill-rule:evenodd;stroke:#1a1a1a;stroke-width:2;stroke-linecap:butt;stroke-linejoin:round" />
      <path
         d="m 476.69653,418.9425 3.30347,9.0762 3.30346,-9.0762 z"
         id="path39"
         inkscape:connector-curvature="0"
         style="fill:#1a1a1a;fill-rule:evenodd;stroke:#1a1a1a;stroke-width:2;stroke-linecap:butt" />
      <path
         d="m 417.6063,368.42282 h 124.78738 v 32.7244 H 417.6063 Z"
         id="path41"
         inkscape:connector-curvature="0"
         style="fill:#000000;fill-opacity:0;fill-rule:evenodd" />
      <path
         d="m 417.6063,368.42282 h 124.78738 v 32.7244 H 417.6063 Z"
         id="path43"
         inkscape:connector-curvature="0"
         style="fill-rule:evenodd;stroke:#000000;stroke-width:2;stroke-linecap:butt;stroke-linejoin:round" />
      <path
         d="m 443.3457,384.45502 v -0.25 q 0,-0.29688 0.10938,-0.40625 0.10937,-0.125 0.28125,-0.125 0.17187,0 0.28125,0.125 0.10937,0.10937 0.10937,0.40625 v 1.75 q 0,0.29687 -0.10937,0.42187 -0.10938,0.10938 -0.28125,0.10938 -0.15625,0 -0.26563,-0.0937 -0.10937,-0.10938 -0.125,-0.35938 -0.0625,-0.67187 -0.875,-1.26562 -0.79687,-0.59375 -2.17187,-0.59375 -1.73438,0 -2.64063,1.09375 -0.90625,1.07812 -0.90625,2.48437 0,1.51563 0.98438,2.5 1,0.98438 2.57812,0.98438 0.92188,0 1.85938,-0.32813 0.9375,-0.34375 1.70312,-1.09375 0.1875,-0.17187 0.34375,-0.17187 0.15625,0 0.26563,0.10937 0.10937,0.0937 0.10937,0.25 0,0.40625 -0.9375,1.01563 -1.51562,1 -3.375,1 -1.875,0 -3.09375,-1.20313 -1.20312,-1.20312 -1.20312,-3.04687 0,-1.89063 1.23437,-3.125 1.23438,-1.25 3.125,-1.25 1.78125,0 3,1.0625 z m 12.51123,3.25 q 0,1.78125 -1.28125,3.04687 -1.28125,1.26563 -3.07812,1.26563 -1.8125,0 -3.09375,-1.26563 -1.26563,-1.28125 -1.26563,-3.04687 0,-1.78125 1.26563,-3.04688 1.28125,-1.26562 3.09375,-1.26562 1.79687,0 3.07812,1.26562 1.28125,1.25 1.28125,3.04688 z m -0.79687,0 q 0,-1.46875 -1.04688,-2.5 -1.03125,-1.03125 -2.51562,-1.03125 -1.48438,0 -2.53125,1.04687 -1.04688,1.03125 -1.04688,2.48438 0,1.45312 1.04688,2.5 1.04687,1.03125 2.53125,1.03125 1.48437,0 2.51562,-1.03125 1.04688,-1.04688 1.04688,-2.5 z m 4.29248,-4.03125 v 0.78125 q 0.98437,-1.0625 1.98437,-1.0625 0.60938,0 1.0625,0.32812 0.45313,0.3125 0.76563,0.96875 0.51562,-0.65625 1.04687,-0.96875 0.53125,-0.32812 1.07813,-0.32812 0.84375,0 1.34375,0.54687 0.65625,0.70313 0.65625,1.54688 v 5.4375 h 0.65625 q 0.28125,0 0.39062,0.10937 0.125,0.10938 0.125,0.28125 0,0.17188 -0.125,0.28125 -0.10937,0.10938 -0.39062,0.10938 h -1.4375 v -6.15625 q 0,-0.59375 -0.35938,-0.98438 -0.35937,-0.39062 -0.82812,-0.39062 -0.4375,0 -0.90625,0.32812 -0.46875,0.3125 -1.07813,1.25 v 5.17188 h 0.65625 q 0.26563,0 0.39063,0.10937 0.125,0.10938 0.125,0.28125 0,0.17188 -0.125,0.28125 -0.125,0.10938 -0.39063,0.10938 h -1.4375 v -6.09375 q 0,-0.625 -0.375,-1.03125 -0.35937,-0.40625 -0.8125,-0.40625 -0.42187,0 -0.82812,0.28125 -0.5625,0.375 -1.1875,1.29687 v 5.17188 h 0.65625 q 0.28125,0 0.39062,0.10937 0.125,0.10938 0.125,0.28125 0,0.17188 -0.125,0.28125 -0.10937,0.10938 -0.39062,0.10938 h -2.09375 q -0.28125,0 -0.40625,-0.10938 -0.125,-0.10937 -0.125,-0.28125 0,-0.17187 0.125,-0.28125 0.125,-0.10937 0.40625,-0.10937 h 0.65625 v -6.46875 h -0.65625 q -0.28125,0 -0.40625,-0.10938 -0.125,-0.10937 -0.125,-0.28125 0,-0.17187 0.125,-0.28125 0.125,-0.10937 0.40625,-0.10937 z m 11.40185,0 v 0.78125 q 0.98438,-1.0625 1.98438,-1.0625 0.60937,0 1.0625,0.32812 0.45312,0.3125 0.76562,0.96875 0.51563,-0.65625 1.04688,-0.96875 0.53125,-0.32812 1.07812,-0.32812 0.84375,0 1.34375,0.54687 0.65625,0.70313 0.65625,1.54688 v 5.4375 h 0.65625 q 0.28125,0 0.39063,0.10937 0.125,0.10938 0.125,0.28125 0,0.17188 -0.125,0.28125 -0.10938,0.10938 -0.39063,0.10938 h -1.4375 v -6.15625 q 0,-0.59375 -0.35937,-0.98438 -0.35938,-0.39062 -0.82813,-0.39062 -0.4375,0 -0.90625,0.32812 -0.46875,0.3125 -1.07812,1.25 v 5.17188 h 0.65625 q 0.26562,0 0.39062,0.10937 0.125,0.10938 0.125,0.28125 0,0.17188 -0.125,0.28125 -0.125,0.10938 -0.39062,0.10938 h -1.4375 v -6.09375 q 0,-0.625 -0.375,-1.03125 -0.35938,-0.40625 -0.8125,-0.40625 -0.42188,0 -0.82813,0.28125 -0.5625,0.375 -1.1875,1.29687 v 5.17188 h 0.65625 q 0.28125,0 0.39063,0.10937 0.125,0.10938 0.125,0.28125 0,0.17188 -0.125,0.28125 -0.10938,0.10938 -0.39063,0.10938 h -2.09375 q -0.28125,0 -0.40625,-0.10938 -0.125,-0.10937 -0.125,-0.28125 0,-0.17187 0.125,-0.28125 0.125,-0.10937 0.40625,-0.10937 h 0.65625 v -6.46875 h -0.65625 q -0.28125,0 -0.40625,-0.10938 -0.125,-0.10937 -0.125,-0.28125 0,-0.17187 0.125,-0.28125 0.125,-0.10937 0.40625,-0.10937 z m 15.33936,-4 v 2.01562 h -1.15625 v -2.01562 z m 0.0156,4 v 7.25 h 3.0625 q 0.29688,0 0.40625,0.10937 0.125,0.10938 0.125,0.28125 0,0.17188 -0.125,0.28125 -0.10937,0.10938 -0.40625,0.10938 h -6.90625 q -0.26562,0 -0.39062,-0.10938 -0.125,-0.10937 -0.125,-0.28125 0,-0.17187 0.125,-0.28125 0.125,-0.10937 0.39062,-0.10937 h 3.0625 v -6.46875 h -2.26562 q -0.28125,0 -0.40625,-0.10938 -0.125,-0.10937 -0.125,-0.28125 0,-0.17187 0.125,-0.28125 0.125,-0.10937 0.40625,-0.10937 z m 9.38623,0 h 4.23438 q 0.28125,0 0.39062,0.10937 0.125,0.10938 0.125,0.28125 0,0.17188 -0.125,0.28125 -0.10937,0.10938 -0.39062,0.10938 h -4.23438 v 5.1875 q 0,0.6875 0.54688,1.14062 0.54687,0.45313 1.59375,0.45313 0.78125,0 1.70312,-0.23438 0.92188,-0.25 1.4375,-0.54687 0.1875,-0.10938 0.29688,-0.10938 0.15625,0 0.26562,0.125 0.10938,0.10938 0.10938,0.26563 0,0.14062 -0.125,0.25 -0.29688,0.3125 -1.4375,0.67187 -1.14063,0.35938 -2.1875,0.35938 -1.375,0 -2.1875,-0.64063 -0.79688,-0.64062 -0.79688,-1.73437 v -5.1875 h -1.4375 q -0.28125,0 -0.40625,-0.10938 -0.10937,-0.10937 -0.10937,-0.28125 0,-0.17187 0.10937,-0.28125 0.125,-0.10937 0.40625,-0.10937 h 1.4375 v -2.29688 q 0,-0.28125 0.10938,-0.40625 0.10937,-0.125 0.28125,-0.125 0.17187,0 0.28125,0.125 0.10937,0.125 0.10937,0.40625 z m 21.05371,7.25 h 5.98438 v -0.29688 q 0,-0.28125 0.10937,-0.40625 0.10938,-0.125 0.29688,-0.125 0.15625,0 0.26562,0.125 0.125,0.125 0.125,0.40625 v 1.07813 h -7.53125 v -1.15625 q 2.375,-2.125 4.60938,-4.34375 1.04687,-1.01563 1.4375,-1.5 0.39062,-0.48438 0.53125,-0.84375 0.15625,-0.375 0.15625,-0.75 0,-1 -0.8125,-1.76563 -0.8125,-0.78125 -1.95313,-0.78125 -1.01562,0 -1.8125,0.59375 -0.78125,0.57813 -1.01562,1.45313 -0.0469,0.21875 -0.14063,0.28125 -0.10937,0.0937 -0.25,0.0937 -0.15625,0 -0.26562,-0.10938 -0.10938,-0.10937 -0.10938,-0.25 0,-0.45312 0.48438,-1.20312 0.48437,-0.76563 1.34375,-1.20313 0.85937,-0.4375 1.76562,-0.4375 1.45313,0 2.5,1.01563 1.04688,1 1.04688,2.28125 0,0.54687 -0.17188,1 -0.17187,0.4375 -0.60937,0.98437 -0.42188,0.53125 -1.51563,1.60938 -2.73437,2.70312 -4.46875,4.20312 z"
         id="path45"
         inkscape:connector-curvature="0"
         style="fill:#000000;fill-rule:nonzero" />
      <path
         d="m 417.6063,309.83728 h 124.78738 v 32.7244 H 417.6063 Z"
         id="path47"
         inkscape:connector-curvature="0"
         style="fill:#000000;fill-opacity:0;fill-rule:evenodd" />
      <path
         d="m 417.6063,309.83728 h 124.78738 v 32.7244 H 417.6063 Z"
         id="path49"
         inkscape:connector-curvature="0"
         style="fill-rule:evenodd;stroke:#000000;stroke-width:2;stroke-linecap:butt;stroke-linejoin:round" />
      <path
         d="m 443.3457,325.86948 v -0.25 q 0,-0.29688 0.10938,-0.40625 0.10937,-0.125 0.28125,-0.125 0.17187,0 0.28125,0.125 0.10937,0.10937 0.10937,0.40625 v 1.75 q 0,0.29687 -0.10937,0.42187 -0.10938,0.10938 -0.28125,0.10938 -0.15625,0 -0.26563,-0.0937 -0.10937,-0.10938 -0.125,-0.35938 -0.0625,-0.67187 -0.875,-1.26562 -0.79687,-0.59375 -2.17187,-0.59375 -1.73438,0 -2.64063,1.09375 -0.90625,1.07812 -0.90625,2.48437 0,1.51563 0.98438,2.5 1,0.98438 2.57812,0.98438 0.92188,0 1.85938,-0.32813 0.9375,-0.34375 1.70312,-1.09375 0.1875,-0.17187 0.34375,-0.17187 0.15625,0 0.26563,0.10937 0.10937,0.0937 0.10937,0.25 0,0.40625 -0.9375,1.01563 -1.51562,1 -3.375,1 -1.875,0 -3.09375,-1.20313 -1.20312,-1.20312 -1.20312,-3.04687 0,-1.89063 1.23437,-3.125 1.23438,-1.25 3.125,-1.25 1.78125,0 3,1.0625 z m 12.51123,3.25 q 0,1.78125 -1.28125,3.04687 -1.28125,1.26563 -3.07812,1.26563 -1.8125,0 -3.09375,-1.26563 -1.26563,-1.28125 -1.26563,-3.04687 0,-1.78125 1.26563,-3.04688 1.28125,-1.26562 3.09375,-1.26562 1.79687,0 3.07812,1.26562 1.28125,1.25 1.28125,3.04688 z m -0.79687,0 q 0,-1.46875 -1.04688,-2.5 -1.03125,-1.03125 -2.51562,-1.03125 -1.48438,0 -2.53125,1.04687 -1.04688,1.03125 -1.04688,2.48438 0,1.45312 1.04688,2.5 1.04687,1.03125 2.53125,1.03125 1.48437,0 2.51562,-1.03125 1.04688,-1.04688 1.04688,-2.5 z m 4.29248,-4.03125 v 0.78125 q 0.98437,-1.0625 1.98437,-1.0625 0.60938,0 1.0625,0.32812 0.45313,0.3125 0.76563,0.96875 0.51562,-0.65625 1.04687,-0.96875 0.53125,-0.32812 1.07813,-0.32812 0.84375,0 1.34375,0.54687 0.65625,0.70313 0.65625,1.54688 v 5.4375 h 0.65625 q 0.28125,0 0.39062,0.10937 0.125,0.10938 0.125,0.28125 0,0.17188 -0.125,0.28125 -0.10937,0.10938 -0.39062,0.10938 h -1.4375 v -6.15625 q 0,-0.59375 -0.35938,-0.98438 -0.35937,-0.39062 -0.82812,-0.39062 -0.4375,0 -0.90625,0.32812 -0.46875,0.3125 -1.07813,1.25 v 5.17188 h 0.65625 q 0.26563,0 0.39063,0.10937 0.125,0.10938 0.125,0.28125 0,0.17188 -0.125,0.28125 -0.125,0.10938 -0.39063,0.10938 h -1.4375 v -6.09375 q 0,-0.625 -0.375,-1.03125 -0.35937,-0.40625 -0.8125,-0.40625 -0.42187,0 -0.82812,0.28125 -0.5625,0.375 -1.1875,1.29687 v 5.17188 h 0.65625 q 0.28125,0 0.39062,0.10937 0.125,0.10938 0.125,0.28125 0,0.17188 -0.125,0.28125 -0.10937,0.10938 -0.39062,0.10938 h -2.09375 q -0.28125,0 -0.40625,-0.10938 -0.125,-0.10937 -0.125,-0.28125 0,-0.17187 0.125,-0.28125 0.125,-0.10937 0.40625,-0.10937 h 0.65625 v -6.46875 h -0.65625 q -0.28125,0 -0.40625,-0.10938 -0.125,-0.10937 -0.125,-0.28125 0,-0.17187 0.125,-0.28125 0.125,-0.10937 0.40625,-0.10937 z m 11.40185,0 v 0.78125 q 0.98438,-1.0625 1.98438,-1.0625 0.60937,0 1.0625,0.32812 0.45312,0.3125 0.76562,0.96875 0.51563,-0.65625 1.04688,-0.96875 0.53125,-0.32812 1.07812,-0.32812 0.84375,0 1.34375,0.54687 0.65625,0.70313 0.65625,1.54688 v 5.4375 h 0.65625 q 0.28125,0 0.39063,0.10937 0.125,0.10938 0.125,0.28125 0,0.17188 -0.125,0.28125 -0.10938,0.10938 -0.39063,0.10938 h -1.4375 v -6.15625 q 0,-0.59375 -0.35937,-0.98438 -0.35938,-0.39062 -0.82813,-0.39062 -0.4375,0 -0.90625,0.32812 -0.46875,0.3125 -1.07812,1.25 v 5.17188 h 0.65625 q 0.26562,0 0.39062,0.10937 0.125,0.10938 0.125,0.28125 0,0.17188 -0.125,0.28125 -0.125,0.10938 -0.39062,0.10938 h -1.4375 v -6.09375 q 0,-0.625 -0.375,-1.03125 -0.35938,-0.40625 -0.8125,-0.40625 -0.42188,0 -0.82813,0.28125 -0.5625,0.375 -1.1875,1.29687 v 5.17188 h 0.65625 q 0.28125,0 0.39063,0.10937 0.125,0.10938 0.125,0.28125 0,0.17188 -0.125,0.28125 -0.10938,0.10938 -0.39063,0.10938 h -2.09375 q -0.28125,0 -0.40625,-0.10938 -0.125,-0.10937 -0.125,-0.28125 0,-0.17187 0.125,-0.28125 0.125,-0.10937 0.40625,-0.10937 h 0.65625 v -6.46875 h -0.65625 q -0.28125,0 -0.40625,-0.10938 -0.125,-0.10937 -0.125,-0.28125 0,-0.17187 0.125,-0.28125 0.125,-0.10937 0.40625,-0.10937 z m 15.33936,-4 v 2.01562 h -1.15625 v -2.01562 z m 0.0156,4 v 7.25 h 3.0625 q 0.29688,0 0.40625,0.10937 0.125,0.10938 0.125,0.28125 0,0.17188 -0.125,0.28125 -0.10937,0.10938 -0.40625,0.10938 h -6.90625 q -0.26562,0 -0.39062,-0.10938 -0.125,-0.10937 -0.125,-0.28125 0,-0.17187 0.125,-0.28125 0.125,-0.10937 0.39062,-0.10937 h 3.0625 v -6.46875 h -2.26562 q -0.28125,0 -0.40625,-0.10938 -0.125,-0.10937 -0.125,-0.28125 0,-0.17187 0.125,-0.28125 0.125,-0.10937 0.40625,-0.10937 z m 9.38623,0 h 4.23438 q 0.28125,0 0.39062,0.10937 0.125,0.10938 0.125,0.28125 0,0.17188 -0.125,0.28125 -0.10937,0.10938 -0.39062,0.10938 h -4.23438 v 5.1875 q 0,0.6875 0.54688,1.14062 0.54687,0.45313 1.59375,0.45313 0.78125,0 1.70312,-0.23438 0.92188,-0.25 1.4375,-0.54687 0.1875,-0.10938 0.29688,-0.10938 0.15625,0 0.26562,0.125 0.10938,0.10938 0.10938,0.26563 0,0.14062 -0.125,0.25 -0.29688,0.3125 -1.4375,0.67187 -1.14063,0.35938 -2.1875,0.35938 -1.375,0 -2.1875,-0.64063 -0.79688,-0.64062 -0.79688,-1.73437 v -5.1875 h -1.4375 q -0.28125,0 -0.40625,-0.10938 -0.10937,-0.10937 -0.10937,-0.28125 0,-0.17187 0.10937,-0.28125 0.125,-0.10937 0.40625,-0.10937 h 1.4375 v -2.29688 q 0,-0.28125 0.10938,-0.40625 0.10937,-0.125 0.28125,-0.125 0.17187,0 0.28125,0.125 0.10937,0.125 0.10937,0.40625 z m 26.00684,1.6875 q 1.07812,0.48437 1.64062,1.32812 0.57813,0.84375 0.57813,1.75 0,1.40625 -1.14063,2.48438 -1.14062,1.0625 -2.84375,1.0625 -1,0 -2.07812,-0.42188 -1.07813,-0.4375 -1.5,-0.875 -0.14063,-0.15625 -0.14063,-0.32812 0,-0.14063 0.0937,-0.25 0.10938,-0.10938 0.26563,-0.10938 0.14062,0 0.32812,0.14063 1.4375,1.0625 3.04688,1.0625 1.35937,0 2.26562,-0.84375 0.92188,-0.85938 0.92188,-1.89063 0,-0.70312 -0.45313,-1.35937 -0.45312,-0.67188 -1.29687,-1.0625 -0.84375,-0.39063 -1.70313,-0.39063 -0.28125,0 -0.40625,-0.0937 -0.10937,-0.10937 -0.10937,-0.28125 0,-0.17187 0.10937,-0.28125 0.10938,-0.10937 0.34375,-0.10937 h 0.67188 q 1.04687,0 1.71875,-0.64063 0.6875,-0.64062 0.6875,-1.48437 0,-0.875 -0.71875,-1.53125 -0.70313,-0.67188 -1.85938,-0.67188 -0.79687,0 -1.48437,0.28125 -0.67188,0.28125 -1.07813,0.75 -0.15625,0.1875 -0.23437,0.23438 -0.0781,0.0469 -0.17188,0.0469 -0.15625,0 -0.28125,-0.10937 -0.10937,-0.10938 -0.10937,-0.26563 0,-0.35937 0.8125,-0.9375 1.125,-0.78125 2.54687,-0.78125 1.48438,0 2.42188,0.89063 0.95312,0.875 0.95312,2.10937 0,0.78125 -0.45312,1.48438 -0.45313,0.6875 -1.34375,1.09375 z"
         id="path51"
         inkscape:connector-curvature="0"
         style="fill:#000000;fill-rule:nonzero" />
      <path
         d="m 480,280.03876 v 29.79529"
         id="path53"
         inkscape:connector-curvature="0"
         style="fill:#000000;fill-opacity:0;fill-rule:evenodd" />
      <path
         d="m 480,280.03876 v 17.79529"
         id="path55"
         inkscape:connector-curvature="0"
         style="fill-rule:evenodd;stroke:#1a1a1a;stroke-width:2;stroke-linecap:butt;stroke-linejoin:round" />
      <path
         d="m 476.69653,297.83405 3.30347,9.07617 3.30346,-9.07617 z"
         id="path57"
         inkscape:connector-curvature="0"
         style="fill:#1a1a1a;fill-rule:evenodd;stroke:#1a1a1a;stroke-width:2;stroke-linecap:butt" />
      <path
         d="m 417.6063,247.31436 h 124.78738 v 32.7244 H 417.6063 Z"
         id="path59"
         inkscape:connector-curvature="0"
         style="fill:#000000;fill-opacity:0;fill-rule:evenodd" />
      <path
         d="m 417.6063,247.31436 h 124.78738 v 32.7244 H 417.6063 Z"
         id="path61"
         inkscape:connector-curvature="0"
         style="fill-rule:evenodd;stroke:#000000;stroke-width:2;stroke-linecap:butt;stroke-linejoin:round" />
      <path
         d="m 443.3457,263.34656 v -0.25 q 0,-0.29688 0.10938,-0.40625 0.10937,-0.125 0.28125,-0.125 0.17187,0 0.28125,0.125 0.10937,0.10937 0.10937,0.40625 v 1.75 q 0,0.29687 -0.10937,0.42187 -0.10938,0.10938 -0.28125,0.10938 -0.15625,0 -0.26563,-0.0937 -0.10937,-0.10938 -0.125,-0.35938 -0.0625,-0.67187 -0.875,-1.26562 -0.79687,-0.59375 -2.17187,-0.59375 -1.73438,0 -2.64063,1.09375 -0.90625,1.07812 -0.90625,2.48437 0,1.51563 0.98438,2.5 1,0.98438 2.57812,0.98438 0.92188,0 1.85938,-0.32813 0.9375,-0.34375 1.70312,-1.09375 0.1875,-0.17187 0.34375,-0.17187 0.15625,0 0.26563,0.10937 0.10937,0.0937 0.10937,0.25 0,0.40625 -0.9375,1.01563 -1.51562,1 -3.375,1 -1.875,0 -3.09375,-1.20313 -1.20312,-1.20312 -1.20312,-3.04687 0,-1.89063 1.23437,-3.125 1.23438,-1.25 3.125,-1.25 1.78125,0 3,1.0625 z m 12.51123,3.25 q 0,1.78125 -1.28125,3.04687 -1.28125,1.26563 -3.07812,1.26563 -1.8125,0 -3.09375,-1.26563 -1.26563,-1.28125 -1.26563,-3.04687 0,-1.78125 1.26563,-3.04688 1.28125,-1.26562 3.09375,-1.26562 1.79687,0 3.07812,1.26562 1.28125,1.25 1.28125,3.04688 z m -0.79687,0 q 0,-1.46875 -1.04688,-2.5 -1.03125,-1.03125 -2.51562,-1.03125 -1.48438,0 -2.53125,1.04687 -1.04688,1.03125 -1.04688,2.48438 0,1.45312 1.04688,2.5 1.04687,1.03125 2.53125,1.03125 1.48437,0 2.51562,-1.03125 1.04688,-1.04688 1.04688,-2.5 z m 4.29248,-4.03125 v 0.78125 q 0.98437,-1.0625 1.98437,-1.0625 0.60938,0 1.0625,0.32812 0.45313,0.3125 0.76563,0.96875 0.51562,-0.65625 1.04687,-0.96875 0.53125,-0.32812 1.07813,-0.32812 0.84375,0 1.34375,0.54687 0.65625,0.70313 0.65625,1.54688 v 5.4375 h 0.65625 q 0.28125,0 0.39062,0.10937 0.125,0.10938 0.125,0.28125 0,0.17188 -0.125,0.28125 -0.10937,0.10938 -0.39062,0.10938 h -1.4375 v -6.15625 q 0,-0.59375 -0.35938,-0.98438 -0.35937,-0.39062 -0.82812,-0.39062 -0.4375,0 -0.90625,0.32812 -0.46875,0.3125 -1.07813,1.25 v 5.17188 h 0.65625 q 0.26563,0 0.39063,0.10937 0.125,0.10938 0.125,0.28125 0,0.17188 -0.125,0.28125 -0.125,0.10938 -0.39063,0.10938 h -1.4375 v -6.09375 q 0,-0.625 -0.375,-1.03125 -0.35937,-0.40625 -0.8125,-0.40625 -0.42187,0 -0.82812,0.28125 -0.5625,0.375 -1.1875,1.29687 v 5.17188 h 0.65625 q 0.28125,0 0.39062,0.10937 0.125,0.10938 0.125,0.28125 0,0.17188 -0.125,0.28125 -0.10937,0.10938 -0.39062,0.10938 h -2.09375 q -0.28125,0 -0.40625,-0.10938 -0.125,-0.10937 -0.125,-0.28125 0,-0.17187 0.125,-0.28125 0.125,-0.10937 0.40625,-0.10937 h 0.65625 v -6.46875 h -0.65625 q -0.28125,0 -0.40625,-0.10938 -0.125,-0.10937 -0.125,-0.28125 0,-0.17187 0.125,-0.28125 0.125,-0.10937 0.40625,-0.10937 z m 11.40185,0 v 0.78125 q 0.98438,-1.0625 1.98438,-1.0625 0.60937,0 1.0625,0.32812 0.45312,0.3125 0.76562,0.96875 0.51563,-0.65625 1.04688,-0.96875 0.53125,-0.32812 1.07812,-0.32812 0.84375,0 1.34375,0.54687 0.65625,0.70313 0.65625,1.54688 v 5.4375 h 0.65625 q 0.28125,0 0.39063,0.10937 0.125,0.10938 0.125,0.28125 0,0.17188 -0.125,0.28125 -0.10938,0.10938 -0.39063,0.10938 h -1.4375 v -6.15625 q 0,-0.59375 -0.35937,-0.98438 -0.35938,-0.39062 -0.82813,-0.39062 -0.4375,0 -0.90625,0.32812 -0.46875,0.3125 -1.07812,1.25 v 5.17188 h 0.65625 q 0.26562,0 0.39062,0.10937 0.125,0.10938 0.125,0.28125 0,0.17188 -0.125,0.28125 -0.125,0.10938 -0.39062,0.10938 h -1.4375 v -6.09375 q 0,-0.625 -0.375,-1.03125 -0.35938,-0.40625 -0.8125,-0.40625 -0.42188,0 -0.82813,0.28125 -0.5625,0.375 -1.1875,1.29687 v 5.17188 h 0.65625 q 0.28125,0 0.39063,0.10937 0.125,0.10938 0.125,0.28125 0,0.17188 -0.125,0.28125 -0.10938,0.10938 -0.39063,0.10938 h -2.09375 q -0.28125,0 -0.40625,-0.10938 -0.125,-0.10937 -0.125,-0.28125 0,-0.17187 0.125,-0.28125 0.125,-0.10937 0.40625,-0.10937 h 0.65625 v -6.46875 h -0.65625 q -0.28125,0 -0.40625,-0.10938 -0.125,-0.10937 -0.125,-0.28125 0,-0.17187 0.125,-0.28125 0.125,-0.10937 0.40625,-0.10937 z m 15.33936,-4 v 2.01562 h -1.15625 v -2.01562 z m 0.0156,4 v 7.25 h 3.0625 q 0.29688,0 0.40625,0.10937 0.125,0.10938 0.125,0.28125 0,0.17188 -0.125,0.28125 -0.10937,0.10938 -0.40625,0.10938 h -6.90625 q -0.26562,0 -0.39062,-0.10938 -0.125,-0.10937 -0.125,-0.28125 0,-0.17187 0.125,-0.28125 0.125,-0.10937 0.39062,-0.10937 h 3.0625 v -6.46875 h -2.26562 q -0.28125,0 -0.40625,-0.10938 -0.125,-0.10937 -0.125,-0.28125 0,-0.17187 0.125,-0.28125 0.125,-0.10937 0.40625,-0.10937 z m 9.38623,0 h 4.23438 q 0.28125,0 0.39062,0.10937 0.125,0.10938 0.125,0.28125 0,0.17188 -0.125,0.28125 -0.10937,0.10938 -0.39062,0.10938 h -4.23438 v 5.1875 q 0,0.6875 0.54688,1.14062 0.54687,0.45313 1.59375,0.45313 0.78125,0 1.70312,-0.23438 0.92188,-0.25 1.4375,-0.54687 0.1875,-0.10938 0.29688,-0.10938 0.15625,0 0.26562,0.125 0.10938,0.10938 0.10938,0.26563 0,0.14062 -0.125,0.25 -0.29688,0.3125 -1.4375,0.67187 -1.14063,0.35938 -2.1875,0.35938 -1.375,0 -2.1875,-0.64063 -0.79688,-0.64062 -0.79688,-1.73437 v -5.1875 h -1.4375 q -0.28125,0 -0.40625,-0.10938 -0.10937,-0.10937 -0.10937,-0.28125 0,-0.17187 0.10937,-0.28125 0.125,-0.10937 0.40625,-0.10937 h 1.4375 v -2.29688 q 0,-0.28125 0.10938,-0.40625 0.10937,-0.125 0.28125,-0.125 0.17187,0 0.28125,0.125 0.10937,0.125 0.10937,0.40625 z m 25.86621,4.78125 h -5.17187 v -0.90625 l 4.32812,-7.48438 h 1.625 v 7.60938 h 0.65625 q 0.28125,0 0.40625,0.10937 0.125,0.0937 0.125,0.28125 0,0.15625 -0.125,0.28125 -0.125,0.10938 -0.40625,0.10938 h -0.65625 v 2.46875 h 0.65625 q 0.28125,0 0.40625,0.10937 0.125,0.10938 0.125,0.28125 0,0.17188 -0.125,0.28125 -0.125,0.10938 -0.40625,0.10938 h -2.89062 q -0.29688,0 -0.42188,-0.10938 -0.10937,-0.10937 -0.10937,-0.28125 0,-0.17187 0.10937,-0.28125 0.125,-0.10937 0.42188,-0.10937 h 1.45312 z m 0,-0.78125 v -6.82813 h -0.40625 l -3.95312,6.82813 z"
         id="path63"
         inkscape:connector-curvature="0"
         style="fill:#000000;fill-rule:nonzero" />
      <path
         d="m 480,217.02386 v 29.79527"
         id="path65"
         inkscape:connector-curvature="0"
         style="fill:#000000;fill-opacity:0;fill-rule:evenodd" />
      <path
         d="m 480,217.02386 v 17.79527"
         id="path67"
         inkscape:connector-curvature="0"
         style="fill-rule:evenodd;stroke:#1a1a1a;stroke-width:2;stroke-linecap:butt;stroke-linejoin:round" />
      <path
         d="m 476.69653,234.81914 3.30347,9.0762 3.30346,-9.0762 z"
         id="path69"
         inkscape:connector-curvature="0"
         style="fill:#1a1a1a;fill-rule:evenodd;stroke:#1a1a1a;stroke-width:2;stroke-linecap:butt" />
      <path
         d="m 417.6063,184.29945 h 124.78738 v 32.72441 H 417.6063 Z"
         id="path71"
         inkscape:connector-curvature="0"
         style="fill:#000000;fill-opacity:0;fill-rule:evenodd" />
      <path
         d="m 417.6063,184.29945 h 124.78738 v 32.72441 H 417.6063 Z"
         id="path73"
         inkscape:connector-curvature="0"
         style="fill-rule:evenodd;stroke:#000000;stroke-width:2;stroke-linecap:butt;stroke-linejoin:round" />
      <path
         d="m 443.3457,200.33165 v -0.25 q 0,-0.29688 0.10938,-0.40625 0.10937,-0.125 0.28125,-0.125 0.17187,0 0.28125,0.125 0.10937,0.10937 0.10937,0.40625 v 1.75 q 0,0.29687 -0.10937,0.42187 -0.10938,0.10938 -0.28125,0.10938 -0.15625,0 -0.26563,-0.0937 -0.10937,-0.10938 -0.125,-0.35938 -0.0625,-0.67187 -0.875,-1.26562 -0.79687,-0.59375 -2.17187,-0.59375 -1.73438,0 -2.64063,1.09375 -0.90625,1.07812 -0.90625,2.48437 0,1.51563 0.98438,2.5 1,0.98438 2.57812,0.98438 0.92188,0 1.85938,-0.32813 0.9375,-0.34375 1.70312,-1.09375 0.1875,-0.17187 0.34375,-0.17187 0.15625,0 0.26563,0.10937 0.10937,0.0937 0.10937,0.25 0,0.40625 -0.9375,1.01563 -1.51562,1 -3.375,1 -1.875,0 -3.09375,-1.20313 -1.20312,-1.20312 -1.20312,-3.04687 0,-1.89063 1.23437,-3.125 1.23438,-1.25 3.125,-1.25 1.78125,0 3,1.0625 z m 12.51123,3.25 q 0,1.78125 -1.28125,3.04687 -1.28125,1.26563 -3.07812,1.26563 -1.8125,0 -3.09375,-1.26563 -1.26563,-1.28125 -1.26563,-3.04687 0,-1.78125 1.26563,-3.04688 1.28125,-1.26562 3.09375,-1.26562 1.79687,0 3.07812,1.26562 1.28125,1.25 1.28125,3.04688 z m -0.79687,0 q 0,-1.46875 -1.04688,-2.5 -1.03125,-1.03125 -2.51562,-1.03125 -1.48438,0 -2.53125,1.04687 -1.04688,1.03125 -1.04688,2.48438 0,1.45312 1.04688,2.5 1.04687,1.03125 2.53125,1.03125 1.48437,0 2.51562,-1.03125 1.04688,-1.04688 1.04688,-2.5 z m 4.29248,-4.03125 v 0.78125 q 0.98437,-1.0625 1.98437,-1.0625 0.60938,0 1.0625,0.32812 0.45313,0.3125 0.76563,0.96875 0.51562,-0.65625 1.04687,-0.96875 0.53125,-0.32812 1.07813,-0.32812 0.84375,0 1.34375,0.54687 0.65625,0.70313 0.65625,1.54688 v 5.4375 h 0.65625 q 0.28125,0 0.39062,0.10937 0.125,0.10938 0.125,0.28125 0,0.17188 -0.125,0.28125 -0.10937,0.10938 -0.39062,0.10938 h -1.4375 v -6.15625 q 0,-0.59375 -0.35938,-0.98438 -0.35937,-0.39062 -0.82812,-0.39062 -0.4375,0 -0.90625,0.32812 -0.46875,0.3125 -1.07813,1.25 v 5.17188 h 0.65625 q 0.26563,0 0.39063,0.10937 0.125,0.10938 0.125,0.28125 0,0.17188 -0.125,0.28125 -0.125,0.10938 -0.39063,0.10938 h -1.4375 v -6.09375 q 0,-0.625 -0.375,-1.03125 -0.35937,-0.40625 -0.8125,-0.40625 -0.42187,0 -0.82812,0.28125 -0.5625,0.375 -1.1875,1.29687 v 5.17188 h 0.65625 q 0.28125,0 0.39062,0.10937 0.125,0.10938 0.125,0.28125 0,0.17188 -0.125,0.28125 -0.10937,0.10938 -0.39062,0.10938 h -2.09375 q -0.28125,0 -0.40625,-0.10938 -0.125,-0.10937 -0.125,-0.28125 0,-0.17187 0.125,-0.28125 0.125,-0.10937 0.40625,-0.10937 h 0.65625 v -6.46875 h -0.65625 q -0.28125,0 -0.40625,-0.10938 -0.125,-0.10937 -0.125,-0.28125 0,-0.17187 0.125,-0.28125 0.125,-0.10937 0.40625,-0.10937 z m 11.40185,0 v 0.78125 q 0.98438,-1.0625 1.98438,-1.0625 0.60937,0 1.0625,0.32812 0.45312,0.3125 0.76562,0.96875 0.51563,-0.65625 1.04688,-0.96875 0.53125,-0.32812 1.07812,-0.32812 0.84375,0 1.34375,0.54687 0.65625,0.70313 0.65625,1.54688 v 5.4375 h 0.65625 q 0.28125,0 0.39063,0.10937 0.125,0.10938 0.125,0.28125 0,0.17188 -0.125,0.28125 -0.10938,0.10938 -0.39063,0.10938 h -1.4375 v -6.15625 q 0,-0.59375 -0.35937,-0.98438 -0.35938,-0.39062 -0.82813,-0.39062 -0.4375,0 -0.90625,0.32812 -0.46875,0.3125 -1.07812,1.25 v 5.17188 h 0.65625 q 0.26562,0 0.39062,0.10937 0.125,0.10938 0.125,0.28125 0,0.17188 -0.125,0.28125 -0.125,0.10938 -0.39062,0.10938 h -1.4375 v -6.09375 q 0,-0.625 -0.375,-1.03125 -0.35938,-0.40625 -0.8125,-0.40625 -0.42188,0 -0.82813,0.28125 -0.5625,0.375 -1.1875,1.29687 v 5.17188 h 0.65625 q 0.28125,0 0.39063,0.10937 0.125,0.10938 0.125,0.28125 0,0.17188 -0.125,0.28125 -0.10938,0.10938 -0.39063,0.10938 h -2.09375 q -0.28125,0 -0.40625,-0.10938 -0.125,-0.10937 -0.125,-0.28125 0,-0.17187 0.125,-0.28125 0.125,-0.10937 0.40625,-0.10937 h 0.65625 v -6.46875 h -0.65625 q -0.28125,0 -0.40625,-0.10938 -0.125,-0.10937 -0.125,-0.28125 0,-0.17187 0.125,-0.28125 0.125,-0.10937 0.40625,-0.10937 z m 15.33936,-4 v 2.01562 h -1.15625 v -2.01562 z m 0.0156,4 v 7.25 h 3.0625 q 0.29688,0 0.40625,0.10937 0.125,0.10938 0.125,0.28125 0,0.17188 -0.125,0.28125 -0.10937,0.10938 -0.40625,0.10938 h -6.90625 q -0.26562,0 -0.39062,-0.10938 -0.125,-0.10937 -0.125,-0.28125 0,-0.17187 0.125,-0.28125 0.125,-0.10937 0.39062,-0.10937 h 3.0625 v -6.46875 h -2.26562 q -0.28125,0 -0.40625,-0.10938 -0.125,-0.10937 -0.125,-0.28125 0,-0.17187 0.125,-0.28125 0.125,-0.10937 0.40625,-0.10937 z m 9.38623,0 h 4.23438 q 0.28125,0 0.39062,0.10937 0.125,0.10938 0.125,0.28125 0,0.17188 -0.125,0.28125 -0.10937,0.10938 -0.39062,0.10938 h -4.23438 v 5.1875 q 0,0.6875 0.54688,1.14062 0.54687,0.45313 1.59375,0.45313 0.78125,0 1.70312,-0.23438 0.92188,-0.25 1.4375,-0.54687 0.1875,-0.10938 0.29688,-0.10938 0.15625,0 0.26562,0.125 0.10938,0.10938 0.10938,0.26563 0,0.14062 -0.125,0.25 -0.29688,0.3125 -1.4375,0.67187 -1.14063,0.35938 -2.1875,0.35938 -1.375,0 -2.1875,-0.64063 -0.79688,-0.64062 -0.79688,-1.73437 v -5.1875 h -1.4375 q -0.28125,0 -0.40625,-0.10938 -0.10937,-0.10937 -0.10937,-0.28125 0,-0.17187 0.10937,-0.28125 0.125,-0.10937 0.40625,-0.10937 h 1.4375 v -2.29688 q 0,-0.28125 0.10938,-0.40625 0.10937,-0.125 0.28125,-0.125 0.17187,0 0.28125,0.125 0.10937,0.125 0.10937,0.40625 z m 22.25684,-2.82813 v 3.8125 q 0.6875,-0.28125 1.3125,-0.42187 0.64062,-0.14063 1.20312,-0.14063 1.46875,0 2.45313,1.03125 1,1.01563 1,2.70313 0,1.85937 -1.125,3.01562 -1.10938,1.14063 -2.78125,1.14063 -1.09375,0 -2.125,-0.5 -0.71875,-0.34375 -1.3125,-0.84375 -0.35938,-0.3125 -0.35938,-0.51563 0,-0.17187 0.10938,-0.28125 0.125,-0.10937 0.26562,-0.10937 0.15625,0 0.34375,0.15625 1.39063,1.3125 3.04688,1.3125 1.35937,0 2.25,-0.92188 0.89062,-0.9375 0.89062,-2.5 0,-1.3125 -0.76562,-2.10937 -0.76563,-0.8125 -1.95313,-0.8125 -1.21875,0 -2.4375,0.64062 -0.29687,0.15625 -0.42187,0.15625 -0.15625,0 -0.26563,-0.10937 -0.0937,-0.10938 -0.0937,-0.3125 v -5.17188 h 5.42188 q 0.28125,0 0.40625,0.10938 0.125,0.10937 0.125,0.28125 0,0.17187 -0.125,0.28125 -0.125,0.10937 -0.40625,0.10937 z"
         id="path75"
         inkscape:connector-curvature="0"
         style="fill:#000000;fill-rule:nonzero" />
      <path
         d="m 480,342.56168 v 25.85828"
         id="path77"
         inkscape:connector-curvature="0"
         style="fill:#000000;fill-opacity:0;fill-rule:evenodd" />
      <path
         d="m 480,342.56168 v 13.85828"
         id="path79"
         inkscape:connector-curvature="0"
         style="fill-rule:evenodd;stroke:#1a1a1a;stroke-width:2;stroke-linecap:butt;stroke-linejoin:round" />
      <path
         d="m 476.69653,356.41995 3.30347,9.0762 3.30346,-9.0762 z"
         id="path81"
         inkscape:connector-curvature="0"
         style="fill:#1a1a1a;fill-rule:evenodd;stroke:#1a1a1a;stroke-width:2;stroke-linecap:butt" />
      <path
         d="M 727.1391,175.18079 542.38318,200.66111"
         id="path83"
         inkscape:connector-curvature="0"
         style="fill:#000000;fill-opacity:0;fill-rule:evenodd" />
      <path
         d="M 727.1391,175.18077 554.27069,199.02165"
         id="path85"
         inkscape:connector-curvature="0"
         style="fill-rule:evenodd;stroke:#1a1a1a;stroke-width:2;stroke-linecap:butt;stroke-linejoin:round" />
      <path
         d="m 553.81934,195.74916 -8.53973,4.51248 9.44238,2.0325 z"
         id="path87"
         inkscape:connector-curvature="0"
         style="fill:#1a1a1a;fill-rule:evenodd;stroke:#1a1a1a;stroke-width:2;stroke-linecap:butt" />
      <path
         d="m 664.7454,142.45638 h 124.78742 v 32.72441 H 664.7454 Z"
         id="path89"
         inkscape:connector-curvature="0"
         style="fill:#ffff00;fill-rule:evenodd" />
      <path
         d="m 664.7454,142.45638 h 124.78742 v 32.72441 H 664.7454 Z"
         id="path91"
         inkscape:connector-curvature="0"
         style="fill-rule:evenodd;stroke:#000000;stroke-width:2;stroke-linecap:butt;stroke-linejoin:round" />
      <path
         d="m 684.7839,158.48857 v -0.25 q 0,-0.29688 0.10938,-0.40625 0.10937,-0.125 0.28125,-0.125 0.17187,0 0.28125,0.125 0.10937,0.10937 0.10937,0.40625 v 1.75 q 0,0.29687 -0.10937,0.42187 -0.10938,0.10938 -0.28125,0.10938 -0.15625,0 -0.26563,-0.0937 -0.10937,-0.10938 -0.125,-0.35938 -0.0625,-0.67187 -0.875,-1.26562 -0.79687,-0.59375 -2.17187,-0.59375 -1.73438,0 -2.64063,1.09375 -0.90625,1.07812 -0.90625,2.48437 0,1.51563 0.98438,2.5 1,0.98438 2.57812,0.98438 0.92188,0 1.85938,-0.32813 0.9375,-0.34375 1.70312,-1.09375 0.1875,-0.17187 0.34375,-0.17187 0.15625,0 0.26563,0.10937 0.10937,0.0937 0.10937,0.25 0,0.40625 -0.9375,1.01563 -1.51562,1 -3.375,1 -1.875,0 -3.09375,-1.20313 -1.20312,-1.20312 -1.20312,-3.04687 0,-1.89063 1.23437,-3.125 1.23438,-1.25 3.125,-1.25 1.78125,0 3,1.0625 z m 12.51123,3.25 q 0,1.78125 -1.28125,3.04687 -1.28125,1.26563 -3.07813,1.26563 -1.8125,0 -3.09375,-1.26563 -1.26562,-1.28125 -1.26562,-3.04687 0,-1.78125 1.26562,-3.04688 1.28125,-1.26562 3.09375,-1.26562 1.79688,0 3.07813,1.26562 1.28125,1.25 1.28125,3.04688 z m -0.79688,0 q 0,-1.46875 -1.04687,-2.5 -1.03125,-1.03125 -2.51563,-1.03125 -1.48437,0 -2.53125,1.04687 -1.04687,1.03125 -1.04687,2.48438 0,1.45312 1.04687,2.5 1.04688,1.03125 2.53125,1.03125 1.48438,0 2.51563,-1.03125 1.04687,-1.04688 1.04687,-2.5 z m 4.29249,-4.03125 v 0.78125 q 0.98437,-1.0625 1.98437,-1.0625 0.60938,0 1.0625,0.32812 0.45313,0.3125 0.76563,0.96875 0.51562,-0.65625 1.04687,-0.96875 0.53125,-0.32812 1.07813,-0.32812 0.84375,0 1.34375,0.54687 0.65625,0.70313 0.65625,1.54688 v 5.4375 h 0.65625 q 0.28125,0 0.39062,0.10937 0.125,0.10938 0.125,0.28125 0,0.17188 -0.125,0.28125 -0.10937,0.10938 -0.39062,0.10938 h -1.4375 v -6.15625 q 0,-0.59375 -0.35938,-0.98438 -0.35937,-0.39062 -0.82812,-0.39062 -0.4375,0 -0.90625,0.32812 -0.46875,0.3125 -1.07813,1.25 v 5.17188 h 0.65625 q 0.26563,0 0.39063,0.10937 0.125,0.10938 0.125,0.28125 0,0.17188 -0.125,0.28125 -0.125,0.10938 -0.39063,0.10938 h -1.4375 v -6.09375 q 0,-0.625 -0.375,-1.03125 -0.35937,-0.40625 -0.8125,-0.40625 -0.42187,0 -0.82812,0.28125 -0.5625,0.375 -1.1875,1.29687 v 5.17188 h 0.65625 q 0.28125,0 0.39062,0.10937 0.125,0.10938 0.125,0.28125 0,0.17188 -0.125,0.28125 -0.10937,0.10938 -0.39062,0.10938 h -2.09375 q -0.28125,0 -0.40625,-0.10938 -0.125,-0.10937 -0.125,-0.28125 0,-0.17187 0.125,-0.28125 0.125,-0.10937 0.40625,-0.10937 h 0.65625 v -6.46875 h -0.65625 q -0.28125,0 -0.40625,-0.10938 -0.125,-0.10937 -0.125,-0.28125 0,-0.17187 0.125,-0.28125 0.125,-0.10937 0.40625,-0.10937 z m 11.40185,0 v 0.78125 q 0.98438,-1.0625 1.98438,-1.0625 0.60937,0 1.0625,0.32812 0.45312,0.3125 0.76562,0.96875 0.51563,-0.65625 1.04688,-0.96875 0.53125,-0.32812 1.07812,-0.32812 0.84375,0 1.34375,0.54687 0.65625,0.70313 0.65625,1.54688 v 5.4375 h 0.65625 q 0.28125,0 0.39063,0.10937 0.125,0.10938 0.125,0.28125 0,0.17188 -0.125,0.28125 -0.10938,0.10938 -0.39063,0.10938 h -1.4375 v -6.15625 q 0,-0.59375 -0.35937,-0.98438 -0.35938,-0.39062 -0.82813,-0.39062 -0.4375,0 -0.90625,0.32812 -0.46875,0.3125 -1.07812,1.25 v 5.17188 h 0.65625 q 0.26562,0 0.39062,0.10937 0.125,0.10938 0.125,0.28125 0,0.17188 -0.125,0.28125 -0.125,0.10938 -0.39062,0.10938 h -1.4375 v -6.09375 q 0,-0.625 -0.375,-1.03125 -0.35938,-0.40625 -0.8125,-0.40625 -0.42188,0 -0.82813,0.28125 -0.5625,0.375 -1.1875,1.29687 v 5.17188 h 0.65625 q 0.28125,0 0.39063,0.10937 0.125,0.10938 0.125,0.28125 0,0.17188 -0.125,0.28125 -0.10938,0.10938 -0.39063,0.10938 h -2.09375 q -0.28125,0 -0.40625,-0.10938 -0.125,-0.10937 -0.125,-0.28125 0,-0.17187 0.125,-0.28125 0.125,-0.10937 0.40625,-0.10937 h 0.65625 v -6.46875 h -0.65625 q -0.28125,0 -0.40625,-0.10938 -0.125,-0.10937 -0.125,-0.28125 0,-0.17187 0.125,-0.28125 0.125,-0.10937 0.40625,-0.10937 z m 15.33936,-4 v 2.01562 h -1.15625 v -2.01562 z m 0.0156,4 v 7.25 h 3.0625 q 0.29688,0 0.40625,0.10937 0.125,0.10938 0.125,0.28125 0,0.17188 -0.125,0.28125 -0.10937,0.10938 -0.40625,0.10938 h -6.90625 q -0.26562,0 -0.39062,-0.10938 -0.125,-0.10937 -0.125,-0.28125 0,-0.17187 0.125,-0.28125 0.125,-0.10937 0.39062,-0.10937 h 3.0625 v -6.46875 h -2.26562 q -0.28125,0 -0.40625,-0.10938 -0.125,-0.10937 -0.125,-0.28125 0,-0.17187 0.125,-0.28125 0.125,-0.10937 0.40625,-0.10937 z m 9.38623,0 h 4.23438 q 0.28125,0 0.39062,0.10937 0.125,0.10938 0.125,0.28125 0,0.17188 -0.125,0.28125 -0.10937,0.10938 -0.39062,0.10938 h -4.23438 v 5.1875 q 0,0.6875 0.54688,1.14062 0.54687,0.45313 1.59375,0.45313 0.78125,0 1.70312,-0.23438 0.92188,-0.25 1.4375,-0.54687 0.1875,-0.10938 0.29688,-0.10938 0.15625,0 0.26562,0.125 0.10938,0.10938 0.10938,0.26563 0,0.14062 -0.125,0.25 -0.29688,0.3125 -1.4375,0.67187 -1.14063,0.35938 -2.1875,0.35938 -1.375,0 -2.1875,-0.64063 -0.79688,-0.64062 -0.79688,-1.73437 v -5.1875 h -1.4375 q -0.28125,0 -0.40625,-0.10938 -0.10937,-0.10937 -0.10937,-0.28125 0,-0.17187 0.10937,-0.28125 0.125,-0.10937 0.40625,-0.10937 h 1.4375 v -2.29688 q 0,-0.28125 0.10938,-0.40625 0.10937,-0.125 0.28125,-0.125 0.17187,0 0.28125,0.125 0.10937,0.125 0.10937,0.40625 z m 22.08496,3.10937 q 0.71875,-1.07812 1.48438,-1.57812 0.76562,-0.51563 1.70312,-0.51563 1.25,0 2.20313,1.04688 0.96875,1.03125 0.96875,2.54687 0,1.39063 -0.875,2.54688 -0.875,1.15625 -2.4375,1.15625 -1,0 -1.875,-0.625 -0.875,-0.625 -1.39063,-1.90625 -0.60937,-1.60938 -0.60937,-3.5625 0,-1.46875 0.57812,-2.71875 0.45313,-0.98438 1.1875,-1.71875 0.75,-0.73438 1.73438,-1.20313 0.98437,-0.46875 2.14062,-0.46875 0.78125,0 1.29688,0.3125 0.21875,0.14063 0.21875,0.375 0,0.17188 -0.10938,0.28125 -0.0937,0.0937 -0.25,0.0937 -0.125,0 -0.28125,-0.0937 -0.39062,-0.1875 -0.95312,-0.1875 -1.8125,0 -3.29688,1.5625 -1.48437,1.54688 -1.48437,3.70313 0,0.29687 0.0469,0.95312 z m 0.17188,1.28125 q 0.35937,1.6875 1.10937,2.42188 0.76563,0.71875 1.79688,0.71875 1.03125,0 1.76562,-0.8125 0.75,-0.8125 0.75,-2.10938 0,-1.21875 -0.75,-2.01562 -0.73437,-0.79688 -1.67187,-0.79688 -0.90625,0 -1.73438,0.76563 -0.5625,0.51562 -1.26562,1.82812 z m 11.94873,-8 h 2.54687 l -2.76562,5.125 q -0.25,0.45313 -0.59375,0.45313 -0.23438,0 -0.40625,-0.15625 -0.15625,-0.17188 -0.15625,-0.39063 0,-0.0937 0.0312,-0.20312 z"
         id="path93"
         inkscape:connector-curvature="0"
         style="fill:#000000;fill-rule:nonzero" />
      <path
         d="m 727.1391,116.59664 v 25.85827"
         id="path95"
         inkscape:connector-curvature="0"
         style="fill:#000000;fill-opacity:0;fill-rule:evenodd" />
      <path
         d="m 727.1391,116.59664 v 13.85827"
         id="path97"
         inkscape:connector-curvature="0"
         style="fill-rule:evenodd;stroke:#1a1a1a;stroke-width:2;stroke-linecap:butt;stroke-linejoin:round" />
      <path
         d="m 723.83563,130.45491 3.30347,9.07619 3.30346,-9.07619 z"
         id="path99"
         inkscape:connector-curvature="0"
         style="fill:#1a1a1a;fill-rule:evenodd;stroke:#1a1a1a;stroke-width:2;stroke-linecap:butt" />
      <path
         d="m 664.7454,83.87224 h 124.78742 v 32.7244 H 664.7454 Z"
         id="path101"
         inkscape:connector-curvature="0"
         style="fill:#ffff00;fill-rule:evenodd" />
      <path
         d="m 664.7454,83.87224 h 124.78742 v 32.7244 H 664.7454 Z"
         id="path103"
         inkscape:connector-curvature="0"
         style="fill-rule:evenodd;stroke:#000000;stroke-width:2;stroke-linecap:butt;stroke-linejoin:round" />
      <path
         d="m 684.7839,99.90444 v -0.25 q 0,-0.296875 0.10938,-0.40625 0.10937,-0.125 0.28125,-0.125 0.17187,0 0.28125,0.125 0.10937,0.109375 0.10937,0.40625 v 1.75 q 0,0.29687 -0.10937,0.42187 -0.10938,0.10938 -0.28125,0.10938 -0.15625,0 -0.26563,-0.0937 -0.10937,-0.10938 -0.125,-0.35938 -0.0625,-0.67187 -0.875,-1.26562 -0.79687,-0.59375 -2.17187,-0.59375 -1.73438,0 -2.64063,1.09375 -0.90625,1.07812 -0.90625,2.48437 0,1.51563 0.98438,2.5 1,0.98438 2.57812,0.98438 0.92188,0 1.85938,-0.32813 0.9375,-0.34375 1.70312,-1.09375 0.1875,-0.17187 0.34375,-0.17187 0.15625,0 0.26563,0.10937 0.10937,0.0937 0.10937,0.25 0,0.40625 -0.9375,1.01563 -1.51562,1 -3.375,1 -1.875,0 -3.09375,-1.20313 -1.20312,-1.20312 -1.20312,-3.04687 0,-1.89063 1.23437,-3.125 1.23438,-1.25 3.125,-1.25 1.78125,0 3,1.0625 z m 12.51123,3.25 q 0,1.78125 -1.28125,3.04687 -1.28125,1.26563 -3.07813,1.26563 -1.8125,0 -3.09375,-1.26563 -1.26562,-1.28125 -1.26562,-3.04687 0,-1.78125 1.26562,-3.04688 1.28125,-1.26562 3.09375,-1.26562 1.79688,0 3.07813,1.26562 1.28125,1.25 1.28125,3.04688 z m -0.79688,0 q 0,-1.46875 -1.04687,-2.5 -1.03125,-1.03125 -2.51563,-1.03125 -1.48437,0 -2.53125,1.04687 -1.04687,1.03125 -1.04687,2.48438 0,1.45312 1.04687,2.5 1.04688,1.03125 2.53125,1.03125 1.48438,0 2.51563,-1.03125 1.04687,-1.04688 1.04687,-2.5 z m 4.29249,-4.03125 v 0.78125 q 0.98437,-1.0625 1.98437,-1.0625 0.60938,0 1.0625,0.328125 0.45313,0.3125 0.76563,0.968745 0.51562,-0.656245 1.04687,-0.968745 0.53125,-0.328125 1.07813,-0.328125 0.84375,0 1.34375,0.546875 0.65625,0.703125 0.65625,1.546875 v 5.4375 h 0.65625 q 0.28125,0 0.39062,0.10937 0.125,0.10938 0.125,0.28125 0,0.17188 -0.125,0.28125 -0.10937,0.10938 -0.39062,0.10938 h -1.4375 v -6.15625 q 0,-0.59375 -0.35938,-0.98438 -0.35937,-0.39062 -0.82812,-0.39062 -0.4375,0 -0.90625,0.328125 -0.46875,0.312495 -1.07813,1.249995 v 5.17188 h 0.65625 q 0.26563,0 0.39063,0.10937 0.125,0.10938 0.125,0.28125 0,0.17188 -0.125,0.28125 -0.125,0.10938 -0.39063,0.10938 h -1.4375 v -6.09375 q 0,-0.625 -0.375,-1.03125 -0.35937,-0.40625 -0.8125,-0.40625 -0.42187,0 -0.82812,0.28125 -0.5625,0.375 -1.1875,1.29687 v 5.17188 h 0.65625 q 0.28125,0 0.39062,0.10937 0.125,0.10938 0.125,0.28125 0,0.17188 -0.125,0.28125 -0.10937,0.10938 -0.39062,0.10938 h -2.09375 q -0.28125,0 -0.40625,-0.10938 -0.125,-0.10937 -0.125,-0.28125 0,-0.17187 0.125,-0.28125 0.125,-0.10937 0.40625,-0.10937 h 0.65625 v -6.46875 h -0.65625 q -0.28125,0 -0.40625,-0.109375 -0.125,-0.109375 -0.125,-0.28125 0,-0.171875 0.125,-0.28125 0.125,-0.109375 0.40625,-0.109375 z m 11.40185,0 v 0.78125 q 0.98438,-1.0625 1.98438,-1.0625 0.60937,0 1.0625,0.328125 0.45312,0.3125 0.76562,0.968745 0.51563,-0.656245 1.04688,-0.968745 0.53125,-0.328125 1.07812,-0.328125 0.84375,0 1.34375,0.546875 0.65625,0.703125 0.65625,1.546875 v 5.4375 h 0.65625 q 0.28125,0 0.39063,0.10937 0.125,0.10938 0.125,0.28125 0,0.17188 -0.125,0.28125 -0.10938,0.10938 -0.39063,0.10938 h -1.4375 v -6.15625 q 0,-0.59375 -0.35937,-0.98438 -0.35938,-0.39062 -0.82813,-0.39062 -0.4375,0 -0.90625,0.328125 -0.46875,0.312495 -1.07812,1.249995 v 5.17188 h 0.65625 q 0.26562,0 0.39062,0.10937 0.125,0.10938 0.125,0.28125 0,0.17188 -0.125,0.28125 -0.125,0.10938 -0.39062,0.10938 h -1.4375 v -6.09375 q 0,-0.625 -0.375,-1.03125 -0.35938,-0.40625 -0.8125,-0.40625 -0.42188,0 -0.82813,0.28125 -0.5625,0.375 -1.1875,1.29687 v 5.17188 h 0.65625 q 0.28125,0 0.39063,0.10937 0.125,0.10938 0.125,0.28125 0,0.17188 -0.125,0.28125 -0.10938,0.10938 -0.39063,0.10938 h -2.09375 q -0.28125,0 -0.40625,-0.10938 -0.125,-0.10937 -0.125,-0.28125 0,-0.17187 0.125,-0.28125 0.125,-0.10937 0.40625,-0.10937 h 0.65625 v -6.46875 h -0.65625 q -0.28125,0 -0.40625,-0.109375 -0.125,-0.109375 -0.125,-0.28125 0,-0.171875 0.125,-0.28125 0.125,-0.109375 0.40625,-0.109375 z m 15.33936,-4 v 2.015625 H 726.3757 V 95.12319 Z m 0.0156,4 v 7.25 h 3.0625 q 0.29688,0 0.40625,0.10937 0.125,0.10938 0.125,0.28125 0,0.17188 -0.125,0.28125 -0.10937,0.10938 -0.40625,0.10938 h -6.90625 q -0.26562,0 -0.39062,-0.10938 -0.125,-0.10937 -0.125,-0.28125 0,-0.17187 0.125,-0.28125 0.125,-0.10937 0.39062,-0.10937 h 3.0625 v -6.46875 h -2.26562 q -0.28125,0 -0.40625,-0.109375 -0.125,-0.109375 -0.125,-0.28125 0,-0.171875 0.125,-0.28125 0.125,-0.109375 0.40625,-0.109375 z m 9.38623,0 h 4.23438 q 0.28125,0 0.39062,0.109375 0.125,0.109375 0.125,0.28125 0,0.171875 -0.125,0.28125 -0.10937,0.109375 -0.39062,0.109375 h -4.23438 v 5.1875 q 0,0.6875 0.54688,1.14062 0.54687,0.45313 1.59375,0.45313 0.78125,0 1.70312,-0.23438 0.92188,-0.25 1.4375,-0.54687 0.1875,-0.10938 0.29688,-0.10938 0.15625,0 0.26562,0.125 0.10938,0.10938 0.10938,0.26563 0,0.14062 -0.125,0.25 -0.29688,0.3125 -1.4375,0.67187 -1.14063,0.35938 -2.1875,0.35938 -1.375,0 -2.1875,-0.64063 -0.79688,-0.64062 -0.79688,-1.73437 v -5.1875 h -1.4375 q -0.28125,0 -0.40625,-0.109375 -0.10937,-0.109375 -0.10937,-0.28125 0,-0.171875 0.10937,-0.28125 0.125,-0.109375 0.40625,-0.109375 h 1.4375 v -2.296875 q 0,-0.28125 0.10938,-0.40625 0.10937,-0.125 0.28125,-0.125 0.17187,0 0.28125,0.125 0.10937,0.125 0.10937,0.40625 z m 27.03809,-2.46875 v -0.359375 h -5.59375 v 0.6875 q 0,0.28125 -0.10938,0.40625 -0.0937,0.109375 -0.28125,0.109375 -0.15625,0 -0.28125,-0.109375 -0.10937,-0.125 -0.10937,-0.40625 v -1.46875 h 7.15625 v 1.234375 l -3.14063,10.03125 q -0.0625,0.23437 -0.17187,0.3125 -0.0937,0.0781 -0.23438,0.0781 -0.15625,0 -0.28125,-0.10937 -0.10937,-0.10938 -0.10937,-0.26563 0,-0.0937 0.0625,-0.25 z m 7.16748,-1.140625 h 2.54687 l -2.76562,5.124995 q -0.25,0.45313 -0.59375,0.45313 -0.23438,0 -0.40625,-0.15625 -0.15625,-0.17188 -0.15625,-0.39063 0,-0.0937 0.0312,-0.20312 z"
         id="path105"
         inkscape:connector-curvature="0"
         style="fill:#000000;fill-rule:nonzero" />
      <path
         d="M 727.1391,60.417583 V 83.882148"
         id="path107"
         inkscape:connector-curvature="0"
         style="fill:#000000;fill-opacity:0;fill-rule:evenodd" />
      <path
         d="M 727.1391,60.417583 V 71.882148"
         id="path109"
         inkscape:connector-curvature="0"
         style="fill-rule:evenodd;stroke:#1a1a1a;stroke-width:2;stroke-linecap:butt;stroke-linejoin:round" />
      <path
         d="m 723.83563,71.88215 3.30347,9.076195 3.30346,-9.076195 z"
         id="path111"
         inkscape:connector-curvature="0"
         style="fill:#1a1a1a;fill-rule:evenodd;stroke:#1a1a1a;stroke-width:2;stroke-linecap:butt" />
      <path
         d="m 664.7454,27.693174 h 124.78742 v 32.72441 H 664.7454 Z"
         id="path113"
         inkscape:connector-curvature="0"
         style="fill:#ffff00;fill-rule:evenodd" />
      <path
         d="m 664.7454,27.693174 h 124.78742 v 32.72441 H 664.7454 Z"
         id="path115"
         inkscape:connector-curvature="0"
         style="fill-rule:evenodd;stroke:#000000;stroke-width:2;stroke-linecap:butt;stroke-linejoin:round" />
      <path
         d="m 684.7839,43.725376 v -0.25 q 0,-0.296875 0.10938,-0.40625 0.10937,-0.125 0.28125,-0.125 0.17187,0 0.28125,0.125 0.10937,0.109375 0.10937,0.40625 v 1.75 q 0,0.296875 -0.10937,0.421875 -0.10938,0.109375 -0.28125,0.109375 -0.15625,0 -0.26563,-0.09375 -0.10937,-0.109375 -0.125,-0.359375 -0.0625,-0.671875 -0.875,-1.265625 -0.79687,-0.59375 -2.17187,-0.59375 -1.73438,0 -2.64063,1.09375 -0.90625,1.078125 -0.90625,2.484375 0,1.515625 0.98438,2.5 1,0.984375 2.57812,0.984375 0.92188,0 1.85938,-0.328125 0.9375,-0.34375 1.70312,-1.09375 0.1875,-0.171875 0.34375,-0.171875 0.15625,0 0.26563,0.109375 0.10937,0.09375 0.10937,0.25 0,0.40625 -0.9375,1.015625 -1.51562,1 -3.375,1 -1.875,0 -3.09375,-1.203125 -1.20312,-1.203125 -1.20312,-3.046875 0,-1.890625 1.23437,-3.125 1.23438,-1.25 3.125,-1.25 1.78125,0 3,1.0625 z m 12.51123,3.25 q 0,1.78125 -1.28125,3.046875 -1.28125,1.265625 -3.07813,1.265625 -1.8125,0 -3.09375,-1.265625 -1.26562,-1.28125 -1.26562,-3.046875 0,-1.78125 1.26562,-3.046875 1.28125,-1.265625 3.09375,-1.265625 1.79688,0 3.07813,1.265625 1.28125,1.25 1.28125,3.046875 z m -0.79688,0 q 0,-1.46875 -1.04687,-2.5 -1.03125,-1.03125 -2.51563,-1.03125 -1.48437,0 -2.53125,1.046875 -1.04687,1.03125 -1.04687,2.484375 0,1.453125 1.04687,2.5 1.04688,1.03125 2.53125,1.03125 1.48438,0 2.51563,-1.03125 1.04687,-1.046875 1.04687,-2.5 z m 4.29249,-4.03125 v 0.78125 q 0.98437,-1.0625 1.98437,-1.0625 0.60938,0 1.0625,0.328125 0.45313,0.3125 0.76563,0.96875 0.51562,-0.65625 1.04687,-0.96875 0.53125,-0.328125 1.07813,-0.328125 0.84375,0 1.34375,0.546875 0.65625,0.703125 0.65625,1.546875 v 5.4375 h 0.65625 q 0.28125,0 0.39062,0.109375 0.125,0.109375 0.125,0.28125 0,0.171875 -0.125,0.28125 -0.10937,0.109375 -0.39062,0.109375 h -1.4375 v -6.15625 q 0,-0.59375 -0.35938,-0.984375 -0.35937,-0.390625 -0.82812,-0.390625 -0.4375,0 -0.90625,0.328125 -0.46875,0.3125 -1.07813,1.25 v 5.171875 h 0.65625 q 0.26563,0 0.39063,0.109375 0.125,0.109375 0.125,0.28125 0,0.171875 -0.125,0.28125 -0.125,0.109375 -0.39063,0.109375 h -1.4375 v -6.09375 q 0,-0.625 -0.375,-1.03125 -0.35937,-0.40625 -0.8125,-0.40625 -0.42187,0 -0.82812,0.28125 -0.5625,0.375 -1.1875,1.296875 v 5.171875 h 0.65625 q 0.28125,0 0.39062,0.109375 0.125,0.109375 0.125,0.28125 0,0.171875 -0.125,0.28125 -0.10937,0.109375 -0.39062,0.109375 h -2.09375 q -0.28125,0 -0.40625,-0.109375 -0.125,-0.109375 -0.125,-0.28125 0,-0.171875 0.125,-0.28125 0.125,-0.109375 0.40625,-0.109375 h 0.65625 v -6.46875 h -0.65625 q -0.28125,0 -0.40625,-0.109375 -0.125,-0.109375 -0.125,-0.28125 0,-0.171875 0.125,-0.28125 0.125,-0.109375 0.40625,-0.109375 z m 11.40185,0 v 0.78125 q 0.98438,-1.0625 1.98438,-1.0625 0.60937,0 1.0625,0.328125 0.45312,0.3125 0.76562,0.96875 0.51563,-0.65625 1.04688,-0.96875 0.53125,-0.328125 1.07812,-0.328125 0.84375,0 1.34375,0.546875 0.65625,0.703125 0.65625,1.546875 v 5.4375 h 0.65625 q 0.28125,0 0.39063,0.109375 0.125,0.109375 0.125,0.28125 0,0.171875 -0.125,0.28125 -0.10938,0.109375 -0.39063,0.109375 h -1.4375 v -6.15625 q 0,-0.59375 -0.35937,-0.984375 -0.35938,-0.390625 -0.82813,-0.390625 -0.4375,0 -0.90625,0.328125 -0.46875,0.3125 -1.07812,1.25 v 5.171875 h 0.65625 q 0.26562,0 0.39062,0.109375 0.125,0.109375 0.125,0.28125 0,0.171875 -0.125,0.28125 -0.125,0.109375 -0.39062,0.109375 h -1.4375 v -6.09375 q 0,-0.625 -0.375,-1.03125 -0.35938,-0.40625 -0.8125,-0.40625 -0.42188,0 -0.82813,0.28125 -0.5625,0.375 -1.1875,1.296875 v 5.171875 h 0.65625 q 0.28125,0 0.39063,0.109375 0.125,0.109375 0.125,0.28125 0,0.171875 -0.125,0.28125 -0.10938,0.109375 -0.39063,0.109375 h -2.09375 q -0.28125,0 -0.40625,-0.109375 -0.125,-0.109375 -0.125,-0.28125 0,-0.171875 0.125,-0.28125 0.125,-0.109375 0.40625,-0.109375 h 0.65625 v -6.46875 h -0.65625 q -0.28125,0 -0.40625,-0.109375 -0.125,-0.109375 -0.125,-0.28125 0,-0.171875 0.125,-0.28125 0.125,-0.109375 0.40625,-0.109375 z m 15.33936,-4 v 2.015625 h -1.15625 v -2.015625 z m 0.0156,4 v 7.25 h 3.0625 q 0.29688,0 0.40625,0.109375 0.125,0.109375 0.125,0.28125 0,0.171875 -0.125,0.28125 -0.10937,0.109375 -0.40625,0.109375 h -6.90625 q -0.26562,0 -0.39062,-0.109375 -0.125,-0.109375 -0.125,-0.28125 0,-0.171875 0.125,-0.28125 0.125,-0.109375 0.39062,-0.109375 h 3.0625 v -6.46875 h -2.26562 q -0.28125,0 -0.40625,-0.109375 -0.125,-0.109375 -0.125,-0.28125 0,-0.171875 0.125,-0.28125 0.125,-0.109375 0.40625,-0.109375 z m 9.38623,0 h 4.23438 q 0.28125,0 0.39062,0.109375 0.125,0.109375 0.125,0.28125 0,0.171875 -0.125,0.28125 -0.10937,0.109375 -0.39062,0.109375 h -4.23438 v 5.1875 q 0,0.6875 0.54688,1.140625 0.54687,0.453125 1.59375,0.453125 0.78125,0 1.70312,-0.234375 0.92188,-0.25 1.4375,-0.546875 0.1875,-0.109375 0.29688,-0.109375 0.15625,0 0.26562,0.125 0.10938,0.109375 0.10938,0.265625 0,0.140625 -0.125,0.25 -0.29688,0.3125 -1.4375,0.671875 -1.14063,0.359375 -2.1875,0.359375 -1.375,0 -2.1875,-0.640625 -0.79688,-0.640625 -0.79688,-1.734375 v -5.1875 h -1.4375 q -0.28125,0 -0.40625,-0.109375 -0.10937,-0.109375 -0.10937,-0.28125 0,-0.171875 0.10937,-0.28125 0.125,-0.109375 0.40625,-0.109375 h 1.4375 v -2.296875 q 0,-0.28125 0.10938,-0.40625 0.10937,-0.125 0.28125,-0.125 0.17187,0 0.28125,0.125 0.10937,0.125 0.10937,0.40625 z m 26.00684,1.984375 q 0.98437,0.484375 1.46875,1.265625 0.5,0.765625 0.5,1.65625 0,1.375 -1.04688,2.390625 -1.03125,1.015625 -2.51562,1.015625 -1.48438,0 -2.53125,-1.015625 -1.03125,-1.015625 -1.03125,-2.390625 0,-0.890625 0.5,-1.65625 0.5,-0.78125 1.48437,-1.265625 -0.85937,-0.484375 -1.25,-1.015625 -0.53125,-0.75 -0.53125,-1.65625 0,-1.28125 0.98438,-2.234375 0.98437,-0.96875 2.375,-0.96875 1.40625,0 2.39062,0.96875 0.98438,0.953125 0.98438,2.234375 0,0.90625 -0.54688,1.65625 -0.375,0.53125 -1.23437,1.015625 z m 0.98437,-2.640625 q 0,-1 -0.75,-1.71875 -0.75,-0.734375 -1.82812,-0.734375 -1.07813,0 -1.82813,0.734375 -0.75,0.71875 -0.75,1.703125 0,0.90625 0.73438,1.59375 0.75,0.6875 1.84375,0.6875 1.09375,0 1.82812,-0.6875 0.75,-0.6875 0.75,-1.578125 z m 0.20313,5.578125 q 0,-1.03125 -0.79688,-1.78125 -0.79687,-0.765625 -1.98437,-0.765625 -1.1875,0 -1.98438,0.765625 -0.79687,0.75 -0.79687,1.765625 0,1.0625 0.79687,1.84375 0.8125,0.78125 1.98438,0.78125 1.1875,0 1.98437,-0.78125 0.79688,-0.78125 0.79688,-1.828125 z m 7.01123,-8.53125 h 2.54687 l -2.76562,5.125 q -0.25,0.453125 -0.59375,0.453125 -0.23438,0 -0.40625,-0.15625 -0.15625,-0.171875 -0.15625,-0.390625 0,-0.09375 0.0312,-0.203125 z"
         id="path117"
         inkscape:connector-curvature="0"
         style="fill:#000000;fill-rule:nonzero" />
      <path
         d="m 377.3032,200.66142 h 40.31497"
         id="path119"
         inkscape:connector-curvature="0"
         style="fill:#000000;fill-opacity:0;fill-rule:evenodd" />
      <path
         d="m 377.3032,200.66142 h 28.31497"
         id="path121"
         inkscape:connector-curvature="0"
         style="fill-rule:evenodd;stroke:#0000ff;stroke-width:2;stroke-linecap:butt;stroke-linejoin:round" />
      <path
         d="m 405.61816,203.96489 9.07617,-3.30347 -9.07617,-3.30346 z"
         id="path123"
         inkscape:connector-curvature="0"
         style="fill:#0000ff;fill-rule:evenodd;stroke:#0000ff;stroke-width:2;stroke-linecap:butt" />
      <path
         d="m 607.32947,29.73819 v 0 c 0,1.129574 -0.91571,2.045275 -2.04529,2.045275 V 29.73819 c 0,0.564787 -0.45788,1.022636 -1.02264,1.022636 -0.56476,0 -1.02265,-0.457849 -1.02265,-1.022636 v 2.045275 H 494.16214 v 0 c -1.12957,0 -2.04528,0.915701 -2.04528,2.045274 v 24.543308 c 0,1.129574 0.91571,2.045277 2.04528,2.045277 1.12955,0 2.04526,-0.915703 2.04526,-2.045277 v -2.045276 h 109.07678 c 1.12958,0 2.04529,-0.915699 2.04529,-2.045273 z m -113.16733,6.135826 c 1.12955,0 2.04526,-0.915703 2.04526,-2.045277 v 0 c 0,-0.564785 -0.45786,-1.022636 -1.02265,-1.022636 -0.56479,0 -1.02261,0.457851 -1.02261,1.022636 z"
         id="path125"
         inkscape:connector-curvature="0"
         style="fill:#e9edee;fill-rule:evenodd" />
      <path
         d="m 494.16214,35.874016 c 1.12955,0 2.04526,-0.915703 2.04526,-2.045277 v 0 c 0,-0.564785 -0.45786,-1.022636 -1.02265,-1.022636 -0.56479,0 -1.02261,0.457851 -1.02261,1.022636 z m 111.12204,-4.090551 c 1.12958,0 2.04529,-0.915701 2.04529,-2.045275 0,-1.129576 -0.91571,-2.045277 -2.04529,-2.045277 -1.12958,0 -2.04529,0.915701 -2.04529,2.045277 0,0.564787 0.45789,1.022636 1.02265,1.022636 0.56475,0 1.02264,-0.457849 1.02264,-1.022636 z"
         id="path127"
         inkscape:connector-curvature="0"
         style="fill:#babdbe;fill-rule:evenodd" />
      <path
         d="m 492.11685,33.82874 c 0,-1.129574 0.91571,-2.045275 2.04529,-2.045275 h 109.07675 v -2.045274 0 c 0,-1.129576 0.91571,-2.045277 2.04529,-2.045277 1.12957,0 2.04528,0.915701 2.04528,2.045277 v 24.543308 c 0,1.129573 -0.91571,2.045272 -2.04528,2.045272 H 496.2074 v 2.045277 c 0,1.129574 -0.91571,2.045277 -2.04526,2.045277 -1.12958,0 -2.04529,-0.915703 -2.04529,-2.045277 z m 111.12204,-2.045275 h 2.04529 c 1.12958,0 2.04529,-0.915701 2.04529,-2.045274 m -2.04529,2.045274 v -2.045274 c 0,0.564787 -0.45789,1.022636 -1.02265,1.022636 -0.56475,0 -1.02264,-0.457849 -1.02264,-1.022636 m -109.07675,6.135826 v -2.045277 0 c 0,-0.564785 0.45782,-1.022636 1.02261,-1.022636 0.56479,0 1.02265,0.457851 1.02265,1.022636 0,1.129574 -0.91571,2.045277 -2.04526,2.045277 -1.12958,0 -2.04529,-0.915703 -2.04529,-2.045277 m 4.09055,0 v 22.498032"
         id="path129"
         inkscape:connector-curvature="0"
         style="fill:#000000;fill-opacity:0;fill-rule:evenodd" />
      <path
         d="m 492.11685,33.82874 c 0,-1.129574 0.91571,-2.045275 2.04529,-2.045275 h 109.07675 v -2.045274 0 c 0,-1.129576 0.91571,-2.045277 2.04529,-2.045277 1.12957,0 2.04528,0.915701 2.04528,2.045277 v 24.543308 c 0,1.129573 -0.91571,2.045272 -2.04528,2.045272 H 496.2074 v 2.045277 c 0,1.129574 -0.91571,2.045277 -2.04526,2.045277 -1.12958,0 -2.04529,-0.915703 -2.04529,-2.045277 z m 111.12204,-2.045275 h 2.04529 c 1.12958,0 2.04529,-0.915701 2.04529,-2.045274 m -2.04529,2.045274 v -2.045274 c 0,0.564787 -0.45789,1.022636 -1.02265,1.022636 -0.56475,0 -1.02264,-0.457849 -1.02264,-1.022636 m -109.07675,6.135826 v -2.045277 0 c 0,-0.564785 0.45782,-1.022636 1.02261,-1.022636 0.56479,0 1.02265,0.457851 1.02265,1.022636 0,1.129574 -0.91571,2.045277 -2.04526,2.045277 -1.12958,0 -2.04529,-0.915703 -2.04529,-2.045277 m 4.09055,0 v 22.498032"
         id="path131"
         inkscape:connector-curvature="0"
         style="fill-rule:evenodd;stroke:#1a1a1a;stroke-width:1;stroke-linecap:butt;stroke-linejoin:round" />
      <path
         d="m 521.5153,43.805744 v 5.453125 h 2.875 q 0.23438,0 0.32813,0.09375 0.10937,0.07813 0.10937,0.234375 0,0.140625 -0.10937,0.234375 -0.0937,0.09375 -0.32813,0.09375 h -5.125 q -0.23437,0 -0.34375,-0.09375 -0.0937,-0.09375 -0.0937,-0.234375 0,-0.15625 0.0937,-0.234375 0.10938,-0.09375 0.34375,-0.09375 h 1.57813 v -5.453125 h -1.42188 q -0.23437,0 -0.34375,-0.09375 -0.0937,-0.09375 -0.0937,-0.234375 0,-0.140625 0.0937,-0.234375 0.10938,-0.09375 0.34375,-0.09375 h 1.42188 v -1 q 0,-0.828125 0.67187,-1.4375 0.67188,-0.609375 1.78125,-0.609375 0.9375,0 1.98438,0.171875 0.40625,0.0625 0.48437,0.15625 0.0781,0.07813 0.0781,0.21875 0,0.140625 -0.0937,0.234375 -0.0937,0.09375 -0.25,0.09375 -0.0625,0 -0.20313,-0.03125 -1.1875,-0.171875 -2,-0.171875 -0.85937,0 -1.32812,0.421875 -0.45313,0.421875 -0.45313,0.953125 v 1 h 3.0625 q 0.23438,0 0.32813,0.09375 0.10937,0.09375 0.10937,0.234375 0,0.140625 -0.10937,0.234375 -0.0937,0.09375 -0.32813,0.09375 z m 13.58594,2.875 h -6.6875 q 0.17187,1.28125 1.0625,2.0625 0.89062,0.765625 2.21875,0.765625 0.73437,0 1.53125,-0.234375 0.8125,-0.25 1.3125,-0.640625 0.15625,-0.125 0.26562,-0.125 0.125,0 0.21875,0.109375 0.0937,0.09375 0.0937,0.21875 0,0.140625 -0.125,0.265625 -0.375,0.390625 -1.34375,0.734375 -0.95312,0.34375 -1.95312,0.34375 -1.6875,0 -2.82813,-1.109375 -1.125,-1.109375 -1.125,-2.6875 0,-1.421875 1.0625,-2.4375 1.0625,-1.03125 2.625,-1.03125 1.60938,0 2.64063,1.046875 1.04687,1.046875 1.03125,2.71875 z m -0.67188,-0.65625 q -0.1875,-1.09375 -1.03125,-1.765625 -0.82812,-0.6875 -1.96875,-0.6875 -1.15625,0 -1.98437,0.671875 -0.82813,0.671875 -1.03125,1.78125 z m 8.60157,3.890625 v -0.953125 q -1.42188,1.21875 -3.04688,1.21875 -1.1875,0 -1.85937,-0.59375 -0.65625,-0.609375 -0.65625,-1.484375 0,-0.953125 0.875,-1.65625 0.875,-0.71875 2.5625,-0.71875 0.45312,0 0.98437,0.0625 0.53125,0.0625 1.14063,0.1875 v -1.0625 q 0,-0.546875 -0.5,-0.9375 -0.5,-0.40625 -1.5,-0.40625 -0.76563,0 -2.14063,0.453125 -0.25,0.07813 -0.32812,0.07813 -0.125,0 -0.21875,-0.09375 -0.0781,-0.09375 -0.0781,-0.234375 0,-0.140625 0.0781,-0.21875 0.10937,-0.109375 0.875,-0.3125 1.21875,-0.328125 1.84375,-0.328125 1.25,0 1.9375,0.609375 0.70312,0.609375 0.70312,1.390625 v 4.34375 h 0.875 q 0.23438,0 0.32813,0.09375 0.10937,0.07813 0.10937,0.234375 0,0.140625 -0.10937,0.234375 -0.0937,0.09375 -0.32813,0.09375 z m 0,-3.265625 q -0.45313,-0.140625 -0.96875,-0.203125 -0.51563,-0.0625 -1.09375,-0.0625 -1.42188,0 -2.23438,0.625 -0.60937,0.453125 -0.60937,1.09375 0,0.59375 0.46875,1 0.46875,0.40625 1.35937,0.40625 0.84375,0 1.57813,-0.328125 0.73437,-0.34375 1.5,-1.09375 z m 6.36718,-3.5 h 3.5625 q 0.23438,0 0.32813,0.09375 0.10937,0.09375 0.10937,0.234375 0,0.140625 -0.10937,0.234375 -0.0937,0.09375 -0.32813,0.09375 h -3.5625 v 4.375 q 0,0.5625 0.45313,0.953125 0.46875,0.375 1.34375,0.375 0.67187,0 1.4375,-0.1875 0.78125,-0.203125 1.20312,-0.453125 0.15625,-0.109375 0.26563,-0.109375 0.125,0 0.21875,0.109375 0.0937,0.09375 0.0937,0.21875 0,0.125 -0.10938,0.21875 -0.25,0.265625 -1.21875,0.578125 -0.95312,0.296875 -1.84375,0.296875 -1.14062,0 -1.82812,-0.546875 -0.67188,-0.546875 -0.67188,-1.453125 v -4.375 h -1.21875 q -0.23437,0 -0.34375,-0.09375 -0.0937,-0.09375 -0.0937,-0.234375 0,-0.140625 0.0937,-0.234375 0.10938,-0.09375 0.34375,-0.09375 h 1.21875 v -1.9375 q 0,-0.234375 0.0937,-0.328125 0.0937,-0.109375 0.23438,-0.109375 0.14062,0 0.23437,0.109375 0.0937,0.09375 0.0937,0.328125 z m 13.19532,6.765625 v -0.96875 q -1.34375,1.234375 -2.90625,1.234375 -0.95313,0 -1.45313,-0.53125 -0.65625,-0.6875 -0.65625,-1.609375 v -4.234375 h -0.875 q -0.23437,0 -0.34375,-0.09375 -0.0937,-0.09375 -0.0937,-0.234375 0,-0.140625 0.0937,-0.234375 0.10938,-0.09375 0.34375,-0.09375 h 1.53125 v 4.890625 q 0,0.640625 0.40625,1.0625 0.40625,0.40625 1.01563,0.40625 1.60937,0 2.9375,-1.46875 v -4.234375 h -1.20313 q -0.23437,0 -0.34375,-0.09375 -0.0937,-0.09375 -0.0937,-0.234375 0,-0.140625 0.0937,-0.234375 0.10938,-0.09375 0.34375,-0.09375 h 1.85938 v 6.109375 h 0.5625 q 0.23437,0 0.32812,0.09375 0.10938,0.07813 0.10938,0.234375 0,0.140625 -0.10938,0.234375 -0.0937,0.09375 -0.32812,0.09375 z m 6.57031,-6.765625 v 1.65625 q 1.28125,-1.15625 1.92187,-1.484375 0.64063,-0.34375 1.17188,-0.34375 0.59375,0 1.09375,0.40625 0.5,0.390625 0.5,0.59375 0,0.140625 -0.0937,0.25 -0.0937,0.09375 -0.25,0.09375 -0.0781,0 -0.14063,-0.03125 -0.0469,-0.03125 -0.1875,-0.171875 -0.28125,-0.28125 -0.48437,-0.375 -0.20313,-0.109375 -0.39063,-0.109375 -0.4375,0 -1.04687,0.34375 -0.59375,0.34375 -2.09375,1.6875 v 3.59375 h 2.90625 q 0.25,0 0.34375,0.09375 0.10937,0.07813 0.10937,0.234375 0,0.140625 -0.10937,0.234375 -0.0937,0.09375 -0.34375,0.09375 h -5.14063 q -0.23437,0 -0.34375,-0.09375 -0.0937,-0.09375 -0.0937,-0.234375 0,-0.125 0.0937,-0.21875 0.0937,-0.09375 0.34375,-0.09375 h 1.57813 v -5.46875 h -1.20313 q -0.23437,0 -0.34375,-0.09375 -0.0937,-0.09375 -0.0937,-0.234375 0,-0.140625 0.0937,-0.234375 0.0937,-0.09375 0.34375,-0.09375 z m 13.94531,3.53125 h -6.6875 q 0.17188,1.28125 1.0625,2.0625 0.89063,0.765625 2.21875,0.765625 0.73438,0 1.53125,-0.234375 0.8125,-0.25 1.3125,-0.640625 0.15625,-0.125 0.26563,-0.125 0.125,0 0.21875,0.109375 0.0937,0.09375 0.0937,0.21875 0,0.140625 -0.125,0.265625 -0.375,0.390625 -1.34375,0.734375 -0.95313,0.34375 -1.95313,0.34375 -1.6875,0 -2.82812,-1.109375 -1.125,-1.109375 -1.125,-2.6875 0,-1.421875 1.0625,-2.4375 1.0625,-1.03125 2.625,-1.03125 1.60937,0 2.64062,1.046875 1.04688,1.046875 1.03125,2.71875 z m -0.67187,-0.65625 q -0.1875,-1.09375 -1.03125,-1.765625 -0.82813,-0.6875 -1.96875,-0.6875 -1.15625,0 -1.98438,0.671875 -0.82812,0.671875 -1.03125,1.78125 z"
         id="path133"
         inkscape:connector-curvature="0"
         style="fill:#0000ff;fill-rule:nonzero" />
      <path
         d="m 607.32947,44.05512 h 57.4173"
         id="path135"
         inkscape:connector-curvature="0"
         style="fill:#000000;fill-opacity:0;fill-rule:evenodd" />
      <path
         d="m 607.32947,44.05512 h 45.4173"
         id="path137"
         inkscape:connector-curvature="0"
         style="fill-rule:evenodd;stroke:#0000ff;stroke-width:2;stroke-linecap:butt;stroke-linejoin:round" />
      <path
         d="m 652.74677,47.35858 9.07617,-3.303463 -9.07617,-3.303467 z"
         id="path139"
         inkscape:connector-curvature="0"
         style="fill:#0000ff;fill-rule:evenodd;stroke:#0000ff;stroke-width:2;stroke-linecap:butt" />
    </g>
  </g>
</svg>
