<?xml version="1.0" encoding="UTF-8" standalone="no"?>
<svg
   xmlns:dc="http://purl.org/dc/elements/1.1/"
   xmlns:cc="http://creativecommons.org/ns#"
   xmlns:rdf="http://www.w3.org/1999/02/22-rdf-syntax-ns#"
   xmlns:svg="http://www.w3.org/2000/svg"
   xmlns="http://www.w3.org/2000/svg"
   xmlns:sodipodi="http://sodipodi.sourceforge.net/DTD/sodipodi-0.dtd"
   xmlns:inkscape="http://www.inkscape.org/namespaces/inkscape"
   version="1.1"
   viewBox="0 0 885.66925 139.56694"
   stroke-miterlimit="10"
   id="svg35"
   sodipodi:docname="three_categories.svg"
   width="885.66925"
   height="139.56694"
   style="fill:none;stroke:none;stroke-linecap:square;stroke-miterlimit:10"
   inkscape:version="0.92.5 (2060ec1f9f, 2020-04-08)">
  <metadata
     id="metadata41">
    <rdf:RDF>
      <cc:Work
         rdf:about="">
        <dc:format>image/svg+xml</dc:format>
        <dc:type
           rdf:resource="http://purl.org/dc/dcmitype/StillImage" />
        <dc:title></dc:title>
      </cc:Work>
    </rdf:RDF>
  </metadata>
  <defs
     id="defs39" />
  <sodipodi:namedview
     pagecolor="#ffffff"
     bordercolor="#666666"
     borderopacity="1"
     objecttolerance="10"
     gridtolerance="10"
     guidetolerance="10"
     inkscape:pageopacity="0"
     inkscape:pageshadow="2"
     inkscape:window-width="1916"
     inkscape:window-height="513"
     id="namedview37"
     showgrid="false"
     inkscape:zoom="0.31145833"
     inkscape:cx="-239.03213"
     inkscape:cy="1.75723"
     inkscape:window-x="3840"
     inkscape:window-y="547"
     inkscape:window-maximized="0"
     inkscape:current-layer="layer1"
     fit-margin-left="15"
     fit-margin-top="15.2"
     fit-margin-right="15"
     fit-margin-bottom="15" />
  <clipPath
     id="g800ff8fafc_0_158.0">
    <path
       d="M 0,0 H 960 V 540 H 0 Z"
       id="path2"
       inkscape:connector-curvature="0"
       style="clip-rule:nonzero" />
  </clipPath>
  <g
     inkscape:groupmode="layer"
     id="layer1"
     inkscape:label="Layer 1"
     style="display:inline">
    <rect
       style="fill:#ffffff;fill-opacity:1;stroke:#000000;stroke-opacity:0.01162792"
       id="rect882"
       width="963.21069"
       height="205.48495"
       x="-16.053513"
       y="-14.546772" />
  </g>
  <g
     inkscape:groupmode="layer"
     id="layer2"
     inkscape:label="boxes"
     style="display:inline">
    <path
       transform="translate(-51.20604,-132.19029)"
       d="m 66.70604,176.13124 h 193.4803 v 51.68503 H 66.70604 Z"
       id="path7"
       inkscape:connector-curvature="0"
       style="fill:#000000;fill-opacity:0;fill-rule:evenodd;stroke:none;stroke-linecap:square;stroke-miterlimit:10" />
    <path
       transform="translate(-51.20604,-132.19029)"
       d="m 66.70604,176.13124 h 193.4803 v 51.68503 H 66.70604 Z"
       id="path9"
       inkscape:connector-curvature="0"
       style="fill:none;fill-rule:evenodd;stroke:#000000;stroke-width:1;stroke-linecap:butt;stroke-linejoin:round;stroke-miterlimit:10" />
    <path
       transform="translate(-51.20604,-132.19029)"
       d="m 93.10196,198.81563 v 6.51562 q 0,1.64063 -1.09375,2.76563 -1.09375,1.10937 -2.640625,1.10937 -1.046875,0 -1.859375,-0.45312 -0.796875,-0.46875 -1.359375,-1.39063 -0.5625,-0.92187 -0.5625,-2.03125 v -6.51562 h -0.65625 q -0.28125,0 -0.40625,-0.0937 -0.125,-0.10938 -0.125,-0.29688 0,-0.17187 0.140625,-0.29687 0.109375,-0.0937 0.390625,-0.0937 h 2.875 q 0.265625,0 0.390625,0.10937 0.125,0.10938 0.125,0.28125 0,0.1875 -0.125,0.29688 -0.125,0.0937 -0.390625,0.0937 h -1.4375 v 6.51562 q 0,1.29688 0.875,2.20313 0.875,0.89062 2.09375,0.89062 0.765625,0 1.390625,-0.34375 0.640625,-0.35937 1.109375,-1.09375 0.484375,-0.73437 0.484375,-1.65625 v -6.51562 h -1.4375 q -0.265625,0 -0.390625,-0.0937 -0.125,-0.10938 -0.125,-0.29688 0,-0.17187 0.125,-0.28125 0.125,-0.10937 0.390625,-0.10937 h 2.875 q 0.28125,0 0.40625,0.10937 0.125,0.10938 0.125,0.28125 0,0.1875 -0.125,0.29688 -0.125,0.0937 -0.40625,0.0937 z m 5.120606,2.04687 v 1.17188 q 0.8125,-0.82813 1.46875,-1.14063 0.656254,-0.3125 1.484374,-0.3125 0.89063,0 1.625,0.375 0.51563,0.28125 0.9375,0.9375 0.42188,0.64063 0.42188,1.3125 v 4.90625 h 0.65625 q 0.28125,0 0.40625,0.10938 0.125,0.10937 0.125,0.28125 0,0.17187 -0.125,0.28125 -0.125,0.10937 -0.40625,0.10937 h -2.07813 q -0.29687,0 -0.42187,-0.10937 -0.10938,-0.10938 -0.10938,-0.28125 0,-0.17188 0.10938,-0.28125 0.125,-0.10938 0.42187,-0.10938 h 0.64063 v -4.78125 q 0,-0.82812 -0.60938,-1.39062 -0.59375,-0.57813 -1.60937,-0.57813 -0.76563,0 -1.328129,0.3125 -0.5625,0.3125 -1.609375,1.54688 v 4.89062 h 0.875 q 0.28125,0 0.390625,0.10938 0.125,0.10937 0.125,0.28125 0,0.17187 -0.125,0.28125 -0.109375,0.10937 -0.390625,0.10937 h -2.546875 q -0.265625,0 -0.390625,-0.10937 -0.125,-0.10938 -0.125,-0.28125 0,-0.17188 0.125,-0.28125 0.125,-0.10938 0.390625,-0.10938 h 0.890625 v -6.46875 h -0.65625 q -0.28125,0 -0.40625,-0.10937 -0.125,-0.10938 -0.125,-0.28125 0,-0.17188 0.125,-0.28125 0.125,-0.10938 0.40625,-0.10938 z m 17.167484,0.78125 v -0.25 q 0,-0.29687 0.10937,-0.40625 0.10938,-0.125 0.28125,-0.125 0.17188,0 0.28125,0.125 0.10938,0.10938 0.10938,0.40625 v 1.75 q 0,0.29688 -0.10938,0.42188 -0.10937,0.10937 -0.28125,0.10937 -0.15625,0 -0.26562,-0.0937 -0.10938,-0.10937 -0.125,-0.35937 -0.0625,-0.67188 -0.875,-1.26563 -0.79688,-0.59375 -2.17188,-0.59375 -1.73437,0 -2.64062,1.09375 -0.90625,1.07813 -0.90625,2.48438 0,1.51562 0.98437,2.5 1,0.98437 2.57813,0.98437 0.92187,0 1.85937,-0.32812 0.9375,-0.34375 1.70313,-1.09375 0.1875,-0.17188 0.34375,-0.17188 0.15625,0 0.26562,0.10938 0.10938,0.0937 0.10938,0.25 0,0.40625 -0.9375,1.01562 -1.51563,1 -3.375,1 -1.875,0 -3.09375,-1.20312 -1.20313,-1.20313 -1.20313,-3.04688 0,-1.89062 1.23438,-3.125 1.23437,-1.25 3.125,-1.25 1.78125,0 3,1.0625 z m 5.58935,-4.39062 V 202.05 q 0.73438,-0.8125 1.40625,-1.14062 0.6875,-0.32813 1.54688,-0.32813 0.90625,0 1.53125,0.32813 0.64062,0.3125 1.0625,0.98437 0.4375,0.65625 0.4375,1.39063 v 4.82812 h 0.85937 q 0.29688,0 0.40625,0.10938 0.125,0.10937 0.125,0.28125 0,0.17187 -0.125,0.28125 -0.10937,0.10937 -0.40625,0.10937 h -2.53125 q -0.28125,0 -0.40625,-0.10937 -0.10937,-0.10938 -0.10937,-0.28125 0,-0.17188 0.10937,-0.28125 0.125,-0.10938 0.40625,-0.10938 h 0.875 v -4.78125 q 0,-0.84375 -0.60937,-1.40625 -0.60938,-0.5625 -1.6875,-0.5625 -0.85938,0 -1.45313,0.42188 -0.4375,0.29687 -1.4375,1.39062 v 4.9375 h 0.875 q 0.28125,0 0.39063,0.10938 0.125,0.10937 0.125,0.28125 0,0.17187 -0.125,0.28125 -0.10938,0.10937 -0.39063,0.10937 h -2.54687 q -0.26563,0 -0.39063,-0.10937 -0.125,-0.10938 -0.125,-0.28125 0,-0.17188 0.125,-0.28125 0.125,-0.10938 0.39063,-0.10938 h 0.89062 v -10.07812 h -1.04687 q -0.28125,0 -0.40625,-0.10938 -0.125,-0.10937 -0.125,-0.28125 0,-0.17187 0.125,-0.28125 0.125,-0.10937 0.40625,-0.10937 z m 16.19873,11.64062 v -1.125 q -1.6875,1.4375 -3.625,1.4375 -1.40625,0 -2.1875,-0.70312 -0.78125,-0.71875 -0.78125,-1.75 0,-1.14063 1.03125,-1.98438 1.04688,-0.84375 3.03125,-0.84375 0.54688,0 1.17188,0.0781 0.625,0.0625 1.35937,0.21875 v -1.26563 q 0,-0.64062 -0.59375,-1.10937 -0.59375,-0.48438 -1.78125,-0.48438 -0.90625,0 -2.54687,0.53125 -0.29688,0.0937 -0.375,0.0937 -0.15625,0 -0.26563,-0.10937 -0.10937,-0.10938 -0.10937,-0.28125 0,-0.15625 0.0937,-0.25 0.14062,-0.14063 1.0625,-0.375 1.4375,-0.39063 2.1875,-0.39063 1.46875,0 2.29687,0.73438 0.82813,0.71875 0.82813,1.64062 v 5.15625 h 1.03125 q 0.29687,0 0.40625,0.10938 0.125,0.10937 0.125,0.28125 0,0.17187 -0.125,0.28125 -0.10938,0.10937 -0.40625,0.10937 z m 0,-3.875 q -0.54687,-0.15625 -1.15625,-0.23437 -0.60937,-0.0781 -1.28125,-0.0781 -1.70312,0 -2.65625,0.73438 -0.73437,0.54687 -0.73437,1.3125 0,0.70312 0.54687,1.1875 0.5625,0.48437 1.625,0.48437 1,0 1.85938,-0.40625 0.875,-0.40625 1.79687,-1.28125 z m 6.65186,-4.15625 v 1.17188 q 0.8125,-0.82813 1.46875,-1.14063 0.65625,-0.3125 1.48437,-0.3125 0.89063,0 1.625,0.375 0.51563,0.28125 0.9375,0.9375 0.42188,0.64063 0.42188,1.3125 v 4.90625 h 0.65625 q 0.28125,0 0.40625,0.10938 0.125,0.10937 0.125,0.28125 0,0.17187 -0.125,0.28125 -0.125,0.10937 -0.40625,0.10937 h -2.07813 q -0.29687,0 -0.42187,-0.10937 -0.10938,-0.10938 -0.10938,-0.28125 0,-0.17188 0.10938,-0.28125 0.125,-0.10938 0.42187,-0.10938 h 0.64063 v -4.78125 q 0,-0.82812 -0.60938,-1.39062 -0.59375,-0.57813 -1.60937,-0.57813 -0.76563,0 -1.32813,0.3125 -0.5625,0.3125 -1.60937,1.54688 v 4.89062 h 0.875 q 0.28125,0 0.39062,0.10938 0.125,0.10937 0.125,0.28125 0,0.17187 -0.125,0.28125 -0.10937,0.10937 -0.39062,0.10937 h -2.54688 q -0.26562,0 -0.39062,-0.10937 -0.125,-0.10938 -0.125,-0.28125 0,-0.17188 0.125,-0.28125 0.125,-0.10938 0.39062,-0.10938 h 0.89063 v -6.46875 h -0.65625 q -0.28125,0 -0.40625,-0.10937 -0.125,-0.10938 -0.125,-0.28125 0,-0.17188 0.125,-0.28125 0.125,-0.10938 0.40625,-0.10938 z m 16.54248,1.42188 v -1.42188 h 1.82812 q 0.26563,0 0.39063,0.10938 0.125,0.10937 0.125,0.28125 0,0.17187 -0.125,0.28125 -0.125,0.10937 -0.39063,0.10937 h -1.0625 v 7.78125 q 0,0.78125 -0.32812,1.40625 -0.21875,0.40625 -0.75,0.82813 -0.51563,0.4375 -0.9375,0.625 -0.42188,0.1875 -1.14063,0.1875 h -2.20312 q -0.28125,0 -0.40625,-0.10938 -0.125,-0.0937 -0.125,-0.28125 0,-0.17187 0.125,-0.28125 0.125,-0.10937 0.40625,-0.10937 h 2.23437 q 0.6875,0 1.23438,-0.35938 0.54687,-0.34375 0.92187,-1.01562 0.20313,-0.39063 0.20313,-1 v -2.32813 q -1.26563,1.71875 -3.23438,1.71875 -1.60937,0 -2.78125,-1.1875 -1.15625,-1.20312 -1.15625,-2.89062 0,-1.67188 1.15625,-2.85938 1.17188,-1.1875 2.78125,-1.1875 1.96875,0 3.23438,1.70313 z m 0,2.34375 q 0,-1.35938 -0.95313,-2.3125 -0.9375,-0.95313 -2.25,-0.95313 -1.29687,0 -2.23437,0.95313 -0.9375,0.95312 -0.9375,2.3125 0,1.375 0.9375,2.32812 0.9375,0.95313 2.23437,0.95313 1.3125,0 2.25,-0.95313 0.95313,-0.95312 0.95313,-2.32812 z m 12.9956,0.4375 h -7.95312 q 0.21875,1.51562 1.28125,2.4375 1.0625,0.92187 2.625,0.92187 0.875,0 1.82812,-0.28125 0.95313,-0.29687 1.5625,-0.76562 0.17188,-0.14063 0.29688,-0.14063 0.15625,0 0.26562,0.125 0.10938,0.10938 0.10938,0.26563 0,0.15625 -0.15625,0.29687 -0.4375,0.46875 -1.57813,0.875 -1.14062,0.40625 -2.32812,0.40625 -2,0 -3.34375,-1.3125 -1.34375,-1.3125 -1.34375,-3.1875 0,-1.6875 1.25,-2.90625 1.26562,-1.21875 3.125,-1.21875 1.90625,0 3.14062,1.25 1.23438,1.25 1.21875,3.23438 z m -0.79687,-0.79688 q -0.23438,-1.28125 -1.21875,-2.09375 -0.98438,-0.8125 -2.34375,-0.8125 -1.375,0 -2.35938,0.8125 -0.96875,0.79688 -1.21875,2.09375 z m 11.79248,-7.01562 v 10.85937 h 1.04687 q 0.28125,0 0.40625,0.10938 0.125,0.10937 0.125,0.28125 0,0.17187 -0.125,0.28125 -0.125,0.10937 -0.40625,0.10937 h -1.82812 v -1.54687 q -1.35938,1.85937 -3.45313,1.85937 -1.04687,0 -2.01562,-0.5625 -0.96875,-0.5625 -1.53125,-1.59375 -0.5625,-1.04687 -0.5625,-2.15625 0,-1.10937 0.5625,-2.14062 0.5625,-1.04688 1.53125,-1.60938 0.96875,-0.5625 2.03125,-0.5625 2.04687,0 3.4375,1.85938 v -4.40625 h -1.04688 q -0.28125,0 -0.40625,-0.10938 -0.125,-0.10937 -0.125,-0.28125 0,-0.17187 0.125,-0.28125 0.125,-0.10937 0.40625,-0.10937 z m -0.78125,7.64062 q 0,-1.48437 -1.01563,-2.5 -1,-1.03125 -2.375,-1.03125 -1.39062,0 -2.39062,1.03125 -1,1.01563 -1,2.5 0,1.46875 1,2.5 1,1.03125 2.39062,1.03125 1.375,0 2.375,-1.03125 1.01563,-1.03125 1.01563,-2.5 z m 19.25683,-3.25 v 6.46875 h 3.42188 q 0.28125,0 0.39062,0.10938 0.125,0.10937 0.125,0.28125 0,0.17187 -0.125,0.28125 -0.10937,0.10937 -0.39062,0.10937 h -6.09375 q -0.28125,0 -0.40625,-0.10937 -0.10938,-0.10938 -0.10938,-0.28125 0,-0.17188 0.10938,-0.28125 0.125,-0.10938 0.40625,-0.10938 h 1.875 v -6.46875 h -1.6875 q -0.26563,0 -0.39063,-0.10937 -0.125,-0.10938 -0.125,-0.28125 0,-0.17188 0.125,-0.28125 0.125,-0.10938 0.39063,-0.10938 h 1.6875 v -1.1875 q 0,-0.98437 0.79687,-1.70312 0.8125,-0.71875 2.125,-0.71875 1.10938,0 2.35938,0.20312 0.46875,0.0781 0.5625,0.1875 0.0937,0.0937 0.0937,0.25 0,0.17188 -0.10938,0.28125 -0.10937,0.10938 -0.29687,0.10938 -0.0625,0 -0.25,-0.0312 -1.39063,-0.21875 -2.35938,-0.21875 -1.01562,0 -1.57812,0.5 -0.54688,0.5 -0.54688,1.14062 v 1.1875 h 3.64063 q 0.28125,0 0.40625,0.10938 0.125,0.10937 0.125,0.28125 0,0.17187 -0.125,0.28125 -0.125,0.10937 -0.40625,0.10937 z m 12.30811,-4.78125 v 2.01563 h -1.15625 v -2.01563 z m 0.0156,4 v 7.25 h 3.0625 q 0.29688,0 0.40625,0.10938 0.125,0.10937 0.125,0.28125 0,0.17187 -0.125,0.28125 -0.10937,0.10937 -0.40625,0.10937 h -6.90625 q -0.26562,0 -0.39062,-0.10937 -0.125,-0.10938 -0.125,-0.28125 0,-0.17188 0.125,-0.28125 0.125,-0.10938 0.39062,-0.10938 h 3.0625 v -6.46875 h -2.26562 q -0.28125,0 -0.40625,-0.10937 -0.125,-0.10938 -0.125,-0.28125 0,-0.17188 0.125,-0.28125 0.125,-0.10938 0.40625,-0.10938 z m 11.38623,-3.60937 v 10.85937 h 3.0625 q 0.28125,0 0.40625,0.10938 0.125,0.10937 0.125,0.28125 0,0.17187 -0.125,0.28125 -0.125,0.10937 -0.40625,0.10937 h -6.90625 q -0.28125,0 -0.40625,-0.10937 -0.10937,-0.10938 -0.10937,-0.28125 0,-0.17188 0.10937,-0.28125 0.125,-0.10938 0.40625,-0.10938 h 3.0625 v -10.07812 h -2.23437 q -0.28125,0 -0.40625,-0.10938 -0.125,-0.10937 -0.125,-0.28125 0,-0.17187 0.10937,-0.28125 0.125,-0.10937 0.42188,-0.10937 z m 15.22998,7.8125 h -7.95312 q 0.21875,1.51562 1.28125,2.4375 1.0625,0.92187 2.625,0.92187 0.875,0 1.82812,-0.28125 0.95313,-0.29687 1.5625,-0.76562 0.17188,-0.14063 0.29688,-0.14063 0.15625,0 0.26562,0.125 0.10938,0.10938 0.10938,0.26563 0,0.15625 -0.15625,0.29687 -0.4375,0.46875 -1.57813,0.875 -1.14062,0.40625 -2.32812,0.40625 -2,0 -3.34375,-1.3125 -1.34375,-1.3125 -1.34375,-3.1875 0,-1.6875 1.25,-2.90625 1.26562,-1.21875 3.125,-1.21875 1.90625,0 3.14062,1.25 1.23438,1.25 1.21875,3.23438 z m -0.79687,-0.79688 q -0.23438,-1.28125 -1.21875,-2.09375 -0.98438,-0.8125 -2.34375,-0.8125 -1.375,0 -2.35938,0.8125 -0.96875,0.79688 -1.21875,2.09375 z"
       id="path11"
       inkscape:connector-curvature="0"
       style="fill:#000000;fill-rule:nonzero;stroke:none;stroke-linecap:square;stroke-miterlimit:10" />
    <path
       transform="translate(-51.20604,-132.19029)"
       d="M 402.21783,147.69029 H 595.69818 V 256.25723 H 402.21783 Z"
       id="path13"
       inkscape:connector-curvature="0"
       style="fill:#000000;fill-opacity:0;fill-rule:evenodd;stroke:none;stroke-linecap:square;stroke-miterlimit:10" />
    <path
       transform="translate(-51.20604,-132.19029)"
       d="M 402.21783,147.69029 H 595.69818 V 256.25723 H 402.21783 Z"
       id="path15"
       inkscape:connector-curvature="0"
       style="fill:none;fill-rule:evenodd;stroke:#000000;stroke-width:1;stroke-linecap:butt;stroke-linejoin:round;stroke-miterlimit:10" />
    <path
       transform="translate(-51.20604,-132.19029)"
       d="m 451.47778,170.65938 v 4.45312 h 2.67187 q 0.26563,0 0.39063,0.10938 0.125,0.10937 0.125,0.28125 0,0.17187 -0.125,0.28125 -0.125,0.10937 -0.39063,0.10937 h -4.5 q -0.28125,0 -0.40625,-0.10937 -0.125,-0.10938 -0.125,-0.28125 0,-0.17188 0.125,-0.28125 0.125,-0.10938 0.40625,-0.10938 h 1.04688 v -9.29687 h -1.04688 q -0.28125,0 -0.40625,-0.0937 -0.125,-0.10938 -0.125,-0.29688 0,-0.17187 0.14063,-0.29687 0.10937,-0.0937 0.39062,-0.0937 h 8.57813 v 2.6875 q 0,0.28125 -0.10938,0.40625 -0.10937,0.10937 -0.28125,0.10937 -0.17187,0 -0.29687,-0.10937 -0.10938,-0.125 -0.10938,-0.40625 v -1.90625 h -5.95312 v 4.0625 h 2.78125 v -0.89063 q 0,-0.28125 0.10937,-0.39062 0.125,-0.125 0.29688,-0.125 0.17187,0 0.28125,0.125 0.10937,0.10937 0.10937,0.39062 v 2.54688 q 0,0.28125 -0.10937,0.40625 -0.10938,0.10937 -0.28125,0.10937 -0.17188,0 -0.29688,-0.10937 -0.10937,-0.125 -0.10937,-0.40625 v -0.875 z m 13.66748,-6.79688 v 2.01563 h -1.15625 v -2.01563 z m 0.0156,4 v 7.25 h 3.0625 q 0.29688,0 0.40625,0.10938 0.125,0.10937 0.125,0.28125 0,0.17187 -0.125,0.28125 -0.10937,0.10937 -0.40625,0.10937 h -6.90625 q -0.26562,0 -0.39062,-0.10937 -0.125,-0.10938 -0.125,-0.28125 0,-0.17188 0.125,-0.28125 0.125,-0.10938 0.39062,-0.10938 h 3.0625 v -6.46875 h -2.26562 q -0.28125,0 -0.40625,-0.10937 -0.125,-0.10938 -0.125,-0.28125 0,-0.17188 0.125,-0.28125 0.125,-0.10938 0.40625,-0.10938 z m 11.38624,-3.60937 v 10.85937 h 3.0625 q 0.28125,0 0.40625,0.10938 0.125,0.10937 0.125,0.28125 0,0.17187 -0.125,0.28125 -0.125,0.10937 -0.40625,0.10937 h -6.90625 q -0.28125,0 -0.40625,-0.10937 -0.10938,-0.10938 -0.10938,-0.28125 0,-0.17188 0.10938,-0.28125 0.125,-0.10938 0.40625,-0.10938 h 3.0625 v -10.07812 h -2.23438 q -0.28125,0 -0.40625,-0.10938 -0.125,-0.10937 -0.125,-0.28125 0,-0.17187 0.10938,-0.28125 0.125,-0.10937 0.42187,-0.10937 z m 15.22998,7.8125 h -7.95313 q 0.21875,1.51562 1.28125,2.4375 1.0625,0.92187 2.625,0.92187 0.875,0 1.82813,-0.28125 0.95312,-0.29687 1.5625,-0.76562 0.17187,-0.14063 0.29687,-0.14063 0.15625,0 0.26563,0.125 0.10937,0.10938 0.10937,0.26563 0,0.15625 -0.15625,0.29687 -0.4375,0.46875 -1.57812,0.875 -1.14063,0.40625 -2.32813,0.40625 -2,0 -3.34375,-1.3125 -1.34375,-1.3125 -1.34375,-3.1875 0,-1.6875 1.25,-2.90625 1.26563,-1.21875 3.125,-1.21875 1.90625,0 3.14063,1.25 1.23437,1.25 1.21875,3.23438 z m -0.79688,-0.79688 q -0.23437,-1.28125 -1.21875,-2.09375 -0.98437,-0.8125 -2.34375,-0.8125 -1.375,0 -2.35937,0.8125 -0.96875,0.79688 -1.21875,2.09375 z m 22.06934,4.625 -0.96875,0.0156 -1.71875,-5.01563 -1.70313,5.01563 -0.96875,-0.0156 -1.60937,-7.25 h -0.375 q -0.28125,0 -0.40625,-0.10937 -0.125,-0.10938 -0.125,-0.28125 0,-0.17188 0.125,-0.28125 0.125,-0.10938 0.40625,-0.10938 h 2.14062 q 0.26563,0 0.39063,0.10938 0.125,0.10937 0.125,0.28125 0,0.17187 -0.125,0.28125 -0.125,0.10937 -0.39063,0.10937 h -1 l 1.39063,6.1875 1.65625,-4.9375 h 0.92187 l 1.71875,4.9375 1.3125,-6.1875 h -0.98437 q -0.26563,0 -0.39063,-0.10937 -0.125,-0.10938 -0.125,-0.28125 0,-0.17188 0.10938,-0.28125 0.125,-0.10938 0.40625,-0.10938 h 2.14062 q 0.28125,0 0.40625,0.10938 0.125,0.10937 0.125,0.28125 0,0.17187 -0.125,0.28125 -0.125,0.10937 -0.40625,0.10937 h -0.375 z m 9.10498,-12.03125 v 2.01563 h -1.15625 v -2.01563 z m 0.0156,4 v 7.25 h 3.0625 q 0.29688,0 0.40625,0.10938 0.125,0.10937 0.125,0.28125 0,0.17187 -0.125,0.28125 -0.10937,0.10937 -0.40625,0.10937 h -6.90625 q -0.26562,0 -0.39062,-0.10937 -0.125,-0.10938 -0.125,-0.28125 0,-0.17188 0.125,-0.28125 0.125,-0.10938 0.39062,-0.10938 h 3.0625 v -6.46875 h -2.26562 q -0.28125,0 -0.40625,-0.10937 -0.125,-0.10938 -0.125,-0.28125 0,-0.17188 0.125,-0.28125 0.125,-0.10938 0.40625,-0.10938 z m 9.38623,0 h 4.23438 q 0.28125,0 0.39062,0.10938 0.125,0.10937 0.125,0.28125 0,0.17187 -0.125,0.28125 -0.10937,0.10937 -0.39062,0.10937 h -4.23438 v 5.1875 q 0,0.6875 0.54688,1.14063 0.54687,0.45312 1.59375,0.45312 0.78125,0 1.70312,-0.23437 0.92188,-0.25 1.4375,-0.54688 0.1875,-0.10937 0.29688,-0.10937 0.15625,0 0.26562,0.125 0.10938,0.10937 0.10938,0.26562 0,0.14063 -0.125,0.25 -0.29688,0.3125 -1.4375,0.67188 -1.14063,0.35937 -2.1875,0.35937 -1.375,0 -2.1875,-0.64062 -0.79688,-0.64063 -0.79688,-1.73438 v -5.1875 h -1.4375 q -0.28125,0 -0.40625,-0.10937 -0.10937,-0.10938 -0.10937,-0.28125 0,-0.17188 0.10937,-0.28125 0.125,-0.10938 0.40625,-0.10938 h 1.4375 v -2.29687 q 0,-0.28125 0.10938,-0.40625 0.10937,-0.125 0.28125,-0.125 0.17187,0 0.28125,0.125 0.10937,0.125 0.10937,0.40625 z m 10.44873,-3.60937 V 169.05 q 0.73438,-0.8125 1.40625,-1.14062 0.6875,-0.32813 1.54688,-0.32813 0.90625,0 1.53125,0.32813 0.64062,0.3125 1.0625,0.98437 0.4375,0.65625 0.4375,1.39063 v 4.82812 h 0.85937 q 0.29688,0 0.40625,0.10938 0.125,0.10937 0.125,0.28125 0,0.17187 -0.125,0.28125 -0.10937,0.10937 -0.40625,0.10937 h -2.53125 q -0.28125,0 -0.40625,-0.10937 -0.10937,-0.10938 -0.10937,-0.28125 0,-0.17188 0.10937,-0.28125 0.125,-0.10938 0.40625,-0.10938 h 0.875 v -4.78125 q 0,-0.84375 -0.60937,-1.40625 -0.60938,-0.5625 -1.6875,-0.5625 -0.85938,0 -1.45313,0.42188 -0.4375,0.29687 -1.4375,1.39062 v 4.9375 h 0.875 q 0.28125,0 0.39063,0.10938 0.125,0.10937 0.125,0.28125 0,0.17187 -0.125,0.28125 -0.10938,0.10937 -0.39063,0.10937 h -2.54687 q -0.26563,0 -0.39063,-0.10937 -0.125,-0.10938 -0.125,-0.28125 0,-0.17188 0.125,-0.28125 0.125,-0.10938 0.39063,-0.10938 h 0.89062 V 165.03438 H 540.177 q -0.28125,0 -0.40625,-0.10938 -0.125,-0.10937 -0.125,-0.28125 0,-0.17187 0.125,-0.28125 0.125,-0.10937 0.40625,-0.10937 z"
       id="path17"
       inkscape:connector-curvature="0"
       style="fill:#000000;fill-rule:nonzero;stroke:none;stroke-linecap:square;stroke-miterlimit:10" />
    <path
       transform="translate(-51.20604,-132.19029)"
       d="m 461.7256,197.89375 v -1.14063 q -1.60938,1.45313 -3.45313,1.45313 -1.14062,0 -1.73437,-0.625 -0.78125,-0.8125 -0.78125,-1.90625 v -5.03125 h -1.04688 q -0.28125,0 -0.40625,-0.10938 -0.10937,-0.10937 -0.10937,-0.28125 0,-0.17187 0.10937,-0.28125 0.125,-0.10937 0.40625,-0.10937 h 1.82813 v 5.8125 q 0,0.76562 0.48437,1.26562 0.48438,0.48438 1.20313,0.48438 1.90625,0 3.5,-1.75 v -5.03125 h -1.4375 q -0.28125,0 -0.40625,-0.10938 -0.125,-0.10937 -0.125,-0.28125 0,-0.17187 0.125,-0.28125 0.125,-0.10937 0.40625,-0.10937 h 2.20312 v 7.25 h 0.67188 q 0.26562,0 0.39062,0.10937 0.125,0.10938 0.125,0.28125 0,0.17188 -0.125,0.28125 -0.125,0.10938 -0.39062,0.10938 z m 6.21436,-8.03125 v 1.17187 q 0.8125,-0.82812 1.46875,-1.14062 0.65625,-0.3125 1.48437,-0.3125 0.89063,0 1.625,0.375 0.51563,0.28125 0.9375,0.9375 0.42188,0.64062 0.42188,1.3125 v 4.90625 h 0.65625 q 0.28125,0 0.40625,0.10937 0.125,0.10938 0.125,0.28125 0,0.17188 -0.125,0.28125 -0.125,0.10938 -0.40625,0.10938 h -2.07813 q -0.29687,0 -0.42187,-0.10938 -0.10938,-0.10937 -0.10938,-0.28125 0,-0.17187 0.10938,-0.28125 0.125,-0.10937 0.42187,-0.10937 h 0.64063 v -4.78125 q 0,-0.82813 -0.60938,-1.39063 -0.59375,-0.57812 -1.60937,-0.57812 -0.76563,0 -1.32813,0.3125 -0.5625,0.3125 -1.60937,1.54687 v 4.89063 h 0.875 q 0.28125,0 0.39062,0.10937 0.125,0.10938 0.125,0.28125 0,0.17188 -0.125,0.28125 -0.10937,0.10938 -0.39062,0.10938 h -2.54688 q -0.26562,0 -0.39062,-0.10938 -0.125,-0.10937 -0.125,-0.28125 0,-0.17187 0.125,-0.28125 0.125,-0.10937 0.39062,-0.10937 h 0.89063 v -6.46875 h -0.65625 q -0.28125,0 -0.40625,-0.10938 -0.125,-0.10937 -0.125,-0.28125 0,-0.17187 0.125,-0.28125 0.125,-0.10937 0.40625,-0.10937 z m 16.4956,0.5 q 0,-0.26563 0.10938,-0.375 0.10937,-0.125 0.28125,-0.125 0.17187,0 0.28125,0.125 0.10937,0.10937 0.10937,0.40625 v 1.32812 q 0,0.28125 -0.10937,0.40625 -0.10938,0.10938 -0.28125,0.10938 -0.17188,0 -0.28125,-0.0937 -0.0937,-0.10938 -0.10938,-0.34375 -0.0625,-0.54688 -0.57812,-0.90625 -0.76563,-0.53125 -2.01563,-0.53125 -1.3125,0 -2.03125,0.53125 -0.54687,0.40625 -0.54687,0.89062 0,0.5625 0.64062,0.9375 0.45313,0.25 1.70313,0.39063 1.60937,0.17187 2.25,0.40625 0.89062,0.32812 1.32812,0.90625 0.45313,0.5625 0.45313,1.23437 0,0.98438 -0.95313,1.76563 -0.95312,0.78125 -2.8125,0.78125 -1.84375,0 -3.01562,-0.9375 0,0.3125 -0.0469,0.40625 -0.0312,0.0937 -0.125,0.15625 -0.0937,0.0625 -0.21875,0.0625 -0.17187,0 -0.28125,-0.10938 -0.10937,-0.125 -0.10937,-0.40625 v -1.60937 q 0,-0.28125 0.10937,-0.39063 0.10938,-0.125 0.28125,-0.125 0.17188,0 0.28125,0.125 0.10938,0.10938 0.10938,0.29688 0,0.42187 0.21875,0.71875 0.32812,0.4375 1.03125,0.73437 0.71875,0.29688 1.75,0.29688 1.51562,0 2.25,-0.5625 0.75,-0.57813 0.75,-1.20313 0,-0.71875 -0.75,-1.15625 -0.76563,-0.4375 -2.21875,-0.57812 -1.45313,-0.15625 -2.07813,-0.39063 -0.625,-0.25 -0.98437,-0.73437 -0.35938,-0.48438 -0.35938,-1.03125 0,-1.01563 0.98438,-1.59375 0.98437,-0.59375 2.35937,-0.59375 1.60938,0 2.625,0.78125 z m 7.21436,-0.5 h 4.23437 q 0.28125,0 0.39063,0.10937 0.125,0.10938 0.125,0.28125 0,0.17188 -0.125,0.28125 -0.10938,0.10938 -0.39063,0.10938 h -4.23437 v 5.1875 q 0,0.6875 0.54687,1.14062 0.54688,0.45313 1.59375,0.45313 0.78125,0 1.70313,-0.23438 0.92187,-0.25 1.4375,-0.54687 0.1875,-0.10938 0.29687,-0.10938 0.15625,0 0.26563,0.125 0.10937,0.10938 0.10937,0.26563 0,0.14062 -0.125,0.25 -0.29687,0.3125 -1.4375,0.67187 -1.14062,0.35938 -2.1875,0.35938 -1.375,0 -2.1875,-0.64063 -0.79687,-0.64062 -0.79687,-1.73437 v -5.1875 h -1.4375 q -0.28125,0 -0.40625,-0.10938 -0.10938,-0.10937 -0.10938,-0.28125 0,-0.17187 0.10938,-0.28125 0.125,-0.10937 0.40625,-0.10937 h 1.4375 v -2.29688 q 0,-0.28125 0.10937,-0.40625 0.10938,-0.125 0.28125,-0.125 0.17188,0 0.28125,0.125 0.10938,0.125 0.10938,0.40625 z m 15.2456,8.03125 v -1.125 q -1.6875,1.4375 -3.625,1.4375 -1.40625,0 -2.1875,-0.70313 -0.78125,-0.71875 -0.78125,-1.75 0,-1.14062 1.03125,-1.98437 1.04688,-0.84375 3.03125,-0.84375 0.54688,0 1.17188,0.0781 0.625,0.0625 1.35937,0.21875 v -1.26562 q 0,-0.64063 -0.59375,-1.10938 -0.59375,-0.48437 -1.78125,-0.48437 -0.90625,0 -2.54687,0.53125 -0.29688,0.0937 -0.375,0.0937 -0.15625,0 -0.26563,-0.10938 -0.10937,-0.10937 -0.10937,-0.28125 0,-0.15625 0.0937,-0.25 0.14062,-0.14062 1.0625,-0.375 1.4375,-0.39062 2.1875,-0.39062 1.46875,0 2.29687,0.73437 0.82813,0.71875 0.82813,1.64063 v 5.15625 h 1.03125 q 0.29687,0 0.40625,0.10937 0.125,0.10938 0.125,0.28125 0,0.17188 -0.125,0.28125 -0.10938,0.10938 -0.40625,0.10938 z m 0,-3.875 q -0.54687,-0.15625 -1.15625,-0.23438 -0.60937,-0.0781 -1.28125,-0.0781 -1.70312,0 -2.65625,0.73437 -0.73437,0.54688 -0.73437,1.3125 0,0.70313 0.54687,1.1875 0.5625,0.48438 1.625,0.48438 1,0 1.85938,-0.40625 0.875,-0.40625 1.79687,-1.28125 z m 11.79248,-2.73438 v -1.42187 h 1.82813 q 0.26562,0 0.39062,0.10937 0.125,0.10938 0.125,0.28125 0,0.17188 -0.125,0.28125 -0.125,0.10938 -0.39062,0.10938 h -1.0625 v 7.78125 q 0,0.78125 -0.32813,1.40625 -0.21875,0.40625 -0.75,0.82812 -0.51562,0.4375 -0.9375,0.625 -0.42187,0.1875 -1.14062,0.1875 h -2.20313 q -0.28125,0 -0.40625,-0.10937 -0.125,-0.0937 -0.125,-0.28125 0,-0.17188 0.125,-0.28125 0.125,-0.10938 0.40625,-0.10938 h 2.23438 q 0.6875,0 1.23437,-0.35937 0.54688,-0.34375 0.92188,-1.01563 0.20312,-0.39062 0.20312,-1 v -2.32812 q -1.26562,1.71875 -3.23437,1.71875 -1.60938,0 -2.78125,-1.1875 -1.15625,-1.20313 -1.15625,-2.89063 0,-1.67187 1.15625,-2.85937 1.17187,-1.1875 2.78125,-1.1875 1.96875,0 3.23437,1.70312 z m 0,2.34375 q 0,-1.35937 -0.95312,-2.3125 -0.9375,-0.95312 -2.25,-0.95312 -1.29688,0 -2.23438,0.95312 -0.9375,0.95313 -0.9375,2.3125 0,1.375 0.9375,2.32813 0.9375,0.95312 2.23438,0.95312 1.3125,0 2.25,-0.95312 0.95312,-0.95313 0.95312,-2.32813 z m 12.99561,0.4375 h -7.95313 q 0.21875,1.51563 1.28125,2.4375 1.0625,0.92188 2.625,0.92188 0.875,0 1.82813,-0.28125 0.95312,-0.29688 1.5625,-0.76563 0.17187,-0.14062 0.29687,-0.14062 0.15625,0 0.26563,0.125 0.10937,0.10937 0.10937,0.26562 0,0.15625 -0.15625,0.29688 -0.4375,0.46875 -1.57812,0.875 -1.14063,0.40625 -2.32813,0.40625 -2,0 -3.34375,-1.3125 -1.34375,-1.3125 -1.34375,-3.1875 0,-1.6875 1.25,-2.90625 1.26563,-1.21875 3.125,-1.21875 1.90625,0 3.14063,1.25 1.23437,1.25 1.21875,3.23437 z m -0.79688,-0.79687 q -0.23437,-1.28125 -1.21875,-2.09375 -0.98437,-0.8125 -2.34375,-0.8125 -1.375,0 -2.35937,0.8125 -0.96875,0.79687 -1.21875,2.09375 z m 11.79248,-7.01563 v 10.85938 h 1.04688 q 0.28125,0 0.40625,0.10937 0.125,0.10938 0.125,0.28125 0,0.17188 -0.125,0.28125 -0.125,0.10938 -0.40625,0.10938 h -1.82813 v -1.54688 q -1.35937,1.85938 -3.45312,1.85938 -1.04688,0 -2.01563,-0.5625 -0.96875,-0.5625 -1.53125,-1.59375 -0.5625,-1.04688 -0.5625,-2.15625 0,-1.10938 0.5625,-2.14063 0.5625,-1.04687 1.53125,-1.60937 0.96875,-0.5625 2.03125,-0.5625 2.04688,0 3.4375,1.85937 v -4.40625 h -1.04687 q -0.28125,0 -0.40625,-0.10937 -0.125,-0.10938 -0.125,-0.28125 0,-0.17188 0.125,-0.28125 0.125,-0.10938 0.40625,-0.10938 z m -0.78125,7.64063 q 0,-1.48438 -1.01562,-2.5 -1,-1.03125 -2.375,-1.03125 -1.39063,0 -2.39063,1.03125 -1,1.01562 -1,2.5 0,1.46875 1,2.5 1,1.03125 2.39063,1.03125 1.375,0 2.375,-1.03125 1.01562,-1.03125 1.01562,-2.5 z"
       id="path19"
       inkscape:connector-curvature="0"
       style="fill:#000000;fill-rule:nonzero;stroke:none;stroke-linecap:square;stroke-miterlimit:10" />
    <path
       transform="translate(-51.20604,-132.19029)"
       d="m 422.39722,212.64375 v -0.25 q 0,-0.29688 0.10937,-0.40625 0.10938,-0.125 0.28125,-0.125 0.17188,0 0.28125,0.125 0.10938,0.10937 0.10938,0.40625 v 1.75 q 0,0.29687 -0.10938,0.42187 -0.10937,0.10938 -0.28125,0.10938 -0.15625,0 -0.26562,-0.0937 -0.10938,-0.10938 -0.125,-0.35938 -0.0625,-0.67187 -0.875,-1.26562 -0.79688,-0.59375 -2.17188,-0.59375 -1.73437,0 -2.64062,1.09375 -0.90625,1.07812 -0.90625,2.48437 0,1.51563 0.98437,2.5 1,0.98438 2.57813,0.98438 0.92187,0 1.85937,-0.32813 0.9375,-0.34375 1.70313,-1.09375 0.1875,-0.17187 0.34375,-0.17187 0.15625,0 0.26562,0.10937 0.10938,0.0937 0.10938,0.25 0,0.40625 -0.9375,1.01563 -1.51563,1 -3.375,1 -1.875,0 -3.09375,-1.20313 -1.20313,-1.20312 -1.20313,-3.04687 0,-1.89063 1.23438,-3.125 1.23437,-1.25 3.125,-1.25 1.78125,0 3,1.0625 z m 5.58936,-4.39063 V 213.05 q 0.73437,-0.8125 1.40625,-1.14063 0.6875,-0.32812 1.54687,-0.32812 0.90625,0 1.53125,0.32812 0.64063,0.3125 1.0625,0.98438 0.4375,0.65625 0.4375,1.39062 v 4.82813 h 0.85938 q 0.29687,0 0.40625,0.10937 0.125,0.10938 0.125,0.28125 0,0.17188 -0.125,0.28125 -0.10938,0.10938 -0.40625,0.10938 h -2.53125 q -0.28125,0 -0.40625,-0.10938 -0.10938,-0.10937 -0.10938,-0.28125 0,-0.17187 0.10938,-0.28125 0.125,-0.10937 0.40625,-0.10937 h 0.875 v -4.78125 q 0,-0.84375 -0.60938,-1.40625 -0.60937,-0.5625 -1.6875,-0.5625 -0.85937,0 -1.45312,0.42187 -0.4375,0.29688 -1.4375,1.39063 v 4.9375 h 0.875 q 0.28125,0 0.39062,0.10937 0.125,0.10938 0.125,0.28125 0,0.17188 -0.125,0.28125 -0.10937,0.10938 -0.39062,0.10938 h -2.54688 q -0.26562,0 -0.39062,-0.10938 -0.125,-0.10937 -0.125,-0.28125 0,-0.17187 0.125,-0.28125 0.125,-0.10937 0.39062,-0.10937 h 0.89063 v -10.07813 h -1.04688 q -0.28125,0 -0.40625,-0.10937 -0.125,-0.10938 -0.125,-0.28125 0,-0.17188 0.125,-0.28125 0.125,-0.10938 0.40625,-0.10938 z m 16.19873,11.64063 v -1.125 q -1.6875,1.4375 -3.625,1.4375 -1.40625,0 -2.1875,-0.70313 -0.78125,-0.71875 -0.78125,-1.75 0,-1.14062 1.03125,-1.98437 1.04687,-0.84375 3.03125,-0.84375 0.54687,0 1.17187,0.0781 0.625,0.0625 1.35938,0.21875 v -1.26562 q 0,-0.64063 -0.59375,-1.10938 -0.59375,-0.48437 -1.78125,-0.48437 -0.90625,0 -2.54688,0.53125 -0.29687,0.0937 -0.375,0.0937 -0.15625,0 -0.26562,-0.10938 -0.10938,-0.10937 -0.10938,-0.28125 0,-0.15625 0.0937,-0.25 0.14063,-0.14062 1.0625,-0.375 1.4375,-0.39062 2.1875,-0.39062 1.46875,0 2.29688,0.73437 0.82812,0.71875 0.82812,1.64063 v 5.15625 h 1.03125 q 0.29688,0 0.40625,0.10937 0.125,0.10938 0.125,0.28125 0,0.17188 -0.125,0.28125 -0.10937,0.10938 -0.40625,0.10938 z m 0,-3.875 q -0.54688,-0.15625 -1.15625,-0.23438 -0.60938,-0.0781 -1.28125,-0.0781 -1.70313,0 -2.65625,0.73437 -0.73438,0.54688 -0.73438,1.3125 0,0.70313 0.54688,1.1875 0.5625,0.48438 1.625,0.48438 1,0 1.85937,-0.40625 0.875,-0.40625 1.79688,-1.28125 z m 6.65185,-4.15625 v 1.17187 q 0.8125,-0.82812 1.46875,-1.14062 0.65625,-0.3125 1.48438,-0.3125 0.89062,0 1.625,0.375 0.51562,0.28125 0.9375,0.9375 0.42187,0.64062 0.42187,1.3125 v 4.90625 h 0.65625 q 0.28125,0 0.40625,0.10937 0.125,0.10938 0.125,0.28125 0,0.17188 -0.125,0.28125 -0.125,0.10938 -0.40625,0.10938 h -2.07812 q -0.29688,0 -0.42188,-0.10938 -0.10937,-0.10937 -0.10937,-0.28125 0,-0.17187 0.10937,-0.28125 0.125,-0.10937 0.42188,-0.10937 h 0.64062 v -4.78125 q 0,-0.82813 -0.60937,-1.39063 -0.59375,-0.57812 -1.60938,-0.57812 -0.76562,0 -1.32812,0.3125 -0.5625,0.3125 -1.60938,1.54687 v 4.89063 h 0.875 q 0.28125,0 0.39063,0.10937 0.125,0.10938 0.125,0.28125 0,0.17188 -0.125,0.28125 -0.10938,0.10938 -0.39063,0.10938 h -2.54687 q -0.26563,0 -0.39063,-0.10938 -0.125,-0.10937 -0.125,-0.28125 0,-0.17187 0.125,-0.28125 0.125,-0.10937 0.39063,-0.10937 h 0.89062 v -6.46875 h -0.65625 q -0.28125,0 -0.40625,-0.10938 -0.125,-0.10937 -0.125,-0.28125 0,-0.17187 0.125,-0.28125 0.125,-0.10937 0.40625,-0.10937 z m 16.54248,1.42187 v -1.42187 h 1.82813 q 0.26562,0 0.39062,0.10937 0.125,0.10938 0.125,0.28125 0,0.17188 -0.125,0.28125 -0.125,0.10938 -0.39062,0.10938 h -1.0625 v 7.78125 q 0,0.78125 -0.32813,1.40625 -0.21875,0.40625 -0.75,0.82812 -0.51562,0.4375 -0.9375,0.625 -0.42187,0.1875 -1.14062,0.1875 h -2.20313 q -0.28125,0 -0.40625,-0.10937 -0.125,-0.0937 -0.125,-0.28125 0,-0.17188 0.125,-0.28125 0.125,-0.10938 0.40625,-0.10938 h 2.23438 q 0.6875,0 1.23437,-0.35937 0.54688,-0.34375 0.92188,-1.01563 0.20312,-0.39062 0.20312,-1 v -2.32812 q -1.26562,1.71875 -3.23437,1.71875 -1.60938,0 -2.78125,-1.1875 -1.15625,-1.20313 -1.15625,-2.89063 0,-1.67187 1.15625,-2.85937 1.17187,-1.1875 2.78125,-1.1875 1.96875,0 3.23437,1.70312 z m 0,2.34375 q 0,-1.35937 -0.95312,-2.3125 -0.9375,-0.95312 -2.25,-0.95312 -1.29688,0 -2.23438,0.95312 -0.9375,0.95313 -0.9375,2.3125 0,1.375 0.9375,2.32813 0.9375,0.95312 2.23438,0.95312 1.3125,0 2.25,-0.95312 0.95312,-0.95313 0.95312,-2.32813 z m 12.99561,0.4375 h -7.95313 q 0.21875,1.51563 1.28125,2.4375 1.0625,0.92188 2.625,0.92188 0.875,0 1.82813,-0.28125 0.95312,-0.29688 1.5625,-0.76563 0.17187,-0.14062 0.29687,-0.14062 0.15625,0 0.26563,0.125 0.10937,0.10937 0.10937,0.26562 0,0.15625 -0.15625,0.29688 -0.4375,0.46875 -1.57812,0.875 -1.14063,0.40625 -2.32813,0.40625 -2,0 -3.34375,-1.3125 -1.34375,-1.3125 -1.34375,-3.1875 0,-1.6875 1.25,-2.90625 1.26563,-1.21875 3.125,-1.21875 1.90625,0 3.14063,1.25 1.23437,1.25 1.21875,3.23437 z m -0.79688,-0.79687 q -0.23437,-1.28125 -1.21875,-2.09375 -0.98437,-0.8125 -2.34375,-0.8125 -1.375,0 -2.35937,0.8125 -0.96875,0.79687 -1.21875,2.09375 z m 10.55811,-2.90625 q 0,-0.26563 0.10937,-0.375 0.10938,-0.125 0.28125,-0.125 0.17188,0 0.28125,0.125 0.10938,0.10937 0.10938,0.40625 v 1.32812 q 0,0.28125 -0.10938,0.40625 -0.10937,0.10938 -0.28125,0.10938 -0.17187,0 -0.28125,-0.0937 -0.0937,-0.10938 -0.10937,-0.34375 -0.0625,-0.54688 -0.57813,-0.90625 -0.76562,-0.53125 -2.01562,-0.53125 -1.3125,0 -2.03125,0.53125 -0.54688,0.40625 -0.54688,0.89062 0,0.5625 0.64063,0.9375 0.45312,0.25 1.70312,0.39063 1.60938,0.17187 2.25,0.40625 0.89063,0.32812 1.32813,0.90625 0.45312,0.5625 0.45312,1.23437 0,0.98438 -0.95312,1.76563 -0.95313,0.78125 -2.8125,0.78125 -1.84375,0 -3.01563,-0.9375 0,0.3125 -0.0469,0.40625 -0.0312,0.0937 -0.125,0.15625 -0.0937,0.0625 -0.21875,0.0625 -0.17188,0 -0.28125,-0.10938 -0.10938,-0.125 -0.10938,-0.40625 v -1.60937 q 0,-0.28125 0.10938,-0.39063 0.10937,-0.125 0.28125,-0.125 0.17187,0 0.28125,0.125 0.10937,0.10938 0.10937,0.29688 0,0.42187 0.21875,0.71875 0.32813,0.4375 1.03125,0.73437 0.71875,0.29688 1.75,0.29688 1.51563,0 2.25,-0.5625 0.75,-0.57813 0.75,-1.20313 0,-0.71875 -0.75,-1.15625 -0.76562,-0.4375 -2.21875,-0.57812 -1.45312,-0.15625 -2.07812,-0.39063 -0.625,-0.25 -0.98438,-0.73437 -0.35937,-0.48438 -0.35937,-1.03125 0,-1.01563 0.98437,-1.59375 0.98438,-0.59375 2.35938,-0.59375 1.60937,0 2.625,0.78125 z m 20.13183,2.90625 q 0,-1.0625 0.28125,-2.25 0.28125,-1.20313 1.0625,-2.76563 0.79688,-1.57812 1.15625,-1.90625 0.10938,-0.0937 0.23438,-0.0937 0.17187,0 0.28125,0.10938 0.125,0.10937 0.125,0.26562 0,0.0937 -0.0625,0.20313 -1.03125,1.875 -1.46875,3.40625 -0.42188,1.51562 -0.42188,3.03125 0,1.53125 0.42188,3.0625 0.4375,1.51562 1.46875,3.375 0.0625,0.125 0.0625,0.20312 0,0.17188 -0.125,0.28125 -0.10938,0.10938 -0.28125,0.10938 -0.125,0 -0.23438,-0.0937 -0.34375,-0.3125 -1.125,-1.84375 -0.78125,-1.53125 -1.07812,-2.70313 -0.29688,-1.1875 -0.29688,-2.39062 z m 15.85498,0.625 q 0,1.78125 -1.28125,3.04687 -1.28125,1.26563 -3.07812,1.26563 -1.8125,0 -3.09375,-1.26563 -1.26563,-1.28125 -1.26563,-3.04687 0,-1.78125 1.26563,-3.04688 1.28125,-1.26562 3.09375,-1.26562 1.79687,0 3.07812,1.26562 1.28125,1.25 1.28125,3.04688 z m -0.79687,0 q 0,-1.46875 -1.04688,-2.5 -1.03125,-1.03125 -2.51562,-1.03125 -1.48438,0 -2.53125,1.04687 -1.04688,1.03125 -1.04688,2.48438 0,1.45312 1.04688,2.5 1.04687,1.03125 2.53125,1.03125 1.48437,0 2.51562,-1.03125 1.04688,-1.04688 1.04688,-2.5 z m 6.90185,-4.03125 v 1.96875 q 1.53125,-1.375 2.28125,-1.76563 0.75,-0.40625 1.39063,-0.40625 0.70312,0 1.29687,0.46875 0.59375,0.46875 0.59375,0.71875 0,0.17188 -0.10937,0.29688 -0.10938,0.10937 -0.29688,0.10937 -0.0937,0 -0.15625,-0.0312 -0.0625,-0.0312 -0.23437,-0.21875 -0.32813,-0.3125 -0.57813,-0.4375 -0.23437,-0.125 -0.46875,-0.125 -0.5,0 -1.21875,0.40625 -0.71875,0.40625 -2.5,2 v 4.26563 h 3.45313 q 0.28125,0 0.40625,0.10937 0.125,0.10938 0.125,0.28125 0,0.17188 -0.125,0.28125 -0.125,0.10938 -0.40625,0.10938 h -6.10938 q -0.28125,0 -0.40625,-0.10938 -0.10937,-0.10937 -0.10937,-0.26562 0,-0.15625 0.10937,-0.26563 0.10938,-0.10937 0.40625,-0.10937 h 1.875 v -6.5 h -1.4375 q -0.28125,0 -0.40625,-0.10938 -0.10937,-0.10937 -0.10937,-0.28125 0,-0.17187 0.10937,-0.28125 0.125,-0.10937 0.40625,-0.10937 z m 21.22559,0 v 1.17187 q 0.8125,-0.82812 1.46875,-1.14062 0.65625,-0.3125 1.48437,-0.3125 0.89063,0 1.625,0.375 0.51563,0.28125 0.9375,0.9375 0.42188,0.64062 0.42188,1.3125 v 4.90625 h 0.65625 q 0.28125,0 0.40625,0.10937 0.125,0.10938 0.125,0.28125 0,0.17188 -0.125,0.28125 -0.125,0.10938 -0.40625,0.10938 h -2.07813 q -0.29687,0 -0.42187,-0.10938 -0.10938,-0.10937 -0.10938,-0.28125 0,-0.17187 0.10938,-0.28125 0.125,-0.10937 0.42187,-0.10937 h 0.64063 v -4.78125 q 0,-0.82813 -0.60938,-1.39063 -0.59375,-0.57812 -1.60937,-0.57812 -0.76563,0 -1.32813,0.3125 -0.5625,0.3125 -1.60937,1.54687 v 4.89063 h 0.875 q 0.28125,0 0.39062,0.10937 0.125,0.10938 0.125,0.28125 0,0.17188 -0.125,0.28125 -0.10937,0.10938 -0.39062,0.10938 h -2.54688 q -0.26562,0 -0.39062,-0.10938 -0.125,-0.10937 -0.125,-0.28125 0,-0.17187 0.125,-0.28125 0.125,-0.10937 0.39062,-0.10937 h 0.89063 v -6.46875 h -0.65625 q -0.28125,0 -0.40625,-0.10938 -0.125,-0.10937 -0.125,-0.28125 0,-0.17187 0.125,-0.28125 0.125,-0.10937 0.40625,-0.10937 z m 18.13623,4.20312 h -7.95313 q 0.21875,1.51563 1.28125,2.4375 1.0625,0.92188 2.625,0.92188 0.875,0 1.82813,-0.28125 0.95312,-0.29688 1.5625,-0.76563 0.17187,-0.14062 0.29687,-0.14062 0.15625,0 0.26563,0.125 0.10937,0.10937 0.10937,0.26562 0,0.15625 -0.15625,0.29688 -0.4375,0.46875 -1.57812,0.875 -1.14063,0.40625 -2.32813,0.40625 -2,0 -3.34375,-1.3125 -1.34375,-1.3125 -1.34375,-3.1875 0,-1.6875 1.25,-2.90625 1.26563,-1.21875 3.125,-1.21875 1.90625,0 3.14063,1.25 1.23437,1.25 1.21875,3.23437 z m -0.79688,-0.79687 q -0.23437,-1.28125 -1.21875,-2.09375 -0.98437,-0.8125 -2.34375,-0.8125 -1.375,0 -2.35937,0.8125 -0.96875,0.79687 -1.21875,2.09375 z m 10.66748,4.625 -0.96875,0.0156 -1.71875,-5.01562 -1.70312,5.01562 -0.96875,-0.0156 -1.60938,-7.25 h -0.375 q -0.28125,0 -0.40625,-0.10938 -0.125,-0.10937 -0.125,-0.28125 0,-0.17187 0.125,-0.28125 0.125,-0.10937 0.40625,-0.10937 h 2.14063 q 0.26562,0 0.39062,0.10937 0.125,0.10938 0.125,0.28125 0,0.17188 -0.125,0.28125 -0.125,0.10938 -0.39062,0.10938 h -1 l 1.39062,6.1875 1.65625,-4.9375 h 0.92188 l 1.71875,4.9375 1.3125,-6.1875 h -0.98438 q -0.26562,0 -0.39062,-0.10938 -0.125,-0.10937 -0.125,-0.28125 0,-0.17187 0.10937,-0.28125 0.125,-0.10937 0.40625,-0.10937 h 2.14063 q 0.28125,0 0.40625,0.10937 0.125,0.10938 0.125,0.28125 0,0.17188 -0.125,0.28125 -0.125,0.10938 -0.40625,0.10938 h -0.375 z"
       id="path21"
       inkscape:connector-curvature="0"
       style="fill:#000000;fill-rule:nonzero;stroke:none;stroke-linecap:square;stroke-miterlimit:10" />
    <path
       transform="translate(-51.20604,-132.19029)"
       d="m 475.64087,234.64375 v 6.46875 h 3.42187 q 0.28125,0 0.39063,0.10937 0.125,0.10938 0.125,0.28125 0,0.17188 -0.125,0.28125 -0.10938,0.10938 -0.39063,0.10938 h -6.09375 q -0.28125,0 -0.40625,-0.10938 -0.10937,-0.10937 -0.10937,-0.28125 0,-0.17187 0.10937,-0.28125 0.125,-0.10937 0.40625,-0.10937 h 1.875 v -6.46875 h -1.6875 q -0.26562,0 -0.39062,-0.10938 -0.125,-0.10937 -0.125,-0.28125 0,-0.17187 0.125,-0.28125 0.125,-0.10937 0.39062,-0.10937 h 1.6875 v -1.1875 q 0,-0.98438 0.79688,-1.70313 0.8125,-0.71875 2.125,-0.71875 1.10937,0 2.35937,0.20313 0.46875,0.0781 0.5625,0.1875 0.0937,0.0937 0.0937,0.25 0,0.17187 -0.10937,0.28125 -0.10938,0.10937 -0.29688,0.10937 -0.0625,0 -0.25,-0.0312 -1.39062,-0.21875 -2.35937,-0.21875 -1.01563,0 -1.57813,0.5 -0.54687,0.5 -0.54687,1.14063 v 1.1875 h 3.64062 q 0.28125,0 0.40625,0.10937 0.125,0.10938 0.125,0.28125 0,0.17188 -0.125,0.28125 -0.125,0.10938 -0.40625,0.10938 z m 12.30811,-4.78125 v 2.01562 h -1.15625 v -2.01562 z m 0.0156,4 v 7.25 h 3.0625 q 0.29688,0 0.40625,0.10937 0.125,0.10938 0.125,0.28125 0,0.17188 -0.125,0.28125 -0.10937,0.10938 -0.40625,0.10938 h -6.90625 q -0.26562,0 -0.39062,-0.10938 -0.125,-0.10937 -0.125,-0.28125 0,-0.17187 0.125,-0.28125 0.125,-0.10937 0.39062,-0.10937 h 3.0625 v -6.46875 h -2.26562 q -0.28125,0 -0.40625,-0.10938 -0.125,-0.10937 -0.125,-0.28125 0,-0.17187 0.125,-0.28125 0.125,-0.10937 0.40625,-0.10937 z m 11.38623,-3.60938 v 10.85938 h 3.0625 q 0.28125,0 0.40625,0.10937 0.125,0.10938 0.125,0.28125 0,0.17188 -0.125,0.28125 -0.125,0.10938 -0.40625,0.10938 h -6.90625 q -0.28125,0 -0.40625,-0.10938 -0.10937,-0.10937 -0.10937,-0.28125 0,-0.17187 0.10937,-0.28125 0.125,-0.10937 0.40625,-0.10937 h 3.0625 v -10.07813 h -2.23437 q -0.28125,0 -0.40625,-0.10937 -0.125,-0.10938 -0.125,-0.28125 0,-0.17188 0.10937,-0.28125 0.125,-0.10938 0.42188,-0.10938 z m 15.22998,7.8125 h -7.95312 q 0.21875,1.51563 1.28125,2.4375 1.0625,0.92188 2.625,0.92188 0.875,0 1.82812,-0.28125 0.95313,-0.29688 1.5625,-0.76563 0.17188,-0.14062 0.29688,-0.14062 0.15625,0 0.26562,0.125 0.10938,0.10937 0.10938,0.26562 0,0.15625 -0.15625,0.29688 -0.4375,0.46875 -1.57813,0.875 -1.14062,0.40625 -2.32812,0.40625 -2,0 -3.34375,-1.3125 -1.34375,-1.3125 -1.34375,-3.1875 0,-1.6875 1.25,-2.90625 1.26562,-1.21875 3.125,-1.21875 1.90625,0 3.14062,1.25 1.23438,1.25 1.21875,3.23437 z m -0.79687,-0.79687 q -0.23438,-1.28125 -1.21875,-2.09375 -0.98438,-0.8125 -2.34375,-0.8125 -1.375,0 -2.35938,0.8125 -0.96875,0.79687 -1.21875,2.09375 z m 8.19872,0.0156 q 0,1.0625 -0.28125,2.26563 -0.26562,1.1875 -1.0625,2.75 -0.78125,1.57812 -1.14062,1.89062 -0.10938,0.10938 -0.25,0.10938 -0.15625,0 -0.28125,-0.10938 -0.10938,-0.10937 -0.10938,-0.28125 0,-0.0781 0.0625,-0.20312 1.01563,-1.85938 1.45313,-3.375 0.4375,-1.53125 0.4375,-3.04688 0,-1.53125 -0.4375,-3.04687 -0.4375,-1.53125 -1.45313,-3.40625 -0.0625,-0.10938 -0.0625,-0.20313 0,-0.15625 0.10938,-0.26562 0.125,-0.10938 0.28125,-0.10938 0.14062,0 0.25,0.0937 0.34375,0.32813 1.10937,1.85938 0.78125,1.51562 1.07813,2.70312 0.29687,1.17188 0.29687,2.375 z"
       id="path23"
       inkscape:connector-curvature="0"
       style="fill:#000000;fill-rule:nonzero;stroke:none;stroke-linecap:square;stroke-miterlimit:10" />
    <path
       transform="translate(-51.20604,-132.19029)"
       d="m 726.895,161.91077 h 193.48029 v 80.12598 H 726.895 Z"
       id="path25"
       inkscape:connector-curvature="0"
       style="fill:#000000;fill-opacity:0;fill-rule:evenodd;stroke:none;stroke-linecap:square;stroke-miterlimit:10" />
    <path
       transform="translate(-51.20604,-132.19029)"
       d="m 726.895,161.91077 h 193.48029 v 80.12598 H 726.895 Z"
       id="path27"
       inkscape:connector-curvature="0"
       style="fill:none;fill-rule:evenodd;stroke:#000000;stroke-width:1;stroke-linecap:butt;stroke-linejoin:round;stroke-miterlimit:10" />
    <path
       transform="translate(-51.20604,-132.19029)"
       d="m 753.35126,192.65938 v 4.45312 h 2.67188 q 0.26562,0 0.39062,0.10938 0.125,0.10937 0.125,0.28125 0,0.17187 -0.125,0.28125 -0.125,0.10937 -0.39062,0.10937 h -4.5 q -0.28125,0 -0.40625,-0.10937 -0.125,-0.10938 -0.125,-0.28125 0,-0.17188 0.125,-0.28125 0.125,-0.10938 0.40625,-0.10938 h 1.04687 v -9.29687 h -1.04687 q -0.28125,0 -0.40625,-0.0937 -0.125,-0.10938 -0.125,-0.29688 0,-0.17187 0.14062,-0.29687 0.10938,-0.0937 0.39063,-0.0937 h 8.57812 v 2.6875 q 0,0.28125 -0.10937,0.40625 -0.10938,0.10937 -0.28125,0.10937 -0.17188,0 -0.29688,-0.10937 -0.10937,-0.125 -0.10937,-0.40625 v -1.90625 h -5.95313 v 4.0625 h 2.78125 v -0.89063 q 0,-0.28125 0.10938,-0.39062 0.125,-0.125 0.29687,-0.125 0.17188,0 0.28125,0.125 0.10938,0.10937 0.10938,0.39062 v 2.54688 q 0,0.28125 -0.10938,0.40625 -0.10937,0.10937 -0.28125,0.10937 -0.17187,0 -0.29687,-0.10937 -0.10938,-0.125 -0.10938,-0.40625 v -0.875 z m 13.66748,-6.79688 v 2.01563 h -1.15625 v -2.01563 z m 0.0156,4 v 7.25 h 3.0625 q 0.29688,0 0.40625,0.10938 0.125,0.10937 0.125,0.28125 0,0.17187 -0.125,0.28125 -0.10937,0.10937 -0.40625,0.10937 h -6.90625 q -0.26562,0 -0.39062,-0.10937 -0.125,-0.10938 -0.125,-0.28125 0,-0.17188 0.125,-0.28125 0.125,-0.10938 0.39062,-0.10938 h 3.0625 v -6.46875 h -2.26562 q -0.28125,0 -0.40625,-0.10937 -0.125,-0.10938 -0.125,-0.28125 0,-0.17188 0.125,-0.28125 0.125,-0.10938 0.40625,-0.10938 z m 11.38623,-3.60937 v 10.85937 h 3.0625 q 0.28125,0 0.40625,0.10938 0.125,0.10937 0.125,0.28125 0,0.17187 -0.125,0.28125 -0.125,0.10937 -0.40625,0.10937 h -6.90625 q -0.28125,0 -0.40625,-0.10937 -0.10937,-0.10938 -0.10937,-0.28125 0,-0.17188 0.10937,-0.28125 0.125,-0.10938 0.40625,-0.10938 h 3.0625 v -10.07812 h -2.23437 q -0.28125,0 -0.40625,-0.10938 -0.125,-0.10937 -0.125,-0.28125 0,-0.17187 0.10937,-0.28125 0.125,-0.10937 0.42188,-0.10937 z m 15.22998,7.8125 h -7.95312 q 0.21875,1.51562 1.28125,2.4375 1.0625,0.92187 2.625,0.92187 0.875,0 1.82812,-0.28125 0.95313,-0.29687 1.5625,-0.76562 0.17188,-0.14063 0.29688,-0.14063 0.15625,0 0.26562,0.125 0.10938,0.10938 0.10938,0.26563 0,0.15625 -0.15625,0.29687 -0.4375,0.46875 -1.57813,0.875 -1.14062,0.40625 -2.32812,0.40625 -2,0 -3.34375,-1.3125 -1.34375,-1.3125 -1.34375,-3.1875 0,-1.6875 1.25,-2.90625 1.26562,-1.21875 3.125,-1.21875 1.90625,0 3.14062,1.25 1.23438,1.25 1.21875,3.23438 z m -0.79687,-0.79688 q -0.23438,-1.28125 -1.21875,-2.09375 -0.98438,-0.8125 -2.34375,-0.8125 -1.375,0 -2.35938,0.8125 -0.96875,0.79688 -1.21875,2.09375 z m 22.06934,4.625 -0.96875,0.0156 -1.71875,-5.01563 -1.70313,5.01563 -0.96875,-0.0156 -1.60937,-7.25 h -0.375 q -0.28125,0 -0.40625,-0.10937 -0.125,-0.10938 -0.125,-0.28125 0,-0.17188 0.125,-0.28125 0.125,-0.10938 0.40625,-0.10938 h 2.14062 q 0.26563,0 0.39063,0.10938 0.125,0.10937 0.125,0.28125 0,0.17187 -0.125,0.28125 -0.125,0.10937 -0.39063,0.10937 h -1 l 1.39063,6.1875 1.65625,-4.9375 h 0.92187 l 1.71875,4.9375 1.3125,-6.1875 h -0.98437 q -0.26563,0 -0.39063,-0.10937 -0.125,-0.10938 -0.125,-0.28125 0,-0.17188 0.10938,-0.28125 0.125,-0.10938 0.40625,-0.10938 h 2.14062 q 0.28125,0 0.40625,0.10938 0.125,0.10937 0.125,0.28125 0,0.17187 -0.125,0.28125 -0.125,0.10937 -0.40625,0.10937 h -0.375 z M 824.028,185.8625 v 2.01563 h -1.15625 v -2.01563 z m 0.0156,4 v 7.25 h 3.0625 q 0.29688,0 0.40625,0.10938 0.125,0.10937 0.125,0.28125 0,0.17187 -0.125,0.28125 -0.10937,0.10937 -0.40625,0.10937 h -6.90625 q -0.26562,0 -0.39062,-0.10937 -0.125,-0.10938 -0.125,-0.28125 0,-0.17188 0.125,-0.28125 0.125,-0.10938 0.39062,-0.10938 h 3.0625 v -6.46875 h -2.26562 q -0.28125,0 -0.40625,-0.10937 -0.125,-0.10938 -0.125,-0.28125 0,-0.17188 0.125,-0.28125 0.125,-0.10938 0.40625,-0.10938 z m 9.38623,0 h 4.23438 q 0.28125,0 0.39062,0.10938 0.125,0.10937 0.125,0.28125 0,0.17187 -0.125,0.28125 -0.10937,0.10937 -0.39062,0.10937 h -4.23438 v 5.1875 q 0,0.6875 0.54688,1.14063 0.54687,0.45312 1.59375,0.45312 0.78125,0 1.70312,-0.23437 0.92188,-0.25 1.4375,-0.54688 0.1875,-0.10937 0.29688,-0.10937 0.15625,0 0.26562,0.125 0.10938,0.10937 0.10938,0.26562 0,0.14063 -0.125,0.25 -0.29688,0.3125 -1.4375,0.67188 -1.14063,0.35937 -2.1875,0.35937 -1.375,0 -2.1875,-0.64062 -0.79688,-0.64063 -0.79688,-1.73438 v -5.1875 h -1.4375 q -0.28125,0 -0.40625,-0.10937 -0.10937,-0.10938 -0.10937,-0.28125 0,-0.17188 0.10937,-0.28125 0.125,-0.10938 0.40625,-0.10938 h 1.4375 v -2.29687 q 0,-0.28125 0.10938,-0.40625 0.10937,-0.125 0.28125,-0.125 0.17187,0 0.28125,0.125 0.10937,0.125 0.10937,0.40625 z m 10.44873,-3.60937 V 191.05 q 0.73438,-0.8125 1.40625,-1.14062 0.6875,-0.32813 1.54688,-0.32813 0.90625,0 1.53125,0.32813 0.64062,0.3125 1.0625,0.98437 0.4375,0.65625 0.4375,1.39063 v 4.82812 h 0.85937 q 0.29688,0 0.40625,0.10938 0.125,0.10937 0.125,0.28125 0,0.17187 -0.125,0.28125 -0.10937,0.10937 -0.40625,0.10937 h -2.53125 q -0.28125,0 -0.40625,-0.10937 -0.10937,-0.10938 -0.10937,-0.28125 0,-0.17188 0.10937,-0.28125 0.125,-0.10938 0.40625,-0.10938 h 0.875 v -4.78125 q 0,-0.84375 -0.60937,-1.40625 -0.60938,-0.5625 -1.6875,-0.5625 -0.85938,0 -1.45313,0.42188 -0.4375,0.29687 -1.4375,1.39062 v 4.9375 h 0.875 q 0.28125,0 0.39063,0.10938 0.125,0.10937 0.125,0.28125 0,0.17187 -0.125,0.28125 -0.10938,0.10937 -0.39063,0.10937 h -2.54687 q -0.26563,0 -0.39063,-0.10937 -0.125,-0.10938 -0.125,-0.28125 0,-0.17188 0.125,-0.28125 0.125,-0.10938 0.39063,-0.10938 h 0.89062 v -10.07812 h -1.04687 q -0.28125,0 -0.40625,-0.10938 -0.125,-0.10937 -0.125,-0.28125 0,-0.17187 0.125,-0.28125 0.125,-0.10937 0.40625,-0.10937 z m 27.60059,11.64062 v -1.125 q -1.6875,1.4375 -3.625,1.4375 -1.40625,0 -2.1875,-0.70312 -0.78125,-0.71875 -0.78125,-1.75 0,-1.14063 1.03125,-1.98438 1.04687,-0.84375 3.03125,-0.84375 0.54687,0 1.17187,0.0781 0.625,0.0625 1.35938,0.21875 v -1.26563 q 0,-0.64062 -0.59375,-1.10937 -0.59375,-0.48438 -1.78125,-0.48438 -0.90625,0 -2.54688,0.53125 -0.29687,0.0937 -0.375,0.0937 -0.15625,0 -0.26562,-0.10937 -0.10938,-0.10938 -0.10938,-0.28125 0,-0.15625 0.0937,-0.25 0.14063,-0.14063 1.0625,-0.375 1.4375,-0.39063 2.1875,-0.39063 1.46875,0 2.29688,0.73438 0.82812,0.71875 0.82812,1.64062 v 5.15625 h 1.03125 q 0.29688,0 0.40625,0.10938 0.125,0.10937 0.125,0.28125 0,0.17187 -0.125,0.28125 -0.10937,0.10937 -0.40625,0.10937 z m 0,-3.875 q -0.54688,-0.15625 -1.15625,-0.23437 -0.60938,-0.0781 -1.28125,-0.0781 -1.70313,0 -2.65625,0.73438 -0.73438,0.54687 -0.73438,1.3125 0,0.70312 0.54688,1.1875 0.5625,0.48437 1.625,0.48437 1,0 1.85937,-0.40625 0.875,-0.40625 1.79688,-1.28125 z m 9.5581,-7.76562 v 10.85937 h 3.0625 q 0.28125,0 0.40625,0.10938 0.125,0.10937 0.125,0.28125 0,0.17187 -0.125,0.28125 -0.125,0.10937 -0.40625,0.10937 h -6.90625 q -0.28125,0 -0.40625,-0.10937 -0.10937,-0.10938 -0.10937,-0.28125 0,-0.17188 0.10937,-0.28125 0.125,-0.10938 0.40625,-0.10938 h 3.0625 v -10.07812 h -2.23437 q -0.28125,0 -0.40625,-0.10938 -0.125,-0.10937 -0.125,-0.28125 0,-0.17187 0.10937,-0.28125 0.125,-0.10937 0.42188,-0.10937 z m 11.40186,0 v 10.85937 h 3.0625 q 0.28125,0 0.40625,0.10938 0.125,0.10937 0.125,0.28125 0,0.17187 -0.125,0.28125 -0.125,0.10937 -0.40625,0.10937 h -6.90625 q -0.28125,0 -0.40625,-0.10937 -0.10938,-0.10938 -0.10938,-0.28125 0,-0.17188 0.10938,-0.28125 0.125,-0.10938 0.40625,-0.10938 h 3.0625 v -10.07812 h -2.23438 q -0.28125,0 -0.40625,-0.10938 -0.125,-0.10937 -0.125,-0.28125 0,-0.17187 0.10938,-0.28125 0.125,-0.10937 0.42187,-0.10937 z"
       id="path29"
       inkscape:connector-curvature="0"
       style="fill:#000000;fill-rule:nonzero;stroke:none;stroke-linecap:square;stroke-miterlimit:10" />
    <path
       transform="translate(-51.20604,-132.19029)"
       d="m 752.7753,212.64375 v -0.25 q 0,-0.29688 0.10938,-0.40625 0.10937,-0.125 0.28125,-0.125 0.17187,0 0.28125,0.125 0.10937,0.10937 0.10937,0.40625 v 1.75 q 0,0.29687 -0.10937,0.42187 -0.10938,0.10938 -0.28125,0.10938 -0.15625,0 -0.26563,-0.0937 -0.10937,-0.10938 -0.125,-0.35938 -0.0625,-0.67187 -0.875,-1.26562 -0.79687,-0.59375 -2.17187,-0.59375 -1.73438,0 -2.64063,1.09375 -0.90625,1.07812 -0.90625,2.48437 0,1.51563 0.98438,2.5 1,0.98438 2.57812,0.98438 0.92188,0 1.85938,-0.32813 0.9375,-0.34375 1.70312,-1.09375 0.1875,-0.17187 0.34375,-0.17187 0.15625,0 0.26563,0.10937 0.10937,0.0937 0.10937,0.25 0,0.40625 -0.9375,1.01563 -1.51562,1 -3.375,1 -1.875,0 -3.09375,-1.20313 -1.20312,-1.20312 -1.20312,-3.04687 0,-1.89063 1.23437,-3.125 1.23438,-1.25 3.125,-1.25 1.78125,0 3,1.0625 z m 5.58936,-4.39063 V 213.05 q 0.73437,-0.8125 1.40625,-1.14063 0.6875,-0.32812 1.54687,-0.32812 0.90625,0 1.53125,0.32812 0.64063,0.3125 1.0625,0.98438 0.4375,0.65625 0.4375,1.39062 v 4.82813 h 0.85938 q 0.29687,0 0.40625,0.10937 0.125,0.10938 0.125,0.28125 0,0.17188 -0.125,0.28125 -0.10938,0.10938 -0.40625,0.10938 h -2.53125 q -0.28125,0 -0.40625,-0.10938 -0.10938,-0.10937 -0.10938,-0.28125 0,-0.17187 0.10938,-0.28125 0.125,-0.10937 0.40625,-0.10937 h 0.875 v -4.78125 q 0,-0.84375 -0.60938,-1.40625 -0.60937,-0.5625 -1.6875,-0.5625 -0.85937,0 -1.45312,0.42187 -0.4375,0.29688 -1.4375,1.39063 v 4.9375 h 0.875 q 0.28125,0 0.39062,0.10937 0.125,0.10938 0.125,0.28125 0,0.17188 -0.125,0.28125 -0.10937,0.10938 -0.39062,0.10938 h -2.54688 q -0.26562,0 -0.39062,-0.10938 -0.125,-0.10937 -0.125,-0.28125 0,-0.17187 0.125,-0.28125 0.125,-0.10937 0.39062,-0.10937 h 0.89063 v -10.07813 h -1.04688 q -0.28125,0 -0.40625,-0.10937 -0.125,-0.10938 -0.125,-0.28125 0,-0.17188 0.125,-0.28125 0.125,-0.10938 0.40625,-0.10938 z m 16.19873,11.64063 v -1.125 q -1.6875,1.4375 -3.625,1.4375 -1.40625,0 -2.1875,-0.70313 -0.78125,-0.71875 -0.78125,-1.75 0,-1.14062 1.03125,-1.98437 1.04687,-0.84375 3.03125,-0.84375 0.54687,0 1.17187,0.0781 0.625,0.0625 1.35938,0.21875 v -1.26562 q 0,-0.64063 -0.59375,-1.10938 -0.59375,-0.48437 -1.78125,-0.48437 -0.90625,0 -2.54688,0.53125 -0.29687,0.0937 -0.375,0.0937 -0.15625,0 -0.26562,-0.10938 -0.10938,-0.10937 -0.10938,-0.28125 0,-0.15625 0.0937,-0.25 0.14063,-0.14062 1.0625,-0.375 1.4375,-0.39062 2.1875,-0.39062 1.46875,0 2.29688,0.73437 0.82812,0.71875 0.82812,1.64063 v 5.15625 h 1.03125 q 0.29688,0 0.40625,0.10937 0.125,0.10938 0.125,0.28125 0,0.17188 -0.125,0.28125 -0.10937,0.10938 -0.40625,0.10938 z m 0,-3.875 q -0.54688,-0.15625 -1.15625,-0.23438 -0.60938,-0.0781 -1.28125,-0.0781 -1.70313,0 -2.65625,0.73437 -0.73438,0.54688 -0.73438,1.3125 0,0.70313 0.54688,1.1875 0.5625,0.48438 1.625,0.48438 1,0 1.85937,-0.40625 0.875,-0.40625 1.79688,-1.28125 z m 6.65185,-4.15625 v 1.17187 q 0.8125,-0.82812 1.46875,-1.14062 0.65625,-0.3125 1.48438,-0.3125 0.89062,0 1.625,0.375 0.51562,0.28125 0.9375,0.9375 0.42187,0.64062 0.42187,1.3125 v 4.90625 h 0.65625 q 0.28125,0 0.40625,0.10937 0.125,0.10938 0.125,0.28125 0,0.17188 -0.125,0.28125 -0.125,0.10938 -0.40625,0.10938 h -2.07812 q -0.29688,0 -0.42188,-0.10938 -0.10937,-0.10937 -0.10937,-0.28125 0,-0.17187 0.10937,-0.28125 0.125,-0.10937 0.42188,-0.10937 h 0.64062 v -4.78125 q 0,-0.82813 -0.60937,-1.39063 -0.59375,-0.57812 -1.60938,-0.57812 -0.76562,0 -1.32812,0.3125 -0.5625,0.3125 -1.60938,1.54687 v 4.89063 h 0.875 q 0.28125,0 0.39063,0.10937 0.125,0.10938 0.125,0.28125 0,0.17188 -0.125,0.28125 -0.10938,0.10938 -0.39063,0.10938 h -2.54687 q -0.26563,0 -0.39063,-0.10938 -0.125,-0.10937 -0.125,-0.28125 0,-0.17187 0.125,-0.28125 0.125,-0.10937 0.39063,-0.10937 h 0.89062 v -6.46875 h -0.65625 q -0.28125,0 -0.40625,-0.10938 -0.125,-0.10937 -0.125,-0.28125 0,-0.17187 0.125,-0.28125 0.125,-0.10937 0.40625,-0.10937 z m 16.54248,1.42187 v -1.42187 h 1.82813 q 0.26562,0 0.39062,0.10937 0.125,0.10938 0.125,0.28125 0,0.17188 -0.125,0.28125 -0.125,0.10938 -0.39062,0.10938 h -1.0625 v 7.78125 q 0,0.78125 -0.32813,1.40625 -0.21875,0.40625 -0.75,0.82812 -0.51562,0.4375 -0.9375,0.625 -0.42187,0.1875 -1.14062,0.1875 h -2.20313 q -0.28125,0 -0.40625,-0.10937 -0.125,-0.0937 -0.125,-0.28125 0,-0.17188 0.125,-0.28125 0.125,-0.10938 0.40625,-0.10938 h 2.23438 q 0.6875,0 1.23437,-0.35937 0.54688,-0.34375 0.92188,-1.01563 0.20312,-0.39062 0.20312,-1 v -2.32812 q -1.26562,1.71875 -3.23437,1.71875 -1.60938,0 -2.78125,-1.1875 -1.15625,-1.20313 -1.15625,-2.89063 0,-1.67187 1.15625,-2.85937 1.17187,-1.1875 2.78125,-1.1875 1.96875,0 3.23437,1.70312 z m 0,2.34375 q 0,-1.35937 -0.95312,-2.3125 -0.9375,-0.95312 -2.25,-0.95312 -1.29688,0 -2.23438,0.95312 -0.9375,0.95313 -0.9375,2.3125 0,1.375 0.9375,2.32813 0.9375,0.95312 2.23438,0.95312 1.3125,0 2.25,-0.95312 0.95312,-0.95313 0.95312,-2.32813 z m 12.99561,0.4375 h -7.95313 q 0.21875,1.51563 1.28125,2.4375 1.0625,0.92188 2.625,0.92188 0.875,0 1.82813,-0.28125 0.95312,-0.29688 1.5625,-0.76563 0.17187,-0.14062 0.29687,-0.14062 0.15625,0 0.26563,0.125 0.10937,0.10937 0.10937,0.26562 0,0.15625 -0.15625,0.29688 -0.4375,0.46875 -1.57812,0.875 -1.14063,0.40625 -2.32813,0.40625 -2,0 -3.34375,-1.3125 -1.34375,-1.3125 -1.34375,-3.1875 0,-1.6875 1.25,-2.90625 1.26563,-1.21875 3.125,-1.21875 1.90625,0 3.14063,1.25 1.23437,1.25 1.21875,3.23437 z m -0.79688,-0.79687 q -0.23437,-1.28125 -1.21875,-2.09375 -0.98437,-0.8125 -2.34375,-0.8125 -1.375,0 -2.35937,0.8125 -0.96875,0.79687 -1.21875,2.09375 z m 10.55811,-2.90625 q 0,-0.26563 0.10937,-0.375 0.10938,-0.125 0.28125,-0.125 0.17188,0 0.28125,0.125 0.10938,0.10937 0.10938,0.40625 v 1.32812 q 0,0.28125 -0.10938,0.40625 -0.10937,0.10938 -0.28125,0.10938 -0.17187,0 -0.28125,-0.0937 -0.0937,-0.10938 -0.10937,-0.34375 -0.0625,-0.54688 -0.57813,-0.90625 -0.76562,-0.53125 -2.01562,-0.53125 -1.3125,0 -2.03125,0.53125 -0.54688,0.40625 -0.54688,0.89062 0,0.5625 0.64063,0.9375 0.45312,0.25 1.70312,0.39063 1.60938,0.17187 2.25,0.40625 0.89063,0.32812 1.32813,0.90625 0.45312,0.5625 0.45312,1.23437 0,0.98438 -0.95312,1.76563 -0.95313,0.78125 -2.8125,0.78125 -1.84375,0 -3.01563,-0.9375 0,0.3125 -0.0469,0.40625 -0.0312,0.0937 -0.125,0.15625 -0.0937,0.0625 -0.21875,0.0625 -0.17188,0 -0.28125,-0.10938 -0.10938,-0.125 -0.10938,-0.40625 v -1.60937 q 0,-0.28125 0.10938,-0.39063 0.10937,-0.125 0.28125,-0.125 0.17187,0 0.28125,0.125 0.10937,0.10938 0.10937,0.29688 0,0.42187 0.21875,0.71875 0.32813,0.4375 1.03125,0.73437 0.71875,0.29688 1.75,0.29688 1.51563,0 2.25,-0.5625 0.75,-0.57813 0.75,-1.20313 0,-0.71875 -0.75,-1.15625 -0.76562,-0.4375 -2.21875,-0.57812 -1.45312,-0.15625 -2.07812,-0.39063 -0.625,-0.25 -0.98438,-0.73437 -0.35937,-0.48438 -0.35937,-1.03125 0,-1.01563 0.98437,-1.59375 0.98438,-0.59375 2.35938,-0.59375 1.60937,0 2.625,0.78125 z m 22.80371,0 q 0,-0.26563 0.10937,-0.375 0.10938,-0.125 0.28125,-0.125 0.17188,0 0.28125,0.125 0.10938,0.10937 0.10938,0.40625 v 1.32812 q 0,0.28125 -0.10938,0.40625 -0.10937,0.10938 -0.28125,0.10938 -0.17187,0 -0.28125,-0.0937 -0.0937,-0.10938 -0.10937,-0.34375 -0.0625,-0.54688 -0.57813,-0.90625 -0.76562,-0.53125 -2.01562,-0.53125 -1.3125,0 -2.03125,0.53125 -0.54688,0.40625 -0.54688,0.89062 0,0.5625 0.64063,0.9375 0.45312,0.25 1.70312,0.39063 1.60938,0.17187 2.25,0.40625 0.89063,0.32812 1.32813,0.90625 0.45312,0.5625 0.45312,1.23437 0,0.98438 -0.95312,1.76563 -0.95313,0.78125 -2.8125,0.78125 -1.84375,0 -3.01563,-0.9375 0,0.3125 -0.0469,0.40625 -0.0312,0.0937 -0.125,0.15625 -0.0937,0.0625 -0.21875,0.0625 -0.17188,0 -0.28125,-0.10938 -0.10938,-0.125 -0.10938,-0.40625 v -1.60937 q 0,-0.28125 0.10938,-0.39063 0.10937,-0.125 0.28125,-0.125 0.17187,0 0.28125,0.125 0.10937,0.10938 0.10937,0.29688 0,0.42187 0.21875,0.71875 0.32813,0.4375 1.03125,0.73437 0.71875,0.29688 1.75,0.29688 1.51563,0 2.25,-0.5625 0.75,-0.57813 0.75,-1.20313 0,-0.71875 -0.75,-1.15625 -0.76562,-0.4375 -2.21875,-0.57812 -1.45312,-0.15625 -2.07812,-0.39063 -0.625,-0.25 -0.98438,-0.73437 -0.35937,-0.48438 -0.35937,-1.03125 0,-1.01563 0.98437,-1.59375 0.98438,-0.59375 2.35938,-0.59375 1.60937,0 2.625,0.78125 z m 7.21435,-0.5 h 4.23438 q 0.28125,0 0.39062,0.10937 0.125,0.10938 0.125,0.28125 0,0.17188 -0.125,0.28125 -0.10937,0.10938 -0.39062,0.10938 h -4.23438 v 5.1875 q 0,0.6875 0.54688,1.14062 0.54687,0.45313 1.59375,0.45313 0.78125,0 1.70312,-0.23438 0.92188,-0.25 1.4375,-0.54687 0.1875,-0.10938 0.29688,-0.10938 0.15625,0 0.26562,0.125 0.10938,0.10938 0.10938,0.26563 0,0.14062 -0.125,0.25 -0.29688,0.3125 -1.4375,0.67187 -1.14063,0.35938 -2.1875,0.35938 -1.375,0 -2.1875,-0.64063 -0.79688,-0.64062 -0.79688,-1.73437 v -5.1875 h -1.4375 q -0.28125,0 -0.40625,-0.10938 -0.10937,-0.10937 -0.10937,-0.28125 0,-0.17187 0.10937,-0.28125 0.125,-0.10937 0.40625,-0.10937 h 1.4375 v -2.29688 q 0,-0.28125 0.10938,-0.40625 0.10937,-0.125 0.28125,-0.125 0.17187,0 0.28125,0.125 0.10937,0.125 0.10937,0.40625 z m 15.24561,8.03125 v -1.125 q -1.6875,1.4375 -3.625,1.4375 -1.40625,0 -2.1875,-0.70313 -0.78125,-0.71875 -0.78125,-1.75 0,-1.14062 1.03125,-1.98437 1.04687,-0.84375 3.03125,-0.84375 0.54687,0 1.17187,0.0781 0.625,0.0625 1.35938,0.21875 v -1.26562 q 0,-0.64063 -0.59375,-1.10938 -0.59375,-0.48437 -1.78125,-0.48437 -0.90625,0 -2.54688,0.53125 -0.29687,0.0937 -0.375,0.0937 -0.15625,0 -0.26562,-0.10938 -0.10938,-0.10937 -0.10938,-0.28125 0,-0.15625 0.0937,-0.25 0.14063,-0.14062 1.0625,-0.375 1.4375,-0.39062 2.1875,-0.39062 1.46875,0 2.29688,0.73437 0.82812,0.71875 0.82812,1.64063 v 5.15625 h 1.03125 q 0.29688,0 0.40625,0.10937 0.125,0.10938 0.125,0.28125 0,0.17188 -0.125,0.28125 -0.10937,0.10938 -0.40625,0.10938 z m 0,-3.875 q -0.54688,-0.15625 -1.15625,-0.23438 -0.60938,-0.0781 -1.28125,-0.0781 -1.70313,0 -2.65625,0.73437 -0.73438,0.54688 -0.73438,1.3125 0,0.70313 0.54688,1.1875 0.5625,0.48438 1.625,0.48438 1,0 1.85937,-0.40625 0.875,-0.40625 1.79688,-1.28125 z m 11.79248,-2.73438 v -1.42187 h 1.82812 q 0.26563,0 0.39063,0.10937 0.125,0.10938 0.125,0.28125 0,0.17188 -0.125,0.28125 -0.125,0.10938 -0.39063,0.10938 h -1.0625 v 7.78125 q 0,0.78125 -0.32812,1.40625 -0.21875,0.40625 -0.75,0.82812 -0.51563,0.4375 -0.9375,0.625 -0.42188,0.1875 -1.14063,0.1875 h -2.20312 q -0.28125,0 -0.40625,-0.10937 -0.125,-0.0937 -0.125,-0.28125 0,-0.17188 0.125,-0.28125 0.125,-0.10938 0.40625,-0.10938 h 2.23437 q 0.6875,0 1.23438,-0.35937 0.54687,-0.34375 0.92187,-1.01563 0.20313,-0.39062 0.20313,-1 v -2.32812 q -1.26563,1.71875 -3.23438,1.71875 -1.60937,0 -2.78125,-1.1875 -1.15625,-1.20313 -1.15625,-2.89063 0,-1.67187 1.15625,-2.85937 1.17188,-1.1875 2.78125,-1.1875 1.96875,0 3.23438,1.70312 z m 0,2.34375 q 0,-1.35937 -0.95313,-2.3125 -0.9375,-0.95312 -2.25,-0.95312 -1.29687,0 -2.23437,0.95312 -0.9375,0.95313 -0.9375,2.3125 0,1.375 0.9375,2.32813 0.9375,0.95312 2.23437,0.95312 1.3125,0 2.25,-0.95312 0.95313,-0.95313 0.95313,-2.32813 z m 12.9956,0.4375 h -7.95312 q 0.21875,1.51563 1.28125,2.4375 1.0625,0.92188 2.625,0.92188 0.875,0 1.82812,-0.28125 0.95313,-0.29688 1.5625,-0.76563 0.17188,-0.14062 0.29688,-0.14062 0.15625,0 0.26562,0.125 0.10938,0.10937 0.10938,0.26562 0,0.15625 -0.15625,0.29688 -0.4375,0.46875 -1.57813,0.875 -1.14062,0.40625 -2.32812,0.40625 -2,0 -3.34375,-1.3125 -1.34375,-1.3125 -1.34375,-3.1875 0,-1.6875 1.25,-2.90625 1.26562,-1.21875 3.125,-1.21875 1.90625,0 3.14062,1.25 1.23438,1.25 1.21875,3.23437 z m -0.79687,-0.79687 q -0.23438,-1.28125 -1.21875,-2.09375 -0.98438,-0.8125 -2.34375,-0.8125 -1.375,0 -2.35938,0.8125 -0.96875,0.79687 -1.21875,2.09375 z m 11.79248,-7.01563 v 10.85938 h 1.04687 q 0.28125,0 0.40625,0.10937 0.125,0.10938 0.125,0.28125 0,0.17188 -0.125,0.28125 -0.125,0.10938 -0.40625,0.10938 h -1.82812 v -1.54688 q -1.35938,1.85938 -3.45313,1.85938 -1.04687,0 -2.01562,-0.5625 -0.96875,-0.5625 -1.53125,-1.59375 -0.5625,-1.04688 -0.5625,-2.15625 0,-1.10938 0.5625,-2.14063 0.5625,-1.04687 1.53125,-1.60937 0.96875,-0.5625 2.03125,-0.5625 2.04687,0 3.4375,1.85937 v -4.40625 h -1.04688 q -0.28125,0 -0.40625,-0.10937 -0.125,-0.10938 -0.125,-0.28125 0,-0.17188 0.125,-0.28125 0.125,-0.10938 0.40625,-0.10938 z m -0.78125,7.64063 q 0,-1.48438 -1.01563,-2.5 -1,-1.03125 -2.375,-1.03125 -1.39062,0 -2.39062,1.03125 -1,1.01562 -1,2.5 0,1.46875 1,2.5 1,1.03125 2.39062,1.03125 1.375,0 2.375,-1.03125 1.01563,-1.03125 1.01563,-2.5 z"
       id="path31"
       inkscape:connector-curvature="0"
       style="fill:#000000;fill-rule:nonzero;stroke:none;stroke-linecap:square;stroke-miterlimit:10" />
  </g>
  <g
     clip-path="url(#g800ff8fafc_0_158.0)"
     id="g33"
     transform="translate(-51.20604,-132.19029)" />
</svg>
