<?xml version="1.0" encoding="UTF-8" standalone="no"?>
<svg
   width="52.699265mm"
   height="36.844906mm"
   version="1.1"
   viewBox="-2165.612 2706.863 273.86831 191.47598"
   id="svg1440"
   sodipodi:docname="memory.svg"
   inkscape:version="1.1.2 (0a00cf5339, 2022-02-04, custom)"
   xmlns:inkscape="http://www.inkscape.org/namespaces/inkscape"
   xmlns:sodipodi="http://sodipodi.sourceforge.net/DTD/sodipodi-0.dtd"
   xmlns="http://www.w3.org/2000/svg"
   xmlns:svg="http://www.w3.org/2000/svg"
   xmlns:rdf="http://www.w3.org/1999/02/22-rdf-syntax-ns#"
   xmlns:cc="http://creativecommons.org/ns#"
   xmlns:dc="http://purl.org/dc/elements/1.1/">
  <sodipodi:namedview
     id="namedview1442"
     pagecolor="#ffffff"
     bordercolor="#666666"
     borderopacity="1.0"
     inkscape:pageshadow="2"
     inkscape:pageopacity="0.0"
     inkscape:pagecheckerboard="0"
     inkscape:document-units="mm"
     showgrid="false"
     fit-margin-top="5"
     fit-margin-left="2"
     fit-margin-right="2"
     fit-margin-bottom="5"
     inkscape:zoom="4.0228487"
     inkscape:cx="99.556317"
     inkscape:cy="69.726709"
     inkscape:current-layer="svg1440" />
  <!--
	Exported with Concepts: Smarter Sketching
	Version: 1055 on iOS 15.3
	https://concepts.app/
	-->
  <title
     id="title1354">LLVM IR</title>
  <desc
     id="desc1356">Drawing exported from Concepts: Smarter Sketching</desc>
  <defs
     id="defs1358" />
  <g
     id="Pen"
     opacity="1"
     transform="translate(7.451125,23.22651)">
    <path
       id="STROKE_841e3014-f0cc-4209-a840-13b5b642f2c4"
       opacity="1"
       fill="none"
       stroke="#000000"
       stroke-width="1.779"
       stroke-opacity="1"
       stroke-linecap="round"
       stroke-linejoin="round"
       d="m -2013.623,2846.967 q 0.132,-0.024 0.073,-0.599 -0.06,-0.575 -0.103,-1.32 -0.044,-0.746 -0.04,-1.255 0,-0.509 0.018,-0.952 0.014,-0.443 -0.01,-1.326 -0.022,-0.882 -0.128,-1.861 -0.106,-0.978 -0.116,-1.847 -0.01,-0.868 -0.02,-1.478 -0.01,-0.61 -0.017,-0.871 -0.01,-0.262 -0.135,-2.713 -0.128,-2.452 -0.157,-3.792 -0.029,-1.339 -0.017,-2.16 0.012,-0.821 0,-1.574 -0.015,-0.753 0.017,-3.886 0.033,-3.133 0.061,-4.847 0.028,-1.714 0.051,-2.957 0.024,-1.243 0.038,-1.803 0.014,-0.56 0.013,-2.613 -10e-4,-2.052 0.063,-3.302 0.064,-1.249 0.126,-2.766 0.063,-1.517 0.087,-3.142 0.024,-1.625 0.032,-2.428 0.01,-0.803 0.01,-2.119 0,-1.316 0,-2.087 0,-0.772 0,-1.754 0,-0.983 -0.01,-1.772 -0.01,-0.789 -0.015,-1.225 0,-0.436 -0.01,-2.687 -0,-2.251 0,-3.502 0,-1.252 -0.017,-2.029 -0.019,-0.777 -0.056,-1.675 -0.038,-0.897 -0.053,-1.798 -0.015,-0.9 -0.015,-1.597 0,-0.697 0,-1.274 -10e-4,-0.578 0,-1.133 0,-0.555 0.01,-1.933 0.01,-1.378 -0.023,-3.163 -0.033,-1.785 -0.06,-2.653 -0.026,-0.869 -0.03,-1.262 0,-0.392 -0.01,-1.398 0,-1.007 0,-1.745 10e-4,-0.738 10e-4,-1.064 -10e-4,-0.326 0,-0.579 10e-4,-0.252 0,-1.35 0,-1.099 0,-2.573 -0.01,-1.474 0.01,-2.648 0.013,-1.175 0.023,-1.726 0.01,-0.551 0.033,-0.845 0.024,-0.295 0.049,-1.902 0.025,-1.607 0,-2.684 -0.026,-1.077 -0.041,-1.532 -0.016,-0.455 -0.01,-0.692 0.01,-0.238 10e-4,-0.508 0,-0.27 -0.01,-0.29" />
    <path
       id="STROKE_2b633341-3b60-42b5-a18d-bd811775f0f2"
       opacity="1"
       fill="none"
       stroke="#000000"
       stroke-width="1.779"
       stroke-opacity="1"
       stroke-linecap="round"
       stroke-linejoin="round"
       d="m -2000.913,2846.948 q 0.133,-0.023 0.073,-0.599 -0.06,-0.575 -0.103,-1.32 -0.043,-0.745 -0.04,-1.254 0,-0.509 0.018,-0.952 0.015,-0.444 -0.01,-1.326 -0.023,-0.883 -0.129,-1.861 -0.106,-0.979 -0.115,-1.847 -0.01,-0.869 -0.02,-1.478 -0.011,-0.61 -0.018,-0.872 -0.01,-0.261 -0.135,-2.713 -0.128,-2.452 -0.157,-3.791 -0.029,-1.34 -0.017,-2.161 0.012,-0.82 0,-1.574 -0.015,-0.753 0.017,-3.886 0.033,-3.132 0.061,-4.846 0.028,-1.715 0.052,-2.958 0.023,-1.242 0.037,-1.802 0.014,-0.561 0.013,-2.613 0,-2.053 0.063,-3.302 0.064,-1.25 0.126,-2.767 0.063,-1.517 0.087,-3.142 0.025,-1.625 0.032,-2.428 0.01,-0.803 0.01,-2.119 0,-1.316 0,-2.087 0,-0.771 0,-1.754 0,-0.982 -0.01,-1.771 -0.011,-0.789 -0.016,-1.226 0,-0.436 -0.01,-2.687 0,-2.25 0,-3.502 0,-1.251 -0.017,-2.028 -0.018,-0.777 -0.056,-1.675 -0.038,-0.898 -0.052,-1.798 -0.015,-0.901 -0.016,-1.598 0,-0.697 0,-1.274 0,-0.577 0,-1.132 0,-0.555 0.01,-1.933 0.01,-1.379 -0.023,-3.164 -0.033,-1.784 -0.059,-2.653 -0.026,-0.868 -0.031,-1.261 0,-0.393 -0.01,-1.399 0,-1.006 0,-1.744 0,-0.738 0,-1.065 0,-0.326 10e-4,-0.578 10e-4,-0.253 10e-4,-1.351 10e-4,-1.098 0,-2.573 -0.01,-1.474 0.01,-2.648 0.012,-1.174 0.022,-1.725 0.01,-0.551 0.034,-0.846 0.023,-0.295 0.048,-1.902 0.025,-1.606 -10e-4,-2.683 -0.025,-1.077 -0.041,-1.532 -0.015,-0.456 -0.01,-0.693 0.01,-0.237 0,-0.507 0,-0.27 -0.01,-0.29" />
    <path
       id="STROKE_9ac3b8f1-28f5-4f65-a1a2-878549b38a6a"
       opacity="1"
       fill="none"
       stroke="#000000"
       stroke-width="1.779"
       stroke-opacity="1"
       stroke-linecap="round"
       stroke-linejoin="round"
       d="m -1987.445,2847.085 q 0.133,-0.024 0.073,-0.599 -0.06,-0.575 -0.103,-1.32 -0.044,-0.746 -0.04,-1.255 0,-0.509 0.018,-0.952 0.015,-0.443 -0.01,-1.326 -0.022,-0.883 -0.128,-1.861 -0.106,-0.978 -0.116,-1.847 -0.01,-0.868 -0.02,-1.478 -0.01,-0.61 -0.017,-0.871 -0.01,-0.262 -0.135,-2.713 -0.128,-2.452 -0.157,-3.792 -0.029,-1.339 -0.017,-2.16 0.012,-0.821 0,-1.574 -0.015,-0.753 0.017,-3.886 0.033,-3.133 0.061,-4.847 0.028,-1.714 0.051,-2.957 0.024,-1.243 0.038,-1.803 0.014,-0.56 0.013,-2.613 0,-2.052 0.063,-3.302 0.064,-1.249 0.126,-2.766 0.063,-1.517 0.087,-3.142 0.024,-1.625 0.032,-2.428 0.01,-0.803 0.01,-2.119 0,-1.316 0,-2.087 0,-0.772 0,-1.754 0,-0.983 -0.01,-1.772 -0.01,-0.789 -0.015,-1.225 -0.01,-0.437 -0.01,-2.687 0,-2.251 0,-3.502 0,-1.252 -0.017,-2.029 -0.019,-0.777 -0.056,-1.674 -0.038,-0.898 -0.053,-1.799 -0.015,-0.9 -0.015,-1.597 0,-0.697 0,-1.274 -10e-4,-0.578 0,-1.133 0,-0.555 0.01,-1.933 0.01,-1.378 -0.023,-3.163 -0.033,-1.784 -0.059,-2.653 -0.027,-0.869 -0.031,-1.262 -0.01,-0.392 -0.01,-1.398 0,-1.007 0,-1.745 10e-4,-0.738 10e-4,-1.064 -10e-4,-0.327 10e-4,-0.579 10e-4,-0.252 10e-4,-1.351 0,-1.098 -0.01,-2.572 0,-1.474 0.01,-2.648 0.013,-1.175 0.023,-1.726 0.01,-0.551 0.033,-0.845 0.024,-0.295 0.049,-1.902 0.025,-1.607 -10e-4,-2.684 -0.026,-1.077 -0.041,-1.532 -0.016,-0.455 -0.01,-0.692 0.01,-0.237 0,-0.507 0,-0.271 -0.01,-0.29" />
    <path
       id="STROKE_f744a21d-fa09-4014-a2e1-de7adbeff68e"
       opacity="1"
       fill="none"
       stroke="#000000"
       stroke-width="1.779"
       stroke-opacity="1"
       stroke-linecap="round"
       stroke-linejoin="round"
       d="m -2014.148,2742.509 q 0.129,0 0.114,0 0.211,0 0.152,0 0.14,0 0.138,0 0.112,-0.01 0.595,-0.054 0.484,-0.044 0.971,-0.048 0.487,0 0.736,-0.013 0.25,-0.01 0.455,0 0.205,0.01 0.626,-0.012 0.421,-0.019 0.614,-0.037 0.193,-0.019 1.665,-0.069 1.472,-0.05 2.647,-0.074 1.176,-0.024 1.693,-0.015 0.518,0.01 0.894,0 0.376,-0.01 1.181,-0.036 0.804,-0.03 1.41,-0.027 0.605,0 1.146,0 0.541,0 1.006,0 0.465,0 0.892,0 0.428,0 0.771,0 0.343,0 0.534,0.01 0.191,0.01 0.881,0.01 0.691,0 2.15,-0.014 1.46,-0.016 2.287,-0.029 0.827,-0.013 1.187,-0.01 0.36,0 0.65,0 0.29,0 0.619,0 0.329,0 0.922,0 0.593,0 1.769,0 1.175,0 1.758,0 0.583,0 0.904,0 0.321,0 0.838,-0.01 0.517,-0.01 0.914,-0.014 0.397,-0.01 0.544,0 0.146,0 0.3,0 0.154,-0 0.216,0 0.062,0 0.174,0 0.112,0 0.295,-0.01 0.183,-0.01 0.28,-0.01 0.098,0 0.173,0 0.075,0 0.159,0 0.085,0 0.178,0 0.093,0 0.5,0 0.408,0 0.948,-0.01 0.54,-0.013 0.831,-0.013 0.29,0 0.413,0 0.124,0 0.119,0 -0.01,0 0.01,0 0.014,0 1.005,0 0.991,0 2.01,0 1.02,0 1.585,0 0.565,0 0.999,-0.014 0.434,-0.017 0.653,-0.016 0.219,0 0.412,0 0.194,0 0.685,0 0.491,0 0.897,0 0.406,0 0.578,0 0.173,0 0.249,0 0.076,0 0.054,0 -0.021,0 0.042,0 0.063,0 0.176,0 0.113,0 0.189,0 0.076,0 0.069,-0 -0.01,0 0.053,0 0.06,0 0.268,0 0.208,0 0.319,0 0.11,0 0.172,-0.01 0.063,-0.01 0.062,-0.01 0,0 0.027,-0 0.027,0 0,0 -0.027,0 0.067,-0.01 0.095,-0.012 0.166,-0.017 0.071,-0.01 0.062,0 -0.01,0 0.01,0 0.015,0 0.061,-0.01 0.046,-0.01 0.051,-0.01 0,0 0.046,0 0.041,0 0.082,-0.01 0.041,0 0.043,0 10e-4,0 0.013,0 0.012,0 0.063,0 0.051,0 0.063,0 0.013,0 0,0 -0.016,0 0.09,-0.01 0.106,-0.01 0.076,-0.01 -0.029,0 0.07,0 0.099,0 0.064,0 -0.035,0 0.055,0 0.09,0 0.168,0 0.078,0 0.154,0 0.076,0 0.074,0 0,0 0.027,0 0.03,0 0.018,0 -0.013,0 0.175,0 0.188,-0 0.491,0 0.303,0 0.328,0.01" />
    <path
       id="STROKE_6453b015-f097-4d2b-8a13-a4f8794a2089"
       opacity="1"
       fill="none"
       stroke="#000000"
       stroke-width="1.779"
       stroke-opacity="1"
       stroke-linecap="round"
       stroke-linejoin="round"
       d="m -1974.534,2846.979 q 0.133,-0.024 0.073,-0.6 -0.06,-0.575 -0.103,-1.32 -0.043,-0.745 -0.04,-1.254 0,-0.509 0.018,-0.952 0.015,-0.444 -0.01,-1.326 -0.023,-0.883 -0.129,-1.861 -0.106,-0.978 -0.115,-1.847 -0.01,-0.869 -0.02,-1.478 -0.011,-0.61 -0.018,-0.872 -0.01,-0.261 -0.135,-2.713 -0.128,-2.452 -0.157,-3.791 -0.029,-1.34 -0.017,-2.16 0.012,-0.821 0,-1.574 -0.015,-0.753 0.018,-3.886 0.032,-3.133 0.06,-4.847 0.028,-1.715 0.052,-2.957 0.023,-1.243 0.037,-1.803 0.014,-0.56 0.013,-2.613 0,-2.053 0.063,-3.302 0.064,-1.25 0.126,-2.767 0.063,-1.517 0.087,-3.142 0.025,-1.625 0.032,-2.428 0.01,-0.802 0.01,-2.118 0,-1.316 0,-2.088 0,-0.771 0,-1.754 0,-0.982 -0.01,-1.771 -0.011,-0.789 -0.016,-1.226 -0.01,-0.436 -0.01,-2.687 -0,-2.25 10e-4,-3.502 0,-1.251 -0.016,-2.028 -0.019,-0.777 -0.057,-1.675 -0.037,-0.897 -0.052,-1.798 -0.015,-0.901 -0.016,-1.598 0,-0.697 0,-1.274 0,-0.577 0,-1.132 0,-0.555 0.01,-1.933 0.01,-1.379 -0.023,-3.163 -0.033,-1.785 -0.059,-2.654 -0.026,-0.868 -0.031,-1.261 -0.01,-0.393 -0.01,-1.399 0,-1.006 0,-1.744 10e-4,-0.738 10e-4,-1.065 0,-0.326 0,-0.578 10e-4,-0.253 10e-4,-1.351 0,-1.098 -0.01,-2.572 0,-1.474 0.01,-2.649 0.012,-1.174 0.022,-1.725 0.01,-0.551 0.034,-0.846 0.023,-0.294 0.048,-1.901 0.025,-1.607 -10e-4,-2.684 -0.025,-1.077 -0.041,-1.532 -0.015,-0.455 -0.01,-0.693 0.01,-0.237 0,-0.507 -0.01,-0.27 -0.01,-0.29" />
    <path
       id="STROKE_d0433fc1-2dcc-4e45-bc6a-b5a450c58d00"
       opacity="1"
       fill="none"
       stroke="#000000"
       stroke-width="1.779"
       stroke-opacity="1"
       stroke-linecap="round"
       stroke-linejoin="round"
       d="m -1962.216,2846.997 q 0.132,-0.024 0.073,-0.599 -0.06,-0.575 -0.103,-1.32 -0.044,-0.745 -0.04,-1.254 0,-0.509 0.018,-0.953 0.014,-0.443 -0.01,-1.326 -0.022,-0.882 -0.128,-1.86 -0.106,-0.979 -0.116,-1.848 -0.01,-0.868 -0.02,-1.478 -0.01,-0.609 -0.017,-0.871 -0.01,-0.261 -0.135,-2.713 -0.128,-2.452 -0.157,-3.791 -0.029,-1.34 -0.017,-2.161 0.012,-0.821 0,-1.574 -0.015,-0.753 0.017,-3.886 0.033,-3.132 0.061,-4.846 0.028,-1.715 0.051,-2.958 0.024,-1.243 0.038,-1.803 0.014,-0.56 0.013,-2.612 -10e-4,-2.053 0.063,-3.302 0.064,-1.25 0.126,-2.767 0.062,-1.517 0.087,-3.142 0.024,-1.625 0.032,-2.428 0.01,-0.803 0.01,-2.119 0,-1.316 0,-2.087 0,-0.771 0,-1.754 0,-0.983 -0.01,-1.772 -0.01,-0.789 -0.015,-1.225 -0.01,-0.436 -0.01,-2.687 -10e-4,-2.25 0,-3.502 0,-1.252 -0.017,-2.028 -0.019,-0.778 -0.056,-1.675 -0.038,-0.898 -0.053,-1.798 -0.015,-0.901 -0.015,-1.598 0,-0.697 -10e-4,-1.274 0,-0.577 0,-1.132 0,-0.555 0.01,-1.934 0.01,-1.378 -0.023,-3.163 -0.033,-1.784 -0.06,-2.653 -0.026,-0.869 -0.03,-1.261 -0.01,-0.393 -0.01,-1.399 0,-1.006 0,-1.744 0,-0.739 0,-1.065 0,-0.326 0,-0.578 10e-4,-0.253 0,-1.351 0,-1.099 -0.01,-2.573 0,-1.474 0.01,-2.648 0.013,-1.174 0.023,-1.725 0.01,-0.552 0.033,-0.846 0.024,-0.295 0.049,-1.902 0.025,-1.606 -10e-4,-2.683 -0.026,-1.078 -0.041,-1.533 -0.016,-0.455 -0.01,-0.692 0.01,-0.237 0,-0.507 0,-0.27 -0.01,-0.29" />
    <path
       id="STROKE_76f49784-55fa-4aee-aae4-ffb0518dbe96"
       opacity="1"
       fill="none"
       stroke="#000000"
       stroke-width="1.779"
       stroke-opacity="1"
       stroke-linecap="round"
       stroke-linejoin="round"
       d="m -2013.941,2756.69 q 0.129,0 0.115,0 0.21,0 0.151,0 0.14,0 0.138,0 0.112,-0.01 0.596,-0.054 0.483,-0.044 0.97,-0.048 0.487,0 0.737,-0.013 0.25,-0.01 0.454,0 0.205,0.01 0.626,-0.012 0.422,-0.018 0.615,-0.037 0.193,-0.019 1.664,-0.069 1.472,-0.05 2.648,-0.074 1.175,-0.024 1.693,-0.015 0.517,0.01 0.893,0 0.376,-0.01 1.181,-0.036 0.805,-0.03 1.41,-0.027 0.605,0 1.146,0 0.541,0 1.006,0 0.465,0 0.893,0 0.427,0 0.77,0 0.343,0 0.534,0.01 0.191,0.01 0.882,0.01 0.69,0 2.149,-0.014 1.46,-0.016 2.287,-0.029 0.827,-0.013 1.187,-0.01 0.36,0 0.65,0 0.291,-10e-4 0.619,0 0.329,0 0.922,0 0.593,0 1.769,0 1.176,0 1.758,-10e-4 0.583,0 0.904,0 0.321,0 0.838,-0.01 0.518,-0.01 0.914,-0.014 0.397,-0.01 0.544,0 0.147,0 0.301,0 0.153,0 0.215,0 0.062,0 0.174,0 0.112,0 0.295,-0.01 0.183,0 0.281,-0.01 0.097,0 0.172,0 0.075,0 0.159,0 0.085,0 0.178,0 0.093,0 0.501,0 0.407,0 0.947,-0.01 0.541,-0.013 0.831,-0.013 0.29,0 0.413,0 0.124,0 0.119,0 0,0 0.01,0 0.014,0 1.005,0 0.991,0 2.011,0 1.019,0 1.584,0 0.565,0 0.999,-0.014 0.434,-0.017 0.653,-0.016 0.219,0 0.412,0 0.194,0 0.685,0 0.491,0 0.897,0 0.406,0 0.579,0 0.172,0 0.248,0 0.076,0 0.055,0 -0.022,0 0.041,0 0.064,0 0.177,0 0.112,0 0.188,0 0.076,0 0.069,0 -0.01,-0 0.053,0 0.06,0 0.269,0 0.208,0 0.318,0 0.11,0 0.173,-0.01 0.063,-0.01 0.062,-0.01 -10e-4,0 0.026,0 0.028,0 0,0 -0.028,0 0.067,-0.01 0.094,-0.012 0.165,-0.017 0.071,-0.01 0.062,0 -0.01,0 0.01,0 0.016,0 0.061,-0.01 0.046,-0.01 0.052,-0.01 0.01,10e-4 0.046,0 0.04,0 0.081,-0.01 0.041,0 0.043,0 10e-4,0 0.013,0 0.012,0 0.063,0 0.051,0 0.064,0 0.012,-10e-4 0,0 -0.017,0 0.089,0 0.106,-0.01 0.077,-0.01 -0.03,10e-4 0.069,10e-4 0.099,0 0.064,0 -0.035,0 0.055,0 0.091,0 0.169,0 0.078,0 0.153,0 0.076,0 0.074,0 0,0 0.028,0 0.029,0 0.017,0 -0.013,0 0.175,-10e-4 0.188,0 0.491,0 0.303,0 0.328,0.01" />
    <path
       id="STROKE_ca657556-ea83-4492-b1ec-ee56b92c93f1"
       opacity="1"
       fill="none"
       stroke="#000000"
       stroke-width="1.779"
       stroke-opacity="1"
       stroke-linecap="round"
       stroke-linejoin="round"
       d="m -2014,2768.933 q 0.129,0 0.115,0 0.21,0 0.151,0 0.14,0 0.138,0 0.112,-0.011 0.596,-0.055 0.483,-0.044 0.97,-0.048 0.487,0 0.737,-0.013 0.25,-0.01 0.454,0 0.205,0.01 0.626,-0.012 0.422,-0.018 0.615,-0.037 0.193,-0.019 1.665,-0.069 1.471,-0.05 2.647,-0.074 1.175,-0.023 1.693,-0.014 0.517,0.01 0.893,0 0.376,0 1.181,-0.036 0.805,-0.03 1.41,-0.027 0.606,0 1.147,0 0.541,-10e-4 1.005,0 0.465,0 0.893,-10e-4 0.428,0 0.77,0 0.343,0 0.534,0.01 0.191,0.01 0.882,0.01 0.69,0 2.15,-0.014 1.459,-0.016 2.286,-0.029 0.827,-0.013 1.187,-0.01 0.36,0 0.65,0 0.291,-0 0.62,0 0.329,0 0.921,0 0.593,0 1.769,0 1.176,0 1.759,-0 0.582,0 0.903,0 0.321,0 0.838,-0.01 0.518,-0.01 0.915,-0.014 0.396,-0.01 0.543,0 0.147,10e-4 0.301,10e-4 0.154,-10e-4 0.215,0 0.062,0 0.174,0 0.112,0 0.295,-0.01 0.183,-0.01 0.281,-0.01 0.097,0 0.172,0 0.075,0 0.16,0 0.084,0 0.177,0 0.093,0 0.501,0 0.407,0 0.947,-0.01 0.541,-0.012 0.831,-0.013 0.29,0 0.414,0 0.123,0 0.118,0 -0.01,0 0.01,0 0.014,0 1.005,0 0.992,0 2.011,0 1.019,0 1.584,0 0.565,0 0.999,-0.014 0.434,-0.017 0.653,-0.016 0.219,0 0.413,0 0.193,0 0.684,0 0.491,0 0.897,0 0.406,0 0.579,0 0.172,0 0.248,0 0.076,0 0.055,0 -0.022,0 0.041,0 0.064,0 0.177,0 0.113,0 0.189,0 0.076,0 0.068,-0 -0.01,0 0.053,0 0.061,0 0.269,0 0.208,0 0.318,0 0.11,0 0.173,-0.01 0.063,-0.01 0.062,-0.01 0,0 0.026,-10e-4 0.028,0 10e-4,0 -0.027,0 0.067,-0.01 0.094,-0.012 0.165,-0.017 0.071,-0.01 0.062,0 -0.01,0 0.01,0 0.016,0 0.062,-0.01 0.046,-0.01 0.051,-0.01 0.01,0 0.046,0 0.04,0 0.081,-0.01 0.041,0 0.043,0 10e-4,0 0.013,0 0.012,0 0.063,0 0.051,0 0.064,0 0.012,0 0,0 -0.017,0 0.09,-0.01 0.106,-0.01 0.076,-0.01 -0.03,0 0.069,0 0.099,0 0.064,0 -0.035,0 0.056,0 0.09,0 0.168,0 0.078,0 0.153,0 0.076,0 0.074,0 0,0 0.028,0 0.03,0 0.017,0 -0.012,0 0.176,0 0.188,0 0.491,0 0.303,0 0.327,0.01" />
    <path
       id="STROKE_380cf398-a6a4-4856-9108-7926fcb39cc3"
       opacity="1"
       fill="none"
       stroke="#000000"
       stroke-width="1.779"
       stroke-opacity="1"
       stroke-linecap="round"
       stroke-linejoin="round"
       d="m -2013.765,2781.757 q 0.129,0 0.115,0 0.21,0 0.151,0 0.14,0 0.138,0 0.112,-0.01 0.596,-0.054 0.483,-0.044 0.97,-0.048 0.487,0 0.737,-0.013 0.25,-0.01 0.454,0 0.205,0.01 0.626,-0.012 0.422,-0.019 0.615,-0.037 0.193,-0.019 1.665,-0.069 1.471,-0.05 2.647,-0.074 1.175,-0.024 1.693,-0.015 0.517,0.01 0.893,0 0.376,-0.01 1.181,-0.036 0.805,-0.03 1.41,-0.027 0.606,0 1.147,0 0.541,0 1.005,0 0.465,0 0.893,0 0.428,0 0.77,-10e-4 0.343,0 0.534,0.01 0.191,0.01 0.882,0.01 0.69,0 2.15,-0.014 1.459,-0.016 2.286,-0.029 0.827,-0.013 1.187,-0.01 0.36,0 0.65,0 0.291,0 0.62,0 0.328,0 0.921,0 0.593,0 1.769,0 1.176,0 1.759,0 0.582,0 0.903,0 0.321,0 0.838,-0.01 0.518,-0.01 0.915,-0.014 0.396,-0.01 0.543,0 0.147,0 0.301,0 0.154,-0 0.215,0 0.062,0 0.174,0 0.112,0 0.295,-0.01 0.183,-0.01 0.281,-0.01 0.097,0 0.172,0 0.075,10e-4 0.16,0 0.084,0 0.177,0 0.093,0 0.501,0 0.407,0 0.948,-0.01 0.54,-0.013 0.83,-0.013 0.29,0 0.413,0 0.124,0 0.119,0 0,0 0.01,0 0.014,0 1.005,0 0.992,0 2.011,0 1.019,0 1.584,0 0.565,0 0.999,-0.014 0.434,-0.017 0.653,-0.016 0.219,10e-4 0.413,10e-4 0.193,0 0.684,0 0.491,0 0.897,0 0.406,0 0.579,0 0.172,0 0.248,0 0.076,0 0.055,0 -0.022,0 0.041,0 0.064,0 0.177,0 0.113,0 0.189,0 0.076,0 0.068,-10e-4 -0.01,0 0.053,10e-4 0.061,0 0.269,0 0.208,0 0.318,0 0.11,0 0.173,-0.01 0.063,-0.01 0.062,-0.01 -10e-4,0 0.026,-10e-4 0.028,0 10e-4,0 -0.027,0 0.067,-0.01 0.094,-0.012 0.165,-0.017 0.071,-0.01 0.062,0 -0.01,0 0.01,0 0.016,0 0.062,-0.01 0.046,-0.01 0.051,-0.01 0,0 0.046,0 0.04,0 0.081,-0.01 0.041,0 0.043,0 0,0 0.013,0 0.012,0 0.063,0 0.051,0 0.064,0 0.012,0 0,0 -0.017,0 0.089,-0.01 0.107,-0.01 0.077,-0.01 -0.03,0 0.069,0 0.099,0 0.064,0 -0.035,0 0.056,0 0.09,0 0.168,0 0.078,0 0.154,0 0.075,0 0.073,0 0,0 0.028,0 0.03,0 0.017,0 -0.012,0 0.176,0 0.187,0 0.49,0 0.304,0 0.328,0.01" />
    <path
       id="STROKE_c0ba8b16-dde6-4782-9c84-57acf34f75eb"
       opacity="1"
       fill="none"
       stroke="#000000"
       stroke-width="1.779"
       stroke-opacity="1"
       stroke-linecap="round"
       stroke-linejoin="round"
       d="m -2013.656,2795.487 q 0.129,0 0.114,0 0.21,0 0.152,0 0.14,0 0.137,0 0.113,-0.01 0.596,-0.054 0.484,-0.044 0.97,-0.048 0.487,0 0.737,-0.013 0.25,-0.01 0.455,0 0.204,0.01 0.626,-0.012 0.421,-0.019 0.614,-0.037 0.193,-0.019 1.665,-0.069 1.472,-0.05 2.647,-0.074 1.176,-0.024 1.693,-0.015 0.517,0.01 0.893,0 0.377,-0.01 1.181,-0.036 0.805,-0.03 1.41,-0.027 0.606,0 1.147,0 0.541,0 1.006,0 0.464,0 0.892,0 0.428,0 0.771,-10e-4 0.342,0 0.533,0.01 0.192,0.01 0.882,0.01 0.69,0 2.15,-0.014 1.459,-0.016 2.286,-0.029 0.828,-0.013 1.187,-0.01 0.36,0 0.651,0 0.29,0 0.619,0 0.329,0 0.922,0 0.593,0 1.768,0 1.176,0 1.759,0 0.583,0 0.903,0 0.321,0 0.839,-0.01 0.517,-0.01 0.914,-0.014 0.397,-0.01 0.543,0 0.147,0 0.301,0 0.154,-0 0.216,0 0.061,0 0.174,0 0.112,0 0.294,-0.01 0.183,-0.01 0.281,-0.01 0.098,0 0.173,0 0.074,10e-4 0.159,0 0.084,0 0.177,0 0.094,0 0.501,0 0.407,0 0.948,-0.01 0.54,-0.013 0.83,-0.013 0.29,0 0.414,0 0.123,0 0.118,0 0,0 0.01,0 0.013,0 1.005,0 0.991,0 2.01,0 1.019,0 1.584,0 0.565,0 0.999,-0.014 0.434,-0.017 0.653,-0.016 0.22,10e-4 0.413,10e-4 0.193,0 0.684,0 0.492,0 0.898,0 0.406,0 0.578,0 0.173,0 0.249,0 0.076,0 0.054,0 -0.022,0 0.042,0 0.063,0 0.176,0 0.113,0 0.189,0 0.076,0 0.068,-10e-4 -0.01,0 0.053,10e-4 0.061,0 0.269,0 0.208,0 0.318,0 0.11,0 0.173,-0.01 0.063,-0.01 0.062,-0.01 -10e-4,0 0.027,-10e-4 0.027,0 0,0 -0.027,0 0.067,-0.01 0.094,-0.012 0.165,-0.017 0.072,-0.01 0.062,0 -0.01,0 0.01,0 0.015,0 0.061,-0.01 0.046,-0.01 0.051,-0.01 0,0 0.046,0 0.041,0 0.082,-0.01 0.041,0 0.042,0 0,0 0.014,0 0.011,0 0.063,0 0.051,0 0.063,0 0.012,0 0,0 -0.016,0 0.09,-0.01 0.106,-0.01 0.076,-0.01 -0.03,0 0.069,0 0.1,0 0.065,0 -0.036,0 0.055,0 0.09,0 0.168,0 0.078,0 0.154,0 0.076,0 0.073,0 0,0 0.028,0 0.03,0 0.017,0 -0.012,0 0.176,0 0.188,-0 0.491,0 0.303,0 0.328,0.01" />
    <path
       id="STROKE_15baf8f1-6aac-4274-ac60-76831bc6ead9"
       opacity="1"
       fill="none"
       stroke="#000000"
       stroke-width="1.779"
       stroke-opacity="1"
       stroke-linecap="round"
       stroke-linejoin="round"
       d="m -2013.941,2807.476 q 0.129,0 0.115,0 0.21,0 0.151,0 0.14,0 0.138,0 0.112,-0.011 0.596,-0.054 0.483,-0.044 0.97,-0.048 0.487,0 0.737,-0.013 0.25,-0.01 0.454,0 0.205,0.01 0.626,-0.013 0.422,-0.018 0.615,-0.037 0.193,-0.018 1.664,-0.069 1.472,-0.05 2.648,-0.073 1.175,-0.024 1.693,-0.015 0.517,0.01 0.893,0 0.376,-0.01 1.181,-0.036 0.805,-0.031 1.41,-0.027 0.605,0 1.146,0 0.541,0 1.006,0 0.465,0 0.893,0 0.427,-10e-4 0.77,-10e-4 0.343,0 0.534,0.01 0.191,0.01 0.882,0.01 0.69,10e-4 2.149,-0.015 1.46,-0.016 2.287,-0.029 0.827,-0.013 1.187,-0.01 0.36,0 0.65,0 0.291,0 0.619,-0 0.329,0 0.922,0 0.593,0 1.769,0 1.176,0 1.758,0 0.583,0 0.904,0 0.321,0 0.838,-0.01 0.518,-0.01 0.914,-0.014 0.397,0 0.544,0 0.147,0 0.301,0 0.153,0 0.215,0 0.062,0 0.174,0 0.112,0 0.295,-0.01 0.183,0 0.281,-0.01 0.097,0 0.172,0 0.075,0 0.159,0 0.085,0 0.178,0 0.093,0 0.501,0 0.407,0 0.947,-0.011 0.541,-0.012 0.831,-0.012 0.29,0 0.413,0 0.124,0 0.119,0 0,0 0.01,0 0.014,0 1.005,0 0.991,0 2.011,0 1.019,0 1.584,0 0.565,0 0.999,-0.014 0.434,-0.016 0.653,-0.015 0.219,0 0.412,0 0.194,0 0.685,0 0.491,0 0.897,0 0.406,0 0.579,0 0.172,0 0.248,0 0.076,0 0.055,0 -0.022,0 0.041,0 0.064,0 0.177,0 0.112,0 0.188,0 0.076,0 0.069,-0 -0.01,0 0.053,0 0.06,0 0.269,0 0.208,0 0.318,0 0.11,0 0.173,-0.01 0.063,-0.01 0.062,0 -10e-4,0 0.026,0 0.028,0 0,0 -0.028,0 0.067,-0.01 0.094,-0.011 0.165,-0.017 0.071,-0.01 0.062,0 -0.01,0 0.01,0 0.016,0 0.061,-0.01 0.046,-0.01 0.052,0 0.01,10e-4 0.046,0 0.04,0 0.081,-0.01 0.041,0 0.043,0 10e-4,0 0.013,0 0.012,0 0.063,0 0.051,-0 0.064,0 0.012,0 0,0 -0.017,0 0.089,-0.01 0.106,-0.01 0.077,-0.01 -0.03,0 0.069,0 0.099,0 0.064,0 -0.035,0 0.055,0 0.091,0 0.169,0 0.078,0 0.153,0 0.076,0 0.074,0 0,0 0.028,0 0.029,0 0.017,0 -0.013,0 0.175,0 0.188,0 0.491,0 0.303,0 0.328,0.01" />
    <path
       id="STROKE_b0602c59-d337-4805-9328-be2080303804"
       opacity="1"
       fill="none"
       stroke="#000000"
       stroke-width="1.779"
       stroke-opacity="1"
       stroke-linecap="round"
       stroke-linejoin="round"
       d="m -2013.971,2821.194 q 0.128,0 0.114,0 0.21,0 0.151,0 0.14,0 0.138,0 0.112,-0.01 0.596,-0.054 0.483,-0.044 0.97,-0.048 0.487,0 0.737,-0.013 0.25,-0.01 0.454,0 0.205,0.01 0.626,-0.012 0.422,-0.019 0.615,-0.038 0.193,-0.018 1.665,-0.068 1.471,-0.051 2.647,-0.074 1.175,-0.024 1.693,-0.015 0.517,0.01 0.893,0 0.376,-0.01 1.181,-0.036 0.805,-0.03 1.41,-0.027 0.606,0 1.147,0 0.541,-0 1.005,0 0.465,0 0.893,0 0.428,0 0.77,0 0.343,0 0.534,0.01 0.191,0.01 0.882,0.01 0.69,10e-4 2.15,-0.014 1.459,-0.016 2.286,-0.029 0.827,-0.013 1.187,-0.01 0.36,0 0.65,0 0.291,0 0.62,0 0.329,0 0.921,0 0.593,0 1.769,0 1.176,0 1.759,0 0.582,-10e-4 0.903,0 0.321,0 0.838,-0.01 0.518,-0.01 0.915,-0.014 0.397,-0.01 0.543,0 0.147,0 0.301,0 0.154,0 0.216,0 0.061,0 0.173,0 0.112,0 0.295,-0.01 0.183,-0.01 0.281,-0.01 0.098,0 0.172,-0 0.075,0 0.16,0 0.084,0 0.177,0 0.094,0 0.501,0 0.407,0 0.948,-0.01 0.54,-0.013 0.83,-0.013 0.29,0 0.414,0 0.123,0 0.118,0 -0.01,0 0.01,0 0.014,0 1.006,0 0.991,0 2.01,0 1.019,0 1.584,0 0.565,0 0.999,-0.015 0.434,-0.016 0.653,-0.015 0.219,10e-4 0.413,10e-4 0.193,-10e-4 0.684,-10e-4 0.491,0 0.897,0 0.406,0 0.579,0 0.173,0 0.248,0 0.076,0 0.055,0 -0.022,0 0.042,0 0.063,0 0.176,0 0.113,0 0.189,0 0.076,0 0.068,0 -0.01,0 0.053,10e-4 0.061,0 0.269,0 0.208,0 0.318,0 0.11,0 0.173,-0.01 0.063,-0.01 0.062,-0.01 -0,0 0.027,0 0.027,0 0,0 -0.027,0 0.067,-0.01 0.094,-0.012 0.165,-0.018 0.071,-0.01 0.062,0 -0.01,0 0.01,0 0.016,0 0.062,-0.01 0.046,-0.01 0.051,-0.01 0.01,0 0.046,0 0.04,0 0.081,-0.01 0.041,0 0.043,0 0,-10e-4 0.013,0 0.012,0 0.063,0 0.051,0 0.064,0 0.012,-10e-4 0,0 -0.017,0 0.09,0 0.106,-0.01 0.076,-0.01 -0.03,0 0.069,0 0.099,0 0.064,0 -0.035,0 0.056,0 0.09,0 0.168,0 0.078,0 0.154,0 0.075,0 0.073,0 0,0 0.028,0 0.03,0 0.017,0 -0.012,0 0.176,0 0.188,0 0.491,0 0.303,0 0.327,0.01" />
    <path
       id="STROKE_c96abc76-8f7a-4cb3-aff0-1c6e0d2eb335"
       opacity="1"
       fill="none"
       stroke="#000000"
       stroke-width="1.779"
       stroke-opacity="1"
       stroke-linecap="round"
       stroke-linejoin="round"
       d="m -2013.885,2834.982 q 0.129,0 0.114,0 0.211,0 0.152,0 0.14,0 0.138,0 0.112,-0.01 0.596,-0.054 0.483,-0.044 0.97,-0.048 0.487,0 0.737,-0.013 0.25,-0.01 0.454,0 0.205,0.01 0.626,-0.012 0.421,-0.019 0.614,-0.038 0.193,-0.019 1.665,-0.069 1.472,-0.05 2.648,-0.073 1.175,-0.024 1.692,-0.015 0.518,0.01 0.894,0 0.376,-0.01 1.181,-0.036 0.805,-0.031 1.41,-0.027 0.605,0 1.146,0 0.541,-0 1.006,0 0.465,0 0.893,-0 0.427,0 0.77,0 0.343,0 0.534,0.01 0.191,0.01 0.881,0.01 0.691,0 2.15,-0.015 1.46,-0.015 2.287,-0.029 0.827,-0.013 1.187,-0.01 0.36,0 0.65,0 0.291,0 0.619,0 0.329,0 0.922,0 0.593,0 1.769,0 1.176,0 1.758,0 0.583,-10e-4 0.904,0 0.321,0 0.838,-0.01 0.518,-0.01 0.914,-0.014 0.397,-0.01 0.544,0 0.147,0 0.3,0 0.154,0 0.216,0 0.062,0 0.174,0 0.112,0 0.295,-0.01 0.183,-0.01 0.281,-0.01 0.097,0 0.172,-10e-4 0.075,0 0.159,0 0.085,0 0.178,0 0.093,0 0.501,10e-4 0.407,0 0.947,-0.01 0.541,-0.012 0.831,-0.012 0.29,0 0.413,0 0.124,0 0.119,0 -0.01,0 0.01,0 0.014,0 1.005,0 0.991,0 2.011,0 1.019,0 1.584,0 0.565,0 0.999,-0.014 0.434,-0.016 0.653,-0.015 0.219,0 0.412,0 0.194,0 0.685,0 0.491,0 0.897,0 0.406,0 0.579,0 0.172,0 0.248,0 0.076,0 0.054,0 -0.021,0 0.042,0 0.064,0 0.177,0 0.112,0 0.188,0 0.076,0 0.069,0 -0.01,0 0.053,0 0.06,0 0.268,0 0.209,0 0.319,0 0.11,0 0.173,-0.01 0.062,-0.01 0.062,-0.01 0,0 0.026,0 0.027,0 0,0 -0.027,0 0.068,-0.01 0.094,-0.012 0.165,-0.017 0.071,-0.01 0.062,0 -0.01,0 0.01,0 0.015,0 0.061,-0.01 0.046,-0.01 0.052,-0.01 0.01,0 0.045,0 0.041,0 0.082,0 0.041,0 0.043,0 0,0 0.013,0 0.012,0 0.063,0 0.051,0 0.064,0 0.012,-10e-4 -0.01,0 -0.016,0 0.09,0 0.106,-0.01 0.077,-0.01 -0.03,10e-4 0.069,10e-4 0.099,-10e-4 0.064,-10e-4 -0.035,10e-4 0.055,10e-4 0.091,-10e-4 0.169,-10e-4 0.078,0 0.153,0 0.076,0 0.074,0 0,0 0.028,0 0.029,0 0.017,0 -0.013,0 0.175,0 0.188,0 0.491,0 0.303,0 0.328,0.01" />
    <path
       id="STROKE_1db7744f-05f9-4e19-bb67-03fb98f7dd99"
       opacity="1"
       fill="none"
       stroke="#000000"
       stroke-width="1.779"
       stroke-opacity="1"
       stroke-linecap="round"
       stroke-linejoin="round"
       d="m -2013.885,2834.982 q 0.129,0 0.114,0 0.211,0 0.152,0 0.14,0 0.138,0 0.112,-0.01 0.596,-0.054 0.483,-0.044 0.97,-0.048 0.487,0 0.737,-0.013 0.25,-0.01 0.454,0 0.205,0.01 0.626,-0.012 0.421,-0.019 0.614,-0.038 0.193,-0.019 1.665,-0.069 1.472,-0.05 2.648,-0.073 1.175,-0.024 1.692,-0.015 0.518,0.01 0.894,0 0.376,-0.01 1.181,-0.036 0.805,-0.031 1.41,-0.027 0.605,0 1.146,0 0.541,-0 1.006,0 0.465,0 0.893,-0 0.427,0 0.77,0 0.343,0 0.534,0.01 0.191,0.01 0.881,0.01 0.691,0 2.15,-0.015 1.46,-0.015 2.287,-0.029 0.827,-0.013 1.187,-0.01 0.36,0 0.65,0 0.291,0 0.619,0 0.329,0 0.922,0 0.593,0 1.769,0 1.176,0 1.758,0 0.583,-10e-4 0.904,0 0.321,0 0.838,-0.01 0.518,-0.01 0.914,-0.014 0.397,-0.01 0.544,0 0.147,0 0.3,0 0.154,0 0.216,0 0.062,0 0.174,0 0.112,0 0.295,-0.01 0.183,-0.01 0.281,-0.01 0.097,0 0.172,-10e-4 0.075,0 0.159,0 0.085,0 0.178,0 0.093,0 0.501,10e-4 0.407,0 0.947,-0.01 0.541,-0.012 0.831,-0.012 0.29,0 0.413,0 0.124,0 0.119,0 -0.01,0 0.01,0 0.014,0 1.005,0 0.991,0 2.011,0 1.019,0 1.584,0 0.565,0 0.999,-0.014 0.434,-0.016 0.653,-0.015 0.219,0 0.412,0 0.194,0 0.685,0 0.491,0 0.897,0 0.406,0 0.579,0 0.172,0 0.248,0 0.076,0 0.054,0 -0.021,0 0.042,0 0.064,0 0.177,0 0.112,0 0.188,0 0.076,0 0.069,0 -0.01,0 0.053,0 0.06,0 0.268,0 0.209,0 0.319,0 0.11,0 0.173,-0.01 0.062,-0.01 0.062,-0.01 0,0 0.026,0 0.027,0 0,0 -0.027,0 0.068,-0.01 0.094,-0.012 0.165,-0.017 0.071,-0.01 0.062,0 -0.01,0 0.01,0 0.015,0 0.061,-0.01 0.046,-0.01 0.052,-0.01 0.01,0 0.045,0 0.041,0 0.082,0 0.041,0 0.043,0 0,0 0.013,0 0.012,0 0.063,0 0.051,0 0.064,0 0.012,-10e-4 -0.01,0 -0.016,0 0.09,0 0.106,-0.01 0.077,-0.01 -0.03,10e-4 0.069,10e-4 0.099,-10e-4 0.064,-10e-4 -0.035,10e-4 0.055,10e-4 0.091,-10e-4 0.169,-10e-4 0.078,0 0.153,0 0.076,0 0.074,0 0,0 0.028,0 0.029,0 0.017,0 -0.013,0 0.175,0 0.188,0 0.491,0 0.303,0 0.328,0.01" />
    <path
       id="STROKE_1d52ae6e-3522-4f34-b30f-8789182fe383"
       opacity="1"
       fill="none"
       stroke="#000000"
       stroke-width="1.779"
       stroke-opacity="1"
       stroke-linecap="round"
       stroke-linejoin="round"
       d="m -2013.542,2847.827 q 0.129,0 0.115,0 0.21,0 0.151,0 0.14,0 0.138,0 0.112,-0.011 0.596,-0.055 0.483,-0.043 0.97,-0.047 0.487,-0.01 0.737,-0.014 0.25,-0.01 0.454,0 0.205,0.01 0.626,-0.012 0.422,-0.018 0.615,-0.037 0.193,-0.019 1.664,-0.069 1.472,-0.05 2.648,-0.074 1.175,-0.023 1.693,-0.014 0.517,0.01 0.893,0 0.376,-0.01 1.181,-0.036 0.805,-0.03 1.41,-0.027 0.605,0 1.146,0 0.541,0 1.006,0 0.465,0 0.893,0 0.427,0 0.77,-0 0.343,0 0.534,0.01 0.191,0.01 0.882,0.01 0.69,0 2.149,-0.015 1.46,-0.016 2.287,-0.029 0.827,-0.013 1.187,-0.01 0.36,0 0.65,0 0.291,0 0.62,-0 0.328,0 0.921,0 0.593,0 1.769,0 1.176,0 1.759,0 0.582,0 0.903,0 0.321,0 0.838,-0.01 0.518,-0.01 0.915,-0.014 0.396,0 0.543,0 0.147,0 0.301,0 0.153,0 0.215,0 0.062,0 0.174,0 0.112,0 0.295,-0.01 0.183,-0.01 0.281,-0.01 0.097,0 0.172,0 0.075,0 0.16,0 0.084,0 0.177,0 0.093,0 0.501,0 0.407,0 0.947,-0.01 0.541,-0.012 0.831,-0.013 0.29,0 0.413,0 0.124,0 0.119,0 -0.01,0 0.01,-0 0.014,0 1.005,0 0.992,0 2.011,0 1.019,0 1.584,0 0.565,0 0.999,-0.014 0.434,-0.016 0.653,-0.016 0.219,0 0.413,0 0.193,0 0.684,0 0.491,0 0.897,0 0.406,0 0.579,0 0.172,0 0.248,0 0.076,0 0.055,0 -0.022,0 0.041,0 0.064,0 0.177,0 0.112,0 0.188,0 0.077,0 0.069,0 -0.01,-0 0.053,0 0.06,0 0.269,0 0.208,0 0.318,0 0.11,0 0.173,-0.01 0.063,-0.01 0.062,-0.01 -10e-4,0 0.026,0 0.028,0 0,0 -0.027,0 0.068,-0.01 0.094,-0.012 0.165,-0.017 0.071,-0.01 0.062,0 -0.01,0 0.01,0 0.016,0 0.062,-0.01 0.045,-0.01 0.051,-0.01 0,0 0.045,0 0.041,0 0.082,-0.01 0.041,0 0.043,0 10e-4,0 0.013,0 0.012,0 0.063,0 0.051,0 0.064,0 0.012,0 0,0 -0.017,0 0.089,-0.01 0.106,-0.01 0.077,-0.01 -0.03,0 0.069,0 0.099,0 0.064,0 -0.035,0 0.055,0 0.091,0 0.169,0 0.078,0 0.153,0 0.076,0 0.074,0 0,0 0.028,0 0.029,0 0.017,0 -0.012,0 0.175,-0 0.188,0 0.491,0 0.303,0 0.328,0.01" />
    <path
       id="STROKE_f6934237-6045-47fa-b2c9-62cf32d2294c"
       opacity="1"
       fill="none"
       stroke="#000000"
       stroke-width="1.779"
       stroke-opacity="1"
       stroke-linecap="round"
       stroke-linejoin="round"
       d="m -1961.978,2846.916 q 0.132,-0.024 0.073,-0.599 -0.06,-0.575 -0.103,-1.32 -0.044,-0.745 -0.04,-1.254 0,-0.509 0.018,-0.953 0.014,-0.443 -0.01,-1.326 -0.022,-0.882 -0.128,-1.86 -0.106,-0.979 -0.115,-1.848 -0.01,-0.868 -0.021,-1.478 -0.01,-0.609 -0.017,-0.871 -0.01,-0.261 -0.135,-2.713 -0.128,-2.452 -0.157,-3.791 -0.029,-1.34 -0.017,-2.161 0.012,-0.821 0,-1.574 -0.015,-0.753 0.017,-3.886 0.033,-3.132 0.061,-4.846 0.028,-1.715 0.051,-2.958 0.024,-1.243 0.038,-1.803 0.014,-0.56 0.013,-2.613 -10e-4,-2.052 0.063,-3.302 0.064,-1.249 0.126,-2.766 0.063,-1.517 0.087,-3.142 0.024,-1.625 0.032,-2.428 0.01,-0.803 0.01,-2.119 0,-1.316 0,-2.087 0,-0.771 0,-1.754 0,-0.983 -0.01,-1.772 -0.01,-0.789 -0.015,-1.225 -0.01,-0.436 -0.01,-2.687 -10e-4,-2.25 0,-3.502 0,-1.252 -0.017,-2.028 -0.019,-0.778 -0.056,-1.675 -0.038,-0.898 -0.053,-1.798 -0.015,-0.901 -0.015,-1.598 0,-0.697 0,-1.274 -10e-4,-0.577 0,-1.133 0,-0.554 0.01,-1.933 0.01,-1.378 -0.023,-3.163 -0.033,-1.784 -0.06,-2.653 -0.026,-0.869 -0.03,-1.261 0,-0.393 -0.01,-1.399 0,-1.006 0,-1.744 10e-4,-0.739 10e-4,-1.065 -10e-4,-0.326 0,-0.578 10e-4,-0.253 0,-1.351 0,-1.099 -0.01,-2.573 -0.01,-1.474 0.01,-2.648 0.013,-1.175 0.023,-1.726 0.01,-0.551 0.033,-0.845 0.024,-0.295 0.049,-1.902 0.025,-1.607 -10e-4,-2.683 -0.026,-1.078 -0.041,-1.533 -0.016,-0.455 -0.01,-0.692 0.01,-0.237 10e-4,-0.507 0,-0.27 -0.01,-0.29" />
    <path
       id="STROKE_b33149bb-e9b2-4808-af40-d56df01a4920"
       opacity="1"
       fill="none"
       stroke="#000000"
       stroke-width="1.779"
       stroke-opacity="1"
       stroke-linecap="round"
       stroke-linejoin="round"
       d="m -1949.268,2846.897 q 0.133,-0.023 0.073,-0.598 -0.06,-0.576 -0.103,-1.321 -0.043,-0.745 -0.04,-1.254 0,-0.509 0.018,-0.952 0.015,-0.444 -0.01,-1.326 -0.023,-0.883 -0.129,-1.861 -0.106,-0.979 -0.115,-1.847 -0.01,-0.869 -0.02,-1.478 -0.011,-0.61 -0.018,-0.871 -0.01,-0.262 -0.135,-2.714 -0.128,-2.452 -0.157,-3.791 -0.029,-1.339 -0.017,-2.16 0.012,-0.821 0,-1.574 -0.015,-0.754 0.017,-3.886 0.033,-3.133 0.061,-4.847 0.028,-1.714 0.052,-2.957 0.023,-1.243 0.037,-1.803 0.014,-0.56 0.013,-2.613 0,-2.053 0.063,-3.302 0.064,-1.25 0.126,-2.767 0.063,-1.517 0.087,-3.142 0.025,-1.625 0.032,-2.428 0.01,-0.802 0.01,-2.118 0,-1.316 0,-2.088 0,-0.771 0,-1.754 0,-0.982 -0.01,-1.771 -0.011,-0.789 -0.016,-1.226 0,-0.436 0,-2.686 -10e-4,-2.251 10e-4,-3.503 0,-1.251 -0.017,-2.028 -0.018,-0.777 -0.056,-1.675 -0.037,-0.897 -0.052,-1.798 -0.015,-0.901 -0.016,-1.598 0,-0.697 0,-1.274 0,-0.577 0,-1.132 0,-0.555 0.01,-1.933 0.01,-1.379 -0.023,-3.163 -0.033,-1.785 -0.059,-2.654 -0.026,-0.868 -0.031,-1.261 0,-0.392 -0.01,-1.399 0,-1.006 0,-1.744 0,-0.738 0,-1.064 0,-0.327 10e-4,-0.579 10e-4,-0.252 10e-4,-1.351 10e-4,-1.098 0,-2.572 -0.01,-1.474 0.01,-2.649 0.012,-1.174 0.022,-1.725 0.01,-0.551 0.034,-0.846 0.023,-0.294 0.048,-1.901 0.025,-1.607 -10e-4,-2.684 -0.025,-1.077 -0.041,-1.532 -0.015,-0.455 -0.01,-0.693 0.01,-0.237 0,-0.507 0,-0.27 -0.01,-0.29" />
    <path
       id="STROKE_f89643c9-6a8a-415e-96f6-a48577ca0abc"
       opacity="1"
       fill="none"
       stroke="#000000"
       stroke-width="1.779"
       stroke-opacity="1"
       stroke-linecap="round"
       stroke-linejoin="round"
       d="m -1935.8,2847.034 q 0.133,-0.024 0.073,-0.599 -0.06,-0.575 -0.103,-1.32 -0.044,-0.745 -0.04,-1.254 0,-0.509 0.018,-0.953 0.015,-0.443 -0.01,-1.326 -0.022,-0.882 -0.128,-1.861 -0.106,-0.978 -0.116,-1.846 -0.01,-0.869 -0.02,-1.479 -0.01,-0.609 -0.017,-0.871 -0.01,-0.261 -0.135,-2.713 -0.128,-2.452 -0.157,-3.791 -0.029,-1.34 -0.017,-2.161 0.012,-0.82 0,-1.574 -0.015,-0.753 0.017,-3.886 0.033,-3.132 0.061,-4.847 0.028,-1.714 0.052,-2.957 0.023,-1.242 0.037,-1.803 0.014,-0.56 0.013,-2.612 -10e-4,-2.053 0.063,-3.303 0.064,-1.249 0.126,-2.766 0.063,-1.517 0.087,-3.142 0.024,-1.625 0.032,-2.428 0.01,-0.803 0.01,-2.119 0,-1.316 0,-2.087 0,-0.772 0,-1.754 0,-0.982 -0.01,-1.771 -0.01,-0.79 -0.015,-1.226 0,-0.436 -0.01,-2.687 0,-2.251 0,-3.502 0,-1.251 -0.017,-2.029 -0.019,-0.777 -0.056,-1.674 -0.038,-0.898 -0.053,-1.798 -0.015,-0.901 -0.015,-1.598 0,-0.697 0,-1.274 -10e-4,-0.577 0,-1.132 0,-0.556 0.01,-1.934 0.01,-1.378 -0.023,-3.163 -0.033,-1.784 -0.059,-2.653 -0.027,-0.869 -0.031,-1.261 -0.01,-0.393 -0.01,-1.399 0,-1.006 0,-1.744 10e-4,-0.738 10e-4,-1.065 -10e-4,-0.326 10e-4,-0.579 10e-4,-0.252 10e-4,-1.35 0,-1.098 0,-2.573 -0.01,-1.474 0.01,-2.648 0.013,-1.174 0.023,-1.725 0.01,-0.551 0.033,-0.846 0.024,-0.295 0.049,-1.902 0.025,-1.607 -10e-4,-2.684 -0.026,-1.077 -0.041,-1.532 -0.016,-0.455 -0.01,-0.692 0.01,-0.237 10e-4,-0.507 0,-0.27 -0.01,-0.29" />
    <path
       id="STROKE_03327517-e4f6-41aa-aae6-d687c15123ac"
       opacity="1"
       fill="none"
       stroke="#000000"
       stroke-width="1.779"
       stroke-opacity="1"
       stroke-linecap="round"
       stroke-linejoin="round"
       d="m -1962.503,2742.458 q 0.129,0 0.114,0 0.211,0 0.152,0 0.14,0 0.138,0 0.112,-0.011 0.595,-0.055 0.484,-0.043 0.971,-0.048 0.487,0 0.736,-0.013 0.25,-0.01 0.455,0 0.205,0.01 0.626,-0.012 0.421,-0.018 0.614,-0.037 0.193,-0.019 1.665,-0.069 1.472,-0.05 2.647,-0.074 1.176,-0.023 1.693,-0.014 0.518,0.01 0.894,0 0.376,-0.01 1.181,-0.036 0.804,-0.03 1.41,-0.027 0.605,0 1.146,0 0.541,0 1.006,0 0.465,0 0.892,0 0.428,0 0.771,-10e-4 0.343,0 0.534,0.01 0.191,0.01 0.881,0.01 0.691,0 2.15,-0.014 1.46,-0.016 2.287,-0.029 0.827,-0.013 1.187,-0.01 0.36,0 0.65,0 0.29,0 0.619,0 0.329,0 0.922,0 0.593,0 1.769,0 1.175,0 1.758,0 0.583,0 0.904,0 0.321,0 0.838,-0.01 0.517,-0.01 0.914,-0.014 0.397,-0.01 0.544,0 0.147,0 0.3,0 0.154,-0 0.216,0 0.062,0 0.174,0 0.112,0 0.295,-0.01 0.183,-0.01 0.28,-0.01 0.098,0 0.173,0 0.075,10e-4 0.159,10e-4 0.085,-10e-4 0.178,-10e-4 0.093,0 0.5,0 0.408,0 0.948,-0.01 0.54,-0.012 0.831,-0.013 0.29,0 0.413,0 0.124,0 0.119,0 -0.01,0 0.01,0 0.014,0 1.005,0 0.991,0 2.011,0 1.019,0 1.584,0 0.565,0 0.999,-0.014 0.434,-0.016 0.653,-0.016 0.219,10e-4 0.412,10e-4 0.194,0 0.685,0 0.491,0 0.897,0 0.406,0 0.578,0 0.173,0 0.249,0 0.076,0 0.054,0 -0.021,0 0.042,0 0.063,0 0.176,0 0.113,0 0.189,0 0.076,0 0.069,-10e-4 -0.01,0 0.053,10e-4 0.06,0 0.268,0 0.208,0 0.319,0 0.11,0 0.172,-0.01 0.063,-0.01 0.062,-0.01 0,0 0.027,0 0.027,0 0,0 -0.027,0 0.067,-0.01 0.095,-0.012 0.166,-0.017 0.071,-0.01 0.062,0 -0.01,0 0.01,0 0.015,0 0.061,-0.01 0.046,-0.01 0.051,-0.01 0,0 0.046,0 0.041,0 0.082,-0.01 0.041,0 0.043,0 10e-4,0 0.013,0 0.012,0 0.063,0 0.051,0 0.063,0 0.013,0 0,10e-4 -0.016,0 0.09,-0.01 0.106,-0.01 0.076,-0.01 -0.029,0 0.07,0 0.099,0 0.064,0 -0.035,0 0.055,0 0.09,0 0.168,0 0.078,0 0.154,0 0.076,0 0.074,0 0,0 0.027,0 0.03,0 0.018,0 -0.013,0 0.175,0 0.188,0 0.491,0 0.303,0 0.328,0.01" />
    <path
       id="STROKE_6e9731fd-a86c-47f5-9c8a-faeb8a2cbe70"
       opacity="1"
       fill="none"
       stroke="#000000"
       stroke-width="1.779"
       stroke-opacity="1"
       stroke-linecap="round"
       stroke-linejoin="round"
       d="m -1922.889,2846.928 q 0.133,-0.024 0.073,-0.599 -0.06,-0.576 -0.103,-1.321 -0.043,-0.745 -0.04,-1.254 0,-0.509 0.018,-0.952 0.015,-0.444 -0.01,-1.326 -0.023,-0.883 -0.129,-1.861 -0.106,-0.978 -0.115,-1.847 -0.01,-0.869 -0.02,-1.478 -0.011,-0.61 -0.018,-0.871 -0.01,-0.262 -0.135,-2.714 -0.128,-2.452 -0.157,-3.791 -0.029,-1.339 -0.017,-2.16 0.012,-0.821 0,-1.574 -0.015,-0.753 0.018,-3.886 0.032,-3.133 0.06,-4.847 0.028,-1.714 0.052,-2.957 0.023,-1.243 0.037,-1.803 0.014,-0.56 0.013,-2.613 0,-2.053 0.063,-3.302 0.064,-1.25 0.127,-2.767 0.062,-1.517 0.086,-3.142 0.025,-1.625 0.032,-2.427 0.01,-0.803 0.01,-2.119 0,-1.316 0,-2.088 0,-0.771 0,-1.753 0,-0.983 -0.01,-1.772 -0.011,-0.789 -0.016,-1.225 -0.01,-0.437 -0.01,-2.687 -10e-4,-2.251 10e-4,-3.502 0,-1.252 -0.016,-2.029 -0.019,-0.777 -0.057,-1.675 -0.037,-0.897 -0.052,-1.798 -0.015,-0.901 -0.016,-1.598 0,-0.696 0,-1.273 0,-0.578 0,-1.133 0,-0.555 0.01,-1.933 0.01,-1.378 -0.023,-3.163 -0.033,-1.785 -0.059,-2.653 -0.026,-0.869 -0.031,-1.262 -0.01,-0.392 -0.01,-1.398 0,-1.007 0,-1.745 0,-0.738 0,-1.064 0,-0.327 10e-4,-0.579 0,-0.252 0,-1.351 10e-4,-1.098 0,-2.572 -0.01,-1.474 0.01,-2.648 0.012,-1.175 0.022,-1.726 0.01,-0.551 0.034,-0.846 0.023,-0.294 0.048,-1.901 0.025,-1.607 -10e-4,-2.684 -0.025,-1.077 -0.041,-1.532 -0.015,-0.455 -0.01,-0.692 0.01,-0.238 0,-0.508 -0.01,-0.27 -0.01,-0.29" />
    <path
       id="STROKE_fa0a2176-fb98-4b11-baca-ca279fa6f7af"
       opacity="1"
       fill="none"
       stroke="#000000"
       stroke-width="1.779"
       stroke-opacity="1"
       stroke-linecap="round"
       stroke-linejoin="round"
       d="m -1910.571,2846.946 q 0.132,-0.023 0.073,-0.599 -0.06,-0.575 -0.103,-1.32 -0.044,-0.745 -0.04,-1.254 0,-0.509 0.018,-0.952 0.014,-0.444 -0.01,-1.326 -0.022,-0.883 -0.128,-1.861 -0.106,-0.979 -0.116,-1.847 -0.01,-0.869 -0.02,-1.478 -0.01,-0.61 -0.017,-0.871 -0.01,-0.262 -0.135,-2.714 -0.128,-2.452 -0.157,-3.791 -0.029,-1.339 -0.017,-2.161 0.012,-0.82 0,-1.574 -0.015,-0.753 0.017,-3.886 0.033,-3.132 0.061,-4.846 0.028,-1.715 0.051,-2.957 0.024,-1.243 0.038,-1.803 0.014,-0.56 0.013,-2.613 -0,-2.053 0.063,-3.302 0.064,-1.25 0.126,-2.767 0.063,-1.517 0.087,-3.142 0.024,-1.625 0.032,-2.428 0.01,-0.803 0.01,-2.119 0,-1.315 0,-2.087 0,-0.771 0,-1.754 0,-0.982 -0.01,-1.771 -0.01,-0.789 -0.015,-1.226 -0.01,-0.436 -0.01,-2.686 -10e-4,-2.251 0,-3.503 0,-1.251 -0.017,-2.028 -0.019,-0.777 -0.056,-1.675 -0.038,-0.897 -0.053,-1.798 -0.015,-0.901 -0.015,-1.598 0,-0.697 0,-1.274 -10e-4,-0.577 0,-1.132 0,-0.555 0.01,-1.933 0.01,-1.379 -0.023,-3.163 -0.033,-1.785 -0.06,-2.654 -0.026,-0.868 -0.03,-1.261 -0.01,-0.393 -0.01,-1.399 0,-1.006 0,-1.744 10e-4,-0.738 10e-4,-1.065 -10e-4,-0.326 0,-0.578 10e-4,-0.253 0,-1.351 0,-1.098 -0.01,-2.572 0,-1.475 0.01,-2.649 0.013,-1.174 0.023,-1.725 0.01,-0.551 0.033,-0.846 0.024,-0.295 0.049,-1.902 0.025,-1.606 -0,-2.683 -0.026,-1.077 -0.041,-1.532 -0.016,-0.455 -0.01,-0.693 0.01,-0.237 10e-4,-0.507 0,-0.27 -0.01,-0.29" />
    <path
       id="STROKE_f437a9eb-2ae0-433e-9163-d624945cda5c"
       opacity="1"
       fill="none"
       stroke="#000000"
       stroke-width="1.779"
       stroke-opacity="1"
       stroke-linecap="round"
       stroke-linejoin="round"
       d="m -1962.296,2756.64 q 0.129,0 0.115,0 0.21,0 0.151,0 0.14,0 0.138,0 0.112,-0.011 0.596,-0.055 0.483,-0.043 0.97,-0.048 0.487,0 0.737,-0.013 0.25,-0.01 0.454,0 0.205,0.01 0.626,-0.012 0.422,-0.018 0.615,-0.037 0.193,-0.019 1.664,-0.069 1.472,-0.05 2.648,-0.074 1.175,-0.023 1.693,-0.014 0.517,0.01 0.893,0 0.376,-0.01 1.181,-0.036 0.805,-0.03 1.41,-0.027 0.605,0 1.146,0 0.541,-0 1.006,0 0.465,0 0.893,-0 0.427,0 0.77,0 0.343,0 0.534,0.01 0.191,0.01 0.882,0.01 0.69,0 2.149,-0.015 1.46,-0.016 2.287,-0.029 0.827,-0.013 1.187,-0.01 0.36,0 0.65,0 0.291,0 0.62,0 0.328,0 0.921,0 0.593,0 1.769,0 1.176,0 1.758,-10e-4 0.583,0 0.904,0 0.321,0 0.838,-0.01 0.518,-0.01 0.914,-0.014 0.397,0 0.544,0 0.147,0 0.301,0 0.153,0 0.215,0 0.062,10e-4 0.174,0 0.112,0 0.295,-0.01 0.183,-0.01 0.281,-0.01 0.097,0 0.172,0 0.075,0 0.159,0 0.085,0 0.178,0 0.093,0 0.501,0 0.407,0 0.947,-0.01 0.541,-0.012 0.831,-0.013 0.29,0 0.413,0 0.124,10e-4 0.119,10e-4 0,-10e-4 0.01,-10e-4 0.014,0 1.005,0 0.991,0 2.011,0 1.019,0 1.584,0 0.565,0 0.999,-0.014 0.434,-0.017 0.653,-0.016 0.219,0 0.412,0 0.194,0 0.685,0 0.491,0 0.897,0 0.406,0 0.579,0 0.172,0 0.248,0 0.076,0 0.055,0 -0.022,0 0.041,0 0.064,0 0.177,0 0.112,0 0.188,0 0.077,0 0.069,0 -0.01,-10e-4 0.053,0 0.06,0 0.269,0 0.208,0 0.318,0 0.11,0 0.173,-0.01 0.063,-0.01 0.062,-0.01 -10e-4,0 0.026,0 0.028,0 0,0 -0.028,0 0.067,-0.01 0.094,-0.012 0.165,-0.017 0.071,0 0.062,0 -0.01,0 0.01,0 0.016,0 0.061,-0.01 0.046,-0.01 0.052,-0.01 0,0 0.046,0 0.04,0 0.081,-0.01 0.041,0 0.043,0 10e-4,0 0.013,0 0.012,0 0.063,0 0.051,0 0.064,0 0.012,0 0,0 -0.017,10e-4 0.089,-0.01 0.106,-0.01 0.077,0 -0.03,0 0.069,0 0.099,0 0.064,0 -0.035,0 0.055,0 0.091,0 0.169,0 0.078,0 0.153,0 0.076,0 0.074,0 0,0 0.028,0 0.029,0 0.017,0 -0.012,0 0.175,-0 0.188,0 0.491,0 0.303,0 0.328,0.01" />
    <path
       id="STROKE_7c8669d5-9b62-45f5-8bc9-cda41b503162"
       opacity="1"
       fill="none"
       stroke="#000000"
       stroke-width="1.779"
       stroke-opacity="1"
       stroke-linecap="round"
       stroke-linejoin="round"
       d="m -1962.354,2768.882 q 0.128,0 0.114,0 0.21,0 0.151,0 0.14,0 0.138,0 0.112,-0.011 0.596,-0.054 0.483,-0.044 0.97,-0.048 0.487,-0.01 0.737,-0.014 0.25,-0.01 0.454,0 0.205,0.01 0.626,-0.013 0.422,-0.018 0.615,-0.037 0.193,-0.019 1.665,-0.069 1.471,-0.05 2.647,-0.074 1.175,-0.023 1.693,-0.014 0.517,0.01 0.893,0 0.376,-0.01 1.181,-0.036 0.805,-0.031 1.41,-0.027 0.606,0 1.147,0 0.541,0 1.005,0 0.465,0 0.893,0 0.428,-0 0.77,-0 0.343,0 0.534,0.01 0.191,0.01 0.882,0.01 0.69,0 2.15,-0.015 1.459,-0.016 2.286,-0.029 0.827,-0.013 1.187,-0.01 0.36,0 0.65,0 0.291,0 0.62,-10e-4 0.329,0 0.921,0 0.593,0 1.769,0 1.176,0 1.759,0 0.582,0 0.903,0 0.321,0 0.838,-0.01 0.518,-0.01 0.915,-0.014 0.396,0 0.543,0 0.147,10e-4 0.301,10e-4 0.154,-10e-4 0.215,0 0.062,0 0.174,-10e-4 0.112,0 0.295,-0.01 0.183,0 0.281,-0.01 0.098,0 0.172,0 0.075,10e-4 0.16,10e-4 0.084,-10e-4 0.177,-10e-4 0.094,0 0.501,0 0.407,0 0.947,-0.01 0.541,-0.012 0.831,-0.012 0.29,0 0.414,0 0.123,0 0.118,0 -0.01,0 0.01,0 0.014,0 1.005,0 0.992,0 2.011,0 1.019,0 1.584,0 0.565,0 0.999,-0.014 0.434,-0.016 0.653,-0.016 0.219,10e-4 0.413,10e-4 0.193,0 0.684,0 0.491,0 0.897,0 0.406,0 0.579,0 0.173,0 0.248,0 0.076,0 0.055,0 -0.022,0 0.042,0 0.063,0 0.176,0 0.113,0 0.189,0 0.076,0 0.068,-10e-4 -0.01,0 0.053,0 0.061,0 0.269,0 0.208,0 0.318,10e-4 0.11,0 0.173,-0.01 0.063,-0.01 0.062,-0.01 -10e-4,0 0.026,-10e-4 0.028,0 0,0 -0.027,0 0.067,-0.01 0.094,-0.012 0.165,-0.017 0.071,-0.01 0.062,0 -0.01,0 0.01,0 0.016,0 0.062,-0.01 0.046,-0.01 0.051,-0.01 0.01,0 0.046,0 0.04,0 0.081,-0.01 0.041,0 0.043,0 10e-4,0 0.013,0 0.012,0 0.063,0 0.051,-10e-4 0.064,0 0.012,-10e-4 0,0 -0.017,0 0.09,-0.01 0.106,-0.01 0.076,-0.01 -0.03,0 0.069,0 0.099,0 0.064,0 -0.035,0 0.056,0 0.09,0 0.168,0 0.078,0 0.153,0 0.076,0 0.074,0 0,0 0.028,0 0.03,0 0.017,0 -0.012,0 0.176,0 0.188,0 0.491,0 0.303,0 0.327,0.01" />
    <path
       id="STROKE_6d78f19a-fd28-4d53-b358-56207b62e951"
       opacity="1"
       fill="none"
       stroke="#000000"
       stroke-width="1.779"
       stroke-opacity="1"
       stroke-linecap="round"
       stroke-linejoin="round"
       d="m -1962.12,2781.706 q 0.129,0 0.115,0 0.21,0 0.151,0 0.14,0 0.138,0 0.112,-0.011 0.596,-0.055 0.483,-0.043 0.97,-0.047 0.487,0 0.737,-0.014 0.25,-0.01 0.454,0 0.205,0.01 0.626,-0.012 0.422,-0.018 0.615,-0.037 0.193,-0.019 1.665,-0.069 1.471,-0.05 2.647,-0.074 1.175,-0.023 1.693,-0.014 0.517,0.01 0.893,0 0.376,-0.01 1.181,-0.036 0.805,-0.03 1.41,-0.027 0.606,0 1.147,0 0.541,0 1.005,0 0.465,0 0.893,0 0.428,0 0.77,-10e-4 0.343,0 0.534,0.01 0.191,0.01 0.882,0.01 0.69,0 2.15,-0.014 1.459,-0.016 2.286,-0.029 0.827,-0.013 1.187,-0.01 0.36,0 0.65,0 0.291,0 0.62,0 0.329,0 0.921,0 0.593,0 1.769,0 1.176,0 1.759,0 0.582,0 0.903,0 0.321,0 0.838,-0.01 0.518,-0.01 0.915,-0.014 0.396,-0.01 0.543,0 0.147,0 0.301,0 0.154,-0 0.215,0 0.062,0 0.174,0 0.112,0 0.295,-0.01 0.183,0 0.281,-0.01 0.097,0 0.172,0 0.075,10e-4 0.16,10e-4 0.084,-10e-4 0.177,-10e-4 0.093,0 0.501,0 0.407,0 0.948,-0.01 0.54,-0.012 0.83,-0.013 0.29,0 0.413,0 0.124,0 0.119,0 0,0 0.01,0 0.014,0 1.005,0 0.992,0 2.011,0 1.019,0 1.584,0 0.565,0 0.999,-0.014 0.434,-0.016 0.653,-0.016 0.219,0 0.413,0 0.193,0 0.684,0 0.491,0 0.897,0 0.406,0 0.579,0 0.172,0 0.248,0 0.076,0 0.055,0 -0.022,0 0.041,0 0.064,0 0.177,0 0.113,0 0.189,0 0.076,0 0.068,-0 -0.01,0 0.053,0 0.061,0 0.269,0 0.208,0 0.318,0 0.11,0 0.173,-0.01 0.063,-0.01 0.062,0 -10e-4,10e-4 0.026,0 0.028,0 10e-4,0 -0.027,0 0.067,-0.01 0.094,-0.012 0.165,-0.017 0.071,-0.01 0.062,0 -0.01,0 0.01,0 0.016,0 0.062,-0.01 0.046,-0.01 0.051,0 0,0 0.046,0 0.04,0 0.081,-0.01 0.041,0 0.043,0 10e-4,0 0.013,0 0.012,0 0.063,0 0.051,0 0.064,0 0.012,0 0,0 -0.017,0 0.089,-0.01 0.107,-0.01 0.077,-0.01 -0.03,0 0.069,0 0.099,0 0.064,0 -0.035,0 0.056,0 0.09,0 0.168,0 0.078,0 0.154,0 0.075,0 0.073,0 0,0 0.028,0 0.03,0 0.017,0 -0.012,0 0.176,0 0.188,0 0.49,0 0.304,0 0.328,0.01" />
    <path
       id="STROKE_78f3937a-72ff-4126-b4b6-38e7ff45318b"
       opacity="1"
       fill="none"
       stroke="#000000"
       stroke-width="1.779"
       stroke-opacity="1"
       stroke-linecap="round"
       stroke-linejoin="round"
       d="m -1962.011,2795.436 q 0.129,0 0.114,0 0.21,0 0.152,0 0.14,0 0.137,0 0.113,-0.011 0.596,-0.055 0.484,-0.043 0.97,-0.048 0.487,0 0.737,-0.013 0.25,-0.01 0.455,0 0.204,0.01 0.626,-0.012 0.421,-0.018 0.614,-0.037 0.193,-0.019 1.665,-0.069 1.472,-0.05 2.647,-0.074 1.176,-0.023 1.693,-0.014 0.517,0.01 0.893,0 0.377,-0.01 1.181,-0.036 0.805,-0.03 1.411,-0.027 0.605,0 1.146,0 0.541,0 1.006,0 0.464,0 0.892,0 0.428,0 0.771,-10e-4 0.342,0 0.534,0.01 0.191,0.01 0.881,0.01 0.69,0 2.15,-0.014 1.459,-0.016 2.287,-0.029 0.827,-0.013 1.186,-0.01 0.36,0 0.651,0 0.29,0 0.619,0 0.329,0 0.922,0 0.593,0 1.768,0 1.176,0 1.759,0 0.583,0 0.903,0 0.321,0 0.839,-0.01 0.517,-0.01 0.914,-0.014 0.397,-0.01 0.543,0 0.147,0 0.301,0 0.154,-0 0.216,0 0.061,0 0.174,0 0.112,0 0.294,-0.01 0.183,0 0.281,-0.01 0.098,0 0.173,0 0.074,10e-4 0.159,10e-4 0.084,-10e-4 0.178,-10e-4 0.093,0 0.5,0 0.407,0 0.948,-0.01 0.54,-0.012 0.83,-0.013 0.29,0 0.414,0 0.123,0 0.118,0 0,0 0.01,0 0.013,0 1.005,0 0.991,0 2.01,0 1.019,0 1.584,0 0.565,0 0.999,-0.014 0.434,-0.016 0.653,-0.016 0.22,0 0.413,0 0.193,0 0.684,0 0.492,0 0.898,0 0.406,0 0.578,0 0.173,0 0.249,0 0.076,0 0.054,0 -0.022,0 0.042,0 0.063,0 0.176,0 0.113,0 0.189,0 0.076,0 0.068,-0 -0.01,0 0.053,0 0.061,0 0.269,0 0.208,0 0.318,0 0.11,0 0.173,-0.01 0.063,-0.01 0.062,0 -10e-4,10e-4 0.027,0 0.027,0 0,0 -0.027,0 0.067,-0.01 0.094,-0.012 0.165,-0.017 0.072,-0.01 0.062,0 -0.01,0 0.01,0 0.015,0 0.061,-0.01 0.046,-0.01 0.051,-0.01 0.01,0 0.046,0 0.041,0 0.082,-0.01 0.041,0 0.042,0 0,0 0.014,0 0.011,0 0.063,0 0.051,0 0.063,0 0.012,0 0,0 -0.016,0 0.09,-0.01 0.106,-0.01 0.076,-0.01 -0.03,0 0.069,0 0.1,0 0.065,0 -0.036,0 0.055,0 0.09,0 0.168,0 0.078,0 0.154,0 0.076,0 0.073,0 0,0 0.028,0 0.03,0 0.017,0 -0.012,0 0.176,0 0.188,0 0.491,0 0.303,0 0.328,0.01" />
    <path
       id="STROKE_eb0ffe15-d8c2-4368-8847-7bbacf04d808"
       opacity="1"
       fill="none"
       stroke="#000000"
       stroke-width="1.779"
       stroke-opacity="1"
       stroke-linecap="round"
       stroke-linejoin="round"
       d="m -1962.296,2807.425 q 0.129,0 0.115,0 0.21,0 0.151,0 0.14,0 0.138,0 0.112,-0.01 0.596,-0.054 0.483,-0.044 0.97,-0.048 0.487,0 0.737,-0.013 0.25,-0.01 0.454,0 0.205,0.01 0.626,-0.012 0.422,-0.019 0.615,-0.038 0.193,-0.018 1.664,-0.069 1.472,-0.05 2.648,-0.073 1.175,-0.024 1.693,-0.015 0.517,0.01 0.893,0 0.376,-0.01 1.181,-0.036 0.805,-0.03 1.41,-0.027 0.605,0 1.146,0 0.541,0 1.006,0 0.465,0 0.893,0 0.427,-10e-4 0.77,-10e-4 0.343,10e-4 0.534,0.01 0.191,0.01 0.882,0.01 0.69,0 2.149,-0.014 1.46,-0.016 2.287,-0.029 0.827,-0.013 1.187,-0.01 0.36,0 0.65,0 0.291,-10e-4 0.62,-10e-4 0.328,10e-4 0.921,0 0.593,0 1.769,0 1.176,0 1.758,0 0.583,0 0.904,0 0.321,0 0.838,-0.01 0.518,-0.01 0.914,-0.014 0.397,0 0.544,0 0.147,0 0.301,0 0.153,0 0.215,0 0.062,10e-4 0.174,0 0.112,0 0.295,-0.01 0.183,-0.01 0.281,-0.01 0.097,0 0.172,0 0.075,0 0.159,0 0.085,0 0.178,0 0.093,0 0.501,0 0.407,0 0.947,-0.01 0.541,-0.013 0.831,-0.013 0.29,0 0.413,0 0.124,0 0.119,0 0,0 0.01,0 0.014,0 1.005,0 0.991,0 2.011,0 1.019,0 1.584,0 0.565,0 0.999,-0.015 0.434,-0.016 0.653,-0.015 0.219,0 0.412,0 0.194,0 0.685,0 0.491,0 0.897,0 0.406,0 0.579,0 0.172,0 0.248,0 0.076,0 0.055,0 -0.022,0 0.041,0 0.064,0 0.177,0 0.112,0 0.188,0 0.077,0 0.069,0 -0.01,-10e-4 0.053,0 0.06,0 0.269,0 0.208,0 0.318,0 0.11,0 0.173,-0.01 0.063,-0.01 0.062,-0.01 -10e-4,0 0.026,0 0.028,0 0,0 -0.028,0 0.067,-0.01 0.094,-0.012 0.165,-0.018 0.071,-0.01 0.062,0 -0.01,0 0.01,0 0.016,0 0.061,-0.01 0.046,-0.01 0.052,-0.01 0,0 0.046,0 0.04,0 0.081,-0.01 0.041,0 0.043,0 10e-4,0 0.013,0 0.012,0 0.063,0 0.051,-0 0.064,0 0.012,0 0,0 -0.017,0 0.089,-0.01 0.106,-0.01 0.077,-0.01 -0.03,0 0.069,0 0.099,0 0.064,0 -0.035,0 0.055,0 0.091,0 0.169,0 0.078,0 0.153,0 0.076,0 0.074,0 0,0 0.028,0 0.029,0 0.017,0 -0.012,0 0.175,0 0.188,-0 0.491,0 0.303,0 0.328,0.01" />
    <path
       id="STROKE_e0987c95-ac69-4eea-a84f-a157812d4221"
       opacity="1"
       fill="none"
       stroke="#000000"
       stroke-width="1.779"
       stroke-opacity="1"
       stroke-linecap="round"
       stroke-linejoin="round"
       d="m -1962.326,2821.144 q 0.128,-10e-4 0.114,0 0.21,0 0.151,0 0.14,0 0.138,0 0.112,-0.011 0.596,-0.055 0.483,-0.044 0.97,-0.048 0.487,0 0.737,-0.013 0.25,-0.01 0.454,0 0.205,0.01 0.626,-0.012 0.422,-0.019 0.615,-0.037 0.193,-0.019 1.665,-0.069 1.471,-0.051 2.647,-0.074 1.175,-0.024 1.693,-0.015 0.517,0.01 0.893,0 0.376,-0.01 1.181,-0.036 0.805,-0.03 1.41,-0.027 0.606,0 1.147,0 0.541,-10e-4 1.005,0 0.465,0 0.893,0 0.428,0 0.77,-10e-4 0.343,0 0.534,0.01 0.191,0.01 0.882,0.01 0.69,0 2.15,-0.014 1.459,-0.016 2.286,-0.029 0.827,-0.013 1.187,-0.01 0.36,0 0.65,0 0.291,0 0.62,0 0.329,0 0.921,0 0.593,0 1.769,0 1.176,0 1.759,0 0.582,0 0.903,0 0.321,0 0.838,-0.01 0.518,-0.01 0.915,-0.014 0.397,-0.01 0.543,0 0.147,0 0.301,0 0.154,0 0.216,0 0.061,0 0.173,0 0.112,0 0.295,-0.01 0.183,0 0.281,-0.01 0.098,0 0.172,0 0.075,0 0.16,0 0.084,0 0.177,0 0.094,0 0.501,0 0.407,0 0.948,-0.01 0.54,-0.012 0.83,-0.013 0.29,0 0.414,0 0.123,10e-4 0.118,0 -0.01,0 0.01,0 0.014,0 1.006,0 0.991,0 2.01,0 1.019,0 1.584,0 0.565,0 0.999,-0.015 0.434,-0.016 0.653,-0.015 0.219,0 0.413,0 0.193,0 0.684,0 0.491,0 0.897,0 0.406,0 0.579,0 0.173,0 0.249,0 0.075,0 0.054,0 -0.022,0 0.042,0 0.063,0 0.176,0 0.113,0 0.189,0 0.076,0 0.068,0 -0.01,-10e-4 0.053,0 0.061,0 0.269,0 0.208,0 0.318,0 0.11,0 0.173,-0.01 0.063,-0.01 0.062,-0.01 0,0 0.027,0 0.027,0 0,0 -0.027,0 0.067,-0.01 0.094,-0.012 0.165,-0.017 0.072,-0.01 0.062,0 -0.01,0 0.01,0 0.016,0 0.062,-0.01 0.046,-0.01 0.051,-0.01 0.01,0 0.046,0 0.04,0 0.081,-0.01 0.041,0 0.043,0 0,0 0.013,0 0.012,0 0.063,0 0.051,-0 0.064,0 0.012,-0 0,0 -0.017,0 0.09,0 0.106,-0.01 0.076,-0.01 -0.03,0 0.069,0 0.099,0 0.064,0 -0.035,0 0.056,0 0.09,0 0.168,0 0.078,0 0.154,0 0.075,0 0.073,0 0,0 0.028,0 0.03,0 0.017,0 -0.012,0 0.176,-0 0.188,0 0.491,0 0.303,0 0.327,0.01" />
    <path
       id="STROKE_d7b484c1-f95c-45f1-9c0d-b75bc3e6e335"
       opacity="1"
       fill="none"
       stroke="#000000"
       stroke-width="1.779"
       stroke-opacity="1"
       stroke-linecap="round"
       stroke-linejoin="round"
       d="m -1962.24,2834.931 q 0.129,0 0.115,0 0.21,0 0.151,0 0.14,0 0.138,0 0.112,-0.01 0.596,-0.054 0.483,-0.044 0.97,-0.048 0.487,0 0.737,-0.013 0.25,-0.01 0.454,0 0.205,0.01 0.626,-0.012 0.422,-0.019 0.614,-0.038 0.193,-0.018 1.665,-0.068 1.472,-0.05 2.648,-0.074 1.175,-0.024 1.693,-0.015 0.517,0.01 0.893,0 0.376,-0.01 1.181,-0.036 0.805,-0.031 1.41,-0.027 0.605,0 1.146,0 0.541,0 1.006,0 0.465,0 0.893,0 0.427,0 0.77,0 0.343,0 0.534,0.01 0.191,0.01 0.881,0.01 0.691,0 2.15,-0.014 1.46,-0.016 2.287,-0.029 0.827,-0.014 1.187,-0.01 0.36,0 0.65,0 0.291,0 0.619,0 0.329,0 0.922,0 0.593,0 1.769,0 1.176,0 1.758,0 0.583,0 0.904,0 0.321,0 0.838,-0.01 0.518,-0.01 0.914,-0.014 0.397,-0.01 0.544,0 0.147,0 0.301,0 0.153,0 0.215,0 0.062,10e-4 0.174,0 0.112,0 0.295,-0.01 0.183,0 0.281,-0.01 0.097,0 0.172,0 0.075,0 0.159,0 0.085,0 0.178,0 0.093,0 0.501,0 0.407,0 0.947,-0.011 0.541,-0.012 0.831,-0.012 0.29,0 0.413,0 0.124,0 0.119,0 -0.01,0 0.01,0 0.014,0 1.005,0 0.991,0 2.011,0 1.019,0 1.584,0 0.565,0 0.999,-0.014 0.434,-0.017 0.653,-0.016 0.219,0 0.412,0 0.194,0 0.685,0 0.491,0 0.897,0 0.406,0 0.579,0 0.172,0 0.248,0 0.076,0 0.055,0 -0.022,0 0.041,0 0.064,0 0.177,0 0.112,0 0.188,0 0.076,0 0.069,0 -0.01,-0 0.053,0 0.06,0 0.269,10e-4 0.208,0 0.318,0 0.11,0 0.173,-0.01 0.062,-0.01 0.062,-0.01 0,0 0.026,0 0.027,0 0,0 -0.027,0 0.068,-0.01 0.094,-0.011 0.165,-0.016 0.071,-0.01 0.062,0 -0.01,0 0.01,0 0.016,0 0.061,-0.01 0.046,-0.01 0.052,-0.01 0.01,10e-4 0.045,0 0.041,0 0.082,-0.01 0.041,0 0.043,0 10e-4,0 0.013,0 0.012,0 0.063,0 0.051,-10e-4 0.064,0 0.012,-10e-4 -0.01,0 -0.016,0 0.09,0 0.106,-0.01 0.077,-0.01 -0.03,10e-4 0.069,10e-4 0.099,-10e-4 0.064,0 -0.035,0 0.055,0 0.091,0 0.169,0 0.078,0 0.153,0 0.076,0 0.074,0 0,0 0.028,0 0.029,0 0.017,-10e-4 -0.013,0 0.175,0 0.188,0 0.491,0 0.303,0 0.328,0.01" />
    <path
       id="STROKE_7bff8be6-56b1-401e-b451-9a4270a545e3"
       opacity="1"
       fill="none"
       stroke="#000000"
       stroke-width="1.779"
       stroke-opacity="1"
       stroke-linecap="round"
       stroke-linejoin="round"
       d="m -1962.24,2834.931 q 0.129,0 0.115,0 0.21,0 0.151,0 0.14,0 0.138,0 0.112,-0.01 0.596,-0.054 0.483,-0.044 0.97,-0.048 0.487,0 0.737,-0.013 0.25,-0.01 0.454,0 0.205,0.01 0.626,-0.012 0.422,-0.019 0.614,-0.038 0.193,-0.018 1.665,-0.068 1.472,-0.05 2.648,-0.074 1.175,-0.024 1.693,-0.015 0.517,0.01 0.893,0 0.376,-0.01 1.181,-0.036 0.805,-0.031 1.41,-0.027 0.605,0 1.146,0 0.541,0 1.006,0 0.465,0 0.893,0 0.427,0 0.77,0 0.343,0 0.534,0.01 0.191,0.01 0.881,0.01 0.691,0 2.15,-0.014 1.46,-0.016 2.287,-0.029 0.827,-0.014 1.187,-0.01 0.36,0 0.65,0 0.291,0 0.619,0 0.329,0 0.922,0 0.593,0 1.769,0 1.176,0 1.758,0 0.583,0 0.904,0 0.321,0 0.838,-0.01 0.518,-0.01 0.914,-0.014 0.397,-0.01 0.544,0 0.147,0 0.301,0 0.153,0 0.215,0 0.062,10e-4 0.174,0 0.112,0 0.295,-0.01 0.183,0 0.281,-0.01 0.097,0 0.172,0 0.075,0 0.159,0 0.085,0 0.178,0 0.093,0 0.501,0 0.407,0 0.947,-0.011 0.541,-0.012 0.831,-0.012 0.29,0 0.413,0 0.124,0 0.119,0 -0.01,0 0.01,0 0.014,0 1.005,0 0.991,0 2.011,0 1.019,0 1.584,0 0.565,0 0.999,-0.014 0.434,-0.017 0.653,-0.016 0.219,0 0.412,0 0.194,0 0.685,0 0.491,0 0.897,0 0.406,0 0.579,0 0.172,0 0.248,0 0.076,0 0.055,0 -0.022,0 0.041,0 0.064,0 0.177,0 0.112,0 0.188,0 0.076,0 0.069,0 -0.01,-0 0.053,0 0.06,0 0.269,10e-4 0.208,0 0.318,0 0.11,0 0.173,-0.01 0.062,-0.01 0.062,-0.01 0,0 0.026,0 0.027,0 0,0 -0.027,0 0.068,-0.01 0.094,-0.011 0.165,-0.016 0.071,-0.01 0.062,0 -0.01,0 0.01,0 0.016,0 0.061,-0.01 0.046,-0.01 0.052,-0.01 0.01,10e-4 0.045,0 0.041,0 0.082,-0.01 0.041,0 0.043,0 10e-4,0 0.013,0 0.012,0 0.063,0 0.051,-10e-4 0.064,0 0.012,-10e-4 -0.01,0 -0.016,0 0.09,0 0.106,-0.01 0.077,-0.01 -0.03,10e-4 0.069,10e-4 0.099,-10e-4 0.064,0 -0.035,0 0.055,0 0.091,0 0.169,0 0.078,0 0.153,0 0.076,0 0.074,0 0,0 0.028,0 0.029,0 0.017,-10e-4 -0.013,0 0.175,0 0.188,0 0.491,0 0.303,0 0.328,0.01" />
    <path
       id="STROKE_3eb3b943-087f-4163-a086-82dca1b343d2"
       opacity="1"
       fill="none"
       stroke="#000000"
       stroke-width="1.779"
       stroke-opacity="1"
       stroke-linecap="round"
       stroke-linejoin="round"
       d="m -1961.897,2847.776 q 0.129,0 0.115,0 0.21,0 0.151,0 0.14,0 0.138,0 0.112,-0.01 0.596,-0.054 0.483,-0.044 0.97,-0.048 0.487,0 0.737,-0.013 0.25,-0.01 0.454,0 0.205,0.01 0.626,-0.012 0.422,-0.019 0.615,-0.038 0.193,-0.019 1.664,-0.069 1.472,-0.05 2.648,-0.073 1.175,-0.024 1.693,-0.015 0.517,0.01 0.893,0 0.376,-0.01 1.181,-0.036 0.805,-0.031 1.41,-0.027 0.605,0 1.147,0 0.541,-0 1.005,0 0.465,0 0.893,-0 0.427,0 0.77,0 0.343,0 0.534,0.01 0.191,0.01 0.882,0.01 0.69,0 2.15,-0.015 1.459,-0.016 2.286,-0.029 0.827,-0.013 1.187,-0.01 0.36,0 0.65,0 0.291,0 0.62,0 0.328,0 0.921,0 0.593,0 1.769,0 1.176,0 1.759,0 0.582,-0 0.903,0 0.321,0 0.838,-0.01 0.518,-0.01 0.915,-0.014 0.396,-0.01 0.543,0 0.147,0 0.301,0 0.153,0 0.215,0 0.062,0 0.174,0 0.112,0 0.295,-0.01 0.183,-0.01 0.281,-0.01 0.097,0 0.172,0 0.075,0 0.16,0 0.084,0 0.177,0 0.093,0 0.501,0 0.407,0 0.948,-0.01 0.54,-0.012 0.83,-0.012 0.29,-0 0.413,0 0.124,0 0.119,0 -0.01,0 0.01,0 0.014,-0 1.005,0 0.992,0 2.011,0 1.019,0 1.584,0 0.565,0 0.999,-0.014 0.434,-0.016 0.653,-0.015 0.219,0 0.413,0 0.193,0 0.684,0 0.491,0 0.897,0 0.406,0 0.579,0 0.172,0 0.248,0 0.076,0 0.055,0 -0.022,0 0.041,0 0.064,0 0.177,0 0.112,0 0.189,0 0.076,0 0.068,0 -0.01,0 0.053,0 0.061,0 0.269,0 0.208,0 0.318,0 0.11,0 0.173,-0.01 0.063,-0.01 0.062,-0.01 -10e-4,0 0.026,0 0.028,0 0,0 -0.026,0 0.068,-0.01 0.094,-0.012 0.165,-0.017 0.071,0 0.062,0 -0.01,10e-4 0.01,0 0.016,0 0.062,-0.01 0.045,-0.01 0.051,-0.01 0.01,0 0.045,0 0.041,0 0.082,-0.01 0.041,0 0.043,0 10e-4,0 0.013,0 0.012,0 0.063,0 0.051,0 0.064,0 0.012,0 0,0 -0.017,0 0.089,-0.01 0.107,-0.01 0.077,-0.01 -0.03,0 0.069,0 0.099,0 0.064,0 -0.035,0 0.055,0 0.091,0 0.169,0 0.078,0 0.153,0 0.076,0 0.074,0 0,0 0.028,0 0.029,0 0.017,0 -0.012,0 0.175,0 0.188,-10e-4 0.491,0 0.303,0 0.328,0.01" />
    <path
       id="STROKE_94f1cc6c-8cae-4dae-af9b-74895d73e2b9"
       opacity="1"
       fill="none"
       stroke="#000000"
       stroke-width="1.779"
       stroke-opacity="1"
       stroke-linecap="round"
       stroke-linejoin="round"
       d="m -2013.663,2848.239 q 0.129,0 0.114,0 0.21,0 0.152,0 0.139,0 0.137,0 0.113,-0.01 0.596,-0.054 0.484,-0.044 0.97,-0.048 0.487,0 0.737,-0.013 0.25,-0.01 0.455,0 0.204,0.01 0.626,-0.013 0.421,-0.018 0.614,-0.037 0.193,-0.019 1.665,-0.069 1.472,-0.05 2.647,-0.074 1.176,-0.023 1.693,-0.014 0.517,0.01 0.893,0 0.376,-0.01 1.181,-0.035 0.805,-0.031 1.41,-0.028 0.606,0 1.147,0 0.541,-10e-4 1.006,0 0.464,0 0.892,-10e-4 0.428,0 0.77,0 0.343,0 0.534,0.01 0.192,0.01 0.882,0.01 0.69,10e-4 2.15,-0.015 1.459,-0.016 2.286,-0.029 0.827,-0.013 1.187,-0.01 0.36,0 0.651,0 0.29,0 0.619,0 0.329,0 0.922,0 0.592,0 1.768,0 1.176,0 1.759,0 0.583,0 0.903,0 0.321,0 0.839,-0.01 0.517,-0.01 0.914,-0.013 0.397,-0.01 0.543,0 0.147,0 0.301,0 0.154,0 0.216,0 0.061,0 0.173,0 0.113,0 0.295,-0.01 0.183,0 0.281,-0.01 0.098,0 0.173,0 0.074,0 0.159,0 0.084,-0 0.177,-0 0.094,0 0.501,0 0.407,0 0.948,-0.01 0.54,-0.012 0.83,-0.012 0.29,0 0.414,0 0.123,0 0.118,0 -0.01,0 0.01,0 0.014,0 1.006,0 0.991,0 2.01,0 1.019,0 1.584,0 0.565,0 0.999,-0.014 0.434,-0.016 0.653,-0.015 0.219,0 0.413,0 0.193,0 0.684,0 0.492,0 0.898,0 0.405,0 0.578,0 0.173,0 0.249,0 0.076,0 0.054,0 -0.022,0 0.042,0 0.063,0 0.176,0 0.113,0 0.189,0 0.076,0 0.068,-0 -0.01,0 0.053,0 0.061,0 0.269,0 0.208,0 0.318,0 0.11,0 0.173,-0.01 0.063,-0.01 0.062,-0.01 -0,0 0.027,0 0.027,0 0,0 -0.027,0 0.067,-0.01 0.094,-0.012 0.165,-0.017 0.072,-0.01 0.062,0 -0.01,0 0.01,0 0.015,0 0.061,-0.01 0.046,-0.01 0.051,-0.01 0.01,0 0.046,0 0.041,0 0.082,-0.01 0.041,0 0.042,0 0,0 0.013,0 0.012,0 0.063,0 0.052,-0 0.064,0 0.012,-0 0,0 -0.016,0 0.09,0 0.106,-0.01 0.076,-0.01 -0.03,0 0.069,0 0.099,0 0.064,0 -0.035,0 0.056,0 0.09,0 0.168,0 0.078,0 0.154,0 0.075,0 0.073,0 0,0 0.028,0 0.03,0 0.017,0 -0.012,0 0.176,0 0.188,0 0.491,0 0.303,0 0.327,0.01" />
    <path
       id="STROKE_cbce1b14-f260-4c68-9f2b-3ad942ae387a"
       opacity="1"
       fill="none"
       stroke="#000000"
       stroke-width="1.779"
       stroke-opacity="1"
       stroke-linecap="round"
       stroke-linejoin="round"
       d="m -1962.034,2848.005 q 0.129,0 0.114,0 0.211,0 0.152,0 0.14,0 0.138,0 0.112,-0.01 0.596,-0.054 0.483,-0.044 0.97,-0.048 0.487,0 0.737,-0.013 0.249,-0.01 0.454,0 0.205,0.01 0.626,-0.012 0.421,-0.019 0.614,-0.037 0.193,-0.019 1.665,-0.069 1.472,-0.05 2.648,-0.074 1.175,-0.024 1.692,-0.015 0.518,0.01 0.894,0 0.376,-0.01 1.181,-0.036 0.805,-0.03 1.41,-0.027 0.605,0 1.146,0 0.541,0 1.006,0 0.465,0 0.892,0 0.428,0 0.771,-10e-4 0.343,0 0.534,0.01 0.191,0.01 0.881,0.01 0.691,0 2.15,-0.014 1.46,-0.016 2.287,-0.029 0.827,-0.013 1.187,-0.01 0.36,0 0.65,0 0.29,0 0.619,0 0.329,0 0.922,0 0.593,0 1.769,0 1.176,0 1.758,0 0.583,0 0.904,0 0.321,0 0.838,-0.01 0.517,-0.01 0.914,-0.014 0.397,-0.01 0.544,0 0.147,0 0.3,0 0.154,-0 0.216,0 0.062,0 0.174,0 0.112,0 0.295,-0.01 0.183,-0.01 0.281,-0.01 0.097,0 0.172,0 0.075,10e-4 0.159,0 0.085,0 0.178,0 0.093,0 0.501,0 0.407,0 0.947,-0.01 0.541,-0.013 0.831,-0.013 0.29,0 0.413,0 0.124,0 0.119,0 0,0 0.01,0 0.014,0 1.005,0 0.991,0 2.011,0 1.019,0 1.584,0 0.565,0 0.999,-0.014 0.434,-0.017 0.653,-0.016 0.219,0 0.412,0 0.194,0 0.685,0 0.491,0 0.897,0 0.406,0 0.579,0 0.172,0 0.248,0 0.076,0 0.054,0 -0.021,0 0.042,0 0.064,0 0.176,0 0.113,0 0.189,0 0.076,0 0.069,-0 -0.01,0 0.053,0 0.06,0 0.268,0 0.209,0 0.319,0 0.11,0 0.173,-0.01 0.062,-0.01 0.062,-0.01 -10e-4,0 0.026,-0 0.027,0 0,0 -0.027,0 0.067,-0.01 0.095,-0.012 0.166,-0.017 0.071,-0.01 0.062,0 -0.01,0 0.01,0 0.015,10e-4 0.061,-0.01 0.046,-0.01 0.051,-0.01 0.01,0 0.046,0 0.041,0 0.082,-0.01 0.041,0 0.043,0 0,0 0.013,0 0.012,0 0.063,0 0.051,0 0.063,0 0.013,0 0,0 -0.017,0 0.089,-0.01 0.106,-0.01 0.077,-0.01 -0.03,0 0.069,0 0.099,0 0.064,0 -0.035,0 0.055,0 0.091,0 0.168,0 0.078,0 0.154,0 0.076,0 0.074,0 0,0 0.028,0 0.029,0 0.017,0 -0.013,0 0.175,0 0.188,0 0.491,0 0.303,0 0.328,0.01" />
    <path
       id="STROKE_8ca286a8-fc04-41c8-890e-c50f0d9b31ff"
       opacity="1"
       fill="none"
       stroke="#000000"
       stroke-width="1.414"
       stroke-opacity="1"
       stroke-linecap="round"
       stroke-linejoin="round"
       d="m -1991.087,2713.701 q -10e-4,-0.299 -0.01,-0.282 0.062,-0.237 -0.284,-0.613 -0.285,0.464 -0.296,0.423 -0.012,-0.042 -1.537,4.1 -1.526,4.141 -3.19,8.797 0.01,-0.015 0.045,-0.082 0.038,-0.066 0.106,-0.183" />
    <path
       id="STROKE_44b07c22-04d2-4b80-849d-8b24e098f508"
       opacity="1"
       fill="none"
       stroke="#000000"
       stroke-width="1.706"
       stroke-opacity="1"
       stroke-linecap="round"
       stroke-linejoin="round"
       d="m -1990.842,2713.736 q 0.01,-0.014 0.01,0.01 0,0.02 0,-0.135 0.01,-0.154 0.022,-0.162 0.017,-0.01 0.155,-0.147 0.138,-0.138 0.147,-0.117 0.01,0.021 0.02,0.017 0.012,-0.01 0.074,0.012 0.063,0.017 0.166,0.088 0.103,0.071 0.392,1.948 0.289,1.877 0.408,3.749 0.118,1.871 0.165,2.986 0.046,1.115 0.067,1.589 0.021,0.473 0.041,0.753 0.02,0.279 0.108,0.388 0.087,0.11 0.241,0.064 0.154,-0.046 0.16,-0.059 0.01,-0.013 0.067,-0.031 0.061,-0.017 1.123,-2.435 1.063,-2.419 2.022,-4.226 0.959,-1.808 1.46,-2.668 0.502,-0.861 0.836,-1.403 0.334,-0.542 0.898,-1.187 0.563,-0.645 1.186,-1.186 0.622,-0.541 1.027,-0.789 0.404,-0.247 0.758,-0.312 0.354,-0.066 0.59,0.407 0.236,0.472 0.281,2.085 0.046,1.613 -0.029,2.813 -0.074,1.2 -0.211,2.114 -0.137,0.915 -0.594,3.121 -0.457,2.206 -0.747,3.671 -0.291,1.466 -0.459,2.367 -0.168,0.902 -0.564,1.395 0.01,-0.105 0.014,-0.148 0.01,-0.043 0.092,-0.21 0.084,-0.168 0.175,-0.326" />
    <path
       id="STROKE_6779f3b8-5597-4c17-b032-f3147d8f5564"
       opacity="1"
       fill="none"
       stroke="#000000"
       stroke-width="1.779"
       stroke-opacity="1"
       stroke-linecap="round"
       stroke-linejoin="round"
       d="m -1974.105,2722.724 q 0.096,0.054 0.673,-0.033 0.578,-0.086 1.085,-0.465 0.508,-0.378 0.746,-0.689 0.239,-0.31 0.285,-0.54 0.046,-0.229 0.05,-0.299 0,-0.071 -0.112,-0.191 -0.117,-0.12 -0.261,-0.169 -0.144,-0.05 -0.627,-0.139 -0.482,-0.089 -0.98,0.037 -0.498,0.126 -0.8,0.341 -0.303,0.215 -0.596,0.429 -0.292,0.215 -0.862,0.925 -0.57,0.709 -0.856,1.405 -0.285,0.696 -0.36,1.256 -0.075,0.561 -0.044,1.016 0.03,0.454 0.385,0.79 0.356,0.336 0.681,0.599 0.325,0.262 1.205,0.385 0.881,0.122 1.65,0.157 0.77,0.034 1.737,-0.574 0.966,-0.608 1.123,-0.741" />
    <path
       id="STROKE_57cb9d62-5000-445a-a5dd-93abb19d7a3b"
       opacity="1"
       fill="none"
       stroke="#000000"
       stroke-width="1.779"
       stroke-opacity="1"
       stroke-linecap="round"
       stroke-linejoin="round"
       d="m -1966.211,2720.701 q 0,0 -0.038,-0.049 -0.039,-0.049 -0.15,1.407 -0.111,1.455 -0.512,4.298 -0.128,-0.111 -0.134,-0.879 0,-0.769 0.212,-1.446 0.218,-0.678 0.489,-1.274 0.271,-0.597 0.668,-1.117 0.398,-0.52 1.07,-0.91 0.671,-0.389 1.346,-0.523 0.674,-0.134 0.969,-0.139 0.294,-0.01 0.47,0.08 0.176,0.086 0.283,0.227 0.106,0.142 0.157,0.286 0.052,0.144 0.132,0.297 0.081,0.153 0.159,1.062 0.077,0.91 0.048,1.637 -0.03,0.727 -0.531,1.375 -0.188,-0.125 0.454,-1.257 0.643,-1.131 1.436,-1.865 0.793,-0.734 1.419,-1.065 0.627,-0.332 1.115,-0.421 0.489,-0.089 0.896,-0.016 0.407,0.072 0.828,0.471 0.421,0.398 0.646,1.402 0.226,1.004 0.033,1.97 -0.193,0.967 -0.553,1.742 -0.359,0.776 -0.584,1.241 -0.224,0.466 -0.396,0.583 -0.172,0.117 -0.229,0.133" />
    <path
       id="STROKE_96d9085d-9132-4f97-b583-0e0a2e32b1a4"
       opacity="1"
       fill="none"
       stroke="#000000"
       stroke-width="1.779"
       stroke-opacity="1"
       stroke-linecap="round"
       stroke-linejoin="round"
       d="m -1948.744,2721.216 q -0.023,0.049 -0.553,0.015 -0.53,-0.034 -1.069,0.448 -0.539,0.482 -0.811,1.282 -0.273,0.8 -0.281,1.587 -0.01,0.788 0.045,1.324 0.054,0.536 0.534,1.138 0.48,0.603 0.727,0.83 0.248,0.228 0.545,0.336 0.297,0.108 0.853,0.234 0.557,0.126 1.191,-0.183 0.634,-0.31 1.226,-1.088 0.593,-0.778 0.92,-1.486 0.327,-0.709 0.447,-1.428 0.12,-0.72 0.078,-1.163 -0.043,-0.444 -0.289,-0.806 -0.246,-0.362 -1.082,-0.536 -0.836,-0.174 -1.626,0.113 -0.79,0.288 -1.006,0.43" />
    <path
       id="STROKE_69b7b442-eb32-4160-81d5-08aef73b29e9"
       opacity="1"
       fill="none"
       stroke="#000000"
       stroke-width="1.779"
       stroke-opacity="1"
       stroke-linecap="round"
       stroke-linejoin="round"
       d="m -1940.865,2721.451 q 0,0 0,0 0,0 -0.048,-0.035 -0.051,-0.124 0.016,0.344 0.068,0.469 0.168,1.679 0.1,1.211 0.113,1.816 0.013,0.604 -0.015,1.174 -0.029,0.571 -0.164,0.89 -0.134,0.319 -0.378,0.264 -0.245,-0.056 -0.249,-0.135 0,-0.078 -10e-4,-0.063 0,0.015 -0.043,-0.065 -0.046,-0.08 -0.115,-0.784 -0.068,-0.703 0.145,-1.63 0.214,-0.928 0.484,-1.586 0.27,-0.658 0.608,-1.102 0.338,-0.444 0.793,-0.671 0.456,-0.227 0.992,-0.34 0.535,-0.114 0.71,-0.155" />
    <path
       id="STROKE_a5e4326e-1d6d-4bb7-86b1-624b33143a33"
       opacity="1"
       fill="none"
       stroke="#000000"
       stroke-width="1.779"
       stroke-opacity="1"
       stroke-linecap="round"
       stroke-linejoin="round"
       d="m -1933.299,2721.251 q 0.084,-0.12 0.324,1.52 0.241,1.641 0.627,3.355 0.016,0 0.024,0 0,-0.01 0.013,-0.074 0.013,-0.066 0.039,-0.14" />
    <path
       id="STROKE_d3dba7ff-2e64-4dcd-8954-095b560ad88b"
       opacity="1"
       fill="none"
       stroke="#000000"
       stroke-width="1.328"
       stroke-opacity="1"
       stroke-linecap="round"
       stroke-linejoin="round"
       d="m -1927.007,2721.212 q -0.267,0.055 -0.24,0.073 -0.265,0 -1.253,1.612 -0.987,1.608 -2.062,3.238 -1.074,1.63 -1.817,2.672 -0.742,1.041 -1.348,1.908 -0.605,0.867 -1.493,2.258 -0.889,1.391 -1.376,2.192 -0.486,0.801 -0.775,1.258" />
    <path
       id="STROKE_dd41557f-65ce-44de-8cd9-ff90868355a0"
       opacity="1"
       fill="none"
       stroke="#f45e58"
       stroke-width="1.828"
       stroke-opacity="1"
       stroke-linecap="round"
       stroke-linejoin="round"
       d="m -2074.832,2758.734 q 0,0 0,-0.01 0,-0.01 0,-0.307 h -0.013 q -0.209,0.674 -0.143,0.497 -0.273,0.114 0.294,1.842 0.209,-0.056 0.102,-0.01 -0.107,0.05 0.297,-0.01 0.403,-0.056 0.563,-0.578 0.159,-0.521 0.192,-0.938 0.034,-0.416 10e-4,-0.669 -0.033,-0.253 -0.324,-0.418 -0.291,-0.165 -0.592,-0.186 -0.302,-0.02 -0.451,-0.037 -0.15,-0.018 -0.545,0.472 -0.396,0.489 -0.474,0.986 -0.079,0.497 -0.084,0.877 -0.01,0.379 0.062,0.639 0.067,0.26 0.073,0.206 0.01,-0.054 0.26,0.113 0.255,0.168 0.785,0.154 0.529,-0.014 0.835,-0.497 0.307,-0.484 0.399,-0.882 0.092,-0.399 0.126,-1.103 0.034,-0.704 -0.466,-0.867 -0.501,-0.163 -0.806,0.156 -0.305,0.319 -0.538,0.642 -0.232,0.322 -0.299,0.666 -0.067,0.345 -0.12,0.642 -0.053,0.296 0.115,0.626 0.168,0.331 0.713,0.336 0.544,0.01 1.134,-0.264 0.589,-0.269 0.97,-0.908 0.381,-0.64 0.424,-0.835 0.043,-0.195 -0.095,-0.571 -0.139,-0.375 -0.398,-0.465 -0.259,-0.089 -0.299,-0.096 -0.04,-0.01 -0.053,-0.027 -0.014,-0.018 -0.676,-0.08 -0.663,-0.062 -0.968,0.56 -0.305,0.623 -0.311,1.049 -0.01,0.426 0.044,0.797 0.049,0.371 0.209,0.399 0.159,0.028 0.586,0.094 0.428,0.067 0.66,-0.045 0.233,-0.112 0.63,-0.402 0.398,-0.289 0.616,-0.813 0.217,-0.523 0.229,-0.798 0.012,-0.274 -0.071,-0.525 -0.082,-0.25 -0.039,-0.224 0.043,0.026 -0.583,-0.161 -0.626,-0.186 -1.093,-0.086 -0.467,0.099 -0.759,0.503 -0.293,0.405 -0.35,0.621 -0.057,0.217 -0.112,0.76 -0.055,0.544 0.19,0.808 0.245,0.264 1.076,0.124 0.831,-0.14 1.026,-0.267" />
    <path
       id="STROKE_9bce5a2b-98fb-4dc1-8498-d976c5ca8482"
       opacity="1"
       fill="none"
       stroke="#f45e58"
       stroke-width="1.682"
       stroke-opacity="1"
       stroke-linecap="round"
       stroke-linejoin="round"
       d="m -2072.233,2760.095 q 0.07,-0.168 0.145,-0.344 0.075,-0.176 0.288,-0.322 0.214,-0.145 0.327,-0.195 0.112,-0.05 0.188,-0.068 0.076,-0.019 0.181,-0.071 0.104,-0.052 2.472,-0.714 2.368,-0.662 5.028,-1.276 2.661,-0.614 4.845,-0.89 2.185,-0.275 9.395,-0.391 7.21,-0.116 12.809,-0.288 5.599,-0.173 8.662,-0.176 3.063,0 5.019,0.01 1.956,0.013 4.406,0.123 2.451,0.111 6.032,0.251 3.582,0.14 5.396,0.267 1.814,0.127 2.772,0.317 0.958,0.19 1.794,0.187 0.837,0 4.912,1.484 4.075,1.486 6.173,2.366 2.097,0.879 3.564,1.586 1.466,0.708 3.81,1.579 2.344,0.872 3.624,1.531 1.28,0.659 1.763,0.973 0.483,0.314 1.385,0.99 0.901,0.677 2.185,2.656 1.285,1.98 1.977,3.397 0.691,1.418 1.258,3.79 0.566,2.373 0.863,4.294 0.296,1.92 0.405,3.166 0.11,1.247 0.522,5.816 0.413,4.569 0.904,9.037 0.193,0.134 0.16,0.114 0.139,0.281 0.168,0.342 0.029,0.062 0.014,0.011 0.057,0.081 0.212,0.508 0.155,0.427 0.237,0.718 0.082,0.291 0.134,0.482 0.053,0.192 0.034,0.151 -0.018,-0.041 0.162,0.377 0.163,0.014 0.193,-0.048 0.03,-0.063 0.083,-0.146" />
    <path
       id="STROKE_71b61e83-ce78-4e49-99d6-f48a17552bf5"
       opacity="1"
       fill="none"
       stroke="#f45e58"
       stroke-width="1.828"
       stroke-opacity="1"
       stroke-linecap="round"
       stroke-linejoin="round"
       d="m -1971.604,2800.668 q 0,0 0.073,0.225 0.072,0.225 0.07,0.126 0.087,0.122 0.15,0.205 0.062,0.083 0.206,0.293 0.144,0.211 0.171,0.254 0.026,0.042 0.231,0.381 0.204,0.339 0.371,0.629 0.167,0.29 0.329,0.541 0.162,0.252 0.193,0.291 0.031,0.039 0.158,0.227 0.128,0.189 0.152,0.213 0.025,0.025 -0.021,-0.038 -0.045,-0.062 0.25,0.268 0.296,0.33 0.651,0.306 0.354,-0.023 0.876,-0.631 0.522,-0.607 0.709,-0.883 0.187,-0.275 0.332,-0.519 0.145,-0.244 0.23,-0.4 0.085,-0.157 0.233,-0.446 0.147,-0.289 0.345,-0.642 0.197,-0.353 0.385,-0.666 0.189,-0.313 0.608,-1.008 -0.421,0 -0.338,0.013 -0.426,0.092 -0.383,0.067 -0.353,-0.012 -2.156,0.421 -1.804,0.433 -2.071,0.546" />
    <path
       id="STROKE_740bc8dc-222f-40d0-ad84-a79e7906068a"
       opacity="1"
       fill="none"
       stroke="#f45e58"
       stroke-width="1.828"
       stroke-opacity="1"
       stroke-linecap="round"
       stroke-linejoin="round"
       d="m -2072.95,2810.538 q -0.517,0 -0.365,0 -0.423,0 -0.451,0 -0.028,0 0.042,0 -0.214,0.209 -0.151,0.2 0.048,-0.142 -0.024,0.173 -0.073,0.316 0.047,0.533 0.12,0.218 0.332,0.335 0.213,0.117 0.236,0.114 0.023,0 0.01,-0.01 -0.014,0 0.175,0.019 0.189,0.021 0.194,-0.014 0.01,-0.034 -0.024,0.013 -0.029,0.047 0.14,-0.039 0.169,-0.086 0.313,-0.228 0.143,-0.142 0.149,-0.274 0.01,-0.132 0.031,-0.088 0.024,0.043 -0.026,-0.652 0.239,0.051 -0.303,-0.08 -0.542,-0.13 -0.901,0.186 -0.359,0.316 -0.623,0.69 -0.264,0.374 -0.307,0.603 -0.043,0.229 -0.043,0.408 10e-4,0.179 0.018,0.111 0.016,-0.067 0.044,0.051 0.029,0.118 0.464,0.099 0.435,-0.019 0.619,-0.045 0.184,-0.025 0.8,-0.431 0.617,-0.406 0.728,-0.888 0.11,-0.483 -0.031,-0.655 -0.141,-0.172 -0.478,-0.263 -0.337,-0.091 -0.472,-0.106 -0.134,-0.015 -0.5,-0.016 -0.367,0 -0.575,0.071 -0.209,0.071 -0.434,0.279 -0.226,0.208 -0.353,0.832 -0.128,0.624 0.425,0.757 0.554,0.133 0.819,0.127 0.264,-0.01 0.702,-0.035 0.439,-0.029 0.635,-0.25 0.195,-0.221 0.32,-0.567 0.124,-0.346 0.027,-0.525 -0.096,-0.18 -0.154,-0.195 -0.057,-0.016 -0.013,0.021 0.044,0.038 -0.248,-0.145 -0.292,-0.182 -1.203,-0.25 -0.911,-0.068 -0.748,2.03 0.014,0 0.089,0 0.021,-0.214 0.024,-0.291 0,-0.078 0.01,-0.093 0,-0.015 0.048,-0.169 0.048,-0.154 0.092,-0.267" />
    <path
       id="STROKE_b81d37e1-b399-400d-86f2-cccc8c657f1e"
       opacity="1"
       fill="none"
       stroke="#f45e58"
       stroke-width="1.752"
       stroke-opacity="1"
       stroke-linecap="round"
       stroke-linejoin="round"
       d="m -2069.105,2811.419 q 0.481,-0.381 3.991,-0.652 3.51,-0.272 6.842,0.09 3.332,0.362 4.915,0.614 1.583,0.252 3.667,0.646 2.084,0.393 4.817,1.119 2.733,0.726 5.601,1.754 2.868,1.029 5.163,1.975 2.294,0.946 3.411,1.448 1.116,0.501 1.673,0.743 0.557,0.242 1.419,0.646 0.861,0.404 3.08,1.347 2.219,0.943 3.583,1.488 1.365,0.545 3.002,1.222 1.638,0.677 3.364,1.564 1.727,0.887 3.389,1.852 1.662,0.965 3.459,2.06 1.797,1.095 2.88,1.948 1.083,0.854 1.971,1.74 0.888,0.886 2.284,2.27 1.397,1.385 2.282,2.367 0.884,0.981 1.516,1.399 0.632,0.419 1.014,0.723 -0.014,0 -0.071,0.013 -0.058,0.013 -0.161,0.04" />
    <path
       id="STROKE_d6f743b3-2255-4fcb-aa7a-b1c16235b1a2"
       opacity="1"
       fill="none"
       stroke="#f45e58"
       stroke-width="1.828"
       stroke-opacity="1"
       stroke-linecap="round"
       stroke-linejoin="round"
       d="m -1995.925,2836.633 q 0.01,-10e-4 -0.311,0 0.043,0.052 0.14,0.154 0.096,0.101 0.102,0.107 0.01,0.01 0.035,0.032 0.027,0.028 0.364,0.342 0.336,0.314 0.725,0.869 0.39,0.554 0.562,0.98 0.173,0.426 0.223,0.75 0.05,0.323 0.028,0.514 -0.021,0.191 0,0.151 0.025,-0.041 -0.079,0.257 -0.104,0.298 -1.307,0.592 -1.204,0.294 -3.119,0.556 -0.147,0.022 0.191,0 0.337,-0.022 1.975,-2.216 1.639,-2.194 1.795,-2.408" />
    <path
       id="STROKE_b4b306d0-1fb9-4f36-a2d2-5ecb49dc335c"
       opacity="1"
       fill="none"
       stroke="#f45e58"
       stroke-width="1.828"
       stroke-opacity="1"
       stroke-linecap="round"
       stroke-linejoin="round"
       d="m -2109.376,2718.197 q -0.144,0.098 -0.109,0.092 -0.062,0.219 -0.036,0.2 -0.114,0.126 0.286,1.415 0.4,1.288 0.707,2.592 0.307,1.303 0.494,2.388 0.186,1.085 0.311,2.534 -0.01,0 -0.033,-0.01 -0.028,-0.01 -0.078,-0.02" />
    <path
       id="STROKE_52243931-8a45-46dd-a859-61dac70e8284"
       opacity="1"
       fill="none"
       stroke="#f45e58"
       stroke-width="1.828"
       stroke-opacity="1"
       stroke-linecap="round"
       stroke-linejoin="round"
       d="m -2110.688,2718.782 q -0.01,-0.254 -0.025,-0.25 -0.065,-0.181 -0.037,-0.538 0.029,-0.356 0.403,-0.784 0.373,-0.427 0.971,-0.837 0.598,-0.41 1.282,-0.715 0.684,-0.305 1.54,-0.403 0.857,-0.098 1.461,-0.078 0.605,0.02 0.968,0.114 0.364,0.094 0.837,0.29 0.473,0.196 1.049,0.523 0.576,0.328 1.186,1.011 0.61,0.683 0.956,1.281 0.346,0.598 0.557,1.074 0.212,0.476 0.375,1.481 0.162,1.005 0.201,1.555 0.039,0.55 0.072,1.46 0.034,0.91 -0.107,2.365 -0.141,1.454 -0.506,2.879 -0.365,1.424 -0.902,2.8 0,-0.156 -0.01,-0.239 -0.013,-0.084 -0.036,-0.211" />
    <path
       id="STROKE_10c87ba7-4354-453c-8e86-aec818c92900"
       opacity="1"
       fill="none"
       stroke="#f45e58"
       stroke-width="1.828"
       stroke-opacity="1"
       stroke-linecap="round"
       stroke-linejoin="round"
       d="m -2106.216,2722.29 q -0.092,-0.078 0.593,-0.065 0.685,0.012 2.602,0.014 1.917,0 2.177,-0.01" />
    <path
       id="STROKE_0a164830-3498-4b6e-8e7d-85a87aa9175a"
       opacity="1"
       fill="none"
       stroke="#f45e58"
       stroke-width="1.828"
       stroke-opacity="1"
       stroke-linecap="round"
       stroke-linejoin="round"
       d="m -2092.881,2714.141 q -0.02,0.064 0.053,-0.602 0,-0.135 0.173,0.048 0.172,0.184 0.262,0.361 0.09,0.177 0.31,0.812 0.22,0.636 0.444,1.416 0.223,0.78 0.434,2.068 0.212,1.289 0.245,2.41 0.033,1.121 0.026,2.124 -0.01,1.002 0.253,3.507 0.064,0.145 -0.304,-0.488 -0.369,-0.632 -0.735,-1.115 -0.366,-0.482 -0.665,-0.707 -0.298,-0.225 -0.493,-0.313 -0.195,-0.088 -0.359,-0.122 -0.164,-0.035 -0.533,-0.01 -0.369,0.025 -0.715,0.241 -0.346,0.217 -0.501,0.464 -0.155,0.246 -0.214,0.482 -0.059,0.236 -0.121,0.577 -0.062,0.34 0.065,0.763 0.127,0.423 0.298,0.727 0.173,0.305 0.458,0.601 0.286,0.297 0.785,0.539 0.499,0.242 1.033,0.321 0.534,0.078 0.971,0.01 0.436,-0.068 0.69,-0.237 0.253,-0.169 0.363,-0.26" />
    <path
       id="STROKE_7790ed68-160f-43e9-a832-70818659bcab"
       opacity="1"
       fill="none"
       stroke="#f45e58"
       stroke-width="1.77"
       stroke-opacity="1"
       stroke-linecap="round"
       stroke-linejoin="round"
       d="m -2084.288,2712.205 q 0,-0.104 0.121,-0.197 0.121,-0.094 0.218,-0.137 0.096,-0.043 0.108,-0.02 0.012,0.023 0.142,0.021 0.129,-10e-4 0.547,0.69 0.417,0.691 0.716,1.665 0.299,0.975 0.468,1.61 0.169,0.635 0.393,2.462 0.224,1.827 0.348,8.496 0.014,-0.01 -0.195,-0.71 -0.21,-0.703 -0.486,-1.189 -0.276,-0.486 -0.537,-0.812 -0.261,-0.326 -0.761,-0.527 -0.5,-0.202 -0.953,-0.215 -0.453,-0.012 -0.814,0.062 -0.361,0.075 -0.649,0.253 -0.288,0.179 -0.472,0.529 -0.185,0.35 -0.174,0.802 0.01,0.452 0.117,0.906 0.107,0.454 0.351,0.866 0.244,0.412 0.47,0.689 0.226,0.276 0.648,0.574 0.422,0.299 1.005,0.509 0.584,0.211 1.109,0.25 0.525,0.04 0.873,-0.106 0.347,-0.145 0.495,-0.249" />
    <path
       id="STROKE_ac753c9f-9269-4998-b853-37463fc7556b"
       opacity="1"
       fill="none"
       stroke="#f45e58"
       stroke-width="1.828"
       stroke-opacity="1"
       stroke-linecap="round"
       stroke-linejoin="round"
       d="m -2078.185,2724.14 q -0.089,0.066 0.3,1.479 0.388,1.412 0.574,3.047 0.01,-0.019 -0.027,0.018 -0.032,0.037 -0.183,-0.088 -0.15,-0.125 -0.193,-0.305 -0.043,-0.182 -0.151,-0.341 -0.108,-0.159 -0.246,-1.201 -0.139,-1.041 -0.165,-1.657 -0.027,-0.617 -0.019,-1.03 0.01,-0.413 0.101,-0.838 0.093,-0.424 0.573,-0.679 0.48,-0.254 1.008,-0.231 0.528,0.023 0.674,0.047" />
    <path
       id="STROKE_6c8521f5-cd12-4271-8a58-a373b2779e46"
       opacity="1"
       fill="none"
       stroke="#f45e58"
       stroke-width="1.828"
       stroke-opacity="1"
       stroke-linecap="round"
       stroke-linejoin="round"
       d="m -2072.205,2724.117 q 0,0 -0.114,0.018 -0.114,0.018 0.719,0.161 0.832,0.143 1.632,0.125 0.8,-0.018 1.188,-0.023 0.388,-0.01 0.688,-0.118 0.301,-0.113 0.501,-0.245 0.201,-0.132 0.239,-0.368 0.038,-0.236 -0.107,-0.54 -0.146,-0.304 -0.439,-0.483 -0.293,-0.179 -0.821,-0.338 -0.527,-0.158 -1.163,-0.204 -0.636,-0.046 -1.091,0 -0.455,0.047 -0.716,0.107 -0.261,0.06 -0.651,0.273 -0.39,0.213 -0.709,0.489 -0.32,0.276 -0.46,0.829 -0.139,0.553 -0.141,1.026 0,0.473 0.108,0.904 0.112,0.431 0.432,0.921 0.321,0.49 0.847,0.962 0.525,0.471 1.049,0.751 0.523,0.279 1.238,0.366 0.714,0.088 1.199,0.018 0.484,-0.071 0.654,-0.149" />
    <path
       id="STROKE_3bf2ced8-05fd-4167-9715-69875491140c"
       opacity="1"
       fill="none"
       stroke="#f45e58"
       stroke-width="1.828"
       stroke-opacity="1"
       stroke-linecap="round"
       stroke-linejoin="round"
       d="m -2060.478,2722.327 q -0.109,-0.01 -0.671,-0.076 -0.562,-0.069 -0.881,-0.085 -0.319,-0.017 -0.663,0.136 -0.344,0.154 -0.484,0.376 -0.14,0.223 -0.157,0.476 -0.018,0.252 0.061,0.506 0.079,0.253 1.02,0.605 0.941,0.352 1.566,0.617 0.625,0.264 0.878,0.414 0.252,0.151 0.542,0.432 0.291,0.281 0.452,0.666 0.161,0.384 0.138,0.72 -0.023,0.336 -0.326,0.612 -0.303,0.275 -0.853,0.604 -0.551,0.329 -1.288,0.467 -0.737,0.137 -1.384,0.153 -0.647,0.015 -0.939,-0.128 -0.292,-0.144 -0.378,-0.222" />
    <path
       id="STROKE_99b99c36-b9ae-47ba-a890-ba3765b9cdd8"
       opacity="1"
       fill="none"
       stroke="#f45e58"
       stroke-width="1.828"
       stroke-opacity="1"
       stroke-linecap="round"
       stroke-linejoin="round"
       d="m -2052.455,2721.974 q -0.051,0.043 -0.732,-0.041 -0.681,-0.084 -1.357,0.054 -0.676,0.139 -1.073,0.305 -0.397,0.166 -0.57,0.343 -0.173,0.176 -0.199,0.375 -0.027,0.199 0.326,0.471 0.353,0.272 1.417,0.757 1.063,0.485 1.803,0.807 0.739,0.322 1.2,0.715 0.462,0.392 0.685,0.65 0.223,0.257 0.416,0.668 0.193,0.411 0.194,0.778 10e-4,0.367 -0.173,0.595 -0.173,0.228 -0.484,0.45 -0.311,0.223 -0.764,0.389 -0.453,0.166 -1.095,0.227 -0.641,0.061 -1.215,-0.198 -0.575,-0.26 -0.878,-0.493 -0.303,-0.232 -0.404,-0.512 -0.102,-0.28 0.01,-0.464 0.107,-0.184 0.197,-0.263" />
    <path
       id="STROKE_94788a27-01e0-4452-961f-2dd8b01d1f30"
       opacity="1"
       fill="none"
       stroke="#f45e58"
       stroke-width="1.828"
       stroke-opacity="1"
       stroke-linecap="round"
       stroke-linejoin="round"
       d="m -2046.999,2724.14 q -0.044,-0.043 0.221,0.096 0.266,0.14 0.792,0.241 0.526,0.1 0.897,0.111 0.37,0.01 0.665,-0.074 0.295,-0.084 0.548,-0.31 0.253,-0.226 0.392,-0.515 0.14,-0.289 0.161,-0.645 0.021,-0.356 -0.142,-0.637 -0.163,-0.28 -0.57,-0.49 -0.407,-0.211 -0.865,-0.256 -0.458,-0.045 -0.817,-0.069 -0.36,-0.025 -0.807,0.237 -0.448,0.262 -0.794,0.601 -0.347,0.339 -0.668,0.96 -0.322,0.621 -0.463,1.369 -0.141,0.749 -0.104,1.235 0.036,0.487 0.155,0.766 0.118,0.28 0.391,0.517 0.273,0.237 0.773,0.592 0.499,0.354 1.552,0.377 1.054,0.022 1.297,0" />
    <path
       id="STROKE_88058cc0-00da-4248-a19e-90e3fdf082e9"
       opacity="1"
       fill="none"
       stroke="#f45e58"
       stroke-width="1.828"
       stroke-opacity="1"
       stroke-linecap="round"
       stroke-linejoin="round"
       d="m -2034.334,2721.206 q 0.134,0.042 -0.384,-0.133 -0.517,-0.176 -0.883,-0.16 -0.366,0.015 -0.524,0.01 -0.157,-0.01 -0.407,0.1 -0.249,0.105 -0.474,0.203 -0.225,0.097 -0.512,0.276 -0.287,0.18 -0.464,0.411 -0.176,0.231 -0.211,0.455 -0.035,0.223 0.117,0.404 0.152,0.18 0.308,0.292 0.157,0.113 1.086,0.415 0.929,0.302 1.569,0.507 0.641,0.205 1.071,0.456 0.431,0.251 0.748,0.561 0.316,0.31 0.36,0.827 0.045,0.516 0.021,0.821 -0.023,0.306 -0.222,0.667 -0.198,0.362 -0.516,0.667 -0.319,0.305 -0.868,0.569 -0.55,0.264 -1.347,0.305 -0.797,0.042 -1.381,-0.046 -0.583,-0.089 -1.349,-0.316 -0.765,-0.227 -1.181,-0.579 -0.415,-0.353 -0.499,-0.45" />
    <path
       id="STROKE_38cab874-d700-47bc-b2bc-2b01d2ed74a7"
       opacity="1"
       fill="none"
       stroke="#999999"
       stroke-width="1.321"
       stroke-opacity="1"
       stroke-linecap="round"
       stroke-linejoin="round"
       d="m -2150.318,2752.896 q 0.012,0.066 0.037,-0.481 -0.01,0 -1.464,2.971 -1.456,2.974 -3.244,5.843 -1.787,2.869 -2.887,4.677 -1.101,1.807 -1.456,2.556 -0.355,0.748 -0.422,0.84" />
    <path
       id="STROKE_fbbe12a8-2438-4298-8a01-51670d03172c"
       opacity="1"
       fill="none"
       stroke="#999999"
       stroke-width="1.779"
       stroke-opacity="1"
       stroke-linecap="round"
       stroke-linejoin="round"
       d="m -2157.535,2755.415 q -0.085,-0.01 -0.423,-0.01 -0.339,0 -0.573,0.097 -0.234,0.099 -0.326,0.391 -0.093,0.291 -0.113,0.502 -0.02,0.21 -0.011,0.293 0.01,0.084 0.029,0.106 0.02,0.023 0.066,0.065 0.046,0.043 0.48,0.119 0.435,0.077 1.01,-0.368 0.575,-0.445 0.854,-0.806 0.279,-0.361 0.218,-0.62 -0.061,-0.26 -0.153,-0.319" />
    <path
       id="STROKE_8c2e1c5b-9d3b-4536-a5a8-f3c11fe215b2"
       opacity="1"
       fill="none"
       stroke="#999999"
       stroke-width="1.779"
       stroke-opacity="1"
       stroke-linecap="round"
       stroke-linejoin="round"
       d="m -2151.808,2767.923 q 0.013,-0.128 -0.237,0.707 -0.084,0.102 0.545,-0.062 0.628,-0.164 1.123,-0.62 0.494,-0.456 0.785,-0.853 0.291,-0.397 0.352,-0.726 0.061,-0.329 0.059,-0.423 0,-0.094 -0.369,-0.147 -0.366,-0.053 -0.801,0.225 -0.434,0.277 -0.837,0.765 -0.404,0.488 -0.521,0.638" />
    <path
       id="STROKE_5b7f4e59-7223-4b01-9907-8cef9f4fb68e"
       opacity="1"
       fill="none"
       stroke="#999999"
       stroke-width="1.615"
       stroke-opacity="1"
       stroke-linecap="round"
       stroke-linejoin="round"
       d="m -2140.729,2762.216 q 0,0.036 0,-0.445 -0.022,0.033 10e-4,0.811 0.024,0.778 0.011,2.468 -0.013,1.69 -0.119,2.738 -0.105,1.048 -0.368,3.024 -0.263,1.976 -0.675,3.33 -0.411,1.353 -0.461,1.394" />
    <path
       id="STROKE_3568aa14-0886-4e49-b169-e073a899b460"
       opacity="1"
       fill="none"
       stroke="#999999"
       stroke-width="1.779"
       stroke-opacity="1"
       stroke-linecap="round"
       stroke-linejoin="round"
       d="m -2140.964,2762.599 q -0.033,-0.069 0.097,-0.577 0.13,-0.508 0.432,-0.988 0.302,-0.479 0.986,-0.636 0.685,-0.157 1.149,-0.176 0.464,-0.019 0.905,0.212 0.442,0.23 0.882,0.641 0.44,0.412 0.729,1.253 0.288,0.84 0.333,1.434 0.045,0.593 -0.109,1.062 -0.153,0.469 -0.764,1.09 -0.611,0.621 -1.336,0.948 -0.725,0.326 -1.169,0.346 -0.444,0.02 -0.577,0" />
    <path
       id="STROKE_4654f3ea-7ef1-4871-9fc8-64b4ce596bb2"
       opacity="1"
       fill="none"
       stroke="#999999"
       stroke-width="1.727"
       stroke-opacity="1"
       stroke-linecap="round"
       stroke-linejoin="round"
       d="m -2131.36,2753.146 q 0.081,0.092 -0.25,-0.153 -0.105,-0.132 0.102,1.362 0.208,1.494 0.227,3.301 0.02,1.808 -0.084,3.101 -0.104,1.294 -0.282,2.509 -0.177,1.215 -0.372,1.964 -0.195,0.749 -0.372,1.132 -0.178,0.384 -0.406,0.513 -0.228,0.128 -0.304,0.169" />
    <path
       id="STROKE_b6818a09-5507-4fb5-986a-da001e75f214"
       opacity="1"
       fill="none"
       stroke="#999999"
       stroke-width="1.779"
       stroke-opacity="1"
       stroke-linecap="round"
       stroke-linejoin="round"
       d="m -2135.93,2757.157 q 0,-0.553 1.392,-0.688 1.39,-0.136 2.474,-0.075 1.083,0.061 1.729,0.367 0.645,0.307 0.877,0.463" />
    <path
       id="STROKE_1385cb5a-873e-4e83-ad87-c82ce5f53f8a"
       opacity="1"
       fill="none"
       stroke="#999999"
       stroke-width="1.779"
       stroke-opacity="1"
       stroke-linecap="round"
       stroke-linejoin="round"
       d="m -2128.02,2762.767 q -0.237,0.062 -0.154,0.064 -0.191,-0.085 0.121,0.965 0.312,1.05 0.386,1.715 0.074,0.665 0.124,0.978 0.049,0.314 -0.012,0.522 -0.06,0.208 -0.242,0.226 -0.182,0.018 -0.313,-0.016 -0.132,-0.034 -0.241,-0.713 -0.108,-0.679 -0.122,-1.21 -0.014,-0.531 0.133,-1.025 0.146,-0.493 0.276,-0.738 0.13,-0.244 0.526,-0.743 0.395,-0.5 1.195,-0.703 0.801,-0.203 0.991,-0.252" />
    <path
       id="STROKE_5a19b8dc-551f-4f84-9203-4665ae4fc15d"
       opacity="1"
       fill="none"
       stroke="#999999"
       stroke-width="1.669"
       stroke-opacity="1"
       stroke-linecap="round"
       stroke-linejoin="round"
       d="m -2120.454,2757.888 q -0.071,-0.014 0.148,0.071 0.22,0.086 0.456,-0.019 0.237,-0.104 0.429,-0.246 0.191,-0.143 0.478,-0.481 0.286,-0.338 0.441,-0.572 0.155,-0.235 0.252,-0.436 0.098,-0.201 0.203,-0.386 0.105,-0.184 0.321,-0.852 0.216,-0.668 0.352,-1.806 0,-0.125 -0.103,2.359 -0.108,2.485 -0.559,5.001 -0.451,2.516 -0.939,4.351 -0.488,1.834 -1.133,3.505 -0.646,1.671 -0.695,1.738" />
    <path
       id="STROKE_daec92d4-f966-42fb-9e11-c0b1924022ab"
       opacity="1"
       fill="none"
       stroke="#999999"
       stroke-width="1.42"
       stroke-opacity="1"
       stroke-linecap="round"
       stroke-linejoin="round"
       d="m -2093.45,2750.449 q 0.204,0.605 -0.113,5.289 -0.317,4.684 -0.548,7.527 -0.23,2.842 -0.243,4.346 -0.013,1.504 0.021,2.086 0.033,0.581 0.064,0.695" />
    <path
       id="STROKE_231697c4-ef26-4a15-89c8-f087c5758a7d"
       opacity="1"
       fill="none"
       stroke="#999999"
       stroke-width="1.779"
       stroke-opacity="1"
       stroke-linecap="round"
       stroke-linejoin="round"
       d="m -2093.281,2749.995 q 0.263,-0.033 4.25,-0.474 3.988,-0.441 9.627,-0.59 5.64,-0.15 8.352,-0.249 2.712,-0.099 3.969,-0.075 1.258,0.025 2.662,0.167 1.404,0.143 2.795,0.168 1.391,0.024 2.385,-0.019 0.994,-0.043 1.563,-0.026 0.568,0.017 0.699,0.057 0.13,0.041 0.125,0.019 0,-0.022 -0.01,-0.012 -0.01,0.01 0.219,0.164 0.224,0.153 0.223,0.201 0,0.048 -0.029,0 -0.027,-0.05 0.095,0.236 0.121,0.286 0.263,4.117 0.143,3.831 0.16,6.467 0.018,2.635 -0.255,4.258 -0.273,1.623 -0.378,3.255 -0.104,1.632 -0.143,2.432 -0.04,0.8 -0.229,1.352 -0.188,0.553 -0.275,0.517 -0.088,-0.035 -0.065,-0.029 0.023,0.01 0.016,-0.01 -0.272,0.11 -0.267,0.1 0.223,0.191 -3.136,0.065 -3.359,-0.125 -5.915,-0.176 -2.556,-0.051 -4.388,0 -1.832,0.048 -3.184,-0.074 -1.351,-0.121 -4.078,-0.297 -2.726,-0.176 -4.362,-0.319 -1.636,-0.143 -3.642,-0.144 -2.006,0 -3.292,0.01 -1.286,0.01 -1.732,-0.041 -0.447,-0.05 -0.713,-0.098 -0.267,-0.047 -0.52,-0.085 -0.253,-0.037 -0.352,-0.062 -0.099,-0.025 -0.27,-0.103 -0.17,-0.078 -0.334,-0.152 -0.163,-0.074 -0.332,-0.159 -0.17,-0.085 -0.183,-0.09 -0.014,-0.01 -0.112,-0.079 -0.098,-0.072 -0.196,-0.158" />
    <path
       id="STROKE_e3843de0-d239-4908-82ec-a3d0148ac65d"
       opacity="1"
       fill="none"
       stroke="#999999"
       stroke-width="1.321"
       stroke-opacity="1"
       stroke-linecap="round"
       stroke-linejoin="round"
       d="m -2152.572,2804.869 q 0.012,0.067 0.037,-0.48 -0.01,0 -1.464,2.97 -1.456,2.974 -3.244,5.844 -1.788,2.869 -2.888,4.676 -1.1,1.808 -1.455,2.557 -0.355,0.748 -0.423,0.84" />
    <path
       id="STROKE_ed13be9a-b42f-4596-9585-becde84ace59"
       opacity="1"
       fill="none"
       stroke="#999999"
       stroke-width="1.779"
       stroke-opacity="1"
       stroke-linecap="round"
       stroke-linejoin="round"
       d="m -2159.789,2807.389 q -0.085,-0.01 -0.424,-0.01 -0.339,-10e-4 -0.573,0.098 -0.234,0.098 -0.326,0.39 -0.092,0.292 -0.112,0.502 -0.02,0.211 -0.011,0.294 0.01,0.083 0.028,0.106 0.02,0.022 0.066,0.065 0.046,0.043 0.481,0.119 0.434,0.077 1.01,-0.369 0.575,-0.445 0.854,-0.806 0.279,-0.361 0.217,-0.62 -0.061,-0.259 -0.152,-0.318" />
    <path
       id="STROKE_f51e99a0-59df-4de3-b29b-5207a6cfd9bf"
       opacity="1"
       fill="none"
       stroke="#999999"
       stroke-width="1.779"
       stroke-opacity="1"
       stroke-linecap="round"
       stroke-linejoin="round"
       d="m -2154.062,2819.897 q 0.012,-0.129 -0.237,0.707 -0.084,0.102 0.545,-0.062 0.628,-0.164 1.122,-0.62 0.494,-0.457 0.785,-0.854 0.292,-0.397 0.353,-0.726 0.061,-0.329 0.058,-0.423 0,-0.093 -0.368,-0.146 -0.366,-0.053 -0.801,0.224 -0.435,0.278 -0.838,0.766 -0.403,0.487 -0.52,0.638" />
    <path
       id="STROKE_bf488923-7e16-4ec9-96d2-b325032c1cfe"
       opacity="1"
       fill="none"
       stroke="#999999"
       stroke-width="1.615"
       stroke-opacity="1"
       stroke-linecap="round"
       stroke-linejoin="round"
       d="m -2142.984,2814.19 q 0,0.036 0,-0.446 -0.022,0.034 0,0.812 0.023,0.778 0.01,2.468 -0.013,1.69 -0.118,2.738 -0.106,1.048 -0.368,3.024 -0.264,1.975 -0.675,3.329 -0.411,1.354 -0.461,1.395" />
    <path
       id="STROKE_7124e7f4-bfca-4908-a4b6-fb6016f2694d"
       opacity="1"
       fill="none"
       stroke="#999999"
       stroke-width="1.779"
       stroke-opacity="1"
       stroke-linecap="round"
       stroke-linejoin="round"
       d="m -2143.219,2814.573 q -0.032,-0.069 0.097,-0.577 0.13,-0.508 0.432,-0.988 0.302,-0.48 0.987,-0.637 0.684,-0.157 1.148,-0.175 0.464,-0.019 0.906,0.211 0.441,0.231 0.882,0.642 0.44,0.411 0.728,1.252 0.289,0.841 0.333,1.435 0.045,0.593 -0.108,1.062 -0.154,0.468 -0.764,1.089 -0.611,0.621 -1.336,0.948 -0.725,0.327 -1.169,0.347 -0.444,0.019 -0.577,0" />
    <path
       id="STROKE_599589ed-013b-4d06-aecc-17bef8fce0f8"
       opacity="1"
       fill="none"
       stroke="#999999"
       stroke-width="1.727"
       stroke-opacity="1"
       stroke-linecap="round"
       stroke-linejoin="round"
       d="m -2133.615,2805.119 q 0.082,0.092 -0.25,-0.152 -0.104,-0.133 0.103,1.361 0.208,1.494 0.227,3.302 0.02,1.808 -0.085,3.101 -0.104,1.293 -0.281,2.509 -0.178,1.215 -0.372,1.964 -0.195,0.748 -0.373,1.132 -0.177,0.384 -0.405,0.512 -0.229,0.129 -0.304,0.17" />
    <path
       id="STROKE_6eb96860-0022-4c22-8676-439f23176f66"
       opacity="1"
       fill="none"
       stroke="#999999"
       stroke-width="1.779"
       stroke-opacity="1"
       stroke-linecap="round"
       stroke-linejoin="round"
       d="m -2138.185,2809.131 q 0,-0.553 1.393,-0.689 1.39,-0.135 2.473,-0.074 1.084,0.06 1.729,0.367 0.645,0.306 0.877,0.463" />
    <path
       id="STROKE_e5757685-5b68-4484-8018-17e27088908a"
       opacity="1"
       fill="none"
       stroke="#999999"
       stroke-width="1.779"
       stroke-opacity="1"
       stroke-linecap="round"
       stroke-linejoin="round"
       d="m -2130.275,2814.74 q -0.236,0.063 -0.153,0.065 -0.191,-0.085 0.121,0.965 0.311,1.05 0.386,1.715 0.074,0.664 0.123,0.978 0.049,0.313 -0.011,0.522 -0.061,0.208 -0.242,0.226 -0.182,0.018 -0.314,-0.017 -0.131,-0.034 -0.24,-0.713 -0.109,-0.678 -0.122,-1.21 -0.014,-0.531 0.132,-1.024 0.146,-0.494 0.277,-0.738 0.13,-0.244 0.526,-0.744 0.395,-0.499 1.195,-0.703 0.8,-0.202 0.99,-0.251" />
    <path
       id="STROKE_b0c0b134-3b04-4eeb-a30b-9f3d50feb177"
       opacity="1"
       fill="none"
       stroke="#999999"
       stroke-width="1.42"
       stroke-opacity="1"
       stroke-linecap="round"
       stroke-linejoin="round"
       d="m -2095.705,2802.422 q 0.205,0.606 -0.112,5.29 -0.318,4.684 -0.548,7.527 -0.23,2.842 -0.243,4.346 -0.013,1.504 0.02,2.085 0.033,0.582 0.065,0.695" />
    <path
       id="STROKE_e0b0e359-a65f-4e6c-900c-46f7c4822099"
       opacity="1"
       fill="none"
       stroke="#999999"
       stroke-width="1.779"
       stroke-opacity="1"
       stroke-linecap="round"
       stroke-linejoin="round"
       d="m -2095.536,2801.969 q 0.264,-0.033 4.251,-0.474 3.987,-0.441 9.627,-0.591 5.639,-0.149 8.351,-0.248 2.713,-0.1 3.97,-0.075 1.258,0.025 2.661,0.167 1.404,0.143 2.795,0.167 1.391,0.025 2.385,-0.018 0.994,-0.043 1.563,-0.026 0.569,0.016 0.699,0.057 0.13,0.041 0.126,0.019 0,-0.022 -0.01,-0.012 -0.01,0.01 0.219,0.164 0.225,0.153 0.224,0.201 -10e-4,0.048 -0.029,0 -0.028,-0.049 0.094,0.237 0.122,0.286 0.264,4.117 0.142,3.831 0.16,6.466 0.017,2.636 -0.256,4.259 -0.273,1.623 -0.377,3.255 -0.105,1.632 -0.144,2.431 -0.039,0.8 -0.228,1.353 -0.189,0.552 -0.276,0.517 -0.087,-0.035 -0.064,-0.029 0.023,0.01 0.016,-0.011 -0.273,0.111 -0.267,0.1 0.223,0.191 -3.136,0.066 -3.36,-0.125 -5.915,-0.176 -2.556,-0.051 -4.388,0 -1.832,0.048 -3.184,-0.073 -1.352,-0.122 -4.078,-0.298 -2.726,-0.176 -4.362,-0.319 -1.637,-0.143 -3.643,-0.144 -2.006,0 -3.291,0.01 -1.286,0.01 -1.733,-0.042 -0.446,-0.05 -0.713,-0.097 -0.266,-0.048 -0.52,-0.085 -0.253,-0.037 -0.352,-0.062 -0.099,-0.026 -0.269,-0.103 -0.171,-0.078 -0.334,-0.152 -0.163,-0.074 -0.333,-0.159 -0.17,-0.085 -0.183,-0.091 -0.013,-0.01 -0.111,-0.078 -0.099,-0.072 -0.196,-0.159" />
    <path
       id="STROKE_ff50f6a6-3020-4602-adf3-fbccac0e3b49"
       opacity="1"
       fill="none"
       stroke="#999999"
       stroke-width="1.779"
       stroke-opacity="1"
       stroke-linecap="round"
       stroke-linejoin="round"
       d="m -2123.82,2809.609 q -0.227,-0.022 -0.271,-0.255 -0.044,-0.234 0.125,-0.598 0.169,-0.364 0.368,-0.55 0.199,-0.186 0.317,-0.306 0.118,-0.119 0.615,-0.512 0.497,-0.394 1.248,-0.61 0.751,-0.216 1.217,-0.235 0.466,-0.019 0.782,0.077 0.316,0.097 0.522,0.264 0.206,0.168 0.324,0.584 0.117,0.417 0.2,1.189 0.083,0.773 -0.287,2.057 -0.37,1.285 -0.955,2.549 -0.585,1.263 -1.192,2.38 -0.607,1.116 -1.136,1.982 -0.53,0.866 -0.76,1.252 -0.229,0.386 -0.295,0.56 -0.065,0.173 -0.082,0.337 -0.016,0.164 0.046,0.236 0.063,0.071 0.348,0.162 0.285,0.09 0.566,0.12 0.282,0.031 1.074,0.032 0.793,10e-4 1.326,-0.01 0.533,-0.01 1.422,-0.092 0.888,-0.084 3.76,-0.997 -0.029,0 -0.101,-0.01 -0.071,-0.01 -0.144,-0.021" />
  </g>
  <metadata
     id="metadata1524">
    <rdf:RDF>
      <cc:Work
         rdf:about="">
        <dc:title>LLVM IR</dc:title>
      </cc:Work>
    </rdf:RDF>
  </metadata>
</svg>
