<?xml version="1.0" encoding="UTF-8" standalone="no"?>
<svg
   width="83.30542mm"
   height="50.405769mm"
   version="1.1"
   viewBox="-3129.994 763.8 432.92368 261.95017"
   id="svg72"
   sodipodi:docname="registers.svg"
   inkscape:version="1.1.2 (0a00cf5339, 2022-02-04, custom)"
   xmlns:inkscape="http://www.inkscape.org/namespaces/inkscape"
   xmlns:sodipodi="http://sodipodi.sourceforge.net/DTD/sodipodi-0.dtd"
   xmlns="http://www.w3.org/2000/svg"
   xmlns:svg="http://www.w3.org/2000/svg"
   xmlns:rdf="http://www.w3.org/1999/02/22-rdf-syntax-ns#"
   xmlns:cc="http://creativecommons.org/ns#"
   xmlns:dc="http://purl.org/dc/elements/1.1/">
  <sodipodi:namedview
     id="namedview74"
     pagecolor="#ffffff"
     bordercolor="#666666"
     borderopacity="1.0"
     inkscape:pageshadow="2"
     inkscape:pageopacity="0.0"
     inkscape:pagecheckerboard="0"
     inkscape:document-units="mm"
     showgrid="false"
     fit-margin-top="5"
     fit-margin-bottom="5"
     fit-margin-left="2"
     fit-margin-right="2"
     inkscape:zoom="4.5151169"
     inkscape:cx="157.58175"
     inkscape:cy="130.78288"
     inkscape:current-layer="svg72" />
  <!--
	Exported with Concepts: Smarter Sketching
	Version: 1055 on iOS 15.3
	https://concepts.app/
	-->
  <title
     id="title2">LLVM IR</title>
  <desc
     id="desc4">Drawing exported from Concepts: Smarter Sketching</desc>
  <defs
     id="defs6" />
  <g
     id="Pen"
     opacity="1"
     transform="translate(5.8586544,21.497825)">
    <path
       id="STROKE_7b49a706-da97-4ef4-ab2c-10af3c7f4280"
       opacity="1"
       fill="none"
       stroke="#71c047"
       stroke-width="1.54"
       stroke-opacity="1"
       stroke-linecap="round"
       stroke-linejoin="round"
       d="m -3018.726,789.033 q 0,0 -0.117,-0.056 -0.116,-0.057 -0.078,-0.032 -0.41,0.032 -0.302,0.088 -0.066,0.027 -0.686,1.594 -0.621,1.567 -0.95,3.609 -0.33,2.043 -0.384,3.54 -0.053,1.498 0.025,2.212 0.077,0.715 0.151,1.06 0.074,0.346 0.317,1.294 0.243,0.948 1.248,1.776 1.004,0.828 1.134,0.895" />
    <path
       id="STROKE_aeddfc45-c862-4614-96a4-e923e742c635"
       opacity="1"
       fill="none"
       stroke="#71c047"
       stroke-width="1.779"
       stroke-opacity="1"
       stroke-linecap="round"
       stroke-linejoin="round"
       d="m -3018.701,783.705 q -0.309,0.077 -0.512,0.131 -0.202,0.055 -0.226,0.802 0.029,0.023 0.701,0.083 0.671,0.06 1.272,-1.213 -0.07,-0.05 -0.213,-0.034 -0.142,0.016 -0.263,0.037" />
    <path
       id="STROKE_18870610-522c-4fca-a470-766c991b8f36"
       opacity="1"
       fill="none"
       stroke="#71c047"
       stroke-width="1.779"
       stroke-opacity="1"
       stroke-linecap="round"
       stroke-linejoin="round"
       d="m -3004.795,784.765 q 0.032,0.029 -0.302,-0.138 -0.333,-0.168 -0.38,-0.359 -0.047,-0.191 -0.01,-0.344 0.037,-0.153 0.339,-0.4 0.302,-0.246 0.639,-0.49 0.337,-0.245 1.329,-0.817 0.992,-0.572 2.088,-1.023 1.096,-0.451 2.16,-0.597 1.063,-0.147 1.766,-0.096 0.703,0.051 1.332,0.407 0.629,0.356 1.067,1.125 0.437,0.769 0.291,1.593 -0.146,0.824 -0.565,1.427 -0.418,0.604 -1.318,1.463 -0.9,0.86 -1.787,1.37 -0.886,0.51 -1.263,0.633 -0.377,0.124 -0.779,0.151 -0.402,0.027 -0.911,-0.109 -0.01,-0.039 0.021,-0.148 0.536,-0.047 0.448,-0.028 0.405,-0.022 1.518,0.076 1.113,0.097 2.367,0.669 1.255,0.572 2.299,1.417 1.044,0.844 1.787,1.815 0.743,0.97 1.122,2.03 0.379,1.061 0.525,2.079 0.146,1.018 -0.296,1.85 -0.442,0.832 -0.89,1.305 -0.448,0.473 -1.191,0.969 -0.742,0.497 -1.658,0.882 -0.917,0.385 -2.479,0.675 -1.562,0.29 -2.78,0.199 -1.218,-0.091 -1.889,-0.216 -0.672,-0.124 -1.239,-0.322 -0.567,-0.199 -0.784,-0.426 -0.216,-0.228 -0.305,-0.346" />
    <path
       id="STROKE_01977d52-b4bc-45d5-846a-e2ba83bc1206"
       opacity="1"
       fill="none"
       stroke="#71c047"
       stroke-width="1.778"
       stroke-opacity="1"
       stroke-linecap="round"
       stroke-linejoin="round"
       d="m -2984.491,784.196 q -0.023,0.2 -0.108,-0.142 -0.085,-0.342 -0.109,-0.591 -0.024,-0.25 0.083,-0.377 0.106,-0.128 0.213,-0.217 0.106,-0.089 0.197,-0.153 0.091,-0.064 0.52,-0.378 0.429,-0.314 1.438,-0.787 1.009,-0.472 1.905,-0.737 0.896,-0.265 1.621,-0.285 0.725,-0.021 1.138,0.031 0.413,0.052 0.629,0.173 0.216,0.121 0.624,0.434 0.407,0.313 0.609,1.088 0.203,0.776 0.175,1.396 -0.028,0.62 -0.034,1.091 -0.01,0.471 -0.582,1.853 -0.576,1.382 -1.31,2.557 -0.733,1.174 -1.17,1.842 -0.436,0.668 -1.921,2.776 -1.485,2.108 -2.33,3.266 -0.846,1.159 -1.216,1.792 -0.37,0.634 -0.513,1.013 -0.144,0.38 -0.176,0.923 -0.032,0.543 0.368,1.03 0.399,0.486 1.513,0.695 1.115,0.209 3.314,-0.025 2.199,-0.234 3.353,-0.384 1.155,-0.149 2.409,-0.208 1.255,-0.059 2.346,0.294 -0.022,0 -0.043,0" />
    <path
       id="STROKE_88aad01c-6d9b-48cd-b242-1f71d1b063c8"
       opacity="1"
       fill="none"
       stroke="#000000"
       stroke-width="1.557"
       stroke-opacity="1"
       stroke-linecap="round"
       stroke-linejoin="round"
       d="m -2940.926,789.366 q 0,0.241 0,0.167 0.45,0.15 0.318,0.088 0.125,0.113 0.99,-0.41 0.866,-0.524 1.622,-1.646 0.756,-1.122 1.362,-3.182 0.606,-2.06 0.735,-5.358 -0.183,0.052 0.143,3.153 0.327,3.101 0.546,5.588 0.22,2.487 0.257,5.713 0.037,3.225 0.031,5.715 -0.01,2.49 -0.076,6.291 0.027,-0.055 0.205,-0.813 0.178,-0.759 0.228,-0.992" />
    <path
       id="STROKE_8f1bebfe-048e-4b31-ba9f-50602cb18e9c"
       opacity="1"
       fill="none"
       stroke="#000000"
       stroke-width="1.728"
       stroke-opacity="1"
       stroke-linecap="round"
       stroke-linejoin="round"
       d="m -2919.325,787.381 q 0.143,0.015 -0.417,-0.068 -0.56,-0.082 -0.787,-0.109 -0.228,-0.026 -0.786,0.425 -0.56,0.45 -1.02,1.179 -0.461,0.729 -0.897,2.061 -0.436,1.332 -0.579,2.844 -0.142,1.511 -0.068,2.652 0.074,1.14 0.477,2.149 0.403,1.009 0.944,1.657 0.541,0.647 1.135,1.125 0.593,0.477 1.337,0.841 0.744,0.364 1.531,0.436 0.787,0.072 1.474,0.046 0.686,-0.026 1.733,-0.792 1.046,-0.766 1.922,-1.953 0.875,-1.187 1.49,-2.344 0.616,-1.156 0.931,-2.642 0.316,-1.486 0.322,-2.441 0.01,-0.956 -0.137,-1.68 -0.142,-0.725 -0.592,-1.49 -0.45,-0.765 -1.274,-1.362 -0.823,-0.597 -2.149,-0.83 -1.325,-0.233 -2.529,-0.224 -1.205,0.009 -2.623,0.446 -1.419,0.436 -2.4,1.125 -0.981,0.689 -1.509,1.092" />
    <path
       id="STROKE_c1000aaf-941b-4be3-bbae-9d212bf6f17a"
       opacity="1"
       fill="none"
       stroke="#71c047"
       stroke-width="1.753"
       stroke-opacity="1"
       stroke-linecap="round"
       stroke-linejoin="round"
       d="m -3015.012,869.107 q -0.326,0.175 -0.713,0.612 -0.387,0.437 -0.563,0.792 -0.177,0.355 -0.322,0.736 -0.146,0.381 -0.429,1.521 -0.283,1.14 -0.337,2.875 -0.055,1.736 -0.032,2.631 0.024,0.894 0.24,1.893 0.217,0.999 0.574,1.719 0.358,0.721 0.781,1.073 0.423,0.352 0.811,0.483 0.388,0.131 0.675,0.191" />
    <path
       id="STROKE_8e24eb0c-3b64-4cb4-bdd7-934e5c016c92"
       opacity="1"
       fill="none"
       stroke="#71c047"
       stroke-width="1.816"
       stroke-opacity="1"
       stroke-linecap="round"
       stroke-linejoin="round"
       d="m -3014.5,861.187 q -0.244,0.097 -0.496,0.258 -0.251,0.16 -0.42,0.479 -0.168,0.318 -0.169,0.575 0,0.258 0.026,0.35 0.028,0.092 0.209,0.217 0.18,0.124 0.556,0.081 0.376,-0.042 0.696,-0.434 0.32,-0.393 0.377,-0.773 0.057,-0.381 -0.01,-0.588 -0.062,-0.206 -0.405,-0.347 -0.343,-0.14 -0.629,-0.022 -0.286,0.118 -0.586,0.319" />
    <path
       id="STROKE_8e6d58d3-83af-4093-b619-925bc6864f0b"
       opacity="1"
       fill="none"
       stroke="#71c047"
       stroke-width="1.816"
       stroke-opacity="1"
       stroke-linecap="round"
       stroke-linejoin="round"
       d="m -3002.496,863.936 q -0.077,-0.088 -0.213,-0.284 -0.136,-0.196 -0.18,-0.373 -0.045,-0.178 0.054,-0.508 0.099,-0.33 0.291,-0.485 0.191,-0.154 0.494,-0.334 0.303,-0.18 0.67,-0.324 0.367,-0.144 1.228,-0.325 0.86,-0.182 2.098,-0.211 1.238,-0.029 2.428,0.161 1.189,0.189 2.072,0.548 0.883,0.358 1.566,0.825 0.683,0.466 1.124,1.343 0.44,0.877 0.351,1.531 -0.089,0.653 -0.563,1.262 -0.475,0.608 -1.041,1.024 -0.566,0.415 -2.473,1.172 -1.908,0.756 -3.171,1.3 -1.263,0.543 -2.316,1.184 -1.052,0.641 -2.041,1.487 -0.989,0.847 -1.538,1.592 -0.548,0.746 -0.874,1.573 -0.326,0.827 -0.36,1.647 -0.035,0.82 0.144,1.419 0.178,0.6 0.887,1.408 0.708,0.807 1.609,1.373 0.901,0.566 1.991,0.824 1.09,0.258 2.258,0.295 1.168,0.037 2.413,-0.268 1.245,-0.306 2.227,-0.756 0.983,-0.45 1.675,-0.866 0.692,-0.417 1.357,-1.058 0.666,-0.641 0.938,-1.2 0.273,-0.559 0.332,-0.853 0.059,-0.294 0.068,-0.584 0.01,-0.29 -0.03,-0.514 -0.037,-0.224 -0.175,-0.528 -0.139,-0.304 -0.328,-0.564 -0.19,-0.261 -0.469,-0.541 -0.279,-0.28 -0.903,-0.642 -0.625,-0.362 -2.387,-0.898 -1.761,-0.537 -2.736,-0.881 -0.975,-0.343 -2.66,-1.173 -1.686,-0.83 -2.748,-1.392 -1.062,-0.562 -1.953,-1.472 -0.891,-0.911 -1.346,-1.506 -0.455,-0.596 -0.639,-0.987 -0.184,-0.39 -0.179,-0.923 0,-0.533 1.422,-1.462 1.418,-0.929 2.444,-1.293 1.027,-0.365 1.498,-0.531" />
    <path
       id="STROKE_1aba6379-9ce4-4755-848c-16628bc06f33"
       opacity="1"
       fill="none"
       stroke="#000000"
       stroke-width="1.779"
       stroke-opacity="1"
       stroke-linecap="round"
       stroke-linejoin="round"
       d="m -2947.864,862.247 q -0.088,0.145 0.234,-0.472 0.041,-0.051 -0.088,0.076 -0.128,0.128 -1.23,1.427 -1.102,1.299 -2.173,2.712 -1.072,1.414 -1.592,2.195 -0.521,0.781 -0.758,1.381 -0.237,0.6 -0.266,0.927 -0.028,0.326 0.147,0.501 0.176,0.174 0.946,0.281 0.771,0.107 3.283,-0.425 2.512,-0.532 6.517,-1.151 -0.019,0 -0.066,0.025 -0.048,0.024 -0.125,0.073" />
    <path
       id="STROKE_df671bf8-bd37-4db3-8dea-3bbccae87861"
       opacity="1"
       fill="none"
       stroke="#000000"
       stroke-width="1.55"
       stroke-opacity="1"
       stroke-linecap="round"
       stroke-linejoin="round"
       d="m -2947.432,867.339 q 0,0 -0.083,0.215 -0.083,0.215 -0.016,0.187 -0.099,0.093 0.29,2.858 0.388,2.766 0.515,5.123 0.127,2.356 0.083,3.98 -0.045,1.623 -0.104,1.811" />
    <path
       id="STROKE_3698c1e4-c8de-4d49-b540-c6a201d21303"
       opacity="1"
       fill="none"
       stroke="#000000"
       stroke-width="1.779"
       stroke-opacity="1"
       stroke-linecap="round"
       stroke-linejoin="round"
       d="m -2936.978,867.121 q -0.066,-0.036 -0.111,-0.078 -0.045,-0.042 -0.135,-0.124 -0.089,-0.082 -0.151,-0.149 -0.063,-0.067 -0.051,-0.057 0.011,0.01 0,-0.018 -0.014,-0.028 0.01,-0.005 0.022,0.023 -0.091,-0.088 -0.113,-0.112 0.064,-0.505 0.178,-0.393 1.097,-0.893 0.92,-0.499 1.769,-0.749 0.849,-0.251 1.548,-0.306 0.7,-0.055 1.18,0.095 0.48,0.15 0.779,0.465 0.3,0.316 0.454,1.097 0.155,0.781 -0.078,2.079 -0.233,1.298 -0.989,2.864 -0.756,1.566 -1.37,2.627 -0.613,1.061 -1.572,2.179 -0.958,1.118 -1.954,2.083 -0.996,0.966 -1.539,1.995 -0,0.275 3.059,-0.055 3.059,-0.33 5.027,-0.49 1.969,-0.16 3.397,-0.172 0,-0.009 0,-0.019" />
    <path
       id="STROKE_e9197bb4-7417-43ef-84d4-ec65c1621686"
       opacity="1"
       fill="none"
       stroke="#71c047"
       stroke-width="1.816"
       stroke-opacity="1"
       stroke-linecap="round"
       stroke-linejoin="round"
       d="m -3013.23,942.334 q -0.139,-0.008 -1.749,-0.113 -1.61,-0.106 -2.523,-0.089 -0.913,0.016 -1.217,0.054 -0.304,0.037 -0.477,0.112 -0.174,0.075 -0.45,0.3 -0.275,0.225 -0.151,3.216 0.125,2.991 0.301,4.987 0.176,1.995 0.217,2.813 0.042,0.818 0.044,2.515 0,1.697 0.192,3.247 l 0.372,0.184 q 0.261,0.082 0.375,0.109 0.113,0.028 0.153,0.056 0.041,0.028 2.259,-0.264 2.219,-0.291 4.558,-0.643 -0.078,0.009 -0.12,0.028" />
    <path
       id="STROKE_e6a1a33d-2aa0-4d19-aff2-ee9827640b9a"
       opacity="1"
       fill="none"
       stroke="#71c047"
       stroke-width="1.816"
       stroke-opacity="1"
       stroke-linecap="round"
       stroke-linejoin="round"
       d="m -3006.734,946.774 -0.011,-0.206 q 0.015,-0.101 0.01,-0.27 -0.01,-0.168 0.739,-0.766 0.745,-0.598 1.487,-0.824 0.741,-0.226 1.277,-0.265 0.535,-0.039 1.074,0.057 0.539,0.095 0.93,0.655 0.392,0.559 0.49,1.386 0.097,0.827 -0.09,1.535 -0.186,0.707 -0.734,1.395 -0.549,0.688 -1.194,1.122 -0.646,0.433 -1.59,0.368 -0.029,10e-4 0.02,-0.248 0.05,-0.02 0.435,-0.099 0.385,-0.079 1.144,0.271 0.759,0.351 1.387,0.99 0.628,0.64 0.992,1.295 0.364,0.655 0.454,1.159 0.091,0.505 0.046,0.908 -0.044,0.404 -0.655,0.927 -0.612,0.524 -1.658,0.818 -1.046,0.293 -1.777,0.304 -0.732,0.01 -1.465,-0.229 -0.734,-0.239 -0.989,-0.516 -0.254,-0.277 -0.401,-0.486" />
    <path
       id="STROKE_0ffb8a16-fa68-4cfd-bf70-3f285619392a"
       opacity="1"
       fill="none"
       stroke="#71c047"
       stroke-width="1.816"
       stroke-opacity="1"
       stroke-linecap="round"
       stroke-linejoin="round"
       d="m -2990.691,951.435 0.075,-0.084 q 0.02,-0.045 0.335,-0.089 0.316,-0.045 1.451,0.769 1.136,0.815 2.199,2.078 1.063,1.262 1.693,2.801 v 0.168" />
    <path
       id="STROKE_8f3c8547-98ab-477e-a463-43e578341415"
       opacity="1"
       fill="none"
       stroke="#71c047"
       stroke-width="1.727"
       stroke-opacity="1"
       stroke-linecap="round"
       stroke-linejoin="round"
       d="m -2985.51,950.315 -0.123,0.055 q -0.259,0.34 -0.254,0.4 0,0.061 -1.816,3.25 -1.82,3.188 -2.105,3.627" />
    <path
       id="STROKE_964ee860-267d-4d7a-9344-b16e984f4c7f"
       opacity="1"
       fill="none"
       stroke="#71c047"
       stroke-width="1.816"
       stroke-opacity="1"
       stroke-linecap="round"
       stroke-linejoin="round"
       d="m -2969.029,949.783 -0.113,-0.026 -0.119,-0.007 q -0.249,0.077 -0.431,1.215 -0.183,1.138 -0.12,2.191 0.063,1.054 0.505,2.132 0.441,1.079 0.865,1.539 0.424,0.461 0.568,0.584" />
    <path
       id="STROKE_13daafcc-d3b0-4cec-ac65-b6360f114bcb"
       opacity="1"
       fill="none"
       stroke="#71c047"
       stroke-width="1.816"
       stroke-opacity="1"
       stroke-linecap="round"
       stroke-linejoin="round"
       d="m -2969.838,944.829 q 0.017,-0.003 -0.01,-0.073 l 0.024,0.063 q 0.018,0.02 0.117,0.008 0.099,-0.012 0.096,-0.023 0,-0.012 0.021,-0.083 0.025,-0.072 -0.057,-0.294 0,-0.034 -0.118,-0.022 -0.121,0.012 -0.267,0.049" />
    <path
       id="STROKE_1304e8e8-70bd-444b-9945-249caa3e51d5"
       opacity="1"
       fill="none"
       stroke="#71c047"
       stroke-width="1.816"
       stroke-opacity="1"
       stroke-linecap="round"
       stroke-linejoin="round"
       d="m -2961.952,943.376 q 0.01,-0.038 0.197,-0.383 0.191,-0.344 0.881,-0.632 0.69,-0.288 1.432,-0.315 0.742,-0.027 1.449,0.183 0.707,0.211 1.221,0.684 0.514,0.474 0.676,1.227 0.162,0.754 -0.246,1.803 -0.408,1.049 -0.9,1.785 -0.491,0.736 -1.397,1.937 -0.905,1.2 -1.489,2.144 -0.585,0.943 -0.878,1.774 -0.293,0.831 -0.354,1.436 -0.061,0.606 0.089,1.047 0.149,0.441 0.664,0.965 0.515,0.524 1.133,0.789 0.619,0.266 1.117,0.261 0.497,-0.004 0.936,-0.213 0.439,-0.209 0.938,-0.831 0.499,-0.622 0.774,-1.142 0.275,-0.521 0.518,-1.19 0.242,-0.669 0.294,-1.342 0.052,-0.672 -0.624,-1.249 -0.677,-0.577 -2.02,-1.155 -1.344,-0.579 -2.063,-0.913 -0.719,-0.334 -1.071,-0.565 -0.352,-0.231 -0.772,-0.636 -0.419,-0.405 -0.837,-1.173 -0.419,-0.767 -0.612,-1.897 -0.193,-1.13 -0.158,-1.77 0.035,-0.64 0.13,-0.917 0.094,-0.277 0.653,-0.732 0.558,-0.455 1.052,-0.676 0.495,-0.221 0.798,-0.35" />
    <path
       id="STROKE_f6edb088-e262-4ffd-822e-c508ee5c9b84"
       opacity="1"
       fill="none"
       stroke="#71c047"
       stroke-width="1.816"
       stroke-opacity="1"
       stroke-linecap="round"
       stroke-linejoin="round"
       d="m -2949.299,940.997 q 0.17,-0.058 2.648,-0.476 2.477,-0.418 3.973,-0.544 1.495,-0.127 2.487,0.111 0.191,0.164 0.235,4.258 0.045,4.094 -0.051,6.448 -0.096,2.355 -0.088,4.249 0.01,1.894 0.01,2.966 0,1.072 -0.01,3.092 l 0.013,0.093 q -0.052,0.016 -1.676,0.326 -1.625,0.309 -2.608,0.445 -0.983,0.136 -2.153,0.198 -1.171,0.062 -1.642,-0.017 -0.471,-0.078 -0.702,-0.194" />
    <path
       id="STROKE_114fc513-6b0e-42a0-a232-1670db3e91da"
       opacity="1"
       fill="none"
       stroke="#000000"
       stroke-width="1.779"
       stroke-opacity="1"
       stroke-linecap="round"
       stroke-linejoin="round"
       d="m -2911.946,940.348 q 0,0 -0.045,-0.231 -0.045,-0.232 -0.027,-0.16 0.018,0.073 0.012,-10e-4 -0.01,-0.074 0.039,-0.079 0.045,-0.005 0.08,-0.876 -0.143,-0.118 -1.033,-0.305 -0.889,-0.187 -1.739,0.179 -0.849,0.366 -1.265,0.645 -0.416,0.28 -0.964,0.895 -0.547,0.615 -0.692,1.233 -0.145,0.618 -0.194,1.274 -0.049,0.656 0.793,1.858 0.842,1.203 1.315,1.889 0.473,0.686 0.71,1.24 0.238,0.554 0.242,0.922 0.01,0.368 -0.17,0.558 -0.176,0.191 -0.296,0.195 -0.121,0.005 -0.323,0.015 -0.203,0.011 -0.311,0 -0.109,-0.01 -0.314,0.036 -0.206,0.045 -0.567,-0.264 0.112,-0.13 0.428,0.05 0.316,0.179 0.558,0.472 0.242,0.292 0.4,0.527 0.158,0.235 0.329,0.487 0.172,0.251 0.355,0.966 0.184,0.714 0.279,1.448 0.095,0.735 -0.259,1.791 -0.354,1.056 -0.848,1.894 -0.494,0.839 -0.838,1.421 -0.344,0.582 -0.875,1.61 -0.531,1.029 -0.858,1.885 -0.328,0.855 -0.17,1.548 0.157,0.692 0.52,1.083 0.363,0.391 0.921,0.761 0.557,0.371 1.432,0.555 0.875,0.185 1.738,-0.299 0.862,-0.484 1.069,-0.65" />
    <path
       id="STROKE_b5bdde75-cd3b-425d-9a8f-035ff7671c15"
       opacity="1"
       fill="none"
       stroke="#000000"
       stroke-width="1.779"
       stroke-opacity="1"
       stroke-linecap="round"
       stroke-linejoin="round"
       d="m -2903.844,953.106 q -0.304,0.017 -0.293,0.028 -0.154,0.089 -0.434,0.156 -0.28,0.067 -0.403,1.418 -0.124,1.35 -0.102,2.313 0.022,0.963 0.181,1.679 0.16,0.715 0.392,1.139 0.232,0.424 0.671,0.789 0.439,0.366 0.689,0.25 0.25,-0.115 0.355,-0.203" />
    <path
       id="STROKE_68585890-2907-499b-bc4b-2bae0d0b8fad"
       opacity="1"
       fill="none"
       stroke="#000000"
       stroke-width="1.779"
       stroke-opacity="1"
       stroke-linecap="round"
       stroke-linejoin="round"
       d="m -2902.393,947.269 q -0.147,0.088 -0.676,0.205 -0.529,0.117 -0.812,0.804 -0.069,-0.027 0.228,0.049 0.297,0.076 0.517,-0.091 0.219,-0.167 0.296,-0.351 0.076,-0.184 0.13,-0.339 0.054,-0.154 -0.085,-0.28 -0.138,-0.127 -0.228,-0.178" />
    <path
       id="STROKE_65dca658-9c64-41b8-a33b-eaeb9e4babba"
       opacity="1"
       fill="none"
       stroke="#000000"
       stroke-width="1.779"
       stroke-opacity="1"
       stroke-linecap="round"
       stroke-linejoin="round"
       d="m -2895.705,946.07 q 0.066,-0.15 -0.077,-0.233 -0.143,-0.082 -0.156,-0.354 -0.012,-0.272 0.276,-0.468 0.289,-0.196 0.672,-0.353 0.383,-0.156 1.208,-0.296 0.824,-0.141 1.476,-0.073 0.652,0.069 1.137,0.34 0.485,0.271 0.759,0.808 0.273,0.537 0.392,1.087 0.119,0.551 -0.441,1.727 -0.561,1.176 -1.673,2.625 -1.111,1.448 -1.647,2.176 -0.535,0.728 -1.397,1.859 -0.863,1.132 -1.243,1.74 -0.381,0.609 -0.548,1.279 -0.166,0.669 -0.135,1.122 0.032,0.454 0.156,0.599 0.123,0.145 0.301,0.338 0.178,0.192 0.97,0.402 0.793,0.209 1.684,0.173 0.892,-0.036 1.51,-0.436 0.618,-0.4 0.915,-0.666 0.296,-0.265 0.5,-0.654 0.204,-0.39 0.286,-1.05 0.083,-0.66 -0.037,-1.396 -0.12,-0.736 -0.737,-1.313 -0.617,-0.577 -1.586,-1.08 -0.969,-0.504 -1.649,-0.964 -0.68,-0.461 -1.185,-1.077 -0.505,-0.616 -0.793,-1.723 -0.287,-1.107 -0.324,-1.993 -0.037,-0.887 0.066,-1.428 0.102,-0.541 0.363,-0.987 0.262,-0.446 1.497,-1.113 1.235,-0.666 1.479,-0.784" />
    <path
       id="STROKE_f0f19680-90fb-4c5b-80f5-2a5f8f7931f7"
       opacity="1"
       fill="none"
       stroke="#000000"
       stroke-width="1.779"
       stroke-opacity="1"
       stroke-linecap="round"
       stroke-linejoin="round"
       d="m -2869.426,945.297 q -0.098,0.075 -0.546,-0.047 -0.448,-0.122 -0.928,0.846 -0.48,0.967 -0.732,1.804 -0.252,0.837 -0.47,1.969 -0.217,1.131 -0.272,2.34 -0.055,1.208 -0.028,2.076 0.027,0.868 0.413,1.735 0.386,0.867 0.705,1.425 0.318,0.559 0.854,1.048 0.536,0.49 1.3,0.689 0.764,0.2 1.505,0.196 0.74,-0.004 1.578,-0.729 0.837,-0.726 1.533,-1.873 0.697,-1.146 0.991,-2.699 0.293,-1.553 0.283,-2.71 -0.01,-1.157 -0.197,-2.038 -0.188,-0.88 -0.516,-1.61 -0.328,-0.73 -0.718,-1.157 -0.39,-0.427 -0.701,-0.694 -0.31,-0.267 -1.122,-0.43 -0.812,-0.162 -1.882,0.117 -1.071,0.278 -1.666,0.723 -0.594,0.445 -0.761,0.611" />
    <path
       id="STROKE_913a7118-acdc-4186-a246-1224cd3fb009"
       opacity="1"
       fill="none"
       stroke="#000000"
       stroke-width="1.779"
       stroke-opacity="1"
       stroke-linecap="round"
       stroke-linejoin="round"
       d="m -2856.106,958.332 q 0.145,0.454 0.158,0.375 0.013,-0.079 0.081,0.541 0.067,0.621 0.063,1.343 0,0.723 -0.507,1.836 -0.504,1.114 -1.307,1.899 -0.804,0.786 -1.038,1.001" />
    <path
       id="STROKE_c90f4f5f-1a16-48fe-bc7a-11e1358921cb"
       opacity="1"
       fill="none"
       stroke="#000000"
       stroke-width="1.779"
       stroke-opacity="1"
       stroke-linecap="round"
       stroke-linejoin="round"
       d="m -2840.355,952.449 q 0.021,0.027 0.136,-0.278 0.018,-0.066 -0.536,1.159 -0.554,1.224 -0.875,2.696 -0.32,1.471 -0.344,2.39 -0.023,0.919 0.058,1.452 0.082,0.533 0.297,0.95 0.214,0.417 0.577,0.665 0.364,0.248 0.652,0.153 0.288,-0.096 0.406,-0.202" />
    <path
       id="STROKE_830a356e-79c9-473b-8f38-5ca32c138c3e"
       opacity="1"
       fill="none"
       stroke="#000000"
       stroke-width="1.779"
       stroke-opacity="1"
       stroke-linecap="round"
       stroke-linejoin="round"
       d="m -2838.922,946.121 q 0.096,0.023 -0.241,0.012 -0.337,-0.012 -0.668,-0.002 -0.33,0.009 -0.426,0.301 -0.096,0.292 -0.056,0.42 0.04,0.127 0.165,0.227 0.124,0.099 0.188,0.064 0.063,-0.035 0.272,0.013 0.209,0.048 0.573,-0.002 0.365,-0.049 0.608,-0.289 0.244,-0.239 0.301,-0.443 0.058,-0.203 -0.135,-0.315 -0.193,-0.112 -0.406,-0.157 -0.214,-0.044 -0.456,0.071 -0.243,0.115 -0.38,0.303 -0.136,0.188 -0.204,0.288" />
    <path
       id="STROKE_72291253-c96a-4f98-8f2b-1332b3b174b8"
       opacity="1"
       fill="none"
       stroke="#000000"
       stroke-width="1.779"
       stroke-opacity="1"
       stroke-linecap="round"
       stroke-linejoin="round"
       d="m -2828.332,943.779 q -0.167,-0.306 -0.251,-0.484 -0.084,-0.177 -0.04,-0.322 0.045,-0.145 0.125,-0.277 0.081,-0.132 0.167,-0.139 0.087,-0.008 0.131,-0.054 0.045,-0.047 0.547,-0.192 0.502,-0.144 1.278,-0.2 0.775,-0.055 1.483,0.149 0.707,0.204 1.285,0.617 0.577,0.412 0.977,0.89 0.401,0.478 0.644,1.139 0.244,0.66 0.106,1.468 -0.137,0.808 -2.2,2.57 -2.062,1.762 -3.211,2.645 -1.148,0.884 -2.036,1.781 -0.888,0.898 -1.286,1.594 -0.397,0.696 -0.631,1.201 -0.234,0.504 -0.318,1.336 -0.084,0.831 0.107,1.458 0.19,0.626 0.626,1.105 0.436,0.478 1.148,0.836 0.713,0.358 1.511,0.482 0.799,0.123 1.758,0.012 0.959,-0.111 1.849,-0.506 0.889,-0.395 1.446,-0.778 0.556,-0.382 0.839,-0.872 0.283,-0.49 0.33,-0.725 0.046,-0.236 0.118,-0.732 0.072,-0.495 -0.041,-1.142 -0.114,-0.646 -0.723,-1.236 -0.609,-0.591 -1.902,-1.577 -1.293,-0.987 -2.327,-2.02 -1.033,-1.033 -1.541,-1.708 -0.508,-0.674 -0.985,-1.455 -0.478,-0.781 -0.544,-1.552 -0.066,-0.77 -0.158,-1.338 -0.091,-0.567 1.026,-1.536 1.116,-0.968 1.304,-1.123" />
    <path
       id="STROKE_ec01f45e-fea3-4aec-bb4a-be0a777aaec3"
       opacity="1"
       fill="none"
       stroke="#000000"
       stroke-width="1.663"
       stroke-opacity="1"
       stroke-linecap="round"
       stroke-linejoin="round"
       d="m -2807.633,949.931 q 0.01,0 0.028,0.18 0.317,0 0.274,0 0.535,-0.075 0.411,-0.081 0.333,-0.072 1.375,-1.076 1.041,-1.005 1.715,-2.092 0.675,-1.087 1.218,-2.535 0.544,-1.448 0.567,-3.576 -0.01,0 -0.046,0 -0.093,-0.182 -0.076,1.692 0.018,1.874 0.093,4.018 0.074,2.144 0.085,3.222 0.01,1.077 -0.05,3.362 -0.059,2.286 0.488,6.519 -0.23,-0.049 -0.263,-0.118 -0.033,-0.07 -0.132,-0.178" />
    <path
       id="STROKE_8db7796e-d5e8-4cb4-a4de-61d38ba9b026"
       opacity="1"
       fill="none"
       stroke="#000000"
       stroke-width="1.779"
       stroke-opacity="1"
       stroke-linecap="round"
       stroke-linejoin="round"
       d="m -2793.233,959.721 q -0.105,0.23 -0.815,1.747 -0.709,1.517 -1.821,2.731 -1.112,1.214 -1.328,1.42" />
    <path
       id="STROKE_7e40a2a8-37bf-4fe8-bbac-f82f1e7ffe4b"
       opacity="1"
       fill="none"
       stroke="#000000"
       stroke-width="1.779"
       stroke-opacity="1"
       stroke-linecap="round"
       stroke-linejoin="round"
       d="m -2777.47,950.968 q -0.01,-0.02 -0.258,-0.154 -0.254,-0.133 -0.306,-0.118 -0.052,0.016 -0.277,-0.015 -0.225,-0.031 -0.522,0.642 -0.298,0.673 -0.48,1.439 -0.182,0.766 -0.249,1.94 -0.067,1.174 -0.01,2.14 0.058,0.966 0.554,1.871 0.496,0.906 0.908,1.299 0.412,0.394 0.521,0.473" />
    <path
       id="STROKE_0cf10110-dd70-48bc-993b-0714884874b1"
       opacity="1"
       fill="none"
       stroke="#000000"
       stroke-width="1.779"
       stroke-opacity="1"
       stroke-linecap="round"
       stroke-linejoin="round"
       d="m -2778.31,946.056 q -0.292,0.085 -0.803,0.245 0,0.019 0,0.028 0.083,0.202 1.507,-0.361 v -0.009 q -0.019,0 -0.062,0.009 -0.043,0.009 -0.111,0.028" />
    <path
       id="STROKE_e736026e-8de1-48e9-9fbe-16d8b8aca088"
       opacity="1"
       fill="none"
       stroke="#000000"
       stroke-width="1.779"
       stroke-opacity="1"
       stroke-linecap="round"
       stroke-linejoin="round"
       d="m -2767.269,944.385 q -0.154,-0.051 -0.247,-0.141 -0.092,-0.09 -0.088,-0.107 0,-0.018 -0.02,0.036 -0.023,0.054 -0.083,-0.138 -0.059,-0.191 -0.074,-0.388 -0.014,-0.197 0.642,-0.444 0.656,-0.247 1.052,-0.312 0.397,-0.065 1.124,-0.092 0.727,-0.026 1.95,0.438 1.224,0.464 2.071,0.925 0.847,0.462 1.261,0.902 0.413,0.439 0.476,1.03 0.063,0.591 0.02,0.927 -0.042,0.335 -0.554,1.182 -0.511,0.847 -2.985,2.372 -2.474,1.525 -3.747,2.244 -1.273,0.719 -1.962,1.211 -0.688,0.492 -1.347,1.027 -0.658,0.536 -0.998,1.26 -0.34,0.724 -0.332,1.313 0.01,0.59 0.146,1.038 0.139,0.448 0.422,0.886 0.283,0.437 1.156,1.015 0.873,0.578 1.846,0.765 0.973,0.186 1.93,0.186 0.957,0 1.987,-0.386 1.03,-0.386 1.84,-0.854 0.81,-0.469 1.304,-0.961 0.493,-0.493 0.65,-1.176 0.156,-0.683 0.196,-1.093 0.04,-0.41 -0.05,-0.778 -0.09,-0.368 -1.625,-1.032 -1.534,-0.665 -2.581,-1.013 -1.047,-0.349 -2.094,-1.11 -1.046,-0.761 -1.815,-1.559 -0.768,-0.798 -1.365,-1.936 -0.597,-1.138 -0.852,-2.16 -0.255,-1.022 -0.191,-1.831 0.064,-0.808 0.378,-1.557 0.314,-0.749 1.398,-1.31 1.084,-0.562 1.26,-0.619" />
    <path
       id="STROKE_924a5861-a0eb-4462-935c-e4b374e3539d"
       opacity="1"
       fill="none"
       stroke="#000000"
       stroke-width="1.779"
       stroke-opacity="1"
       stroke-linecap="round"
       stroke-linejoin="round"
       d="m -2745.532,947.866 q -0.057,-0.1 -0.026,-0.443 0.032,-0.343 0.133,-0.541 0.102,-0.199 0.144,-0.234 0.042,-0.035 0.223,-0.255 0.182,-0.22 0.433,-0.453 0.251,-0.234 1.001,-0.736 0.751,-0.502 1.658,-0.984 0.907,-0.482 1.737,-0.667 0.83,-0.184 1.332,-0.205 0.502,-0.021 0.839,0.124 0.337,0.144 0.468,0.733 0.131,0.59 0.048,0.994 -0.084,0.403 -0.564,1.384 -0.481,0.98 -2.255,3.471 -1.774,2.49 -2.743,3.738 -0.968,1.247 -1.534,2.075 -0.566,0.827 -0.741,1.558 -0.174,0.73 -0.14,1.05 0.035,0.321 0.05,0.536 0.014,0.215 0.399,0.386 0.385,0.171 0.78,0.352 0.395,0.181 1.476,0.294 1.081,0.113 1.99,0.031 0.91,-0.083 1.884,-0.295 0.974,-0.212 1.9,-0.435 0.926,-0.223 1.709,-0.56 0,-0.021 -0.01,-0.05 -0.01,-0.029 -0.028,-0.078" />
    <path
       id="STROKE_7db1b7f4-0d47-4557-be74-0e4f682a4f82"
       opacity="1"
       fill="none"
       stroke="#000000"
       stroke-width="1.779"
       stroke-opacity="1"
       stroke-linecap="round"
       stroke-linejoin="round"
       d="m -2729.718,938.233 q -0.029,-0.054 -0.064,-0.19 -0.034,-0.136 -0.035,-0.141 0,-0.004 0,-0.024 0,-0.021 -0.01,-0.128 -0.01,-0.108 0,-0.123 0.01,-0.016 -0.01,-0.127 -0.015,-0.11 0.103,-0.314 0.117,-0.205 1.012,-0.443 0.894,-0.238 1.792,-0.266 0.898,-0.029 1.488,0.113 0.59,0.142 1.08,0.524 0.489,0.383 0.788,1.09 0.3,0.708 0.01,1.601 -0.289,0.893 -1.461,2.24 -1.171,1.348 -1.912,2.17 -0.74,0.823 -1.258,1.551 -0.518,0.727 -0.717,1.417 -0.199,0.689 -0.229,1.114 -0.031,0.424 0.176,0.958 0.208,0.535 1.101,1.038 0.893,0.504 1.889,0.517 -0.025,0.001 -0.01,0 0.019,-10e-4 -0.19,0.033 -0.209,0.033 -0.431,0.559 -0.222,0.525 -0.246,1.174 -0.024,0.649 -0.051,1.119 -0.028,0.471 0.432,1.924 0.461,1.454 0.727,2.548 0.266,1.094 0.306,1.974 0.041,0.879 -0.194,1.932 -0.236,1.053 -0.493,1.685 -0.257,0.632 -0.752,1.397 -0.495,0.766 -2.251,1.091 -1.757,0.324 -2.716,0.388 -0.958,0.063 -1.057,0.063" />
    <path
       id="STROKE_22f1765e-1270-4c7b-8e42-e45603d17a47"
       opacity="1"
       fill="none"
       stroke="#999999"
       stroke-width="1.779"
       stroke-opacity="1"
       stroke-linecap="round"
       stroke-linejoin="round"
       d="m -3035.099,772.77 q -0.179,0.106 -0.147,2.189 0.033,2.084 0.544,6.417 0.51,4.333 0.772,8.69 0.263,4.358 0.399,6.347 0.137,1.989 0.03,3.647 -0.108,1.658 -0.185,3.529 -0.078,1.872 -0.065,2.775 0.012,0.904 0.036,1.466 0.024,0.562 0.042,0.793 0.017,0.231 0.069,0.398 0.052,0.167 0.222,1.691 0.169,1.524 0.205,2.663 0.036,1.139 0.045,1.888 -0.033,0 -0.108,-0.007 -0.074,-0.007 -0.192,-0.021" />
    <path
       id="STROKE_0b97ab68-cdee-496c-afc8-e8462804bf2e"
       opacity="1"
       fill="none"
       stroke="#999999"
       stroke-width="1.564"
       stroke-opacity="1"
       stroke-linecap="round"
       stroke-linejoin="round"
       d="m -3031.642,772.707 q 0.036,0.064 4.321,-0.312 4.284,-0.375 11.378,-0.822 7.094,-0.446 13.01,-0.793 5.916,-0.347 8.646,-0.516 2.73,-0.169 4.488,-0.216 1.757,-0.046 4.114,-0.152 2.357,-0.105 6.763,-0.301 4.407,-0.196 7.793,-0.251 3.386,-0.056 4.954,-0.049 1.568,0.007 7.895,0.002 6.328,-0.005 11.241,-0.044 4.914,-0.038 7.492,-0.055 2.578,-0.018 3.75,-0.034 1.172,-0.015 5.95,-0.076 4.779,-0.061 9.115,0.067 4.336,0.129 9.313,0.618 4.977,0.489 7.462,0.762 2.486,0.273 4.158,0.534 1.671,0.262 2.336,0.426 0.666,0.165 0.897,0.261 0.231,0.097 0.542,0.327 0.311,0.23 0.486,0.46 0.175,0.231 0.217,0.297 0.043,0.067 0.059,0.095 0.016,0.027 0.112,0.267 0.096,0.241 0.347,0.812 0.252,0.572 0.388,1.622 0.137,1.051 0.137,1.856 0,0.806 0.013,1.791 0.014,0.986 0,4.592 -0.014,3.607 0.139,6.362 0.152,2.756 0.415,5.602 0.262,2.846 0.385,5.206 0.123,2.36 0.097,5.424 -0.027,3.064 -0.174,4.939 -0.148,1.876 -0.306,3.977 -0.158,2.101 -0.405,3.164 -0.247,1.063 -0.467,1.553 -0.219,0.489 -0.338,0.745 -0.12,0.255 -1.521,0.382 -1.402,0.126 -4.593,-0.117 -3.192,-0.242 -5.491,-0.469 -2.299,-0.227 -3.347,-0.309 -1.049,-0.083 -4.671,-0.277 -3.621,-0.195 -7.015,-0.381 -3.393,-0.186 -5.844,-0.35 -2.45,-0.164 -7.1,-0.342 -4.65,-0.178 -7.108,-0.25 -2.458,-0.072 -4.242,-0.139 -1.784,-0.067 -3.58,-0.129 -1.796,-0.061 -6.158,-0.331 -4.363,-0.27 -12.24,-0.504 -7.876,-0.235 -11.782,-0.284 -3.905,-0.049 -6.994,-0.09 -3.088,-0.041 -5.75,-0.076 -2.661,-0.035 -4.239,-0.096 -1.578,-0.06 -5.386,-0.098 -3.808,-0.039 -8.827,-0.101 -5.019,-0.062 -7.684,-0.214 -2.666,-0.153 -4.687,-0.11 -2.02,0.042 -3.82,-0.033 -1.799,-0.075 -3.276,0.108 -1.477,0.182 -2.212,0.56 -0.735,0.377 -0.974,0.538" />
    <path
       id="STROKE_b7fb31e5-9b7f-436d-b69e-36fdc2d5fbdb"
       opacity="1"
       fill="none"
       stroke="#999999"
       stroke-width="1.63"
       stroke-opacity="1"
       stroke-linecap="round"
       stroke-linejoin="round"
       d="m -3030.452,853.999 q -10e-4,0 -10e-4,-0.014 0,-0.014 0.071,-0.281 0.159,-0.279 0.825,2.461 0.666,2.74 1.029,7.039 0.362,4.299 0.324,6.954 -0.039,2.654 -0.021,3.988 0.018,1.334 -0.102,3.832 -0.121,2.497 -0.519,6.217 -0.398,3.72 -0.532,6.032 -0.134,2.311 -0.1,4.657 0.018,0 0.037,0 0,0.293 0,0.253 -0.122,0.485 -0.094,0.358 -0.014,0.045 -0.044,0.105 -0.03,0.06 -0.077,0.12" />
    <path
       id="STROKE_6b746607-cb28-448c-991f-cf81e409e0af"
       opacity="1"
       fill="none"
       stroke="#999999"
       stroke-width="1.471"
       stroke-opacity="1"
       stroke-linecap="round"
       stroke-linejoin="round"
       d="m -3030.818,852.089 q 0.055,-0.591 3.837,-0.894 3.782,-0.303 6.064,-0.316 2.283,-0.014 3.571,-0.026 1.288,-0.011 7.188,-0.028 5.9,-0.016 10.329,0.019 4.43,0.035 6.432,0.109 2.002,0.075 4.04,0.071 2.037,-0.004 7.913,0.007 5.877,0.01 8.984,0.138 3.106,0.128 6.094,0.228 2.988,0.1 5.176,0.159 2.189,0.059 10.314,0.401 8.124,0.342 12.256,0.469 4.131,0.127 5.929,0.122 1.798,-0.005 4.295,-0.126 2.496,-0.122 4.931,-0.172 2.434,-0.051 4.508,0.135 2.074,0.185 3.669,0.258 1.595,0.073 2.279,0.052 0.684,-0.021 1.335,0.174 0.65,0.193 1.077,0.475 0.426,0.282 0.626,0.371 0.2,0.089 0.417,0.754 0.217,0.664 0.258,1.251 0.04,0.587 -0.056,2.102 -0.097,1.515 -0.609,4.406 -0.512,2.89 -0.77,4.528 -0.258,1.639 -0.408,2.488 -0.149,0.848 -0.242,1.455 -0.093,0.606 -0.225,1.256 -0.133,0.649 -0.861,3.868 -0.728,3.22 -1.107,5.116 -0.379,1.896 -0.427,2.85 -0.049,0.955 0,2.255 0.052,1.3 -0.049,2.563 -0.1,1.264 -0.228,1.843 -0.128,0.58 -0.223,0.935 -0.094,0.356 -0.14,0.497 -0.046,0.142 -0.184,0.441 -0.138,0.298 -0.217,0.422 -0.079,0.124 -0.073,0.072 0.01,-0.053 0.016,0.05 0.01,0.104 -0.684,0.496 -0.694,0.392 -1.988,0.716 -1.293,0.324 -5.264,0.759 -3.972,0.434 -6.302,0.507 -2.33,0.072 -4.366,0.281 -2.037,0.209 -7.678,0.414 -5.641,0.204 -8.502,0.221 -2.861,0.018 -5.002,0.085 -2.14,0.067 -6.834,0.095 -4.694,0.029 -10.962,-0.035 -6.268,-0.065 -9.418,-0.096 -3.15,-0.03 -4.793,-0.065 -1.643,-0.034 -8.743,-0.126 -7.099,-0.092 -13.512,0.021 -6.411,0.113 -10.348,0.088 -3.937,-0.026 -6.269,0.121 -2.332,0.146 -2.529,0.178" />
    <path
       id="STROKE_7263c71c-27a3-4cbe-a786-693f2a3f3691"
       opacity="1"
       fill="none"
       stroke="#999999"
       stroke-width="1.506"
       stroke-opacity="1"
       stroke-linecap="round"
       stroke-linejoin="round"
       d="m -3032.693,931.309 q 0,0.093 0,-0.421 -0.048,0.624 -0.028,0.527 -0.201,0.213 0.257,5.244 0.459,5.031 0.595,9.038 0.137,4.006 0.174,5.853 0.037,1.848 -0.15,6.312 -0.186,4.464 -0.173,7.953 0.014,3.489 0.312,5.228 0.298,1.739 -0.575,4.845 -0.014,0 -0.028,0" />
    <path
       id="STROKE_62f75604-d797-46da-847f-78a172194aa4"
       opacity="1"
       fill="none"
       stroke="#999999"
       stroke-width="1.328"
       stroke-opacity="1"
       stroke-linecap="round"
       stroke-linejoin="round"
       d="m -3031.232,930.172 q 0,0 -0.01,0 -0.01,0 -0.113,0 1.251,-0.093 9.498,-0.394 8.246,-0.301 12.626,-0.625 4.38,-0.324 9.012,-0.649 4.632,-0.325 6.972,-0.44 2.34,-0.115 4.266,-0.167 1.926,-0.052 6.761,-0.35 4.836,-0.297 11.455,-0.633 6.619,-0.336 20.088,-0.63 13.468,-0.293 20.105,-0.308 6.636,-0.015 9.447,-0.014 2.811,10e-4 4.166,0.061 1.355,0.061 5.688,0.174 4.334,0.113 11.383,0.187 7.049,0.075 15.01,0.15 7.961,0.075 11.852,0.099 3.89,0.024 5.568,0.041 1.678,0.017 4.823,0.103 3.144,0.087 4.767,0.132 1.623,0.046 5.76,0.239 4.137,0.194 10.992,0.283 6.855,0.09 10.298,0.115 3.443,0.025 4.931,0.084 1.488,0.058 7.556,0.272 6.069,0.214 11.375,0.272 5.307,0.058 8.605,0.11 3.298,0.052 4.714,0.097 1.415,0.046 8.602,0.184 7.187,0.139 11.353,0.235 4.167,0.095 7.51,0.296 3.344,0.201 5.424,0.295 2.08,0.094 5.767,0.26 3.687,0.167 5.521,0.225 1.834,0.059 3.775,0.123 1.941,0.065 4.519,0.21 2.578,0.145 5.877,0.254 3.299,0.11 4.96,0.139 1.661,0.028 2.865,0.024 1.203,-0.005 4.147,-0.02 2.944,-0.015 4.736,-0.009 1.792,0.006 3.105,0.203 0.229,0.254 0.455,3.841 0.226,3.586 0.48,6.796 0.256,3.209 0.451,4.828 0.195,1.62 0.01,7.952 -0.189,6.332 -0.421,10.006 -0.232,3.675 -0.24,5.287 -0.01,1.612 -0.151,2.351 -0.142,0.739 -0.276,1.072 -0.134,0.334 -0.269,0.574 -0.135,0.241 -0.238,0.375 -0.103,0.134 -0.298,0.324 -0.195,0.19 -0.42,0.439 -0.224,0.25 -1.311,0.877 -1.087,0.628 -3.747,1.134 -2.659,0.507 -4.792,0.704 -2.132,0.198 -8.582,0.218 -6.449,0.021 -10.257,0.026 -3.808,0.005 -6.753,-0.229 -2.945,-0.234 -6.345,-0.493 -3.399,-0.259 -5.62,-0.341 -2.222,-0.082 -7.628,-0.359 -5.405,-0.278 -9.675,-0.47 -4.27,-0.192 -6.432,-0.237 -2.163,-0.045 -4.294,-0.124 -2.132,-0.078 -3.342,-0.102 -1.211,-0.024 -7.646,-0.189 -6.434,-0.166 -10.532,-0.361 -4.097,-0.195 -6.591,-0.315 -2.493,-0.12 -10.993,-0.425 -8.499,-0.306 -14.461,-0.672 -5.961,-0.366 -10.931,-0.769 -4.969,-0.403 -7.527,-0.546 -2.558,-0.144 -3.926,-0.217 -1.368,-0.073 -4.833,-0.25 -3.464,-0.177 -6.941,-0.335 -3.476,-0.158 -7.03,-0.364 -3.555,-0.206 -12.921,-0.475 -9.367,-0.268 -14.162,-0.373 -4.795,-0.105 -8.197,-0.179 -3.402,-0.074 -5.206,-0.136 -1.805,-0.062 -9.083,-0.031 -7.279,0.03 -11.03,0.131 -3.752,0.101 -5.596,0.178 -1.844,0.076 -4.219,0.166 -2.375,0.089 -6.599,0.397 -4.223,0.308 -11.437,0.705 -7.214,0.397 -12.501,0.611 -5.287,0.214 -7.563,0.329 -2.275,0.115 -4.26,0.263 -1.986,0.147 -5.512,0.403 -3.526,0.255 -6.384,0.407 -2.859,0.152 -4.638,0.094 -1.779,-0.057 -7.534,0.447 -5.754,0.505 -6.082,0.593" />
    <path
       id="STROKE_a9afb377-0127-4c63-8873-aa77c5899c5a"
       opacity="1"
       fill="none"
       stroke="#999999"
       stroke-width="1.33"
       stroke-opacity="1"
       stroke-linecap="round"
       stroke-linejoin="round"
       d="m -3103.186,785.411 q 0.011,0.143 -0.543,-0.039 -0.555,-0.182 -2.207,2.251 -1.651,2.433 -3.035,4.692 -1.384,2.26 -3.077,4.965 -1.692,2.704 -4.933,7.063 -3.241,4.358 -3.311,4.389" />
    <path
       id="STROKE_e2b30eb9-1490-4813-b373-85f238448d9d"
       opacity="1"
       fill="none"
       stroke="#999999"
       stroke-width="1.779"
       stroke-opacity="1"
       stroke-linecap="round"
       stroke-linejoin="round"
       d="m -3113.332,791.401 q -0.447,0 -0.478,0 -0.032,0 -0.039,0.005 -0.01,0.006 -0.103,-0.008 -0.095,-0.014 -0.455,-0.017 -0.359,-0.004 -0.575,0.19 -0.216,0.194 -0.177,0.181 0.038,-0.013 -0.122,-0.007 -0.161,0.005 -0.346,1.584 0.737,-0.058 0.574,0.05 -0.164,0.108 0.367,-0.345 0.531,-0.452 0.8,-1.163 0.27,-0.711 0.287,-1.569 -0.198,-0.259 -0.837,0.102 -0.639,0.361 -0.824,0.89 -0.184,0.528 -0.273,0.739" />
    <path
       id="STROKE_94e0b5e2-85a8-411a-9876-2fb67f4ab4a0"
       opacity="1"
       fill="none"
       stroke="#999999"
       stroke-width="1.779"
       stroke-opacity="1"
       stroke-linecap="round"
       stroke-linejoin="round"
       d="m -3110.353,800.228 q -0.425,-0.142 -0.613,0.21 -0.187,0.352 -0.087,0.516 0.1,0.165 0.261,0.361 0.162,0.196 0.239,0.207 0.078,0.01 0.134,0.186 0.055,0.175 1.715,0.048 -0.119,0.126 0.061,-0.215 0.18,-0.34 -0.073,-1.001 -0.252,-0.66 -0.858,-0.693 -0.606,-0.033 -0.723,-0.005" />
    <path
       id="STROKE_3608f44e-7f80-4721-9917-6eea98385661"
       opacity="1"
       fill="none"
       stroke="#999999"
       stroke-width="1.779"
       stroke-opacity="1"
       stroke-linecap="round"
       stroke-linejoin="round"
       d="m -3097.556,795.551 q -0.01,0.02 -0.544,-0.66 0.148,0.698 0.183,0.646 0.29,0.589 3.33,8.153 -0.332,-0.055 -1.057,-0.887 -0.725,-0.831 -1.057,-2.179 -0.331,-1.349 -0.387,-2.391 -0.055,-1.043 0.448,-2.005 0.504,-0.962 1.127,-1.574 0.623,-0.612 1.44,-1.176 0.816,-0.564 1.797,-0.971 0.982,-0.407 1.97,0.065 0.989,0.472 1.199,0.711" />
    <path
       id="STROKE_14b3a395-2c1e-4e19-85e4-d1747ba13874"
       opacity="1"
       fill="none"
       stroke="#999999"
       stroke-width="1.779"
       stroke-opacity="1"
       stroke-linecap="round"
       stroke-linejoin="round"
       d="m -3085.416,796.682 q 0.122,0 -0.356,0 0.37,0.341 0.412,0.298 0.451,0.288 1.914,0.617 1.464,0.329 2.449,0.333 0.985,0.003 1.371,-0.092 0.385,-0.095 0.657,-0.797 0.273,-0.702 -0.292,-1.518 -0.566,-0.816 -1.453,-1.337 -0.887,-0.521 -2.167,-0.72 -1.28,-0.199 -2.454,0.041 -1.174,0.24 -2.114,1.098 -0.941,0.858 -1.395,1.761 -0.453,0.903 -0.547,1.872 -0.093,0.969 0.064,1.699 0.158,0.73 0.709,1.375 0.551,0.644 1.838,0.927 1.288,0.283 2.274,0.379 0.985,0.095 2.12,-0.064 1.134,-0.159 1.551,-0.324" />
    <path
       id="STROKE_39f326eb-735a-49bc-a674-30528e47288d"
       opacity="1"
       fill="none"
       stroke="#999999"
       stroke-width="1.779"
       stroke-opacity="1"
       stroke-linecap="round"
       stroke-linejoin="round"
       d="m -3069.228,795.488 q -0.014,-0.008 -0.631,-0.581 -0.618,-0.573 -1.5,-0.658 -0.882,-0.085 -1.601,0.092 -0.719,0.177 -1.587,0.937 -0.869,0.761 -1.237,1.89 -0.369,1.13 -0.48,1.818 -0.11,0.689 0.094,1.476 0.205,0.787 0.919,1.308 0.714,0.52 1.704,0.613 0.99,0.093 1.8,-0.053 0.81,-0.147 1.398,-0.716 0.588,-0.569 0.98,-1.557 0.391,-0.988 0.394,-1.857 0,-0.87 -0.058,-1.409 -0.061,-0.538 -0.823,-0.527 -0.446,0.007 0.247,2.693 0.692,2.686 1.148,4.471 0.455,1.785 0.548,2.655 0.094,0.87 0.183,2.188 0.089,1.319 0.063,2.421 -0.027,1.102 -0.325,1.744 -0.299,0.642 -1.129,1.438 -0.83,0.795 -1.884,1.31 -1.054,0.516 -3.602,0.852 -2.549,0.336 -6.538,-0.755 -3.99,-1.092 -4.215,-1.24" />
    <path
       id="STROKE_587f85b4-0524-4a33-97f8-53be8eb4a059"
       opacity="1"
       fill="none"
       stroke="#999999"
       stroke-width="1.529"
       stroke-opacity="1"
       stroke-linecap="round"
       stroke-linejoin="round"
       d="m -3062.389,792.272 q 0.533,-0.038 0.36,-0.049 0.379,-0.198 0.314,-0.207 0.174,-0.046 1.874,-2.094 1.7,-2.048 2.782,-5.796 -0.013,0.21 -0.756,4.995 -0.743,4.785 -1.005,8.767 -0.261,3.983 -0.269,5.616 -0.01,1.633 -0.05,1.766" />
    <path
       id="STROKE_5a381c3c-039a-4d2e-80b2-085a4c8f81ca"
       opacity="1"
       fill="none"
       stroke="#999999"
       stroke-width="1.356"
       stroke-opacity="1"
       stroke-linecap="round"
       stroke-linejoin="round"
       d="m -3109.819,862.349 q 0,0 -0.288,0 -0.288,0 -0.115,0 -0.551,0.17 -0.822,0.915 -0.272,0.745 -1.72,4.117 -1.447,3.373 -2.986,6.417 -1.539,3.044 -2.567,4.941 -1.028,1.898 -2.188,4.137 -1.16,2.24 -1.249,2.345" />
    <path
       id="STROKE_825223d7-f1ec-4b33-b396-dc8eebfa36d4"
       opacity="1"
       fill="none"
       stroke="#999999"
       stroke-width="1.779"
       stroke-opacity="1"
       stroke-linecap="round"
       stroke-linejoin="round"
       d="m -3117.828,868.255 q -0.241,0.112 -0.545,0.13 -0.303,0.017 -0.653,0.218 -0.35,0.202 -0.491,0.45 -0.14,0.249 -0.171,0.383 -0.031,0.134 -0.017,0.107 0.014,-0.027 -0.01,-0.038 -0.021,-0.011 0.098,0.312 -0.172,-0.066 0.343,0.035 0.515,0.102 1.033,-0.61 0.518,-0.711 0.872,-2.209 -0.164,0.088 -0.313,0.175" />
    <path
       id="STROKE_825848ce-6d80-42e2-96c2-07e536a6459e"
       opacity="1"
       fill="none"
       stroke="#999999"
       stroke-width="1.779"
       stroke-opacity="1"
       stroke-linecap="round"
       stroke-linejoin="round"
       d="m -3113.247,879.104 q -0.075,-0.037 -0.304,0.12 -0.228,0.157 -0.286,0.499 -0.057,0.343 -0.01,0.699 0.051,0.356 0.228,0.442 0.176,0.086 0.248,0.135 0.072,0.05 0.116,0.055 0.045,0.006 0.307,0.071 0.261,0.065 0.561,-0.142 0.299,-0.207 0.339,-0.28 0.039,-0.073 0.164,-0.687 0.124,-0.614 -0.106,-1.022 -0.231,-0.409 -0.362,-0.515" />
    <path
       id="STROKE_1bb7b95c-aad5-4d52-89c9-4d0748cec5ba"
       opacity="1"
       fill="none"
       stroke="#999999"
       stroke-width="1.779"
       stroke-opacity="1"
       stroke-linecap="round"
       stroke-linejoin="round"
       d="m -3098.718,873.381 q -0.164,-0.536 -0.136,-0.386 -0.028,-0.046 -0.192,-0.33 -0.336,0.504 1.696,9.719 -0.536,0.061 -0.929,-2.127 -0.393,-2.188 -0.475,-3.53 -0.081,-1.343 -0.08,-2.087 0,-0.744 0.405,-1.303 0.404,-0.56 1.106,-0.9 0.701,-0.339 1.52,-0.354 0.818,-0.015 1.104,-0.043" />
    <path
       id="STROKE_c42dcf18-4c03-4640-872e-884733d728bf"
       opacity="1"
       fill="none"
       stroke="#999999"
       stroke-width="1.779"
       stroke-opacity="1"
       stroke-linecap="round"
       stroke-linejoin="round"
       d="m -3089.135,875.144 q 0,0 0.01,0.104 0.01,0.105 0.013,0.059 0,-0.046 -0.105,0.031 -0.108,0.077 0.821,0.397 0.929,0.32 1.521,0.351 0.59,0.03 0.917,0.028 0.326,-0.003 1.097,0.014 0.771,0.018 1.36,-0.223 0.588,-0.24 0.757,-0.547 0.17,-0.308 0.141,-0.987 -0.028,-0.68 -0.811,-1.299 -0.782,-0.619 -1.299,-0.919 -0.517,-0.3 -1.466,-0.461 -0.95,-0.161 -1.925,-0.022 -0.976,0.139 -1.802,0.837 -0.826,0.698 -1.37,1.916 -0.544,1.218 -0.609,2.338 -0.065,1.12 0.285,2.087 0.351,0.966 1.734,1.989 1.384,1.024 3.84,1.041 2.457,0.018 2.785,-0.028" />
    <path
       id="STROKE_fcb13841-5a9a-4cc6-a3f4-327654e12843"
       opacity="1"
       fill="none"
       stroke="#999999"
       stroke-width="1.779"
       stroke-opacity="1"
       stroke-linecap="round"
       stroke-linejoin="round"
       d="m -3071.551,873.472 q -0.549,-0.268 -0.534,-0.27 -0.2,-0.113 -0.961,-0.374 -0.762,-0.26 -1.553,-0.094 -0.792,0.167 -1.645,1.051 -0.853,0.885 -1.404,2.234 -0.552,1.348 -0.673,2.053 -0.121,0.705 -0.16,1.419 -0.04,0.714 0,0.882 0.036,0.168 0.293,0.51 0.257,0.342 1.048,0.466 0.792,0.124 1.454,-0.154 0.662,-0.278 1.794,-1.491 1.132,-1.213 1.854,-4.371 -0.601,-0.116 -0.412,-0.07 -0.017,-0.214 -0.161,0.684 -0.144,0.897 0.139,1.847 0.283,0.951 0.834,3.116 0.552,2.166 0.835,4.377 0.283,2.21 0.336,3.781 0.054,1.571 -0.112,2.497 -0.166,0.926 -0.693,1.663 -0.527,0.737 -1.105,1.242 -0.578,0.505 -1.505,0.857 -0.927,0.351 -2.061,0.383 -1.133,0.031 -2.233,-0.092 -1.1,-0.123 -3.818,-1.273 -2.719,-1.15 -3.033,-1.315" />
    <path
       id="STROKE_6f836c2c-4f56-4bc2-8f37-3e95042ff937"
       opacity="1"
       fill="none"
       stroke="#999999"
       stroke-width="1.75"
       stroke-opacity="1"
       stroke-linecap="round"
       stroke-linejoin="round"
       d="m -3062.896,869.09 q 0.014,-0.037 0.01,0.028 -0.01,0.064 0.046,-0.424 0.052,-0.489 0.922,-0.802 0.869,-0.313 2.045,-0.67 1.176,-0.358 2.009,-0.449 0.834,-0.092 1.343,-0.14 0.508,-0.048 0.901,0.181 0.393,0.23 0.535,0.951 0.142,0.721 -0.498,1.974 -0.64,1.254 -2.43,3.169 -1.79,1.915 -2.958,3.029 -1.168,1.113 -2.141,2.233 -0.972,1.12 -1.474,1.767 -0.502,0.646 -0.677,1.143 -0.175,0.497 -0.022,1.092 0.153,0.596 1.467,1.23 1.314,0.635 5.459,0.28 4.144,-0.354 4.514,-0.427" />
    <path
       id="STROKE_9eb355b1-f372-4dcf-be5a-7b2c5dd3e3d8"
       opacity="1"
       fill="none"
       stroke="#999999"
       stroke-width="1.454"
       stroke-opacity="1"
       stroke-linecap="round"
       stroke-linejoin="round"
       d="m -3114.465,942.391 q -0.246,0.067 -0.235,0.102 -0.338,0.232 -1.198,2.227 -0.861,1.994 -2.36,5.472 -1.5,3.478 -3.926,8.112 -2.427,4.634 -2.548,4.754" />
    <path
       id="STROKE_a3c696f4-2807-4477-95da-6c5f38a63e85"
       opacity="1"
       fill="none"
       stroke="#999999"
       stroke-width="1.779"
       stroke-opacity="1"
       stroke-linecap="round"
       stroke-linejoin="round"
       d="m -3121.191,946.028 q -0.086,0.037 -0.14,0.008 -0.055,-0.03 -0.224,-0.098 -0.17,-0.068 -0.313,-0.088 -0.142,-0.019 -0.037,-0.05 0.106,-0.03 -0.507,0.098 -0.612,0.128 -0.948,2.202 0.154,-0.059 0.539,0.166 0.385,0.225 2.164,-2.743 -0.134,0.118 -0.301,0.364 -0.168,0.247 -0.346,0.499" />
    <path
       id="STROKE_eb8d3d00-145f-4a1c-b77b-749ac64bb831"
       opacity="1"
       fill="none"
       stroke="#999999"
       stroke-width="1.779"
       stroke-opacity="1"
       stroke-linecap="round"
       stroke-linejoin="round"
       d="m -3115.477,958.282 q 0.038,-0.005 0.042,-0.017 0.01,-0.012 -0.179,0.062 -0.184,0.073 -0.429,0.204 -0.245,0.13 -0.296,0.228 -0.052,0.098 -0.031,0.066 0.022,-0.031 -0.078,-0.019 -0.1,0.013 -0.083,0.79 -0.269,-0.086 0.26,0.059 0.529,0.144 1.616,-0.4 1.088,-0.545 1.735,-2.015 -0.428,-0.125 -0.481,-0.13 -0.053,-0.004 -0.231,-0.049" />
    <path
       id="STROKE_9b3c5841-eb19-4bf9-84ed-642d9efd451d"
       opacity="1"
       fill="none"
       stroke="#999999"
       stroke-width="1.727"
       stroke-opacity="1"
       stroke-linecap="round"
       stroke-linejoin="round"
       d="m -3097.622,943.613 q 0,0 0,-0.007 0,-0.007 -0.014,-0.141 -0.014,0 -0.042,0 0.021,0.379 -0.045,3.998 -0.066,3.62 -0.212,5.827 -0.145,2.208 -0.298,3.535 -0.153,1.327 -0.523,2.026 -0.013,0.211 0,-0.844 0.011,-1.055 0.506,-1.788 0.495,-0.733 0.887,-1.163 0.391,-0.429 1.403,-0.738 1.011,-0.309 1.865,-0.266 0.855,0.042 1.65,0.547 0.795,0.506 1.196,1.516 0.401,1.011 0.553,2.087 0.151,1.076 -0.519,1.769 -0.67,0.693 -1.755,1.146 -1.085,0.453 -2.254,0.601 -1.169,0.148 -2.206,-0.115 -1.036,-0.263 -1.652,-0.704 -0.616,-0.441 -0.729,-0.956 -0.114,-0.515 0.214,-0.819 0.328,-0.304 0.525,-0.455" />
    <path
       id="STROKE_829d815f-bbdb-40cb-8882-600b26660a49"
       opacity="1"
       fill="none"
       stroke="#999999"
       stroke-width="1.487"
       stroke-opacity="1"
       stroke-linecap="round"
       stroke-linejoin="round"
       d="m -3083.186,941.766 q 0.114,0.012 -0.106,-0.037 -0.218,-0.05 -0.39,0.029 -0.172,0.079 -0.414,0.569 -0.243,0.489 -0.195,0.448 0.049,-0.041 -0.285,2.166 -0.334,2.207 -0.78,5.986 -0.447,3.778 -0.652,6.369 -0.206,2.59 -0.288,5.432 0.086,-0.004 0.228,-0.264 0.142,-0.259 0.259,-0.453" />
    <path
       id="STROKE_26e8ddcd-8f78-4f05-bfae-465e3edbd5a9"
       opacity="1"
       fill="none"
       stroke="#999999"
       stroke-width="1.779"
       stroke-opacity="1"
       stroke-linecap="round"
       stroke-linejoin="round"
       d="m -3081.519,955.094 q -0.093,-0.261 0.766,-0.982 0.859,-0.72 1.895,-1.093 1.037,-0.373 1.765,-0.437 0.728,-0.063 1.043,-0.008 0.315,0.055 0.725,0.294 0.411,0.24 0.654,1.566 0.244,1.326 0.225,2.345 -0.018,1.019 -0.302,1.737 -0.283,0.719 -0.653,1.16 -0.37,0.442 -0.788,0.636 -0.417,0.194 -0.773,-0.531 -0.355,-0.726 -0.699,-1.218 -0.344,-0.491 -0.744,-0.757 -0.4,-0.266 -0.8,-0.404 -0.4,-0.137 -0.799,-0.008 -0.399,0.128 -0.598,0.332 -0.199,0.203 -0.291,0.459 -0.093,0.255 -0.103,0.432 -0.011,0.176 -0.01,0.225 0,0.05 -0.028,0.399 -0.032,0.349 0.286,1.243 0.318,0.895 1.271,1.525 0.953,0.63 2.107,0.785 1.153,0.155 1.909,-0.059 0.755,-0.214 1.051,-0.394" />
    <path
       id="STROKE_ea8ce7ac-9a4f-4008-bf18-16266b1ccda9"
       opacity="1"
       fill="none"
       stroke="#999999"
       stroke-width="1.701"
       stroke-opacity="1"
       stroke-linecap="round"
       stroke-linejoin="round"
       d="m -3063.401,940.719 q 0,0.002 0.016,-0.025 0.017,-0.026 -0.246,0.177 -0.264,0.202 -0.301,0.28 -0.037,0.078 -0.121,0.288 -0.085,0.21 -0.176,0.35 -0.092,0.139 -0.766,2.718 -0.673,2.58 -1.567,6.412 -0.894,3.833 -2.76,10.229 0.096,-0.362 -0.023,-0.183 -0.12,0.18 0.098,-1.045 0.217,-1.224 0.575,-1.954 0.357,-0.731 0.557,-1.159 0.199,-0.428 1.015,-1.575 0.816,-1.147 1.859,-2.034 1.042,-0.886 2.027,-1.281 0.984,-0.395 1.626,-0.478 0.642,-0.083 1.132,0.009 0.49,0.092 0.675,1.107 0.186,1.015 0.06,1.893 -0.125,0.878 -0.256,1.497 -0.13,0.62 -1.062,2.496 -0.933,1.875 -1.601,3.147 -0.668,1.273 -0.789,1.435" />
  </g>
  <metadata
     id="metadata891">
    <rdf:RDF>
      <cc:Work
         rdf:about="">
        <dc:title>LLVM IR</dc:title>
      </cc:Work>
    </rdf:RDF>
  </metadata>
</svg>
