<?xml version="1.0" encoding="UTF-8" standalone="no"?>
<!-- Created with Inkscape (http://www.inkscape.org/) -->

<svg
   width="241.84492mm"
   height="48.665173mm"
   viewBox="0 0 241.84492 48.665173"
   version="1.1"
   id="svg22345"
   inkscape:version="1.1.2 (0a00cf5339, 2022-02-04, custom)"
   sodipodi:docname="ir_position.svg"
   xmlns:inkscape="http://www.inkscape.org/namespaces/inkscape"
   xmlns:sodipodi="http://sodipodi.sourceforge.net/DTD/sodipodi-0.dtd"
   xmlns="http://www.w3.org/2000/svg"
   xmlns:svg="http://www.w3.org/2000/svg">
  <sodipodi:namedview
     id="namedview22347"
     pagecolor="#ffffff"
     bordercolor="#666666"
     borderopacity="1.0"
     inkscape:pageshadow="2"
     inkscape:pageopacity="0.0"
     inkscape:pagecheckerboard="0"
     inkscape:document-units="mm"
     showgrid="false"
     inkscape:zoom="0.90583672"
     inkscape:cx="105.42739"
     inkscape:cy="160.073"
     inkscape:current-layer="g20107"
     fit-margin-top="5"
     fit-margin-left="2"
     fit-margin-bottom="5"
     fit-margin-right="2" />
  <defs
     id="defs22342" />
  <g
     inkscape:label="Layer 1"
     inkscape:groupmode="layer"
     id="layer1"
     transform="translate(49.460708,-80.739637)">
    <g
       id="par_g20067"
       transform="matrix(0.19242427,0,0,0.19242427,72.930499,-244.77031)">
      <g
         id="g52220">
        <path
           id="STROKE_3298abc7-cd0a-4eed-8f86-9290b4d71752"
           opacity="1"
           fill="none"
           stroke="#000000"
           stroke-width="1.456"
           stroke-opacity="1"
           stroke-linecap="round"
           stroke-linejoin="round"
           d="m -595.77976,1857.6661 q -0.074,-0.617 -0.098,-0.483 -0.222,-0.576 -0.188,-0.541 -0.024,-0.108 -0.103,-0.906 0.23,-0.07 -0.374,4.347 -0.604,4.416 -2.027,12.121 -1.424,7.704 -2.225,15.031 -0.11,0.286 2.831,-0.291 2.941,-0.576 4.819,-0.77 1.877,-0.194 2.995,-0.365 1.118,-0.17 3.125,0.01 2.007,0.177 2.086,0.254" />
        <path
           id="STROKE_34b40e2f-de58-484d-9640-238845d630ab"
           opacity="1"
           fill="none"
           stroke="#000000"
           stroke-width="1.828"
           stroke-opacity="1"
           stroke-linecap="round"
           stroke-linejoin="round"
           d="m -582.04876,1877.0691 q 0,0 -0.07,0.046 -0.071,0.045 0.006,-0.038 0.077,-0.084 0.343,-0.307 0.265,-0.222 0.531,-0.394 0.266,-0.171 0.674,-0.409 0.407,-0.237 0.481,-0.284 0.074,-0.047 1.331,-0.602 1.257,-0.554 2.622,-0.77 1.364,-0.217 2.413,0.083 1.048,0.3 1.527,0.902 0.479,0.6 0.777,1.221 0.298,0.621 0.444,2.264 0.145,1.644 0.097,2.395 -0.049,0.751 -0.234,1.529 -0.185,0.778 -0.315,1.053 -0.13,0.274 -0.584,0.738 -0.453,0.464 -1.125,-0.128 -0.672,-0.593 -1.425,-1.634 -0.753,-1.042 -1.308,-1.618 -0.555,-0.576 -1.47,-0.806 -0.914,-0.23 -1.442,-0.011 -0.528,0.218 -0.94,0.886 -0.412,0.667 -0.484,1.628 -0.071,0.961 0.105,2.041 0.176,1.081 0.911,1.861 0.735,0.78 1.856,1.185 1.121,0.405 2.423,0.407 1.302,0 2.585,-1.165 1.282,-1.168 1.61,-1.536" />
        <path
           id="STROKE_bb35ad5e-4bb4-4bc2-acee-bf221d422983"
           opacity="1"
           fill="none"
           stroke="#000000"
           stroke-width="1.813"
           stroke-opacity="1"
           stroke-linecap="round"
           stroke-linejoin="round"
           d="m -565.53776,1875.1301 q -0.15,-0.33 0.516,10.166 -0.744,-0.01 -0.752,-2.691 -0.007,-2.683 -0.042,-4.085 -0.034,-1.402 0.237,-2.337 0.271,-0.934 1.181,-1.719 0.91,-0.784 2.021,-0.967 1.11,-0.182 1.999,0.056 0.889,0.237 2.136,1.565 1.247,1.327 1.623,4.22 0.375,2.893 -0.572,7.042 h -0.018 q -0.025,0.362 0.015,-0.329 0.039,-0.691 0.094,-1.018" />
        <path
           id="STROKE_7dd0a889-ab7f-48eb-8a21-907b6c412e8b"
           opacity="1"
           fill="none"
           stroke="#000000"
           stroke-width="1.577"
           stroke-opacity="1"
           stroke-linecap="round"
           stroke-linejoin="round"
           d="m -541.82676,1873.0101 q 0.149,0.036 -1.476,-0.083 -1.625,-0.12 -2.76,0.09 -1.136,0.21 -1.745,0.536 -0.61,0.326 -1.012,0.65 -0.402,0.325 -1.003,1.379 -0.6,1.055 -0.739,2.932 -0.139,1.876 -0.126,3.087 0.014,1.211 0.541,1.927 0.528,0.716 1.109,1.393 0.582,0.678 1.579,0.843 0.997,0.164 1.85,0.176 0.854,0.012 1.954,-0.691 1.1,-0.703 2.218,-2.817 1.118,-2.115 1.71,-3.658 0.591,-1.543 0.735,-5.15 -0.121,-0.368 -0.585,-0.233 -0.464,0.135 -0.621,0.392 -0.156,0.257 -0.347,0.651 -0.19,0.395 -0.269,1.239 -0.079,0.844 -0.098,2.231 -0.02,1.387 1.367,6.282 1.387,4.894 2.049,7.528 0.661,2.634 1.077,4.279 0.416,1.644 0.558,3.968 0.143,2.324 0.167,3.75 0.025,1.426 -0.368,2.593 -0.394,1.168 -1.584,2.654 -1.19,1.486 -3.176,2.283 -1.985,0.798 -4.203,0.971 -2.218,0.173 -5.676,0.245 -3.457,0.073 -6.433,-0.596 -2.976,-0.668 -5.974,-1.507 -2.999,-0.84 -4.171,-1.547 -1.173,-0.708 -1.306,-0.976" />
        <path
           id="STROKE_813fb0fd-2c88-49c2-a9a7-bd2ac69385e1"
           opacity="1"
           fill="none"
           stroke="#000000"
           stroke-width="1.828"
           stroke-opacity="1"
           stroke-linecap="round"
           stroke-linejoin="round"
           d="m -527.40376,1873.0101 q -0.415,-0.113 -1.291,0.253 -0.875,0.366 -1.457,1.212 -0.581,0.845 -0.867,2.446 -0.285,1.6 0.013,3.061 0.299,1.462 1.167,2.732 0.868,1.27 2.131,1.841 1.264,0.571 2.653,0.508 1.388,-0.063 1.922,-2.103 0.535,-2.039 0.521,-3.971 -0.014,-1.932 -0.004,-3.19 0.009,-1.258 -0.581,-2.17 -0.133,0.077 -0.224,0.155" />
        <path
           id="STROKE_bba34b01-cc89-4110-a47f-4659e59269be"
           opacity="1"
           fill="none"
           stroke="#000000"
           stroke-width="1.828"
           stroke-opacity="1"
           stroke-linecap="round"
           stroke-linejoin="round"
           d="m -516.25776,1878.2611 q -0.026,-0.297 -0.4,-0.888 -0.374,-0.59 -0.379,-1.166 -0.006,-0.576 0.26,-0.963 0.265,-0.387 0.615,-0.646 0.351,-0.259 0.295,-0.169 -0.055,0.09 0.146,-0.124 0.201,-0.214 1.548,-0.635 1.348,-0.421 2.37,-0.374 1.021,0.047 1.66,0.189 0.639,0.142 1.416,1.066 0.777,0.924 1.176,1.473 0.4,0.548 0.746,1.85 0.345,1.302 0.339,2.107 -0.006,0.804 -0.153,1.47 -0.148,0.667 -0.546,1.008 -0.399,0.342 -1.065,0.561 -0.666,0.22 -1.961,-0.623 -1.295,-0.844 -2.004,-1.9 -0.709,-1.056 -3.232,-1.999 -0.121,-0.262 0.05,1.256 0.17,1.518 1.786,2.991 1.616,1.474 3.398,2.36 1.782,0.887 3.349,0.771 1.567,-0.115 1.974,-0.27" />
        <path
           id="STROKE_76ec4085-6037-46ca-8db4-b980986eff90"
           opacity="1"
           fill="none"
           stroke="#000000"
           stroke-width="1.668"
           stroke-opacity="1"
           stroke-linecap="round"
           stroke-linejoin="round"
           d="m -493.22676,1874.2111 q 0.388,-0.103 -0.449,-0.355 -0.837,-0.251 -1.512,-0.28 -0.675,-0.029 -0.81,-0.047 -0.135,-0.017 -1.134,0.606 -1,0.624 -2.008,2.166 -1.009,1.543 -1.201,2.959 -0.191,1.416 -0.248,2.63 -0.058,1.215 0.667,2.382 0.725,1.167 1.506,1.412 0.781,0.244 2.054,0.202 1.274,-0.042 2.514,-1.605 1.239,-1.562 1.858,-3.753 0.618,-2.19 0.878,-3.54 0.259,-1.35 -0.318,-2.467 0.22,0.01 -0.252,0.024 -0.473,0.018 -1.035,1.742 -0.562,1.723 -0.447,3.687 0.115,1.964 1.45,5.095 1.335,3.131 2.272,5.381 0.936,2.25 1.717,4.893 0.78,2.642 1.019,4.004 0.239,1.361 0.294,2.113 0.055,0.752 -0.106,1.884 -0.161,1.132 -1.516,2.326 -1.356,1.194 -3.36,1.794 -2.004,0.6 -4.468,0.685 -2.464,0.085 -4.57,-0.434 -2.106,-0.519 -4.177,-1.855 -2.071,-1.335 -3.025,-2.199 -0.954,-0.863 -1.454,-1.437 -0.501,-0.574 -0.42,-1.282 0.081,-0.708 0.563,-1.287 0.481,-0.579 0.833,-0.907" />
        <path
           id="STROKE_7d22e382-5dfe-4039-8fd7-d52c25f2d155"
           opacity="1"
           fill="none"
           stroke="#000000"
           stroke-width="1.745"
           stroke-opacity="1"
           stroke-linecap="round"
           stroke-linejoin="round"
           d="m -482.77376,1877.8791 q 0,0 -0.03,0.261 -0.03,0.261 -0.007,0.126 0.935,0.431 0.776,0.405 -0.159,-0.026 1.171,0.16 1.33,0.187 2.157,0.144 0.826,-0.042 1.322,-0.303 0.496,-0.261 0.668,-0.761 0.173,-0.5 0.253,-1.209 0.08,-0.708 -0.504,-1.57 -0.583,-0.862 -1.458,-1.366 -0.874,-0.503 -1.905,-0.566 -1.031,-0.063 -2.196,0.376 -1.166,0.439 -2.225,1.398 -1.059,0.958 -2.173,2.349 -1.115,1.391 -1.537,3.552 -0.422,2.162 -0.422,3.584 0,1.421 0.433,2.532 0.433,1.111 1.249,1.844 0.816,0.733 2.486,1.189 1.671,0.456 3.627,-0.023 1.957,-0.479 4.048,-2.58 2.092,-2.102 2.668,-2.78" />
        <path
           id="STROKE_367c5d42-04cb-4513-a71d-1e0729a8fe39"
           opacity="1"
           fill="none"
           stroke="#000000"
           stroke-width="1.828"
           stroke-opacity="1"
           stroke-linecap="round"
           stroke-linejoin="round"
           d="m -438.61776,1871.7721 q 0,-0.601 0,-0.638 0,-0.037 -0.028,-0.025 -0.029,0.011 0.023,-0.188 0.052,-0.2 -0.502,-0.47 -0.553,-0.271 -1.826,-0.291 -1.273,-0.02 -2.599,0.418 -1.326,0.438 -2.266,1.222 -0.939,0.784 -1.396,1.179 -0.456,0.394 -0.67,1.075 -0.215,0.68 -0.108,1.039 0.107,0.359 0.328,0.573 0.221,0.214 0.566,0.369 0.344,0.155 0.654,0.426 0.311,0.271 2.999,0.532 2.689,0.261 4.171,0.288 1.482,0.027 2.238,0.214 0.755,0.187 1.285,0.888 0.53,0.702 -0.546,2.047 -1.076,1.345 -3.188,2.482 -2.112,1.137 -3.731,1.78 -1.62,0.643 -3.83,0.222 -0.711,-0.11 0.042,-1.409 0.753,-1.298 1.063,-1.567" />
        <path
           id="STROKE_cca696aa-e738-4016-8f0e-51071f91c4cf"
           opacity="1"
           fill="none"
           stroke="#000000"
           stroke-width="1.504"
           stroke-opacity="1"
           stroke-linecap="round"
           stroke-linejoin="round"
           d="m -432.68076,1880.2001 q -0.041,-0.116 -0.425,0.628 -0.385,0.744 -0.28,2.664 0.106,1.919 0.084,7.029 -0.022,5.109 -0.254,8.873 -0.232,3.765 -0.473,6.58 -0.007,-0.472 0.179,-3.055 0.185,-2.583 0.282,-3.279" />
        <path
           id="STROKE_461ec63c-471e-4a69-b6e3-9a18bfaa4123"
           opacity="1"
           fill="none"
           stroke="#000000"
           stroke-width="1.828"
           stroke-opacity="1"
           stroke-linecap="round"
           stroke-linejoin="round"
           d="m -433.79776,1878.8441 q -0.227,-0.149 -0.66,-1.263 -0.433,-1.114 -0.317,-2.045 0.115,-0.931 0.297,-1.539 0.182,-0.607 1.243,-1.557 1.06,-0.949 1.83,-1.55 0.77,-0.6 1.953,-0.922 1.183,-0.323 2.218,-0.305 1.036,0.017 1.851,0.791 0.815,0.774 1.331,2.241 0.516,1.466 0.585,2.76 0.069,1.293 -0.042,2.781 -0.111,1.488 -0.784,2.719 -0.673,1.23 -1.079,1.722 -0.406,0.493 -1.166,0.99 -0.761,0.497 -1.991,0.776 -1.231,0.28 -1.745,-0.969 -0.513,-1.249 -0.671,-1.654" />
        <path
           id="STROKE_b170f0e7-3eea-4678-b68a-dbad663bbbd1"
           opacity="1"
           fill="none"
           stroke="#000000"
           stroke-width="1.828"
           stroke-opacity="1"
           stroke-linecap="round"
           stroke-linejoin="round"
           d="m -420.91676,1875.6771 q 0.392,0.429 0.407,0.386 0.723,0.357 0.619,0.269 0.187,0.09 1.374,0.253 1.188,0.163 1.971,0.021 0.784,-0.142 1.012,-0.183 0.228,-0.042 0.826,-0.397 0.598,-0.355 0.996,-0.749 0.398,-0.394 0.578,-0.734 0.18,-0.339 0.157,-0.241 -0.022,0.098 0.135,-0.409 0.157,-0.508 0.092,-0.872 -0.065,-0.363 -1.176,-0.947 -1.111,-0.584 -2.256,-0.806 -1.146,-0.221 -2.326,-0.337 -1.18,-0.117 -2.277,0.486 -1.098,0.604 -1.386,2.243 -0.288,1.639 -0.16,3.011 0.127,1.373 1.026,2.59 0.898,1.217 2.009,2.015 1.112,0.798 2.486,0.692 1.375,-0.107 1.757,-0.221" />
        <path
           id="STROKE_b814b4e0-cfea-482a-a7e0-30f7fad794b9"
           opacity="1"
           fill="none"
           stroke="#000000"
           stroke-width="1.828"
           stroke-opacity="1"
           stroke-linecap="round"
           stroke-linejoin="round"
           d="m -403.36076,1869.8431 q -0.096,0.129 -0.971,-0.078 -0.875,-0.207 -1.958,0.46 -1.082,0.668 -2.116,1.97 -1.034,1.303 -1.443,3.036 -0.409,1.732 -0.509,3.581 -0.099,1.85 0.804,2.914 0.904,1.065 2.368,1.293 1.464,0.229 2.469,0.217 1.004,-0.011 1.969,-0.714 0.965,-0.702 1.269,-0.975" />
        <path
           id="STROKE_f511912d-421e-436e-a5aa-cc441bb902ee"
           opacity="1"
           fill="none"
           stroke="#000000"
           stroke-width="1.828"
           stroke-opacity="1"
           stroke-linecap="round"
           stroke-linejoin="round"
           d="m -396.99976,1872.7011 q 0,0 -0.009,0 -0.009,0 -0.027,0 0.013,0.428 -0.692,12.441 0,-0.018 -0.03,-0.173 -0.031,-0.155 -0.091,-0.446" />
        <path
           id="STROKE_5f904dc2-6d28-4620-b123-7d34447d4fcf"
           opacity="1"
           fill="none"
           stroke="#000000"
           stroke-width="1.828"
           stroke-opacity="1"
           stroke-linecap="round"
           stroke-linejoin="round"
           d="m -396.61076,1864.7011 q 0.024,-0.134 -0.325,-0.063 -0.349,0.072 -0.65,0.408 -0.301,0.335 -0.146,0.555 0.156,0.219 0.308,0.41" />
        <path
           id="STROKE_091bcebe-27fa-4d57-953d-05e21d839d9e"
           opacity="1"
           fill="none"
           stroke="#000000"
           stroke-width="1.583"
           stroke-opacity="1"
           stroke-linecap="round"
           stroke-linejoin="round"
           d="m -381.92076,1864.5461 q -0.028,-0.173 0.616,-1.622 0.645,-1.448 0.872,-2.488 0.226,-1.039 0.283,-1.845 0.056,-0.807 -0.406,-1.588 -0.461,-0.78 -1.21,-1.44 -0.748,-0.659 -2.517,-0.883 -1.768,-0.225 -3.121,-0.062 -1.352,0.163 -2.575,0.722 -1.223,0.559 -1.949,3.674 -0.725,3.116 -0.735,8.555 -0.01,5.44 0.321,9.021 0.332,3.581 0.684,6.377 0.353,2.796 0.341,4.804 -0.012,2.009 -0.068,3.285 -0.055,1.277 -1.086,2.595 -0.248,-0.184 -0.403,-0.936 -0.156,-0.752 -0.313,-1.121" />
        <path
           id="STROKE_74f0299c-f225-4fbb-b24e-c284e8905a36"
           opacity="1"
           fill="none"
           stroke="#000000"
           stroke-width="1.828"
           stroke-opacity="1"
           stroke-linecap="round"
           stroke-linejoin="round"
           d="m -391.13576,1875.9041 q 0.247,-0.627 0.207,-0.4 0.491,-0.576 2.34,0.028 1.848,0.604 2.273,0.836" />
        <path
           id="STROKE_b5b28dc9-55ae-4ed3-b8f4-01ef94bb6ced"
           opacity="1"
           fill="none"
           stroke="#000000"
           stroke-width="1.828"
           stroke-opacity="1"
           stroke-linecap="round"
           stroke-linejoin="round"
           d="m -382.04176,1878.0701 q -1.051,-0.256 -1.402,8.237 h 0.036 q 0.079,-0.155 0.14,-0.31" />
        <path
           id="STROKE_64e9bf79-6769-409b-a1d3-baa4648161af"
           opacity="1"
           fill="none"
           stroke="#000000"
           stroke-width="1.828"
           stroke-opacity="1"
           stroke-linecap="round"
           stroke-linejoin="round"
           d="m -380.87676,1870.6891 q -0.01,-0.01 -1.736,0.237 0,0.018 0.404,0.375 0.404,0.357 0.592,0.553" />
        <path
           id="STROKE_b5036ad1-9df6-4055-a4b3-a666980228a0"
           opacity="1"
           fill="none"
           stroke="#000000"
           stroke-width="1.822"
           stroke-opacity="1"
           stroke-linecap="round"
           stroke-linejoin="round"
           d="m -366.68376,1873.0831 q 0.239,0.073 -1.083,-0.019 -1.322,-0.092 -2.593,0.256 -1.27,0.349 -2.366,1.798 -1.095,1.45 -1.62,3.782 -0.524,2.331 -0.584,3.56 -0.06,1.229 0.04,2.274 0.1,1.045 0.625,2.034 0.525,0.99 1.358,1.572 0.832,0.582 2.081,0.742 1.249,0.161 2.696,-1.143 1.446,-1.305 1.871,-1.787" />
      </g>
      <g
         id="par_g51794"
         transform="matrix(1,0,0,0.47870097,0,980.65894)">
        <path
           id="STROKE_f334d844-847d-49fc-9a9e-e73d44b4bda5"
           opacity="1"
           fill="none"
           stroke="#000000"
           stroke-width="1.212"
           stroke-opacity="1"
           stroke-linecap="round"
           stroke-linejoin="round"
           d="m -615.736,1805.835 q 0.202,0 -0.922,0 -0.197,-0.014 -0.126,2.26 0.071,2.274 -0.269,12.631 -0.341,10.357 -0.701,15.981 -0.359,5.623 -0.694,10.906 -0.335,5.283 -0.567,8.792 -0.232,3.509 -0.365,8.367 -0.134,4.859 -0.357,13.897 -0.224,9.038 -0.538,15.492 -0.315,6.453 -0.338,9.389 -0.023,2.936 -0.046,6.74 -0.023,3.803 0.08,9.443 0.102,5.64 0.199,8.523 0.098,2.882 0.078,7.243 -0.021,4.36 0.073,7.25 0.094,2.89 0.395,5.199 0,-0.224 0,-0.448" />
        <path
           id="STROKE_26cfbdf5-77fc-4840-b356-42bffb734af8"
           opacity="1"
           fill="none"
           stroke="#000000"
           stroke-width="1.21"
           stroke-opacity="1"
           stroke-linecap="round"
           stroke-linejoin="round"
           d="m -619.44,1806.579 q 0.11,0.153 -1.607,-0.319 0.009,0.187 0.042,-0.321 0.032,-0.509 2.094,-1.372 2.062,-0.863 3.837,-1.238 1.774,-0.375 5.075,-0.276 3.302,0.1 9.921,0.449 6.62,0.348 10.473,0.279 3.854,-0.068 8.415,-0.257 4.561,-0.188 10.664,-0.514 6.103,-0.325 15.166,-0.91 9.063,-0.584 14.037,-0.799 4.974,-0.216 7.955,-0.267 2.981,-0.05 6.129,-0.07 3.148,-0.019 4.979,0.208 1.832,0.227 10.224,0.642 8.393,0.415 17.145,0.567 8.753,0.152 12.875,0.27 4.121,0.117 6.467,0.118 2.346,10e-4 7.698,0 5.353,0 10.742,0 5.39,-0.01 9.618,0 4.228,10e-4 9.085,0.037 4.856,0.035 9.935,-0.077 5.079,-0.112 8.147,-0.202 3.069,-0.089 4.871,-0.206 1.803,-0.117 12.072,-0.395 10.269,-0.277 15.951,-0.248 5.682,0.029 8.204,-0.055 2.523,-0.085 7.101,0.831 4.578,0.916 7.837,2.106 3.26,1.19 5.013,1.977 1.752,0.788 2.719,1.417 0.966,0.629 1.403,1.149 0.437,0.52 0.598,0.849 0.161,0.33 0.546,0.517 0.385,0.187 1.988,7.789 1.604,7.602 2.646,12.233 1.042,4.631 1.292,6.898 0.25,2.266 0.418,3.203 0.168,0.936 0.507,6.279 0.339,5.343 0.364,10.196 0.026,4.852 -0.653,10.103 -0.678,5.251 -1.398,9.936 -0.721,4.684 -0.904,10.024 -0.183,5.34 -0.221,9.286 -0.039,3.946 -0.291,8.694 -0.251,4.749 -0.689,9.462 -0.437,4.714 -0.954,7.378 -0.516,2.663 -1.852,7 -1.336,4.336 -2.61,7.648 -1.274,3.313 -2.609,5.334 -1.334,2.022 -2.529,3.092 -1.194,1.07 -2.667,2.191 -1.472,1.122 -7.958,2.651 -6.486,1.528 -11.618,2.488 -5.133,0.961 -7.918,1.552 -2.784,0.592 -7.423,1.098 -4.64,0.506 -7.447,0.601 -2.808,0.095 -8.052,0.153 -5.245,0.058 -11.241,0.505 -5.996,0.446 -10.902,0.745 -4.907,0.299 -7.5,0.561 -2.594,0.262 -17.971,-0.185 -15.377,-0.447 -23.403,-0.696 -8.027,-0.25 -11.765,-0.243 -3.737,0.01 -7.056,0.07 -3.319,0.063 -10.741,-0.01 -7.423,-0.073 -16.71,-0.577 -9.287,-0.505 -19.75,-0.501 -10.462,0.01 -15.675,0.14 -5.213,0.135 -8.313,0.281 -3.1,0.146 -6.065,0.179 -2.965,0.032 -7.867,-0.193 -4.902,-0.225 -11.283,-0.252 -6.381,-0.028 -9.609,-0.107 -3.227,-0.079 -6.786,0.308 -3.558,0.388 -5.503,1.468 -1.945,1.079 -2.323,1.381" />
      </g>
    </g>
    <g
       id="g52324"
       transform="matrix(0.19242427,0,0,0.19242427,72.930499,-244.77031)">
      <g
         id="g20111">
        <path
           id="STROKE_bd08c55b-6275-443a-b676-58e35696b0a4"
           opacity="1"
           fill="none"
           stroke="#71c047"
           stroke-width="1.718"
           stroke-opacity="1"
           stroke-linecap="round"
           stroke-linejoin="round"
           d="m -337.271,1879.749 -0.204,0.02 q -0.021,0.034 5.459,-0.092 5.481,-0.125 10.023,-0.377 4.542,-0.252 6.676,-0.264 2.134,-0.012 3.395,-0.018 1.262,-0.01 12.33,0.245 11.068,0.251 17.622,0.445 6.554,0.194 10.755,-0.079 4.202,-0.273 6.58,-0.523 2.379,-0.25 6.23,-0.467 3.852,-0.216 12.321,-0.674 8.469,-0.458 16.045,-0.974 7.576,-0.516 11.584,-0.949 4.008,-0.434 5.976,-0.658 1.969,-0.224 2.564,-0.276 0.596,-0.051 1.355,-0.12 0.759,-0.068 2.127,-0.172 1.369,-0.104 2.368,-0.222 1,-0.118 10.072,-0.832 9.073,-0.715 29.613,-2.027 0.002,-0.032 -0.119,-0.231" />
        <path
           id="STROKE_fd6b671b-c610-4013-aa0e-55a7e7289d4a"
           opacity="1"
           fill="none"
           stroke="#71c047"
           stroke-width="1.789"
           stroke-opacity="1"
           stroke-linecap="round"
           stroke-linejoin="round"
           d="m -170.14,1861.838 q 0.029,-0.093 0.078,-0.165 0.049,-0.072 3.088,1.286 3.039,1.357 5.083,2.445 2.045,1.089 2.937,1.889 0.893,0.8 1.367,1.686 0.474,0.885 0.447,2.44 -0.027,1.556 -0.255,2.295 -0.228,0.739 -0.639,1.203 -0.411,0.463 -0.607,0.612 -0.196,0.15 -0.692,0.424 -0.495,0.274 -6.132,3.662 -5.637,3.387 -4.28,-0.678 1.357,-4.065 2.327,-6.992 0.971,-2.926 1.172,-4.487 0.2,-1.56 0.024,-2.344 -0.177,-0.785 -1.282,-1.999" />
      </g>
      <g
         id="par_gpar_20150">
        <g
           id="g58536">
          <path
             id="STROKE_402068e5-c74a-4bc6-a1e3-e3a7932a8e76"
             opacity="1"
             fill="none"
             stroke="#000000"
             stroke-width="1.419"
             stroke-opacity="1"
             stroke-linecap="round"
             stroke-linejoin="round"
             d="m -135.43176,1856.9906 q -0.021,0 -0.042,0 -0.225,0.249 2.69,-0.433 2.916,-0.682 6.778,-1.631 3.862,-0.949 5.935,-1.325 2.073,-0.375 3.356,-0.459 1.284,-0.084 5.696,-0.593 0.015,-0.133 0.015,-0.231" />
          <path
             id="STROKE_3665b9cb-87f1-4d6c-ba95-2681ecf87a74"
             opacity="1"
             fill="none"
             stroke="#000000"
             stroke-width="1.281"
             stroke-opacity="1"
             stroke-linecap="round"
             stroke-linejoin="round"
             d="m -122.09176,1856.0296 q -0.035,-0.112 -0.396,-0.019 -0.362,0.094 -0.335,0.01 0.026,-0.087 -0.106,-0.058 -0.133,0.03 -0.289,0.424 -0.157,0.394 -0.127,0.627 0.03,0.233 -0.004,0.445 -0.035,0.211 -0.004,0.365 0.03,0.153 1.177,3.637 1.147,3.484 1.818,8.163 0.672,4.679 0.788,7.178 0.115,2.5 0.143,3.875 0.029,1.376 0.31,7.686 -0.099,0.035 -0.198,0.06 -0.099,0.025 -0.234,0.057" />
          <path
             id="STROKE_0ed44926-ceda-4a20-bdbc-749f1a167590"
             opacity="1"
             fill="none"
             stroke="#000000"
             stroke-width="1.411"
             stroke-opacity="1"
             stroke-linecap="round"
             stroke-linejoin="round"
             d="m -132.75376,1887.9836 q 0.568,-0.03 6.161,-0.116 5.593,-0.086 12.371,-0.061 6.777,0.024 6.96,-0.089" />
          <path
             id="STROKE_30a841ce-229c-49b8-ae57-939c7e595fca"
             opacity="1"
             fill="none"
             stroke="#000000"
             stroke-width="1.764"
             stroke-opacity="1"
             stroke-linecap="round"
             stroke-linejoin="round"
             d="m -104.44776,1874.1786 q -0.439,-0.276 0.592,3.076 1.031,3.352 1.762,5.91 0.732,2.558 1.158,6.342 -0.493,-0.309 -1.055,-3.053 -0.563,-2.743 -0.608,-4.521 -0.046,-1.779 0.073,-2.992 0.119,-1.213 0.984,-2.362 0.865,-1.148 1.913999,-2.047 1.049,-0.899 2.677,-1.175 1.629,-0.276 2.732,-0.291 1.103,-0.015 1.968,0.577 0.865,0.592 1.831,2.184 0.967,1.591 1.291,6.432 0.324,4.842 0.407,4.99" />
          <path
             id="STROKE_b68898cd-6a05-4ff4-b936-28fdf2a66f48"
             opacity="1"
             fill="none"
             stroke="#000000"
             stroke-width="1.284"
             stroke-opacity="1"
             stroke-linecap="round"
             stroke-linejoin="round"
             d="m -76.475761,1852.2796 q -0.023,-0.115 -0.207,-0.32 -0.185,-0.204 -0.214,-0.173 -0.029,0.032 -0.03,0.029 -0.001,0 -0.182,-0.118 -0.181,-0.116 -0.587,0.611 -0.405,0.727 -0.7,2.584 -0.296,1.856 -0.357,2.849 -0.061,0.992 -0.141,5.185 -0.08,4.192 0.015,8.764 0.095,4.572 0.171,7.022 0.076,2.45 0.362,4.681 0.285,2.232 0.836,4.286 0.551,2.054 3.738,4.843 0.031,-0.082 0.047,-0.164" />
          <path
             id="STROKE_b9ac313d-ba22-4087-a43b-f86f29b7b3f0"
             opacity="1"
             fill="none"
             stroke="#000000"
             stroke-width="1.182"
             stroke-opacity="1"
             stroke-linecap="round"
             stroke-linejoin="round"
             d="m -92.431761,1862.2016 q -0.036,-0.417 -0.072,-0.354 -0.037,0.062 0.073,-0.231 0.111,-0.294 0.356,-0.379 0.246,-0.086 0.496,-0.186 0.25,-0.1 0.907,-0.447 0.656,-0.347 4.155,-1.366 3.5,-1.02 5.455,-1.614 1.956,-0.595 6.516,-1.282 4.561,-0.688 7.897,-0.715 3.335,-0.027 4.044,0" />
          <path
             id="STROKE_c20bd306-f758-4b0d-9a32-6f0d8e019de9"
             opacity="1"
             fill="none"
             stroke="#000000"
             stroke-width="1.821"
             stroke-opacity="1"
             stroke-linecap="round"
             stroke-linejoin="round"
             d="m -66.606761,1877.8586 q 0.099,-0.149 -0.273,0.276 -0.372,0.425 -0.298,0.882 0.075,0.457 0.191,0.62 0.115,0.162 0.918,0.737 0.803,0.575 2.405,0.738 1.602,0.163 2.522,0 0.92,-0.165 1.568,-0.421 0.649,-0.257 1.258,-0.722 0.609,-0.466 0.965,-1.214 0.355,-0.749 0.334,-1.657 -0.02,-0.907 -0.837,-1.848 -0.818,-0.94 -1.896,-1.653 -1.078,-0.714 -2.489,-0.984 -1.411,-0.27 -2.501,-0.151 -1.09,0.12 -2.515,1.015 -1.424,0.896 -2.449,1.717 -1.025,0.822 -1.663,2.168 -0.638,1.346 -0.47,2.614 0.169,1.268 0.441,2.149 0.272,0.882 1.166,2.306 0.893,1.425 2.059,2.631 1.165,1.205 3.152,1.783 1.987,0.578 3.458,0.678 1.472,0.1 2.937,-0.409 1.464,-0.509 2.517,-1.592 1.053,-1.083 1.35,-1.435" />
          <path
             id="STROKE_93ffacea-3a74-4942-a1a6-cf56bb0d83b1"
             opacity="1"
             fill="none"
             stroke="#000000"
             stroke-width="1.748"
             stroke-opacity="1"
             stroke-linecap="round"
             stroke-linejoin="round"
             d="m -49.295761,1875.9676 q -0.083,0.315 1.298,2.679 1.382,2.365 2.43,3.865 1.049,1.501 1.175,2.948 -0.11,0.121 -0.589,0.186 -0.479,0.064 -1.143,0.087 -0.664,0.022 -1.589,-1.044 -0.925,-1.067 -1.032,-3.17 -0.108,-2.104 -0.067,-3.162 0.04,-1.059 0.578,-2.18 0.537,-1.122 1.565,-2.328 1.029,-1.205 2.601,-2.226 1.573,-1.021 3.076,-1.606 1.504,-0.584 2.035,-0.783" />
          <path
             id="STROKE_2a7e933b-d94e-4a9b-9151-e35acda86666"
             opacity="1"
             fill="none"
             stroke="#000000"
             stroke-width="1.67"
             stroke-opacity="1"
             stroke-linecap="round"
             stroke-linejoin="round"
             d="m -28.337761,1874.7406 q -0.209,0.066 0.42,3.588 0.63,3.523 1.336,11.377 -0.113,0.129 -0.403,0.057 -0.29,-0.072 -0.382,-0.206 -0.092,-0.133 -0.188,-0.282 -0.096,-0.15 -0.393,-0.738 -0.296,-0.589 -0.608,-2.244 -0.312,-1.655 -0.344,-3.9 -0.033,-2.245 0.014,-3.73 0.048,-1.485 0.444,-2.647 0.396,-1.163 1.197,-1.949 0.801,-0.787 1.545,-1.323 0.744,-0.537 1.929,-0.838 1.185,-0.302 2.074,-0.197 0.889,0.105 1.748,0.506 0.859,0.402 1.798,1.723 0.938,1.321 1.252,4.29 0.314,2.968 0.412,4.885 0.099,1.916 -0.856,4.902 -0.068,0 -0.167,-0.016 0.028,0.287 -0.097,-1.943 -0.125,-2.23 0.254,-4.248 0.38,-2.019 1.07,-3.457 0.69,-1.437 1.364,-2.399 0.673,-0.963 1.879,-2.048 1.207,-1.084 2.672,-1.537 1.4649997,-0.453 2.6249997,-0.528 1.16,-0.074 1.833,0.943 0.673,1.017 0.86,2.084 0.187,1.067 0.265,3.319 0.077,2.252 -0.258,6.611 -0.336,4.359 -0.419,4.477" />
          <path
             id="STROKE_d26b6549-7d4d-4e78-b60c-36c60e12c822"
             opacity="1"
             fill="none"
             stroke="#000000"
             stroke-width="1.681"
             stroke-opacity="1"
             stroke-linecap="round"
             stroke-linejoin="round"
             d="m 3.5982387,1877.7086 q 0,0 0.138,0.12 0.139,0.119 2.187,0.107 2.048,-0.011 3.383,0.055 1.3350003,0.067 2.0120003,-0.014 0.678,-0.081 0.933,-0.25 0.255,-0.168 0.439,-0.583 0.184,-0.415 -0.42,-1.06 -0.604,-0.645 -1.705,-1.154 -1.1010003,-0.509 -2.3950003,-0.686 -1.295,-0.177 -2.304,-0.219 -1.009,-0.042 -2.133,0.536 -1.124,0.579 -2.023,1.41 -0.90000004,0.831 -1.42700004,1.699 -0.527,0.869 -0.802,1.515 -0.276,0.645 -0.392,1.31 -0.11599996,0.665 -0.17999996,1.573 -0.064,0.908 0.22399996,1.951 0.287,1.043 0.938,1.981 0.651,0.938 1.66900004,1.497 1.018,0.558 1.843,0.779 0.824,0.22 2.295,0.202 1.471,-0.017 2.506,-0.208 1.035,-0.19 2.9720003,-0.955 1.937,-0.766 3.47,-1.542 1.532,-0.775 2.195,-1.139" />
          <path
             id="STROKE_a0a7d9d0-73fd-4573-b01a-68f97b84b3c7"
             opacity="1"
             fill="none"
             stroke="#000000"
             stroke-width="1.672"
             stroke-opacity="1"
             stroke-linecap="round"
             stroke-linejoin="round"
             d="m 28.473239,1858.4546 h -0.012 q -0.288,-0.105 0.482,2.896 0.77,3.001 1.206,5.182 0.436,2.181 0.694,4.504 0.257,2.323 1.497,12.506 0.011,-0.113 -0.404,-1.802 -0.415,-1.688 -0.94,-3.068 -0.525,-1.38 -1.028,-2.172 -0.502,-0.792 -0.903,-1.31 -0.401,-0.518 -1.315,-0.744 -0.914,-0.226 -1.585,-0.24 -0.671,-0.013 -1.386,0.26 -0.714,0.273 -1.503,0.985 -0.789,0.713 -1.42,1.848 -0.631,1.135 -0.837,2.533 -0.206,1.399 -0.231,2.482 -0.025,1.084 0.392,2.17 0.417,1.086 0.961,1.877 0.543,0.792 1.483,1.414 0.939,0.621 2.324,0.907 1.385,0.285 2.8,0.131 1.416,-0.153 3.121,-1.373 1.705,-1.22 2.057,-1.533" />
          <path
             id="STROKE_69d75edc-ca30-40be-beef-85ee9cc1b1d2"
             opacity="1"
             fill="none"
             stroke="#000000"
             stroke-width="1.639"
             stroke-opacity="1"
             stroke-linecap="round"
             stroke-linejoin="round"
             d="m 39.198239,1876.0476 q 0,-0.015 0,-0.134 h -0.012 q -0.086,-0.108 -0.121,2.771 -0.036,2.88 0.861,7.56 -0.018,-0.137 -0.14,-0.427 -0.122,-0.29 -0.228,-0.51" />
          <path
             id="STROKE_59afd466-c994-4674-85db-73c4a5f3300a"
             opacity="1"
             fill="none"
             stroke="#000000"
             stroke-width="1.828"
             stroke-opacity="1"
             stroke-linecap="round"
             stroke-linejoin="round"
             d="m 36.525239,1872.9226 q -0.034,0.055 -0.355,-0.962 0.106,-0.052 0.735,-0.058 0.63,-0.01 0.887,0.034" />
          <path
             id="STROKE_dcfe9216-8a83-40c1-9457-b06f6a3cabde"
             opacity="1"
             fill="none"
             stroke="#000000"
             stroke-width="1.828"
             stroke-opacity="1"
             stroke-linecap="round"
             stroke-linejoin="round"
             d="m 46.392239,1877.2676 q -0.185,0.047 0.383,-0.871 0.568,-0.919 1.23,-1.41 0.662,-0.491 1.584,-0.744 0.923,-0.252 1.52,-0.202 0.596,0.049 1.182,0.305 0.586,0.255 1.255,1.065 0.669,0.811 0.989,2.607 0.321,1.796 0.186,3.245 -0.135,1.449 -0.471,2.375 -0.336,0.926 -0.595,1.474 -0.258,0.549 -0.614,0.785 -0.356,0.237 -0.429,0.137 -0.074,-0.1 -0.259,-0.242 -0.184,-0.143 -0.229,-0.348 -0.044,-0.205 -0.069,-0.24 -0.024,-0.035 -0.048,-0.099 -0.024,-0.064 -0.275,-0.971 -0.252,-0.907 -0.591,-1.844 -0.339,-0.937 -0.71,-1.491 -0.372,-0.553 -1.091,-0.704 -0.719,-0.151 -1.367,0.471 -0.648,0.621 -1.137,1.428 -0.488,0.807 -0.536,1.485 -0.047,0.678 -0.042,1.079 0.006,0.401 0.364,0.901 0.359,0.501 1.187,1.155 0.828,0.654 2.723,0.966 1.895,0.312 3.461,-0.289 1.567,-0.601 1.955,-0.837" />
          <path
             id="STROKE_2ec7b24c-af12-4ea9-a2e5-ee049cbf3ce9"
             opacity="1"
             fill="none"
             stroke="#000000"
             stroke-width="1.32"
             stroke-opacity="1"
             stroke-linecap="round"
             stroke-linejoin="round"
             d="m 62.390239,1856.5306 q -0.096,0 -0.749,0.105 -0.653,0.107 0.003,3.247 0.656,3.14 1.018,6.304 0.363,3.165 0.494,4.849 0.131,1.684 0.22,3.26 0.088,1.576 0.136,2.44 0.047,0.865 0.145,2.857 0.097,1.991 0.159,3.242 0.063,1.251 -0.049,2.077 -0.111,0.825 -0.464,1.311 -0.352,0.485 -0.727,0.528 -0.374,0.043 -0.53,-0.01" />
          <path
             id="STROKE_85704514-1097-44f0-8d34-ad494f55ffd9"
             opacity="1"
             fill="none"
             stroke="#000000"
             stroke-width="1.352"
             stroke-opacity="1"
             stroke-linecap="round"
             stroke-linejoin="round"
             d="m 52.727239,1866.5986 q -0.05,-0.055 0.02,-0.353 0.07,-0.297 0.983,-0.675 0.913,-0.377 4.015,-0.657 3.102,-0.28 6.008,-0.169 2.907,0.111 4.653,0.605 1.745,0.495 2.346,0.728" />
          <path
             id="STROKE_4b68eaef-04ff-4c62-8c9e-9c5f7140594a"
             opacity="1"
             fill="none"
             stroke="#000000"
             stroke-width="1.81"
             stroke-opacity="1"
             stroke-linecap="round"
             stroke-linejoin="round"
             d="m 73.687239,1876.3296 q 0.313,0.645 0.245,0.432 0.565,0.242 0.556,0.193 0.485,0.171 2.086,0.229 1.6,0.058 2.598,0.042 0.998,-0.015 1.607,-0.314 0.609,-0.299 0.781,-0.691 0.173,-0.392 0.05,-1.026 -0.123,-0.633 -0.634,-1.364 -0.51,-0.731 -1.279,-1.345 -0.77,-0.613 -1.74,-0.904 -0.97,-0.291 -2.054,-0.194 -1.084,0.098 -2.199,0.917 -1.115,0.819 -1.985,2.033 -0.869,1.213 -1.268,2.635 -0.399,1.422 -0.405,2.608 -0.007,1.186 0.164,1.974 0.171,0.788 0.779,1.605 0.609,0.817 1.258,1.451 0.649,0.633 1.835,1.083 1.186,0.45 2.252,0.456 1.066,0.01 1.737,-0.069 0.672,-0.075 2.036,-1.265 1.363,-1.191 2.08,-2.099 0.717,-0.908 1.056,-1.337" />
        </g>
        <path
           id="STROKE_260d4258-3b63-4b8f-8e5f-85facac3c0fd"
           opacity="1"
           fill="none"
           stroke="#000000"
           stroke-width="1.03233"
           stroke-opacity="1"
           stroke-linecap="round"
           stroke-linejoin="round"
           d="m -151.725,1839.1569 q 0,0 0.048,-0.021 0.049,-0.022 -0.431,1.5601 -0.48,1.582 -0.613,3.4085 -0.133,1.8271 -0.077,3.2335 0.055,1.4065 0.421,2.6801 0.366,1.2736 0.5,2.6594 0.133,1.3862 0.104,2.3563 -0.029,0.9707 -0.194,2.1694 -0.165,1.1986 -0.282,3.1433 -0.117,1.9451 -0.263,3.1782 -0.145,1.2332 -0.07,3.7766 0.074,2.544 0.303,3.8082 0.228,1.2643 0.345,2.5462 0.117,1.2818 0.102,3.6994 -0.015,2.4182 0.017,5.4171 0.031,2.9989 -0.012,4.3874 -0.043,1.3884 0.069,3.8531 0.112,2.4651 0.351,3.8011 0.238,1.336 0.497,3.075 0.26,1.7394 0.325,3.0568 0.065,1.318 0.454,3.146 0.389,1.8282 0.57,2.8048 0.18,0.9761 0.292,1.4202 0.112,0.4435 0.376,0.7038 0.263,0.2603 0.429,0.3981 0.166,0.1373 0.351,0.2439 0.186,0.1067 0.338,0.175 0.152,0.069 0.618,0.2669 0.465,0.1979 2.043,0.4664 1.578,0.2685 2.86,0.4714 1.281,0.2029 4.566,0.3729 3.284,0.1695 8.584,0.1613 5.3,-0.01 8.988,0.079 3.688,0.087 8.103,0.2668 4.416,0.1799 7.474,0.1903 3.058,0.01 5.64,0.012 2.583,0 4.617,-5e-4 2.034,0 4.054,-0.01 2.019,0 4.007,0.019 1.987,0.021 7.46,0.033 5.472,0.012 9.178,0.01 3.706,0 5.47,0 1.765,6e-4 3.142,-0.01 1.378,-0.01 5.177,0.01 3.798,0.014 9.164,0.012 5.365,-0.01 8.216,-0.04 2.851,-0.036 6.001,-0.1553 3.149,-0.1187 7.477,-0.2505 4.328,-0.1323 6.622,-0.2006 2.295,-0.068 4.445,-0.1526 2.151,-0.084 8.991,-0.2735 6.84,-0.1892 10.454,-0.2548 3.614,-0.065 5.333,-0.056 1.718,0.01 5.03,-0.025 3.313,-0.035 8.281,0.05 4.967,0.085 7.454,0.1592 2.487,0.074 4.302,0.1197 1.815,0.045 7.272,0.1274 5.456,0.082 8.221,0.1296 2.764,0.047 4.951,0.1253 2.187,0.078 11.616,0.1077 9.43,0.03 14.217,0.038 4.787,0.01 6.869,0.017 2.083,0.01 3.133,-0.039 1.049,-0.047 2.116,-0.2351 1.067,-0.1877 2.134,-0.5474 1.067,-0.3599 2.002,-0.7733 0.935,-0.4135 2.01,-1.2506 1.075,-0.8373 1.725,-2.0671 0.65,-1.2299 1.225,-3.1061 0.575,-1.8763 0.806,-2.8732 0.231,-0.9974 0.5,-2.2432 0.27,-1.2462 0.448,-2.0589 0.179,-0.8126 0.306,-1.5612 0.128,-0.7492 0.75,-3.1417 0.622,-2.3924 0.897,-4.349 0.275,-1.9567 0.215,-4.2419 -0.06,-2.2848 0.001,-3.7104 0.06,-1.4251 0.174,-2.1475 0.114,-0.7224 0.324,-2.5494 0.21,-1.827 0.156,-3.2904 -0.053,-1.4628 -0.197,-2.1781 -0.144,-0.7153 -0.411,-1.6116 -0.268,-0.8962 -0.475,-3.2313 -0.206,-2.3356 -0.16,-3.5327 0.046,-1.1964 -0.069,-2.6265 -0.116,-1.43 -0.636,-3.4878 -0.52,-2.0583 -0.769,-3.187 -0.249,-1.1293 -0.34,-1.8309 -0.092,-0.701 -0.116,-1.011 -0.025,-0.3101 -0.155,-1.1632 -0.13,-0.8531 -0.349,-1.8615 -0.218,-1.0089 -0.231,-2.2054 -0.013,-1.196 -0.137,-2.0753 -0.123,-0.8794 -0.649,-1.6608 -0.527,-0.782 -1.164,-1.395 -0.638,-0.6136 -1.728,-1.0106 -1.09,-0.397 -3.432,-0.6672 -2.343,-0.2701 -5.054,-0.4451 -2.712,-0.1755 -8.075,-0.1537 -5.363,0.021 -8.659,0.04 -3.296,0.018 -4.998,0.013 -1.702,-0.01 -3.257,-0.01 -1.556,-6e-4 -3.489,0 -1.933,0 -6.237,0.014 -4.305,0.013 -9.808,-0.084 -5.504,-0.097 -10.975,-0.1443 -5.47,-0.048 -11.934,-0.028 -6.463,0.02 -11.173,-0.023 -4.71,-0.043 -7.029,-0.057 -2.318,-0.014 -3.332,-0.014 -1.015,6e-4 -4.357,-0.014 -3.342,-0.015 -7.759,0.075 -4.418,0.09 -6.657,0.1236 -2.24,0.033 -3.412,0.046 -1.173,0.013 -5.786,0.014 -4.613,0 -9.896,0.032 -5.283,0.031 -7.904,0.1066 -2.621,0.077 -7.604,0.1291 -4.983,0.053 -7.648,0.042 -2.664,-0.01 -3.987,-0.011 -1.324,-5e-4 -6.678,6e-4 -5.355,5e-4 -11.582,0.018 -6.226,0.018 -11.966,-0.055 -5.74,-0.073 -8.96,-0.1848 -3.219,-0.111 -7.571,-0.065 -4.351,0.047 -6.434,0.1011 -2.082,0.054 -3.319,0.1313 -1.236,0.076 -4.463,0.228 -3.227,0.152 -7.825,0.1793 -4.599,0.028 -7.936,0.1154 -3.337,0.088 -5.852,0.2275 -2.515,0.1389 -4.628,0.2023 -2.113,0.063 -5.632,0.4692 -3.519,0.4064 -3.971,0.4998" />
      </g>
    </g>
    <g
       id="g20024"
       transform="matrix(0.19242427,0,0,0.19242427,72.799479,-240.05359)">
      <path
         id="STROKE_db6c1831-2c2a-487d-85d6-87bb8815c459"
         opacity="1"
         fill="none"
         stroke="#71c047"
         stroke-width="1.348"
         stroke-opacity="1"
         stroke-linecap="round"
         stroke-linejoin="round"
         d="m -37.839,1789.448 q -0.208,0.189 -0.894,0.675 -0.686,0.486 -1.789,0.898 -1.103,0.411 -1.806,0.647 -0.703,0.237 -1.437,0.52 -0.734,0.284 -2.839,0.735 -2.105,0.45 -5.701,0.466 -3.596,0.016 -5.589,-0.117 -1.993,-0.133 -3.225,-0.303 -1.232,-0.171 -3.107,-0.718 -1.875,-0.546 -3.259,-1.245 -1.383,-0.699 -3.687,-2.533 -2.304,-1.835 -4.562,-4.128 -2.258,-2.293 -3.842,-4.574 -1.583,-2.282 -2.499,-3.845 -0.915,-1.564 -1.568,-2.912 -0.653,-1.347 -1.108,-2.48 -0.456,-1.132 -1.068,-3.504 -0.612,-2.371 -1.003,-5.873 -0.392,-3.501 -0.289,-6.575 0.103,-3.074 1.038,-7.286 0.935,-4.212 1.801,-7.258 0.867,-3.046 2.42,-6.682 1.553,-3.635 4.123,-7.464 2.569,-3.828 4.736,-6.29 2.168,-2.462 3.519,-3.971 1.351,-1.509 5.89,-5.141 4.54,-3.632 8.075,-5.945 3.536,-2.313 5.544,-3.459 2.008,-1.146 3.035,-1.661 1.028,-0.516 1.645,-0.826 0.618,-0.311 3.147,-1.344 2.53,-1.033 5.287,-1.677 2.756,-0.645 4.285,-0.901 1.529,-0.255 2.9,-0.408 1.371,-0.153 2.366,-0.238 0.996,-0.084 4.287,-0.216 3.292,-0.131 6.347,0.141 3.056,0.272 5.672,0.938 2.615,0.666 4.747,1.707 2.131,1.041 3.439,1.925 1.309,0.883 3.282,2.606 1.973,1.723 3.253,3.384 1.28,1.66 1.813,2.522 0.533,0.861 1.074,1.831 0.54,0.97 1.484,3.118 0.943,2.148 1.991,5.422 1.048,3.273 1.269,7.623 0.222,4.35 0.204,6.466 -0.018,2.117 -0.371,4.938 -0.353,2.822 -1.326,6.684 -0.973,3.861 -2.667,9.441 -1.693,5.579 -2.556,9.091 -0.864,3.512 -2.336,6.999 -0.444,-0.055 -0.456,-0.047 -0.012,0.01 -0.965,-1.209 -0.953,-1.218 -1.381,-1.786" />
      <path
         id="STROKE_9f983c3b-1041-40ef-8837-29740be6bb43"
         opacity="1"
         fill="none"
         stroke="#71c047"
         stroke-width="1.722"
         stroke-opacity="1"
         stroke-linecap="round"
         stroke-linejoin="round"
         d="m -6.914,1762.784 q -0.114,-0.167 -0.375,-0.795 0.425,0.049 1.473,5.701 1.048,5.652 1.392,9.101 0.344,3.449 0.77,5.278 0.425,1.83 0.765,2.576 0.34,0.745 0.707,1.192 0.367,0.448 0.831,0.566 0.464,0.118 0.763,0 0.299,-0.121 0.726,-0.53 0.427,-0.409 0.633,-0.675 0.205,-0.266 1.789,-2.801 1.584,-2.536 3.086,-5.904 1.501,-3.369 2.668,-5.518 1.166,-2.149 1.835,-3.163 0.669,-1.014 3.629,-5.207 l -0.192,-0.231 q -0.49,-0.334 -1.011,-0.527 -0.52,-0.194 -1.55,-0.536 -1.03,-0.343 -9.11,-0.703 -8.08,-0.361 -8.598,-0.49" />
    </g>
    <g
       id="g52405"
       transform="matrix(0.19242427,0,0,0.19242427,72.930499,-244.77031)">
      <g
         id="g20154">
        <path
           id="STROKE_14e683ca-6ba1-4a0e-8a5d-dd61020845e6"
           opacity="1"
           fill="none"
           stroke="#71c047"
           stroke-width="1.751"
           stroke-opacity="1"
           stroke-linecap="round"
           stroke-linejoin="round"
           d="m 118.753,1879.526 q -0.151,0.087 -0.17,0.112 0.146,0.152 3.719,-0.042 3.573,-0.194 7.368,-0.541 3.795,-0.347 8.578,-0.536 4.783,-0.19 10.735,-0.284 5.952,-0.093 10.798,-0.181 4.846,-0.087 9.05,-0.256 4.204,-0.168 7.621,-0.363 3.418,-0.194 5.729,-0.374 2.312,-0.181 15.849,-1.068 13.537,-0.887 20.621,-1.368 7.085,-0.48 10.104,-0.539 3.02,-0.058 7.155,-0.214 4.136,-0.155 7.889,-0.305 3.754,-0.15 6.77,-0.428 3.015,-0.277 9.704,-0.613 6.688,-0.336 10.14,-0.368 3.453,-0.031 5.668,-0.026 2.216,0.01 3.835,0 1.618,-10e-4 3.048,0 1.43,-10e-4 5.181,-0.018 3.752,-0.018 5.826,0.011 2.075,0.028 6.154,0.011 4.078,-0.016 7.555,-0.302 3.477,-0.285 7.137,-0.612 0.052,-0.068 0.037,-0.291" />
        <path
           id="STROKE_0c6d6845-50d1-4f1a-9d0a-1f757d136035"
           opacity="1"
           fill="none"
           stroke="#71c047"
           stroke-width="1.762"
           stroke-opacity="1"
           stroke-linecap="round"
           stroke-linejoin="round"
           d="m 305.895,1861.373 -0.039,0.107 q 0.111,0.096 5.093,2.229 4.983,2.134 7.949,3.409 2.966,1.274 4.562,2.181 1.595,0.906 2.263,1.424 0.668,0.518 0.77,0.714 0.102,0.195 0.152,0.365 0.049,0.169 0.014,0.371 -0.035,0.202 -0.097,0.328 -0.062,0.126 -0.115,0.174 -0.053,0.048 -1.908,1.723 -1.854,1.675 -4.694,3.636 -2.839,1.961 -4.82,3.023 -1.981,1.063 -3.444,1.493 -1.464,0.43 -3.268,1.146 0,0.012 1.014,-3.393 1.015,-3.405 1.78,-6.215 0.764,-2.811 0.999,-5.074 0.235,-2.263 0.004,-3.806 -0.232,-1.543 -1.453,-2.651 -1.221,-1.108 -1.71,-1.448" />
      </g>
      <g
         id="par_g20224">
        <g
           id="par_g52198"
           transform="matrix(1,0,0,0.47240569,0,987.4379)">
          <path
             id="STROKE_134bd094-49a9-493a-8ec3-1df564d084d4"
             opacity="1"
             fill="none"
             stroke="#000000"
             stroke-width="1.209"
             stroke-opacity="1"
             stroke-linecap="round"
             stroke-linejoin="round"
             d="m 328.313,1812.344 q -0.312,0 -0.48,0.03 -0.071,-0.388 -0.198,1.636 -0.126,2.024 -0.108,6.897 0.017,4.874 -0.073,8.403 -0.089,3.528 0.756,12.211 0.845,8.682 1.677,14.527 0.832,5.845 1.281,14.947 0.449,9.102 0.537,16.26 0.088,7.158 0.952,15.422 0.865,8.263 1.155,13.239 0.291,4.975 0.501,7.317 0.211,2.343 -0.083,5.069 -0.294,2.727 -0.968,10.716 0.108,0.04 -0.121,-0.046 -0.229,-0.086 1.523,0.595 0.201,-0.279 0.404,-0.89 0.203,-0.61 0.353,-1.112" />
          <path
             id="STROKE_2befb79f-9332-45e6-aaa2-eece52c4570e"
             opacity="1"
             fill="none"
             stroke="#000000"
             stroke-width="1.127"
             stroke-opacity="1"
             stroke-linecap="round"
             stroke-linejoin="round"
             d="m 328.959,1810.041 q 0.263,-0.36 12.582,-2.709 12.319,-2.35 21.165,-4.099 8.846,-1.749 14.417,-2.81 5.571,-1.062 9.614,-1.886 4.042,-0.823 14.103,-2.142 10.06,-1.319 15.299,-1.868 5.239,-0.549 11.625,-1.136 6.387,-0.588 12.659,-1.101 6.272,-0.513 10.731,-0.739 4.459,-0.225 7.608,-0.326 3.15,-0.101 5.912,-0.143 2.762,-0.042 6.356,-0.042 3.595,-10e-4 6.989,-0.01 3.394,-0.01 8.006,0.061 4.613,0.069 18.087,0.169 13.474,0.099 20.859,-0.061 7.386,-0.159 14.859,0.623 7.474,0.782 11.279,1.261 3.805,0.478 6.527,0.541 2.723,0.063 7.331,0.103 4.608,0.04 9.414,0.363 4.806,0.322 8.48,1.168 3.675,0.846 5.526,1.386 1.852,0.54 4.498,2.011 2.646,1.471 4.368,2.899 1.722,1.428 2.692,2.543 0.971,1.116 2.019,4.464 1.048,3.348 1.673,7.466 0.625,4.118 1.024,6.536 0.399,2.418 0.985,5.887 0.586,3.468 1.424,11.609 0.838,8.14 1.237,12.488 0.4,4.348 0.617,6.862 0.217,2.514 0.337,4.344 0.119,1.831 0.158,3.034 0.039,1.203 0.068,2.08 0.029,0.877 0.115,4.681 0.086,3.803 0.103,8.687 0.017,4.884 0.096,12.492 0.079,7.608 -0.094,11.98 -0.173,4.372 -0.235,6.477 -0.062,2.105 -0.986,4.809 -0.924,2.704 -1.617,4.366 -0.694,1.662 -2.139,3.422 -1.446,1.759 -3.748,3.528 -2.302,1.768 -7.098,3.956 -4.796,2.188 -11.88,4.507 -7.083,2.318 -13.347,3.599 -6.264,1.281 -9.787,1.986 -3.524,0.706 -12.829,1.85 -9.305,1.143 -19.104,2.229 -9.8,1.085 -19.447,1.983 -9.647,0.898 -14.216,1.357 -4.57,0.459 -10.198,0.841 -5.628,0.382 -8.615,0.446 -2.986,0.065 -9.37,0.108 -6.384,0.043 -10.004,0.16 -3.621,0.117 -8.751,0.134 -5.13,0.018 -8.303,0.099 -3.173,0.082 -15.137,0.015 -11.964,-0.067 -18.378,-0.057 -6.414,0.01 -11.087,-0.275 -4.674,-0.284 -13.309,-1.097 -8.634,-0.813 -14.572,-1.371 -5.938,-0.558 -12.278,-0.734 -6.34,-0.177 -10.224,-0.544 -3.885,-0.368 -6.082,-0.6 -2.197,-0.232 -3.424,-0.196 -1.226,0.037 -1.825,0.09" />
        </g>
        <g
           id="g52261">
          <path
             id="STROKE_5c785c9d-8524-42d0-90e3-d6a56fba6ebf"
             opacity="1"
             fill="none"
             stroke="#000000"
             stroke-width="1.534"
             stroke-opacity="1"
             stroke-linecap="round"
             stroke-linejoin="round"
             d="m 349.75224,1858.4022 q -0.83,0.7 -0.609,0.561 -0.053,0.403 -0.422,0.901 -0.368,0.498 -1.263,5.848 -0.896,5.35 -1.252,9.559 -0.357,4.21 -0.629,8.126 -0.168,-0.388 -0.18,-5.42 -0.012,-5.031 -0.04,-8.716 -0.028,-3.685 0.078,-5.836 0.106,-2.15 0.592,-3.583 0.487,-1.432 1.06,-2.156 0.573,-0.725 1.046,-1.065 0.473,-0.34 0.754,-0.519 0.282,-0.179 0.568,-0.275 0.286,-0.095 0.691,-0.191 0.405,-0.095 0.685,-0.109 0.279,-0.015 0.443,0.034 0.164,0.049 0.734,-0.057 0.571,-0.106 1.706,2.355 1.135,2.46 3.236,22.358 h 0.022 q 0.083,0.26 0.035,-4.156 -0.048,-4.416 0.417,-8.474 0.465,-4.057 1.379,-6.883 0.914,-2.826 1.858,-4.457 0.944,-1.631 1.681,-2.49 0.737,-0.859 1.419,-1.151 0.682,-0.291 1.227,-0.363 0.545,-0.073 1.226,0.716 0.681,0.789 1.411,3.45 0.73,2.66 1.602,9.277 0.872,6.617 1.281,10.721 0.409,4.104 1.785,6.902 0.367,0 0.543,-0.528 0.176,-0.529 0.367,-0.881" />
          <path
             id="STROKE_b0b4fd0f-faf5-40b5-a972-2585a703760f"
             opacity="1"
             fill="none"
             stroke="#000000"
             stroke-width="1.828"
             stroke-opacity="1"
             stroke-linecap="round"
             stroke-linejoin="round"
             d="m 379.58724,1873.5402 q 0,-0.748 0,-0.583 0.006,-0.843 0.044,-0.677 0.064,-0.07 0.555,-0.766 0.491,-0.695 1.808,-1.548 1.316,-0.853 2.535,-0.91 1.219,-0.057 2.026,0.038 0.807,0.095 1.705,1.161 0.898,1.065 1.062,3.945 0.164,2.88 0.292,4.602 0.128,1.722 -1.45,4.925 -0.001,-0.115 0.025,0.061 0.025,0.176 -0.002,0.111 -0.026,-0.064 -0.335,-0.528 -0.309,-0.463 -0.347,-0.787 -0.038,-0.324 -0.111,-0.533 -0.073,-0.21 -0.229,-1.009 -0.157,-0.8 -0.682,-2.181 -0.526,-1.381 -1.276,-1.808 -0.749,-0.427 -1.236,-0.456 -0.487,-0.029 -0.829,0 -0.343,0.027 -0.193,-0.029 0.151,-0.056 -0.719,0.486 -0.87,0.542 -1.073,1.532 -0.203,0.991 -0.214,2.192 -0.011,1.2 1.691,2.529 1.703,1.329 4.339,1.282 2.637,-0.046 3.062,-0.068" />
          <path
             id="STROKE_94fd51ee-da93-44a5-bd2f-51bffa3710aa"
             opacity="1"
             fill="none"
             stroke="#000000"
             stroke-width="1.827"
             stroke-opacity="1"
             stroke-linecap="round"
             stroke-linejoin="round"
             d="m 401.45324,1872.0002 q 0.015,-0.117 -0.294,-0.423 -0.31,-0.307 -0.849,-0.537 -0.539,-0.23 -1.513,-0.245 -0.975,-0.015 -1.896,0.596 -0.922,0.612 -2.068,2.218 -1.146,1.607 -1.497,3.486 -0.35,1.88 -0.274,3.079 0.076,1.198 0.381,2.038 0.305,0.841 1.393,1.412 1.087,0.57 2.653,0.913 1.567,0.342 3.72,-0.255 2.153,-0.597 3.319,-1.781 1.166,-1.184 1.445,-1.536" />
          <path
             id="STROKE_e43c5597-3118-4486-b27e-52976dfce5d5"
             opacity="1"
             fill="none"
             stroke="#000000"
             stroke-width="1.619"
             stroke-opacity="1"
             stroke-linecap="round"
             stroke-linejoin="round"
             d="m 408.77624,1855.9712 q -1.354,-0.015 -0.457,5.464 0.897,5.48 1.252,8.445 0.355,2.965 0.685,6.253 0.329,3.289 0.618,9.134 -0.481,-0.462 -0.754,-3.205 -0.273,-2.743 -0.1,-4.468 0.173,-1.724 0.421,-2.598 0.248,-0.874 0.945,-1.887 0.697,-1.013 2.173,-1.563 1.476,-0.55 2.726,-0.592 1.25,-0.041 2.314,0.637 1.064,0.679 1.584,1.233 0.521,0.554 0.93,1.716 0.409,1.162 0.413,2.312 0.004,1.15 0.064,1.957 0.061,0.808 -0.024,2.55 -0.085,1.742 -1.564,4.139 -0.003,-0.509 0.009,-0.654 0.013,-0.144 0.035,-0.424" />
          <path
             id="STROKE_e58008f1-1d12-42d9-91fe-92fbfbcad20d"
             opacity="1"
             fill="none"
             stroke="#000000"
             stroke-width="1.828"
             stroke-opacity="1"
             stroke-linecap="round"
             stroke-linejoin="round"
             d="m 426.06324,1873.9142 q 0,0 -0.192,0.132 -0.193,0.132 -0.131,0.17 -0.281,0.624 -0.311,3.031 -0.029,2.406 0.223,7.272 -0.095,-0.05 -0.191,-0.099" />
          <path
             id="STROKE_ec680d9a-acfa-4628-ac18-c81c657ed646"
             opacity="1"
             fill="none"
             stroke="#000000"
             stroke-width="1.828"
             stroke-opacity="1"
             stroke-linecap="round"
             stroke-linejoin="round"
             d="m 424.47824,1867.0492 q -0.655,0 -0.558,0 -0.044,0 -0.088,0 -0.122,0.025 0.229,0.397 0.351,0.373 0.608,0.626" />
          <path
             id="STROKE_41ca9720-7516-4947-bc60-51e807eca855"
             opacity="1"
             fill="none"
             stroke="#000000"
             stroke-width="1.828"
             stroke-opacity="1"
             stroke-linecap="round"
             stroke-linejoin="round"
             d="m 431.94824,1873.8702 q 0.225,-0.288 -0.661,0.746 -0.887,1.035 1.306,10.882 -0.113,-0.33 -0.291,-3.091 -0.178,-2.762 0.069,-5.01 0.247,-2.247 0.71,-3.516 0.463,-1.268 1.129,-1.807 0.665,-0.539 1.504,-0.655 0.838,-0.115 1.825,0.355 0.987,0.47 1.937,2.248 0.95,1.778 1.08,3.979 0.13,2.201 0.142,3.625 0.011,1.425 -0.635,2.544 -0.646,1.119 -0.763,1.185" />
          <path
             id="STROKE_9edcbfc6-d322-469d-99a1-a220490e8e55"
             opacity="1"
             fill="none"
             stroke="#000000"
             stroke-width="1.828"
             stroke-opacity="1"
             stroke-linecap="round"
             stroke-linejoin="round"
             d="m 445.87424,1875.7842 q 0.031,-0.184 -0.105,0.324 -0.137,0.507 -0.05,0.726 0.087,0.219 0.489,0.437 0.402,0.218 0.93,0.445 0.527,0.227 0.783,0.285 0.256,0.058 0.618,0.221 0.361,0.164 1.322,0.214 0.961,0.049 1.862,-0.061 0.902,-0.11 1.458,-0.995 0.556,-0.885 0.834,-2.136 0.277,-1.25 -0.153,-2.292 -0.431,-1.042 -0.925,-1.443 -0.495,-0.4 -1.256,-0.581 -0.762,-0.181 -1.279,-0.214 -0.516,-0.032 -1.004,-0.042 -0.489,-0.01 -1.186,0.282 -0.698,0.29 -1.649,0.854 -0.951,0.564 -1.914,2.074 -0.963,1.509 -1.324,3.367 -0.36,1.858 0.021,3.548 0.382,1.69 1.804,2.876 1.423,1.185 3.421,1.781 1.998,0.595 4.038,-0.206 2.041,-0.801 2.555,-1.147" />
          <path
             id="STROKE_05168068-c1d7-464f-990e-e82feae351c2"
             opacity="1"
             fill="none"
             stroke="#000000"
             stroke-width="1.828"
             stroke-opacity="1"
             stroke-linecap="round"
             stroke-linejoin="round"
             d="m 495.12424,1868.5672 q 0.108,0.135 -5.907,0.556 0.013,0.386 0.013,0.343 0.001,-0.043 -0.153,0.019 -0.153,0.062 2.178,1.728 2.33,1.666 3.777,2.712 1.447,1.047 2.275,1.71 0.828,0.662 1.316,2.116 0.487,1.453 -2.317,2.667 -2.803,1.215 -7.015,1.037 -0.12,-0.894 1,-1.041 1.12,-0.147 1.517,-0.263" />
          <path
             id="STROKE_19f0b8b7-6c58-483e-974e-94bb10678cf9"
             opacity="1"
             fill="none"
             stroke="#000000"
             stroke-width="1.443"
             stroke-opacity="1"
             stroke-linecap="round"
             stroke-linejoin="round"
             d="m 503.97324,1874.3102 q -0.553,-0.072 -0.411,-0.044 h -0.073 q -0.447,-0.034 0.369,7.992 0.815,8.026 0.842,16.738 -0.325,0.135 -0.399,0.136 -0.073,0 -0.292,-0.323 -0.219,-0.324 -0.403,-0.627" />
          <path
             id="STROKE_8107e17c-c53c-40ac-80cc-d45325883ff8"
             opacity="1"
             fill="none"
             stroke="#000000"
             stroke-width="1.828"
             stroke-opacity="1"
             stroke-linecap="round"
             stroke-linejoin="round"
             d="m 502.43224,1876.4552 q 0.063,0.107 -0.003,-1.059 -0.067,-1.165 0.126,-2.16 0.192,-0.995 0.324,-1.437 0.133,-0.443 1.583,-1.356 1.451,-0.914 2.816,-0.987 1.366,-0.073 2.079,-0.027 0.712,0.046 1.634,0.702 0.921,0.656 1.22,2.323 0.298,1.667 0.136,3.204 -0.162,1.538 -1.328,3.386 -1.167,1.849 -2.541,3.059 -1.373,1.209 -3.5,1.569 -0.078,-0.114 -0.131,-0.431 -0.052,-0.317 -0.125,-0.669" />
          <path
             id="STROKE_9319f12a-1190-4c5e-bc5c-ccece9a6d893"
             opacity="1"
             fill="none"
             stroke="#000000"
             stroke-width="1.828"
             stroke-opacity="1"
             stroke-linecap="round"
             stroke-linejoin="round"
             d="m 517.44524,1873.7492 q 0.249,0.376 0.235,0.374 -0.369,0.338 1.753,0.787 2.123,0.449 3.713,0.362 1.59,-0.086 2.184,-0.295 0.593,-0.208 0.964,-0.581 0.37,-0.373 0.467,-0.608 0.096,-0.235 0.083,-0.564 -0.014,-0.329 0.041,-0.596 0.055,-0.267 -0.05,-0.568 -0.104,-0.302 -1.178,-1.455 -1.073,-1.154 -3.06,-1.391 -1.986,-0.236 -3.086,-0.21 -1.1,0.026 -1.998,0.562 -0.898,0.535 -1.721,1.243 -0.823,0.707 -1.455,2.336 -0.631,1.629 -0.782,3.414 -0.151,1.784 0.511,3.446 0.662,1.661 1.865,3.018 1.203,1.357 2.963,2.3 1.76,0.944 3.142,0.595 1.382,-0.349 1.807,-0.629" />
          <path
             id="STROKE_30f14e8a-dadd-461f-9d49-36e76144a470"
             opacity="1"
             fill="none"
             stroke="#000000"
             stroke-width="1.828"
             stroke-opacity="1"
             stroke-linecap="round"
             stroke-linejoin="round"
             d="m 538.19624,1872.2532 q -0.709,-0.269 -0.536,-0.237 -0.634,-0.476 -1.924,-0.884 -1.291,-0.407 -2.611,0.24 -1.319,0.648 -2.419,1.99 -1.099,1.343 -1.579,2.886 -0.479,1.544 -0.518,2.814 -0.039,1.269 0.31,2.541 0.35,1.272 1.571,2.315 1.22,1.043 2.835,1.294 1.616,0.251 2.709,0.319 1.093,0.068 1.829,-0.753 0.736,-0.82 0.993,-1.172" />
          <path
             id="STROKE_b916fc8e-4bbe-4611-9a15-665758d44e0e"
             opacity="1"
             fill="none"
             stroke="#000000"
             stroke-width="1.752"
             stroke-opacity="1"
             stroke-linecap="round"
             stroke-linejoin="round"
             d="m 542.58424,1872.4402 q 0.589,0.982 0.389,0.792 0.14,-0.397 0.19,11.727 -0.212,-0.022 -0.403,-0.044" />
          <circle
             id="STROKE_06712710-2b06-4fb0-864e-721db91a79fd"
             opacity="1"
             fill="#000000"
             stroke="#000000"
             stroke-width="0.1"
             stroke-opacity="1"
             fill-opacity="1"
             cx="541.87921"
             cy="1863.6062"
             r="0.91399997" />
          <path
             id="STROKE_abec6b0f-02d3-49f1-bf06-6795f821ac8c"
             opacity="1"
             fill="none"
             stroke="#000000"
             stroke-width="1.503"
             stroke-opacity="1"
             stroke-linecap="round"
             stroke-linejoin="round"
             d="m 563.51024,1860.1512 q -0.025,-0.388 0.264,-2.504 0.288,-2.116 0.405,-3.899 0.116,-1.784 -0.457,-3.158 -0.573,-1.375 -1.685,-2.501 -1.113,-1.126 -2.974,-1.355 -1.862,-0.228 -3.058,-0.304 -1.196,-0.075 -2.648,0.893 -1.453,0.969 -2.824,2.855 -1.372,1.885 -1.839,7.022 -0.468,5.138 0.026,11.685 0.494,6.548 1.599,12.084 1.105,5.536 1.657,10.766 -0.921,0.246 -1.242,-0.883 -0.321,-1.13 -0.505,-1.647" />
          <path
             id="STROKE_ae188b56-b4a5-4ce9-adde-e20b475bd7d0"
             opacity="1"
             fill="none"
             stroke="#000000"
             stroke-width="1.828"
             stroke-opacity="1"
             stroke-linecap="round"
             stroke-linejoin="round"
             d="m 550.12724,1873.9362 q 0.685,0.01 4.481,0.062 3.796,0.053 4.192,0.125" />
          <path
             id="STROKE_732e9def-41fd-4586-b5eb-2e84ed024a9d"
             opacity="1"
             fill="none"
             stroke="#000000"
             stroke-width="1.819"
             stroke-opacity="1"
             stroke-linecap="round"
             stroke-linejoin="round"
             d="m 563.18824,1874.7282 q -0.525,0.407 -0.448,0.423 -0.34,0.91 -0.235,0.814 -0.159,0.823 -0.181,3.678 -0.022,2.854 0.63,4.283 0.652,1.429 0.747,1.451" />
          <circle
             id="STROKE_b99842cd-1137-4252-b68e-e25f40769867"
             opacity="1"
             fill="#000000"
             stroke="#000000"
             stroke-width="0.1"
             stroke-opacity="1"
             fill-opacity="1"
             cx="563.70123"
             cy="1869.7333"
             r="0.91399997" />
          <path
             id="STROKE_44306a9f-ea80-4cfa-8bb7-880dfe79344f"
             opacity="1"
             fill="none"
             stroke="#000000"
             stroke-width="1.828"
             stroke-opacity="1"
             stroke-linecap="round"
             stroke-linejoin="round"
             d="m 583.88024,1869.1722 q -0.077,-0.117 -2.345,0.763 -2.268,0.881 -3.793,2.007 -1.524,1.126 -2.638,3.116 -1.115,1.991 -1.374,3.749 -0.259,1.758 -0.129,3.23 0.129,1.472 0.635,2.554 0.506,1.083 1.912,1.992 1.405,0.91 3.301,1.238 1.895,0.329 3.97,-0.637 2.075,-0.966 2.471,-1.29" />
        </g>
      </g>
    </g>
    <g
       id="g20107"
       transform="matrix(0.19242427,0,0,0.19242427,72.930499,-244.77031)" />
  </g>
</svg>
