<?xml version="1.0" encoding="UTF-8" standalone="no"?>
<svg
   xmlns:dc="http://purl.org/dc/elements/1.1/"
   xmlns:cc="http://creativecommons.org/ns#"
   xmlns:rdf="http://www.w3.org/1999/02/22-rdf-syntax-ns#"
   xmlns:svg="http://www.w3.org/2000/svg"
   xmlns="http://www.w3.org/2000/svg"
   xmlns:sodipodi="http://sodipodi.sourceforge.net/DTD/sodipodi-0.dtd"
   xmlns:inkscape="http://www.inkscape.org/namespaces/inkscape"
   version="1.1"
   viewBox="0 0 651.81097 505.82547"
   stroke-miterlimit="10"
   id="svg179"
   sodipodi:docname="frequent_merges.svg"
   width="651.81097"
   height="505.82547"
   style="fill:none;stroke:none;stroke-linecap:square;stroke-miterlimit:10"
   inkscape:version="0.92.5 (2060ec1f9f, 2020-04-08)">
  <metadata
     id="metadata185">
    <rdf:RDF>
      <cc:Work
         rdf:about="">
        <dc:format>image/svg+xml</dc:format>
        <dc:type
           rdf:resource="http://purl.org/dc/dcmitype/StillImage" />
        <dc:title></dc:title>
      </cc:Work>
    </rdf:RDF>
  </metadata>
  <defs
     id="defs183" />
  <sodipodi:namedview
     pagecolor="#ffffff"
     bordercolor="#666666"
     borderopacity="1"
     objecttolerance="10"
     gridtolerance="10"
     guidetolerance="10"
     inkscape:pageopacity="0"
     inkscape:pageshadow="2"
     inkscape:window-width="640"
     inkscape:window-height="480"
     id="namedview181"
     showgrid="false"
     fit-margin-top="15"
     fit-margin-left="15"
     fit-margin-right="15"
     fit-margin-bottom="15"
     inkscape:zoom="1.1078006"
     inkscape:cx="248.5938"
     inkscape:cy="217.94176"
     inkscape:current-layer="layer2" />
  <clipPath
     id="g800ff8fafc_0_560.0">
    <path
       d="M 0,0 H 960 V 540 H 0 Z"
       id="path2"
       inkscape:connector-curvature="0"
       style="clip-rule:nonzero" />
  </clipPath>
  <g
     inkscape:groupmode="layer"
     id="layer2"
     inkscape:label="Layer 2"
     transform="translate(-235.75833,2.858757)">
    <rect
       style="fill:#ffffff;fill-opacity:1;stroke:#000000;stroke-opacity:0.01162792"
       id="rect1082"
       width="668.89294"
       height="523.55994"
       x="224.02336"
       y="-10.663617" />
  </g>
  <g
     inkscape:groupmode="layer"
     id="layer1"
     inkscape:label="Layer 1"
     style="display:inline"
     transform="translate(-235.75833,2.858757)">
    <g
       clip-path="url(#g800ff8fafc_0_560.0)"
       id="g177"
       transform="translate(-10.832274,-39.718338)">
      <path
         d="m 417.6063,493.96063 h 124.78738 v 32.72443 H 417.6063 Z"
         id="path7"
         inkscape:connector-curvature="0"
         style="fill:#000000;fill-opacity:0;fill-rule:evenodd" />
      <path
         d="m 417.6063,493.96063 h 124.78738 v 32.72443 H 417.6063 Z"
         id="path9"
         inkscape:connector-curvature="0"
         style="fill-rule:evenodd;stroke:#000000;stroke-width:2;stroke-linecap:butt;stroke-linejoin:round" />
      <path
         d="m 443.3457,509.99283 v -0.25 q 0,-0.29687 0.10938,-0.40625 0.10937,-0.125 0.28125,-0.125 0.17187,0 0.28125,0.125 0.10937,0.10938 0.10937,0.40625 v 1.75 q 0,0.29688 -0.10937,0.42188 -0.10938,0.1094 -0.28125,0.1094 -0.15625,0 -0.26563,-0.0938 -0.10937,-0.10937 -0.125,-0.35937 -0.0625,-0.67188 -0.875,-1.26563 -0.79687,-0.59375 -2.17187,-0.59375 -1.73438,0 -2.64063,1.09375 -0.90625,1.07813 -0.90625,2.48441 0,1.51562 0.98438,2.5 1,0.98437 2.57812,0.98437 0.92188,0 1.85938,-0.32812 0.9375,-0.34375 1.70312,-1.09375 0.1875,-0.17188 0.34375,-0.17188 0.15625,0 0.26563,0.10938 0.10937,0.0937 0.10937,0.25 0,0.40625 -0.9375,1.01562 -1.51562,1 -3.375,1 -1.875,0 -3.09375,-1.20312 -1.20312,-1.20313 -1.20312,-3.04688 0,-1.89065 1.23437,-3.12503 1.23438,-1.25 3.125,-1.25 1.78125,0 3,1.0625 z m 12.51123,3.25003 q 0,1.78125 -1.28125,3.04688 -1.28125,1.26562 -3.07812,1.26562 -1.8125,0 -3.09375,-1.26562 -1.26563,-1.28125 -1.26563,-3.04688 0,-1.78128 1.26563,-3.0469 1.28125,-1.26563 3.09375,-1.26563 1.79687,0 3.07812,1.26563 1.28125,1.25 1.28125,3.0469 z m -0.79687,0 q 0,-1.46878 -1.04688,-2.50003 -1.03125,-1.03125 -2.51562,-1.03125 -1.48438,0 -2.53125,1.04688 -1.04688,1.03125 -1.04688,2.4844 0,1.45313 1.04688,2.5 1.04687,1.03125 2.53125,1.03125 1.48437,0 2.51562,-1.03125 1.04688,-1.04687 1.04688,-2.5 z m 4.29248,-4.03128 v 0.78125 q 0.98437,-1.0625 1.98437,-1.0625 0.60938,0 1.0625,0.32813 0.45313,0.3125 0.76563,0.96875 0.51562,-0.65625 1.04687,-0.96875 0.53125,-0.32813 1.07813,-0.32813 0.84375,0 1.34375,0.54688 0.65625,0.70312 0.65625,1.54687 v 5.43753 h 0.65625 q 0.28125,0 0.39062,0.10938 0.125,0.10937 0.125,0.28125 0,0.17187 -0.125,0.28125 -0.10937,0.10937 -0.39062,0.10937 h -1.4375 v -6.15628 q 0,-0.59375 -0.35938,-0.98437 -0.35937,-0.39063 -0.82812,-0.39063 -0.4375,0 -0.90625,0.32813 -0.46875,0.3125 -1.07813,1.25 v 5.1719 h 0.65625 q 0.26563,0 0.39063,0.10938 0.125,0.10937 0.125,0.28125 0,0.17187 -0.125,0.28125 -0.125,0.10937 -0.39063,0.10937 h -1.4375 v -6.09378 q 0,-0.625 -0.375,-1.03125 -0.35937,-0.40625 -0.8125,-0.40625 -0.42187,0 -0.82812,0.28125 -0.5625,0.375 -1.1875,1.29688 v 5.1719 h 0.65625 q 0.28125,0 0.39062,0.10938 0.125,0.10937 0.125,0.28125 0,0.17187 -0.125,0.28125 -0.10937,0.10937 -0.39062,0.10937 h -2.09375 q -0.28125,0 -0.40625,-0.10937 -0.125,-0.10938 -0.125,-0.28125 0,-0.17188 0.125,-0.28125 0.125,-0.10938 0.40625,-0.10938 h 0.65625 v -6.46878 h -0.65625 q -0.28125,0 -0.40625,-0.10937 -0.125,-0.10938 -0.125,-0.28125 0,-0.17188 0.125,-0.28125 0.125,-0.10938 0.40625,-0.10938 z m 11.40185,0 v 0.78125 q 0.98438,-1.0625 1.98438,-1.0625 0.60937,0 1.0625,0.32813 0.45312,0.3125 0.76562,0.96875 0.51563,-0.65625 1.04688,-0.96875 0.53125,-0.32813 1.07812,-0.32813 0.84375,0 1.34375,0.54688 0.65625,0.70312 0.65625,1.54687 v 5.43753 h 0.65625 q 0.28125,0 0.39063,0.10938 0.125,0.10937 0.125,0.28125 0,0.17187 -0.125,0.28125 -0.10938,0.10937 -0.39063,0.10937 h -1.4375 v -6.15628 q 0,-0.59375 -0.35937,-0.98437 -0.35938,-0.39063 -0.82813,-0.39063 -0.4375,0 -0.90625,0.32813 -0.46875,0.3125 -1.07812,1.25 v 5.1719 h 0.65625 q 0.26562,0 0.39062,0.10938 0.125,0.10937 0.125,0.28125 0,0.17187 -0.125,0.28125 -0.125,0.10937 -0.39062,0.10937 h -1.4375 v -6.09378 q 0,-0.625 -0.375,-1.03125 -0.35938,-0.40625 -0.8125,-0.40625 -0.42188,0 -0.82813,0.28125 -0.5625,0.375 -1.1875,1.29688 v 5.1719 h 0.65625 q 0.28125,0 0.39063,0.10938 0.125,0.10937 0.125,0.28125 0,0.17187 -0.125,0.28125 -0.10938,0.10937 -0.39063,0.10937 h -2.09375 q -0.28125,0 -0.40625,-0.10937 -0.125,-0.10938 -0.125,-0.28125 0,-0.17188 0.125,-0.28125 0.125,-0.10938 0.40625,-0.10938 h 0.65625 v -6.46878 h -0.65625 q -0.28125,0 -0.40625,-0.10937 -0.125,-0.10938 -0.125,-0.28125 0,-0.17188 0.125,-0.28125 0.125,-0.10938 0.40625,-0.10938 z m 15.33936,-4 v 2.01563 h -1.15625 v -2.01563 z m 0.0156,4 v 7.25003 h 3.0625 q 0.29688,0 0.40625,0.10938 0.125,0.10937 0.125,0.28125 0,0.17187 -0.125,0.28125 -0.10937,0.10937 -0.40625,0.10937 h -6.90625 q -0.26562,0 -0.39062,-0.10937 -0.125,-0.10938 -0.125,-0.28125 0,-0.17188 0.125,-0.28125 0.125,-0.10938 0.39062,-0.10938 h 3.0625 v -6.46878 h -2.26562 q -0.28125,0 -0.40625,-0.10937 -0.125,-0.10938 -0.125,-0.28125 0,-0.17188 0.125,-0.28125 0.125,-0.10938 0.40625,-0.10938 z m 9.38623,0 h 4.23438 q 0.28125,0 0.39062,0.10938 0.125,0.10937 0.125,0.28125 0,0.17187 -0.125,0.28125 -0.10937,0.10937 -0.39062,0.10937 h -4.23438 v 5.18753 q 0,0.6875 0.54688,1.14063 0.54687,0.45312 1.59375,0.45312 0.78125,0 1.70312,-0.23437 0.92188,-0.25 1.4375,-0.54688 0.1875,-0.10937 0.29688,-0.10937 0.15625,0 0.26562,0.125 0.10938,0.10937 0.10938,0.26562 0,0.14063 -0.125,0.25 -0.29688,0.3125 -1.4375,0.67188 -1.14063,0.35937 -2.1875,0.35937 -1.375,0 -2.1875,-0.64062 -0.79688,-0.64063 -0.79688,-1.73438 v -5.18753 h -1.4375 q -0.28125,0 -0.40625,-0.10937 -0.10937,-0.10938 -0.10937,-0.28125 0,-0.17188 0.10937,-0.28125 0.125,-0.10938 0.40625,-0.10938 h 1.4375 v -2.29687 q 0,-0.28125 0.10938,-0.40625 0.10937,-0.125 0.28125,-0.125 0.17187,0 0.28125,0.125 0.10937,0.125 0.10937,0.40625 z m 27.99121,1.25 v 1.92191 q 0,2.51562 -1.20312,3.98437 -0.9375,1.15625 -2.35938,1.15625 -0.6875,0 -1.29687,-0.28125 -0.60938,-0.26562 -1.03125,-0.76562 -0.26563,-0.29688 -0.59375,-0.96875 -0.3125,-0.6875 -0.45313,-1.25 -0.21875,-0.79688 -0.21875,-1.875 v -1.92191 q 0,-2.53125 1.20313,-3.98437 0.9375,-1.15625 2.35937,-1.15625 0.70313,0 1.29688,0.28125 0.60937,0.26562 1.03125,0.76562 0.28125,0.3125 0.59375,0.98438 0.3125,0.67187 0.46875,1.23437 0.20312,0.79688 0.20312,1.875 z m -0.78125,0.0937 q 0,-1.09375 -0.3125,-2.04687 -0.3125,-0.95313 -0.70312,-1.51563 -0.23438,-0.32812 -0.59375,-0.5625 -0.53125,-0.32812 -1.1875,-0.32812 -1.3125,0 -2.0625,1.34375 -0.73438,1.32812 -0.73438,3.10937 v 1.71878 q 0,1.10938 0.3125,2.0625 0.3125,0.95313 0.70313,1.53125 0.21875,0.3125 0.59375,0.54688 0.53125,0.32812 1.20312,0.32812 1.29688,0 2.03125,-1.34375 0.75,-1.34375 0.75,-3.125 z"
         id="path11"
         inkscape:connector-curvature="0"
         style="fill:#000000;fill-rule:nonzero" />
      <path
         d="m 480,464.1621 v 29.79529"
         id="path13"
         inkscape:connector-curvature="0"
         style="fill:#000000;fill-opacity:0;fill-rule:evenodd" />
      <path
         d="m 480,464.1621 v 17.79529"
         id="path15"
         inkscape:connector-curvature="0"
         style="fill-rule:evenodd;stroke:#1a1a1a;stroke-width:2;stroke-linecap:butt;stroke-linejoin:round" />
      <path
         d="m 476.69653,481.9574 3.30347,9.0762 3.30346,-9.0762 z"
         id="path17"
         inkscape:connector-curvature="0"
         style="fill:#1a1a1a;fill-rule:evenodd;stroke:#1a1a1a;stroke-width:2;stroke-linecap:butt" />
      <path
         d="m 377.3032,186.34448 v 0 c 0,1.12958 -0.91568,2.04529 -2.04526,2.04529 v -2.04529 c 0,0.56479 -0.45785,1.02264 -1.02264,1.02264 -0.56479,0 -1.02265,-0.45785 -1.02265,-1.02264 v 2.04529 H 264.1359 v 0 c -1.12957,0 -2.04528,0.91569 -2.04528,2.04527 v 24.5433 c 0,1.12958 0.91571,2.04528 2.04528,2.04528 1.12955,0 2.04526,-0.9157 2.04526,-2.04528 v -2.04527 h 109.07678 c 1.12958,0 2.04526,-0.91571 2.04526,-2.04527 z m -113.1673,6.13583 c 1.12955,0 2.04526,-0.91569 2.04526,-2.04527 v 0 c 0,-0.56479 -0.45786,-1.02264 -1.02265,-1.02264 -0.56479,0 -1.02261,0.45785 -1.02261,1.02264 z"
         id="path19"
         inkscape:connector-curvature="0"
         style="fill:#e9edee;fill-rule:evenodd" />
      <path
         d="m 264.1359,192.48032 c 1.12955,0 2.04526,-0.9157 2.04526,-2.04527 v 0 c 0,-0.56479 -0.45786,-1.02265 -1.02265,-1.02265 -0.56479,0 -1.02261,0.45786 -1.02261,1.02265 z m 111.12204,-4.09055 c 1.12958,0 2.04526,-0.91571 2.04526,-2.04528 0,-1.12957 -0.91568,-2.04528 -2.04526,-2.04528 -1.12958,0 -2.04529,0.91571 -2.04529,2.04528 0,0.56479 0.45786,1.02264 1.02265,1.02264 0.56478,0 1.02264,-0.45785 1.02264,-1.02264 z"
         id="path21"
         inkscape:connector-curvature="0"
         style="fill:#babdbe;fill-rule:evenodd" />
      <path
         d="m 262.0906,190.43504 c 0,-1.12958 0.91571,-2.04527 2.04529,-2.04527 h 109.07675 v -2.04529 0 c 0,-1.12956 0.91571,-2.04527 2.04529,-2.04527 1.12957,0 2.04525,0.91571 2.04525,2.04527 v 24.54332 c 0,1.12956 -0.91568,2.04527 -2.04525,2.04527 H 266.18115 v 2.04527 c 0,1.12958 -0.91571,2.04528 -2.04526,2.04528 -1.12958,0 -2.04529,-0.9157 -2.04529,-2.04528 z m 111.12204,-2.04527 h 2.04529 c 1.12958,0 2.04526,-0.91571 2.04526,-2.04529 m -2.04526,2.04529 v -2.04529 c 0,0.56479 -0.45786,1.02264 -1.02265,1.02264 -0.56478,0 -1.02264,-0.45785 -1.02264,-1.02264 m -109.07675,6.13583 v -2.04527 0 c 0,-0.56479 0.45782,-1.02264 1.02261,-1.02264 0.56479,0 1.02265,0.45785 1.02265,1.02264 0,1.12958 -0.91571,2.04527 -2.04526,2.04527 -1.12958,0 -2.04529,-0.91569 -2.04529,-2.04527 m 4.09055,0 v 22.49803"
         id="path23"
         inkscape:connector-curvature="0"
         style="fill:#000000;fill-opacity:0;fill-rule:evenodd" />
      <path
         d="m 262.0906,190.43504 c 0,-1.12958 0.91571,-2.04527 2.04529,-2.04527 h 109.07675 v -2.04529 0 c 0,-1.12956 0.91571,-2.04527 2.04529,-2.04527 1.12957,0 2.04525,0.91571 2.04525,2.04527 v 24.54332 c 0,1.12956 -0.91568,2.04527 -2.04525,2.04527 H 266.18115 v 2.04527 c 0,1.12958 -0.91571,2.04528 -2.04526,2.04528 -1.12958,0 -2.04529,-0.9157 -2.04529,-2.04528 z m 111.12204,-2.04527 h 2.04529 c 1.12958,0 2.04526,-0.91571 2.04526,-2.04529 m -2.04526,2.04529 v -2.04529 c 0,0.56479 -0.45786,1.02264 -1.02265,1.02264 -0.56478,0 -1.02264,-0.45785 -1.02264,-1.02264 m -109.07675,6.13583 v -2.04527 0 c 0,-0.56479 0.45782,-1.02264 1.02261,-1.02264 0.56479,0 1.02265,0.45785 1.02265,1.02264 0,1.12958 -0.91571,2.04527 -2.04526,2.04527 -1.12958,0 -2.04529,-0.91569 -2.04529,-2.04527 m 4.09055,0 v 22.49803"
         id="path25"
         inkscape:connector-curvature="0"
         style="fill-rule:evenodd;stroke:#1a1a1a;stroke-width:1;stroke-linecap:butt;stroke-linejoin:round" />
      <path
         d="m 293.72736,199.7558 v 0.65625 q 0.84375,-0.89063 1.6875,-0.89063 0.5,0 0.875,0.26563 0.39062,0.26562 0.65625,0.8125 0.4375,-0.54688 0.875,-0.8125 0.45312,-0.26563 0.90625,-0.26563 0.71875,0 1.14062,0.45313 0.54688,0.59375 0.54688,1.29687 v 4.59375 h 0.5625 q 0.23437,0 0.32812,0.0937 0.10938,0.0781 0.10938,0.23438 0,0.14062 -0.10938,0.23437 -0.0937,0.0937 -0.32812,0.0937 h -1.21875 v -5.1875 q 0,-0.5 -0.3125,-0.82812 -0.29688,-0.32813 -0.6875,-0.32813 -0.35938,0 -0.76563,0.28125 -0.39062,0.26563 -0.90625,1.04688 v 4.35937 h 0.54688 q 0.23437,0 0.32812,0.0937 0.10938,0.0781 0.10938,0.23438 0,0.14062 -0.10938,0.23437 -0.0937,0.0937 -0.32812,0.0937 h -1.20313 v -5.14062 q 0,-0.51563 -0.3125,-0.85938 -0.3125,-0.34375 -0.6875,-0.34375 -0.35937,0 -0.70312,0.23438 -0.46875,0.3125 -1,1.09375 v 4.35937 h 0.5625 q 0.23437,0 0.32812,0.0937 0.10938,0.0781 0.10938,0.23438 0,0.14062 -0.10938,0.23437 -0.0937,0.0937 -0.32812,0.0937 h -1.76563 q -0.23437,0 -0.34375,-0.0937 -0.0937,-0.0937 -0.0937,-0.23437 0,-0.15625 0.0937,-0.23438 0.10938,-0.0937 0.34375,-0.0937 h 0.54688 v -5.45312 h -0.54688 q -0.23437,0 -0.34375,-0.0937 -0.0937,-0.0937 -0.0937,-0.23438 0,-0.14062 0.0937,-0.23437 0.10938,-0.0937 0.34375,-0.0937 z m 14.47656,6.76562 v -0.95312 q -1.42187,1.21875 -3.04687,1.21875 -1.1875,0 -1.85938,-0.59375 -0.65625,-0.60938 -0.65625,-1.48438 0,-0.95312 0.875,-1.65625 0.875,-0.71875 2.5625,-0.71875 0.45313,0 0.98438,0.0625 0.53125,0.0625 1.14062,0.1875 v -1.0625 q 0,-0.54687 -0.5,-0.9375 -0.5,-0.40625 -1.5,-0.40625 -0.76562,0 -2.14062,0.45313 -0.25,0.0781 -0.32813,0.0781 -0.125,0 -0.21875,-0.0937 -0.0781,-0.0937 -0.0781,-0.23437 0,-0.14063 0.0781,-0.21875 0.10938,-0.10938 0.875,-0.3125 1.21875,-0.32813 1.84375,-0.32813 1.25,0 1.9375,0.60938 0.70313,0.60937 0.70313,1.39062 v 4.34375 h 0.875 q 0.23437,0 0.32812,0.0937 0.10938,0.0781 0.10938,0.23438 0,0.14062 -0.10938,0.23437 -0.0937,0.0937 -0.32812,0.0937 z m 0,-3.26562 q -0.45312,-0.14063 -0.96875,-0.20313 -0.51562,-0.0625 -1.09375,-0.0625 -1.42187,0 -2.23437,0.625 -0.60938,0.45313 -0.60938,1.09375 0,0.59375 0.46875,1 0.46875,0.40625 1.35938,0.40625 0.84375,0 1.57812,-0.32812 0.73438,-0.34375 1.5,-1.09375 z m 9.88281,-3.07813 q 0,-0.21875 0.0937,-0.3125 0.0937,-0.10937 0.23438,-0.10937 0.15625,0 0.25,0.10937 0.0937,0.0937 0.0937,0.32813 v 1.125 q 0,0.23437 -0.0937,0.34375 -0.0937,0.0937 -0.25,0.0937 -0.125,0 -0.21875,-0.0781 -0.0937,-0.0937 -0.10938,-0.28125 -0.0469,-0.46875 -0.48437,-0.78125 -0.64063,-0.4375 -1.6875,-0.4375 -1.10938,0 -1.71875,0.45313 -0.45313,0.32812 -0.45313,0.75 0,0.46875 0.54688,0.78125 0.375,0.21875 1.42187,0.32812 1.35938,0.15625 1.89063,0.34375 0.76562,0.26563 1.125,0.75 0.375,0.48438 0.375,1.04688 0,0.84375 -0.8125,1.5 -0.79688,0.65625 -2.34375,0.65625 -1.5625,0 -2.54688,-0.79688 0,0.26563 -0.0312,0.34375 -0.0312,0.0781 -0.125,0.14063 -0.0781,0.0469 -0.17187,0.0469 -0.14063,0 -0.23438,-0.0937 -0.0937,-0.10937 -0.0937,-0.34375 v -1.35937 q 0,-0.23438 0.0781,-0.32813 0.0937,-0.10937 0.25,-0.10937 0.14062,0 0.23437,0.10937 0.0937,0.0937 0.0937,0.25 0,0.35938 0.1875,0.60938 0.26563,0.375 0.85938,0.625 0.60937,0.23437 1.46875,0.23437 1.28125,0 1.90625,-0.46875 0.625,-0.48437 0.625,-1.01562 0,-0.60938 -0.625,-0.96875 -0.64063,-0.375 -1.875,-0.5 -1.21875,-0.125 -1.75,-0.32813 -0.53125,-0.20312 -0.82813,-0.60937 -0.29687,-0.40625 -0.29687,-0.875 0,-0.84375 0.82812,-1.32813 0.82813,-0.5 1.98438,-0.5 1.35937,0 2.20312,0.65625 z m 6.08594,-0.42187 h 3.5625 q 0.23438,0 0.32813,0.0937 0.10937,0.0937 0.10937,0.23437 0,0.14063 -0.10937,0.23438 -0.0937,0.0937 -0.32813,0.0937 h -3.5625 v 4.375 q 0,0.5625 0.45313,0.95312 0.46875,0.375 1.34375,0.375 0.67187,0 1.4375,-0.1875 0.78125,-0.20312 1.20312,-0.45312 0.15625,-0.10938 0.26563,-0.10938 0.125,0 0.21875,0.10938 0.0937,0.0937 0.0937,0.21875 0,0.125 -0.10938,0.21875 -0.25,0.26562 -1.21875,0.57812 -0.95312,0.29688 -1.84375,0.29688 -1.14062,0 -1.82812,-0.54688 -0.67188,-0.54687 -0.67188,-1.45312 v -4.375 h -1.21875 q -0.23437,0 -0.34375,-0.0937 -0.0937,-0.0937 -0.0937,-0.23438 0,-0.14062 0.0937,-0.23437 0.10938,-0.0937 0.34375,-0.0937 h 1.21875 v -1.9375 q 0,-0.23438 0.0937,-0.32813 0.0937,-0.10937 0.23438,-0.10937 0.14062,0 0.23437,0.10937 0.0937,0.0937 0.0937,0.32813 z m 14.50781,3.53125 h -6.6875 q 0.17188,1.28125 1.0625,2.0625 0.89063,0.76562 2.21875,0.76562 0.73438,0 1.53125,-0.23437 0.8125,-0.25 1.3125,-0.64063 0.15625,-0.125 0.26563,-0.125 0.125,0 0.21875,0.10938 0.0937,0.0937 0.0937,0.21875 0,0.14062 -0.125,0.26562 -0.375,0.39063 -1.34375,0.73438 -0.95313,0.34375 -1.95313,0.34375 -1.6875,0 -2.82812,-1.10938 -1.125,-1.10937 -1.125,-2.6875 0,-1.42187 1.0625,-2.4375 1.0625,-1.03125 2.625,-1.03125 1.60937,0 2.64062,1.04688 1.04688,1.04687 1.03125,2.71875 z m -0.67187,-0.65625 q -0.1875,-1.09375 -1.03125,-1.76563 -0.82813,-0.6875 -1.96875,-0.6875 -1.15625,0 -1.98438,0.67188 -0.82812,0.67187 -1.03125,1.78125 z m 5.92969,-2.875 v 1.65625 q 1.28125,-1.15625 1.92187,-1.48438 0.64063,-0.34375 1.17188,-0.34375 0.59375,0 1.09375,0.40625 0.5,0.39063 0.5,0.59375 0,0.14063 -0.0937,0.25 -0.0937,0.0937 -0.25,0.0937 -0.0781,0 -0.14063,-0.0312 -0.0469,-0.0312 -0.1875,-0.17187 -0.28125,-0.28125 -0.48437,-0.375 -0.20313,-0.10938 -0.39063,-0.10938 -0.4375,0 -1.04687,0.34375 -0.59375,0.34375 -2.09375,1.6875 v 3.59375 h 2.90625 q 0.25,0 0.34375,0.0937 0.10937,0.0781 0.10937,0.23438 0,0.14062 -0.10937,0.23437 -0.0937,0.0937 -0.34375,0.0937 h -5.14063 q -0.23437,0 -0.34375,-0.0937 -0.0937,-0.0937 -0.0937,-0.23437 0,-0.125 0.0937,-0.21875 0.0937,-0.0937 0.34375,-0.0937 h 1.57813 v -5.46875 h -1.20313 q -0.23437,0 -0.34375,-0.0937 -0.0937,-0.0937 -0.0937,-0.23438 0,-0.14062 0.0937,-0.23437 0.0937,-0.0937 0.34375,-0.0937 z"
         id="path27"
         inkscape:connector-curvature="0"
         style="fill:#0000ff;fill-rule:nonzero" />
      <path
         d="m 417.6063,431.4377 h 124.78738 v 32.7244 H 417.6063 Z"
         id="path29"
         inkscape:connector-curvature="0"
         style="fill:#000000;fill-opacity:0;fill-rule:evenodd" />
      <path
         d="m 417.6063,431.4377 h 124.78738 v 32.7244 H 417.6063 Z"
         id="path31"
         inkscape:connector-curvature="0"
         style="fill-rule:evenodd;stroke:#000000;stroke-width:2;stroke-linecap:butt;stroke-linejoin:round" />
      <path
         d="m 443.3457,447.4699 v -0.25 q 0,-0.29688 0.10938,-0.40625 0.10937,-0.125 0.28125,-0.125 0.17187,0 0.28125,0.125 0.10937,0.10937 0.10937,0.40625 v 1.75 q 0,0.29687 -0.10937,0.42187 -0.10938,0.10938 -0.28125,0.10938 -0.15625,0 -0.26563,-0.0937 -0.10937,-0.10938 -0.125,-0.35938 -0.0625,-0.67187 -0.875,-1.26562 -0.79687,-0.59375 -2.17187,-0.59375 -1.73438,0 -2.64063,1.09375 -0.90625,1.07812 -0.90625,2.48437 0,1.51563 0.98438,2.5 1,0.98438 2.57812,0.98438 0.92188,0 1.85938,-0.32813 0.9375,-0.34375 1.70312,-1.09375 0.1875,-0.17187 0.34375,-0.17187 0.15625,0 0.26563,0.10937 0.10937,0.0937 0.10937,0.25 0,0.40625 -0.9375,1.01563 -1.51562,1 -3.375,1 -1.875,0 -3.09375,-1.20313 -1.20312,-1.20312 -1.20312,-3.04687 0,-1.89063 1.23437,-3.125 1.23438,-1.25 3.125,-1.25 1.78125,0 3,1.0625 z m 12.51123,3.25 q 0,1.78125 -1.28125,3.04687 -1.28125,1.26563 -3.07812,1.26563 -1.8125,0 -3.09375,-1.26563 -1.26563,-1.28125 -1.26563,-3.04687 0,-1.78125 1.26563,-3.04688 1.28125,-1.26562 3.09375,-1.26562 1.79687,0 3.07812,1.26562 1.28125,1.25 1.28125,3.04688 z m -0.79687,0 q 0,-1.46875 -1.04688,-2.5 -1.03125,-1.03125 -2.51562,-1.03125 -1.48438,0 -2.53125,1.04687 -1.04688,1.03125 -1.04688,2.48438 0,1.45312 1.04688,2.5 1.04687,1.03125 2.53125,1.03125 1.48437,0 2.51562,-1.03125 1.04688,-1.04688 1.04688,-2.5 z m 4.29248,-4.03125 v 0.78125 q 0.98437,-1.0625 1.98437,-1.0625 0.60938,0 1.0625,0.32812 0.45313,0.3125 0.76563,0.96875 0.51562,-0.65625 1.04687,-0.96875 0.53125,-0.32812 1.07813,-0.32812 0.84375,0 1.34375,0.54687 0.65625,0.70313 0.65625,1.54688 v 5.4375 h 0.65625 q 0.28125,0 0.39062,0.10937 0.125,0.10938 0.125,0.28125 0,0.17188 -0.125,0.28125 -0.10937,0.10938 -0.39062,0.10938 h -1.4375 v -6.15625 q 0,-0.59375 -0.35938,-0.98438 -0.35937,-0.39062 -0.82812,-0.39062 -0.4375,0 -0.90625,0.32812 -0.46875,0.3125 -1.07813,1.25 v 5.17188 h 0.65625 q 0.26563,0 0.39063,0.10937 0.125,0.10938 0.125,0.28125 0,0.17188 -0.125,0.28125 -0.125,0.10938 -0.39063,0.10938 h -1.4375 v -6.09375 q 0,-0.625 -0.375,-1.03125 -0.35937,-0.40625 -0.8125,-0.40625 -0.42187,0 -0.82812,0.28125 -0.5625,0.375 -1.1875,1.29687 v 5.17188 h 0.65625 q 0.28125,0 0.39062,0.10937 0.125,0.10938 0.125,0.28125 0,0.17188 -0.125,0.28125 -0.10937,0.10938 -0.39062,0.10938 h -2.09375 q -0.28125,0 -0.40625,-0.10938 -0.125,-0.10937 -0.125,-0.28125 0,-0.17187 0.125,-0.28125 0.125,-0.10937 0.40625,-0.10937 h 0.65625 v -6.46875 h -0.65625 q -0.28125,0 -0.40625,-0.10938 -0.125,-0.10937 -0.125,-0.28125 0,-0.17187 0.125,-0.28125 0.125,-0.10937 0.40625,-0.10937 z m 11.40185,0 v 0.78125 q 0.98438,-1.0625 1.98438,-1.0625 0.60937,0 1.0625,0.32812 0.45312,0.3125 0.76562,0.96875 0.51563,-0.65625 1.04688,-0.96875 0.53125,-0.32812 1.07812,-0.32812 0.84375,0 1.34375,0.54687 0.65625,0.70313 0.65625,1.54688 v 5.4375 h 0.65625 q 0.28125,0 0.39063,0.10937 0.125,0.10938 0.125,0.28125 0,0.17188 -0.125,0.28125 -0.10938,0.10938 -0.39063,0.10938 h -1.4375 v -6.15625 q 0,-0.59375 -0.35937,-0.98438 -0.35938,-0.39062 -0.82813,-0.39062 -0.4375,0 -0.90625,0.32812 -0.46875,0.3125 -1.07812,1.25 v 5.17188 h 0.65625 q 0.26562,0 0.39062,0.10937 0.125,0.10938 0.125,0.28125 0,0.17188 -0.125,0.28125 -0.125,0.10938 -0.39062,0.10938 h -1.4375 v -6.09375 q 0,-0.625 -0.375,-1.03125 -0.35938,-0.40625 -0.8125,-0.40625 -0.42188,0 -0.82813,0.28125 -0.5625,0.375 -1.1875,1.29687 v 5.17188 h 0.65625 q 0.28125,0 0.39063,0.10937 0.125,0.10938 0.125,0.28125 0,0.17188 -0.125,0.28125 -0.10938,0.10938 -0.39063,0.10938 h -2.09375 q -0.28125,0 -0.40625,-0.10938 -0.125,-0.10937 -0.125,-0.28125 0,-0.17187 0.125,-0.28125 0.125,-0.10937 0.40625,-0.10937 h 0.65625 v -6.46875 h -0.65625 q -0.28125,0 -0.40625,-0.10938 -0.125,-0.10937 -0.125,-0.28125 0,-0.17187 0.125,-0.28125 0.125,-0.10937 0.40625,-0.10937 z m 15.33936,-4 v 2.01562 h -1.15625 v -2.01562 z m 0.0156,4 v 7.25 h 3.0625 q 0.29688,0 0.40625,0.10937 0.125,0.10938 0.125,0.28125 0,0.17188 -0.125,0.28125 -0.10937,0.10938 -0.40625,0.10938 h -6.90625 q -0.26562,0 -0.39062,-0.10938 -0.125,-0.10937 -0.125,-0.28125 0,-0.17187 0.125,-0.28125 0.125,-0.10937 0.39062,-0.10937 h 3.0625 v -6.46875 h -2.26562 q -0.28125,0 -0.40625,-0.10938 -0.125,-0.10937 -0.125,-0.28125 0,-0.17187 0.125,-0.28125 0.125,-0.10937 0.40625,-0.10937 z m 9.38623,0 h 4.23438 q 0.28125,0 0.39062,0.10937 0.125,0.10938 0.125,0.28125 0,0.17188 -0.125,0.28125 -0.10937,0.10938 -0.39062,0.10938 h -4.23438 v 5.1875 q 0,0.6875 0.54688,1.14062 0.54687,0.45313 1.59375,0.45313 0.78125,0 1.70312,-0.23438 0.92188,-0.25 1.4375,-0.54687 0.1875,-0.10938 0.29688,-0.10938 0.15625,0 0.26562,0.125 0.10938,0.10938 0.10938,0.26563 0,0.14062 -0.125,0.25 -0.29688,0.3125 -1.4375,0.67187 -1.14063,0.35938 -2.1875,0.35938 -1.375,0 -2.1875,-0.64063 -0.79688,-0.64062 -0.79688,-1.73437 v -5.1875 h -1.4375 q -0.28125,0 -0.40625,-0.10938 -0.10937,-0.10937 -0.10937,-0.28125 0,-0.17187 0.10937,-0.28125 0.125,-0.10937 0.40625,-0.10937 h 1.4375 v -2.29688 q 0,-0.28125 0.10938,-0.40625 0.10937,-0.125 0.28125,-0.125 0.17187,0 0.28125,0.125 0.10937,0.125 0.10937,0.40625 z m 24.80371,-3.76563 v 11.01563 h 2.67188 q 0.26562,0 0.39062,0.10937 0.125,0.10938 0.125,0.28125 0,0.17188 -0.125,0.28125 -0.125,0.10938 -0.39062,0.10938 h -6.125 q -0.28125,0 -0.40625,-0.10938 -0.125,-0.10937 -0.125,-0.28125 0,-0.17187 0.125,-0.28125 0.125,-0.10937 0.40625,-0.10937 h 2.67187 v -9.9375 l -2.54687,0.79687 q -0.1875,0.0469 -0.26563,0.0469 -0.14062,0 -0.26562,-0.10938 -0.10938,-0.125 -0.10938,-0.28125 0,-0.14062 0.0937,-0.25 0.0781,-0.0781 0.3125,-0.15625 z"
         id="path33"
         inkscape:connector-curvature="0"
         style="fill:#000000;fill-rule:nonzero" />
      <path
         d="m 480,401.14722 v 29.79529"
         id="path35"
         inkscape:connector-curvature="0"
         style="fill:#000000;fill-opacity:0;fill-rule:evenodd" />
      <path
         d="m 480,401.14722 v 17.79529"
         id="path37"
         inkscape:connector-curvature="0"
         style="fill-rule:evenodd;stroke:#1a1a1a;stroke-width:2;stroke-linecap:butt;stroke-linejoin:round" />
      <path
         d="m 476.69653,418.9425 3.30347,9.0762 3.30346,-9.0762 z"
         id="path39"
         inkscape:connector-curvature="0"
         style="fill:#1a1a1a;fill-rule:evenodd;stroke:#1a1a1a;stroke-width:2;stroke-linecap:butt" />
      <path
         d="m 417.6063,368.42282 h 124.78738 v 32.7244 H 417.6063 Z"
         id="path41"
         inkscape:connector-curvature="0"
         style="fill:#000000;fill-opacity:0;fill-rule:evenodd" />
      <path
         d="m 417.6063,368.42282 h 124.78738 v 32.7244 H 417.6063 Z"
         id="path43"
         inkscape:connector-curvature="0"
         style="fill-rule:evenodd;stroke:#000000;stroke-width:2;stroke-linecap:butt;stroke-linejoin:round" />
      <path
         d="m 443.3457,384.45502 v -0.25 q 0,-0.29688 0.10938,-0.40625 0.10937,-0.125 0.28125,-0.125 0.17187,0 0.28125,0.125 0.10937,0.10937 0.10937,0.40625 v 1.75 q 0,0.29687 -0.10937,0.42187 -0.10938,0.10938 -0.28125,0.10938 -0.15625,0 -0.26563,-0.0937 -0.10937,-0.10938 -0.125,-0.35938 -0.0625,-0.67187 -0.875,-1.26562 -0.79687,-0.59375 -2.17187,-0.59375 -1.73438,0 -2.64063,1.09375 -0.90625,1.07812 -0.90625,2.48437 0,1.51563 0.98438,2.5 1,0.98438 2.57812,0.98438 0.92188,0 1.85938,-0.32813 0.9375,-0.34375 1.70312,-1.09375 0.1875,-0.17187 0.34375,-0.17187 0.15625,0 0.26563,0.10937 0.10937,0.0937 0.10937,0.25 0,0.40625 -0.9375,1.01563 -1.51562,1 -3.375,1 -1.875,0 -3.09375,-1.20313 -1.20312,-1.20312 -1.20312,-3.04687 0,-1.89063 1.23437,-3.125 1.23438,-1.25 3.125,-1.25 1.78125,0 3,1.0625 z m 12.51123,3.25 q 0,1.78125 -1.28125,3.04687 -1.28125,1.26563 -3.07812,1.26563 -1.8125,0 -3.09375,-1.26563 -1.26563,-1.28125 -1.26563,-3.04687 0,-1.78125 1.26563,-3.04688 1.28125,-1.26562 3.09375,-1.26562 1.79687,0 3.07812,1.26562 1.28125,1.25 1.28125,3.04688 z m -0.79687,0 q 0,-1.46875 -1.04688,-2.5 -1.03125,-1.03125 -2.51562,-1.03125 -1.48438,0 -2.53125,1.04687 -1.04688,1.03125 -1.04688,2.48438 0,1.45312 1.04688,2.5 1.04687,1.03125 2.53125,1.03125 1.48437,0 2.51562,-1.03125 1.04688,-1.04688 1.04688,-2.5 z m 4.29248,-4.03125 v 0.78125 q 0.98437,-1.0625 1.98437,-1.0625 0.60938,0 1.0625,0.32812 0.45313,0.3125 0.76563,0.96875 0.51562,-0.65625 1.04687,-0.96875 0.53125,-0.32812 1.07813,-0.32812 0.84375,0 1.34375,0.54687 0.65625,0.70313 0.65625,1.54688 v 5.4375 h 0.65625 q 0.28125,0 0.39062,0.10937 0.125,0.10938 0.125,0.28125 0,0.17188 -0.125,0.28125 -0.10937,0.10938 -0.39062,0.10938 h -1.4375 v -6.15625 q 0,-0.59375 -0.35938,-0.98438 -0.35937,-0.39062 -0.82812,-0.39062 -0.4375,0 -0.90625,0.32812 -0.46875,0.3125 -1.07813,1.25 v 5.17188 h 0.65625 q 0.26563,0 0.39063,0.10937 0.125,0.10938 0.125,0.28125 0,0.17188 -0.125,0.28125 -0.125,0.10938 -0.39063,0.10938 h -1.4375 v -6.09375 q 0,-0.625 -0.375,-1.03125 -0.35937,-0.40625 -0.8125,-0.40625 -0.42187,0 -0.82812,0.28125 -0.5625,0.375 -1.1875,1.29687 v 5.17188 h 0.65625 q 0.28125,0 0.39062,0.10937 0.125,0.10938 0.125,0.28125 0,0.17188 -0.125,0.28125 -0.10937,0.10938 -0.39062,0.10938 h -2.09375 q -0.28125,0 -0.40625,-0.10938 -0.125,-0.10937 -0.125,-0.28125 0,-0.17187 0.125,-0.28125 0.125,-0.10937 0.40625,-0.10937 h 0.65625 v -6.46875 h -0.65625 q -0.28125,0 -0.40625,-0.10938 -0.125,-0.10937 -0.125,-0.28125 0,-0.17187 0.125,-0.28125 0.125,-0.10937 0.40625,-0.10937 z m 11.40185,0 v 0.78125 q 0.98438,-1.0625 1.98438,-1.0625 0.60937,0 1.0625,0.32812 0.45312,0.3125 0.76562,0.96875 0.51563,-0.65625 1.04688,-0.96875 0.53125,-0.32812 1.07812,-0.32812 0.84375,0 1.34375,0.54687 0.65625,0.70313 0.65625,1.54688 v 5.4375 h 0.65625 q 0.28125,0 0.39063,0.10937 0.125,0.10938 0.125,0.28125 0,0.17188 -0.125,0.28125 -0.10938,0.10938 -0.39063,0.10938 h -1.4375 v -6.15625 q 0,-0.59375 -0.35937,-0.98438 -0.35938,-0.39062 -0.82813,-0.39062 -0.4375,0 -0.90625,0.32812 -0.46875,0.3125 -1.07812,1.25 v 5.17188 h 0.65625 q 0.26562,0 0.39062,0.10937 0.125,0.10938 0.125,0.28125 0,0.17188 -0.125,0.28125 -0.125,0.10938 -0.39062,0.10938 h -1.4375 v -6.09375 q 0,-0.625 -0.375,-1.03125 -0.35938,-0.40625 -0.8125,-0.40625 -0.42188,0 -0.82813,0.28125 -0.5625,0.375 -1.1875,1.29687 v 5.17188 h 0.65625 q 0.28125,0 0.39063,0.10937 0.125,0.10938 0.125,0.28125 0,0.17188 -0.125,0.28125 -0.10938,0.10938 -0.39063,0.10938 h -2.09375 q -0.28125,0 -0.40625,-0.10938 -0.125,-0.10937 -0.125,-0.28125 0,-0.17187 0.125,-0.28125 0.125,-0.10937 0.40625,-0.10937 h 0.65625 v -6.46875 h -0.65625 q -0.28125,0 -0.40625,-0.10938 -0.125,-0.10937 -0.125,-0.28125 0,-0.17187 0.125,-0.28125 0.125,-0.10937 0.40625,-0.10937 z m 15.33936,-4 v 2.01562 h -1.15625 v -2.01562 z m 0.0156,4 v 7.25 h 3.0625 q 0.29688,0 0.40625,0.10937 0.125,0.10938 0.125,0.28125 0,0.17188 -0.125,0.28125 -0.10937,0.10938 -0.40625,0.10938 h -6.90625 q -0.26562,0 -0.39062,-0.10938 -0.125,-0.10937 -0.125,-0.28125 0,-0.17187 0.125,-0.28125 0.125,-0.10937 0.39062,-0.10937 h 3.0625 v -6.46875 h -2.26562 q -0.28125,0 -0.40625,-0.10938 -0.125,-0.10937 -0.125,-0.28125 0,-0.17187 0.125,-0.28125 0.125,-0.10937 0.40625,-0.10937 z m 9.38623,0 h 4.23438 q 0.28125,0 0.39062,0.10937 0.125,0.10938 0.125,0.28125 0,0.17188 -0.125,0.28125 -0.10937,0.10938 -0.39062,0.10938 h -4.23438 v 5.1875 q 0,0.6875 0.54688,1.14062 0.54687,0.45313 1.59375,0.45313 0.78125,0 1.70312,-0.23438 0.92188,-0.25 1.4375,-0.54687 0.1875,-0.10938 0.29688,-0.10938 0.15625,0 0.26562,0.125 0.10938,0.10938 0.10938,0.26563 0,0.14062 -0.125,0.25 -0.29688,0.3125 -1.4375,0.67187 -1.14063,0.35938 -2.1875,0.35938 -1.375,0 -2.1875,-0.64063 -0.79688,-0.64062 -0.79688,-1.73437 v -5.1875 h -1.4375 q -0.28125,0 -0.40625,-0.10938 -0.10937,-0.10937 -0.10937,-0.28125 0,-0.17187 0.10937,-0.28125 0.125,-0.10937 0.40625,-0.10937 h 1.4375 v -2.29688 q 0,-0.28125 0.10938,-0.40625 0.10937,-0.125 0.28125,-0.125 0.17187,0 0.28125,0.125 0.10937,0.125 0.10937,0.40625 z m 21.05371,7.25 h 5.98438 v -0.29688 q 0,-0.28125 0.10937,-0.40625 0.10938,-0.125 0.29688,-0.125 0.15625,0 0.26562,0.125 0.125,0.125 0.125,0.40625 v 1.07813 h -7.53125 v -1.15625 q 2.375,-2.125 4.60938,-4.34375 1.04687,-1.01563 1.4375,-1.5 0.39062,-0.48438 0.53125,-0.84375 0.15625,-0.375 0.15625,-0.75 0,-1 -0.8125,-1.76563 -0.8125,-0.78125 -1.95313,-0.78125 -1.01562,0 -1.8125,0.59375 -0.78125,0.57813 -1.01562,1.45313 -0.0469,0.21875 -0.14063,0.28125 -0.10937,0.0937 -0.25,0.0937 -0.15625,0 -0.26562,-0.10938 -0.10938,-0.10937 -0.10938,-0.25 0,-0.45312 0.48438,-1.20312 0.48437,-0.76563 1.34375,-1.20313 0.85937,-0.4375 1.76562,-0.4375 1.45313,0 2.5,1.01563 1.04688,1 1.04688,2.28125 0,0.54687 -0.17188,1 -0.17187,0.4375 -0.60937,0.98437 -0.42188,0.53125 -1.51563,1.60938 -2.73437,2.70312 -4.46875,4.20312 z"
         id="path45"
         inkscape:connector-curvature="0"
         style="fill:#000000;fill-rule:nonzero" />
      <path
         d="m 417.6063,309.83728 h 124.78738 v 32.7244 H 417.6063 Z"
         id="path47"
         inkscape:connector-curvature="0"
         style="fill:#000000;fill-opacity:0;fill-rule:evenodd" />
      <path
         d="m 417.6063,309.83728 h 124.78738 v 32.7244 H 417.6063 Z"
         id="path49"
         inkscape:connector-curvature="0"
         style="fill-rule:evenodd;stroke:#000000;stroke-width:2;stroke-linecap:butt;stroke-linejoin:round" />
      <path
         d="m 443.3457,325.86948 v -0.25 q 0,-0.29688 0.10938,-0.40625 0.10937,-0.125 0.28125,-0.125 0.17187,0 0.28125,0.125 0.10937,0.10937 0.10937,0.40625 v 1.75 q 0,0.29687 -0.10937,0.42187 -0.10938,0.10938 -0.28125,0.10938 -0.15625,0 -0.26563,-0.0937 -0.10937,-0.10938 -0.125,-0.35938 -0.0625,-0.67187 -0.875,-1.26562 -0.79687,-0.59375 -2.17187,-0.59375 -1.73438,0 -2.64063,1.09375 -0.90625,1.07812 -0.90625,2.48437 0,1.51563 0.98438,2.5 1,0.98438 2.57812,0.98438 0.92188,0 1.85938,-0.32813 0.9375,-0.34375 1.70312,-1.09375 0.1875,-0.17187 0.34375,-0.17187 0.15625,0 0.26563,0.10937 0.10937,0.0937 0.10937,0.25 0,0.40625 -0.9375,1.01563 -1.51562,1 -3.375,1 -1.875,0 -3.09375,-1.20313 -1.20312,-1.20312 -1.20312,-3.04687 0,-1.89063 1.23437,-3.125 1.23438,-1.25 3.125,-1.25 1.78125,0 3,1.0625 z m 12.51123,3.25 q 0,1.78125 -1.28125,3.04687 -1.28125,1.26563 -3.07812,1.26563 -1.8125,0 -3.09375,-1.26563 -1.26563,-1.28125 -1.26563,-3.04687 0,-1.78125 1.26563,-3.04688 1.28125,-1.26562 3.09375,-1.26562 1.79687,0 3.07812,1.26562 1.28125,1.25 1.28125,3.04688 z m -0.79687,0 q 0,-1.46875 -1.04688,-2.5 -1.03125,-1.03125 -2.51562,-1.03125 -1.48438,0 -2.53125,1.04687 -1.04688,1.03125 -1.04688,2.48438 0,1.45312 1.04688,2.5 1.04687,1.03125 2.53125,1.03125 1.48437,0 2.51562,-1.03125 1.04688,-1.04688 1.04688,-2.5 z m 4.29248,-4.03125 v 0.78125 q 0.98437,-1.0625 1.98437,-1.0625 0.60938,0 1.0625,0.32812 0.45313,0.3125 0.76563,0.96875 0.51562,-0.65625 1.04687,-0.96875 0.53125,-0.32812 1.07813,-0.32812 0.84375,0 1.34375,0.54687 0.65625,0.70313 0.65625,1.54688 v 5.4375 h 0.65625 q 0.28125,0 0.39062,0.10937 0.125,0.10938 0.125,0.28125 0,0.17188 -0.125,0.28125 -0.10937,0.10938 -0.39062,0.10938 h -1.4375 v -6.15625 q 0,-0.59375 -0.35938,-0.98438 -0.35937,-0.39062 -0.82812,-0.39062 -0.4375,0 -0.90625,0.32812 -0.46875,0.3125 -1.07813,1.25 v 5.17188 h 0.65625 q 0.26563,0 0.39063,0.10937 0.125,0.10938 0.125,0.28125 0,0.17188 -0.125,0.28125 -0.125,0.10938 -0.39063,0.10938 h -1.4375 v -6.09375 q 0,-0.625 -0.375,-1.03125 -0.35937,-0.40625 -0.8125,-0.40625 -0.42187,0 -0.82812,0.28125 -0.5625,0.375 -1.1875,1.29687 v 5.17188 h 0.65625 q 0.28125,0 0.39062,0.10937 0.125,0.10938 0.125,0.28125 0,0.17188 -0.125,0.28125 -0.10937,0.10938 -0.39062,0.10938 h -2.09375 q -0.28125,0 -0.40625,-0.10938 -0.125,-0.10937 -0.125,-0.28125 0,-0.17187 0.125,-0.28125 0.125,-0.10937 0.40625,-0.10937 h 0.65625 v -6.46875 h -0.65625 q -0.28125,0 -0.40625,-0.10938 -0.125,-0.10937 -0.125,-0.28125 0,-0.17187 0.125,-0.28125 0.125,-0.10937 0.40625,-0.10937 z m 11.40185,0 v 0.78125 q 0.98438,-1.0625 1.98438,-1.0625 0.60937,0 1.0625,0.32812 0.45312,0.3125 0.76562,0.96875 0.51563,-0.65625 1.04688,-0.96875 0.53125,-0.32812 1.07812,-0.32812 0.84375,0 1.34375,0.54687 0.65625,0.70313 0.65625,1.54688 v 5.4375 h 0.65625 q 0.28125,0 0.39063,0.10937 0.125,0.10938 0.125,0.28125 0,0.17188 -0.125,0.28125 -0.10938,0.10938 -0.39063,0.10938 h -1.4375 v -6.15625 q 0,-0.59375 -0.35937,-0.98438 -0.35938,-0.39062 -0.82813,-0.39062 -0.4375,0 -0.90625,0.32812 -0.46875,0.3125 -1.07812,1.25 v 5.17188 h 0.65625 q 0.26562,0 0.39062,0.10937 0.125,0.10938 0.125,0.28125 0,0.17188 -0.125,0.28125 -0.125,0.10938 -0.39062,0.10938 h -1.4375 v -6.09375 q 0,-0.625 -0.375,-1.03125 -0.35938,-0.40625 -0.8125,-0.40625 -0.42188,0 -0.82813,0.28125 -0.5625,0.375 -1.1875,1.29687 v 5.17188 h 0.65625 q 0.28125,0 0.39063,0.10937 0.125,0.10938 0.125,0.28125 0,0.17188 -0.125,0.28125 -0.10938,0.10938 -0.39063,0.10938 h -2.09375 q -0.28125,0 -0.40625,-0.10938 -0.125,-0.10937 -0.125,-0.28125 0,-0.17187 0.125,-0.28125 0.125,-0.10937 0.40625,-0.10937 h 0.65625 v -6.46875 h -0.65625 q -0.28125,0 -0.40625,-0.10938 -0.125,-0.10937 -0.125,-0.28125 0,-0.17187 0.125,-0.28125 0.125,-0.10937 0.40625,-0.10937 z m 15.33936,-4 v 2.01562 h -1.15625 v -2.01562 z m 0.0156,4 v 7.25 h 3.0625 q 0.29688,0 0.40625,0.10937 0.125,0.10938 0.125,0.28125 0,0.17188 -0.125,0.28125 -0.10937,0.10938 -0.40625,0.10938 h -6.90625 q -0.26562,0 -0.39062,-0.10938 -0.125,-0.10937 -0.125,-0.28125 0,-0.17187 0.125,-0.28125 0.125,-0.10937 0.39062,-0.10937 h 3.0625 v -6.46875 h -2.26562 q -0.28125,0 -0.40625,-0.10938 -0.125,-0.10937 -0.125,-0.28125 0,-0.17187 0.125,-0.28125 0.125,-0.10937 0.40625,-0.10937 z m 9.38623,0 h 4.23438 q 0.28125,0 0.39062,0.10937 0.125,0.10938 0.125,0.28125 0,0.17188 -0.125,0.28125 -0.10937,0.10938 -0.39062,0.10938 h -4.23438 v 5.1875 q 0,0.6875 0.54688,1.14062 0.54687,0.45313 1.59375,0.45313 0.78125,0 1.70312,-0.23438 0.92188,-0.25 1.4375,-0.54687 0.1875,-0.10938 0.29688,-0.10938 0.15625,0 0.26562,0.125 0.10938,0.10938 0.10938,0.26563 0,0.14062 -0.125,0.25 -0.29688,0.3125 -1.4375,0.67187 -1.14063,0.35938 -2.1875,0.35938 -1.375,0 -2.1875,-0.64063 -0.79688,-0.64062 -0.79688,-1.73437 v -5.1875 h -1.4375 q -0.28125,0 -0.40625,-0.10938 -0.10937,-0.10937 -0.10937,-0.28125 0,-0.17187 0.10937,-0.28125 0.125,-0.10937 0.40625,-0.10937 h 1.4375 v -2.29688 q 0,-0.28125 0.10938,-0.40625 0.10937,-0.125 0.28125,-0.125 0.17187,0 0.28125,0.125 0.10937,0.125 0.10937,0.40625 z m 26.00684,1.6875 q 1.07812,0.48437 1.64062,1.32812 0.57813,0.84375 0.57813,1.75 0,1.40625 -1.14063,2.48438 -1.14062,1.0625 -2.84375,1.0625 -1,0 -2.07812,-0.42188 -1.07813,-0.4375 -1.5,-0.875 -0.14063,-0.15625 -0.14063,-0.32812 0,-0.14063 0.0937,-0.25 0.10938,-0.10938 0.26563,-0.10938 0.14062,0 0.32812,0.14063 1.4375,1.0625 3.04688,1.0625 1.35937,0 2.26562,-0.84375 0.92188,-0.85938 0.92188,-1.89063 0,-0.70312 -0.45313,-1.35937 -0.45312,-0.67188 -1.29687,-1.0625 -0.84375,-0.39063 -1.70313,-0.39063 -0.28125,0 -0.40625,-0.0937 -0.10937,-0.10937 -0.10937,-0.28125 0,-0.17187 0.10937,-0.28125 0.10938,-0.10937 0.34375,-0.10937 h 0.67188 q 1.04687,0 1.71875,-0.64063 0.6875,-0.64062 0.6875,-1.48437 0,-0.875 -0.71875,-1.53125 -0.70313,-0.67188 -1.85938,-0.67188 -0.79687,0 -1.48437,0.28125 -0.67188,0.28125 -1.07813,0.75 -0.15625,0.1875 -0.23437,0.23438 -0.0781,0.0469 -0.17188,0.0469 -0.15625,0 -0.28125,-0.10937 -0.10937,-0.10938 -0.10937,-0.26563 0,-0.35937 0.8125,-0.9375 1.125,-0.78125 2.54687,-0.78125 1.48438,0 2.42188,0.89063 0.95312,0.875 0.95312,2.10937 0,0.78125 -0.45312,1.48438 -0.45313,0.6875 -1.34375,1.09375 z"
         id="path51"
         inkscape:connector-curvature="0"
         style="fill:#000000;fill-rule:nonzero" />
      <path
         d="m 480,280.03876 v 29.79529"
         id="path53"
         inkscape:connector-curvature="0"
         style="fill:#000000;fill-opacity:0;fill-rule:evenodd" />
      <path
         d="m 480,280.03876 v 17.79529"
         id="path55"
         inkscape:connector-curvature="0"
         style="fill-rule:evenodd;stroke:#1a1a1a;stroke-width:2;stroke-linecap:butt;stroke-linejoin:round" />
      <path
         d="m 476.69653,297.83405 3.30347,9.07617 3.30346,-9.07617 z"
         id="path57"
         inkscape:connector-curvature="0"
         style="fill:#1a1a1a;fill-rule:evenodd;stroke:#1a1a1a;stroke-width:2;stroke-linecap:butt" />
      <path
         d="m 417.6063,247.31436 h 124.78738 v 32.7244 H 417.6063 Z"
         id="path59"
         inkscape:connector-curvature="0"
         style="fill:#000000;fill-opacity:0;fill-rule:evenodd" />
      <path
         d="m 417.6063,247.31436 h 124.78738 v 32.7244 H 417.6063 Z"
         id="path61"
         inkscape:connector-curvature="0"
         style="fill-rule:evenodd;stroke:#000000;stroke-width:2;stroke-linecap:butt;stroke-linejoin:round" />
      <path
         d="m 443.3457,263.34656 v -0.25 q 0,-0.29688 0.10938,-0.40625 0.10937,-0.125 0.28125,-0.125 0.17187,0 0.28125,0.125 0.10937,0.10937 0.10937,0.40625 v 1.75 q 0,0.29687 -0.10937,0.42187 -0.10938,0.10938 -0.28125,0.10938 -0.15625,0 -0.26563,-0.0937 -0.10937,-0.10938 -0.125,-0.35938 -0.0625,-0.67187 -0.875,-1.26562 -0.79687,-0.59375 -2.17187,-0.59375 -1.73438,0 -2.64063,1.09375 -0.90625,1.07812 -0.90625,2.48437 0,1.51563 0.98438,2.5 1,0.98438 2.57812,0.98438 0.92188,0 1.85938,-0.32813 0.9375,-0.34375 1.70312,-1.09375 0.1875,-0.17187 0.34375,-0.17187 0.15625,0 0.26563,0.10937 0.10937,0.0937 0.10937,0.25 0,0.40625 -0.9375,1.01563 -1.51562,1 -3.375,1 -1.875,0 -3.09375,-1.20313 -1.20312,-1.20312 -1.20312,-3.04687 0,-1.89063 1.23437,-3.125 1.23438,-1.25 3.125,-1.25 1.78125,0 3,1.0625 z m 12.51123,3.25 q 0,1.78125 -1.28125,3.04687 -1.28125,1.26563 -3.07812,1.26563 -1.8125,0 -3.09375,-1.26563 -1.26563,-1.28125 -1.26563,-3.04687 0,-1.78125 1.26563,-3.04688 1.28125,-1.26562 3.09375,-1.26562 1.79687,0 3.07812,1.26562 1.28125,1.25 1.28125,3.04688 z m -0.79687,0 q 0,-1.46875 -1.04688,-2.5 -1.03125,-1.03125 -2.51562,-1.03125 -1.48438,0 -2.53125,1.04687 -1.04688,1.03125 -1.04688,2.48438 0,1.45312 1.04688,2.5 1.04687,1.03125 2.53125,1.03125 1.48437,0 2.51562,-1.03125 1.04688,-1.04688 1.04688,-2.5 z m 4.29248,-4.03125 v 0.78125 q 0.98437,-1.0625 1.98437,-1.0625 0.60938,0 1.0625,0.32812 0.45313,0.3125 0.76563,0.96875 0.51562,-0.65625 1.04687,-0.96875 0.53125,-0.32812 1.07813,-0.32812 0.84375,0 1.34375,0.54687 0.65625,0.70313 0.65625,1.54688 v 5.4375 h 0.65625 q 0.28125,0 0.39062,0.10937 0.125,0.10938 0.125,0.28125 0,0.17188 -0.125,0.28125 -0.10937,0.10938 -0.39062,0.10938 h -1.4375 v -6.15625 q 0,-0.59375 -0.35938,-0.98438 -0.35937,-0.39062 -0.82812,-0.39062 -0.4375,0 -0.90625,0.32812 -0.46875,0.3125 -1.07813,1.25 v 5.17188 h 0.65625 q 0.26563,0 0.39063,0.10937 0.125,0.10938 0.125,0.28125 0,0.17188 -0.125,0.28125 -0.125,0.10938 -0.39063,0.10938 h -1.4375 v -6.09375 q 0,-0.625 -0.375,-1.03125 -0.35937,-0.40625 -0.8125,-0.40625 -0.42187,0 -0.82812,0.28125 -0.5625,0.375 -1.1875,1.29687 v 5.17188 h 0.65625 q 0.28125,0 0.39062,0.10937 0.125,0.10938 0.125,0.28125 0,0.17188 -0.125,0.28125 -0.10937,0.10938 -0.39062,0.10938 h -2.09375 q -0.28125,0 -0.40625,-0.10938 -0.125,-0.10937 -0.125,-0.28125 0,-0.17187 0.125,-0.28125 0.125,-0.10937 0.40625,-0.10937 h 0.65625 v -6.46875 h -0.65625 q -0.28125,0 -0.40625,-0.10938 -0.125,-0.10937 -0.125,-0.28125 0,-0.17187 0.125,-0.28125 0.125,-0.10937 0.40625,-0.10937 z m 11.40185,0 v 0.78125 q 0.98438,-1.0625 1.98438,-1.0625 0.60937,0 1.0625,0.32812 0.45312,0.3125 0.76562,0.96875 0.51563,-0.65625 1.04688,-0.96875 0.53125,-0.32812 1.07812,-0.32812 0.84375,0 1.34375,0.54687 0.65625,0.70313 0.65625,1.54688 v 5.4375 h 0.65625 q 0.28125,0 0.39063,0.10937 0.125,0.10938 0.125,0.28125 0,0.17188 -0.125,0.28125 -0.10938,0.10938 -0.39063,0.10938 h -1.4375 v -6.15625 q 0,-0.59375 -0.35937,-0.98438 -0.35938,-0.39062 -0.82813,-0.39062 -0.4375,0 -0.90625,0.32812 -0.46875,0.3125 -1.07812,1.25 v 5.17188 h 0.65625 q 0.26562,0 0.39062,0.10937 0.125,0.10938 0.125,0.28125 0,0.17188 -0.125,0.28125 -0.125,0.10938 -0.39062,0.10938 h -1.4375 v -6.09375 q 0,-0.625 -0.375,-1.03125 -0.35938,-0.40625 -0.8125,-0.40625 -0.42188,0 -0.82813,0.28125 -0.5625,0.375 -1.1875,1.29687 v 5.17188 h 0.65625 q 0.28125,0 0.39063,0.10937 0.125,0.10938 0.125,0.28125 0,0.17188 -0.125,0.28125 -0.10938,0.10938 -0.39063,0.10938 h -2.09375 q -0.28125,0 -0.40625,-0.10938 -0.125,-0.10937 -0.125,-0.28125 0,-0.17187 0.125,-0.28125 0.125,-0.10937 0.40625,-0.10937 h 0.65625 v -6.46875 h -0.65625 q -0.28125,0 -0.40625,-0.10938 -0.125,-0.10937 -0.125,-0.28125 0,-0.17187 0.125,-0.28125 0.125,-0.10937 0.40625,-0.10937 z m 15.33936,-4 v 2.01562 h -1.15625 v -2.01562 z m 0.0156,4 v 7.25 h 3.0625 q 0.29688,0 0.40625,0.10937 0.125,0.10938 0.125,0.28125 0,0.17188 -0.125,0.28125 -0.10937,0.10938 -0.40625,0.10938 h -6.90625 q -0.26562,0 -0.39062,-0.10938 -0.125,-0.10937 -0.125,-0.28125 0,-0.17187 0.125,-0.28125 0.125,-0.10937 0.39062,-0.10937 h 3.0625 v -6.46875 h -2.26562 q -0.28125,0 -0.40625,-0.10938 -0.125,-0.10937 -0.125,-0.28125 0,-0.17187 0.125,-0.28125 0.125,-0.10937 0.40625,-0.10937 z m 9.38623,0 h 4.23438 q 0.28125,0 0.39062,0.10937 0.125,0.10938 0.125,0.28125 0,0.17188 -0.125,0.28125 -0.10937,0.10938 -0.39062,0.10938 h -4.23438 v 5.1875 q 0,0.6875 0.54688,1.14062 0.54687,0.45313 1.59375,0.45313 0.78125,0 1.70312,-0.23438 0.92188,-0.25 1.4375,-0.54687 0.1875,-0.10938 0.29688,-0.10938 0.15625,0 0.26562,0.125 0.10938,0.10938 0.10938,0.26563 0,0.14062 -0.125,0.25 -0.29688,0.3125 -1.4375,0.67187 -1.14063,0.35938 -2.1875,0.35938 -1.375,0 -2.1875,-0.64063 -0.79688,-0.64062 -0.79688,-1.73437 v -5.1875 h -1.4375 q -0.28125,0 -0.40625,-0.10938 -0.10937,-0.10937 -0.10937,-0.28125 0,-0.17187 0.10937,-0.28125 0.125,-0.10937 0.40625,-0.10937 h 1.4375 v -2.29688 q 0,-0.28125 0.10938,-0.40625 0.10937,-0.125 0.28125,-0.125 0.17187,0 0.28125,0.125 0.10937,0.125 0.10937,0.40625 z m 25.86621,4.78125 h -5.17187 v -0.90625 l 4.32812,-7.48438 h 1.625 v 7.60938 h 0.65625 q 0.28125,0 0.40625,0.10937 0.125,0.0937 0.125,0.28125 0,0.15625 -0.125,0.28125 -0.125,0.10938 -0.40625,0.10938 h -0.65625 v 2.46875 h 0.65625 q 0.28125,0 0.40625,0.10937 0.125,0.10938 0.125,0.28125 0,0.17188 -0.125,0.28125 -0.125,0.10938 -0.40625,0.10938 h -2.89062 q -0.29688,0 -0.42188,-0.10938 -0.10937,-0.10937 -0.10937,-0.28125 0,-0.17187 0.10937,-0.28125 0.125,-0.10937 0.42188,-0.10937 h 1.45312 z m 0,-0.78125 v -6.82813 h -0.40625 l -3.95312,6.82813 z"
         id="path63"
         inkscape:connector-curvature="0"
         style="fill:#000000;fill-rule:nonzero" />
      <path
         d="m 480,217.02386 v 29.79527"
         id="path65"
         inkscape:connector-curvature="0"
         style="fill:#000000;fill-opacity:0;fill-rule:evenodd" />
      <path
         d="m 480,217.02386 v 17.79527"
         id="path67"
         inkscape:connector-curvature="0"
         style="fill-rule:evenodd;stroke:#1a1a1a;stroke-width:2;stroke-linecap:butt;stroke-linejoin:round" />
      <path
         d="m 476.69653,234.81914 3.30347,9.0762 3.30346,-9.0762 z"
         id="path69"
         inkscape:connector-curvature="0"
         style="fill:#1a1a1a;fill-rule:evenodd;stroke:#1a1a1a;stroke-width:2;stroke-linecap:butt" />
      <path
         d="m 417.6063,184.29945 h 124.78738 v 32.72441 H 417.6063 Z"
         id="path71"
         inkscape:connector-curvature="0"
         style="fill:#000000;fill-opacity:0;fill-rule:evenodd" />
      <path
         d="m 417.6063,184.29945 h 124.78738 v 32.72441 H 417.6063 Z"
         id="path73"
         inkscape:connector-curvature="0"
         style="fill-rule:evenodd;stroke:#000000;stroke-width:2;stroke-linecap:butt;stroke-linejoin:round" />
      <path
         d="m 443.3457,200.33165 v -0.25 q 0,-0.29688 0.10938,-0.40625 0.10937,-0.125 0.28125,-0.125 0.17187,0 0.28125,0.125 0.10937,0.10937 0.10937,0.40625 v 1.75 q 0,0.29687 -0.10937,0.42187 -0.10938,0.10938 -0.28125,0.10938 -0.15625,0 -0.26563,-0.0937 -0.10937,-0.10938 -0.125,-0.35938 -0.0625,-0.67187 -0.875,-1.26562 -0.79687,-0.59375 -2.17187,-0.59375 -1.73438,0 -2.64063,1.09375 -0.90625,1.07812 -0.90625,2.48437 0,1.51563 0.98438,2.5 1,0.98438 2.57812,0.98438 0.92188,0 1.85938,-0.32813 0.9375,-0.34375 1.70312,-1.09375 0.1875,-0.17187 0.34375,-0.17187 0.15625,0 0.26563,0.10937 0.10937,0.0937 0.10937,0.25 0,0.40625 -0.9375,1.01563 -1.51562,1 -3.375,1 -1.875,0 -3.09375,-1.20313 -1.20312,-1.20312 -1.20312,-3.04687 0,-1.89063 1.23437,-3.125 1.23438,-1.25 3.125,-1.25 1.78125,0 3,1.0625 z m 12.51123,3.25 q 0,1.78125 -1.28125,3.04687 -1.28125,1.26563 -3.07812,1.26563 -1.8125,0 -3.09375,-1.26563 -1.26563,-1.28125 -1.26563,-3.04687 0,-1.78125 1.26563,-3.04688 1.28125,-1.26562 3.09375,-1.26562 1.79687,0 3.07812,1.26562 1.28125,1.25 1.28125,3.04688 z m -0.79687,0 q 0,-1.46875 -1.04688,-2.5 -1.03125,-1.03125 -2.51562,-1.03125 -1.48438,0 -2.53125,1.04687 -1.04688,1.03125 -1.04688,2.48438 0,1.45312 1.04688,2.5 1.04687,1.03125 2.53125,1.03125 1.48437,0 2.51562,-1.03125 1.04688,-1.04688 1.04688,-2.5 z m 4.29248,-4.03125 v 0.78125 q 0.98437,-1.0625 1.98437,-1.0625 0.60938,0 1.0625,0.32812 0.45313,0.3125 0.76563,0.96875 0.51562,-0.65625 1.04687,-0.96875 0.53125,-0.32812 1.07813,-0.32812 0.84375,0 1.34375,0.54687 0.65625,0.70313 0.65625,1.54688 v 5.4375 h 0.65625 q 0.28125,0 0.39062,0.10937 0.125,0.10938 0.125,0.28125 0,0.17188 -0.125,0.28125 -0.10937,0.10938 -0.39062,0.10938 h -1.4375 v -6.15625 q 0,-0.59375 -0.35938,-0.98438 -0.35937,-0.39062 -0.82812,-0.39062 -0.4375,0 -0.90625,0.32812 -0.46875,0.3125 -1.07813,1.25 v 5.17188 h 0.65625 q 0.26563,0 0.39063,0.10937 0.125,0.10938 0.125,0.28125 0,0.17188 -0.125,0.28125 -0.125,0.10938 -0.39063,0.10938 h -1.4375 v -6.09375 q 0,-0.625 -0.375,-1.03125 -0.35937,-0.40625 -0.8125,-0.40625 -0.42187,0 -0.82812,0.28125 -0.5625,0.375 -1.1875,1.29687 v 5.17188 h 0.65625 q 0.28125,0 0.39062,0.10937 0.125,0.10938 0.125,0.28125 0,0.17188 -0.125,0.28125 -0.10937,0.10938 -0.39062,0.10938 h -2.09375 q -0.28125,0 -0.40625,-0.10938 -0.125,-0.10937 -0.125,-0.28125 0,-0.17187 0.125,-0.28125 0.125,-0.10937 0.40625,-0.10937 h 0.65625 v -6.46875 h -0.65625 q -0.28125,0 -0.40625,-0.10938 -0.125,-0.10937 -0.125,-0.28125 0,-0.17187 0.125,-0.28125 0.125,-0.10937 0.40625,-0.10937 z m 11.40185,0 v 0.78125 q 0.98438,-1.0625 1.98438,-1.0625 0.60937,0 1.0625,0.32812 0.45312,0.3125 0.76562,0.96875 0.51563,-0.65625 1.04688,-0.96875 0.53125,-0.32812 1.07812,-0.32812 0.84375,0 1.34375,0.54687 0.65625,0.70313 0.65625,1.54688 v 5.4375 h 0.65625 q 0.28125,0 0.39063,0.10937 0.125,0.10938 0.125,0.28125 0,0.17188 -0.125,0.28125 -0.10938,0.10938 -0.39063,0.10938 h -1.4375 v -6.15625 q 0,-0.59375 -0.35937,-0.98438 -0.35938,-0.39062 -0.82813,-0.39062 -0.4375,0 -0.90625,0.32812 -0.46875,0.3125 -1.07812,1.25 v 5.17188 h 0.65625 q 0.26562,0 0.39062,0.10937 0.125,0.10938 0.125,0.28125 0,0.17188 -0.125,0.28125 -0.125,0.10938 -0.39062,0.10938 h -1.4375 v -6.09375 q 0,-0.625 -0.375,-1.03125 -0.35938,-0.40625 -0.8125,-0.40625 -0.42188,0 -0.82813,0.28125 -0.5625,0.375 -1.1875,1.29687 v 5.17188 h 0.65625 q 0.28125,0 0.39063,0.10937 0.125,0.10938 0.125,0.28125 0,0.17188 -0.125,0.28125 -0.10938,0.10938 -0.39063,0.10938 h -2.09375 q -0.28125,0 -0.40625,-0.10938 -0.125,-0.10937 -0.125,-0.28125 0,-0.17187 0.125,-0.28125 0.125,-0.10937 0.40625,-0.10937 h 0.65625 v -6.46875 h -0.65625 q -0.28125,0 -0.40625,-0.10938 -0.125,-0.10937 -0.125,-0.28125 0,-0.17187 0.125,-0.28125 0.125,-0.10937 0.40625,-0.10937 z m 15.33936,-4 v 2.01562 h -1.15625 v -2.01562 z m 0.0156,4 v 7.25 h 3.0625 q 0.29688,0 0.40625,0.10937 0.125,0.10938 0.125,0.28125 0,0.17188 -0.125,0.28125 -0.10937,0.10938 -0.40625,0.10938 h -6.90625 q -0.26562,0 -0.39062,-0.10938 -0.125,-0.10937 -0.125,-0.28125 0,-0.17187 0.125,-0.28125 0.125,-0.10937 0.39062,-0.10937 h 3.0625 v -6.46875 h -2.26562 q -0.28125,0 -0.40625,-0.10938 -0.125,-0.10937 -0.125,-0.28125 0,-0.17187 0.125,-0.28125 0.125,-0.10937 0.40625,-0.10937 z m 9.38623,0 h 4.23438 q 0.28125,0 0.39062,0.10937 0.125,0.10938 0.125,0.28125 0,0.17188 -0.125,0.28125 -0.10937,0.10938 -0.39062,0.10938 h -4.23438 v 5.1875 q 0,0.6875 0.54688,1.14062 0.54687,0.45313 1.59375,0.45313 0.78125,0 1.70312,-0.23438 0.92188,-0.25 1.4375,-0.54687 0.1875,-0.10938 0.29688,-0.10938 0.15625,0 0.26562,0.125 0.10938,0.10938 0.10938,0.26563 0,0.14062 -0.125,0.25 -0.29688,0.3125 -1.4375,0.67187 -1.14063,0.35938 -2.1875,0.35938 -1.375,0 -2.1875,-0.64063 -0.79688,-0.64062 -0.79688,-1.73437 v -5.1875 h -1.4375 q -0.28125,0 -0.40625,-0.10938 -0.10937,-0.10937 -0.10937,-0.28125 0,-0.17187 0.10937,-0.28125 0.125,-0.10937 0.40625,-0.10937 h 1.4375 v -2.29688 q 0,-0.28125 0.10938,-0.40625 0.10937,-0.125 0.28125,-0.125 0.17187,0 0.28125,0.125 0.10937,0.125 0.10937,0.40625 z m 22.25684,-2.82813 v 3.8125 q 0.6875,-0.28125 1.3125,-0.42187 0.64062,-0.14063 1.20312,-0.14063 1.46875,0 2.45313,1.03125 1,1.01563 1,2.70313 0,1.85937 -1.125,3.01562 -1.10938,1.14063 -2.78125,1.14063 -1.09375,0 -2.125,-0.5 -0.71875,-0.34375 -1.3125,-0.84375 -0.35938,-0.3125 -0.35938,-0.51563 0,-0.17187 0.10938,-0.28125 0.125,-0.10937 0.26562,-0.10937 0.15625,0 0.34375,0.15625 1.39063,1.3125 3.04688,1.3125 1.35937,0 2.25,-0.92188 0.89062,-0.9375 0.89062,-2.5 0,-1.3125 -0.76562,-2.10937 -0.76563,-0.8125 -1.95313,-0.8125 -1.21875,0 -2.4375,0.64062 -0.29687,0.15625 -0.42187,0.15625 -0.15625,0 -0.26563,-0.10937 -0.0937,-0.10938 -0.0937,-0.3125 v -5.17188 h 5.42188 q 0.28125,0 0.40625,0.10938 0.125,0.10937 0.125,0.28125 0,0.17187 -0.125,0.28125 -0.125,0.10937 -0.40625,0.10937 z"
         id="path75"
         inkscape:connector-curvature="0"
         style="fill:#000000;fill-rule:nonzero" />
      <path
         d="m 480,342.56168 v 25.85828"
         id="path77"
         inkscape:connector-curvature="0"
         style="fill:#000000;fill-opacity:0;fill-rule:evenodd" />
      <path
         d="m 480,342.56168 v 13.85828"
         id="path79"
         inkscape:connector-curvature="0"
         style="fill-rule:evenodd;stroke:#1a1a1a;stroke-width:2;stroke-linecap:butt;stroke-linejoin:round" />
      <path
         d="m 476.69653,356.41995 3.30347,9.0762 3.30346,-9.0762 z"
         id="path81"
         inkscape:connector-curvature="0"
         style="fill:#1a1a1a;fill-rule:evenodd;stroke:#1a1a1a;stroke-width:2;stroke-linecap:butt" />
      <path
         d="M 728.6142,395.23825 542.37793,447.80517"
         id="path83"
         inkscape:connector-curvature="0"
         style="fill:#000000;fill-opacity:0;fill-rule:evenodd" />
      <path
         d="M 728.6142,395.23822 553.9267,444.54541"
         id="path85"
         inkscape:connector-curvature="0"
         style="fill-rule:evenodd;stroke:#1a1a1a;stroke-width:2;stroke-linecap:butt;stroke-linejoin:round" />
      <path
         d="m 553.02936,441.36615 -7.83752,5.64478 9.63226,0.71374 z"
         id="path87"
         inkscape:connector-curvature="0"
         style="fill:#1a1a1a;fill-rule:evenodd;stroke:#1a1a1a;stroke-width:2;stroke-linecap:butt" />
      <path
         d="m 666.22046,362.51382 h 124.78742 v 32.72443 H 666.22046 Z"
         id="path89"
         inkscape:connector-curvature="0"
         style="fill:#ffff00;fill-rule:evenodd" />
      <path
         d="m 666.22046,362.51382 h 124.78742 v 32.72443 H 666.22046 Z"
         id="path91"
         inkscape:connector-curvature="0"
         style="fill-rule:evenodd;stroke:#000000;stroke-width:2;stroke-linecap:butt;stroke-linejoin:round" />
      <path
         d="m 691.9599,378.54602 v -0.25 q 0,-0.29688 0.10937,-0.40625 0.10938,-0.125 0.28125,-0.125 0.17188,0 0.28125,0.125 0.10938,0.10937 0.10938,0.40625 v 1.75 q 0,0.29687 -0.10938,0.42187 -0.10937,0.10938 -0.28125,0.10938 -0.15625,0 -0.26562,-0.0937 -0.10938,-0.10938 -0.125,-0.35938 -0.0625,-0.67187 -0.875,-1.26562 -0.79688,-0.59375 -2.17188,-0.59375 -1.73437,0 -2.64062,1.09375 -0.90625,1.07812 -0.90625,2.48437 0,1.51563 0.98437,2.5 1,0.98438 2.57813,0.98438 0.92187,0 1.85937,-0.32813 0.9375,-0.34375 1.70313,-1.09375 0.1875,-0.17187 0.34375,-0.17187 0.15625,0 0.26562,0.10937 0.10938,0.0937 0.10938,0.25 0,0.40625 -0.9375,1.01563 -1.51563,1 -3.375,1 -1.875,0 -3.09375,-1.20313 -1.20313,-1.20312 -1.20313,-3.04687 0,-1.89063 1.23438,-3.125 1.23437,-1.25 3.125,-1.25 1.78125,0 3,1.0625 z m 12.51123,3.25 q 0,1.78125 -1.28125,3.04687 -1.28125,1.26563 -3.07813,1.26563 -1.8125,0 -3.09375,-1.26563 -1.26562,-1.28125 -1.26562,-3.04687 0,-1.78125 1.26562,-3.04688 1.28125,-1.26562 3.09375,-1.26562 1.79688,0 3.07813,1.26562 1.28125,1.25 1.28125,3.04688 z m -0.79688,0 q 0,-1.46875 -1.04687,-2.5 -1.03125,-1.03125 -2.51563,-1.03125 -1.48437,0 -2.53125,1.04687 -1.04687,1.03125 -1.04687,2.48438 0,1.45312 1.04687,2.5 1.04688,1.03125 2.53125,1.03125 1.48438,0 2.51563,-1.03125 1.04687,-1.04688 1.04687,-2.5 z m 4.29249,-4.03125 v 0.78125 q 0.98437,-1.0625 1.98437,-1.0625 0.60938,0 1.0625,0.32812 0.45313,0.3125 0.76563,0.96875 0.51562,-0.65625 1.04687,-0.96875 0.53125,-0.32812 1.07813,-0.32812 0.84375,0 1.34375,0.54687 0.65625,0.70313 0.65625,1.54688 v 5.4375 h 0.65625 q 0.28125,0 0.39062,0.10937 0.125,0.10938 0.125,0.28125 0,0.17188 -0.125,0.28125 -0.10937,0.10938 -0.39062,0.10938 h -1.4375 v -6.15625 q 0,-0.59375 -0.35938,-0.98438 -0.35937,-0.39062 -0.82812,-0.39062 -0.4375,0 -0.90625,0.32812 -0.46875,0.3125 -1.07813,1.25 v 5.17188 h 0.65625 q 0.26563,0 0.39063,0.10937 0.125,0.10938 0.125,0.28125 0,0.17188 -0.125,0.28125 -0.125,0.10938 -0.39063,0.10938 h -1.4375 v -6.09375 q 0,-0.625 -0.375,-1.03125 -0.35937,-0.40625 -0.8125,-0.40625 -0.42187,0 -0.82812,0.28125 -0.5625,0.375 -1.1875,1.29687 v 5.17188 h 0.65625 q 0.28125,0 0.39062,0.10937 0.125,0.10938 0.125,0.28125 0,0.17188 -0.125,0.28125 -0.10937,0.10938 -0.39062,0.10938 h -2.09375 q -0.28125,0 -0.40625,-0.10938 -0.125,-0.10937 -0.125,-0.28125 0,-0.17187 0.125,-0.28125 0.125,-0.10937 0.40625,-0.10937 h 0.65625 v -6.46875 h -0.65625 q -0.28125,0 -0.40625,-0.10938 -0.125,-0.10937 -0.125,-0.28125 0,-0.17187 0.125,-0.28125 0.125,-0.10937 0.40625,-0.10937 z m 11.40185,0 v 0.78125 q 0.98438,-1.0625 1.98438,-1.0625 0.60937,0 1.0625,0.32812 0.45312,0.3125 0.76562,0.96875 0.51563,-0.65625 1.04688,-0.96875 0.53125,-0.32812 1.07812,-0.32812 0.84375,0 1.34375,0.54687 0.65625,0.70313 0.65625,1.54688 v 5.4375 h 0.65625 q 0.28125,0 0.39063,0.10937 0.125,0.10938 0.125,0.28125 0,0.17188 -0.125,0.28125 -0.10938,0.10938 -0.39063,0.10938 h -1.4375 v -6.15625 q 0,-0.59375 -0.35937,-0.98438 -0.35938,-0.39062 -0.82813,-0.39062 -0.4375,0 -0.90625,0.32812 -0.46875,0.3125 -1.07812,1.25 v 5.17188 h 0.65625 q 0.26562,0 0.39062,0.10937 0.125,0.10938 0.125,0.28125 0,0.17188 -0.125,0.28125 -0.125,0.10938 -0.39062,0.10938 h -1.4375 v -6.09375 q 0,-0.625 -0.375,-1.03125 -0.35938,-0.40625 -0.8125,-0.40625 -0.42188,0 -0.82813,0.28125 -0.5625,0.375 -1.1875,1.29687 v 5.17188 h 0.65625 q 0.28125,0 0.39063,0.10937 0.125,0.10938 0.125,0.28125 0,0.17188 -0.125,0.28125 -0.10938,0.10938 -0.39063,0.10938 h -2.09375 q -0.28125,0 -0.40625,-0.10938 -0.125,-0.10937 -0.125,-0.28125 0,-0.17187 0.125,-0.28125 0.125,-0.10937 0.40625,-0.10937 h 0.65625 v -6.46875 h -0.65625 q -0.28125,0 -0.40625,-0.10938 -0.125,-0.10937 -0.125,-0.28125 0,-0.17187 0.125,-0.28125 0.125,-0.10937 0.40625,-0.10937 z m 15.33936,-4 v 2.01562 h -1.15625 v -2.01562 z m 0.0156,4 v 7.25 h 3.0625 q 0.29688,0 0.40625,0.10937 0.125,0.10938 0.125,0.28125 0,0.17188 -0.125,0.28125 -0.10937,0.10938 -0.40625,0.10938 h -6.90625 q -0.26562,0 -0.39062,-0.10938 -0.125,-0.10937 -0.125,-0.28125 0,-0.17187 0.125,-0.28125 0.125,-0.10937 0.39062,-0.10937 h 3.0625 v -6.46875 h -2.26562 q -0.28125,0 -0.40625,-0.10938 -0.125,-0.10937 -0.125,-0.28125 0,-0.17187 0.125,-0.28125 0.125,-0.10937 0.40625,-0.10937 z m 9.38623,0 h 4.23438 q 0.28125,0 0.39062,0.10937 0.125,0.10938 0.125,0.28125 0,0.17188 -0.125,0.28125 -0.10937,0.10938 -0.39062,0.10938 h -4.23438 v 5.1875 q 0,0.6875 0.54688,1.14062 0.54687,0.45313 1.59375,0.45313 0.78125,0 1.70312,-0.23438 0.92188,-0.25 1.4375,-0.54687 0.1875,-0.10938 0.29688,-0.10938 0.15625,0 0.26562,0.125 0.10938,0.10938 0.10938,0.26563 0,0.14062 -0.125,0.25 -0.29688,0.3125 -1.4375,0.67187 -1.14063,0.35938 -2.1875,0.35938 -1.375,0 -2.1875,-0.64063 -0.79688,-0.64062 -0.79688,-1.73437 v -5.1875 h -1.4375 q -0.28125,0 -0.40625,-0.10938 -0.10937,-0.10937 -0.10937,-0.28125 0,-0.17187 0.10937,-0.28125 0.125,-0.10937 0.40625,-0.10937 h 1.4375 v -2.29688 q 0,-0.28125 0.10938,-0.40625 0.10937,-0.125 0.28125,-0.125 0.17187,0 0.28125,0.125 0.10937,0.125 0.10937,0.40625 z m 22.08496,3.10937 q 0.71875,-1.07812 1.48438,-1.57812 0.76562,-0.51563 1.70312,-0.51563 1.25,0 2.20313,1.04688 0.96875,1.03125 0.96875,2.54687 0,1.39063 -0.875,2.54688 -0.875,1.15625 -2.4375,1.15625 -1,0 -1.875,-0.625 -0.875,-0.625 -1.39063,-1.90625 -0.60937,-1.60938 -0.60937,-3.5625 0,-1.46875 0.57812,-2.71875 0.45313,-0.98438 1.1875,-1.71875 0.75,-0.73438 1.73438,-1.20313 0.98437,-0.46875 2.14062,-0.46875 0.78125,0 1.29688,0.3125 0.21875,0.14063 0.21875,0.375 0,0.17188 -0.10938,0.28125 -0.0937,0.0937 -0.25,0.0937 -0.125,0 -0.28125,-0.0937 -0.39062,-0.1875 -0.95312,-0.1875 -1.8125,0 -3.29688,1.5625 -1.48437,1.54688 -1.48437,3.70313 0,0.29687 0.0469,0.95312 z m 0.17188,1.28125 q 0.35937,1.6875 1.10937,2.42188 0.76563,0.71875 1.79688,0.71875 1.03125,0 1.76562,-0.8125 0.75,-0.8125 0.75,-2.10938 0,-1.21875 -0.75,-2.01562 -0.73437,-0.79688 -1.67187,-0.79688 -0.90625,0 -1.73438,0.76563 -0.5625,0.51562 -1.26562,1.82812 z"
         id="path93"
         inkscape:connector-curvature="0"
         style="fill:#000000;fill-rule:nonzero" />
      <path
         d="m 728.6142,332.22333 v 29.79529"
         id="path95"
         inkscape:connector-curvature="0"
         style="fill:#000000;fill-opacity:0;fill-rule:evenodd" />
      <path
         d="m 728.6142,332.22336 v 17.79526"
         id="path97"
         inkscape:connector-curvature="0"
         style="fill-rule:evenodd;stroke:#1a1a1a;stroke-width:2;stroke-linecap:butt;stroke-linejoin:round" />
      <path
         d="m 725.3107,350.01862 3.30347,9.0762 3.30346,-9.0762 z"
         id="path99"
         inkscape:connector-curvature="0"
         style="fill:#1a1a1a;fill-rule:evenodd;stroke:#1a1a1a;stroke-width:2;stroke-linecap:butt" />
      <path
         d="m 666.22046,299.49893 h 124.78742 v 32.7244 H 666.22046 Z"
         id="path101"
         inkscape:connector-curvature="0"
         style="fill:#ffff00;fill-rule:evenodd" />
      <path
         d="m 666.22046,299.49893 h 124.78742 v 32.7244 H 666.22046 Z"
         id="path103"
         inkscape:connector-curvature="0"
         style="fill-rule:evenodd;stroke:#000000;stroke-width:2;stroke-linecap:butt;stroke-linejoin:round" />
      <path
         d="m 691.9599,315.53113 v -0.25 q 0,-0.29687 0.10937,-0.40625 0.10938,-0.125 0.28125,-0.125 0.17188,0 0.28125,0.125 0.10938,0.10938 0.10938,0.40625 v 1.75 q 0,0.29688 -0.10938,0.42188 -0.10937,0.10937 -0.28125,0.10937 -0.15625,0 -0.26562,-0.0937 -0.10938,-0.10937 -0.125,-0.35937 -0.0625,-0.67188 -0.875,-1.26563 -0.79688,-0.59375 -2.17188,-0.59375 -1.73437,0 -2.64062,1.09375 -0.90625,1.07813 -0.90625,2.48438 0,1.51562 0.98437,2.5 1,0.98437 2.57813,0.98437 0.92187,0 1.85937,-0.32812 0.9375,-0.34375 1.70313,-1.09375 0.1875,-0.17188 0.34375,-0.17188 0.15625,0 0.26562,0.10938 0.10938,0.0937 0.10938,0.25 0,0.40625 -0.9375,1.01562 -1.51563,1 -3.375,1 -1.875,0 -3.09375,-1.20312 -1.20313,-1.20313 -1.20313,-3.04688 0,-1.89062 1.23438,-3.125 1.23437,-1.25 3.125,-1.25 1.78125,0 3,1.0625 z m 12.51123,3.25 q 0,1.78125 -1.28125,3.04688 -1.28125,1.26562 -3.07813,1.26562 -1.8125,0 -3.09375,-1.26562 -1.26562,-1.28125 -1.26562,-3.04688 0,-1.78125 1.26562,-3.04687 1.28125,-1.26563 3.09375,-1.26563 1.79688,0 3.07813,1.26563 1.28125,1.25 1.28125,3.04687 z m -0.79688,0 q 0,-1.46875 -1.04687,-2.5 -1.03125,-1.03125 -2.51563,-1.03125 -1.48437,0 -2.53125,1.04688 -1.04687,1.03125 -1.04687,2.48437 0,1.45313 1.04687,2.5 1.04688,1.03125 2.53125,1.03125 1.48438,0 2.51563,-1.03125 1.04687,-1.04687 1.04687,-2.5 z m 4.29249,-4.03125 v 0.78125 q 0.98437,-1.0625 1.98437,-1.0625 0.60938,0 1.0625,0.32813 0.45313,0.3125 0.76563,0.96875 0.51562,-0.65625 1.04687,-0.96875 0.53125,-0.32813 1.07813,-0.32813 0.84375,0 1.34375,0.54688 0.65625,0.70312 0.65625,1.54687 v 5.4375 h 0.65625 q 0.28125,0 0.39062,0.10938 0.125,0.10937 0.125,0.28125 0,0.17187 -0.125,0.28125 -0.10937,0.10937 -0.39062,0.10937 h -1.4375 v -6.15625 q 0,-0.59375 -0.35938,-0.98437 -0.35937,-0.39063 -0.82812,-0.39063 -0.4375,0 -0.90625,0.32813 -0.46875,0.3125 -1.07813,1.25 v 5.17187 h 0.65625 q 0.26563,0 0.39063,0.10938 0.125,0.10937 0.125,0.28125 0,0.17187 -0.125,0.28125 -0.125,0.10937 -0.39063,0.10937 h -1.4375 v -6.09375 q 0,-0.625 -0.375,-1.03125 -0.35937,-0.40625 -0.8125,-0.40625 -0.42187,0 -0.82812,0.28125 -0.5625,0.375 -1.1875,1.29688 v 5.17187 h 0.65625 q 0.28125,0 0.39062,0.10938 0.125,0.10937 0.125,0.28125 0,0.17187 -0.125,0.28125 -0.10937,0.10937 -0.39062,0.10937 h -2.09375 q -0.28125,0 -0.40625,-0.10937 -0.125,-0.10938 -0.125,-0.28125 0,-0.17188 0.125,-0.28125 0.125,-0.10938 0.40625,-0.10938 h 0.65625 v -6.46875 h -0.65625 q -0.28125,0 -0.40625,-0.10937 -0.125,-0.10938 -0.125,-0.28125 0,-0.17188 0.125,-0.28125 0.125,-0.10938 0.40625,-0.10938 z m 11.40185,0 v 0.78125 q 0.98438,-1.0625 1.98438,-1.0625 0.60937,0 1.0625,0.32813 0.45312,0.3125 0.76562,0.96875 0.51563,-0.65625 1.04688,-0.96875 0.53125,-0.32813 1.07812,-0.32813 0.84375,0 1.34375,0.54688 0.65625,0.70312 0.65625,1.54687 v 5.4375 h 0.65625 q 0.28125,0 0.39063,0.10938 0.125,0.10937 0.125,0.28125 0,0.17187 -0.125,0.28125 -0.10938,0.10937 -0.39063,0.10937 h -1.4375 v -6.15625 q 0,-0.59375 -0.35937,-0.98437 -0.35938,-0.39063 -0.82813,-0.39063 -0.4375,0 -0.90625,0.32813 -0.46875,0.3125 -1.07812,1.25 v 5.17187 h 0.65625 q 0.26562,0 0.39062,0.10938 0.125,0.10937 0.125,0.28125 0,0.17187 -0.125,0.28125 -0.125,0.10937 -0.39062,0.10937 h -1.4375 v -6.09375 q 0,-0.625 -0.375,-1.03125 -0.35938,-0.40625 -0.8125,-0.40625 -0.42188,0 -0.82813,0.28125 -0.5625,0.375 -1.1875,1.29688 v 5.17187 h 0.65625 q 0.28125,0 0.39063,0.10938 0.125,0.10937 0.125,0.28125 0,0.17187 -0.125,0.28125 -0.10938,0.10937 -0.39063,0.10937 h -2.09375 q -0.28125,0 -0.40625,-0.10937 -0.125,-0.10938 -0.125,-0.28125 0,-0.17188 0.125,-0.28125 0.125,-0.10938 0.40625,-0.10938 h 0.65625 v -6.46875 h -0.65625 q -0.28125,0 -0.40625,-0.10937 -0.125,-0.10938 -0.125,-0.28125 0,-0.17188 0.125,-0.28125 0.125,-0.10938 0.40625,-0.10938 z m 15.33936,-4 v 2.01563 h -1.15625 v -2.01563 z m 0.0156,4 v 7.25 h 3.0625 q 0.29688,0 0.40625,0.10938 0.125,0.10937 0.125,0.28125 0,0.17187 -0.125,0.28125 -0.10937,0.10937 -0.40625,0.10937 h -6.90625 q -0.26562,0 -0.39062,-0.10937 -0.125,-0.10938 -0.125,-0.28125 0,-0.17188 0.125,-0.28125 0.125,-0.10938 0.39062,-0.10938 h 3.0625 v -6.46875 h -2.26562 q -0.28125,0 -0.40625,-0.10937 -0.125,-0.10938 -0.125,-0.28125 0,-0.17188 0.125,-0.28125 0.125,-0.10938 0.40625,-0.10938 z m 9.38623,0 h 4.23438 q 0.28125,0 0.39062,0.10938 0.125,0.10937 0.125,0.28125 0,0.17187 -0.125,0.28125 -0.10937,0.10937 -0.39062,0.10937 h -4.23438 v 5.1875 q 0,0.6875 0.54688,1.14063 0.54687,0.45312 1.59375,0.45312 0.78125,0 1.70312,-0.23437 0.92188,-0.25 1.4375,-0.54688 0.1875,-0.10937 0.29688,-0.10937 0.15625,0 0.26562,0.125 0.10938,0.10937 0.10938,0.26562 0,0.14063 -0.125,0.25 -0.29688,0.3125 -1.4375,0.67188 -1.14063,0.35937 -2.1875,0.35937 -1.375,0 -2.1875,-0.64062 -0.79688,-0.64063 -0.79688,-1.73438 v -5.1875 h -1.4375 q -0.28125,0 -0.40625,-0.10937 -0.10937,-0.10938 -0.10937,-0.28125 0,-0.17188 0.10937,-0.28125 0.125,-0.10938 0.40625,-0.10938 h 1.4375 v -2.29687 q 0,-0.28125 0.10938,-0.40625 0.10937,-0.125 0.28125,-0.125 0.17187,0 0.28125,0.125 0.10937,0.125 0.10937,0.40625 z m 27.03809,-2.46875 v -0.35937 h -5.59375 v 0.6875 q 0,0.28125 -0.10938,0.40625 -0.0937,0.10937 -0.28125,0.10937 -0.15625,0 -0.28125,-0.10937 -0.10937,-0.125 -0.10937,-0.40625 v -1.46875 h 7.15625 v 1.23437 l -3.14063,10.03125 q -0.0625,0.23438 -0.17187,0.3125 -0.0937,0.0781 -0.23438,0.0781 -0.15625,0 -0.28125,-0.10938 -0.10937,-0.10937 -0.10937,-0.26562 0,-0.0937 0.0625,-0.25 z"
         id="path105"
         inkscape:connector-curvature="0"
         style="fill:#000000;fill-rule:nonzero" />
      <path
         d="m 666.22046,240.91339 h 124.78742 v 32.7244 H 666.22046 Z"
         id="path107"
         inkscape:connector-curvature="0"
         style="fill:#ffffff;fill-rule:evenodd" />
      <path
         d="m 666.22046,240.91339 h 124.78742 v 32.7244 H 666.22046 Z"
         id="path109"
         inkscape:connector-curvature="0"
         style="fill-rule:evenodd;stroke:#000000;stroke-width:2;stroke-linecap:butt;stroke-linejoin:round" />
      <path
         d="m 702.2658,256.16434 v 0.78125 q 0.98438,-1.0625 1.98438,-1.0625 0.60937,0 1.0625,0.32812 0.45312,0.3125 0.76562,0.96875 0.51563,-0.65625 1.04688,-0.96875 0.53125,-0.32812 1.07812,-0.32812 0.84375,0 1.34375,0.54687 0.65625,0.70313 0.65625,1.54688 v 5.4375 h 0.65625 q 0.28125,0 0.39063,0.10937 0.125,0.10938 0.125,0.28125 0,0.17188 -0.125,0.28125 -0.10938,0.10938 -0.39063,0.10938 h -1.4375 v -6.15625 q 0,-0.59375 -0.35937,-0.98438 -0.35938,-0.39062 -0.82813,-0.39062 -0.4375,0 -0.90625,0.32812 -0.46875,0.3125 -1.07812,1.25 v 5.17188 h 0.65625 q 0.26562,0 0.39062,0.10937 0.125,0.10938 0.125,0.28125 0,0.17188 -0.125,0.28125 -0.125,0.10938 -0.39062,0.10938 h -1.4375 v -6.09375 q 0,-0.625 -0.375,-1.03125 -0.35938,-0.40625 -0.8125,-0.40625 -0.42188,0 -0.82813,0.28125 -0.5625,0.375 -1.1875,1.29687 v 5.17188 h 0.65625 q 0.28125,0 0.39063,0.10937 0.125,0.10938 0.125,0.28125 0,0.17188 -0.125,0.28125 -0.10938,0.10938 -0.39063,0.10938 h -2.09375 q -0.28125,0 -0.40625,-0.10938 -0.125,-0.10937 -0.125,-0.28125 0,-0.17187 0.125,-0.28125 0.125,-0.10937 0.40625,-0.10937 h 0.65625 v -6.46875 h -0.65625 q -0.28125,0 -0.40625,-0.10938 -0.125,-0.10937 -0.125,-0.28125 0,-0.17187 0.125,-0.28125 0.125,-0.10937 0.40625,-0.10937 z m 19.16748,4.20312 h -7.95313 q 0.21875,1.51563 1.28125,2.4375 1.0625,0.92188 2.625,0.92188 0.875,0 1.82813,-0.28125 0.95312,-0.29688 1.5625,-0.76563 0.17187,-0.14062 0.29687,-0.14062 0.15625,0 0.26563,0.125 0.10937,0.10937 0.10937,0.26562 0,0.15625 -0.15625,0.29688 -0.4375,0.46875 -1.57812,0.875 -1.14063,0.40625 -2.32813,0.40625 -2,0 -3.34375,-1.3125 -1.34375,-1.3125 -1.34375,-3.1875 0,-1.6875 1.25,-2.90625 1.26563,-1.21875 3.125,-1.21875 1.90625,0 3.14063,1.25 1.23437,1.25 1.21875,3.23437 z m -0.79688,-0.79687 q -0.23437,-1.28125 -1.21875,-2.09375 -0.98437,-0.8125 -2.34375,-0.8125 -1.375,0 -2.35937,0.8125 -0.96875,0.79687 -1.21875,2.09375 z m 7.04249,-3.40625 v 1.96875 q 1.53125,-1.375 2.28125,-1.76563 0.75,-0.40625 1.39062,-0.40625 0.70313,0 1.29688,0.46875 0.59375,0.46875 0.59375,0.71875 0,0.17188 -0.10938,0.29688 -0.10937,0.10937 -0.29687,0.10937 -0.0937,0 -0.15625,-0.0312 -0.0625,-0.0312 -0.23438,-0.21875 -0.32812,-0.3125 -0.57812,-0.4375 -0.23438,-0.125 -0.46875,-0.125 -0.5,0 -1.21875,0.40625 -0.71875,0.40625 -2.5,2 v 4.26563 h 3.45312 q 0.28125,0 0.40625,0.10937 0.125,0.10938 0.125,0.28125 0,0.17188 -0.125,0.28125 -0.125,0.10938 -0.40625,0.10938 h -6.10937 q -0.28125,0 -0.40625,-0.10938 -0.10938,-0.10937 -0.10938,-0.26562 0,-0.15625 0.10938,-0.26563 0.10937,-0.10937 0.40625,-0.10937 h 1.875 v -6.5 h -1.4375 q -0.28125,0 -0.40625,-0.10938 -0.10938,-0.10937 -0.10938,-0.28125 0,-0.17187 0.10938,-0.28125 0.125,-0.10937 0.40625,-0.10937 z m 14.96435,1.42187 v -1.42187 h 1.82813 q 0.26562,0 0.39062,0.10937 0.125,0.10938 0.125,0.28125 0,0.17188 -0.125,0.28125 -0.125,0.10938 -0.39062,0.10938 h -1.0625 v 7.78125 q 0,0.78125 -0.32813,1.40625 -0.21875,0.40625 -0.75,0.82812 -0.51562,0.4375 -0.9375,0.625 -0.42187,0.1875 -1.14062,0.1875 h -2.20313 q -0.28125,0 -0.40625,-0.10937 -0.125,-0.0937 -0.125,-0.28125 0,-0.17188 0.125,-0.28125 0.125,-0.10938 0.40625,-0.10938 h 2.23438 q 0.6875,0 1.23437,-0.35937 0.54688,-0.34375 0.92188,-1.01563 0.20312,-0.39062 0.20312,-1 v -2.32812 q -1.26562,1.71875 -3.23437,1.71875 -1.60938,0 -2.78125,-1.1875 -1.15625,-1.20313 -1.15625,-2.89063 0,-1.67187 1.15625,-2.85937 1.17187,-1.1875 2.78125,-1.1875 1.96875,0 3.23437,1.70312 z m 0,2.34375 q 0,-1.35937 -0.95312,-2.3125 -0.9375,-0.95312 -2.25,-0.95312 -1.29688,0 -2.23438,0.95312 -0.9375,0.95313 -0.9375,2.3125 0,1.375 0.9375,2.32813 0.9375,0.95312 2.23438,0.95312 1.3125,0 2.25,-0.95312 0.95312,-0.95313 0.95312,-2.32813 z m 12.99561,0.4375 h -7.95313 q 0.21875,1.51563 1.28125,2.4375 1.0625,0.92188 2.625,0.92188 0.875,0 1.82813,-0.28125 0.95312,-0.29688 1.5625,-0.76563 0.17187,-0.14062 0.29687,-0.14062 0.15625,0 0.26563,0.125 0.10937,0.10937 0.10937,0.26562 0,0.15625 -0.15625,0.29688 -0.4375,0.46875 -1.57812,0.875 -1.14063,0.40625 -2.32813,0.40625 -2,0 -3.34375,-1.3125 -1.34375,-1.3125 -1.34375,-3.1875 0,-1.6875 1.25,-2.90625 1.26563,-1.21875 3.125,-1.21875 1.90625,0 3.14063,1.25 1.23437,1.25 1.21875,3.23437 z m -0.79688,-0.79687 q -0.23437,-1.28125 -1.21875,-2.09375 -0.98437,-0.8125 -2.34375,-0.8125 -1.375,0 -2.35937,0.8125 -0.96875,0.79687 -1.21875,2.09375 z"
         id="path111"
         inkscape:connector-curvature="0"
         style="fill:#000000;fill-rule:nonzero" />
      <path
         d="m 728.6142,211.11488 v 29.79527"
         id="path113"
         inkscape:connector-curvature="0"
         style="fill:#000000;fill-opacity:0;fill-rule:evenodd" />
      <path
         d="m 728.6142,211.11487 v 17.79527"
         id="path115"
         inkscape:connector-curvature="0"
         style="fill-rule:evenodd;stroke:#1a1a1a;stroke-width:2;stroke-linecap:butt;stroke-linejoin:round" />
      <path
         d="m 725.3107,228.91014 3.30347,9.0762 3.30346,-9.0762 z"
         id="path117"
         inkscape:connector-curvature="0"
         style="fill:#1a1a1a;fill-rule:evenodd;stroke:#1a1a1a;stroke-width:2;stroke-linecap:butt" />
      <path
         d="m 666.22046,178.39047 h 124.78742 v 32.72441 H 666.22046 Z"
         id="path119"
         inkscape:connector-curvature="0"
         style="fill:#ffff00;fill-rule:evenodd" />
      <path
         d="m 666.22046,178.39047 h 124.78742 v 32.72441 H 666.22046 Z"
         id="path121"
         inkscape:connector-curvature="0"
         style="fill-rule:evenodd;stroke:#000000;stroke-width:2;stroke-linecap:butt;stroke-linejoin:round" />
      <path
         d="m 691.9599,194.42267 v -0.25 q 0,-0.29688 0.10937,-0.40625 0.10938,-0.125 0.28125,-0.125 0.17188,0 0.28125,0.125 0.10938,0.10937 0.10938,0.40625 v 1.75 q 0,0.29687 -0.10938,0.42187 -0.10937,0.10938 -0.28125,0.10938 -0.15625,0 -0.26562,-0.0937 -0.10938,-0.10938 -0.125,-0.35938 -0.0625,-0.67187 -0.875,-1.26562 -0.79688,-0.59375 -2.17188,-0.59375 -1.73437,0 -2.64062,1.09375 -0.90625,1.07812 -0.90625,2.48437 0,1.51563 0.98437,2.5 1,0.98438 2.57813,0.98438 0.92187,0 1.85937,-0.32813 0.9375,-0.34375 1.70313,-1.09375 0.1875,-0.17187 0.34375,-0.17187 0.15625,0 0.26562,0.10937 0.10938,0.0937 0.10938,0.25 0,0.40625 -0.9375,1.01563 -1.51563,1 -3.375,1 -1.875,0 -3.09375,-1.20313 -1.20313,-1.20312 -1.20313,-3.04687 0,-1.89063 1.23438,-3.125 1.23437,-1.25 3.125,-1.25 1.78125,0 3,1.0625 z m 12.51123,3.25 q 0,1.78125 -1.28125,3.04687 -1.28125,1.26563 -3.07813,1.26563 -1.8125,0 -3.09375,-1.26563 -1.26562,-1.28125 -1.26562,-3.04687 0,-1.78125 1.26562,-3.04688 1.28125,-1.26562 3.09375,-1.26562 1.79688,0 3.07813,1.26562 1.28125,1.25 1.28125,3.04688 z m -0.79688,0 q 0,-1.46875 -1.04687,-2.5 -1.03125,-1.03125 -2.51563,-1.03125 -1.48437,0 -2.53125,1.04687 -1.04687,1.03125 -1.04687,2.48438 0,1.45312 1.04687,2.5 1.04688,1.03125 2.53125,1.03125 1.48438,0 2.51563,-1.03125 1.04687,-1.04688 1.04687,-2.5 z m 4.29249,-4.03125 v 0.78125 q 0.98437,-1.0625 1.98437,-1.0625 0.60938,0 1.0625,0.32812 0.45313,0.3125 0.76563,0.96875 0.51562,-0.65625 1.04687,-0.96875 0.53125,-0.32812 1.07813,-0.32812 0.84375,0 1.34375,0.54687 0.65625,0.70313 0.65625,1.54688 v 5.4375 h 0.65625 q 0.28125,0 0.39062,0.10937 0.125,0.10938 0.125,0.28125 0,0.17188 -0.125,0.28125 -0.10937,0.10938 -0.39062,0.10938 h -1.4375 v -6.15625 q 0,-0.59375 -0.35938,-0.98438 -0.35937,-0.39062 -0.82812,-0.39062 -0.4375,0 -0.90625,0.32812 -0.46875,0.3125 -1.07813,1.25 v 5.17188 h 0.65625 q 0.26563,0 0.39063,0.10937 0.125,0.10938 0.125,0.28125 0,0.17188 -0.125,0.28125 -0.125,0.10938 -0.39063,0.10938 h -1.4375 v -6.09375 q 0,-0.625 -0.375,-1.03125 -0.35937,-0.40625 -0.8125,-0.40625 -0.42187,0 -0.82812,0.28125 -0.5625,0.375 -1.1875,1.29687 v 5.17188 h 0.65625 q 0.28125,0 0.39062,0.10937 0.125,0.10938 0.125,0.28125 0,0.17188 -0.125,0.28125 -0.10937,0.10938 -0.39062,0.10938 h -2.09375 q -0.28125,0 -0.40625,-0.10938 -0.125,-0.10937 -0.125,-0.28125 0,-0.17187 0.125,-0.28125 0.125,-0.10937 0.40625,-0.10937 h 0.65625 v -6.46875 h -0.65625 q -0.28125,0 -0.40625,-0.10938 -0.125,-0.10937 -0.125,-0.28125 0,-0.17187 0.125,-0.28125 0.125,-0.10937 0.40625,-0.10937 z m 11.40185,0 v 0.78125 q 0.98438,-1.0625 1.98438,-1.0625 0.60937,0 1.0625,0.32812 0.45312,0.3125 0.76562,0.96875 0.51563,-0.65625 1.04688,-0.96875 0.53125,-0.32812 1.07812,-0.32812 0.84375,0 1.34375,0.54687 0.65625,0.70313 0.65625,1.54688 v 5.4375 h 0.65625 q 0.28125,0 0.39063,0.10937 0.125,0.10938 0.125,0.28125 0,0.17188 -0.125,0.28125 -0.10938,0.10938 -0.39063,0.10938 h -1.4375 v -6.15625 q 0,-0.59375 -0.35937,-0.98438 -0.35938,-0.39062 -0.82813,-0.39062 -0.4375,0 -0.90625,0.32812 -0.46875,0.3125 -1.07812,1.25 v 5.17188 h 0.65625 q 0.26562,0 0.39062,0.10937 0.125,0.10938 0.125,0.28125 0,0.17188 -0.125,0.28125 -0.125,0.10938 -0.39062,0.10938 h -1.4375 v -6.09375 q 0,-0.625 -0.375,-1.03125 -0.35938,-0.40625 -0.8125,-0.40625 -0.42188,0 -0.82813,0.28125 -0.5625,0.375 -1.1875,1.29687 v 5.17188 h 0.65625 q 0.28125,0 0.39063,0.10937 0.125,0.10938 0.125,0.28125 0,0.17188 -0.125,0.28125 -0.10938,0.10938 -0.39063,0.10938 h -2.09375 q -0.28125,0 -0.40625,-0.10938 -0.125,-0.10937 -0.125,-0.28125 0,-0.17187 0.125,-0.28125 0.125,-0.10937 0.40625,-0.10937 h 0.65625 v -6.46875 h -0.65625 q -0.28125,0 -0.40625,-0.10938 -0.125,-0.10937 -0.125,-0.28125 0,-0.17187 0.125,-0.28125 0.125,-0.10937 0.40625,-0.10937 z m 15.33936,-4 v 2.01562 h -1.15625 v -2.01562 z m 0.0156,4 v 7.25 h 3.0625 q 0.29688,0 0.40625,0.10937 0.125,0.10938 0.125,0.28125 0,0.17188 -0.125,0.28125 -0.10937,0.10938 -0.40625,0.10938 h -6.90625 q -0.26562,0 -0.39062,-0.10938 -0.125,-0.10937 -0.125,-0.28125 0,-0.17187 0.125,-0.28125 0.125,-0.10937 0.39062,-0.10937 h 3.0625 v -6.46875 h -2.26562 q -0.28125,0 -0.40625,-0.10938 -0.125,-0.10937 -0.125,-0.28125 0,-0.17187 0.125,-0.28125 0.125,-0.10937 0.40625,-0.10937 z m 9.38623,0 h 4.23438 q 0.28125,0 0.39062,0.10937 0.125,0.10938 0.125,0.28125 0,0.17188 -0.125,0.28125 -0.10937,0.10938 -0.39062,0.10938 h -4.23438 v 5.1875 q 0,0.6875 0.54688,1.14062 0.54687,0.45313 1.59375,0.45313 0.78125,0 1.70312,-0.23438 0.92188,-0.25 1.4375,-0.54687 0.1875,-0.10938 0.29688,-0.10938 0.15625,0 0.26562,0.125 0.10938,0.10938 0.10938,0.26563 0,0.14062 -0.125,0.25 -0.29688,0.3125 -1.4375,0.67187 -1.14063,0.35938 -2.1875,0.35938 -1.375,0 -2.1875,-0.64063 -0.79688,-0.64062 -0.79688,-1.73437 v -5.1875 h -1.4375 q -0.28125,0 -0.40625,-0.10938 -0.10937,-0.10937 -0.10937,-0.28125 0,-0.17187 0.10937,-0.28125 0.125,-0.10937 0.40625,-0.10937 h 1.4375 v -2.29688 q 0,-0.28125 0.10938,-0.40625 0.10937,-0.125 0.28125,-0.125 0.17187,0 0.28125,0.125 0.10937,0.125 0.10937,0.40625 z m 26.00684,1.98437 q 0.98437,0.48438 1.46875,1.26563 0.5,0.76562 0.5,1.65625 0,1.375 -1.04688,2.39062 -1.03125,1.01563 -2.51562,1.01563 -1.48438,0 -2.53125,-1.01563 -1.03125,-1.01562 -1.03125,-2.39062 0,-0.89063 0.5,-1.65625 0.5,-0.78125 1.48437,-1.26563 -0.85937,-0.48437 -1.25,-1.01562 -0.53125,-0.75 -0.53125,-1.65625 0,-1.28125 0.98438,-2.23438 0.98437,-0.96875 2.375,-0.96875 1.40625,0 2.39062,0.96875 0.98438,0.95313 0.98438,2.23438 0,0.90625 -0.54688,1.65625 -0.375,0.53125 -1.23437,1.01562 z m 0.98437,-2.64062 q 0,-1 -0.75,-1.71875 -0.75,-0.73438 -1.82812,-0.73438 -1.07813,0 -1.82813,0.73438 -0.75,0.71875 -0.75,1.70312 0,0.90625 0.73438,1.59375 0.75,0.6875 1.84375,0.6875 1.09375,0 1.82812,-0.6875 0.75,-0.6875 0.75,-1.57812 z m 0.20313,5.57812 q 0,-1.03125 -0.79688,-1.78125 -0.79687,-0.76562 -1.98437,-0.76562 -1.1875,0 -1.98438,0.76562 -0.79687,0.75 -0.79687,1.76563 0,1.0625 0.79687,1.84375 0.8125,0.78125 1.98438,0.78125 1.1875,0 1.98437,-0.78125 0.79688,-0.78125 0.79688,-1.82813 z"
         id="path123"
         inkscape:connector-curvature="0"
         style="fill:#000000;fill-rule:nonzero" />
      <path
         d="m 728.6142,148.09998 v 29.79527"
         id="path125"
         inkscape:connector-curvature="0"
         style="fill:#000000;fill-opacity:0;fill-rule:evenodd" />
      <path
         d="m 728.6142,148.09998 v 17.79529"
         id="path127"
         inkscape:connector-curvature="0"
         style="fill-rule:evenodd;stroke:#1a1a1a;stroke-width:2;stroke-linecap:butt;stroke-linejoin:round" />
      <path
         d="m 725.3107,165.89526 3.30347,9.07619 3.30346,-9.07619 z"
         id="path129"
         inkscape:connector-curvature="0"
         style="fill:#1a1a1a;fill-rule:evenodd;stroke:#1a1a1a;stroke-width:2;stroke-linecap:butt" />
      <path
         d="m 666.22046,115.37556 h 124.78742 v 32.72441 H 666.22046 Z"
         id="path131"
         inkscape:connector-curvature="0"
         style="fill:#ffffff;fill-rule:evenodd" />
      <path
         d="m 666.22046,115.37556 h 124.78742 v 32.72441 H 666.22046 Z"
         id="path133"
         inkscape:connector-curvature="0"
         style="fill-rule:evenodd;stroke:#000000;stroke-width:2;stroke-linecap:butt;stroke-linejoin:round" />
      <path
         d="m 702.2658,130.62653 v 0.78125 q 0.98438,-1.0625 1.98438,-1.0625 0.60937,0 1.0625,0.32812 0.45312,0.3125 0.76562,0.96875 0.51563,-0.65625 1.04688,-0.96875 0.53125,-0.32812 1.07812,-0.32812 0.84375,0 1.34375,0.54687 0.65625,0.70313 0.65625,1.54688 v 5.4375 h 0.65625 q 0.28125,0 0.39063,0.10937 0.125,0.10938 0.125,0.28125 0,0.17188 -0.125,0.28125 -0.10938,0.10938 -0.39063,0.10938 h -1.4375 v -6.15625 q 0,-0.59375 -0.35937,-0.98438 -0.35938,-0.39062 -0.82813,-0.39062 -0.4375,0 -0.90625,0.32812 -0.46875,0.3125 -1.07812,1.25 v 5.17188 h 0.65625 q 0.26562,0 0.39062,0.10937 0.125,0.10938 0.125,0.28125 0,0.17188 -0.125,0.28125 -0.125,0.10938 -0.39062,0.10938 h -1.4375 v -6.09375 q 0,-0.625 -0.375,-1.03125 -0.35938,-0.40625 -0.8125,-0.40625 -0.42188,0 -0.82813,0.28125 -0.5625,0.375 -1.1875,1.29687 v 5.17188 h 0.65625 q 0.28125,0 0.39063,0.10937 0.125,0.10938 0.125,0.28125 0,0.17188 -0.125,0.28125 -0.10938,0.10938 -0.39063,0.10938 h -2.09375 q -0.28125,0 -0.40625,-0.10938 -0.125,-0.10937 -0.125,-0.28125 0,-0.17187 0.125,-0.28125 0.125,-0.10937 0.40625,-0.10937 h 0.65625 v -6.46875 h -0.65625 q -0.28125,0 -0.40625,-0.10938 -0.125,-0.10937 -0.125,-0.28125 0,-0.17187 0.125,-0.28125 0.125,-0.10937 0.40625,-0.10937 z m 19.16748,4.20312 h -7.95313 q 0.21875,1.51563 1.28125,2.4375 1.0625,0.92188 2.625,0.92188 0.875,0 1.82813,-0.28125 0.95312,-0.29688 1.5625,-0.76563 0.17187,-0.14062 0.29687,-0.14062 0.15625,0 0.26563,0.125 0.10937,0.10937 0.10937,0.26562 0,0.15625 -0.15625,0.29688 -0.4375,0.46875 -1.57812,0.875 -1.14063,0.40625 -2.32813,0.40625 -2,0 -3.34375,-1.3125 -1.34375,-1.3125 -1.34375,-3.1875 0,-1.6875 1.25,-2.90625 1.26563,-1.21875 3.125,-1.21875 1.90625,0 3.14063,1.25 1.23437,1.25 1.21875,3.23437 z m -0.79688,-0.79687 q -0.23437,-1.28125 -1.21875,-2.09375 -0.98437,-0.8125 -2.34375,-0.8125 -1.375,0 -2.35937,0.8125 -0.96875,0.79687 -1.21875,2.09375 z m 7.04249,-3.40625 v 1.96875 q 1.53125,-1.375 2.28125,-1.76563 0.75,-0.40625 1.39062,-0.40625 0.70313,0 1.29688,0.46875 0.59375,0.46875 0.59375,0.71875 0,0.17188 -0.10938,0.29688 -0.10937,0.10937 -0.29687,0.10937 -0.0937,0 -0.15625,-0.0312 -0.0625,-0.0312 -0.23438,-0.21875 -0.32812,-0.3125 -0.57812,-0.4375 -0.23438,-0.125 -0.46875,-0.125 -0.5,0 -1.21875,0.40625 -0.71875,0.40625 -2.5,2 v 4.26563 h 3.45312 q 0.28125,0 0.40625,0.10937 0.125,0.10938 0.125,0.28125 0,0.17188 -0.125,0.28125 -0.125,0.10938 -0.40625,0.10938 h -6.10937 q -0.28125,0 -0.40625,-0.10938 -0.10938,-0.10937 -0.10938,-0.26562 0,-0.15625 0.10938,-0.26563 0.10937,-0.10937 0.40625,-0.10937 h 1.875 v -6.5 h -1.4375 q -0.28125,0 -0.40625,-0.10938 -0.10938,-0.10937 -0.10938,-0.28125 0,-0.17187 0.10938,-0.28125 0.125,-0.10937 0.40625,-0.10937 z m 14.96435,1.42187 v -1.42187 h 1.82813 q 0.26562,0 0.39062,0.10937 0.125,0.10938 0.125,0.28125 0,0.17188 -0.125,0.28125 -0.125,0.10938 -0.39062,0.10938 h -1.0625 v 7.78125 q 0,0.78125 -0.32813,1.40625 -0.21875,0.40625 -0.75,0.82812 -0.51562,0.4375 -0.9375,0.625 -0.42187,0.1875 -1.14062,0.1875 h -2.20313 q -0.28125,0 -0.40625,-0.10937 -0.125,-0.0937 -0.125,-0.28125 0,-0.17188 0.125,-0.28125 0.125,-0.10938 0.40625,-0.10938 h 2.23438 q 0.6875,0 1.23437,-0.35937 0.54688,-0.34375 0.92188,-1.01563 0.20312,-0.39062 0.20312,-1 v -2.32812 q -1.26562,1.71875 -3.23437,1.71875 -1.60938,0 -2.78125,-1.1875 -1.15625,-1.20313 -1.15625,-2.89063 0,-1.67187 1.15625,-2.85937 1.17187,-1.1875 2.78125,-1.1875 1.96875,0 3.23437,1.70312 z m 0,2.34375 q 0,-1.35937 -0.95312,-2.3125 -0.9375,-0.95312 -2.25,-0.95312 -1.29688,0 -2.23438,0.95312 -0.9375,0.95313 -0.9375,2.3125 0,1.375 0.9375,2.32813 0.9375,0.95312 2.23438,0.95312 1.3125,0 2.25,-0.95312 0.95312,-0.95313 0.95312,-2.32813 z m 12.99561,0.4375 h -7.95313 q 0.21875,1.51563 1.28125,2.4375 1.0625,0.92188 2.625,0.92188 0.875,0 1.82813,-0.28125 0.95312,-0.29688 1.5625,-0.76563 0.17187,-0.14062 0.29687,-0.14062 0.15625,0 0.26563,0.125 0.10937,0.10937 0.10937,0.26562 0,0.15625 -0.15625,0.29688 -0.4375,0.46875 -1.57812,0.875 -1.14063,0.40625 -2.32813,0.40625 -2,0 -3.34375,-1.3125 -1.34375,-1.3125 -1.34375,-3.1875 0,-1.6875 1.25,-2.90625 1.26563,-1.21875 3.125,-1.21875 1.90625,0 3.14063,1.25 1.23437,1.25 1.21875,3.23437 z m -0.79688,-0.79687 q -0.23437,-1.28125 -1.21875,-2.09375 -0.98437,-0.8125 -2.34375,-0.8125 -1.375,0 -2.35937,0.8125 -0.96875,0.79687 -1.21875,2.09375 z"
         id="path135"
         inkscape:connector-curvature="0"
         style="fill:#000000;fill-rule:nonzero" />
      <path
         d="m 728.6142,273.6378 v 25.85828"
         id="path137"
         inkscape:connector-curvature="0"
         style="fill:#000000;fill-opacity:0;fill-rule:evenodd" />
      <path
         d="m 728.6142,273.6378 v 13.85828"
         id="path139"
         inkscape:connector-curvature="0"
         style="fill-rule:evenodd;stroke:#1a1a1a;stroke-width:2;stroke-linecap:butt;stroke-linejoin:round" />
      <path
         d="m 725.3107,287.49606 3.30347,9.0762 3.30346,-9.0762 z"
         id="path141"
         inkscape:connector-curvature="0"
         style="fill:#1a1a1a;fill-rule:evenodd;stroke:#1a1a1a;stroke-width:2;stroke-linecap:butt" />
      <path
         d="M 728.6142,273.6378 542.37793,326.20473"
         id="path143"
         inkscape:connector-curvature="0"
         style="fill:#000000;fill-opacity:0;fill-rule:evenodd" />
      <path
         d="M 728.6142,273.6378 553.9267,322.94499"
         id="path145"
         inkscape:connector-curvature="0"
         style="fill-rule:evenodd;stroke:#1a1a1a;stroke-width:2;stroke-linecap:butt;stroke-linejoin:round" />
      <path
         d="m 553.02936,319.76572 -7.83752,5.64478 9.63226,0.71371 z"
         id="path147"
         inkscape:connector-curvature="0"
         style="fill:#1a1a1a;fill-rule:evenodd;stroke:#1a1a1a;stroke-width:2;stroke-linecap:butt" />
      <path
         d="M 728.6142,148.09998 542.37793,200.6669"
         id="path149"
         inkscape:connector-curvature="0"
         style="fill:#000000;fill-opacity:0;fill-rule:evenodd" />
      <path
         d="M 728.6142,148.09998 553.9267,197.40717"
         id="path151"
         inkscape:connector-curvature="0"
         style="fill-rule:evenodd;stroke:#1a1a1a;stroke-width:2;stroke-linecap:butt;stroke-linejoin:round" />
      <path
         d="m 553.02936,194.22792 -7.83752,5.64476 9.63226,0.71373 z"
         id="path153"
         inkscape:connector-curvature="0"
         style="fill:#1a1a1a;fill-rule:evenodd;stroke:#1a1a1a;stroke-width:2;stroke-linecap:butt" />
      <path
         d="m 377.3032,200.66142 h 40.31497"
         id="path155"
         inkscape:connector-curvature="0"
         style="fill:#000000;fill-opacity:0;fill-rule:evenodd" />
      <path
         d="m 377.3032,200.66142 h 28.31497"
         id="path157"
         inkscape:connector-curvature="0"
         style="fill-rule:evenodd;stroke:#0000ff;stroke-width:2;stroke-linecap:butt;stroke-linejoin:round" />
      <path
         d="m 405.61816,203.96489 9.07617,-3.30347 -9.07617,-3.30346 z"
         id="path159"
         inkscape:connector-curvature="0"
         style="fill:#0000ff;fill-rule:evenodd;stroke:#0000ff;stroke-width:2;stroke-linecap:butt" />
      <path
         d="m 882.9016,54.404854 v 0 c 0,1.129578 -0.91571,2.045277 -2.04529,2.045277 v -2.045277 c 0,0.564789 -0.45782,1.02264 -1.02258,1.02264 -0.56482,0 -1.02265,-0.457851 -1.02265,-1.02264 v 2.045277 H 769.7343 v 0 c -1.12957,0 -2.04528,0.915702 -2.04528,2.045276 v 24.543304 c 0,1.129578 0.91571,2.045281 2.04528,2.045281 1.12958,0 2.04529,-0.915703 2.04529,-2.045281 v -2.045273 h 109.07672 c 1.12958,0 2.04529,-0.915702 2.04529,-2.045272 z m -113.1673,6.13583 c 1.12958,0 2.04529,-0.915703 2.04529,-2.045277 v 0 c 0,-0.564788 -0.45789,-1.022636 -1.02265,-1.022636 -0.56482,0 -1.02264,0.457848 -1.02264,1.022636 z"
         id="path161"
         inkscape:connector-curvature="0"
         style="fill:#e9edee;fill-rule:evenodd" />
      <path
         d="m 769.7343,60.540684 c 1.12958,0 2.04529,-0.915703 2.04529,-2.045277 v 0 c 0,-0.564788 -0.45789,-1.022636 -1.02265,-1.022636 -0.56482,0 -1.02264,0.457848 -1.02264,1.022636 z m 111.12201,-4.090553 c 1.12958,0 2.04529,-0.915699 2.04529,-2.045277 0,-1.129574 -0.91571,-2.045273 -2.04529,-2.045273 -1.12952,0 -2.04523,0.915699 -2.04523,2.045273 0,0.564789 0.45783,1.02264 1.02265,1.02264 0.56476,0 1.02258,-0.457851 1.02258,-1.02264 z"
         id="path163"
         inkscape:connector-curvature="0"
         style="fill:#babdbe;fill-rule:evenodd" />
      <path
         d="m 767.689,58.495407 c 0,-1.129574 0.91571,-2.045277 2.04529,-2.045277 h 109.07678 v -2.045276 0 c 0,-1.129574 0.91571,-2.045273 2.04522,-2.045273 1.12958,0 2.04529,0.915699 2.04529,2.045273 v 24.543312 c 0,1.12957 -0.91571,2.045273 -2.04529,2.045273 H 771.77957 v 2.045272 c 0,1.129578 -0.91571,2.045281 -2.04528,2.045281 -1.12958,0 -2.04529,-0.915703 -2.04529,-2.045281 z M 878.81107,56.45013 h 2.04523 c 1.12957,0 2.04528,-0.915699 2.04528,-2.045276 m -2.04528,2.045276 v -2.045276 c 0,0.564789 -0.45783,1.02264 -1.02259,1.02264 -0.56482,0 -1.02264,-0.457851 -1.02264,-1.02264 m -109.07678,6.13583 v -2.045277 0 c 0,-0.564789 0.45782,-1.022636 1.02264,-1.022636 0.56476,0 1.02265,0.457847 1.02265,1.022636 0,1.129574 -0.91571,2.045277 -2.04529,2.045277 -1.12958,0 -2.04529,-0.915703 -2.04529,-2.045277 m 4.09058,0 v 22.498032"
         id="path165"
         inkscape:connector-curvature="0"
         style="fill:#000000;fill-opacity:0;fill-rule:evenodd" />
      <path
         d="m 767.689,58.495407 c 0,-1.129574 0.91571,-2.045277 2.04529,-2.045277 h 109.07678 v -2.045276 0 c 0,-1.129574 0.91571,-2.045273 2.04522,-2.045273 1.12958,0 2.04529,0.915699 2.04529,2.045273 v 24.543312 c 0,1.12957 -0.91571,2.045273 -2.04529,2.045273 H 771.77957 v 2.045272 c 0,1.129578 -0.91571,2.045281 -2.04528,2.045281 -1.12958,0 -2.04529,-0.915703 -2.04529,-2.045281 z M 878.81107,56.45013 h 2.04523 c 1.12957,0 2.04528,-0.915699 2.04528,-2.045276 m -2.04528,2.045276 v -2.045276 c 0,0.564789 -0.45783,1.02264 -1.02259,1.02264 -0.56482,0 -1.02264,-0.457851 -1.02264,-1.02264 m -109.07678,6.13583 v -2.045277 0 c 0,-0.564789 0.45782,-1.022636 1.02264,-1.022636 0.56476,0 1.02265,0.457847 1.02265,1.022636 0,1.129574 -0.91571,2.045277 -2.04529,2.045277 -1.12958,0 -2.04529,-0.915703 -2.04529,-2.045277 m 4.09058,0 v 22.498032"
         id="path167"
         inkscape:connector-curvature="0"
         style="fill-rule:evenodd;stroke:#1a1a1a;stroke-width:1;stroke-linecap:butt;stroke-linejoin:round" />
      <path
         d="m 797.0875,68.47241 v 5.453125 h 2.875 q 0.23437,0 0.32812,0.09375 0.10938,0.07813 0.10938,0.234375 0,0.140625 -0.10938,0.234375 -0.0937,0.09375 -0.32812,0.09375 h -5.125 q -0.23438,0 -0.34375,-0.09375 -0.0937,-0.09375 -0.0937,-0.234375 0,-0.15625 0.0937,-0.234375 0.10937,-0.09375 0.34375,-0.09375 h 1.57812 V 68.47241 h -1.42187 q -0.23438,0 -0.34375,-0.09375 -0.0937,-0.09375 -0.0937,-0.234375 0,-0.140625 0.0937,-0.234375 0.10937,-0.09375 0.34375,-0.09375 h 1.42187 v -1 q 0,-0.828125 0.67188,-1.4375 0.67187,-0.609375 1.78125,-0.609375 0.9375,0 1.98437,0.171875 0.40625,0.0625 0.48438,0.15625 0.0781,0.07813 0.0781,0.21875 0,0.140625 -0.0937,0.234375 -0.0937,0.09375 -0.25,0.09375 -0.0625,0 -0.20312,-0.03125 -1.1875,-0.171875 -2,-0.171875 -0.85938,0 -1.32813,0.421875 -0.45312,0.421875 -0.45312,0.953125 v 1 h 3.0625 q 0.23437,0 0.32812,0.09375 0.10938,0.09375 0.10938,0.234375 0,0.140625 -0.10938,0.234375 -0.0937,0.09375 -0.32812,0.09375 z m 13.58594,2.875 h -6.6875 q 0.17187,1.28125 1.0625,2.0625 0.89062,0.765625 2.21875,0.765625 0.73437,0 1.53125,-0.234375 0.8125,-0.25 1.3125,-0.640625 0.15625,-0.125 0.26562,-0.125 0.125,0 0.21875,0.109375 0.0937,0.09375 0.0937,0.21875 0,0.140625 -0.125,0.265625 -0.375,0.390625 -1.34375,0.734375 -0.95312,0.34375 -1.95312,0.34375 -1.6875,0 -2.82813,-1.109375 -1.125,-1.109375 -1.125,-2.6875 0,-1.421875 1.0625,-2.4375 1.0625,-1.03125 2.625,-1.03125 1.60938,0 2.64063,1.046875 1.04687,1.046875 1.03125,2.71875 z m -0.67188,-0.65625 q -0.1875,-1.09375 -1.03125,-1.765625 -0.82812,-0.6875 -1.96875,-0.6875 -1.15625,0 -1.98437,0.671875 -0.82813,0.671875 -1.03125,1.78125 z m 8.60156,3.890625 V 73.62866 q -1.42187,1.21875 -3.04687,1.21875 -1.1875,0 -1.85938,-0.59375 -0.65625,-0.609375 -0.65625,-1.484375 0,-0.953125 0.875,-1.65625 0.875,-0.71875 2.5625,-0.71875 0.45313,0 0.98438,0.0625 0.53125,0.0625 1.14062,0.1875 v -1.0625 q 0,-0.546875 -0.5,-0.9375 -0.5,-0.40625 -1.5,-0.40625 -0.76562,0 -2.14062,0.453125 -0.25,0.07813 -0.32813,0.07813 -0.125,0 -0.21875,-0.09375 -0.0781,-0.09375 -0.0781,-0.234375 0,-0.140625 0.0781,-0.21875 0.10938,-0.109375 0.875,-0.3125 1.21875,-0.328125 1.84375,-0.328125 1.25,0 1.9375,0.609375 0.70313,0.609375 0.70313,1.390625 v 4.34375 h 0.875 q 0.23437,0 0.32812,0.09375 0.10938,0.07813 0.10938,0.234375 0,0.140625 -0.10938,0.234375 -0.0937,0.09375 -0.32812,0.09375 z m 0,-3.265625 q -0.45312,-0.140625 -0.96875,-0.203125 -0.51562,-0.0625 -1.09375,-0.0625 -1.42187,0 -2.23437,0.625 -0.60938,0.453125 -0.60938,1.09375 0,0.59375 0.46875,1 0.46875,0.40625 1.35938,0.40625 0.84375,0 1.57812,-0.328125 0.73438,-0.34375 1.5,-1.09375 z m 6.36719,-3.5 h 3.5625 q 0.23438,0 0.32813,0.09375 0.10937,0.09375 0.10937,0.234375 0,0.140625 -0.10937,0.234375 -0.0937,0.09375 -0.32813,0.09375 h -3.5625 v 4.375 q 0,0.5625 0.45313,0.953125 0.46875,0.375 1.34375,0.375 0.67187,0 1.4375,-0.1875 0.78125,-0.203125 1.20312,-0.453125 0.15625,-0.109375 0.26563,-0.109375 0.125,0 0.21875,0.109375 0.0937,0.09375 0.0937,0.21875 0,0.125 -0.10938,0.21875 -0.25,0.265625 -1.21875,0.578125 -0.95312,0.296875 -1.84375,0.296875 -1.14062,0 -1.82812,-0.546875 -0.67188,-0.546875 -0.67188,-1.453125 v -4.375 h -1.21875 q -0.23437,0 -0.34375,-0.09375 -0.0937,-0.09375 -0.0937,-0.234375 0,-0.140625 0.0937,-0.234375 0.10938,-0.09375 0.34375,-0.09375 h 1.21875 v -1.9375 q 0,-0.234375 0.0937,-0.328125 0.0937,-0.109375 0.23438,-0.109375 0.14062,0 0.23437,0.109375 0.0937,0.09375 0.0937,0.328125 z m 13.19531,6.765625 v -0.96875 q -1.34375,1.234375 -2.90625,1.234375 -0.95312,0 -1.45312,-0.53125 Q 833.15,73.62866 833.15,72.706785 V 68.47241 h -0.875 q -0.23438,0 -0.34375,-0.09375 -0.0937,-0.09375 -0.0937,-0.234375 0,-0.140625 0.0937,-0.234375 0.10937,-0.09375 0.34375,-0.09375 h 1.53125 v 4.890625 q 0,0.640625 0.40625,1.0625 0.40625,0.40625 1.01562,0.40625 1.60938,0 2.9375,-1.46875 V 68.47241 h -1.20312 q -0.23438,0 -0.34375,-0.09375 -0.0937,-0.09375 -0.0937,-0.234375 0,-0.140625 0.0937,-0.234375 0.10937,-0.09375 0.34375,-0.09375 h 1.85937 v 6.109375 h 0.5625 q 0.23438,0 0.32813,0.09375 0.10937,0.07813 0.10937,0.234375 0,0.140625 -0.10937,0.234375 -0.0937,0.09375 -0.32813,0.09375 z m 6.57032,-6.765625 v 1.65625 q 1.28125,-1.15625 1.92187,-1.484375 0.64063,-0.34375 1.17188,-0.34375 0.59375,0 1.09375,0.40625 0.5,0.390625 0.5,0.59375 0,0.140625 -0.0937,0.25 -0.0937,0.09375 -0.25,0.09375 -0.0781,0 -0.14063,-0.03125 -0.0469,-0.03125 -0.1875,-0.171875 -0.28125,-0.28125 -0.48437,-0.375 -0.20313,-0.109375 -0.39063,-0.109375 -0.4375,0 -1.04687,0.34375 -0.59375,0.34375 -2.09375,1.6875 v 3.59375 h 2.90625 q 0.25,0 0.34375,0.09375 0.10937,0.07813 0.10937,0.234375 0,0.140625 -0.10937,0.234375 -0.0937,0.09375 -0.34375,0.09375 h -5.14063 q -0.23437,0 -0.34375,-0.09375 -0.0937,-0.09375 -0.0937,-0.234375 0,-0.125 0.0937,-0.21875 0.0937,-0.09375 0.34375,-0.09375 h 1.57813 v -5.46875 h -1.20313 q -0.23437,0 -0.34375,-0.09375 -0.0937,-0.09375 -0.0937,-0.234375 0,-0.140625 0.0937,-0.234375 0.0937,-0.09375 0.34375,-0.09375 z m 13.94531,3.53125 h -6.6875 q 0.17187,1.28125 1.0625,2.0625 0.89062,0.765625 2.21875,0.765625 0.73437,0 1.53125,-0.234375 0.8125,-0.25 1.3125,-0.640625 0.15625,-0.125 0.26562,-0.125 0.125,0 0.21875,0.109375 0.0937,0.09375 0.0937,0.21875 0,0.140625 -0.125,0.265625 -0.375,0.390625 -1.34375,0.734375 -0.95312,0.34375 -1.95312,0.34375 -1.6875,0 -2.82813,-1.109375 -1.125,-1.109375 -1.125,-2.6875 0,-1.421875 1.0625,-2.4375 1.0625,-1.03125 2.625,-1.03125 1.60938,0 2.64063,1.046875 1.04687,1.046875 1.03125,2.71875 z m -0.67188,-0.65625 q -0.1875,-1.09375 -1.03125,-1.765625 -0.82812,-0.6875 -1.96875,-0.6875 -1.15625,0 -1.98437,0.671875 -0.82813,0.671875 -1.03125,1.78125 z"
         id="path169"
         inkscape:connector-curvature="0"
         style="fill:#0000ff;fill-rule:nonzero" />
      <path
         d="m 825.29535,80.99344 -96.69293,34.3937"
         id="path171"
         inkscape:connector-curvature="0"
         style="fill:#000000;fill-opacity:0;fill-rule:evenodd" />
      <path
         d="m 825.29535,80.99344 -85.3869,30.37213"
         id="path173"
         inkscape:connector-curvature="0"
         style="fill-rule:evenodd;stroke:#0000ff;stroke-width:2;stroke-linecap:butt;stroke-linejoin:round" />
      <path
         d="m 738.8014,108.25314 -7.44421,6.15414 9.65844,0.0707 z"
         id="path175"
         inkscape:connector-curvature="0"
         style="fill:#0000ff;fill-rule:evenodd;stroke:#0000ff;stroke-width:2;stroke-linecap:butt" />
    </g>
  </g>
</svg>
