<?xml version="1.0" encoding="UTF-8" standalone="no"?>
<svg
   xmlns:dc="http://purl.org/dc/elements/1.1/"
   xmlns:cc="http://creativecommons.org/ns#"
   xmlns:rdf="http://www.w3.org/1999/02/22-rdf-syntax-ns#"
   xmlns:svg="http://www.w3.org/2000/svg"
   xmlns="http://www.w3.org/2000/svg"
   xmlns:sodipodi="http://sodipodi.sourceforge.net/DTD/sodipodi-0.dtd"
   xmlns:inkscape="http://www.inkscape.org/namespaces/inkscape"
   version="1.1"
   viewBox="0 0 706.92786 394.65881"
   stroke-miterlimit="10"
   id="svg107"
   sodipodi:docname="mid_rebase.svg"
   width="706.92786"
   height="394.65881"
   style="fill:none;stroke:none;stroke-linecap:square;stroke-miterlimit:10"
   inkscape:version="0.92.5 (2060ec1f9f, 2020-04-08)">
  <metadata
     id="metadata113">
    <rdf:RDF>
      <cc:Work
         rdf:about="">
        <dc:format>image/svg+xml</dc:format>
        <dc:type
           rdf:resource="http://purl.org/dc/dcmitype/StillImage" />
        <dc:title></dc:title>
      </cc:Work>
    </rdf:RDF>
  </metadata>
  <defs
     id="defs111" />
  <sodipodi:namedview
     pagecolor="#ffffff"
     bordercolor="#666666"
     borderopacity="1"
     objecttolerance="10"
     gridtolerance="10"
     guidetolerance="10"
     inkscape:pageopacity="0"
     inkscape:pageshadow="2"
     inkscape:window-width="640"
     inkscape:window-height="480"
     id="namedview109"
     showgrid="false"
     fit-margin-top="15"
     fit-margin-left="15"
     fit-margin-right="15"
     fit-margin-bottom="15"
     inkscape:zoom="0.55390031"
     inkscape:cx="257.73919"
     inkscape:cy="307.69346"
     inkscape:current-layer="layer1" />
  <clipPath
     id="g800ff8fafc_0_524.0">
    <path
       d="M 0,0 H 960 V 540 H 0 Z"
       id="path2"
       inkscape:connector-curvature="0"
       style="clip-rule:nonzero" />
  </clipPath>
  <g
     inkscape:groupmode="layer"
     id="layer1"
     inkscape:label="Layer 1"
     transform="translate(-101.04068,-107.40944)">
    <rect
       style="fill:#ffffff;fill-opacity:1;stroke:#000000;stroke-opacity:0.01162792"
       id="rect974"
       width="783.53448"
       height="440.51248"
       x="57.711582"
       y="88.636459" />
  </g>
  <g
     inkscape:groupmode="layer"
     id="layer2"
     inkscape:label="Layer 2"
     transform="translate(-101.04068,-107.40944)">
    <g
       clip-path="url(#g800ff8fafc_0_524.0)"
       id="g105">
      <path
         d="m 417.6063,436.43045 h 124.78738 v 49.63779 H 417.6063 Z"
         id="path7"
         inkscape:connector-curvature="0"
         style="fill:#000000;fill-opacity:0;fill-rule:evenodd" />
      <path
         d="m 417.6063,436.43045 h 124.78738 v 49.63779 H 417.6063 Z"
         id="path9"
         inkscape:connector-curvature="0"
         style="fill-rule:evenodd;stroke:#000000;stroke-width:2;stroke-linecap:butt;stroke-linejoin:round" />
      <path
         d="m 443.3457,460.91934 v -0.25 q 0,-0.29688 0.10938,-0.40625 0.10937,-0.125 0.28125,-0.125 0.17187,0 0.28125,0.125 0.10937,0.10937 0.10937,0.40625 v 1.75 q 0,0.29687 -0.10937,0.42187 -0.10938,0.10938 -0.28125,0.10938 -0.15625,0 -0.26563,-0.0937 -0.10937,-0.10938 -0.125,-0.35938 -0.0625,-0.67187 -0.875,-1.26562 -0.79687,-0.59375 -2.17187,-0.59375 -1.73438,0 -2.64063,1.09375 -0.90625,1.07812 -0.90625,2.48437 0,1.51563 0.98438,2.5 1,0.98438 2.57812,0.98438 0.92188,0 1.85938,-0.32813 0.9375,-0.34375 1.70312,-1.09375 0.1875,-0.17187 0.34375,-0.17187 0.15625,0 0.26563,0.10937 0.10937,0.0937 0.10937,0.25 0,0.40625 -0.9375,1.01563 -1.51562,1 -3.375,1 -1.875,0 -3.09375,-1.20313 -1.20312,-1.20312 -1.20312,-3.04687 0,-1.89063 1.23437,-3.125 1.23438,-1.25 3.125,-1.25 1.78125,0 3,1.0625 z m 12.51123,3.25 q 0,1.78125 -1.28125,3.04687 -1.28125,1.26563 -3.07812,1.26563 -1.8125,0 -3.09375,-1.26563 -1.26563,-1.28125 -1.26563,-3.04687 0,-1.78125 1.26563,-3.04688 1.28125,-1.26562 3.09375,-1.26562 1.79687,0 3.07812,1.26562 1.28125,1.25 1.28125,3.04688 z m -0.79687,0 q 0,-1.46875 -1.04688,-2.5 -1.03125,-1.03125 -2.51562,-1.03125 -1.48438,0 -2.53125,1.04687 -1.04688,1.03125 -1.04688,2.48438 0,1.45312 1.04688,2.5 1.04687,1.03125 2.53125,1.03125 1.48437,0 2.51562,-1.03125 1.04688,-1.04688 1.04688,-2.5 z m 4.29248,-4.03125 v 0.78125 q 0.98437,-1.0625 1.98437,-1.0625 0.60938,0 1.0625,0.32812 0.45313,0.3125 0.76563,0.96875 0.51562,-0.65625 1.04687,-0.96875 0.53125,-0.32812 1.07813,-0.32812 0.84375,0 1.34375,0.54687 0.65625,0.70313 0.65625,1.54688 v 5.4375 h 0.65625 q 0.28125,0 0.39062,0.10937 0.125,0.10938 0.125,0.28125 0,0.17188 -0.125,0.28125 -0.10937,0.10938 -0.39062,0.10938 h -1.4375 v -6.15625 q 0,-0.59375 -0.35938,-0.98438 -0.35937,-0.39062 -0.82812,-0.39062 -0.4375,0 -0.90625,0.32812 -0.46875,0.3125 -1.07813,1.25 v 5.17188 h 0.65625 q 0.26563,0 0.39063,0.10937 0.125,0.10938 0.125,0.28125 0,0.17188 -0.125,0.28125 -0.125,0.10938 -0.39063,0.10938 h -1.4375 v -6.09375 q 0,-0.625 -0.375,-1.03125 -0.35937,-0.40625 -0.8125,-0.40625 -0.42187,0 -0.82812,0.28125 -0.5625,0.375 -1.1875,1.29687 v 5.17188 h 0.65625 q 0.28125,0 0.39062,0.10937 0.125,0.10938 0.125,0.28125 0,0.17188 -0.125,0.28125 -0.10937,0.10938 -0.39062,0.10938 h -2.09375 q -0.28125,0 -0.40625,-0.10938 -0.125,-0.10937 -0.125,-0.28125 0,-0.17187 0.125,-0.28125 0.125,-0.10937 0.40625,-0.10937 h 0.65625 v -6.46875 h -0.65625 q -0.28125,0 -0.40625,-0.10938 -0.125,-0.10937 -0.125,-0.28125 0,-0.17187 0.125,-0.28125 0.125,-0.10937 0.40625,-0.10937 z m 11.40185,0 v 0.78125 q 0.98438,-1.0625 1.98438,-1.0625 0.60937,0 1.0625,0.32812 0.45312,0.3125 0.76562,0.96875 0.51563,-0.65625 1.04688,-0.96875 0.53125,-0.32812 1.07812,-0.32812 0.84375,0 1.34375,0.54687 0.65625,0.70313 0.65625,1.54688 v 5.4375 h 0.65625 q 0.28125,0 0.39063,0.10937 0.125,0.10938 0.125,0.28125 0,0.17188 -0.125,0.28125 -0.10938,0.10938 -0.39063,0.10938 h -1.4375 v -6.15625 q 0,-0.59375 -0.35937,-0.98438 -0.35938,-0.39062 -0.82813,-0.39062 -0.4375,0 -0.90625,0.32812 -0.46875,0.3125 -1.07812,1.25 v 5.17188 h 0.65625 q 0.26562,0 0.39062,0.10937 0.125,0.10938 0.125,0.28125 0,0.17188 -0.125,0.28125 -0.125,0.10938 -0.39062,0.10938 h -1.4375 v -6.09375 q 0,-0.625 -0.375,-1.03125 -0.35938,-0.40625 -0.8125,-0.40625 -0.42188,0 -0.82813,0.28125 -0.5625,0.375 -1.1875,1.29687 v 5.17188 h 0.65625 q 0.28125,0 0.39063,0.10937 0.125,0.10938 0.125,0.28125 0,0.17188 -0.125,0.28125 -0.10938,0.10938 -0.39063,0.10938 h -2.09375 q -0.28125,0 -0.40625,-0.10938 -0.125,-0.10937 -0.125,-0.28125 0,-0.17187 0.125,-0.28125 0.125,-0.10937 0.40625,-0.10937 h 0.65625 v -6.46875 h -0.65625 q -0.28125,0 -0.40625,-0.10938 -0.125,-0.10937 -0.125,-0.28125 0,-0.17187 0.125,-0.28125 0.125,-0.10937 0.40625,-0.10937 z m 15.33936,-4 v 2.01562 h -1.15625 v -2.01562 z m 0.0156,4 v 7.25 h 3.0625 q 0.29688,0 0.40625,0.10937 0.125,0.10938 0.125,0.28125 0,0.17188 -0.125,0.28125 -0.10937,0.10938 -0.40625,0.10938 h -6.90625 q -0.26562,0 -0.39062,-0.10938 -0.125,-0.10937 -0.125,-0.28125 0,-0.17187 0.125,-0.28125 0.125,-0.10937 0.39062,-0.10937 h 3.0625 v -6.46875 h -2.26562 q -0.28125,0 -0.40625,-0.10938 -0.125,-0.10937 -0.125,-0.28125 0,-0.17187 0.125,-0.28125 0.125,-0.10937 0.40625,-0.10937 z m 9.38623,0 h 4.23438 q 0.28125,0 0.39062,0.10937 0.125,0.10938 0.125,0.28125 0,0.17188 -0.125,0.28125 -0.10937,0.10938 -0.39062,0.10938 h -4.23438 v 5.1875 q 0,0.6875 0.54688,1.14062 0.54687,0.45313 1.59375,0.45313 0.78125,0 1.70312,-0.23438 0.92188,-0.25 1.4375,-0.54687 0.1875,-0.10938 0.29688,-0.10938 0.15625,0 0.26562,0.125 0.10938,0.10938 0.10938,0.26563 0,0.14062 -0.125,0.25 -0.29688,0.3125 -1.4375,0.67187 -1.14063,0.35938 -2.1875,0.35938 -1.375,0 -2.1875,-0.64063 -0.79688,-0.64062 -0.79688,-1.73437 v -5.1875 h -1.4375 q -0.28125,0 -0.40625,-0.10938 -0.10937,-0.10937 -0.10937,-0.28125 0,-0.17187 0.10937,-0.28125 0.125,-0.10937 0.40625,-0.10937 h 1.4375 v -2.29688 q 0,-0.28125 0.10938,-0.40625 0.10937,-0.125 0.28125,-0.125 0.17187,0 0.28125,0.125 0.10937,0.125 0.10937,0.40625 z m 27.99121,1.25 v 1.92187 q 0,2.51563 -1.20312,3.98438 -0.9375,1.15625 -2.35938,1.15625 -0.6875,0 -1.29687,-0.28125 -0.60938,-0.26563 -1.03125,-0.76563 -0.26563,-0.29687 -0.59375,-0.96875 -0.3125,-0.6875 -0.45313,-1.25 -0.21875,-0.79687 -0.21875,-1.875 v -1.92187 q 0,-2.53125 1.20313,-3.98438 0.9375,-1.15625 2.35937,-1.15625 0.70313,0 1.29688,0.28125 0.60937,0.26563 1.03125,0.76563 0.28125,0.3125 0.59375,0.98437 0.3125,0.67188 0.46875,1.23438 0.20312,0.79687 0.20312,1.875 z m -0.78125,0.0937 q 0,-1.09375 -0.3125,-2.04688 -0.3125,-0.95312 -0.70312,-1.51562 -0.23438,-0.32813 -0.59375,-0.5625 -0.53125,-0.32813 -1.1875,-0.32813 -1.3125,0 -2.0625,1.34375 -0.73438,1.32813 -0.73438,3.10938 v 1.71875 q 0,1.10937 0.3125,2.0625 0.3125,0.95312 0.70313,1.53125 0.21875,0.3125 0.59375,0.54687 0.53125,0.32813 1.20312,0.32813 1.29688,0 2.03125,-1.34375 0.75,-1.34375 0.75,-3.125 z"
         id="path11"
         inkscape:connector-curvature="0"
         style="fill:#000000;fill-rule:nonzero" />
      <path
         d="m 417.6063,348.3071 h 124.78738 v 49.63779 H 417.6063 Z"
         id="path13"
         inkscape:connector-curvature="0"
         style="fill:#000000;fill-opacity:0;fill-rule:evenodd" />
      <path
         d="m 417.6063,348.3071 h 124.78738 v 49.63779 H 417.6063 Z"
         id="path15"
         inkscape:connector-curvature="0"
         style="fill-rule:evenodd;stroke:#000000;stroke-width:2;stroke-linecap:butt;stroke-linejoin:round" />
      <path
         d="m 443.3457,372.796 v -0.25 q 0,-0.29688 0.10938,-0.40625 0.10937,-0.125 0.28125,-0.125 0.17187,0 0.28125,0.125 0.10937,0.10937 0.10937,0.40625 v 1.75 q 0,0.29687 -0.10937,0.42187 -0.10938,0.10938 -0.28125,0.10938 -0.15625,0 -0.26563,-0.0937 -0.10937,-0.10938 -0.125,-0.35938 -0.0625,-0.67187 -0.875,-1.26562 -0.79687,-0.59375 -2.17187,-0.59375 -1.73438,0 -2.64063,1.09375 -0.90625,1.07812 -0.90625,2.48437 0,1.51563 0.98438,2.5 1,0.98438 2.57812,0.98438 0.92188,0 1.85938,-0.32813 0.9375,-0.34375 1.70312,-1.09375 0.1875,-0.17187 0.34375,-0.17187 0.15625,0 0.26563,0.10937 0.10937,0.0937 0.10937,0.25 0,0.40625 -0.9375,1.01563 -1.51562,1 -3.375,1 -1.875,0 -3.09375,-1.20313 -1.20312,-1.20312 -1.20312,-3.04687 0,-1.89063 1.23437,-3.125 1.23438,-1.25 3.125,-1.25 1.78125,0 3,1.0625 z m 12.51123,3.25 q 0,1.78125 -1.28125,3.04687 -1.28125,1.26563 -3.07812,1.26563 -1.8125,0 -3.09375,-1.26563 -1.26563,-1.28125 -1.26563,-3.04687 0,-1.78125 1.26563,-3.04688 1.28125,-1.26562 3.09375,-1.26562 1.79687,0 3.07812,1.26562 1.28125,1.25 1.28125,3.04688 z m -0.79687,0 q 0,-1.46875 -1.04688,-2.5 -1.03125,-1.03125 -2.51562,-1.03125 -1.48438,0 -2.53125,1.04687 -1.04688,1.03125 -1.04688,2.48438 0,1.45312 1.04688,2.5 1.04687,1.03125 2.53125,1.03125 1.48437,0 2.51562,-1.03125 1.04688,-1.04688 1.04688,-2.5 z m 4.29248,-4.03125 v 0.78125 q 0.98437,-1.0625 1.98437,-1.0625 0.60938,0 1.0625,0.32812 0.45313,0.3125 0.76563,0.96875 0.51562,-0.65625 1.04687,-0.96875 0.53125,-0.32812 1.07813,-0.32812 0.84375,0 1.34375,0.54687 0.65625,0.70313 0.65625,1.54688 v 5.4375 h 0.65625 q 0.28125,0 0.39062,0.10937 0.125,0.10938 0.125,0.28125 0,0.17188 -0.125,0.28125 -0.10937,0.10938 -0.39062,0.10938 h -1.4375 v -6.15625 q 0,-0.59375 -0.35938,-0.98438 -0.35937,-0.39062 -0.82812,-0.39062 -0.4375,0 -0.90625,0.32812 -0.46875,0.3125 -1.07813,1.25 v 5.17188 h 0.65625 q 0.26563,0 0.39063,0.10937 0.125,0.10938 0.125,0.28125 0,0.17188 -0.125,0.28125 -0.125,0.10938 -0.39063,0.10938 h -1.4375 v -6.09375 q 0,-0.625 -0.375,-1.03125 -0.35937,-0.40625 -0.8125,-0.40625 -0.42187,0 -0.82812,0.28125 -0.5625,0.375 -1.1875,1.29687 v 5.17188 h 0.65625 q 0.28125,0 0.39062,0.10937 0.125,0.10938 0.125,0.28125 0,0.17188 -0.125,0.28125 -0.10937,0.10938 -0.39062,0.10938 h -2.09375 q -0.28125,0 -0.40625,-0.10938 -0.125,-0.10937 -0.125,-0.28125 0,-0.17187 0.125,-0.28125 0.125,-0.10937 0.40625,-0.10937 h 0.65625 V 372.796 h -0.65625 q -0.28125,0 -0.40625,-0.10938 -0.125,-0.10937 -0.125,-0.28125 0,-0.17187 0.125,-0.28125 0.125,-0.10937 0.40625,-0.10937 z m 11.40185,0 v 0.78125 q 0.98438,-1.0625 1.98438,-1.0625 0.60937,0 1.0625,0.32812 0.45312,0.3125 0.76562,0.96875 0.51563,-0.65625 1.04688,-0.96875 0.53125,-0.32812 1.07812,-0.32812 0.84375,0 1.34375,0.54687 0.65625,0.70313 0.65625,1.54688 v 5.4375 h 0.65625 q 0.28125,0 0.39063,0.10937 0.125,0.10938 0.125,0.28125 0,0.17188 -0.125,0.28125 -0.10938,0.10938 -0.39063,0.10938 h -1.4375 v -6.15625 q 0,-0.59375 -0.35937,-0.98438 -0.35938,-0.39062 -0.82813,-0.39062 -0.4375,0 -0.90625,0.32812 -0.46875,0.3125 -1.07812,1.25 v 5.17188 h 0.65625 q 0.26562,0 0.39062,0.10937 0.125,0.10938 0.125,0.28125 0,0.17188 -0.125,0.28125 -0.125,0.10938 -0.39062,0.10938 h -1.4375 v -6.09375 q 0,-0.625 -0.375,-1.03125 -0.35938,-0.40625 -0.8125,-0.40625 -0.42188,0 -0.82813,0.28125 -0.5625,0.375 -1.1875,1.29687 v 5.17188 h 0.65625 q 0.28125,0 0.39063,0.10937 0.125,0.10938 0.125,0.28125 0,0.17188 -0.125,0.28125 -0.10938,0.10938 -0.39063,0.10938 h -2.09375 q -0.28125,0 -0.40625,-0.10938 -0.125,-0.10937 -0.125,-0.28125 0,-0.17187 0.125,-0.28125 0.125,-0.10937 0.40625,-0.10937 h 0.65625 V 372.796 h -0.65625 q -0.28125,0 -0.40625,-0.10938 -0.125,-0.10937 -0.125,-0.28125 0,-0.17187 0.125,-0.28125 0.125,-0.10937 0.40625,-0.10937 z m 15.33936,-4 v 2.01562 h -1.15625 v -2.01562 z m 0.0156,4 v 7.25 h 3.0625 q 0.29688,0 0.40625,0.10937 0.125,0.10938 0.125,0.28125 0,0.17188 -0.125,0.28125 -0.10937,0.10938 -0.40625,0.10938 h -6.90625 q -0.26562,0 -0.39062,-0.10938 -0.125,-0.10937 -0.125,-0.28125 0,-0.17187 0.125,-0.28125 0.125,-0.10937 0.39062,-0.10937 h 3.0625 V 372.796 h -2.26562 q -0.28125,0 -0.40625,-0.10938 -0.125,-0.10937 -0.125,-0.28125 0,-0.17187 0.125,-0.28125 0.125,-0.10937 0.40625,-0.10937 z m 9.38623,0 h 4.23438 q 0.28125,0 0.39062,0.10937 0.125,0.10938 0.125,0.28125 0,0.17188 -0.125,0.28125 -0.10937,0.10938 -0.39062,0.10938 h -4.23438 v 5.1875 q 0,0.6875 0.54688,1.14062 0.54687,0.45313 1.59375,0.45313 0.78125,0 1.70312,-0.23438 0.92188,-0.25 1.4375,-0.54687 0.1875,-0.10938 0.29688,-0.10938 0.15625,0 0.26562,0.125 0.10938,0.10938 0.10938,0.26563 0,0.14062 -0.125,0.25 -0.29688,0.3125 -1.4375,0.67187 -1.14063,0.35938 -2.1875,0.35938 -1.375,0 -2.1875,-0.64063 -0.79688,-0.64062 -0.79688,-1.73437 v -5.1875 h -1.4375 q -0.28125,0 -0.40625,-0.10938 -0.10937,-0.10937 -0.10937,-0.28125 0,-0.17187 0.10937,-0.28125 0.125,-0.10937 0.40625,-0.10937 h 1.4375 v -2.29688 q 0,-0.28125 0.10938,-0.40625 0.10937,-0.125 0.28125,-0.125 0.17187,0 0.28125,0.125 0.10937,0.125 0.10937,0.40625 z m 24.80371,-3.76563 v 11.01563 h 2.67188 q 0.26562,0 0.39062,0.10937 0.125,0.10938 0.125,0.28125 0,0.17188 -0.125,0.28125 -0.125,0.10938 -0.39062,0.10938 h -6.125 q -0.28125,0 -0.40625,-0.10938 -0.125,-0.10937 -0.125,-0.28125 0,-0.17187 0.125,-0.28125 0.125,-0.10937 0.40625,-0.10937 h 2.67187 v -9.9375 l -2.54687,0.79687 q -0.1875,0.0469 -0.26563,0.0469 -0.14062,0 -0.26562,-0.10938 -0.10938,-0.125 -0.10938,-0.28125 0,-0.14062 0.0937,-0.25 0.0781,-0.0781 0.3125,-0.15625 z"
         id="path17"
         inkscape:connector-curvature="0"
         style="fill:#000000;fill-rule:nonzero" />
      <path
         d="m 480,397.9449 v 38.48819"
         id="path19"
         inkscape:connector-curvature="0"
         style="fill:#000000;fill-opacity:0;fill-rule:evenodd" />
      <path
         d="m 480,397.9449 v 26.48819"
         id="path21"
         inkscape:connector-curvature="0"
         style="fill-rule:evenodd;stroke:#1a1a1a;stroke-width:2;stroke-linecap:butt;stroke-linejoin:round" />
      <path
         d="m 476.69653,424.43307 3.30347,9.0762 3.30346,-9.0762 z"
         id="path23"
         inkscape:connector-curvature="0"
         style="fill:#1a1a1a;fill-rule:evenodd;stroke:#1a1a1a;stroke-width:2;stroke-linecap:butt" />
      <path
         d="m 542.3937,256.4908 h 124.78741 v 49.63779 H 542.3937 Z"
         id="path25"
         inkscape:connector-curvature="0"
         style="fill:#000000;fill-opacity:0;fill-rule:evenodd" />
      <path
         d="m 542.3937,256.4908 h 124.78741 v 49.63779 H 542.3937 Z"
         id="path27"
         inkscape:connector-curvature="0"
         style="fill-rule:evenodd;stroke:#000000;stroke-width:2;stroke-linecap:butt;stroke-linejoin:round;stroke-dasharray:8, 6" />
      <path
         d="m 568.1331,280.9797 v -0.25 q 0,-0.29688 0.10938,-0.40625 0.10937,-0.125 0.28125,-0.125 0.17187,0 0.28125,0.125 0.10937,0.10937 0.10937,0.40625 v 1.75 q 0,0.29687 -0.10937,0.42187 -0.10938,0.10938 -0.28125,0.10938 -0.15625,0 -0.26563,-0.0937 -0.10937,-0.10938 -0.125,-0.35938 -0.0625,-0.67187 -0.875,-1.26562 -0.79687,-0.59375 -2.17187,-0.59375 -1.73438,0 -2.64063,1.09375 -0.90625,1.07812 -0.90625,2.48437 0,1.51563 0.98438,2.5 1,0.98438 2.57812,0.98438 0.92188,0 1.85938,-0.32813 0.9375,-0.34375 1.70312,-1.09375 0.1875,-0.17187 0.34375,-0.17187 0.15625,0 0.26563,0.10937 0.10937,0.0937 0.10937,0.25 0,0.40625 -0.9375,1.01563 -1.51562,1 -3.375,1 -1.875,0 -3.09375,-1.20313 -1.20312,-1.20312 -1.20312,-3.04687 0,-1.89063 1.23437,-3.125 1.23438,-1.25 3.125,-1.25 1.78125,0 3,1.0625 z m 12.51123,3.25 q 0,1.78125 -1.28125,3.04687 -1.28125,1.26563 -3.07813,1.26563 -1.8125,0 -3.09375,-1.26563 -1.26562,-1.28125 -1.26562,-3.04687 0,-1.78125 1.26562,-3.04688 1.28125,-1.26562 3.09375,-1.26562 1.79688,0 3.07813,1.26562 1.28125,1.25 1.28125,3.04688 z m -0.79688,0 q 0,-1.46875 -1.04687,-2.5 -1.03125,-1.03125 -2.51563,-1.03125 -1.48437,0 -2.53125,1.04687 -1.04687,1.03125 -1.04687,2.48438 0,1.45312 1.04687,2.5 1.04688,1.03125 2.53125,1.03125 1.48438,0 2.51563,-1.03125 1.04687,-1.04688 1.04687,-2.5 z m 4.29249,-4.03125 v 0.78125 q 0.98437,-1.0625 1.98437,-1.0625 0.60938,0 1.0625,0.32812 0.45313,0.3125 0.76563,0.96875 0.51562,-0.65625 1.04687,-0.96875 0.53125,-0.32812 1.07813,-0.32812 0.84375,0 1.34375,0.54687 0.65625,0.70313 0.65625,1.54688 v 5.4375 h 0.65625 q 0.28125,0 0.39062,0.10937 0.125,0.10938 0.125,0.28125 0,0.17188 -0.125,0.28125 -0.10937,0.10938 -0.39062,0.10938 h -1.4375 v -6.15625 q 0,-0.59375 -0.35938,-0.98438 -0.35937,-0.39062 -0.82812,-0.39062 -0.4375,0 -0.90625,0.32812 -0.46875,0.3125 -1.07813,1.25 v 5.17188 h 0.65625 q 0.26563,0 0.39063,0.10937 0.125,0.10938 0.125,0.28125 0,0.17188 -0.125,0.28125 -0.125,0.10938 -0.39063,0.10938 h -1.4375 v -6.09375 q 0,-0.625 -0.375,-1.03125 -0.35937,-0.40625 -0.8125,-0.40625 -0.42187,0 -0.82812,0.28125 -0.5625,0.375 -1.1875,1.29687 v 5.17188 h 0.65625 q 0.28125,0 0.39062,0.10937 0.125,0.10938 0.125,0.28125 0,0.17188 -0.125,0.28125 -0.10937,0.10938 -0.39062,0.10938 h -2.09375 q -0.28125,0 -0.40625,-0.10938 -0.125,-0.10937 -0.125,-0.28125 0,-0.17187 0.125,-0.28125 0.125,-0.10937 0.40625,-0.10937 h 0.65625 v -6.46875 h -0.65625 q -0.28125,0 -0.40625,-0.10938 -0.125,-0.10937 -0.125,-0.28125 0,-0.17187 0.125,-0.28125 0.125,-0.10937 0.40625,-0.10937 z m 11.40185,0 v 0.78125 q 0.98438,-1.0625 1.98438,-1.0625 0.60937,0 1.0625,0.32812 0.45312,0.3125 0.76562,0.96875 0.51563,-0.65625 1.04688,-0.96875 0.53125,-0.32812 1.07812,-0.32812 0.84375,0 1.34375,0.54687 0.65625,0.70313 0.65625,1.54688 v 5.4375 h 0.65625 q 0.28125,0 0.39063,0.10937 0.125,0.10938 0.125,0.28125 0,0.17188 -0.125,0.28125 -0.10938,0.10938 -0.39063,0.10938 h -1.4375 v -6.15625 q 0,-0.59375 -0.35937,-0.98438 -0.35938,-0.39062 -0.82813,-0.39062 -0.4375,0 -0.90625,0.32812 -0.46875,0.3125 -1.07812,1.25 v 5.17188 h 0.65625 q 0.26562,0 0.39062,0.10937 0.125,0.10938 0.125,0.28125 0,0.17188 -0.125,0.28125 -0.125,0.10938 -0.39062,0.10938 h -1.4375 v -6.09375 q 0,-0.625 -0.375,-1.03125 -0.35938,-0.40625 -0.8125,-0.40625 -0.42188,0 -0.82813,0.28125 -0.5625,0.375 -1.1875,1.29687 v 5.17188 h 0.65625 q 0.28125,0 0.39063,0.10937 0.125,0.10938 0.125,0.28125 0,0.17188 -0.125,0.28125 -0.10938,0.10938 -0.39063,0.10938 h -2.09375 q -0.28125,0 -0.40625,-0.10938 -0.125,-0.10937 -0.125,-0.28125 0,-0.17187 0.125,-0.28125 0.125,-0.10937 0.40625,-0.10937 h 0.65625 v -6.46875 h -0.65625 q -0.28125,0 -0.40625,-0.10938 -0.125,-0.10937 -0.125,-0.28125 0,-0.17187 0.125,-0.28125 0.125,-0.10937 0.40625,-0.10937 z m 15.33936,-4 v 2.01562 h -1.15625 v -2.01562 z m 0.0156,4 v 7.25 h 3.0625 q 0.29688,0 0.40625,0.10937 0.125,0.10938 0.125,0.28125 0,0.17188 -0.125,0.28125 -0.10937,0.10938 -0.40625,0.10938 H 607.053 q -0.26562,0 -0.39062,-0.10938 -0.125,-0.10937 -0.125,-0.28125 0,-0.17187 0.125,-0.28125 0.125,-0.10937 0.39062,-0.10937 h 3.0625 v -6.46875 h -2.26562 q -0.28125,0 -0.40625,-0.10938 -0.125,-0.10937 -0.125,-0.28125 0,-0.17187 0.125,-0.28125 0.125,-0.10937 0.40625,-0.10937 z m 9.38623,0 h 4.23438 q 0.28125,0 0.39062,0.10937 0.125,0.10938 0.125,0.28125 0,0.17188 -0.125,0.28125 -0.10937,0.10938 -0.39062,0.10938 H 620.283 v 5.1875 q 0,0.6875 0.54688,1.14062 0.54687,0.45313 1.59375,0.45313 0.78125,0 1.70312,-0.23438 0.92188,-0.25 1.4375,-0.54687 0.1875,-0.10938 0.29688,-0.10938 0.15625,0 0.26562,0.125 0.10938,0.10938 0.10938,0.26563 0,0.14062 -0.125,0.25 -0.29688,0.3125 -1.4375,0.67187 -1.14063,0.35938 -2.1875,0.35938 -1.375,0 -2.1875,-0.64063 -0.79688,-0.64062 -0.79688,-1.73437 v -5.1875 h -1.4375 q -0.28125,0 -0.40625,-0.10938 -0.10937,-0.10937 -0.10937,-0.28125 0,-0.17187 0.10937,-0.28125 0.125,-0.10937 0.40625,-0.10937 h 1.4375 v -2.29688 q 0,-0.28125 0.10938,-0.40625 0.10937,-0.125 0.28125,-0.125 0.17187,0 0.28125,0.125 0.10937,0.125 0.10937,0.40625 z m 21.05371,7.25 h 5.98438 v -0.29688 q 0,-0.28125 0.10937,-0.40625 0.10938,-0.125 0.29688,-0.125 0.15625,0 0.26562,0.125 0.125,0.125 0.125,0.40625 v 1.07813 h -7.53125 v -1.15625 q 2.375,-2.125 4.60938,-4.34375 1.04687,-1.01563 1.4375,-1.5 0.39062,-0.48438 0.53125,-0.84375 0.15625,-0.375 0.15625,-0.75 0,-1 -0.8125,-1.76563 -0.8125,-0.78125 -1.95313,-0.78125 -1.01562,0 -1.8125,0.59375 -0.78125,0.57813 -1.01562,1.45313 -0.0469,0.21875 -0.14063,0.28125 -0.10937,0.0937 -0.25,0.0937 -0.15625,0 -0.26562,-0.10938 -0.10938,-0.10937 -0.10938,-0.25 0,-0.45312 0.48438,-1.20312 0.48437,-0.76563 1.34375,-1.20313 0.85937,-0.4375 1.76562,-0.4375 1.45313,0 2.5,1.01563 1.04688,1 1.04688,2.28125 0,0.54687 -0.17188,1 -0.17187,0.4375 -0.60937,0.98437 -0.42188,0.53125 -1.51563,1.60938 -2.73437,2.70312 -4.46875,4.20312 z"
         id="path29"
         inkscape:connector-curvature="0"
         style="fill:#000000;fill-rule:nonzero" />
      <path
         d="m 296,256.4908 h 124.78741 v 49.63779 H 296 Z"
         id="path31"
         inkscape:connector-curvature="0"
         style="fill:#000000;fill-opacity:0;fill-rule:evenodd" />
      <path
         d="m 296,256.4908 h 124.78741 v 49.63779 H 296 Z"
         id="path33"
         inkscape:connector-curvature="0"
         style="fill-rule:evenodd;stroke:#000000;stroke-width:2;stroke-linecap:butt;stroke-linejoin:round" />
      <path
         d="m 321.7394,280.9797 v -0.25 q 0,-0.29688 0.10937,-0.40625 0.10938,-0.125 0.28125,-0.125 0.17188,0 0.28125,0.125 0.10938,0.10937 0.10938,0.40625 v 1.75 q 0,0.29687 -0.10938,0.42187 -0.10937,0.10938 -0.28125,0.10938 -0.15625,0 -0.26562,-0.0937 -0.10938,-0.10938 -0.125,-0.35938 -0.0625,-0.67187 -0.875,-1.26562 -0.79688,-0.59375 -2.17188,-0.59375 -1.73437,0 -2.64062,1.09375 -0.90625,1.07812 -0.90625,2.48437 0,1.51563 0.98437,2.5 1,0.98438 2.57813,0.98438 0.92187,0 1.85937,-0.32813 0.9375,-0.34375 1.70313,-1.09375 0.1875,-0.17187 0.34375,-0.17187 0.15625,0 0.26562,0.10937 0.10938,0.0937 0.10938,0.25 0,0.40625 -0.9375,1.01563 -1.51563,1 -3.375,1 -1.875,0 -3.09375,-1.20313 -1.20313,-1.20312 -1.20313,-3.04687 0,-1.89063 1.23438,-3.125 1.23437,-1.25 3.125,-1.25 1.78125,0 3,1.0625 z m 12.51123,3.25 q 0,1.78125 -1.28125,3.04687 -1.28125,1.26563 -3.07813,1.26563 -1.8125,0 -3.09375,-1.26563 -1.26562,-1.28125 -1.26562,-3.04687 0,-1.78125 1.26562,-3.04688 1.28125,-1.26562 3.09375,-1.26562 1.79688,0 3.07813,1.26562 1.28125,1.25 1.28125,3.04688 z m -0.79688,0 q 0,-1.46875 -1.04687,-2.5 -1.03125,-1.03125 -2.51563,-1.03125 -1.48437,0 -2.53125,1.04687 -1.04687,1.03125 -1.04687,2.48438 0,1.45312 1.04687,2.5 1.04688,1.03125 2.53125,1.03125 1.48438,0 2.51563,-1.03125 1.04687,-1.04688 1.04687,-2.5 z m 4.29249,-4.03125 v 0.78125 q 0.98437,-1.0625 1.98437,-1.0625 0.60938,0 1.0625,0.32812 0.45313,0.3125 0.76563,0.96875 0.51562,-0.65625 1.04687,-0.96875 0.53125,-0.32812 1.07813,-0.32812 0.84375,0 1.34375,0.54687 0.65625,0.70313 0.65625,1.54688 v 5.4375 h 0.65625 q 0.28125,0 0.39062,0.10937 0.125,0.10938 0.125,0.28125 0,0.17188 -0.125,0.28125 -0.10937,0.10938 -0.39062,0.10938 h -1.4375 v -6.15625 q 0,-0.59375 -0.35938,-0.98438 -0.35937,-0.39062 -0.82812,-0.39062 -0.4375,0 -0.90625,0.32812 -0.46875,0.3125 -1.07813,1.25 v 5.17188 h 0.65625 q 0.26563,0 0.39063,0.10937 0.125,0.10938 0.125,0.28125 0,0.17188 -0.125,0.28125 -0.125,0.10938 -0.39063,0.10938 h -1.4375 v -6.09375 q 0,-0.625 -0.375,-1.03125 -0.35937,-0.40625 -0.8125,-0.40625 -0.42187,0 -0.82812,0.28125 -0.5625,0.375 -1.1875,1.29687 v 5.17188 h 0.65625 q 0.28125,0 0.39062,0.10937 0.125,0.10938 0.125,0.28125 0,0.17188 -0.125,0.28125 -0.10937,0.10938 -0.39062,0.10938 h -2.09375 q -0.28125,0 -0.40625,-0.10938 -0.125,-0.10937 -0.125,-0.28125 0,-0.17187 0.125,-0.28125 0.125,-0.10937 0.40625,-0.10937 h 0.65625 v -6.46875 h -0.65625 q -0.28125,0 -0.40625,-0.10938 -0.125,-0.10937 -0.125,-0.28125 0,-0.17187 0.125,-0.28125 0.125,-0.10937 0.40625,-0.10937 z m 11.40185,0 v 0.78125 q 0.98438,-1.0625 1.98438,-1.0625 0.60937,0 1.0625,0.32812 0.45312,0.3125 0.76562,0.96875 0.51563,-0.65625 1.04688,-0.96875 0.53125,-0.32812 1.07812,-0.32812 0.84375,0 1.34375,0.54687 0.65625,0.70313 0.65625,1.54688 v 5.4375 h 0.65625 q 0.28125,0 0.39063,0.10937 0.125,0.10938 0.125,0.28125 0,0.17188 -0.125,0.28125 -0.10938,0.10938 -0.39063,0.10938 h -1.4375 v -6.15625 q 0,-0.59375 -0.35937,-0.98438 -0.35938,-0.39062 -0.82813,-0.39062 -0.4375,0 -0.90625,0.32812 -0.46875,0.3125 -1.07812,1.25 v 5.17188 h 0.65625 q 0.26562,0 0.39062,0.10937 0.125,0.10938 0.125,0.28125 0,0.17188 -0.125,0.28125 -0.125,0.10938 -0.39062,0.10938 h -1.4375 v -6.09375 q 0,-0.625 -0.375,-1.03125 -0.35938,-0.40625 -0.8125,-0.40625 -0.42188,0 -0.82813,0.28125 -0.5625,0.375 -1.1875,1.29687 v 5.17188 h 0.65625 q 0.28125,0 0.39063,0.10937 0.125,0.10938 0.125,0.28125 0,0.17188 -0.125,0.28125 -0.10938,0.10938 -0.39063,0.10938 h -2.09375 q -0.28125,0 -0.40625,-0.10938 -0.125,-0.10937 -0.125,-0.28125 0,-0.17187 0.125,-0.28125 0.125,-0.10937 0.40625,-0.10937 h 0.65625 v -6.46875 h -0.65625 q -0.28125,0 -0.40625,-0.10938 -0.125,-0.10937 -0.125,-0.28125 0,-0.17187 0.125,-0.28125 0.125,-0.10937 0.40625,-0.10937 z m 15.33936,-4 v 2.01562 h -1.15625 v -2.01562 z m 0.0156,4 v 7.25 h 3.0625 q 0.29688,0 0.40625,0.10937 0.125,0.10938 0.125,0.28125 0,0.17188 -0.125,0.28125 -0.10937,0.10938 -0.40625,0.10938 h -6.90625 q -0.26562,0 -0.39062,-0.10938 -0.125,-0.10937 -0.125,-0.28125 0,-0.17187 0.125,-0.28125 0.125,-0.10937 0.39062,-0.10937 h 3.0625 v -6.46875 h -2.26562 q -0.28125,0 -0.40625,-0.10938 -0.125,-0.10937 -0.125,-0.28125 0,-0.17187 0.125,-0.28125 0.125,-0.10937 0.40625,-0.10937 z m 9.38623,0 h 4.23438 q 0.28125,0 0.39062,0.10937 0.125,0.10938 0.125,0.28125 0,0.17188 -0.125,0.28125 -0.10937,0.10938 -0.39062,0.10938 h -4.23438 v 5.1875 q 0,0.6875 0.54688,1.14062 0.54687,0.45313 1.59375,0.45313 0.78125,0 1.70312,-0.23438 0.92188,-0.25 1.4375,-0.54687 0.1875,-0.10938 0.29688,-0.10938 0.15625,0 0.26562,0.125 0.10938,0.10938 0.10938,0.26563 0,0.14062 -0.125,0.25 -0.29688,0.3125 -1.4375,0.67187 -1.14063,0.35938 -2.1875,0.35938 -1.375,0 -2.1875,-0.64063 -0.79688,-0.64062 -0.79688,-1.73437 v -5.1875 h -1.4375 q -0.28125,0 -0.40625,-0.10938 -0.10937,-0.10937 -0.10937,-0.28125 0,-0.17187 0.10937,-0.28125 0.125,-0.10937 0.40625,-0.10937 h 1.4375 v -2.29688 q 0,-0.28125 0.10938,-0.40625 0.10937,-0.125 0.28125,-0.125 0.17187,0 0.28125,0.125 0.10937,0.125 0.10937,0.40625 z m 25.86621,4.78125 h -5.17187 v -0.90625 l 4.32812,-7.48438 h 1.625 v 7.60938 h 0.65625 q 0.28125,0 0.40625,0.10937 0.125,0.0937 0.125,0.28125 0,0.15625 -0.125,0.28125 -0.125,0.10938 -0.40625,0.10938 h -0.65625 v 2.46875 h 0.65625 q 0.28125,0 0.40625,0.10937 0.125,0.10938 0.125,0.28125 0,0.17188 -0.125,0.28125 -0.125,0.10938 -0.40625,0.10938 h -2.89062 q -0.29688,0 -0.42188,-0.10938 -0.10937,-0.10937 -0.10937,-0.28125 0,-0.17187 0.10937,-0.28125 0.125,-0.10937 0.42188,-0.10937 h 1.45312 z m 0,-0.78125 v -6.82813 h -0.40625 l -3.95312,6.82813 z"
         id="path35"
         inkscape:connector-curvature="0"
         style="fill:#000000;fill-rule:nonzero" />
      <path
         d="m 667.1811,156.55118 h 124.78742 v 49.6378 H 667.1811 Z"
         id="path37"
         inkscape:connector-curvature="0"
         style="fill:#000000;fill-opacity:0;fill-rule:evenodd" />
      <path
         d="m 667.1811,156.55118 h 124.78742 v 49.6378 H 667.1811 Z"
         id="path39"
         inkscape:connector-curvature="0"
         style="fill-rule:evenodd;stroke:#000000;stroke-width:2;stroke-linecap:butt;stroke-linejoin:round;stroke-dasharray:8, 6" />
      <path
         d="m 692.92053,181.04007 v -0.25 q 0,-0.29688 0.10937,-0.40625 0.10938,-0.125 0.28125,-0.125 0.17188,0 0.28125,0.125 0.10938,0.10937 0.10938,0.40625 v 1.75 q 0,0.29687 -0.10938,0.42187 -0.10937,0.10938 -0.28125,0.10938 -0.15625,0 -0.26562,-0.0937 -0.10938,-0.10938 -0.125,-0.35938 -0.0625,-0.67187 -0.875,-1.26562 -0.79688,-0.59375 -2.17188,-0.59375 -1.73437,0 -2.64062,1.09375 -0.90625,1.07812 -0.90625,2.48437 0,1.51563 0.98437,2.5 1,0.98438 2.57813,0.98438 0.92187,0 1.85937,-0.32813 0.9375,-0.34375 1.70313,-1.09375 0.1875,-0.17187 0.34375,-0.17187 0.15625,0 0.26562,0.10937 0.10938,0.0937 0.10938,0.25 0,0.40625 -0.9375,1.01563 -1.51563,1 -3.375,1 -1.875,0 -3.09375,-1.20313 -1.20313,-1.20312 -1.20313,-3.04687 0,-1.89063 1.23438,-3.125 1.23437,-1.25 3.125,-1.25 1.78125,0 3,1.0625 z m 12.51123,3.25 q 0,1.78125 -1.28125,3.04687 -1.28125,1.26563 -3.07813,1.26563 -1.8125,0 -3.09375,-1.26563 -1.26562,-1.28125 -1.26562,-3.04687 0,-1.78125 1.26562,-3.04688 1.28125,-1.26562 3.09375,-1.26562 1.79688,0 3.07813,1.26562 1.28125,1.25 1.28125,3.04688 z m -0.79688,0 q 0,-1.46875 -1.04687,-2.5 -1.03125,-1.03125 -2.51563,-1.03125 -1.48437,0 -2.53125,1.04687 -1.04687,1.03125 -1.04687,2.48438 0,1.45312 1.04687,2.5 1.04688,1.03125 2.53125,1.03125 1.48438,0 2.51563,-1.03125 1.04687,-1.04688 1.04687,-2.5 z m 4.29249,-4.03125 v 0.78125 q 0.98437,-1.0625 1.98437,-1.0625 0.60938,0 1.0625,0.32812 0.45313,0.3125 0.76563,0.96875 0.51562,-0.65625 1.04687,-0.96875 0.53125,-0.32812 1.07813,-0.32812 0.84375,0 1.34375,0.54687 0.65625,0.70313 0.65625,1.54688 v 5.4375 h 0.65625 q 0.28125,0 0.39062,0.10937 0.125,0.10938 0.125,0.28125 0,0.17188 -0.125,0.28125 -0.10937,0.10938 -0.39062,0.10938 h -1.4375 v -6.15625 q 0,-0.59375 -0.35938,-0.98438 -0.35937,-0.39062 -0.82812,-0.39062 -0.4375,0 -0.90625,0.32812 -0.46875,0.3125 -1.07813,1.25 v 5.17188 h 0.65625 q 0.26563,0 0.39063,0.10937 0.125,0.10938 0.125,0.28125 0,0.17188 -0.125,0.28125 -0.125,0.10938 -0.39063,0.10938 h -1.4375 v -6.09375 q 0,-0.625 -0.375,-1.03125 -0.35937,-0.40625 -0.8125,-0.40625 -0.42187,0 -0.82812,0.28125 -0.5625,0.375 -1.1875,1.29687 v 5.17188 h 0.65625 q 0.28125,0 0.39062,0.10937 0.125,0.10938 0.125,0.28125 0,0.17188 -0.125,0.28125 -0.10937,0.10938 -0.39062,0.10938 h -2.09375 q -0.28125,0 -0.40625,-0.10938 -0.125,-0.10937 -0.125,-0.28125 0,-0.17187 0.125,-0.28125 0.125,-0.10937 0.40625,-0.10937 h 0.65625 v -6.46875 h -0.65625 q -0.28125,0 -0.40625,-0.10938 -0.125,-0.10937 -0.125,-0.28125 0,-0.17187 0.125,-0.28125 0.125,-0.10937 0.40625,-0.10937 z m 11.40185,0 v 0.78125 q 0.98438,-1.0625 1.98438,-1.0625 0.60937,0 1.0625,0.32812 0.45312,0.3125 0.76562,0.96875 0.51563,-0.65625 1.04688,-0.96875 0.53125,-0.32812 1.07812,-0.32812 0.84375,0 1.34375,0.54687 0.65625,0.70313 0.65625,1.54688 v 5.4375 h 0.65625 q 0.28125,0 0.39063,0.10937 0.125,0.10938 0.125,0.28125 0,0.17188 -0.125,0.28125 -0.10938,0.10938 -0.39063,0.10938 h -1.4375 v -6.15625 q 0,-0.59375 -0.35937,-0.98438 -0.35938,-0.39062 -0.82813,-0.39062 -0.4375,0 -0.90625,0.32812 -0.46875,0.3125 -1.07812,1.25 v 5.17188 h 0.65625 q 0.26562,0 0.39062,0.10937 0.125,0.10938 0.125,0.28125 0,0.17188 -0.125,0.28125 -0.125,0.10938 -0.39062,0.10938 h -1.4375 v -6.09375 q 0,-0.625 -0.375,-1.03125 -0.35938,-0.40625 -0.8125,-0.40625 -0.42188,0 -0.82813,0.28125 -0.5625,0.375 -1.1875,1.29687 v 5.17188 h 0.65625 q 0.28125,0 0.39063,0.10937 0.125,0.10938 0.125,0.28125 0,0.17188 -0.125,0.28125 -0.10938,0.10938 -0.39063,0.10938 h -2.09375 q -0.28125,0 -0.40625,-0.10938 -0.125,-0.10937 -0.125,-0.28125 0,-0.17187 0.125,-0.28125 0.125,-0.10937 0.40625,-0.10937 h 0.65625 v -6.46875 h -0.65625 q -0.28125,0 -0.40625,-0.10938 -0.125,-0.10937 -0.125,-0.28125 0,-0.17187 0.125,-0.28125 0.125,-0.10937 0.40625,-0.10937 z m 15.33936,-4 v 2.01562 h -1.15625 v -2.01562 z m 0.0156,4 v 7.25 h 3.0625 q 0.29688,0 0.40625,0.10937 0.125,0.10938 0.125,0.28125 0,0.17188 -0.125,0.28125 -0.10937,0.10938 -0.40625,0.10938 h -6.90625 q -0.26562,0 -0.39062,-0.10938 -0.125,-0.10937 -0.125,-0.28125 0,-0.17187 0.125,-0.28125 0.125,-0.10937 0.39062,-0.10937 h 3.0625 v -6.46875 h -2.26562 q -0.28125,0 -0.40625,-0.10938 -0.125,-0.10937 -0.125,-0.28125 0,-0.17187 0.125,-0.28125 0.125,-0.10937 0.40625,-0.10937 z m 9.38623,0 h 4.23438 q 0.28125,0 0.39062,0.10937 0.125,0.10938 0.125,0.28125 0,0.17188 -0.125,0.28125 -0.10937,0.10938 -0.39062,0.10938 h -4.23438 v 5.1875 q 0,0.6875 0.54688,1.14062 0.54687,0.45313 1.59375,0.45313 0.78125,0 1.70312,-0.23438 0.92188,-0.25 1.4375,-0.54687 0.1875,-0.10938 0.29688,-0.10938 0.15625,0 0.26562,0.125 0.10938,0.10938 0.10938,0.26563 0,0.14062 -0.125,0.25 -0.29688,0.3125 -1.4375,0.67187 -1.14063,0.35938 -2.1875,0.35938 -1.375,0 -2.1875,-0.64063 -0.79688,-0.64062 -0.79688,-1.73437 v -5.1875 h -1.4375 q -0.28125,0 -0.40625,-0.10938 -0.10937,-0.10937 -0.10937,-0.28125 0,-0.17187 0.10937,-0.28125 0.125,-0.10937 0.40625,-0.10937 h 1.4375 v -2.29688 q 0,-0.28125 0.10938,-0.40625 0.10937,-0.125 0.28125,-0.125 0.17187,0 0.28125,0.125 0.10937,0.125 0.10937,0.40625 z m 26.00684,1.6875 q 1.07812,0.48437 1.64062,1.32812 0.57813,0.84375 0.57813,1.75 0,1.40625 -1.14063,2.48438 -1.14062,1.0625 -2.84375,1.0625 -1,0 -2.07812,-0.42188 -1.07813,-0.4375 -1.5,-0.875 -0.14063,-0.15625 -0.14063,-0.32812 0,-0.14063 0.0937,-0.25 0.10938,-0.10938 0.26563,-0.10938 0.14062,0 0.32812,0.14063 1.4375,1.0625 3.04688,1.0625 1.35937,0 2.26562,-0.84375 0.92188,-0.85938 0.92188,-1.89063 0,-0.70312 -0.45313,-1.35937 -0.45312,-0.67188 -1.29687,-1.0625 -0.84375,-0.39063 -1.70313,-0.39063 -0.28125,0 -0.40625,-0.0937 -0.10937,-0.10937 -0.10937,-0.28125 0,-0.17187 0.10937,-0.28125 0.10938,-0.10937 0.34375,-0.10937 h 0.67188 q 1.04687,0 1.71875,-0.64063 0.6875,-0.64062 0.6875,-1.48437 0,-0.875 -0.71875,-1.53125 -0.70313,-0.67188 -1.85938,-0.67188 -0.79687,0 -1.48437,0.28125 -0.67188,0.28125 -1.07813,0.75 -0.15625,0.1875 -0.23437,0.23438 -0.0781,0.0469 -0.17188,0.0469 -0.15625,0 -0.28125,-0.10937 -0.10937,-0.10938 -0.10937,-0.26563 0,-0.35937 0.8125,-0.9375 1.125,-0.78125 2.54687,-0.78125 1.48438,0 2.42188,0.89063 0.95312,0.875 0.95312,2.10937 0,0.78125 -0.45312,1.48438 -0.45313,0.6875 -1.34375,1.09375 z"
         id="path41"
         inkscape:connector-curvature="0"
         style="fill:#000000;fill-rule:nonzero" />
      <path
         d="m 235.5683,192.6542 v 0 c 0,1.12956 -0.9157,2.04527 -2.04527,2.04527 v -2.04527 c 0,0.56479 -0.45786,1.02263 -1.02263,1.02263 -0.56479,0 -1.02265,-0.45784 -1.02265,-1.02263 v 2.04527 H 122.40098 v 0 c -1.12957,0 -2.04527,0.9157 -2.04527,2.04528 v 24.5433 c 0,1.12958 0.9157,2.04527 2.04527,2.04527 1.12958,0 2.04528,-0.91569 2.04528,-2.04527 v -2.04527 h 109.07677 c 1.12958,0 2.04527,-0.9157 2.04527,-2.04528 z m -113.16732,6.13582 c 1.12958,0 2.04528,-0.9157 2.04528,-2.04527 v 0 c 0,-0.56479 -0.45785,-1.02265 -1.02264,-1.02265 -0.56478,0 -1.02264,0.45786 -1.02264,1.02265 z"
         id="path43"
         inkscape:connector-curvature="0"
         style="fill:#e9edee;fill-rule:evenodd" />
      <path
         d="m 122.40098,198.79002 c 1.12958,0 2.04528,-0.9157 2.04528,-2.04527 v 0 c 0,-0.56479 -0.45785,-1.02265 -1.02264,-1.02265 -0.56478,0 -1.02264,0.45786 -1.02264,1.02265 z m 111.12205,-4.09055 c 1.12958,0 2.04527,-0.91571 2.04527,-2.04527 0,-1.12958 -0.91569,-2.04529 -2.04527,-2.04529 -1.12958,0 -2.04527,0.91571 -2.04527,2.04529 0,0.56479 0.45785,1.02263 1.02264,1.02263 0.56477,0 1.02263,-0.45784 1.02263,-1.02263 z"
         id="path45"
         inkscape:connector-curvature="0"
         style="fill:#babdbe;fill-rule:evenodd" />
      <path
         d="m 120.35571,196.74475 c 0,-1.12958 0.9157,-2.04527 2.04527,-2.04527 h 109.07677 v -2.04528 0 c 0,-1.12957 0.9157,-2.04528 2.04528,-2.04528 1.12957,0 2.04527,0.91571 2.04527,2.04528 v 24.54331 c 0,1.12958 -0.9157,2.04527 -2.04527,2.04527 H 124.44626 v 2.04527 c 0,1.12958 -0.91571,2.04528 -2.04528,2.04528 -1.12957,0 -2.04528,-0.9157 -2.04528,-2.04528 z m 111.12204,-2.04527 h 2.04528 c 1.12958,0 2.04527,-0.91571 2.04527,-2.04528 m -2.04527,2.04528 v -2.04528 c 0,0.56479 -0.45786,1.02263 -1.02263,1.02263 -0.56479,0 -1.02265,-0.45784 -1.02265,-1.02263 m -109.07677,6.13582 v -2.04527 0 c 0,-0.56479 0.45786,-1.02264 1.02264,-1.02264 0.56479,0 1.02264,0.45785 1.02264,1.02264 0,1.12958 -0.9157,2.04527 -2.04528,2.04527 -1.12957,0 -2.04527,-0.91569 -2.04527,-2.04527 m 4.09055,0 v 22.49803"
         id="path47"
         inkscape:connector-curvature="0"
         style="fill:#000000;fill-opacity:0;fill-rule:evenodd" />
      <path
         d="m 120.35571,196.74475 c 0,-1.12958 0.9157,-2.04527 2.04527,-2.04527 h 109.07677 v -2.04528 0 c 0,-1.12957 0.9157,-2.04528 2.04528,-2.04528 1.12957,0 2.04527,0.91571 2.04527,2.04528 v 24.54331 c 0,1.12958 -0.9157,2.04527 -2.04527,2.04527 H 124.44626 v 2.04527 c 0,1.12958 -0.91571,2.04528 -2.04528,2.04528 -1.12957,0 -2.04528,-0.9157 -2.04528,-2.04528 z m 111.12204,-2.04527 h 2.04528 c 1.12958,0 2.04527,-0.91571 2.04527,-2.04528 m -2.04527,2.04528 v -2.04528 c 0,0.56479 -0.45786,1.02263 -1.02263,1.02263 -0.56479,0 -1.02265,-0.45784 -1.02265,-1.02263 m -109.07677,6.13582 v -2.04527 0 c 0,-0.56479 0.45786,-1.02264 1.02264,-1.02264 0.56479,0 1.02264,0.45785 1.02264,1.02264 0,1.12958 -0.9157,2.04527 -2.04528,2.04527 -1.12957,0 -2.04527,-0.91569 -2.04527,-2.04527 m 4.09055,0 v 22.49803"
         id="path49"
         inkscape:connector-curvature="0"
         style="fill-rule:evenodd;stroke:#1a1a1a;stroke-width:1;stroke-linecap:butt;stroke-linejoin:round" />
      <path
         d="m 140.15262,206.72176 v 5.45312 h 2.875 q 0.23438,0 0.32813,0.0937 0.10937,0.0781 0.10937,0.23438 0,0.14062 -0.10937,0.23437 -0.0937,0.0937 -0.32813,0.0937 h -5.125 q -0.23437,0 -0.34375,-0.0937 -0.0937,-0.0937 -0.0937,-0.23437 0,-0.15625 0.0937,-0.23438 0.10938,-0.0937 0.34375,-0.0937 h 1.57813 v -5.45312 h -1.42188 q -0.23437,0 -0.34375,-0.0937 -0.0937,-0.0937 -0.0937,-0.23438 0,-0.14062 0.0937,-0.23437 0.10938,-0.0937 0.34375,-0.0937 h 1.42188 v -1 q 0,-0.82813 0.67187,-1.4375 0.67188,-0.60938 1.78125,-0.60938 0.9375,0 1.98438,0.17188 0.40625,0.0625 0.48437,0.15625 0.0781,0.0781 0.0781,0.21875 0,0.14062 -0.0937,0.23437 -0.0937,0.0937 -0.25,0.0937 -0.0625,0 -0.20313,-0.0312 -1.1875,-0.17187 -2,-0.17187 -0.85937,0 -1.32812,0.42187 -0.45313,0.42188 -0.45313,0.95313 v 1 h 3.0625 q 0.23438,0 0.32813,0.0937 0.10937,0.0937 0.10937,0.23437 0,0.14063 -0.10937,0.23438 -0.0937,0.0937 -0.32813,0.0937 z m 13.58594,2.875 h -6.6875 q 0.17187,1.28125 1.0625,2.0625 0.89062,0.76562 2.21875,0.76562 0.73437,0 1.53125,-0.23437 0.8125,-0.25 1.3125,-0.64063 0.15625,-0.125 0.26562,-0.125 0.125,0 0.21875,0.10938 0.0937,0.0937 0.0937,0.21875 0,0.14062 -0.125,0.26562 -0.375,0.39063 -1.34375,0.73438 -0.95312,0.34375 -1.95312,0.34375 -1.6875,0 -2.82813,-1.10938 -1.125,-1.10937 -1.125,-2.6875 0,-1.42187 1.0625,-2.4375 1.0625,-1.03125 2.625,-1.03125 1.60938,0 2.64063,1.04688 1.04687,1.04687 1.03125,2.71875 z m -0.67188,-0.65625 q -0.1875,-1.09375 -1.03125,-1.76563 -0.82812,-0.6875 -1.96875,-0.6875 -1.15625,0 -1.98437,0.67188 -0.82813,0.67187 -1.03125,1.78125 z m 8.60157,3.89062 v -0.95312 q -1.42188,1.21875 -3.04688,1.21875 -1.1875,0 -1.85937,-0.59375 -0.65625,-0.60938 -0.65625,-1.48438 0,-0.95312 0.875,-1.65625 0.875,-0.71875 2.5625,-0.71875 0.45312,0 0.98437,0.0625 0.53125,0.0625 1.14063,0.1875 v -1.0625 q 0,-0.54687 -0.5,-0.9375 -0.5,-0.40625 -1.5,-0.40625 -0.76563,0 -2.14063,0.45313 -0.25,0.0781 -0.32812,0.0781 -0.125,0 -0.21875,-0.0937 -0.0781,-0.0937 -0.0781,-0.23437 0,-0.14063 0.0781,-0.21875 0.10937,-0.10938 0.875,-0.3125 1.21875,-0.32813 1.84375,-0.32813 1.25,0 1.9375,0.60938 0.70312,0.60937 0.70312,1.39062 v 4.34375 h 0.875 q 0.23438,0 0.32813,0.0937 0.10937,0.0781 0.10937,0.23438 0,0.14062 -0.10937,0.23437 -0.0937,0.0937 -0.32813,0.0937 z m 0,-3.26562 q -0.45313,-0.14063 -0.96875,-0.20313 -0.51563,-0.0625 -1.09375,-0.0625 -1.42188,0 -2.23438,0.625 -0.60937,0.45313 -0.60937,1.09375 0,0.59375 0.46875,1 0.46875,0.40625 1.35937,0.40625 0.84375,0 1.57813,-0.32812 0.73437,-0.34375 1.5,-1.09375 z m 6.36718,-3.5 h 3.5625 q 0.23438,0 0.32813,0.0937 0.10937,0.0937 0.10937,0.23437 0,0.14063 -0.10937,0.23438 -0.0937,0.0937 -0.32813,0.0937 h -3.5625 v 4.375 q 0,0.5625 0.45313,0.95312 0.46875,0.375 1.34375,0.375 0.67187,0 1.4375,-0.1875 0.78125,-0.20312 1.20312,-0.45312 0.15625,-0.10938 0.26563,-0.10938 0.125,0 0.21875,0.10938 0.0937,0.0937 0.0937,0.21875 0,0.125 -0.10938,0.21875 -0.25,0.26562 -1.21875,0.57812 -0.95312,0.29688 -1.84375,0.29688 -1.14062,0 -1.82812,-0.54688 -0.67188,-0.54687 -0.67188,-1.45312 v -4.375 h -1.21875 q -0.23437,0 -0.34375,-0.0937 -0.0937,-0.0937 -0.0937,-0.23438 0,-0.14062 0.0937,-0.23437 0.10938,-0.0937 0.34375,-0.0937 h 1.21875 v -1.9375 q 0,-0.23438 0.0937,-0.32813 0.0937,-0.10937 0.23438,-0.10937 0.14062,0 0.23437,0.10937 0.0937,0.0937 0.0937,0.32813 z m 13.19532,6.76562 v -0.96875 q -1.34375,1.23438 -2.90625,1.23438 -0.95313,0 -1.45313,-0.53125 -0.65625,-0.6875 -0.65625,-1.60938 v -4.23437 h -0.875 q -0.23437,0 -0.34375,-0.0937 -0.0937,-0.0937 -0.0937,-0.23438 0,-0.14062 0.0937,-0.23437 0.10938,-0.0937 0.34375,-0.0937 h 1.53125 v 4.89062 q 0,0.64063 0.40625,1.0625 0.40625,0.40625 1.01563,0.40625 1.60937,0 2.9375,-1.46875 v -4.23437 h -1.20313 q -0.23437,0 -0.34375,-0.0937 -0.0937,-0.0937 -0.0937,-0.23438 0,-0.14062 0.0937,-0.23437 0.10938,-0.0937 0.34375,-0.0937 h 1.85938 v 6.10937 h 0.5625 q 0.23437,0 0.32812,0.0937 0.10938,0.0781 0.10938,0.23438 0,0.14062 -0.10938,0.23437 -0.0937,0.0937 -0.32812,0.0937 z m 6.57031,-6.76562 v 1.65625 q 1.28125,-1.15625 1.92187,-1.48438 0.64063,-0.34375 1.17188,-0.34375 0.59375,0 1.09375,0.40625 0.5,0.39063 0.5,0.59375 0,0.14063 -0.0937,0.25 -0.0937,0.0937 -0.25,0.0937 -0.0781,0 -0.14063,-0.0312 -0.0469,-0.0312 -0.1875,-0.17187 -0.28125,-0.28125 -0.48437,-0.375 -0.20313,-0.10938 -0.39063,-0.10938 -0.4375,0 -1.04687,0.34375 -0.59375,0.34375 -2.09375,1.6875 v 3.59375 h 2.90625 q 0.25,0 0.34375,0.0937 0.10937,0.0781 0.10937,0.23438 0,0.14062 -0.10937,0.23437 -0.0937,0.0937 -0.34375,0.0937 h -5.14063 q -0.23437,0 -0.34375,-0.0937 -0.0937,-0.0937 -0.0937,-0.23437 0,-0.125 0.0937,-0.21875 0.0937,-0.0937 0.34375,-0.0937 h 1.57813 v -5.46875 h -1.20313 q -0.23437,0 -0.34375,-0.0937 -0.0937,-0.0937 -0.0937,-0.23438 0,-0.14062 0.0937,-0.23437 0.0937,-0.0937 0.34375,-0.0937 z m 13.94531,3.53125 h -6.6875 q 0.17188,1.28125 1.0625,2.0625 0.89063,0.76562 2.21875,0.76562 0.73438,0 1.53125,-0.23437 0.8125,-0.25 1.3125,-0.64063 0.15625,-0.125 0.26563,-0.125 0.125,0 0.21875,0.10938 0.0937,0.0937 0.0937,0.21875 0,0.14062 -0.125,0.26562 -0.375,0.39063 -1.34375,0.73438 -0.95313,0.34375 -1.95313,0.34375 -1.6875,0 -2.82812,-1.10938 -1.125,-1.10937 -1.125,-2.6875 0,-1.42187 1.0625,-2.4375 1.0625,-1.03125 2.625,-1.03125 1.60937,0 2.64062,1.04688 1.04688,1.04687 1.03125,2.71875 z m -0.67187,-0.65625 q -0.1875,-1.09375 -1.03125,-1.76563 -0.82813,-0.6875 -1.96875,-0.6875 -1.15625,0 -1.98438,0.67188 -0.82812,0.67187 -1.03125,1.78125 z m 13.5,3.23437 h 5.03125 v -0.26562 q 0,-0.23438 0.0937,-0.32813 0.0937,-0.10937 0.25,-0.10937 0.14062,0 0.23437,0.10937 0.0937,0.0937 0.0937,0.32813 v 0.92187 h -6.34375 v -0.96875 q 2,-1.79687 3.89063,-3.65625 0.875,-0.875 1.20312,-1.28125 0.32813,-0.40625 0.45313,-0.70312 0.125,-0.3125 0.125,-0.625 0,-0.84375 -0.6875,-1.48438 -0.67188,-0.65625 -1.64063,-0.65625 -0.85937,0 -1.53125,0.5 -0.65625,0.48438 -0.84375,1.20313 -0.0469,0.1875 -0.125,0.25 -0.0937,0.0781 -0.21875,0.0781 -0.125,0 -0.21875,-0.0937 -0.0937,-0.0937 -0.0937,-0.21875 0,-0.375 0.40625,-1.01562 0.42188,-0.64063 1.14063,-1 0.71875,-0.375 1.48437,-0.375 1.21875,0 2.09375,0.85937 0.89063,0.84375 0.89063,1.92188 0,0.45312 -0.15625,0.84375 -0.14063,0.375 -0.5,0.82812 -0.34375,0.4375 -1.26563,1.34375 -2.3125,2.28125 -3.76562,3.54688 z"
         id="path51"
         inkscape:connector-curvature="0"
         style="fill:#0000ff;fill-rule:nonzero" />
      <path
         d="m 358.3937,306.1286 121.60629,42.17325"
         id="path53"
         inkscape:connector-curvature="0"
         style="fill:#000000;fill-opacity:0;fill-rule:evenodd" />
      <path
         d="m 358.3937,306.1286 110.26874,38.24136"
         id="path55"
         inkscape:connector-curvature="0"
         style="fill-rule:evenodd;stroke:#1a1a1a;stroke-width:2;stroke-linecap:butt;stroke-linejoin:round" />
      <path
         d="m 467.58005,347.49106 9.65756,-0.14722 -7.49277,-6.095 z"
         id="path57"
         inkscape:connector-curvature="0"
         style="fill:#1a1a1a;fill-rule:evenodd;stroke:#1a1a1a;stroke-width:2;stroke-linecap:butt" />
      <path
         d="M 604.7874,306.1286 479.99999,348.30185"
         id="path59"
         inkscape:connector-curvature="0"
         style="fill:#000000;fill-opacity:0;fill-rule:evenodd" />
      <path
         d="M 604.7874,306.1286 491.3683,344.45981"
         id="path61"
         inkscape:connector-curvature="0"
         style="fill-rule:evenodd;stroke:#1a1a1a;stroke-width:2;stroke-linecap:butt;stroke-linejoin:round;stroke-dasharray:8, 6" />
      <path
         d="m 490.31064,341.33023 -7.54074,6.03549 9.6561,0.22363 z"
         id="path63"
         inkscape:connector-curvature="0"
         style="fill:#1a1a1a;fill-rule:evenodd;stroke:#1a1a1a;stroke-width:2;stroke-linecap:butt" />
      <path
         d="M 729.5748,206.18898 604.78738,256.48819"
         id="path65"
         inkscape:connector-curvature="0"
         style="fill:#000000;fill-opacity:0;fill-rule:evenodd" />
      <path
         d="M 729.5748,206.18898 615.91727,252.00197"
         id="path67"
         inkscape:connector-curvature="0"
         style="fill-rule:evenodd;stroke:#1a1a1a;stroke-width:2;stroke-linecap:butt;stroke-linejoin:round;stroke-dasharray:8, 6" />
      <path
         d="m 614.68225,248.93805 -7.18304,6.45708 9.65307,-0.32923 z"
         id="path69"
         inkscape:connector-curvature="0"
         style="fill:#1a1a1a;fill-rule:evenodd;stroke:#1a1a1a;stroke-width:2;stroke-linecap:butt" />
      <path
         d="m 235.5683,206.97113 122.83466,49.51181"
         id="path71"
         inkscape:connector-curvature="0"
         style="fill:#000000;fill-opacity:0;fill-rule:evenodd" />
      <path
         d="m 235.5683,206.97113 111.70474,45.0256"
         id="path73"
         inkscape:connector-curvature="0"
         style="fill-rule:evenodd;stroke:#0000ff;stroke-width:2;stroke-linecap:butt;stroke-linejoin:round" />
      <path
         d="m 346.03806,255.06067 9.65308,0.32921 -7.18308,-6.45706 z"
         id="path75"
         inkscape:connector-curvature="0"
         style="fill:#0000ff;fill-rule:evenodd;stroke:#0000ff;stroke-width:2;stroke-linecap:butt" />
      <path
         d="m 231.75328,266.99277 v 0 c 0,1.12958 -0.9157,2.04529 -2.04527,2.04529 v -2.04529 c 0,0.56479 -0.45786,1.02264 -1.02265,1.02264 -0.56479,0 -1.02263,-0.45785 -1.02263,-1.02264 v 2.04529 H 118.58596 v 0 c -1.12958,0 -2.04528,0.91571 -2.04528,2.04529 v 24.5433 c 0,1.12958 0.9157,2.04526 2.04528,2.04526 1.12957,0 2.04527,-0.91568 2.04527,-2.04526 v -2.04529 h 109.07678 c 1.12957,0 2.04527,-0.91571 2.04527,-2.04526 z m -113.16732,6.13583 c 1.12957,0 2.04527,-0.91568 2.04527,-2.04525 v 0 c 0,-0.56479 -0.45784,-1.02265 -1.02263,-1.02265 -0.56479,0 -1.02264,0.45786 -1.02264,1.02265 z"
         id="path77"
         inkscape:connector-curvature="0"
         style="fill:#e9edee;fill-rule:evenodd" />
      <path
         d="m 118.58596,273.1286 c 1.12957,0 2.04527,-0.91568 2.04527,-2.04526 v 0 c 0,-0.56479 -0.45784,-1.02264 -1.02263,-1.02264 -0.56479,0 -1.02264,0.45785 -1.02264,1.02264 z m 111.12205,-4.09055 c 1.12958,0 2.04527,-0.91571 2.04527,-2.04528 0,-1.12955 -0.91569,-2.04526 -2.04527,-2.04526 -1.12958,0 -2.04527,0.91571 -2.04527,2.04526 0,0.56479 0.45784,1.02264 1.02263,1.02264 0.56478,0 1.02264,-0.45785 1.02264,-1.02264 z"
         id="path79"
         inkscape:connector-curvature="0"
         style="fill:#babdbe;fill-rule:evenodd" />
      <path
         d="m 116.54068,271.08334 c 0,-1.12958 0.9157,-2.04529 2.04528,-2.04529 h 109.07678 v -2.04529 0 c 0,-1.12954 0.91569,-2.04525 2.04527,-2.04525 1.12958,0 2.04527,0.91571 2.04527,2.04525 v 24.54334 c 0,1.12955 -0.91569,2.04526 -2.04527,2.04526 H 120.63123 v 2.04528 c 0,1.12958 -0.9157,2.04526 -2.04527,2.04526 -1.12958,0 -2.04528,-0.91568 -2.04528,-2.04526 z m 111.12205,-2.04529 h 2.04528 c 1.12958,0 2.04527,-0.91571 2.04527,-2.04529 m -2.04527,2.04529 v -2.04529 c 0,0.56479 -0.45786,1.02265 -1.02265,1.02265 -0.56479,0 -1.02263,-0.45786 -1.02263,-1.02265 m -109.07677,6.13584 v -2.04526 0 c 0,-0.56479 0.45785,-1.02264 1.02264,-1.02264 0.56479,0 1.02263,0.45785 1.02263,1.02264 0,1.12958 -0.9157,2.04526 -2.04527,2.04526 -1.12958,0 -2.04528,-0.91568 -2.04528,-2.04526 m 4.09055,0 v 22.49802"
         id="path81"
         inkscape:connector-curvature="0"
         style="fill:#000000;fill-opacity:0;fill-rule:evenodd" />
      <path
         d="m 116.54068,271.08334 c 0,-1.12958 0.9157,-2.04529 2.04528,-2.04529 h 109.07678 v -2.04529 0 c 0,-1.12954 0.91569,-2.04525 2.04527,-2.04525 1.12958,0 2.04527,0.91571 2.04527,2.04525 v 24.54334 c 0,1.12955 -0.91569,2.04526 -2.04527,2.04526 H 120.63123 v 2.04528 c 0,1.12958 -0.9157,2.04526 -2.04527,2.04526 -1.12958,0 -2.04528,-0.91568 -2.04528,-2.04526 z m 111.12205,-2.04529 h 2.04528 c 1.12958,0 2.04527,-0.91571 2.04527,-2.04529 m -2.04527,2.04529 v -2.04529 c 0,0.56479 -0.45786,1.02265 -1.02265,1.02265 -0.56479,0 -1.02263,-0.45786 -1.02263,-1.02265 m -109.07677,6.13584 v -2.04526 0 c 0,-0.56479 0.45785,-1.02264 1.02264,-1.02264 0.56479,0 1.02263,0.45785 1.02263,1.02264 0,1.12958 -0.9157,2.04526 -2.04527,2.04526 -1.12958,0 -2.04528,-0.91568 -2.04528,-2.04526 m 4.09055,0 v 22.49802"
         id="path83"
         inkscape:connector-curvature="0"
         style="fill-rule:evenodd;stroke:#1a1a1a;stroke-width:1;stroke-linecap:butt;stroke-linejoin:round" />
      <path
         d="m 148.17743,280.40408 v 0.65625 q 0.84375,-0.89062 1.6875,-0.89062 0.5,0 0.875,0.26562 0.39062,0.26563 0.65625,0.8125 0.4375,-0.54687 0.875,-0.8125 0.45312,-0.26562 0.90625,-0.26562 0.71875,0 1.14062,0.45312 0.54688,0.59375 0.54688,1.29688 v 4.59375 h 0.5625 q 0.23437,0 0.32812,0.0937 0.10938,0.0781 0.10938,0.23437 0,0.14063 -0.10938,0.23438 -0.0937,0.0937 -0.32812,0.0937 h -1.21875 v -5.1875 q 0,-0.5 -0.3125,-0.82813 -0.29688,-0.32812 -0.6875,-0.32812 -0.35938,0 -0.76563,0.28125 -0.39062,0.26562 -0.90625,1.04687 v 4.35938 h 0.54688 q 0.23437,0 0.32812,0.0937 0.10938,0.0781 0.10938,0.23437 0,0.14063 -0.10938,0.23438 -0.0937,0.0937 -0.32812,0.0937 h -1.20313 v -5.14063 q 0,-0.51562 -0.3125,-0.85937 -0.3125,-0.34375 -0.6875,-0.34375 -0.35937,0 -0.70312,0.23437 -0.46875,0.3125 -1,1.09375 v 4.35938 h 0.5625 q 0.23437,0 0.32812,0.0937 0.10938,0.0781 0.10938,0.23437 0,0.14063 -0.10938,0.23438 -0.0937,0.0937 -0.32812,0.0937 h -1.76563 q -0.23437,0 -0.34375,-0.0937 -0.0937,-0.0937 -0.0937,-0.23438 0,-0.15625 0.0937,-0.23437 0.10938,-0.0937 0.34375,-0.0937 h 0.54688 v -5.45313 h -0.54688 q -0.23437,0 -0.34375,-0.0937 -0.0937,-0.0937 -0.0937,-0.23437 0,-0.14063 0.0937,-0.23438 0.10938,-0.0937 0.34375,-0.0937 z m 14.47656,6.76563 v -0.95313 q -1.42187,1.21875 -3.04687,1.21875 -1.1875,0 -1.85938,-0.59375 -0.65625,-0.60937 -0.65625,-1.48437 0,-0.95313 0.875,-1.65625 0.875,-0.71875 2.5625,-0.71875 0.45313,0 0.98438,0.0625 0.53125,0.0625 1.14062,0.1875 v -1.0625 q 0,-0.54688 -0.5,-0.9375 -0.5,-0.40625 -1.5,-0.40625 -0.76562,0 -2.14062,0.45312 -0.25,0.0781 -0.32813,0.0781 -0.125,0 -0.21875,-0.0937 -0.0781,-0.0937 -0.0781,-0.23438 0,-0.14062 0.0781,-0.21875 0.10938,-0.10937 0.875,-0.3125 1.21875,-0.32812 1.84375,-0.32812 1.25,0 1.9375,0.60937 0.70313,0.60938 0.70313,1.39063 v 4.34375 h 0.875 q 0.23437,0 0.32812,0.0937 0.10938,0.0781 0.10938,0.23437 0,0.14063 -0.10938,0.23438 -0.0937,0.0937 -0.32812,0.0937 z m 0,-3.26563 q -0.45312,-0.14062 -0.96875,-0.20312 -0.51562,-0.0625 -1.09375,-0.0625 -1.42187,0 -2.23437,0.625 -0.60938,0.45312 -0.60938,1.09375 0,0.59375 0.46875,1 0.46875,0.40625 1.35938,0.40625 0.84375,0 1.57812,-0.32813 0.73438,-0.34375 1.5,-1.09375 z m 9.88281,-3.07812 q 0,-0.21875 0.0937,-0.3125 0.0937,-0.10938 0.23438,-0.10938 0.15625,0 0.25,0.10938 0.0937,0.0937 0.0937,0.32812 v 1.125 q 0,0.23438 -0.0937,0.34375 -0.0937,0.0937 -0.25,0.0937 -0.125,0 -0.21875,-0.0781 -0.0937,-0.0937 -0.10938,-0.28125 -0.0469,-0.46875 -0.48437,-0.78125 -0.64063,-0.4375 -1.6875,-0.4375 -1.10938,0 -1.71875,0.45312 -0.45313,0.32813 -0.45313,0.75 0,0.46875 0.54688,0.78125 0.375,0.21875 1.42187,0.32813 1.35938,0.15625 1.89063,0.34375 0.76562,0.26562 1.125,0.75 0.375,0.48437 0.375,1.04687 0,0.84375 -0.8125,1.5 -0.79688,0.65625 -2.34375,0.65625 -1.5625,0 -2.54688,-0.79687 0,0.26562 -0.0312,0.34375 -0.0312,0.0781 -0.125,0.14062 -0.0781,0.0469 -0.17187,0.0469 -0.14063,0 -0.23438,-0.0937 -0.0937,-0.10938 -0.0937,-0.34375 v -1.35938 q 0,-0.23437 0.0781,-0.32812 0.0937,-0.10938 0.25,-0.10938 0.14062,0 0.23437,0.10938 0.0937,0.0937 0.0937,0.25 0,0.35937 0.1875,0.60937 0.26563,0.375 0.85938,0.625 0.60937,0.23438 1.46875,0.23438 1.28125,0 1.90625,-0.46875 0.625,-0.48438 0.625,-1.01563 0,-0.60937 -0.625,-0.96875 -0.64063,-0.375 -1.875,-0.5 -1.21875,-0.125 -1.75,-0.32812 -0.53125,-0.20313 -0.82813,-0.60938 -0.29687,-0.40625 -0.29687,-0.875 0,-0.84375 0.82812,-1.32812 0.82813,-0.5 1.98438,-0.5 1.35937,0 2.20312,0.65625 z m 6.08594,-0.42188 h 3.5625 q 0.23438,0 0.32813,0.0937 0.10937,0.0937 0.10937,0.23438 0,0.14062 -0.10937,0.23437 -0.0937,0.0937 -0.32813,0.0937 h -3.5625 v 4.375 q 0,0.5625 0.45313,0.95313 0.46875,0.375 1.34375,0.375 0.67187,0 1.4375,-0.1875 0.78125,-0.20313 1.20312,-0.45313 0.15625,-0.10937 0.26563,-0.10937 0.125,0 0.21875,0.10937 0.0937,0.0937 0.0937,0.21875 0,0.125 -0.10938,0.21875 -0.25,0.26563 -1.21875,0.57813 -0.95312,0.29687 -1.84375,0.29687 -1.14062,0 -1.82812,-0.54687 -0.67188,-0.54688 -0.67188,-1.45313 v -4.375 h -1.21875 q -0.23437,0 -0.34375,-0.0937 -0.0937,-0.0937 -0.0937,-0.23437 0,-0.14063 0.0937,-0.23438 0.10938,-0.0937 0.34375,-0.0937 h 1.21875 v -1.9375 q 0,-0.23437 0.0937,-0.32812 0.0937,-0.10938 0.23438,-0.10938 0.14062,0 0.23437,0.10938 0.0937,0.0937 0.0937,0.32812 z m 14.50783,3.53125 h -6.6875 q 0.17188,1.28125 1.0625,2.0625 0.89063,0.76563 2.21875,0.76563 0.73438,0 1.53125,-0.23438 0.8125,-0.25 1.3125,-0.64062 0.15625,-0.125 0.26563,-0.125 0.125,0 0.21875,0.10937 0.0937,0.0937 0.0937,0.21875 0,0.14063 -0.125,0.26563 -0.375,0.39062 -1.34375,0.73437 -0.95313,0.34375 -1.95313,0.34375 -1.6875,0 -2.82812,-1.10937 -1.125,-1.10938 -1.125,-2.6875 0,-1.42188 1.0625,-2.4375 1.0625,-1.03125 2.625,-1.03125 1.60937,0 2.64062,1.04687 1.04688,1.04688 1.03125,2.71875 z m -0.67187,-0.65625 q -0.1875,-1.09375 -1.03125,-1.76562 -0.82813,-0.6875 -1.96875,-0.6875 -1.15625,0 -1.98438,0.67187 -0.82812,0.67188 -1.03125,1.78125 z m 5.92968,-2.875 v 1.65625 q 1.28125,-1.15625 1.92188,-1.48437 0.64062,-0.34375 1.17187,-0.34375 0.59375,0 1.09375,0.40625 0.5,0.39062 0.5,0.59375 0,0.14062 -0.0937,0.25 -0.0937,0.0937 -0.25,0.0937 -0.0781,0 -0.14062,-0.0312 -0.0469,-0.0312 -0.1875,-0.17188 -0.28125,-0.28125 -0.48438,-0.375 -0.20312,-0.10937 -0.39062,-0.10937 -0.4375,0 -1.04688,0.34375 -0.59375,0.34375 -2.09375,1.6875 v 3.59375 h 2.90625 q 0.25,0 0.34375,0.0937 0.10938,0.0781 0.10938,0.23437 0,0.14063 -0.10938,0.23438 -0.0937,0.0937 -0.34375,0.0937 h -5.14062 q -0.23438,0 -0.34375,-0.0937 -0.0937,-0.0937 -0.0937,-0.23438 0,-0.125 0.0937,-0.21875 0.0937,-0.0937 0.34375,-0.0937 h 1.57812 v -5.46875 h -1.20312 q -0.23438,0 -0.34375,-0.0937 -0.0937,-0.0937 -0.0937,-0.23437 0,-0.14063 0.0937,-0.23438 0.0937,-0.0937 0.34375,-0.0937 z"
         id="path85"
         inkscape:connector-curvature="0"
         style="fill:#0000ff;fill-rule:nonzero" />
      <path
         d="m 231.75328,281.30972 h 64.25197"
         id="path87"
         inkscape:connector-curvature="0"
         style="fill:#000000;fill-opacity:0;fill-rule:evenodd" />
      <path
         d="m 231.75328,281.30972 h 52.25197"
         id="path89"
         inkscape:connector-curvature="0"
         style="fill-rule:evenodd;stroke:#0000ff;stroke-width:2;stroke-linecap:butt;stroke-linejoin:round" />
      <path
         d="m 284.00525,284.6132 9.0762,-3.30347 -9.0762,-3.30346 z"
         id="path91"
         inkscape:connector-curvature="0"
         style="fill:#0000ff;fill-rule:evenodd;stroke:#0000ff;stroke-width:2;stroke-linecap:butt" />
      <path
         d="m 135.12862,144.49606 v 0 c 0,-11.64581 19.17772,-21.08662 42.83464,-21.08662 v 0 c 23.65692,0 42.83464,9.44081 42.83464,21.08662 v 0 c 0,11.64581 -19.17772,21.08661 -42.83464,21.08661 v 0 c -23.65692,0 -42.83464,-9.4408 -42.83464,-21.08661 z"
         id="path93"
         inkscape:connector-curvature="0"
         style="fill:#e9edee;fill-rule:evenodd" />
      <path
         d="m 135.12862,144.49606 v 0 c 0,-11.64581 19.17772,-21.08662 42.83464,-21.08662 v 0 c 23.65692,0 42.83464,9.44081 42.83464,21.08662 v 0 c 0,11.64581 -19.17772,21.08661 -42.83464,21.08661 v 0 c -23.65692,0 -42.83464,-9.4408 -42.83464,-21.08661 z"
         id="path95"
         inkscape:connector-curvature="0"
         style="fill-rule:evenodd;stroke:#ff0000;stroke-width:2;stroke-linecap:butt;stroke-linejoin:round" />
      <path
         d="m 165.32263,146.43419 h -3.42188 v 2.3125 h 0.25 q 0.57813,0 0.8125,0.23437 0.25,0.21875 0.25,0.57813 0,0.34375 -0.25,0.57812 -0.23437,0.21875 -0.8125,0.21875 H 160.182 q -0.57812,0 -0.82812,-0.21875 -0.23438,-0.23437 -0.23438,-0.59375 0,-0.4375 0.375,-0.67187 0.1875,-0.125 0.79688,-0.125 v -6.26563 q -0.42188,-0.0312 -0.64063,-0.25 -0.20312,-0.21875 -0.20312,-0.54687 0,-0.35938 0.23437,-0.57813 0.25,-0.23437 0.82813,-0.23437 l 1.64062,0.0156 q 0.57813,0 0.8125,0.21875 0.25,0.21875 0.25,0.57813 0,0.35937 -0.25,0.57812 -0.23437,0.21875 -0.8125,0.21875 h -0.25 v 2.34375 h 3.42188 v -2.34375 h -0.25 q -0.57813,0 -0.82813,-0.21875 -0.25,-0.21875 -0.25,-0.57812 0,-0.35938 0.25,-0.57813 0.25,-0.23437 0.82813,-0.23437 l 1.625,0.0156 q 0.57812,0 0.82812,0.21875 0.25,0.21875 0.25,0.57813 0,0.32812 -0.21875,0.54687 -0.21875,0.21875 -0.64062,0.25 v 6.26563 q 0.625,0 0.79687,0.125 0.39063,0.23437 0.39063,0.6875 0,0.34375 -0.25,0.57812 -0.25,0.21875 -0.82813,0.21875 h -1.95312 q -0.57813,0 -0.82813,-0.21875 -0.25,-0.23437 -0.25,-0.59375 0,-0.34375 0.25,-0.5625 0.25,-0.23437 0.82813,-0.23437 h 0.25 z m 6.19531,-0.0312 v 2.34375 h 4.09375 v -0.85938 q 0,-0.57812 0.21875,-0.82812 0.21875,-0.25 0.57813,-0.25 0.35937,0 0.57812,0.25 0.21875,0.25 0.21875,0.82812 v 2.46875 h -7.53125 q -0.57812,0 -0.82812,-0.21875 -0.25,-0.23437 -0.25,-0.59375 0,-0.34375 0.25,-0.5625 0.25,-0.23437 0.82812,-0.23437 h 0.25 v -6.26563 h -0.25 q -0.57812,0 -0.82812,-0.21875 -0.25,-0.21875 -0.25,-0.57812 0,-0.35938 0.25,-0.57813 0.25,-0.23437 0.82812,-0.23437 l 7.1875,0.0156 v 2.4375 q 0,0.5625 -0.21875,0.8125 -0.21875,0.25 -0.57812,0.25 -0.35938,0 -0.59375,-0.23437 -0.21875,-0.25 -0.21875,-0.82813 v -0.84375 h -3.73438 v 2.3125 h 1.40625 q 0,-0.625 0.125,-0.79687 0.23438,-0.39063 0.6875,-0.39063 0.34375,0 0.5625,0.25 0.23438,0.25 0.23438,0.82813 v 1.84375 q 0,0.51562 -0.125,0.70312 -0.25,0.35938 -0.67188,0.35938 -0.45312,0 -0.6875,-0.375 -0.125,-0.1875 -0.125,-0.8125 z m 13.21094,1.375 h -3.89063 l -0.39062,0.96875 h 0.39062 q 0.57813,0 0.8125,0.23437 0.25,0.21875 0.25,0.57813 0,0.34375 -0.25,0.57812 -0.23437,0.21875 -0.8125,0.21875 H 178.682 q -0.57812,0 -0.82812,-0.21875 -0.25,-0.23437 -0.25,-0.59375 0,-0.35937 0.26562,-0.57812 0.25,-0.23438 0.84375,-0.21875 l 2.51563,-6.26563 H 180.182 q -0.57812,0 -0.82812,-0.21875 -0.23438,-0.21875 -0.23438,-0.57812 0,-0.35938 0.23438,-0.57813 0.25,-0.23437 0.82812,-0.23437 l 3.46875,0.0156 3.1875,7.85938 q 0.5625,0 0.73438,0.125 0.35937,0.26562 0.35937,0.6875 0,0.34375 -0.25,0.57812 -0.23437,0.21875 -0.8125,0.21875 h -2.15625 q -0.57812,0 -0.82812,-0.21875 -0.23438,-0.23437 -0.23438,-0.59375 0,-0.34375 0.23438,-0.5625 0.25,-0.23437 0.82812,-0.23437 h 0.39063 z m -0.67188,-1.60938 -1.28125,-3.17187 -1.29687,3.17187 z m 4.72657,2.57813 v -6.26563 q -0.5,0 -0.75,-0.21875 -0.23438,-0.23437 -0.23438,-0.57812 0,-0.35938 0.23438,-0.57813 0.25,-0.23437 0.82812,-0.23437 l 3.35938,0.0156 q 0.78125,0 1.51562,0.29688 0.75,0.28125 1.20313,0.71875 0.34375,0.34375 0.71875,0.9375 0.375,0.57812 0.5625,1.15625 0.1875,0.57812 0.1875,1.40625 v 0.76562 q 0,1.01563 -0.34375,1.8125 -0.34375,0.78125 -0.90625,1.28125 -0.5625,0.48438 -1.04688,0.71875 -0.78125,0.375 -2.03125,0.375 h -3.21875 q -0.57812,0 -0.82812,-0.21875 -0.23438,-0.23437 -0.23438,-0.59375 0,-0.34375 0.23438,-0.5625 0.25,-0.23437 0.75,-0.23437 z m 1.60937,0 h 1.70313 q 0.95312,0 1.4375,-0.26563 0.625,-0.35937 0.9375,-0.90625 0.32812,-0.5625 0.32812,-1.45312 v -0.75 q 0,-0.76563 -0.28125,-1.32813 -0.45312,-0.89062 -1.03125,-1.21875 -0.5625,-0.34375 -1.40625,-0.34375 h -1.6875 z"
         id="path97"
         inkscape:connector-curvature="0"
         style="fill:#ff0000;fill-rule:nonzero" />
      <path
         d="m 177.96326,165.58267 v 29.10237"
         id="path99"
         inkscape:connector-curvature="0"
         style="fill:#000000;fill-opacity:0;fill-rule:evenodd" />
      <path
         d="m 177.96326,165.58267 v 17.10237"
         id="path101"
         inkscape:connector-curvature="0"
         style="fill-rule:evenodd;stroke:#ff0000;stroke-width:2;stroke-linecap:butt;stroke-linejoin:round" />
      <path
         d="m 174.65979,182.68504 3.30347,9.07619 3.30346,-9.07619 z"
         id="path103"
         inkscape:connector-curvature="0"
         style="fill:#ff0000;fill-rule:evenodd;stroke:#ff0000;stroke-width:2;stroke-linecap:butt" />
    </g>
  </g>
</svg>
