<?xml version="1.0" encoding="UTF-8" standalone="no"?>
<svg
   width="123.83915mm"
   height="39.197414mm"
   version="1.1"
   viewBox="-320.242 241.59 643.58371 203.70289"
   id="svg78"
   sodipodi:docname="accumulate.svg"
   inkscape:version="1.1.2 (0a00cf5339, 2022-02-04, custom)"
   xmlns:inkscape="http://www.inkscape.org/namespaces/inkscape"
   xmlns:sodipodi="http://sodipodi.sourceforge.net/DTD/sodipodi-0.dtd"
   xmlns="http://www.w3.org/2000/svg"
   xmlns:svg="http://www.w3.org/2000/svg"
   xmlns:rdf="http://www.w3.org/1999/02/22-rdf-syntax-ns#"
   xmlns:cc="http://creativecommons.org/ns#"
   xmlns:dc="http://purl.org/dc/elements/1.1/">
  <sodipodi:namedview
     id="namedview80"
     pagecolor="#ffffff"
     bordercolor="#666666"
     borderopacity="1.0"
     inkscape:pageshadow="2"
     inkscape:pageopacity="0.0"
     inkscape:pagecheckerboard="0"
     inkscape:document-units="mm"
     showgrid="false"
     fit-margin-top="5"
     fit-margin-left="2"
     fit-margin-right="2"
     fit-margin-bottom="5"
     inkscape:zoom="1.5516882"
     inkscape:cx="288.07334"
     inkscape:cy="73.46837"
     inkscape:current-layer="svg78" />
  <!--
	Exported with Concepts: Smarter Sketching
	Version: 1055 on iOS 15.3
	https://concepts.app/
	-->
  <title
     id="title2">Random blog drawings</title>
  <desc
     id="desc4">Drawing exported from Concepts: Smarter Sketching</desc>
  <defs
     id="defs6" />
  <g
     id="Pen"
     opacity="1"
     transform="rotate(90,-9.4707092,571.17457)">
    <path
       id="STROKE_7eb5a7d9-e53f-4ee9-84f2-530a6f433eb4"
       opacity="1"
       fill="none"
       stroke="#000000"
       stroke-width="1.57"
       stroke-opacity="1"
       stroke-linecap="round"
       stroke-linejoin="round"
       d="m -297.108,833.434 q -0.088,0.269 -0.081,0.223 -0.026,0.059 -0.072,0.141 h -0.008 q 0.099,0.063 -0.219,-2.671 -0.318,-2.733 -0.533,-4.309 -0.215,-1.576 -0.444,-3.559 -0.229,-1.983 -0.331,-3.081 -0.103,-1.098 -0.08,-2.368 0.023,-1.271 0.039,-1.969 0.016,-0.697 0.21,-1.27 0.195,-0.573 0.523,-1.149 0.328,-0.575 0.801,-0.831 0.472,-0.257 1.088,-0.307 0.615,-0.05 1.732,-0.139 1.116,-0.089 4.406,0.828 3.289,0.917 4.99,1.492 1.701,0.575 2.501,0.86 0.801,0.286 2.414,0.879 1.614,0.593 4.114,1.643 2.5,1.05 3.959,1.675 1.459,0.625 2.557,1.123 -0.041,0.004 -0.452,-0.098 -0.411,-0.103 -0.627,-0.187" />
    <path
       id="STROKE_25ee2377-5f8a-4a7e-a3ee-b0aa206dfd40"
       opacity="1"
       fill="none"
       stroke="#000000"
       stroke-width="1.563"
       stroke-opacity="1"
       stroke-linecap="round"
       stroke-linejoin="round"
       d="m -286.082,826.665 q -0.24,-0.045 -0.519,-2.938 -0.278,-2.892 -0.536,-4.863 -0.257,-1.97 -0.539,-5.855 -0.281,-3.885 -0.323,-4.125" />
    <path
       id="STROKE_97400fbb-51a3-4846-a126-927cd4ba3139"
       opacity="1"
       fill="none"
       stroke="#000000"
       stroke-width="1.84"
       stroke-opacity="1"
       stroke-linecap="round"
       stroke-linejoin="round"
       d="m -293.587,721.775 q -0.22,0.205 -0.58,0.297 -0.359,0.093 -0.565,-0.042 -0.206,-0.135 -0.392,-0.383 -0.186,-0.248 -0.357,-0.5 -0.171,-0.252 -0.496,-0.859 -0.326,-0.607 -0.603,-1.622 -0.277,-1.015 -0.351,-1.872 -0.074,-0.857 0.01,-1.853 0.084,-0.997 0.476,-1.961 0.392,-0.965 0.941,-1.691 0.55,-0.725 0.94,-1.086 0.39,-0.36 0.952,-0.676 0.563,-0.315 1.281,-0.397 0.719,-0.083 1.185,-0.075 0.466,0.007 0.854,0.174 0.388,0.168 0.984,0.601 0.596,0.433 1.191,1.268 0.595,0.835 1.124,1.953 0.528,1.118 0.91,3.549 -0.09,0.087 0.043,-1.207 0.133,-1.293 0.266,-2.023 0.133,-0.729 0.623,-1.888 0.491,-1.158 0.908,-1.803 0.417,-0.645 0.822,-1.211 0.405,-0.565 1.206,-1.371 0.8,-0.805 1.72,-1.38 0.919,-0.575 1.802,-0.874 0.883,-0.3 1.555,-0.462 0.672,-0.162 1.418,-0.135 0.746,0.027 1.145,0.092 0.4,0.066 1.065,0.441 0.664,0.376 1.344,1.233 0.679,0.858 1.229,2.121 0.549,1.264 0.782,2.234 0.232,0.97 0.353,1.8 0.121,0.83 0.149,1.337 0.029,0.506 0.048,0.741 0.018,0.236 0.069,1.242 0.052,1.006 -0.078,2.144 -0.13,1.139 -0.708,3.176 -0.577,2.037 -0.65,2.293" />
    <path
       id="STROKE_a2719f66-20e5-4458-bbed-1ec9dc8edcd1"
       opacity="1"
       fill="none"
       stroke="#000000"
       stroke-width="1.815"
       stroke-opacity="1"
       stroke-linecap="round"
       stroke-linejoin="round"
       d="m -296.124,507.889 q 0.034,-0.152 0,0.504 -0.034,0.656 0.253,1.347 0.286,0.691 1.291,1.568 1.004,0.876 2.661,1.73 1.657,0.853 3.188,1.414 1.531,0.56 3.334,0.771 1.803,0.211 2.978,0.15 1.176,-0.061 1.744,-0.14 0.569,-0.079 1.552,-0.4 0.983,-0.321 1.96,-0.915 0.977,-0.594 1.874,-1.535 0.897,-0.941 1.707,-2.293 0.809,-1.351 1.215,-2.242 0.407,-0.891 0.511,-1.732 0.104,-0.84 0.007,-1.481 -0.096,-0.641 -0.724,-1.679 -0.628,-1.039 -1.411,-1.868 -0.783,-0.829 -2.557,-1.896 -1.775,-1.066 -3.124,-1.675 -1.349,-0.609 -2.359,-0.908 -1.01,-0.299 -1.924,-0.414 -0.915,-0.116 -1.547,-0.122 -0.631,-0.007 -1.779,-0.043 -1.148,-0.036 -2.293,0.153 -1.146,0.188 -2.064,0.549 -0.919,0.361 -1.674,0.803 -0.755,0.443 -1.54,1.199 -0.785,0.757 -1.358,1.917 -0.574,1.16 -0.889,2.075 -0.314,0.915 -0.503,2.274 -0.188,1.359 -0.088,2.439 0.101,1.081 0.228,1.596 0.127,0.515 0.505,1.662 0.378,1.147 1.509,2.41 1.13,1.264 1.453,1.563" />
    <path
       id="STROKE_1dc2b093-81e1-403e-88c4-03e0f97dc1e4"
       opacity="1"
       fill="none"
       stroke="#000000"
       stroke-width="1.839"
       stroke-opacity="1"
       stroke-linecap="round"
       stroke-linejoin="round"
       d="m -301.862,288.998 q 0,0 0,0.11 0,0.11 0,0.126 0,0.016 0,-0.004 0.091,0.34 0.072,0.271 -0.02,-0.07 -0.018,0.007 0.002,0.078 0.055,0.117 0.053,0.039 0.112,1.671 0.059,1.633 0.015,3.085 -0.045,1.452 -0.241,2.98 -0.196,1.529 -0.188,2.507 0.008,0.979 0.048,1.454 0.041,0.476 0.344,1.789 0.303,1.314 0.461,1.989 0.158,0.675 0.275,0.951 0.116,0.276 0.185,0.372 0.069,0.095 0.082,0.071 0.013,-0.024 -0.031,-0.002 -0.044,0.023 0.379,0.062 0.424,0.039 1.346,0.042 0.922,0.003 1.905,-0.151 0.983,-0.153 1.829,-0.331 0.845,-0.178 1.564,-0.292 0.719,-0.114 1.304,-0.206 0.584,-0.092 1.361,-0.2 0.776,-0.108 5.946,-1.024 0.017,0.055 -0.633,-0.055 -0.651,-0.11 -1.183,-0.446 -0.531,-0.335 -0.932,-0.739 -0.4,-0.403 -0.664,-1.278 -0.264,-0.876 -0.287,-2.012 -0.022,-1.137 0.104,-2.087 0.126,-0.95 0.338,-1.693 0.213,-0.742 0.671,-1.807 0.458,-1.065 1.314,-1.99 0.856,-0.925 1.404,-1.408 0.549,-0.484 1.35,-0.939 0.802,-0.456 1.695,-0.765 0.892,-0.309 2.058,-0.435 1.166,-0.127 2.38,-10e-4 1.215,0.126 2.273,0.514 1.059,0.389 1.82,0.766 0.762,0.378 1.446,1.116 0.684,0.737 1.163,1.617 0.479,0.88 0.597,2.585 0.117,1.705 0.04,3.931 -0.077,2.226 -0.053,3.684 0.025,1.457 0.002,2.83 -0.024,1.373 -0.014,2.211 0.009,0.838 -0.235,1.269 -0.244,0.431 -0.335,0.539" />
    <path
       id="STROKE_9ccab622-c99f-42f3-bf23-5dc90bd26f2b"
       opacity="1"
       fill="none"
       stroke="#000000"
       stroke-width="1.824"
       stroke-opacity="1"
       stroke-linecap="round"
       stroke-linejoin="round"
       d="m -298.388,399.057 q 0.009,-0.099 -0.303,-0.041 -0.312,0.057 -0.475,0.017 -0.162,-0.041 -0.3,0.156 -0.137,0.197 -0.209,0.35 -0.071,0.154 -0.191,0.791 -0.121,0.637 0.012,1.777 0.133,1.141 0.543,2.151 0.409,1.01 0.782,1.759 0.372,0.75 0.844,1.516 0.472,0.766 1.144,1.515 0.672,0.748 1.601,1.281 0.928,0.532 1.986,0.667 1.057,0.135 1.982,0.159 0.926,0.024 1.826,-0.733 0.899,-0.757 1.454,-1.504 0.555,-0.746 0.847,-1.613 0.292,-0.866 0.312,-1.705 0.02,-0.838 -0.368,-1.66 -0.388,-0.821 -1.204,-1.965 -0.816,-1.143 -1.471,-1.913 -0.656,-0.77 -1.56,-1.276 -0.904,-0.506 -1.838,-0.781 -0.934,-0.275 -1.75,-0.351 -0.817,-0.077 -1.671,0.1 -0.854,0.177 -1.582,0.734 0.154,0.138 1.34,0.243 1.186,0.106 3.127,-0.431 1.942,-0.537 3.542,-0.957 1.601,-0.42 2.437,-0.587 0.836,-0.166 2.205,-0.48 1.369,-0.314 3.959,-0.903 2.589,-0.589 3.932,-1.003 1.342,-0.414 3.373,-0.604 2.031,-0.191 3.015,-0.164 0.983,0.027 1.372,-0.002 0.388,-0.03 0.76,0.073 0.373,0.104 0.492,0.497 0.12,0.393 0.065,1.478 -0.055,1.084 -0.51,2.704 -0.455,1.619 -0.664,4.141 -0.208,2.522 -0.179,5.067 0.029,2.545 0.02,2.609" />
    <path
       id="STROKE_a32001d5-301a-4153-8475-30b6169a0c56"
       opacity="1"
       fill="none"
       stroke="#000000"
       stroke-width="1.826"
       stroke-opacity="1"
       stroke-linecap="round"
       stroke-linejoin="round"
       d="m -293.94,618.076 q -0.102,0.025 -0.555,0.269 -0.453,0.245 -0.879,0.01 -0.425,-0.234 -0.928,-1.424 -0.503,-1.191 -0.72,-1.915 -0.217,-0.723 -0.445,-2.309 -0.228,-1.585 -0.269,-2.732 -0.04,-1.146 -0.06,-2.168 -0.02,-1.021 0.235,-1.952 0.254,-0.93 0.658,-1.63 0.403,-0.701 1.067,-1.215 0.664,-0.514 1.354,-0.742 0.689,-0.229 1.267,-0.054 0.578,0.174 0.998,0.512 0.421,0.338 1.246,1.176 0.826,0.838 2.024,2.716 1.197,1.878 1.842,2.99 0.644,1.111 1.167,1.998 0.523,0.888 0.922,1.544 0.399,0.656 1.342,2.074 0.942,1.419 2.103,2.664 1.162,1.246 2.124,2.022 0.962,0.776 1.564,1.1 0.602,0.324 1.041,0.519 0.439,0.195 1.008,0.199 0.568,0.005 0.911,-0.025 0.343,-0.029 0.703,-0.209 0.361,-0.18 0.797,-0.597 0.437,-0.416 0.876,-1.046 0.438,-0.63 0.683,-1.678 0.245,-1.049 0.27,-2.277 0.026,-1.228 -0.055,-2.085 -0.081,-0.857 -0.241,-1.453 -0.161,-0.596 -0.244,-1.211 -0.083,-0.615 -0.721,-2.345 -0.637,-1.73 -1.083,-2.684 -0.446,-0.953 -0.733,-1.523 -0.287,-0.571 -0.873,-1.396 -0.586,-0.824 -1.05,-1.395 -0.464,-0.57 -1.136,-0.821 -0.673,-0.251 -1.412,-0.263 -0.739,-0.013 -1.488,0.428 -0.749,0.441 -1.77,1.476 -1.021,1.034 -1.987,2.434 -0.965,1.399 -1.487,2.512 -0.521,1.112 -0.853,1.973 -0.333,0.861 -0.979,2.464 -0.646,1.602 -1.448,3.123 -0.801,1.521 -1.704,2.573 -0.903,1.053 -1.399,1.574 -0.496,0.52 -1.049,0.856 -0.552,0.336 -1.289,0.471 -0.737,0.134 -1.366,0.063 -0.628,-0.072 -1.274,-0.524 -0.645,-0.452 -1.308,-1.694 -0.664,-1.241 -0.959,-1.811" />
    <path
       id="STROKE_f77f7773-aa63-4caf-905d-db36bda603ac"
       opacity="1"
       fill="none"
       stroke="#f45e58"
       stroke-width="1.84"
       stroke-opacity="1"
       stroke-linecap="round"
       stroke-linejoin="round"
       d="M -311.942,870.632 V 767.623 h 51.085 v 103.009 z" />
    <path
       id="STROKE_3ac01ad2-cb85-48ef-9ed0-0ac3c94b73f9"
       opacity="1"
       fill="none"
       stroke="#000000"
       stroke-width="1.84"
       stroke-opacity="1"
       stroke-linecap="round"
       stroke-linejoin="round"
       d="M -312.038,663.535 V 560.526 h 51.085 v 103.009 z" />
    <path
       id="STROKE_0552172a-ed4c-452e-bbb8-a438cab5cd11"
       opacity="1"
       fill="none"
       stroke="#000000"
       stroke-width="1.84"
       stroke-opacity="1"
       stroke-linecap="round"
       stroke-linejoin="round"
       d="M -312.156,559.561 V 456.552 h 51.085 v 103.009 z" />
    <path
       id="STROKE_959ebb7d-b13f-48c6-916b-b2a99bb4cca3"
       opacity="1"
       fill="none"
       stroke="#000000"
       stroke-width="1.84"
       stroke-opacity="1"
       stroke-linecap="round"
       stroke-linejoin="round"
       d="M -312.014,456.126 V 353.117 h 51.085 v 103.009 z" />
    <path
       id="STROKE_cfeb9b51-5ba5-47c3-946a-c62ece28c747"
       opacity="1"
       fill="none"
       stroke="#000000"
       stroke-width="1.84"
       stroke-opacity="1"
       stroke-linecap="round"
       stroke-linejoin="round"
       d="M -311.645,352.685 V 249.676 h 51.085 v 103.009 z" />
    <path
       id="STROKE_3f182054-c203-49bb-a930-70adb37b9731"
       opacity="1"
       fill="none"
       stroke="#f45e58"
       stroke-width="1.84"
       stroke-opacity="1"
       stroke-linecap="round"
       stroke-linejoin="round"
       d="M -311.919,766.9 V 663.891 h 51.085 V 766.9 Z" />
    <path
       id="STROKE_e2c11947-83b3-4ba4-ae8b-5688c58a8ed0"
       opacity="1"
       fill="none"
       stroke="#f45e58"
       stroke-width="1.84"
       stroke-opacity="1"
       stroke-linecap="round"
       stroke-linejoin="round"
       d="m -189.564,789.408 q 0,-0.393 0,-0.323 0,-0.433 0,-0.417 0.003,-0.183 -0.035,-2.581 -0.037,-2.399 -0.064,-3.813 -0.027,-1.414 0.166,-2.181 0.192,-0.767 0.256,-1.049 0.063,-0.282 0.331,-0.779 0.267,-0.497 1.056,-0.703 0.788,-0.205 1.116,-0.207 0.328,-10e-4 0.774,0.072 0.446,0.073 3.385,1.028 2.939,0.955 4.476,1.546 1.537,0.59 2.735,0.838 1.197,0.249 2.178,0.52 0.982,0.272 1.459,0.437 0.478,0.166 0.657,0.291 0.179,0.126 0.267,0.209 0.087,0.084 0.057,0.05 -0.03,-0.034 -0.02,-0.027 0.01,0.007 -0.005,0.124 0.022,-0.01 -0.169,0.071 -0.191,0.08 -0.286,0.145" />
    <path
       id="STROKE_b564c10c-aec7-4a19-9e03-bf6a042d78cc"
       opacity="1"
       fill="none"
       stroke="#f45e58"
       stroke-width="1.799"
       stroke-opacity="1"
       stroke-linecap="round"
       stroke-linejoin="round"
       d="m -180.888,785.733 q 0,0 0.021,-0.041 0.021,-0.041 -0.033,0.048 -0.053,0.089 -0.137,-2.502 -0.083,-2.591 0.083,-4.931 0.165,-2.339 0.206,-2.565" />
    <path
       id="STROKE_567811f9-ab3f-47a1-9981-6a3c443d0710"
       opacity="1"
       fill="none"
       stroke="#f45e58"
       stroke-width="1.84"
       stroke-opacity="1"
       stroke-linecap="round"
       stroke-linejoin="round"
       d="m -171.801,770.944 q 0.044,-0.18 0.016,-0.147 -0.029,0.032 -0.033,-0.003 -0.004,-0.036 0.161,-0.206 0.164,-0.17 1.401,0.142 1.237,0.311 2.819,1.12 1.582,0.809 2.792,1.715 1.21,0.905 1.311,1.008" />
    <path
       id="STROKE_6f57d3a9-ef49-44fb-bd93-3b0485cd1826"
       opacity="1"
       fill="none"
       stroke="#f45e58"
       stroke-width="1.84"
       stroke-opacity="1"
       stroke-linecap="round"
       stroke-linejoin="round"
       d="m -188.063,757.175 q 0.055,-0.032 -0.163,0.168 -0.219,0.199 -0.349,0.181 -0.13,-0.019 -0.323,-0.125 -0.193,-0.105 -0.283,-0.248 -0.09,-0.143 -0.122,-0.188 -0.031,-0.046 -0.188,-0.257 -0.157,-0.212 -0.446,-0.917 -0.289,-0.705 -0.331,-1.444 -0.041,-0.739 -0.083,-1.448 -0.042,-0.709 0.274,-1.471 0.317,-0.763 0.753,-1.36 0.437,-0.596 1.283,-0.896 0.845,-0.301 1.388,-0.308 0.543,-0.008 0.814,0.005 0.272,0.012 0.845,0.335 0.573,0.323 1.202,1.11 0.629,0.787 0.991,1.796 0.363,1.009 -0.176,2.089 -0.267,0.009 -0.307,-1.199 -0.04,-1.209 0.134,-2.135 0.174,-0.926 0.499,-1.837 0.325,-0.912 1.01,-1.915 0.686,-1.004 1.397,-1.689 0.711,-0.685 1.523,-0.987 0.811,-0.301 1.446,-0.105 0.634,0.196 1.229,1.062 0.596,0.866 1.126,2.055 0.531,1.188 0.881,2.635 0.351,1.448 0.39,3.141 0.038,1.694 -0.132,2.474 -0.17,0.78 -0.242,0.864" />
    <path
       id="STROKE_12fe27ee-c5e1-4587-afc1-0cb93008d298"
       opacity="1"
       fill="none"
       stroke="#f45e58"
       stroke-width="1.84"
       stroke-opacity="1"
       stroke-linecap="round"
       stroke-linejoin="round"
       d="m -189.854,799.399 q 0,0.352 0,0.264 -0.025,0.312 0.327,0.592 0.352,0.28 2.226,1.483 1.873,1.203 3.598,2.446 1.726,1.244 2.71,2.058 0.984,0.814 1.809,1.63 -0.01,0 -0.082,0 0.209,-0.229 0.215,-0.207 0.227,0.019 1.955,-1.886 1.728,-1.904 2.755,-3.087 1.028,-1.183 1.528,-1.666 0.5,-0.482 0.852,-0.797 0.352,-0.314 0.453,-0.457 0.1,-0.144 0.185,-0.156 0.085,-0.011 0.179,-0.029 0.095,-0.018 0.169,-10e-4 0.074,0.016 0.157,0.039" />
    <path
       id="STROKE_b12011dc-13ee-45d3-9ee7-9942b2462a1a"
       opacity="1"
       fill="none"
       stroke="#f45e58"
       stroke-width="1.84"
       stroke-opacity="1"
       stroke-linecap="round"
       stroke-linejoin="round"
       d="m -188.867,731.755 q -0.117,-0.015 -0.115,-0.011 0.002,0.004 -0.1,0.032 -0.103,0.029 -0.2,0.065 -0.098,0.036 -0.069,0.017 h -0.01 q -0.029,0.01 -0.036,0.018 -0.007,0.007 0.047,-10e-4 0.054,-0.009 0.21,-0.102 0.155,-0.093 0.269,-0.168 0.114,-0.076 0.249,-0.182 0.134,-0.107 0.507,-0.367 0.372,-0.259 1.66,-1.353 1.288,-1.095 2.343,-2.376 1.055,-1.282 1.643,-2.227 0.588,-0.945 1.024,-2.516 0.046,0.369 0.082,0.349 0.13,0.189 0.09,0.125 -0.039,-0.064 0.093,0.17 0.132,0.234 0.649,0.798 0.517,0.564 1.172,1.085 0.654,0.52 1.088,0.828 0.434,0.308 2.255,1.623 1.821,1.315 4.481,4.335 0.002,-0.042 -0.004,-0.17 -0.006,-0.127 -0.015,-0.198" />
    <path
       id="STROKE_0542cf98-4f99-47b9-8267-ba4c900fef52"
       opacity="1"
       fill="none"
       stroke="#f45e58"
       stroke-width="1.84"
       stroke-opacity="1"
       stroke-linecap="round"
       stroke-linejoin="round"
       d="m -242.378,767.725 q -0.222,0.066 4.69,-0.084 4.911,-0.15 7.953,-0.127 3.041,0.022 4.452,0.115 1.412,0.093 3.094,0.249 1.682,0.156 2.745,0.217 1.063,0.06 2.309,0.085 1.246,0.024 1.944,0.317 0.699,0.293 0.752,0.377" />
    <path
       id="STROKE_a913f04a-688b-4756-9261-1a89582d48f8"
       opacity="1"
       fill="none"
       stroke="#f45e58"
       stroke-width="1.84"
       stroke-opacity="1"
       stroke-linecap="round"
       stroke-linejoin="round"
       d="m -214.933,772.032 q 0,0 0,0.005 0,0.005 0,0.034 0.115,0.094 2.314,-0.669 2.2,-0.764 3.432,-1.195 1.232,-0.432 1.812,-0.65 0.58,-0.219 0.853,-0.545 0.273,-0.327 -0.077,-0.763 -0.35,-0.435 -0.728,-0.735 -0.378,-0.301 -0.536,-0.372 -0.158,-0.072 -0.206,-0.086 -0.048,-0.014 -0.25,-0.172 -0.203,-0.159 -2.311,-1.104 -2.108,-0.945 -5.053,-2.069 -0.106,-0.12 -0.026,0.637 0.08,0.756 0.298,2.409 0.218,1.652 0.338,2.863 0.121,1.211 0.481,2.53 0.359,1.319 0.482,1.587" />
    <path
       id="STROKE_a7e033e8-63d2-4333-a806-95ab2be7be32"
       opacity="1"
       fill="none"
       stroke="#71c047"
       stroke-width="1.84"
       stroke-opacity="1"
       stroke-linecap="round"
       stroke-linejoin="round"
       d="m -180.68,704.976 q 0,0 0,0.005 0,0.005 0,0.015 -0.093,-0.443 -0.063,-0.352 -0.036,-0.136 0.052,-4.118 0.089,-3.981 0.075,-6.177 -0.013,-2.196 -0.019,-3.235 -0.005,-1.039 0.017,-3.601 0.023,-2.561 0.056,-3.945 0.033,-1.383 -0.077,-2.108 -0.11,-0.726 -0.206,-1.884 -0.017,-0.079 0.007,0.043 0.025,0.122 0.056,0.183" />
    <path
       id="STROKE_846d4dcc-8605-4322-bef4-1f59425c8dcf"
       opacity="1"
       fill="none"
       stroke="#71c047"
       stroke-width="1.84"
       stroke-opacity="1"
       stroke-linecap="round"
       stroke-linejoin="round"
       d="m -184.442,679.124 q -0.073,-0.16 0.084,-0.83 0.156,-0.67 0.725,-1.808 0.569,-1.138 1.027,-1.898 0.458,-0.761 0.784,-1.194 0.326,-0.433 0.817,-0.735 0.492,-0.302 0.865,-0.279 0.373,0.023 0.482,-0.017 0.108,-0.04 0.487,0.242 0.379,0.281 0.596,0.509 0.217,0.227 0.346,0.404 0.129,0.176 0.243,0.336 0.114,0.16 0.206,0.346 0.092,0.186 0.148,0.329 0.055,0.143 0.067,0.158 0.012,0.016 0.019,0.076 0.007,0.059 0.333,0.844 0.325,0.784 0.635,1.348 0.311,0.565 0.544,0.959 0.233,0.395 0.751,1.257 0.518,0.862 0.727,1.658 0,-0.01 0.063,-0.082 0.063,-0.073 0.126,-0.144" />
    <path
       id="STROKE_3c5b1c9a-4930-4b92-8c0d-1158400340d7"
       opacity="1"
       fill="none"
       stroke="#71c047"
       stroke-width="1.84"
       stroke-opacity="1"
       stroke-linecap="round"
       stroke-linejoin="round"
       d="m -189.269,644.214 q 0,0 -0.013,0.02 -0.014,0.02 -0.006,0.027 0.008,0.007 0.039,0.08 0.031,0.072 0.154,0.196 0.123,0.124 0.311,0.261 0.188,0.136 0.389,0.271 0.202,0.135 1.172,0.864 0.971,0.729 1.865,1.474 0.895,0.744 1.278,1.106 0.383,0.362 2.27,2.272 1.887,1.911 3.952,3.459 0.083,0.061 -0.071,-0.246 -0.155,-0.306 0.711,-1.323 0.865,-1.017 1.239,-1.413 0.373,-0.396 1.21,-1.372 0.837,-0.977 1.805,-2.163 0.968,-1.186 1.5,-1.806 0.532,-0.62 1.121,-1.075 0.589,-0.455 0.828,-0.668 0.239,-0.212 0.251,-0.254" />
    <path
       id="STROKE_30a18205-896b-4006-9d75-5cfc1b72531d"
       opacity="1"
       fill="none"
       stroke="#71c047"
       stroke-width="1.84"
       stroke-opacity="1"
       stroke-linecap="round"
       stroke-linejoin="round"
       d="m -185.139,638.324 q -0.017,-0.026 -0.087,-0.138 -0.071,-0.113 -0.073,-0.147 -0.002,-0.033 -0.116,-0.133 -0.114,-0.099 -0.401,-0.798 -0.287,-0.699 -0.376,-1.565 -0.089,-0.865 -0.021,-1.506 0.069,-0.641 0.306,-1.023 0.238,-0.382 0.835,-0.627 0.597,-0.244 1.148,-0.293 0.551,-0.049 1.513,0.417 0.961,0.467 2.557,1.951 1.596,1.483 2.752,2.602 1.156,1.119 1.803,1.66 0.647,0.54 1.082,0.759 0.436,0.22 0.908,0.197 0.473,-0.022 0.849,-0.261 0.377,-0.24 0.596,-0.805 0.218,-0.565 0.326,-1.437 0.107,-0.872 -0.249,-1.841 -0.357,-0.97 -0.809,-1.538 -0.452,-0.569 -0.735,-0.774 -0.283,-0.205 -0.645,-0.213 -0.362,-0.009 -0.703,-0.065 -0.34,-0.056 -0.843,0.285 -0.502,0.342 -0.821,0.545 -0.318,0.204 -1.272,1.867 -0.954,1.663 -1.391,2.643 -0.437,0.98 -0.935,1.614 -0.498,0.635 -1.011,0.991 -0.513,0.356 -1.188,0.442 -0.674,0.086 -1.52,-0.293 -0.846,-0.38 -1.383,-2.157 -0.537,-1.776 -0.629,-2.083" />
    <path
       id="STROKE_58883371-1ad7-4abb-8d2c-c8a8404fe7e6"
       opacity="1"
       fill="none"
       stroke="#71c047"
       stroke-width="1.84"
       stroke-opacity="1"
       stroke-linecap="round"
       stroke-linejoin="round"
       d="m -174.817,623.8 q -0.116,-0.132 1.781,0.558 1.897,0.69 3.391,1.472 1.495,0.783 2.434,1.321 0.94,0.538 1.885,0.87 0.944,0.332 1.16,0.416" />
    <path
       id="STROKE_39f6f818-c5ec-4226-adb4-5bf299e0b4a3"
       opacity="1"
       fill="none"
       stroke="#71c047"
       stroke-width="1.84"
       stroke-opacity="1"
       stroke-linecap="round"
       stroke-linejoin="round"
       d="m -185.754,613.97 q 0.011,-0.215 -0.15,-1.951 -0.16,-1.737 0.047,-3.267 0.207,-1.53 0.375,-2.271 0.168,-0.74 0.318,-1.104 0.15,-0.365 0.67,-0.514 0.521,-0.15 2.449,0.852 1.929,1.002 4.876,2.388 2.946,1.386 6.176,2.67 -0.021,0.062 -0.043,0.123" />
    <path
       id="STROKE_5c25499d-5688-43a1-ac27-bfdac68265bc"
       opacity="1"
       fill="none"
       stroke="#71c047"
       stroke-width="1.84"
       stroke-opacity="1"
       stroke-linecap="round"
       stroke-linejoin="round"
       d="m -179.237,611.897 q -0.062,-0.238 -0.016,-1.67 0.045,-1.432 0.265,-2.346 0.22,-0.915 0.473,-1.716 0.253,-0.8 0.386,-1.12" />
    <path
       id="STROKE_37ec6d1b-4656-49a4-bd3c-dddd1f138687"
       opacity="1"
       fill="none"
       stroke="#71c047"
       stroke-width="1.84"
       stroke-opacity="1"
       stroke-linecap="round"
       stroke-linejoin="round"
       d="m -188.673,594.214 q -0.051,0.14 0.337,-0.16 0.387,-0.3 1.205,-0.986 0.817,-0.686 1.791,-1.282 0.973,-0.597 3,-1.204 2.027,-0.607 4.294,-1.599 -0.228,0.237 2.146,2.561 2.373,2.324 3.592,3.564 1.219,1.239 1.884,1.816 0.666,0.577 1.179,1.004 -0.286,-0.098 -0.259,-0.104 -0.143,-0.08 -0.235,-0.142" />
    <path
       id="STROKE_843b2d3c-de73-45db-baf7-52a424c38de0"
       opacity="1"
       fill="none"
       stroke="#71c047"
       stroke-width="1.84"
       stroke-opacity="1"
       stroke-linecap="round"
       stroke-linejoin="round"
       d="m -243.119,612.074 q -0.221,0.066 4.69,-0.083 4.911,-0.15 7.953,-0.128 3.042,0.022 4.453,0.115 1.411,0.094 3.093,0.25 1.682,0.156 2.745,0.216 1.063,0.061 2.309,0.085 1.246,0.024 1.945,0.318 0.698,0.293 0.752,0.377" />
    <path
       id="STROKE_75f22bb3-4909-49ba-9d8a-4ef941931709"
       opacity="1"
       fill="none"
       stroke="#71c047"
       stroke-width="1.84"
       stroke-opacity="1"
       stroke-linecap="round"
       stroke-linejoin="round"
       d="m -215.673,616.382 q 0,0 0,0.005 0,0.005 0,0.034 0.114,0.094 2.314,-0.67 2.199,-0.763 3.431,-1.195 1.232,-0.431 1.812,-0.65 0.58,-0.218 0.853,-0.545 0.274,-0.327 -0.076,-0.762 -0.35,-0.436 -0.728,-0.736 -0.379,-0.3 -0.537,-0.372 -0.158,-0.071 -0.206,-0.085 -0.048,-0.014 -0.25,-0.173 -0.203,-0.158 -2.311,-1.104 -2.107,-0.945 -5.053,-2.069 -0.106,-0.12 -0.026,0.637 0.081,0.757 0.298,2.409 0.218,1.653 0.339,2.863 0.12,1.211 0.48,2.53 0.359,1.32 0.483,1.588" />
    <path
       id="STROKE_74f7df1f-a87d-4395-9cda-fde1d1f422f5"
       opacity="1"
       fill="none"
       stroke="#71c047"
       stroke-width="1.84"
       stroke-opacity="1"
       stroke-linecap="round"
       stroke-linejoin="round"
       d="m -178.226,584.241 q 0,0 -0.087,-0.089 -0.088,-0.088 -0.046,-0.089 -0.069,0.367 -0.115,-1.351 -0.046,-1.718 0.052,-3.368 0.098,-1.651 0.12,-3.856 0.023,-2.205 0.023,-3.333 0.001,-1.128 -0.032,-1.934 -0.033,-0.805 0.231,-3.708 0.009,0 0.019,0 0,0.009 0.021,0.045 0.02,0.035 0.061,0.097" />
    <path
       id="STROKE_a16b0506-30bf-431f-8678-4bd6480719a7"
       opacity="1"
       fill="none"
       stroke="#71c047"
       stroke-width="1.84"
       stroke-opacity="1"
       stroke-linecap="round"
       stroke-linejoin="round"
       d="m -182.709,566.616 q 0.04,-0.054 -0.058,0.245 0.114,-0.309 0.112,-0.245 0.393,-0.604 1.284,-1.682 0.891,-1.078 1.285,-1.66 0.394,-0.582 0.715,-0.844 0.32,-0.263 0.637,-0.354 0.318,-0.092 1.454,1.084 1.137,1.176 2.058,2.228 0.921,1.051 1.308,1.474 0.387,0.422 0.418,0.432" />
    <path
       id="STROKE_e9be9d03-849f-405a-8664-dc083cae35d2"
       opacity="1"
       fill="none"
       stroke="#71c047"
       stroke-width="1.84"
       stroke-opacity="1"
       stroke-linecap="round"
       stroke-linejoin="round"
       d="m -187.361,540.281 q 0,0 -0.014,0.02 -0.013,0.021 -0.005,0.027 0.008,0.007 0.038,0.08 0.031,0.073 0.155,0.197 0.123,0.124 0.311,0.26 0.187,0.137 0.389,0.271 0.201,0.135 1.172,0.865 0.97,0.729 1.865,1.473 0.894,0.744 1.277,1.106 0.383,0.362 2.27,2.273 1.888,1.91 3.953,3.458 0.083,0.061 -0.072,-0.245 -0.154,-0.307 0.711,-1.324 0.866,-1.016 1.239,-1.412 0.373,-0.396 1.211,-1.373 0.837,-0.977 1.805,-2.163 0.968,-1.186 1.5,-1.806 0.532,-0.62 1.12,-1.074 0.589,-0.455 0.828,-0.668 0.239,-0.213 0.251,-0.255" />
    <path
       id="STROKE_f6c11109-4e6a-4b2e-b160-675fbb41d997"
       opacity="1"
       fill="none"
       stroke="#71c047"
       stroke-width="1.84"
       stroke-opacity="1"
       stroke-linecap="round"
       stroke-linejoin="round"
       d="m -183.232,534.391 q -0.016,-0.026 -0.087,-0.138 -0.071,-0.112 -0.073,-0.146 -0.002,-0.034 -0.116,-0.133 -0.114,-0.1 -0.401,-0.799 -0.286,-0.699 -0.376,-1.565 -0.089,-0.865 -0.02,-1.506 0.068,-0.641 0.306,-1.023 0.237,-0.382 0.834,-0.627 0.598,-0.244 1.148,-0.293 0.551,-0.049 1.513,0.418 0.962,0.466 2.558,1.95 1.596,1.483 2.751,2.602 1.156,1.12 1.803,1.66 0.647,0.541 1.083,0.76 0.435,0.219 0.908,0.196 0.472,-0.022 0.849,-0.261 0.376,-0.239 0.595,-0.804 0.219,-0.566 0.326,-1.438 0.108,-0.872 -0.249,-1.841 -0.356,-0.97 -0.809,-1.538 -0.452,-0.569 -0.735,-0.774 -0.283,-0.205 -0.645,-0.213 -0.362,-0.009 -0.702,-0.065 -0.34,-0.056 -0.843,0.286 -0.503,0.341 -0.821,0.545 -0.319,0.203 -1.273,1.866 -0.953,1.664 -1.39,2.643 -0.437,0.98 -0.935,1.615 -0.498,0.634 -1.012,0.99 -0.513,0.356 -1.187,0.442 -0.674,0.086 -1.521,-0.293 -0.846,-0.379 -1.383,-2.156 -0.536,-1.777 -0.628,-2.084" />
    <path
       id="STROKE_1c8f4a84-6a64-4276-8171-ab77bbe44ee7"
       opacity="1"
       fill="none"
       stroke="#71c047"
       stroke-width="1.84"
       stroke-opacity="1"
       stroke-linecap="round"
       stroke-linejoin="round"
       d="m -172.91,519.867 q -0.116,-0.132 1.781,0.558 1.897,0.69 3.392,1.473 1.495,0.782 2.434,1.32 0.939,0.538 1.884,0.87 0.945,0.332 1.16,0.416" />
    <path
       id="STROKE_00b019a2-48d4-4aed-a5ba-414b26e9b019"
       opacity="1"
       fill="none"
       stroke="#71c047"
       stroke-width="1.84"
       stroke-opacity="1"
       stroke-linecap="round"
       stroke-linejoin="round"
       d="m -183.846,510.037 q 0.01,-0.214 -0.15,-1.951 -0.16,-1.736 0.047,-3.267 0.207,-1.53 0.374,-2.27 0.168,-0.741 0.318,-1.105 0.15,-0.364 0.671,-0.514 0.52,-0.15 2.449,0.852 1.929,1.002 4.875,2.388 2.947,1.387 6.177,2.671 -0.022,0.061 -0.044,0.122" />
    <path
       id="STROKE_b10d8971-f32a-4e95-b56b-da07b3a03b16"
       opacity="1"
       fill="none"
       stroke="#71c047"
       stroke-width="1.84"
       stroke-opacity="1"
       stroke-linecap="round"
       stroke-linejoin="round"
       d="m -177.33,507.964 q -0.062,-0.238 -0.016,-1.67 0.046,-1.431 0.266,-2.346 0.219,-0.915 0.473,-1.715 0.253,-0.801 0.386,-1.121" />
    <path
       id="STROKE_1807ed23-449d-45e4-bcc3-ac801c40b9c4"
       opacity="1"
       fill="none"
       stroke="#71c047"
       stroke-width="1.84"
       stroke-opacity="1"
       stroke-linecap="round"
       stroke-linejoin="round"
       d="m -186.766,490.282 q -0.051,0.139 0.337,-0.161 0.388,-0.3 1.205,-0.986 0.818,-0.686 1.791,-1.282 0.974,-0.597 3.001,-1.204 2.027,-0.607 4.293,-1.599 -0.227,0.237 2.146,2.561 2.374,2.325 3.593,3.564 1.218,1.239 1.884,1.816 0.665,0.577 1.179,1.004 -0.286,-0.098 -0.259,-0.103 -0.143,-0.081 -0.235,-0.142" />
    <path
       id="STROKE_e542fae2-2899-4a58-a108-64f473f7fa99"
       opacity="1"
       fill="none"
       stroke="#71c047"
       stroke-width="1.84"
       stroke-opacity="1"
       stroke-linecap="round"
       stroke-linejoin="round"
       d="m -241.211,508.141 q -0.222,0.066 4.689,-0.083 4.912,-0.15 7.953,-0.128 3.042,0.022 4.453,0.116 1.411,0.093 3.093,0.249 1.682,0.156 2.745,0.217 1.064,0.06 2.31,0.084 1.246,0.025 1.944,0.318 0.699,0.293 0.752,0.377" />
    <path
       id="STROKE_1db84b54-3498-43bd-ae30-c20e66c7af42"
       opacity="1"
       fill="none"
       stroke="#71c047"
       stroke-width="1.84"
       stroke-opacity="1"
       stroke-linecap="round"
       stroke-linejoin="round"
       d="m -213.766,512.449 q 0,0 0,0.005 0,0.005 0,0.034 0.115,0.094 2.314,-0.67 2.2,-0.763 3.432,-1.194 1.232,-0.432 1.812,-0.65 0.58,-0.219 0.853,-0.546 0.273,-0.326 -0.077,-0.762 -0.35,-0.435 -0.728,-0.736 -0.378,-0.3 -0.536,-0.371 -0.158,-0.072 -0.206,-0.086 -0.048,-0.014 -0.251,-0.173 -0.202,-0.158 -2.31,-1.103 -2.108,-0.946 -5.053,-2.069 -0.107,-0.12 -0.026,0.636 0.08,0.757 0.298,2.409 0.218,1.653 0.338,2.864 0.121,1.21 0.48,2.53 0.36,1.319 0.483,1.587" />
    <path
       id="STROKE_5eb17c86-2b45-4329-8e4f-16c073ae43a0"
       opacity="1"
       fill="none"
       stroke="#71c047"
       stroke-width="1.84"
       stroke-opacity="1"
       stroke-linecap="round"
       stroke-linejoin="round"
       d="m -176.318,480.308 q 0,0 -0.088,-0.089 -0.088,-0.088 -0.045,-0.089 -0.07,0.367 -0.116,-1.351 -0.046,-1.718 0.052,-3.368 0.098,-1.65 0.121,-3.856 0.022,-2.205 0.023,-3.333 0.001,-1.128 -0.032,-1.933 -0.033,-0.806 0.23,-3.709 0.01,0 0.019,0 0,0.01 0.021,0.045 0.021,0.036 0.062,0.097" />
    <path
       id="STROKE_2e508d5e-733d-4484-ba87-121c3100fd37"
       opacity="1"
       fill="none"
       stroke="#71c047"
       stroke-width="1.84"
       stroke-opacity="1"
       stroke-linecap="round"
       stroke-linejoin="round"
       d="m -180.801,462.683 q 0.039,-0.054 -0.058,0.246 0.113,-0.31 0.111,-0.246 0.393,-0.604 1.285,-1.682 0.891,-1.077 1.285,-1.659 0.394,-0.583 0.714,-0.845 0.321,-0.262 0.638,-0.354 0.317,-0.092 1.454,1.085 1.136,1.176 2.057,2.227 0.921,1.051 1.308,1.474 0.387,0.423 0.419,0.432" />
    <path
       id="STROKE_e8f35f29-9fb5-4eaa-b08c-4c5d6c3b64a0"
       opacity="1"
       fill="none"
       stroke="#71c047"
       stroke-width="1.84"
       stroke-opacity="1"
       stroke-linecap="round"
       stroke-linejoin="round"
       d="m -188.368,436.775 q 0,0 -0.014,0.02 -0.013,0.02 -0.005,0.027 0.008,0.007 0.039,0.079 0.03,0.073 0.154,0.197 0.123,0.124 0.311,0.261 0.187,0.136 0.389,0.271 0.201,0.135 1.172,0.864 0.97,0.729 1.865,1.474 0.894,0.744 1.277,1.106 0.383,0.362 2.27,2.272 1.888,1.911 3.953,3.459 0.083,0.061 -0.072,-0.246 -0.154,-0.307 0.711,-1.323 0.866,-1.017 1.239,-1.413 0.373,-0.396 1.211,-1.373 0.837,-0.976 1.805,-2.162 0.968,-1.186 1.5,-1.806 0.532,-0.62 1.12,-1.075 0.589,-0.455 0.828,-0.668 0.239,-0.213 0.251,-0.255" />
    <path
       id="STROKE_43a221ce-013d-4e37-9a9e-f0d903280e4f"
       opacity="1"
       fill="none"
       stroke="#71c047"
       stroke-width="1.84"
       stroke-opacity="1"
       stroke-linecap="round"
       stroke-linejoin="round"
       d="m -183.604,406.059 q -0.017,-0.026 -0.088,-0.138 -0.07,-0.113 -0.072,-0.146 -0.003,-0.034 -0.117,-0.134 -0.114,-0.099 -0.4,-0.798 -0.287,-0.699 -0.376,-1.565 -0.09,-0.865 -0.021,-1.506 0.069,-0.641 0.306,-1.023 0.237,-0.382 0.835,-0.627 0.597,-0.244 1.148,-0.293 0.55,-0.049 1.512,0.418 0.962,0.466 2.558,1.95 1.596,1.483 2.752,2.602 1.155,1.119 1.802,1.66 0.647,0.541 1.083,0.76 0.435,0.219 0.908,0.196 0.472,-0.022 0.849,-0.261 0.377,-0.239 0.595,-0.805 0.219,-0.565 0.326,-1.437 0.108,-0.872 -0.249,-1.841 -0.356,-0.97 -0.808,-1.538 -0.452,-0.569 -0.735,-0.774 -0.283,-0.205 -0.646,-0.213 -0.362,-0.009 -0.702,-0.065 -0.34,-0.056 -0.843,0.286 -0.503,0.341 -0.821,0.545 -0.318,0.203 -1.272,1.866 -0.954,1.664 -1.391,2.643 -0.437,0.98 -0.935,1.615 -0.498,0.634 -1.011,0.99 -0.514,0.356 -1.188,0.442 -0.674,0.086 -1.52,-0.293 -0.847,-0.379 -1.383,-2.156 -0.537,-1.777 -0.629,-2.084" />
    <path
       id="STROKE_1762c4cb-9987-4258-8ba3-822e82653a59"
       opacity="1"
       fill="none"
       stroke="#71c047"
       stroke-width="1.84"
       stroke-opacity="1"
       stroke-linecap="round"
       stroke-linejoin="round"
       d="m -173.917,416.36 q -0.116,-0.132 1.781,0.558 1.897,0.691 3.392,1.473 1.494,0.783 2.434,1.321 0.939,0.538 1.884,0.87 0.945,0.331 1.16,0.415" />
    <path
       id="STROKE_e0ff6a45-2eb2-4e87-8a9c-7cc0315c6c40"
       opacity="1"
       fill="none"
       stroke="#71c047"
       stroke-width="1.84"
       stroke-opacity="1"
       stroke-linecap="round"
       stroke-linejoin="round"
       d="m -187.773,386.775 q -0.051,0.139 0.337,-0.16 0.388,-0.3 1.205,-0.986 0.818,-0.686 1.791,-1.283 0.974,-0.596 3.001,-1.203 2.027,-0.607 4.293,-1.599 -0.227,0.237 2.146,2.561 2.374,2.324 3.593,3.563 1.218,1.24 1.884,1.817 0.665,0.576 1.179,1.004 -0.286,-0.098 -0.259,-0.104 -0.143,-0.081 -0.235,-0.142" />
    <path
       id="STROKE_282e1750-cf7f-4800-9cba-6f86eb867fa1"
       opacity="1"
       fill="none"
       stroke="#71c047"
       stroke-width="1.84"
       stroke-opacity="1"
       stroke-linecap="round"
       stroke-linejoin="round"
       d="m -242.218,404.635 q -0.222,0.066 4.689,-0.084 4.912,-0.149 7.953,-0.127 3.042,0.022 4.453,0.115 1.411,0.093 3.093,0.249 1.682,0.157 2.745,0.217 1.064,0.06 2.31,0.085 1.246,0.024 1.944,0.317 0.699,0.294 0.752,0.377" />
    <path
       id="STROKE_a046f0d5-b182-414e-b7f2-f58f2da30dec"
       opacity="1"
       fill="none"
       stroke="#71c047"
       stroke-width="1.84"
       stroke-opacity="1"
       stroke-linecap="round"
       stroke-linejoin="round"
       d="m -214.773,408.943 q 0,0 0,0.004 0,0.005 0,0.034 0.115,0.094 2.314,-0.669 2.2,-0.764 3.432,-1.195 1.232,-0.431 1.812,-0.65 0.58,-0.218 0.853,-0.545 0.273,-0.327 -0.077,-0.762 -0.35,-0.436 -0.728,-0.736 -0.378,-0.301 -0.536,-0.372 -0.158,-0.071 -0.206,-0.086 -0.048,-0.014 -0.251,-0.172 -0.202,-0.159 -2.31,-1.104 -2.108,-0.945 -5.053,-2.069 -0.107,-0.12 -0.026,0.637 0.08,0.756 0.298,2.409 0.218,1.652 0.338,2.863 0.121,1.211 0.48,2.53 0.36,1.32 0.483,1.588" />
    <path
       id="STROKE_babbdcd1-2470-4bcb-9c6a-0a284f4102c6"
       opacity="1"
       fill="none"
       stroke="#71c047"
       stroke-width="1.84"
       stroke-opacity="1"
       stroke-linecap="round"
       stroke-linejoin="round"
       d="m -177.325,376.801 q 0,0 -0.088,-0.088 -0.088,-0.089 -0.045,-0.089 -0.07,0.367 -0.116,-1.352 -0.046,-1.718 0.052,-3.368 0.098,-1.65 0.121,-3.855 0.022,-2.205 0.023,-3.333 10e-4,-1.129 -0.032,-1.934 -0.033,-0.805 0.23,-3.709 0.01,0 0.019,0 0,0.01 0.021,0.046 0.021,0.035 0.062,0.096" />
    <path
       id="STROKE_65f9dc9c-78f1-4c11-97f6-20e95a5ae38e"
       opacity="1"
       fill="none"
       stroke="#71c047"
       stroke-width="1.84"
       stroke-opacity="1"
       stroke-linecap="round"
       stroke-linejoin="round"
       d="m -181.808,359.177 q 0.039,-0.055 -0.058,0.245 0.113,-0.309 0.111,-0.245 0.393,-0.604 1.284,-1.682 0.892,-1.078 1.286,-1.66 0.394,-0.582 0.714,-0.844 0.321,-0.263 0.638,-0.355 0.317,-0.091 1.454,1.085 1.136,1.176 2.057,2.227 0.921,1.051 1.308,1.474 0.387,0.423 0.419,0.433" />
    <path
       id="STROKE_70bd9d0c-31b0-45c0-b0b9-38f2ccf64957"
       opacity="1"
       fill="none"
       stroke="#71c047"
       stroke-width="1.84"
       stroke-opacity="1"
       stroke-linecap="round"
       stroke-linejoin="round"
       d="m -184.892,425.001 h -0.01 q -0.045,-0.146 -0.266,0.458 -0.221,0.604 -0.265,1.033 -0.043,0.43 0.014,0.843 0.058,0.414 0.301,0.686 0.244,0.273 0.213,0.237 -0.03,-0.036 0.007,0.062 0.037,0.098 0.631,0.53 0.595,0.431 1.296,0.658 0.702,0.226 1.364,0.227 0.663,10e-4 1.214,-0.127 0.552,-0.129 0.937,-0.526 0.385,-0.396 0.53,-0.832 0.145,-0.436 0.159,-0.76 0.014,-0.325 -0.002,-0.443 -0.015,-0.119 -0.089,-0.61 -0.074,-0.491 -0.889,-1.171 -0.814,-0.68 -1.399,-0.994 -0.585,-0.313 -1.1,-0.423 -0.515,-0.109 -0.754,-0.131 -0.24,-0.022 -0.42,0.141 -0.181,0.163 -0.187,1.235 0.224,0.016 0.218,0.01 0.167,0.187 1.612,-0.455 1.445,-0.643 2.245,-1.077 0.801,-0.434 1.652,-0.851 0.851,-0.416 1.628,-0.64 0.776,-0.223 1.33,-0.258 0.555,-0.034 1.363,0.63 0.808,0.665 1.385,1.323 0.576,0.659 1.125,1.552 0.549,0.893 0.64,3.263 -0.229,0.098 -0.423,0.051 -0.195,-0.047 -0.35,-0.089" />
    <path
       id="STROKE_5ddab264-7d86-4a87-8e67-11deb5bb9546"
       opacity="1"
       fill="none"
       stroke="#71c047"
       stroke-width="1.84"
       stroke-opacity="1"
       stroke-linecap="round"
       stroke-linejoin="round"
       d="m -188.368,436.775 q 0,0 -0.014,0.02 -0.013,0.02 -0.005,0.027 0.008,0.007 0.039,0.079 0.03,0.073 0.154,0.197 0.123,0.124 0.311,0.261 0.187,0.136 0.389,0.271 0.201,0.135 1.172,0.864 0.97,0.729 1.865,1.474 0.894,0.744 1.277,1.106 0.383,0.362 2.27,2.272 1.888,1.911 3.953,3.459 0.083,0.061 -0.072,-0.246 -0.154,-0.307 0.711,-1.323 0.866,-1.017 1.239,-1.413 0.373,-0.396 1.211,-1.373 0.837,-0.976 1.805,-2.162 0.968,-1.186 1.5,-1.806 0.532,-0.62 1.12,-1.075 0.589,-0.455 0.828,-0.668 0.239,-0.213 0.251,-0.255" />
    <path
       id="STROKE_cf118f32-54cd-4a63-9e4f-f8d9155cc842"
       opacity="1"
       fill="none"
       stroke="#71c047"
       stroke-width="1.84"
       stroke-opacity="1"
       stroke-linecap="round"
       stroke-linejoin="round"
       d="m -183.604,406.059 q -0.017,-0.026 -0.088,-0.138 -0.07,-0.113 -0.072,-0.146 -0.003,-0.034 -0.117,-0.134 -0.114,-0.099 -0.4,-0.798 -0.287,-0.699 -0.376,-1.565 -0.09,-0.865 -0.021,-1.506 0.069,-0.641 0.306,-1.023 0.237,-0.382 0.835,-0.627 0.597,-0.244 1.148,-0.293 0.55,-0.049 1.512,0.418 0.962,0.466 2.558,1.95 1.596,1.483 2.752,2.602 1.155,1.119 1.802,1.66 0.647,0.541 1.083,0.76 0.435,0.219 0.908,0.196 0.472,-0.022 0.849,-0.261 0.377,-0.239 0.595,-0.805 0.219,-0.565 0.326,-1.437 0.108,-0.872 -0.249,-1.841 -0.356,-0.97 -0.808,-1.538 -0.452,-0.569 -0.735,-0.774 -0.283,-0.205 -0.646,-0.213 -0.362,-0.009 -0.702,-0.065 -0.34,-0.056 -0.843,0.286 -0.503,0.341 -0.821,0.545 -0.318,0.203 -1.272,1.866 -0.954,1.664 -1.391,2.643 -0.437,0.98 -0.935,1.615 -0.498,0.634 -1.011,0.99 -0.514,0.356 -1.188,0.442 -0.674,0.086 -1.52,-0.293 -0.847,-0.379 -1.383,-2.156 -0.537,-1.777 -0.629,-2.084" />
    <path
       id="STROKE_6cc35b08-ed5a-48ab-85ba-7c303dea0278"
       opacity="1"
       fill="none"
       stroke="#71c047"
       stroke-width="1.84"
       stroke-opacity="1"
       stroke-linecap="round"
       stroke-linejoin="round"
       d="m -173.917,416.36 q -0.116,-0.132 1.781,0.558 1.897,0.691 3.392,1.473 1.494,0.783 2.434,1.321 0.939,0.538 1.884,0.87 0.945,0.331 1.16,0.415" />
    <path
       id="STROKE_321daac6-0800-4b12-9601-df3ee63e1cbd"
       opacity="1"
       fill="none"
       stroke="#71c047"
       stroke-width="1.84"
       stroke-opacity="1"
       stroke-linecap="round"
       stroke-linejoin="round"
       d="m -187.773,386.775 q -0.051,0.139 0.337,-0.16 0.388,-0.3 1.205,-0.986 0.818,-0.686 1.791,-1.283 0.974,-0.596 3.001,-1.203 2.027,-0.607 4.293,-1.599 -0.227,0.237 2.146,2.561 2.374,2.324 3.593,3.563 1.218,1.24 1.884,1.817 0.665,0.576 1.179,1.004 -0.286,-0.098 -0.259,-0.104 -0.143,-0.081 -0.235,-0.142" />
    <path
       id="STROKE_42c65912-c439-4cc8-90aa-e81f4be3c661"
       opacity="1"
       fill="none"
       stroke="#71c047"
       stroke-width="1.84"
       stroke-opacity="1"
       stroke-linecap="round"
       stroke-linejoin="round"
       d="m -184.892,425.001 h -0.01 q -0.045,-0.146 -0.266,0.458 -0.221,0.604 -0.265,1.033 -0.043,0.43 0.014,0.843 0.058,0.414 0.301,0.686 0.244,0.273 0.213,0.237 -0.03,-0.036 0.007,0.062 0.037,0.098 0.631,0.53 0.595,0.431 1.296,0.658 0.702,0.226 1.364,0.227 0.663,10e-4 1.214,-0.127 0.552,-0.129 0.937,-0.526 0.385,-0.396 0.53,-0.832 0.145,-0.436 0.159,-0.76 0.014,-0.325 -0.002,-0.443 -0.015,-0.119 -0.089,-0.61 -0.074,-0.491 -0.889,-1.171 -0.814,-0.68 -1.399,-0.994 -0.585,-0.313 -1.1,-0.423 -0.515,-0.109 -0.754,-0.131 -0.24,-0.022 -0.42,0.141 -0.181,0.163 -0.187,1.235 0.224,0.016 0.218,0.01 0.167,0.187 1.612,-0.455 1.445,-0.643 2.245,-1.077 0.801,-0.434 1.652,-0.851 0.851,-0.416 1.628,-0.64 0.776,-0.223 1.33,-0.258 0.555,-0.034 1.363,0.63 0.808,0.665 1.385,1.323 0.576,0.659 1.125,1.552 0.549,0.893 0.64,3.263 -0.229,0.098 -0.423,0.051 -0.195,-0.047 -0.35,-0.089" />
    <path
       id="STROKE_0cb05986-00e2-4f83-a041-6b3e9920216a"
       opacity="1"
       fill="none"
       stroke="#71c047"
       stroke-width="1.84"
       stroke-opacity="1"
       stroke-linecap="round"
       stroke-linejoin="round"
       d="m -188.305,331.731 q 0,0 -0.014,0.02 -0.014,0.02 -0.005,0.027 0.008,0.007 0.038,0.08 0.031,0.073 0.154,0.197 0.124,0.124 0.312,0.26 0.187,0.137 0.389,0.271 0.201,0.135 1.171,0.864 0.971,0.73 1.866,1.474 0.894,0.744 1.277,1.106 0.383,0.362 2.27,2.273 1.888,1.91 3.953,3.458 0.083,0.061 -0.072,-0.245 -0.154,-0.307 0.711,-1.324 0.866,-1.017 1.239,-1.413 0.373,-0.396 1.211,-1.372 0.837,-0.977 1.805,-2.163 0.968,-1.186 1.499,-1.806 0.532,-0.62 1.121,-1.074 0.589,-0.455 0.828,-0.668 0.239,-0.213 0.251,-0.255" />
    <path
       id="STROKE_6f552c9f-230e-4cde-bb50-9123375f720d"
       opacity="1"
       fill="none"
       stroke="#71c047"
       stroke-width="1.84"
       stroke-opacity="1"
       stroke-linecap="round"
       stroke-linejoin="round"
       d="m -183.541,301.016 q -0.017,-0.026 -0.088,-0.139 -0.07,-0.112 -0.073,-0.146 -0.002,-0.034 -0.116,-0.133 -0.114,-0.1 -0.4,-0.799 -0.287,-0.699 -0.376,-1.564 -0.09,-0.866 -0.021,-1.507 0.069,-0.641 0.306,-1.023 0.237,-0.382 0.835,-0.626 0.597,-0.245 1.148,-0.294 0.55,-0.048 1.512,0.418 0.962,0.467 2.558,1.95 1.596,1.484 2.751,2.603 1.156,1.119 1.803,1.659 0.647,0.541 1.083,0.76 0.435,0.219 0.908,0.197 0.472,-0.023 0.849,-0.262 0.377,-0.239 0.595,-0.804 0.219,-0.565 0.326,-1.437 0.108,-0.872 -0.249,-1.842 -0.356,-0.969 -0.808,-1.538 -0.453,-0.568 -0.735,-0.773 -0.283,-0.205 -0.646,-0.214 -0.362,-0.008 -0.702,-0.064 -0.34,-0.056 -0.843,0.285 -0.503,0.341 -0.821,0.545 -0.319,0.204 -1.272,1.867 -0.954,1.663 -1.391,2.643 -0.437,0.98 -0.935,1.614 -0.498,0.635 -1.011,0.99 -0.514,0.356 -1.188,0.442 -0.674,0.087 -1.521,-0.293 -0.846,-0.379 -1.382,-2.156 -0.537,-1.777 -0.629,-2.084" />
    <path
       id="STROKE_1b5023ea-5c4f-4ae6-b35a-2562ced69c3f"
       opacity="1"
       fill="none"
       stroke="#71c047"
       stroke-width="1.84"
       stroke-opacity="1"
       stroke-linecap="round"
       stroke-linejoin="round"
       d="m -173.854,311.317 q -0.116,-0.132 1.781,0.558 1.897,0.69 3.392,1.472 1.494,0.783 2.434,1.321 0.939,0.538 1.884,0.87 0.945,0.332 1.16,0.416" />
    <path
       id="STROKE_34aa273f-00a6-440d-b51a-ed709b30b973"
       opacity="1"
       fill="none"
       stroke="#71c047"
       stroke-width="1.84"
       stroke-opacity="1"
       stroke-linecap="round"
       stroke-linejoin="round"
       d="m -187.71,281.732 q -0.051,0.139 0.337,-0.161 0.388,-0.3 1.205,-0.986 0.818,-0.686 1.791,-1.282 0.974,-0.597 3.001,-1.204 2.027,-0.607 4.293,-1.599 -0.227,0.237 2.146,2.561 2.374,2.324 3.593,3.564 1.218,1.239 1.884,1.816 0.665,0.577 1.178,1.004 -0.285,-0.098 -0.259,-0.103 -0.142,-0.081 -0.234,-0.142" />
    <path
       id="STROKE_1d9e306b-ae00-4869-8478-e3da4ff76a98"
       opacity="1"
       fill="none"
       stroke="#71c047"
       stroke-width="1.84"
       stroke-opacity="1"
       stroke-linecap="round"
       stroke-linejoin="round"
       d="m -242.155,299.591 q -0.222,0.066 4.689,-0.083 4.912,-0.15 7.953,-0.128 3.042,0.022 4.453,0.115 1.411,0.094 3.093,0.25 1.682,0.156 2.745,0.216 1.063,0.061 2.309,0.085 1.246,0.024 1.945,0.318 0.699,0.293 0.752,0.377" />
    <path
       id="STROKE_82c4561d-d7a3-476e-b038-58a7e17eb56a"
       opacity="1"
       fill="none"
       stroke="#71c047"
       stroke-width="1.84"
       stroke-opacity="1"
       stroke-linecap="round"
       stroke-linejoin="round"
       d="m -214.71,303.899 q 0,0 0,0.005 0,0.005 0,0.034 0.115,0.094 2.314,-0.67 2.2,-0.763 3.432,-1.195 1.232,-0.431 1.812,-0.649 0.58,-0.219 0.853,-0.546 0.273,-0.327 -0.077,-0.762 -0.35,-0.436 -0.728,-0.736 -0.378,-0.3 -0.536,-0.372 -0.158,-0.071 -0.206,-0.085 -0.048,-0.014 -0.251,-0.173 -0.203,-0.158 -2.31,-1.104 -2.108,-0.945 -5.053,-2.068 -0.107,-0.12 -0.026,0.636 0.08,0.757 0.298,2.409 0.217,1.653 0.338,2.864 0.121,1.21 0.48,2.53 0.36,1.319 0.483,1.587" />
    <path
       id="STROKE_01117728-62c6-4ecc-a9f0-dedc4f8cdf4e"
       opacity="1"
       fill="none"
       stroke="#71c047"
       stroke-width="1.84"
       stroke-opacity="1"
       stroke-linecap="round"
       stroke-linejoin="round"
       d="m -184.829,319.957 h -0.01 q -0.046,-0.145 -0.266,0.458 -0.221,0.604 -0.265,1.034 -0.043,0.429 0.014,0.843 0.057,0.413 0.301,0.686 0.244,0.272 0.213,0.236 -0.03,-0.036 0.007,0.063 0.036,0.098 0.631,0.529 0.595,0.432 1.296,0.658 0.702,0.226 1.364,0.227 0.663,0.001 1.214,-0.127 0.552,-0.128 0.937,-0.525 0.385,-0.397 0.53,-0.833 0.145,-0.435 0.159,-0.76 0.013,-0.324 -0.002,-0.443 -0.015,-0.118 -0.089,-0.609 -0.074,-0.491 -0.889,-1.172 -0.814,-0.68 -1.399,-0.993 -0.585,-0.314 -1.1,-0.423 -0.515,-0.11 -0.754,-0.132 -0.24,-0.022 -0.42,0.141 -0.181,0.164 -0.187,1.236 0.224,0.016 0.218,0.009 0.167,0.188 1.612,-0.455 1.445,-0.643 2.245,-1.077 0.801,-0.434 1.652,-0.85 0.851,-0.417 1.628,-0.64 0.776,-0.224 1.33,-0.258 0.555,-0.035 1.363,0.63 0.808,0.664 1.385,1.323 0.576,0.658 1.125,1.551 0.549,0.894 0.64,3.264 -0.229,0.098 -0.423,0.05 -0.195,-0.047 -0.35,-0.089" />
    <path
       id="STROKE_66a503ad-5368-4d65-bae0-dc5ad1a64b83"
       opacity="1"
       fill="none"
       stroke="#71c047"
       stroke-width="1.84"
       stroke-opacity="1"
       stroke-linecap="round"
       stroke-linejoin="round"
       d="m -188.305,331.731 q 0,0 -0.014,0.02 -0.014,0.02 -0.005,0.027 0.008,0.007 0.038,0.08 0.031,0.073 0.154,0.197 0.124,0.124 0.312,0.26 0.187,0.137 0.389,0.271 0.201,0.135 1.171,0.864 0.971,0.73 1.866,1.474 0.894,0.744 1.277,1.106 0.383,0.362 2.27,2.273 1.888,1.91 3.953,3.458 0.083,0.061 -0.072,-0.245 -0.154,-0.307 0.711,-1.324 0.866,-1.017 1.239,-1.413 0.373,-0.396 1.211,-1.372 0.837,-0.977 1.805,-2.163 0.968,-1.186 1.499,-1.806 0.532,-0.62 1.121,-1.074 0.589,-0.455 0.828,-0.668 0.239,-0.213 0.251,-0.255" />
    <path
       id="STROKE_472687ea-325a-4dec-b09d-afac7e90fb3a"
       opacity="1"
       fill="none"
       stroke="#71c047"
       stroke-width="1.84"
       stroke-opacity="1"
       stroke-linecap="round"
       stroke-linejoin="round"
       d="m -183.541,301.016 q -0.017,-0.026 -0.088,-0.139 -0.07,-0.112 -0.073,-0.146 -0.002,-0.034 -0.116,-0.133 -0.114,-0.1 -0.4,-0.799 -0.287,-0.699 -0.376,-1.564 -0.09,-0.866 -0.021,-1.507 0.069,-0.641 0.306,-1.023 0.237,-0.382 0.835,-0.626 0.597,-0.245 1.148,-0.294 0.55,-0.048 1.512,0.418 0.962,0.467 2.558,1.95 1.596,1.484 2.751,2.603 1.156,1.119 1.803,1.659 0.647,0.541 1.083,0.76 0.435,0.219 0.908,0.197 0.472,-0.023 0.849,-0.262 0.377,-0.239 0.595,-0.804 0.219,-0.565 0.326,-1.437 0.108,-0.872 -0.249,-1.842 -0.356,-0.969 -0.808,-1.538 -0.453,-0.568 -0.735,-0.773 -0.283,-0.205 -0.646,-0.214 -0.362,-0.008 -0.702,-0.064 -0.34,-0.056 -0.843,0.285 -0.503,0.341 -0.821,0.545 -0.319,0.204 -1.272,1.867 -0.954,1.663 -1.391,2.643 -0.437,0.98 -0.935,1.614 -0.498,0.635 -1.011,0.99 -0.514,0.356 -1.188,0.442 -0.674,0.087 -1.521,-0.293 -0.846,-0.379 -1.382,-2.156 -0.537,-1.777 -0.629,-2.084" />
    <path
       id="STROKE_d88ce915-af1f-42de-8f1a-9a784b4dad38"
       opacity="1"
       fill="none"
       stroke="#71c047"
       stroke-width="1.84"
       stroke-opacity="1"
       stroke-linecap="round"
       stroke-linejoin="round"
       d="m -173.854,311.317 q -0.116,-0.132 1.781,0.558 1.897,0.69 3.392,1.472 1.494,0.783 2.434,1.321 0.939,0.538 1.884,0.87 0.945,0.332 1.16,0.416" />
    <path
       id="STROKE_4fdc4e96-fe6c-472b-8877-b868414957ce"
       opacity="1"
       fill="none"
       stroke="#71c047"
       stroke-width="1.84"
       stroke-opacity="1"
       stroke-linecap="round"
       stroke-linejoin="round"
       d="m -187.71,281.732 q -0.051,0.139 0.337,-0.161 0.388,-0.3 1.205,-0.986 0.818,-0.686 1.791,-1.282 0.974,-0.597 3.001,-1.204 2.027,-0.607 4.293,-1.599 -0.227,0.237 2.146,2.561 2.374,2.324 3.593,3.564 1.218,1.239 1.884,1.816 0.665,0.577 1.178,1.004 -0.285,-0.098 -0.259,-0.103 -0.142,-0.081 -0.234,-0.142" />
    <path
       id="STROKE_fdde0f23-8e24-42dd-a5c9-cded9be3cfe4"
       opacity="1"
       fill="none"
       stroke="#71c047"
       stroke-width="1.84"
       stroke-opacity="1"
       stroke-linecap="round"
       stroke-linejoin="round"
       d="m -184.829,319.957 h -0.01 q -0.046,-0.145 -0.266,0.458 -0.221,0.604 -0.265,1.034 -0.043,0.429 0.014,0.843 0.057,0.413 0.301,0.686 0.244,0.272 0.213,0.236 -0.03,-0.036 0.007,0.063 0.036,0.098 0.631,0.529 0.595,0.432 1.296,0.658 0.702,0.226 1.364,0.227 0.663,0.001 1.214,-0.127 0.552,-0.128 0.937,-0.525 0.385,-0.397 0.53,-0.833 0.145,-0.435 0.159,-0.76 0.013,-0.324 -0.002,-0.443 -0.015,-0.118 -0.089,-0.609 -0.074,-0.491 -0.889,-1.172 -0.814,-0.68 -1.399,-0.993 -0.585,-0.314 -1.1,-0.423 -0.515,-0.11 -0.754,-0.132 -0.24,-0.022 -0.42,0.141 -0.181,0.164 -0.187,1.236 0.224,0.016 0.218,0.009 0.167,0.188 1.612,-0.455 1.445,-0.643 2.245,-1.077 0.801,-0.434 1.652,-0.85 0.851,-0.417 1.628,-0.64 0.776,-0.224 1.33,-0.258 0.555,-0.035 1.363,0.63 0.808,0.664 1.385,1.323 0.576,0.658 1.125,1.551 0.549,0.894 0.64,3.264 -0.229,0.098 -0.423,0.05 -0.195,-0.047 -0.35,-0.089" />
  </g>
  <metadata
     id="metadata897">
    <rdf:RDF>
      <cc:Work
         rdf:about="">
        <dc:title>Random blog drawings</dc:title>
      </cc:Work>
    </rdf:RDF>
  </metadata>
</svg>
