<?xml version="1.0" encoding="UTF-8" standalone="no"?>
<svg
   width="123.84117mm"
   height="38.991051mm"
   version="1.1"
   viewBox="-535.485 239.919 643.58006 202.63045"
   id="svg30"
   sodipodi:docname="input_array.svg"
   inkscape:version="1.1.2 (0a00cf5339, 2022-02-04, custom)"
   xmlns:inkscape="http://www.inkscape.org/namespaces/inkscape"
   xmlns:sodipodi="http://sodipodi.sourceforge.net/DTD/sodipodi-0.dtd"
   xmlns="http://www.w3.org/2000/svg"
   xmlns:svg="http://www.w3.org/2000/svg"
   xmlns:rdf="http://www.w3.org/1999/02/22-rdf-syntax-ns#"
   xmlns:cc="http://creativecommons.org/ns#"
   xmlns:dc="http://purl.org/dc/elements/1.1/">
  <sodipodi:namedview
     id="namedview32"
     pagecolor="#ffffff"
     bordercolor="#666666"
     borderopacity="1.0"
     inkscape:pageshadow="2"
     inkscape:pageopacity="0.0"
     inkscape:pagecheckerboard="0"
     inkscape:document-units="mm"
     showgrid="false"
     fit-margin-top="5"
     fit-margin-bottom="5"
     fit-margin-left="2"
     fit-margin-right="2"
     inkscape:zoom="1.5516882"
     inkscape:cx="273.57301"
     inkscape:cy="73.46837"
     inkscape:current-layer="svg30" />
  <!--
	Exported with Concepts: Smarter Sketching
	Version: 1055 on iOS 15.3
	https://concepts.app/
	-->
  <title
     id="title2">Random blog drawings</title>
  <desc
     id="desc4">Drawing exported from Concepts: Smarter Sketching</desc>
  <defs
     id="defs6" />
  <g
     id="Pen"
     opacity="1"
     transform="rotate(90,-224.71648,569.50575)">
    <path
       id="STROKE_a6af6bcc-bde2-45c2-bf96-1a6a8e7e8e11"
       opacity="1"
       fill="none"
       stroke="#000000"
       stroke-width="1.57"
       stroke-opacity="1"
       stroke-linecap="round"
       stroke-linejoin="round"
       d="m -512.351,831.763 q -0.089,0.268 -0.081,0.223 -0.026,0.058 -0.073,0.141 h -0.008 q 0.1,0.062 -0.218,-2.671 -0.318,-2.733 -0.534,-4.309 -0.215,-1.576 -0.443,-3.559 -0.229,-1.983 -0.332,-3.081 -0.102,-1.098 -0.079,-2.369 0.023,-1.27 0.039,-1.968 0.015,-0.698 0.21,-1.271 0.194,-0.573 0.522,-1.148 0.328,-0.575 0.801,-0.832 0.473,-0.256 1.088,-0.306 0.616,-0.051 1.732,-0.139 1.117,-0.089 4.406,0.828 3.29,0.916 4.991,1.492 1.701,0.575 2.501,0.86 0.8,0.285 2.414,0.878 1.614,0.593 4.114,1.643 2.5,1.051 3.959,1.676 1.459,0.625 2.556,1.123 -0.041,0.004 -0.451,-0.099 -0.411,-0.102 -0.627,-0.186" />
    <path
       id="STROKE_c0254407-429d-4750-aecb-d0619178c41a"
       opacity="1"
       fill="none"
       stroke="#000000"
       stroke-width="1.563"
       stroke-opacity="1"
       stroke-linecap="round"
       stroke-linejoin="round"
       d="m -501.325,824.994 q -0.241,-0.045 -0.519,-2.938 -0.278,-2.893 -0.536,-4.863 -0.258,-1.971 -0.539,-5.855 -0.282,-3.885 -0.324,-4.126" />
    <path
       id="STROKE_8945fcf4-c7f6-4809-87c7-0467d302f7a3"
       opacity="1"
       fill="none"
       stroke="#000000"
       stroke-width="1.84"
       stroke-opacity="1"
       stroke-linecap="round"
       stroke-linejoin="round"
       d="m -508.831,720.104 q -0.219,0.204 -0.579,0.297 -0.36,0.093 -0.566,-0.042 -0.206,-0.135 -0.392,-0.383 -0.186,-0.248 -0.357,-0.5 -0.171,-0.253 -0.496,-0.859 -0.325,-0.607 -0.602,-1.622 -0.278,-1.015 -0.352,-1.872 -0.074,-0.857 0.01,-1.853 0.084,-0.997 0.476,-1.962 0.392,-0.964 0.942,-1.69 0.549,-0.725 0.939,-1.086 0.39,-0.36 0.953,-0.676 0.562,-0.315 1.281,-0.398 0.718,-0.082 1.184,-0.074 0.467,0.007 0.854,0.174 0.388,0.168 0.985,0.601 0.596,0.433 1.191,1.268 0.594,0.835 1.123,1.953 0.529,1.118 0.91,3.548 -0.089,0.088 0.044,-1.206 0.132,-1.293 0.266,-2.023 0.133,-0.729 0.623,-1.888 0.49,-1.158 0.907,-1.803 0.417,-0.645 0.823,-1.211 0.405,-0.565 1.205,-1.371 0.801,-0.805 1.72,-1.38 0.919,-0.575 1.803,-0.874 0.883,-0.3 1.555,-0.462 0.672,-0.162 1.418,-0.135 0.746,0.027 1.145,0.092 0.399,0.065 1.064,0.441 0.665,0.375 1.344,1.233 0.679,0.858 1.229,2.121 0.55,1.264 0.782,2.234 0.232,0.969 0.353,1.8 0.121,0.83 0.15,1.336 0.029,0.507 0.047,0.742 0.018,0.236 0.07,1.242 0.052,1.006 -0.079,2.144 -0.13,1.139 -0.707,3.176 -0.577,2.037 -0.65,2.292" />
    <path
       id="STROKE_4b696fbb-4bc8-4936-bc96-a4bd5e35cbe7"
       opacity="1"
       fill="none"
       stroke="#000000"
       stroke-width="1.815"
       stroke-opacity="1"
       stroke-linecap="round"
       stroke-linejoin="round"
       d="m -511.368,506.217 q 0.034,-0.151 10e-4,0.505 -0.034,0.656 0.252,1.347 0.287,0.691 1.292,1.567 1.004,0.877 2.661,1.73 1.657,0.854 3.188,1.414 1.531,0.561 3.334,0.772 1.803,0.211 2.978,0.15 1.175,-0.061 1.744,-0.14 0.568,-0.08 1.552,-0.401 0.983,-0.32 1.96,-0.914 0.976,-0.594 1.874,-1.535 0.897,-0.941 1.706,-2.293 0.81,-1.351 1.216,-2.242 0.406,-0.892 0.51,-1.732 0.104,-0.84 0.008,-1.481 -0.096,-0.641 -0.725,-1.68 -0.628,-1.038 -1.41,-1.867 -0.783,-0.83 -2.558,-1.896 -1.774,-1.066 -3.123,-1.675 -1.349,-0.609 -2.359,-0.908 -1.01,-0.299 -1.925,-0.414 -0.914,-0.116 -1.546,-0.123 -0.632,-0.006 -1.779,-0.042 -1.148,-0.036 -2.294,0.152 -1.145,0.189 -2.064,0.55 -0.918,0.361 -1.673,0.803 -0.755,0.442 -1.54,1.199 -0.785,0.756 -1.359,1.917 -0.573,1.16 -0.888,2.075 -0.315,0.915 -0.503,2.274 -0.189,1.359 -0.088,2.439 0.1,1.08 0.227,1.595 0.127,0.516 0.506,1.663 0.378,1.147 1.508,2.41 1.131,1.264 1.454,1.563" />
    <path
       id="STROKE_c3e0bafd-6aa5-438e-9a6c-dc55763af6b5"
       opacity="1"
       fill="none"
       stroke="#000000"
       stroke-width="1.839"
       stroke-opacity="1"
       stroke-linecap="round"
       stroke-linejoin="round"
       d="m -517.106,287.327 q 0,0 0,0.11 0,0.11 0,0.126 0,0.016 0,-0.004 0.092,0.34 0.072,0.27 -0.019,-0.069 -0.017,0.008 0.002,0.078 0.055,0.117 0.053,0.038 0.112,1.671 0.059,1.633 0.014,3.085 -0.044,1.452 -0.24,2.98 -0.196,1.528 -0.188,2.507 0.007,0.979 0.048,1.454 0.041,0.476 0.344,1.789 0.303,1.314 0.461,1.989 0.157,0.675 0.274,0.951 0.117,0.276 0.186,0.371 0.069,0.096 0.082,0.072 0.012,-0.025 -0.032,-0.002 -0.044,0.023 0.38,0.062 0.423,0.038 1.346,0.041 0.922,0.004 1.905,-0.15 0.982,-0.154 1.828,-0.332 0.846,-0.177 1.565,-0.291 0.719,-0.114 1.303,-0.206 0.585,-0.092 1.361,-0.2 0.777,-0.108 5.946,-1.024 0.017,0.055 -0.633,-0.055 -0.65,-0.11 -1.182,-0.446 -0.532,-0.336 -0.932,-0.739 -0.401,-0.403 -0.665,-1.278 -0.264,-0.876 -0.286,-2.013 -0.023,-1.136 0.103,-2.086 0.126,-0.95 0.339,-1.693 0.212,-0.742 0.67,-1.807 0.459,-1.065 1.315,-1.99 0.856,-0.925 1.404,-1.409 0.548,-0.483 1.35,-0.939 0.801,-0.455 1.694,-0.764 0.893,-0.309 2.059,-0.436 1.165,-0.126 2.38,0 1.214,0.126 2.273,0.514 1.058,0.388 1.82,0.766 0.761,0.378 1.446,1.116 0.684,0.737 1.163,1.617 0.479,0.88 0.596,2.585 0.117,1.705 0.04,3.931 -0.077,2.226 -0.052,3.684 0.025,1.457 10e-4,2.83 -0.023,1.372 -0.014,2.211 0.01,0.838 -0.234,1.269 -0.244,0.431 -0.335,0.539" />
    <path
       id="STROKE_546000bd-6628-4e93-bf31-71508ab7fe71"
       opacity="1"
       fill="none"
       stroke="#000000"
       stroke-width="1.824"
       stroke-opacity="1"
       stroke-linecap="round"
       stroke-linejoin="round"
       d="m -513.631,397.386 q 0.008,-0.099 -0.304,-0.041 -0.311,0.057 -0.474,0.017 -0.162,-0.041 -0.3,0.156 -0.138,0.196 -0.209,0.35 -0.071,0.154 -0.192,0.791 -0.12,0.637 0.013,1.777 0.133,1.141 0.542,2.151 0.41,1.01 0.782,1.759 0.373,0.75 0.845,1.516 0.472,0.766 1.144,1.514 0.671,0.749 1.6,1.281 0.929,0.533 1.986,0.668 1.057,0.135 1.983,0.159 0.926,0.024 1.825,-0.733 0.9,-0.757 1.454,-1.504 0.555,-0.746 0.848,-1.613 0.292,-0.866 0.312,-1.705 0.019,-0.838 -0.368,-1.66 -0.388,-0.821 -1.204,-1.965 -0.816,-1.144 -1.472,-1.913 -0.655,-0.77 -1.559,-1.276 -0.905,-0.506 -1.839,-0.781 -0.934,-0.275 -1.75,-0.352 -0.816,-0.076 -1.67,0.101 -0.854,0.177 -1.583,0.734 0.154,0.138 1.34,0.243 1.186,0.105 3.128,-0.432 1.941,-0.536 3.542,-0.957 1.601,-0.42 2.437,-0.586 0.836,-0.166 2.205,-0.48 1.369,-0.314 3.958,-0.903 2.59,-0.589 3.932,-1.003 1.343,-0.414 3.374,-0.604 2.03,-0.191 3.014,-0.164 0.984,0.027 1.372,-0.003 0.388,-0.029 0.761,0.074 0.373,0.104 0.492,0.497 0.119,0.393 0.065,1.477 -0.055,1.085 -0.51,2.704 -0.455,1.62 -0.664,4.142 -0.208,2.522 -0.179,5.067 0.029,2.545 0.02,2.609" />
    <path
       id="STROKE_be883fa7-2ac6-45b9-b9bb-572f09651a1b"
       opacity="1"
       fill="none"
       stroke="#000000"
       stroke-width="1.826"
       stroke-opacity="1"
       stroke-linecap="round"
       stroke-linejoin="round"
       d="m -509.183,616.405 q -0.102,0.025 -0.555,0.269 -0.453,0.244 -0.879,0.01 -0.426,-0.234 -0.929,-1.424 -0.502,-1.191 -0.719,-1.915 -0.217,-0.724 -0.446,-2.309 -0.228,-1.586 -0.268,-2.732 -0.041,-1.147 -0.06,-2.168 -0.02,-1.021 0.234,-1.952 0.255,-0.93 0.658,-1.631 0.404,-0.7 1.068,-1.214 0.664,-0.514 1.354,-0.743 0.689,-0.228 1.267,-0.053 0.577,0.174 0.998,0.512 0.42,0.338 1.246,1.176 0.826,0.838 2.023,2.716 1.198,1.878 1.842,2.99 0.645,1.111 1.168,1.998 0.523,0.887 0.922,1.543 0.399,0.656 1.341,2.075 0.942,1.418 2.104,2.664 1.161,1.246 2.123,2.022 0.963,0.775 1.565,1.1 0.602,0.324 1.041,0.519 0.439,0.194 1.007,0.199 0.569,0.004 0.912,-0.025 0.343,-0.029 0.703,-0.209 0.36,-0.18 0.797,-0.597 0.437,-0.417 0.875,-1.046 0.439,-0.63 0.683,-1.678 0.245,-1.049 0.271,-2.277 0.025,-1.228 -0.056,-2.085 -0.08,-0.857 -0.241,-1.453 -0.16,-0.597 -0.244,-1.211 -0.083,-0.615 -0.72,-2.345 -0.637,-1.73 -1.084,-2.684 -0.446,-0.953 -0.732,-1.524 -0.287,-0.57 -0.873,-1.395 -0.586,-0.825 -1.05,-1.395 -0.464,-0.57 -1.137,-0.821 -0.673,-0.251 -1.411,-0.264 -0.739,-0.012 -1.488,0.429 -0.749,0.441 -1.77,1.475 -1.022,1.035 -1.987,2.435 -0.965,1.399 -1.487,2.511 -0.522,1.113 -0.854,1.974 -0.332,0.861 -0.978,2.464 -0.647,1.602 -1.448,3.123 -0.801,1.521 -1.704,2.573 -0.903,1.053 -1.399,1.573 -0.496,0.521 -1.049,0.857 -0.553,0.336 -1.29,0.471 -0.736,0.134 -1.365,0.062 -0.629,-0.071 -1.274,-0.524 -0.645,-0.452 -1.309,-1.693 -0.663,-1.241 -0.958,-1.812" />
    <path
       id="STROKE_110ea373-76f2-4ec9-a295-f35a3fa3bd57"
       opacity="1"
       fill="none"
       stroke="#f45e58"
       stroke-width="1.84"
       stroke-opacity="1"
       stroke-linecap="round"
       stroke-linejoin="round"
       d="m -527.185,868.961 v -103.01 l 51.085,10e-4 v 103.009 z" />
    <path
       id="STROKE_d001a398-d420-47a6-9f3f-5ec3da65beb1"
       opacity="1"
       fill="none"
       stroke="#000000"
       stroke-width="1.84"
       stroke-opacity="1"
       stroke-linecap="round"
       stroke-linejoin="round"
       d="m -527.281,661.864 v -103.01 h 51.084 v 103.01 z" />
    <path
       id="STROKE_759315da-6665-4a25-9188-1344d01fdc4d"
       opacity="1"
       fill="none"
       stroke="#000000"
       stroke-width="1.84"
       stroke-opacity="1"
       stroke-linecap="round"
       stroke-linejoin="round"
       d="M -527.399,557.89 V 454.881 h 51.085 V 557.89 Z" />
    <path
       id="STROKE_300c62b5-fa8e-4675-970a-b5bd0f88b0f3"
       opacity="1"
       fill="none"
       stroke="#000000"
       stroke-width="1.84"
       stroke-opacity="1"
       stroke-linecap="round"
       stroke-linejoin="round"
       d="M -527.257,454.455 V 351.446 h 51.084 v 103.009 z" />
    <path
       id="STROKE_c3e60de2-c699-4ad1-96f5-6162e96a9b68"
       opacity="1"
       fill="none"
       stroke="#000000"
       stroke-width="1.84"
       stroke-opacity="1"
       stroke-linecap="round"
       stroke-linejoin="round"
       d="M -526.888,351.014 V 248.005 h 51.085 v 103.009 z" />
    <path
       id="STROKE_1cde39a9-13f8-4aca-bfee-6a5f9d515ea2"
       opacity="1"
       fill="none"
       stroke="#f45e58"
       stroke-width="1.84"
       stroke-opacity="1"
       stroke-linecap="round"
       stroke-linejoin="round"
       d="M -527.163,765.229 V 662.22 h 51.085 v 103.009 z" />
    <path
       id="STROKE_1e301ed4-befc-40a8-87fa-d70e20c1fb96"
       opacity="1"
       fill="none"
       stroke="#f45e58"
       stroke-width="1.84"
       stroke-opacity="1"
       stroke-linecap="round"
       stroke-linejoin="round"
       d="m -404.807,787.737 q 0,-0.393 0,-0.323 0,-0.433 0,-0.417 0.002,-0.183 -0.035,-2.581 -0.037,-2.399 -0.064,-3.813 -0.027,-1.415 0.165,-2.181 0.193,-0.767 0.256,-1.049 0.064,-0.282 0.331,-0.779 0.268,-0.497 1.056,-0.703 0.789,-0.205 1.117,-0.207 0.327,-10e-4 0.773,0.072 0.446,0.073 3.385,1.028 2.939,0.955 4.477,1.546 1.537,0.59 2.734,0.838 1.198,0.248 2.179,0.52 0.981,0.271 1.459,0.437 0.477,0.166 0.656,0.291 0.179,0.126 0.267,0.209 0.088,0.084 0.058,0.05 -0.03,-0.034 -0.02,-0.027 0.01,0.007 -0.005,0.123 0.022,-0.009 -0.17,0.071 -0.191,0.081 -0.285,0.146" />
    <path
       id="STROKE_1ad11824-7f9d-4d1f-91d5-accc21d1871a"
       opacity="1"
       fill="none"
       stroke="#f45e58"
       stroke-width="1.799"
       stroke-opacity="1"
       stroke-linecap="round"
       stroke-linejoin="round"
       d="m -396.132,784.062 q 0,0 0.021,-0.041 0.022,-0.041 -0.032,0.048 -0.054,0.089 -0.137,-2.502 -0.083,-2.591 0.082,-4.931 0.165,-2.339 0.207,-2.565" />
    <path
       id="STROKE_abebb9e4-8830-493b-9295-24608649bb06"
       opacity="1"
       fill="none"
       stroke="#f45e58"
       stroke-width="1.84"
       stroke-opacity="1"
       stroke-linecap="round"
       stroke-linejoin="round"
       d="m -387.045,769.272 q 0.045,-0.179 0.016,-0.147 -0.028,0.033 -0.032,-0.003 -0.004,-0.035 0.16,-0.205 0.165,-0.17 1.402,0.142 1.237,0.311 2.819,1.12 1.582,0.809 2.792,1.714 1.209,0.906 1.311,1.009" />
    <path
       id="STROKE_066d10f6-a0aa-46c1-a0fa-17a39fd73fab"
       opacity="1"
       fill="none"
       stroke="#f45e58"
       stroke-width="1.84"
       stroke-opacity="1"
       stroke-linecap="round"
       stroke-linejoin="round"
       d="m -403.307,755.503 q 0.055,-0.031 -0.163,0.169 -0.218,0.199 -0.348,0.18 -0.13,-0.018 -0.323,-0.124 -0.194,-0.105 -0.284,-0.248 -0.09,-0.143 -0.121,-0.188 -0.031,-0.046 -0.189,-0.257 -0.157,-0.212 -0.446,-0.917 -0.289,-0.705 -0.33,-1.444 -0.042,-0.739 -0.084,-1.448 -0.041,-0.709 0.275,-1.472 0.317,-0.762 0.753,-1.359 0.436,-0.597 1.282,-0.897 0.846,-0.3 1.389,-0.308 0.542,-0.007 0.814,0.005 0.272,0.013 0.845,0.336 0.573,0.323 1.202,1.11 0.629,0.787 0.991,1.795 0.362,1.009 -0.177,2.09 -0.266,0.009 -0.306,-1.2 -0.04,-1.208 0.134,-2.134 0.174,-0.926 0.499,-1.837 0.324,-0.912 1.01,-1.916 0.685,-1.004 1.396,-1.688 0.712,-0.685 1.523,-0.987 0.812,-0.301 1.447,-0.105 0.634,0.196 1.229,1.062 0.595,0.866 1.126,2.054 0.53,1.188 0.881,2.636 0.351,1.448 0.389,3.141 0.038,1.693 -0.131,2.474 -0.17,0.78 -0.243,0.864" />
    <path
       id="STROKE_3da21a47-73c5-46e6-a210-39c6334bb489"
       opacity="1"
       fill="none"
       stroke="#f45e58"
       stroke-width="1.84"
       stroke-opacity="1"
       stroke-linecap="round"
       stroke-linejoin="round"
       d="m -405.098,797.727 q 0,0.353 0,0.265 -0.024,0.312 0.328,0.592 0.352,0.28 2.225,1.483 1.874,1.203 3.599,2.446 1.725,1.243 2.71,2.058 0.984,0.814 1.808,1.63 -0.009,0 -0.082,0 0.21,-0.23 0.216,-0.207 0.227,0.018 1.955,-1.886 1.727,-1.904 2.755,-3.087 1.028,-1.183 1.528,-1.666 0.5,-0.483 0.852,-0.797 0.352,-0.314 0.452,-0.458 0.101,-0.143 0.186,-0.155 0.084,-0.011 0.179,-0.029 0.094,-0.018 0.168,-0.001 0.075,0.016 0.157,0.038" />
    <path
       id="STROKE_0e575361-fb0c-4c50-bf7d-8922886800cc"
       opacity="1"
       fill="none"
       stroke="#f45e58"
       stroke-width="1.84"
       stroke-opacity="1"
       stroke-linecap="round"
       stroke-linejoin="round"
       d="m -404.11,730.084 q -0.117,-0.015 -0.115,-0.011 0.001,0.004 -0.101,0.032 -0.102,0.029 -0.2,0.065 -0.098,0.036 -0.068,0.017 h -0.01 q -0.029,0.01 -0.036,0.017 -0.007,0.008 0.047,-10e-4 0.054,-0.008 0.209,-0.101 0.156,-0.093 0.27,-0.168 0.114,-0.076 0.248,-0.183 0.134,-0.107 0.507,-0.366 0.373,-0.259 1.661,-1.354 1.287,-1.094 2.343,-2.375 1.055,-1.282 1.643,-2.227 0.587,-0.945 1.023,-2.516 0.047,0.369 0.083,0.349 0.129,0.189 0.09,0.125 -0.039,-0.064 0.093,0.17 0.132,0.234 0.649,0.798 0.517,0.564 1.171,1.084 0.655,0.521 1.088,0.829 0.434,0.308 2.255,1.623 1.821,1.315 4.482,4.335 0.002,-0.042 -0.004,-0.17 -0.006,-0.127 -0.016,-0.198" />
    <path
       id="STROKE_0c928751-d728-4ec6-9649-ad374a7764b6"
       opacity="1"
       fill="none"
       stroke="#f45e58"
       stroke-width="1.84"
       stroke-opacity="1"
       stroke-linecap="round"
       stroke-linejoin="round"
       d="m -457.621,766.054 q -0.222,0.065 4.689,-0.084 4.912,-0.15 7.953,-0.128 3.042,0.023 4.453,0.116 1.411,0.093 3.093,0.249 1.682,0.156 2.745,0.217 1.063,0.06 2.309,0.084 1.246,0.025 1.945,0.318 0.699,0.293 0.752,0.377" />
    <path
       id="STROKE_0ea1b667-6a6a-4640-9c8a-1ae87f0f7487"
       opacity="1"
       fill="none"
       stroke="#f45e58"
       stroke-width="1.84"
       stroke-opacity="1"
       stroke-linecap="round"
       stroke-linejoin="round"
       d="m -430.176,770.361 q 0,0 0,0.005 0,0.005 0,0.034 0.115,0.094 2.314,-0.67 2.199,-0.763 3.432,-1.194 1.232,-0.432 1.812,-0.65 0.58,-0.219 0.853,-0.546 0.273,-0.326 -0.077,-0.762 -0.35,-0.435 -0.728,-0.736 -0.378,-0.3 -0.536,-0.371 -0.158,-0.072 -0.206,-0.086 -0.048,-0.014 -0.251,-0.173 -0.203,-0.158 -2.31,-1.103 -2.108,-0.946 -5.053,-2.069 -0.107,-0.12 -0.026,0.636 0.08,0.757 0.298,2.409 0.217,1.653 0.338,2.864 0.121,1.21 0.48,2.53 0.36,1.319 0.483,1.587" />
  </g>
  <metadata
     id="metadata849">
    <rdf:RDF>
      <cc:Work
         rdf:about="">
        <dc:title>Random blog drawings</dc:title>
      </cc:Work>
    </rdf:RDF>
  </metadata>
</svg>
