<?xml version="1.0" encoding="UTF-8" standalone="no"?>
<svg
   width="123.84053mm"
   height="77.125175mm"
   version="1.1"
   viewBox="189.347 238.133 643.58348 400.80799"
   id="svg69"
   sodipodi:docname="reduce.svg"
   inkscape:version="1.1.2 (0a00cf5339, 2022-02-04, custom)"
   xmlns:inkscape="http://www.inkscape.org/namespaces/inkscape"
   xmlns:sodipodi="http://sodipodi.sourceforge.net/DTD/sodipodi-0.dtd"
   xmlns="http://www.w3.org/2000/svg"
   xmlns:svg="http://www.w3.org/2000/svg"
   xmlns:rdf="http://www.w3.org/1999/02/22-rdf-syntax-ns#"
   xmlns:cc="http://creativecommons.org/ns#"
   xmlns:dc="http://purl.org/dc/elements/1.1/">
  <sodipodi:namedview
     id="namedview71"
     pagecolor="#ffffff"
     bordercolor="#666666"
     borderopacity="1.0"
     inkscape:pageshadow="2"
     inkscape:pageopacity="0.0"
     inkscape:pagecheckerboard="0"
     inkscape:document-units="mm"
     showgrid="false"
     fit-margin-top="5"
     fit-margin-left="2"
     fit-margin-right="2"
     fit-margin-bottom="5"
     inkscape:zoom="1.5530182"
     inkscape:cx="234.38231"
     inkscape:cy="145.52309"
     inkscape:current-layer="svg69" />
  <!--
	Exported with Concepts: Smarter Sketching
	Version: 1055 on iOS 15.3
	https://concepts.app/
	-->
  <title
     id="title2">Random blog drawings</title>
  <desc
     id="desc4">Drawing exported from Concepts: Smarter Sketching</desc>
  <defs
     id="defs6" />
  <g
     id="Pen"
     opacity="1"
     transform="rotate(90,499.84338,567.71936)">
    <path
       id="STROKE_5e156cc6-63fc-40da-8515-dea8c0a69e57"
       opacity="1"
       fill="none"
       stroke="#000000"
       stroke-width="1.57"
       stroke-opacity="1"
       stroke-linecap="round"
       stroke-linejoin="round"
       d="m 212.208,829.705 q -0.088,0.268 -0.08,0.222 -0.027,0.059 -0.073,0.141 h -0.008 q 0.099,0.063 -0.219,-2.67 -0.318,-2.734 -0.533,-4.309 -0.215,-1.576 -0.444,-3.559 -0.229,-1.984 -0.331,-3.082 -0.103,-1.098 -0.08,-2.368 0.023,-1.271 0.039,-1.968 0.016,-0.698 0.21,-1.271 0.195,-0.573 0.523,-1.148 0.328,-0.575 0.801,-0.832 0.472,-0.257 1.088,-0.307 0.615,-0.05 1.732,-0.139 1.116,-0.089 4.406,0.828 3.289,0.917 4.99,1.492 1.701,0.575 2.501,0.861 0.801,0.285 2.414,0.878 1.614,0.593 4.114,1.643 2.5,1.05 3.959,1.675 1.459,0.626 2.557,1.124 -0.041,0.003 -0.452,-0.099 -0.411,-0.102 -0.627,-0.186" />
    <path
       id="STROKE_84a71e0e-b489-4b87-88d6-4eaa2fc27bab"
       opacity="1"
       fill="none"
       stroke="#000000"
       stroke-width="1.563"
       stroke-opacity="1"
       stroke-linecap="round"
       stroke-linejoin="round"
       d="m 223.234,822.935 q -0.24,-0.044 -0.519,-2.937 -0.278,-2.893 -0.535,-4.864 -0.258,-1.97 -0.54,-5.855 -0.281,-3.885 -0.323,-4.125" />
    <path
       id="STROKE_527a4bee-9590-417d-acca-ad7626a496af"
       opacity="1"
       fill="none"
       stroke="#000000"
       stroke-width="1.84"
       stroke-opacity="1"
       stroke-linecap="round"
       stroke-linejoin="round"
       d="m 215.729,718.046 q -0.22,0.204 -0.58,0.297 -0.359,0.092 -0.565,-0.043 -0.206,-0.135 -0.392,-0.383 -0.186,-0.247 -0.357,-0.5 -0.171,-0.252 -0.496,-0.859 -0.326,-0.607 -0.603,-1.621 -0.277,-1.015 -0.351,-1.872 -0.074,-0.857 0.01,-1.854 0.084,-0.996 0.476,-1.961 0.392,-0.965 0.941,-1.69 0.55,-0.726 0.94,-1.086 0.39,-0.361 0.952,-0.676 0.563,-0.316 1.281,-0.398 0.719,-0.082 1.185,-0.075 0.466,0.007 0.854,0.175 0.388,0.167 0.984,0.6 0.596,0.433 1.191,1.268 0.595,0.836 1.124,1.954 0.528,1.118 0.91,3.548 -0.09,0.087 0.043,-1.206 0.133,-1.294 0.266,-2.023 0.133,-0.73 0.624,-1.888 0.49,-1.159 0.907,-1.804 0.417,-0.645 0.822,-1.21 0.405,-0.566 1.206,-1.371 0.8,-0.806 1.72,-1.381 0.919,-0.574 1.802,-0.874 0.883,-0.299 1.555,-0.461 0.672,-0.163 1.418,-0.136 0.746,0.027 1.146,0.093 0.399,0.065 1.064,0.44 0.664,0.376 1.344,1.234 0.679,0.857 1.229,2.121 0.549,1.263 0.782,2.233 0.232,0.97 0.353,1.8 0.121,0.83 0.15,1.337 0.028,0.506 0.047,0.742 0.018,0.235 0.069,1.241 0.052,1.006 -0.078,2.145 -0.13,1.138 -0.708,3.175 -0.577,2.037 -0.65,2.293" />
    <path
       id="STROKE_46de8eda-a830-4420-8b56-b3d94994c635"
       opacity="1"
       fill="none"
       stroke="#000000"
       stroke-width="1.815"
       stroke-opacity="1"
       stroke-linecap="round"
       stroke-linejoin="round"
       d="m 213.192,504.159 q 0.034,-0.152 0,0.504 -0.034,0.657 0.253,1.348 0.286,0.69 1.291,1.567 1.005,0.876 2.661,1.73 1.657,0.853 3.188,1.414 1.531,0.561 3.334,0.771 1.803,0.211 2.978,0.15 1.176,-0.061 1.744,-0.14 0.569,-0.079 1.552,-0.4 0.983,-0.321 1.96,-0.915 0.977,-0.594 1.874,-1.535 0.897,-0.941 1.707,-2.292 0.809,-1.352 1.215,-2.243 0.407,-0.891 0.511,-1.731 0.104,-0.84 0.007,-1.482 -0.096,-0.641 -0.724,-1.679 -0.628,-1.038 -1.411,-1.868 -0.783,-0.829 -2.557,-1.895 -1.775,-1.067 -3.124,-1.676 -1.349,-0.609 -2.359,-0.907 -1.01,-0.299 -1.924,-0.415 -0.915,-0.115 -1.547,-0.122 -0.631,-0.007 -1.779,-0.043 -1.148,-0.036 -2.293,0.153 -1.146,0.189 -2.064,0.55 -0.919,0.36 -1.674,0.803 -0.755,0.442 -1.54,1.198 -0.785,0.757 -1.358,1.917 -0.574,1.16 -0.889,2.075 -0.314,0.915 -0.503,2.274 -0.188,1.36 -0.088,2.44 0.101,1.08 0.228,1.595 0.127,0.515 0.505,1.662 0.378,1.147 1.509,2.411 1.13,1.263 1.453,1.562" />
    <path
       id="STROKE_5c366251-79c3-4baf-b1ff-486546556f2b"
       opacity="1"
       fill="none"
       stroke="#000000"
       stroke-width="1.839"
       stroke-opacity="1"
       stroke-linecap="round"
       stroke-linejoin="round"
       d="m 207.454,285.268 q 0,0 0,0.11 0,0.111 0,0.127 0,0.015 0,-0.004 0.091,0.34 0.072,0.27 -0.02,-0.07 -0.018,0.008 0.002,0.077 0.055,0.116 0.053,0.039 0.112,1.672 0.059,1.632 0.015,3.084 -0.045,1.452 -0.241,2.981 -0.196,1.528 -0.188,2.507 0.008,0.978 0.048,1.454 0.041,0.475 0.344,1.789 0.303,1.313 0.461,1.988 0.158,0.675 0.275,0.951 0.116,0.276 0.185,0.372 0.069,0.096 0.082,0.071 0.013,-0.024 -0.031,-0.001 -0.044,0.023 0.379,0.061 0.424,0.039 1.346,0.042 0.922,0.003 1.905,-0.151 0.983,-0.153 1.829,-0.331 0.845,-0.178 1.564,-0.292 0.719,-0.113 1.304,-0.206 0.584,-0.092 1.361,-0.199 0.777,-0.108 5.946,-1.024 0.017,0.054 -0.633,-0.055 -0.651,-0.11 -1.183,-0.446 -0.531,-0.336 -0.932,-0.739 -0.4,-0.403 -0.664,-1.279 -0.264,-0.876 -0.287,-2.012 -0.022,-1.137 0.104,-2.087 0.126,-0.95 0.338,-1.692 0.213,-0.743 0.671,-1.808 0.458,-1.065 1.314,-1.99 0.856,-0.925 1.404,-1.408 0.549,-0.483 1.35,-0.939 0.802,-0.456 1.695,-0.765 0.892,-0.309 2.058,-0.435 1.166,-0.126 2.38,0 1.215,0.126 2.273,0.514 1.059,0.388 1.82,0.766 0.762,0.378 1.446,1.115 0.684,0.738 1.163,1.617 0.479,0.88 0.597,2.585 0.117,1.705 0.04,3.932 -0.077,2.226 -0.053,3.683 0.025,1.457 0.002,2.83 -0.024,1.373 -0.014,2.211 0.009,0.839 -0.235,1.27 -0.243,0.431 -0.335,0.538" />
    <path
       id="STROKE_959fbcb5-b926-440e-ad41-3c2b0975827f"
       opacity="1"
       fill="none"
       stroke="#000000"
       stroke-width="1.824"
       stroke-opacity="1"
       stroke-linecap="round"
       stroke-linejoin="round"
       d="m 210.928,395.327 q 0.009,-0.098 -0.303,-0.041 -0.312,0.058 -0.475,0.017 -0.162,-0.04 -0.3,0.156 -0.137,0.197 -0.209,0.351 -0.071,0.153 -0.191,0.79 -0.121,0.637 0.012,1.778 0.133,1.14 0.543,2.15 0.41,1.01 0.782,1.76 0.372,0.749 0.844,1.515 0.473,0.767 1.144,1.515 0.672,0.748 1.601,1.281 0.928,0.532 1.986,0.668 1.057,0.135 1.982,0.159 0.926,0.024 1.826,-0.734 0.899,-0.757 1.454,-1.503 0.555,-0.747 0.847,-1.613 0.292,-0.867 0.312,-1.705 0.02,-0.839 -0.368,-1.66 -0.387,-0.822 -1.204,-1.965 -0.816,-1.144 -1.471,-1.914 -0.656,-0.77 -1.56,-1.276 -0.904,-0.506 -1.838,-0.781 -0.934,-0.275 -1.75,-0.351 -0.817,-0.077 -1.671,0.1 -0.853,0.177 -1.582,0.735 0.154,0.138 1.34,0.243 1.186,0.105 3.127,-0.432 1.942,-0.537 3.542,-0.957 1.601,-0.42 2.437,-0.586 0.836,-0.166 2.205,-0.48 1.37,-0.314 3.959,-0.903 2.589,-0.59 3.932,-1.003 1.342,-0.414 3.373,-0.605 2.031,-0.19 3.015,-0.163 0.984,0.027 1.372,-0.003 0.388,-0.03 0.76,0.074 0.373,0.103 0.492,0.496 0.12,0.393 0.065,1.478 -0.054,1.085 -0.51,2.704 -0.455,1.619 -0.664,4.141 -0.208,2.522 -0.179,5.067 0.029,2.546 0.021,2.61" />
    <path
       id="STROKE_40367ee0-d6d1-4709-a437-bd7aaf45939a"
       opacity="1"
       fill="none"
       stroke="#000000"
       stroke-width="1.826"
       stroke-opacity="1"
       stroke-linecap="round"
       stroke-linejoin="round"
       d="m 215.376,614.346 q -0.102,0.026 -0.555,0.27 -0.453,0.244 -0.879,0.01 -0.425,-0.234 -0.928,-1.425 -0.503,-1.19 -0.72,-1.914 -0.217,-0.724 -0.445,-2.31 -0.228,-1.585 -0.269,-2.732 -0.04,-1.146 -0.06,-2.167 -0.02,-1.022 0.235,-1.952 0.254,-0.931 0.658,-1.631 0.403,-0.7 1.067,-1.215 0.665,-0.514 1.354,-0.742 0.689,-0.228 1.267,-0.054 0.578,0.175 0.998,0.512 0.421,0.338 1.246,1.176 0.826,0.839 2.024,2.717 1.197,1.878 1.842,2.989 0.644,1.112 1.167,1.999 0.523,0.887 0.922,1.543 0.399,0.656 1.342,2.074 0.942,1.419 2.103,2.665 1.162,1.246 2.124,2.021 0.962,0.776 1.564,1.1 0.602,0.324 1.041,0.519 0.439,0.195 1.008,0.199 0.568,0.005 0.911,-0.024 0.343,-0.03 0.703,-0.21 0.361,-0.18 0.797,-0.597 0.437,-0.416 0.876,-1.046 0.438,-0.63 0.683,-1.678 0.245,-1.048 0.27,-2.276 0.026,-1.229 -0.055,-2.086 -0.081,-0.857 -0.241,-1.453 -0.161,-0.596 -0.244,-1.211 -0.083,-0.615 -0.721,-2.345 -0.637,-1.73 -1.083,-2.683 -0.446,-0.954 -0.733,-1.524 -0.287,-0.57 -0.873,-1.395 -0.586,-0.825 -1.05,-1.395 -0.464,-0.571 -1.136,-0.822 -0.673,-0.251 -1.412,-0.263 -0.739,-0.013 -1.488,0.428 -0.749,0.441 -1.77,1.476 -1.021,1.035 -1.986,2.434 -0.966,1.4 -1.487,2.512 -0.522,1.112 -0.854,1.973 -0.333,0.862 -0.979,2.464 -0.646,1.603 -1.447,3.124 -0.802,1.52 -1.705,2.573 -0.903,1.052 -1.399,1.573 -0.496,0.521 -1.049,0.857 -0.552,0.336 -1.289,0.47 -0.737,0.135 -1.366,0.063 -0.628,-0.072 -1.274,-0.524 -0.645,-0.452 -1.308,-1.693 -0.664,-1.242 -0.959,-1.812" />
    <path
       id="STROKE_b10f998a-9c45-4cc1-ad1b-9b06ad075893"
       opacity="1"
       fill="none"
       stroke="#f45e58"
       stroke-width="1.84"
       stroke-opacity="1"
       stroke-linecap="round"
       stroke-linejoin="round"
       d="m 197.375,866.902 -0.001,-103.009 h 51.085 v 103.009 z" />
    <path
       id="STROKE_ef9b2f90-4cc3-4b20-abba-502568be24ef"
       opacity="1"
       fill="none"
       stroke="#000000"
       stroke-width="1.84"
       stroke-opacity="1"
       stroke-linecap="round"
       stroke-linejoin="round"
       d="M 197.278,659.805 V 556.796 h 51.085 v 103.009 z" />
    <path
       id="STROKE_5a4ab194-8b55-4589-8930-2f5f9016345e"
       opacity="1"
       fill="none"
       stroke="#000000"
       stroke-width="1.84"
       stroke-opacity="1"
       stroke-linecap="round"
       stroke-linejoin="round"
       d="m 197.16,555.832 v -103.01 h 51.085 v 103.01 z" />
    <path
       id="STROKE_dd77dc7a-87f2-4df7-9125-b2e8df11041c"
       opacity="1"
       fill="none"
       stroke="#000000"
       stroke-width="1.84"
       stroke-opacity="1"
       stroke-linecap="round"
       stroke-linejoin="round"
       d="m 197.302,452.397 v -103.01 h 51.085 v 103.009 z" />
    <path
       id="STROKE_f30ccdca-3039-4b89-9dbf-76ee5d853ff0"
       opacity="1"
       fill="none"
       stroke="#000000"
       stroke-width="1.84"
       stroke-opacity="1"
       stroke-linecap="round"
       stroke-linejoin="round"
       d="m 197.671,348.956 v -103.01 h 51.085 v 103.01 z" />
    <path
       id="STROKE_e8ae3582-f7d1-4f8e-a48a-a35be2dbe392"
       opacity="1"
       fill="none"
       stroke="#f45e58"
       stroke-width="1.84"
       stroke-opacity="1"
       stroke-linecap="round"
       stroke-linejoin="round"
       d="M 197.397,763.17 V 660.161 h 51.085 V 763.17 Z" />
    <path
       id="STROKE_df8fd426-f84c-4018-b123-633f3f1f2f77"
       opacity="1"
       fill="none"
       stroke="#f45e58"
       stroke-width="1.84"
       stroke-opacity="1"
       stroke-linecap="round"
       stroke-linejoin="round"
       d="m 319.752,785.678 q 0,-0.392 0,-0.323 0,-0.433 0,-0.416 0.003,-0.183 -0.035,-2.582 -0.037,-2.399 -0.064,-3.813 -0.027,-1.414 0.166,-2.181 0.192,-0.767 0.256,-1.049 0.063,-0.281 0.331,-0.778 0.267,-0.497 1.056,-0.703 0.788,-0.206 1.116,-0.207 0.328,-0.002 0.774,0.072 0.446,0.073 3.385,1.028 2.939,0.955 4.476,1.545 1.537,0.591 2.735,0.839 1.197,0.248 2.178,0.519 0.982,0.272 1.459,0.438 0.478,0.165 0.657,0.291 0.179,0.125 0.267,0.209 0.087,0.083 0.057,0.049 -0.029,-0.033 -0.02,-0.026 0.01,0.006 -0.005,0.123 0.022,-0.01 -0.169,0.071 -0.191,0.081 -0.286,0.145" />
    <path
       id="STROKE_83b2639c-f033-4237-bebe-78a7b1d82416"
       opacity="1"
       fill="none"
       stroke="#f45e58"
       stroke-width="1.799"
       stroke-opacity="1"
       stroke-linecap="round"
       stroke-linejoin="round"
       d="m 328.428,782.003 q 0,0 0.021,-0.041 0.021,-0.041 -0.033,0.048 -0.053,0.089 -0.137,-2.502 -0.083,-2.591 0.083,-4.93 0.165,-2.34 0.206,-2.566" />
    <path
       id="STROKE_6d1b2bd1-a04f-4319-bcd0-f912165cce95"
       opacity="1"
       fill="none"
       stroke="#f45e58"
       stroke-width="1.84"
       stroke-opacity="1"
       stroke-linecap="round"
       stroke-linejoin="round"
       d="m 337.515,767.214 q 0.044,-0.179 0.016,-0.147 -0.029,0.032 -0.033,-0.003 -0.004,-0.035 0.161,-0.205 0.164,-0.17 1.401,0.141 1.237,0.312 2.819,1.121 1.582,0.809 2.792,1.714 1.21,0.905 1.311,1.008" />
    <path
       id="STROKE_c37de428-e475-48cc-b232-d0cb34fe2783"
       opacity="1"
       fill="none"
       stroke="#f45e58"
       stroke-width="1.84"
       stroke-opacity="1"
       stroke-linecap="round"
       stroke-linejoin="round"
       d="m 321.253,753.445 q 0.055,-0.031 -0.163,0.168 -0.219,0.2 -0.349,0.181 -0.13,-0.019 -0.323,-0.124 -0.193,-0.106 -0.283,-0.249 -0.09,-0.142 -0.121,-0.188 -0.032,-0.045 -0.189,-0.257 -0.157,-0.211 -0.446,-0.917 -0.289,-0.705 -0.331,-1.444 -0.041,-0.739 -0.083,-1.448 -0.042,-0.709 0.275,-1.471 0.316,-0.762 0.752,-1.359 0.437,-0.597 1.283,-0.897 0.845,-0.3 1.388,-0.308 0.543,-0.008 0.814,0.005 0.272,0.012 0.845,0.336 0.573,0.323 1.202,1.109 0.629,0.787 0.992,1.796 0.362,1.009 -0.177,2.09 -0.267,0.008 -0.307,-1.2 -0.04,-1.208 0.134,-2.135 0.174,-0.926 0.499,-1.837 0.325,-0.911 1.01,-1.915 0.686,-1.004 1.397,-1.689 0.711,-0.684 1.523,-0.986 0.812,-0.302 1.446,-0.106 0.634,0.196 1.23,1.063 0.595,0.866 1.125,2.054 0.531,1.188 0.881,2.636 0.351,1.448 0.39,3.141 0.038,1.693 -0.132,2.473 -0.17,0.78 -0.242,0.864" />
    <path
       id="STROKE_3b5890c8-db89-4289-b182-430221718ea3"
       opacity="1"
       fill="none"
       stroke="#f45e58"
       stroke-width="1.84"
       stroke-opacity="1"
       stroke-linecap="round"
       stroke-linejoin="round"
       d="m 319.462,795.669 q 0,0.352 0,0.265 -0.025,0.311 0.327,0.591 0.352,0.28 2.226,1.483 1.873,1.204 3.598,2.447 1.726,1.243 2.71,2.057 0.984,0.815 1.809,1.63 -0.01,0 -0.082,0 0.209,-0.229 0.215,-0.206 0.227,0.018 1.955,-1.886 1.728,-1.904 2.755,-3.087 1.028,-1.183 1.528,-1.666 0.5,-0.483 0.852,-0.797 0.352,-0.315 0.453,-0.458 0.1,-0.144 0.185,-0.155 0.085,-0.012 0.179,-0.03 0.095,-0.017 0.169,-10e-4 0.074,0.016 0.157,0.039" />
    <path
       id="STROKE_92144882-aab4-4f23-a31c-3fb3533ebaae"
       opacity="1"
       fill="none"
       stroke="#f45e58"
       stroke-width="1.84"
       stroke-opacity="1"
       stroke-linecap="round"
       stroke-linejoin="round"
       d="m 320.449,728.025 q -0.117,-0.015 -0.115,-0.011 0.002,0.004 -0.1,0.033 -0.102,0.028 -0.2,0.064 -0.098,0.036 -0.069,0.017 h -0.01 q -0.028,0.01 -0.036,0.018 -0.007,0.007 0.047,-10e-4 0.054,-0.009 0.21,-0.101 0.155,-0.093 0.269,-0.169 0.114,-0.075 0.249,-0.182 0.134,-0.107 0.507,-0.366 0.372,-0.26 1.66,-1.354 1.288,-1.094 2.343,-2.376 1.055,-1.282 1.643,-2.227 0.588,-0.945 1.024,-2.516 0.046,0.369 0.082,0.349 0.13,0.19 0.09,0.126 -0.039,-0.064 0.093,0.17 0.132,0.233 0.649,0.798 0.517,0.564 1.172,1.084 0.654,0.52 1.088,0.828 0.434,0.308 2.255,1.623 1.821,1.316 4.481,4.335 0.002,-0.042 -0.004,-0.169 -0.006,-0.128 -0.015,-0.199" />
    <path
       id="STROKE_c8cade65-66d6-46f9-b756-2f7b54087605"
       opacity="1"
       fill="none"
       stroke="#f45e58"
       stroke-width="1.84"
       stroke-opacity="1"
       stroke-linecap="round"
       stroke-linejoin="round"
       d="m 266.938,763.995 q -0.222,0.066 4.69,-0.084 4.911,-0.149 7.953,-0.127 3.041,0.022 4.453,0.115 1.411,0.093 3.093,0.249 1.682,0.157 2.745,0.217 1.063,0.061 2.309,0.085 1.246,0.024 1.944,0.317 0.699,0.294 0.752,0.378" />
    <path
       id="STROKE_8c5a770b-0db2-4c8c-9e28-b06a8cb86e57"
       opacity="1"
       fill="none"
       stroke="#f45e58"
       stroke-width="1.84"
       stroke-opacity="1"
       stroke-linecap="round"
       stroke-linejoin="round"
       d="m 294.383,768.303 q 0,0 0,0.004 0,0.005 0,0.034 0.115,0.094 2.315,-0.669 2.199,-0.764 3.431,-1.195 1.232,-0.431 1.812,-0.65 0.58,-0.218 0.853,-0.545 0.273,-0.327 -0.077,-0.762 -0.349,-0.436 -0.728,-0.736 -0.378,-0.3 -0.536,-0.372 -0.158,-0.071 -0.206,-0.085 -0.048,-0.015 -0.25,-0.173 -0.203,-0.159 -2.311,-1.104 -2.108,-0.945 -5.053,-2.069 -0.106,-0.12 -0.026,0.637 0.08,0.756 0.298,2.409 0.218,1.653 0.338,2.863 0.121,1.211 0.481,2.53 0.359,1.32 0.482,1.588" />
    <path
       id="STROKE_a7a4494f-f8b7-4c4d-985e-24d05c9c30d4"
       opacity="1"
       fill="none"
       stroke="#71c047"
       stroke-width="1.84"
       stroke-opacity="1"
       stroke-linecap="round"
       stroke-linejoin="round"
       d="m 381.586,717.322 q 0,0 -0.014,0.02 -0.013,0.02 -0.005,0.027 0.008,0.007 0.039,0.08 0.03,0.072 0.154,0.196 0.123,0.124 0.311,0.261 0.188,0.136 0.389,0.271 0.201,0.135 1.172,0.864 0.97,0.729 1.865,1.474 0.895,0.744 1.277,1.106 0.383,0.362 2.271,2.272 1.887,1.911 3.952,3.459 0.083,0.061 -0.072,-0.246 -0.154,-0.307 0.711,-1.323 0.866,-1.017 1.239,-1.413 0.374,-0.396 1.211,-1.373 0.837,-0.976 1.805,-2.162 0.968,-1.186 1.5,-1.806 0.532,-0.62 1.121,-1.075 0.588,-0.455 0.827,-0.668 0.239,-0.213 0.251,-0.255" />
    <path
       id="STROKE_06f93f2b-603e-4e81-a2d1-1eb2d71795f9"
       opacity="1"
       fill="none"
       stroke="#71c047"
       stroke-width="1.84"
       stroke-opacity="1"
       stroke-linecap="round"
       stroke-linejoin="round"
       d="m 385.716,711.432 q -0.017,-0.026 -0.088,-0.138 -0.07,-0.113 -0.073,-0.147 -0.002,-0.034 -0.116,-0.133 -0.114,-0.099 -0.4,-0.798 -0.287,-0.7 -0.376,-1.565 -0.09,-0.865 -0.021,-1.506 0.069,-0.641 0.306,-1.024 0.237,-0.382 0.835,-0.626 0.597,-0.244 1.148,-0.293 0.55,-0.049 1.512,0.417 0.962,0.467 2.558,1.95 1.596,1.484 2.752,2.603 1.155,1.119 1.802,1.66 0.647,0.54 1.083,0.759 0.435,0.219 0.908,0.197 0.472,-0.022 0.849,-0.262 0.377,-0.239 0.595,-0.804 0.219,-0.565 0.326,-1.437 0.108,-0.872 -0.249,-1.842 -0.356,-0.969 -0.808,-1.538 -0.452,-0.568 -0.735,-0.773 -0.283,-0.205 -0.646,-0.214 -0.362,-0.008 -0.702,-0.064 -0.34,-0.056 -0.843,0.285 -0.503,0.342 -0.821,0.545 -0.318,0.204 -1.272,1.867 -0.954,1.663 -1.391,2.643 -0.437,0.98 -0.935,1.614 -0.498,0.635 -1.011,0.991 -0.514,0.355 -1.188,0.442 -0.674,0.086 -1.52,-0.293 -0.847,-0.38 -1.383,-2.157 -0.537,-1.777 -0.629,-2.083" />
    <path
       id="STROKE_d5f18933-2d85-42a6-9073-8452f9a00019"
       opacity="1"
       fill="none"
       stroke="#71c047"
       stroke-width="1.84"
       stroke-opacity="1"
       stroke-linecap="round"
       stroke-linejoin="round"
       d="m 396.037,696.907 q -0.116,-0.132 1.781,0.558 1.897,0.691 3.392,1.473 1.495,0.783 2.434,1.321 0.94,0.538 1.884,0.87 0.945,0.331 1.16,0.415" />
    <path
       id="STROKE_2a088b4b-4f2a-4ce9-a06c-13e1f61a0bc0"
       opacity="1"
       fill="none"
       stroke="#71c047"
       stroke-width="1.84"
       stroke-opacity="1"
       stroke-linecap="round"
       stroke-linejoin="round"
       d="m 385.101,687.078 q 0.01,-0.215 -0.15,-1.951 -0.16,-1.737 0.047,-3.267 0.207,-1.53 0.375,-2.271 0.167,-0.74 0.317,-1.105 0.15,-0.364 0.671,-0.514 0.52,-0.149 2.449,0.853 1.929,1.001 4.875,2.388 2.947,1.386 6.177,2.67 -0.022,0.061 -0.044,0.123" />
    <path
       id="STROKE_0f979705-a800-464c-aa90-3cb57bccc35a"
       opacity="1"
       fill="none"
       stroke="#71c047"
       stroke-width="1.84"
       stroke-opacity="1"
       stroke-linecap="round"
       stroke-linejoin="round"
       d="m 391.617,685.005 q -0.061,-0.239 -0.016,-1.67 0.046,-1.432 0.266,-2.346 0.22,-0.915 0.473,-1.716 0.253,-0.801 0.386,-1.12" />
    <path
       id="STROKE_d7155d4d-1316-41fe-8142-8592935eed34"
       opacity="1"
       fill="none"
       stroke="#71c047"
       stroke-width="1.84"
       stroke-opacity="1"
       stroke-linecap="round"
       stroke-linejoin="round"
       d="m 382.181,667.322 q -0.05,0.139 0.337,-0.16 0.388,-0.3 1.205,-0.986 0.818,-0.686 1.791,-1.283 0.974,-0.596 3.001,-1.203 2.027,-0.607 4.293,-1.599 -0.227,0.237 2.147,2.561 2.373,2.324 3.592,3.563 1.219,1.24 1.884,1.817 0.665,0.577 1.179,1.004 -0.286,-0.098 -0.259,-0.104 -0.143,-0.08 -0.235,-0.142" />
    <path
       id="STROKE_8bc445e0-5365-43bf-b2fb-f57dde80034a"
       opacity="1"
       fill="none"
       stroke="#71c047"
       stroke-width="1.778"
       stroke-opacity="1"
       stroke-linecap="round"
       stroke-linejoin="round"
       d="m 276.127,611.42 q -0.174,0.697 3.907,2.691 4.08,1.993 8.813,5.064 4.734,3.07 7.074,4.737 2.34,1.667 4.577,3.191 2.236,1.525 4.911,3.447 2.675,1.923 5.786,4.301 3.11,2.378 6.18,4.466 3.07,2.087 6.923,4.598 3.853,2.51 6.7,4.663 2.848,2.152 5.473,3.995 2.625,1.843 4.721,3.332 2.095,1.49 4.397,3.073 2.301,1.584 3.881,2.779 1.58,1.196 3.882,2.993 2.301,1.797 3.327,2.547 1.025,0.751 2.284,1.666 1.258,0.915 2.852,1.92 1.593,1.005 2.816,1.919 -0.059,0 -0.184,0.03 -0.124,0.03 -0.315,0.091" />
    <path
       id="STROKE_b349872f-512b-4035-8bda-b82f3e7a574e"
       opacity="1"
       fill="none"
       stroke="#71c047"
       stroke-width="1.84"
       stroke-opacity="1"
       stroke-linecap="round"
       stroke-linejoin="round"
       d="m 358.656,674.11 q 0.008,0.444 -0.018,0.442 -0.094,-0.025 -0.005,0.545 -0.086,-0.097 4.478,0.595 4.563,0.692 9.312,1.265 0.33,0.14 -0.975,-1.672 -1.304,-1.811 -2.423,-3.389 -1.118,-1.577 -1.937,-3.245 -0.819,-1.668 -2.321,-2.354 0.017,0.067 -0.502,1.545 -0.519,1.477 -0.714,1.762" />
    <path
       id="STROKE_3999510c-6dfd-44b3-91bb-c6edf8199e54"
       opacity="1"
       fill="none"
       stroke="#71c047"
       stroke-width="1.84"
       stroke-opacity="1"
       stroke-linecap="round"
       stroke-linejoin="round"
       d="m 346.671,731.291 q 0,0 0,-0.306 0,-0.307 -10e-4,-0.344 -0.001,-0.037 0.021,0.004 0.021,0.04 0.027,-0.218 0.006,-0.258 -0.332,-2.076 -0.339,-1.818 0.445,-4.716 0.784,-2.898 1.6,-4.709 0.816,-1.811 1.123,-2.779 0.307,-0.968 2.659,-3.339 2.352,-2.372 3.867,-3.539 1.516,-1.167 3.012,-1.986 1.495,-0.82 2.416,-1.15 0.921,-0.33 1.233,-0.424 0.312,-0.094 0.409,-0.104 0.097,-0.011 0.067,-0.009 -0.03,0.003 0.007,-0.004 0.037,-0.007 0.478,-0.109 0.441,-0.103 0.706,-0.18 0.264,-0.077 0.214,-0.064 -0.05,0.013 -0.075,0.03 -0.025,0.018 0.404,-0.192 0,-0.019 0,-0.073 0,-0.055 0,-0.109" />
    <path
       id="STROKE_7566ed53-e901-4def-9427-dc9a0b648b54"
       opacity="1"
       fill="none"
       stroke="#71c047"
       stroke-width="1.84"
       stroke-opacity="1"
       stroke-linecap="round"
       stroke-linejoin="round"
       d="m 366.068,711.582 q 0,0.018 -0.018,0.387 -0.037,0 -0.055,0 -0.463,-0.169 1.413,-2.89 1.876,-2.721 2.987,-4.061 1.111,-1.341 1.528,-1.984 0.417,-0.643 0.544,-0.984 0.127,-0.341 0.153,-0.638 0.026,-0.297 -0.052,-0.568 -0.078,-0.27 -0.271,-0.342 -0.193,-0.071 -1.275,-0.43 -1.083,-0.359 -3.312,-0.768 -2.229,-0.409 -3.465,-0.516 -1.237,-0.106 -2.799,-0.398 0,0.571 0,0.496 0,0.709 0,0.654 -1.017,0.878 2.025,7.059 3.042,6.182 3.296,6.606" />
    <path
       id="STROKE_fd991757-6615-4955-bac7-aaef1b42b93f"
       opacity="1"
       fill="none"
       stroke="#71c047"
       stroke-width="1.84"
       stroke-opacity="1"
       stroke-linecap="round"
       stroke-linejoin="round"
       d="m 380.81,473.673 q 0,0 -0.013,0.02 -0.014,0.021 -0.006,0.028 0.008,0.006 0.039,0.079 0.031,0.073 0.154,0.197 0.124,0.124 0.311,0.26 0.188,0.137 0.389,0.272 0.202,0.134 1.172,0.864 0.971,0.729 1.865,1.473 0.895,0.744 1.278,1.106 0.383,0.362 2.27,2.273 1.887,1.91 3.952,3.458 0.084,0.061 -0.071,-0.245 -0.155,-0.307 0.711,-1.324 0.866,-1.016 1.239,-1.412 0.373,-0.396 1.21,-1.373 0.837,-0.977 1.805,-2.163 0.968,-1.186 1.5,-1.806 0.532,-0.62 1.121,-1.074 0.589,-0.455 0.828,-0.668 0.239,-0.213 0.251,-0.255" />
    <path
       id="STROKE_941d7054-57e4-4e53-8ff8-da32ac22e9be"
       opacity="1"
       fill="none"
       stroke="#71c047"
       stroke-width="1.84"
       stroke-opacity="1"
       stroke-linecap="round"
       stroke-linejoin="round"
       d="m 381.406,423.674 q -0.051,0.139 0.337,-0.161 0.387,-0.3 1.205,-0.986 0.817,-0.686 1.791,-1.282 0.973,-0.597 3,-1.204 2.027,-0.607 4.294,-1.599 -0.227,0.237 2.146,2.562 2.373,2.324 3.592,3.563 1.219,1.239 1.884,1.816 0.666,0.577 1.179,1.004 -0.286,-0.098 -0.259,-0.103 -0.143,-0.081 -0.235,-0.142" />
    <path
       id="STROKE_a53a6105-4277-4395-ba5d-2984b0d94b69"
       opacity="1"
       fill="none"
       stroke="#71c047"
       stroke-width="1.833"
       stroke-opacity="1"
       stroke-linecap="round"
       stroke-linejoin="round"
       d="m 271.093,492.722 q -0.011,0.044 0.222,0.033 0.232,-0.01 0.198,-0.005 -0.034,0.006 0.056,-0.021 0.091,-0.026 0.328,-0.693 0.237,-0.666 1.422,-2.347 1.185,-1.681 2.866,-3.231 1.681,-1.55 3.062,-2.545 1.381,-0.995 3.381,-2.888 2,-1.892 3.443,-3.102 1.443,-1.21 2.261,-1.76 0.818,-0.551 2.123,-1.345 1.305,-0.794 2.331,-1.474 1.027,-0.68 2.878,-2.115 1.851,-1.436 3.823,-2.595 1.972,-1.158 3.017,-1.685 1.045,-0.527 1.929,-0.947 0.884,-0.42 1.807,-0.856 0.923,-0.435 1.422,-0.665 0.498,-0.231 1.019,-0.449 0.521,-0.219 0.925,-0.415 0.404,-0.195 2.018,-0.817 1.614,-0.622 3.314,-1.045 1.699,-0.423 3.82,-0.875 2.121,-0.452 3.316,-0.693 1.196,-0.241 2.685,-0.468 1.488,-0.227 3.119,-0.447 1.63,-0.22 3.27,-0.368 1.64,-0.147 6.445,-0.239 4.805,-0.091 7.251,-0.196 2.446,-0.106 4.291,-0.283 1.844,-0.178 7.383,-0.163 -0.088,0.062 -0.175,0.124" />
    <path
       id="STROKE_79c7e96f-c3b7-418a-892e-37c8d491362f"
       opacity="1"
       fill="none"
       stroke="#71c047"
       stroke-width="1.84"
       stroke-opacity="1"
       stroke-linecap="round"
       stroke-linejoin="round"
       d="m 353.899,461.523 q 0.162,0.193 0.254,0.26 0.093,0.068 0.082,0.046 -0.01,-0.021 -0.027,-0.012 -0.017,0.009 0.12,0.034 0.137,0.026 0.642,-0.203 0.505,-0.229 1.969,-0.875 1.465,-0.646 2.352,-0.989 0.888,-0.343 2.492,-0.988 1.605,-0.645 2.373,-1.068 0.767,-0.422 1.034,-0.519 0.267,-0.097 0.676,-0.633 0.409,-0.537 0.294,-0.937 -0.116,-0.401 -2.259,-1.052 -2.142,-0.652 -3.989,-1.054 -1.847,-0.403 -2.957,-0.616 -1.111,-0.213 -2.206,-0.321 -0.103,0.433 -0.073,0.357 -0.025,0.64 -0.015,0.505 0.133,-0.202 -0.044,3.105 -0.177,3.307 -0.276,3.68" />
    <path
       id="STROKE_09cba1f4-12e7-4bad-bc56-6a493603d203"
       opacity="1"
       fill="none"
       stroke="#71c047"
       stroke-width="1.833"
       stroke-opacity="1"
       stroke-linecap="round"
       stroke-linejoin="round"
       d="m 270.506,405.307 q -0.01,-0.044 0.222,-0.034 0.232,0.011 0.198,0.005 -0.034,-0.005 0.057,0.021 0.091,0.027 0.327,0.693 0.237,0.667 1.422,2.348 1.185,1.681 2.866,3.231 1.681,1.55 3.062,2.545 1.381,0.995 3.381,2.888 2.001,1.892 3.443,3.102 1.443,1.209 2.261,1.76 0.818,0.551 2.123,1.345 1.306,0.794 2.332,1.474 1.026,0.679 2.877,2.115 1.851,1.436 3.823,2.594 1.972,1.159 3.017,1.686 1.045,0.527 1.93,0.947 0.884,0.42 1.807,0.855 0.923,0.436 1.421,0.666 0.498,0.23 1.019,0.449 0.521,0.219 0.925,0.414 0.405,0.196 2.019,0.818 1.614,0.621 3.313,1.044 1.699,0.423 3.82,0.876 2.121,0.452 3.317,0.693 1.195,0.241 2.684,0.468 1.489,0.227 3.119,0.447 1.63,0.22 3.271,0.367 1.64,0.148 6.444,0.239 4.805,0.092 7.251,0.197 2.446,0.105 4.291,0.283 1.844,0.178 7.383,0.163 -0.087,-0.062 -0.175,-0.124" />
    <path
       id="STROKE_ef8c655a-5b6f-4dd0-bde6-7380b2d424cd"
       opacity="1"
       fill="none"
       stroke="#71c047"
       stroke-width="1.84"
       stroke-opacity="1"
       stroke-linecap="round"
       stroke-linejoin="round"
       d="m 353.312,436.505 q 0.162,-0.193 0.255,-0.26 0.092,-0.067 0.082,-0.046 -0.011,0.022 -0.028,0.013 -0.017,-0.009 0.12,-0.035 0.137,-0.025 0.642,0.204 0.505,0.228 1.97,0.875 1.464,0.646 2.352,0.989 0.887,0.343 2.492,0.988 1.604,0.645 2.372,1.067 0.768,0.423 1.034,0.52 0.267,0.096 0.676,0.633 0.41,0.537 0.294,0.937 -0.116,0.401 -2.258,1.052 -2.143,0.651 -3.99,1.054 -1.846,0.403 -2.957,0.616 -1.111,0.213 -2.206,0.32 -0.103,-0.432 -0.073,-0.357 -0.025,-0.639 -0.014,-0.504 0.133,0.201 -0.044,-3.105 -0.177,-3.307 -0.276,-3.68" />
    <path
       id="STROKE_b8d0a873-df19-4744-82c9-7ef32a4a2589"
       opacity="1"
       fill="none"
       stroke="#71c047"
       stroke-width="1.84"
       stroke-opacity="1"
       stroke-linecap="round"
       stroke-linejoin="round"
       d="m 384.825,460.063 q 0.139,-10e-4 -0.14,-0.024 -0.279,-0.023 -0.417,0.031 -0.138,0.055 -0.258,0.156 -0.12,0.101 -0.196,0.191 -0.075,0.09 -0.103,0.205 -0.027,0.115 -0.048,0.087 -0.021,-0.029 -0.105,0.587 -0.084,0.616 0.088,1.412 0.172,0.797 0.63,1.524 0.457,0.728 0.996,1.277 0.539,0.548 1.197,0.867 0.658,0.319 1.241,0.344 0.582,0.024 1.033,0.019 0.45,-0.005 1.069,-0.436 0.618,-0.432 0.956,-0.757 0.338,-0.325 0.695,-0.807 0.357,-0.482 0.502,-1.125 0.145,-0.643 0.153,-1.19 0.008,-0.547 -0.356,-1.104 -0.365,-0.557 -0.994,-0.986 -0.629,-0.43 -1.498,-0.657 -0.869,-0.228 -1.518,-0.307 -0.648,-0.078 -1.033,-0.01 -0.384,0.067 -0.454,0.148 -0.069,0.081 -0.145,0.176 -0.077,0.095 -0.071,0.109 0.005,0.015 0.005,0.009 0,-0.005 0.001,0.046 0.255,0 0.211,0 0.369,-0.005 0.281,-0.008 0.14,0.014 1.66,-0.536 1.52,-0.551 2.807,-1.153 1.286,-0.601 1.938,-0.934 0.653,-0.333 1.496,-0.605 0.844,-0.272 1.563,-0.347 0.718,-0.075 1.308,0.056 0.591,0.13 1.048,0.443 0.457,0.313 0.924,0.934 0.467,0.621 0.854,1.343 0.387,0.722 0.368,3.709 -0.018,2.988 0.013,3.074" />
    <path
       id="STROKE_03d6d388-a7e6-4097-86f1-7999fa762f93"
       opacity="1"
       fill="none"
       stroke="#71c047"
       stroke-width="1.84"
       stroke-opacity="1"
       stroke-linecap="round"
       stroke-linejoin="round"
       d="m 397.376,450.575 q 0.014,0.018 0.892,-0.006 0.877,-0.023 1.49,-0.033 0.613,-0.009 1.566,0.375 0.953,0.383 1.453,0.75 0.5,0.366 0.694,0.53" />
    <path
       id="STROKE_fba27880-0725-4101-bb5e-685a1b524d9b"
       opacity="1"
       fill="none"
       stroke="#71c047"
       stroke-width="1.838"
       stroke-opacity="1"
       stroke-linecap="round"
       stroke-linejoin="round"
       d="m 385.214,440.225 q 0.04,0.146 0.416,0.637 0.375,0.49 1.855,1.009 1.48,0.519 2.84,0.731 1.36,0.211 2.365,0.241 1.004,0.029 1.662,0.019 0.659,-0.011 1.388,-0.227 0.729,-0.215 1.282,-0.558 0.552,-0.342 1.044,-0.961 0.492,-0.619 0.679,-1.426 0.187,-0.806 0.191,-1.715 0.004,-0.908 -0.492,-1.85 -0.497,-0.941 -0.84,-1.409 -0.342,-0.469 -0.765,-0.862 -0.423,-0.394 -1.223,-0.871 -0.8,-0.476 -2.02,-0.714 -1.22,-0.239 -2.169,-0.253 -0.949,-0.014 -1.88,0.265 -0.931,0.28 -1.395,0.46 -0.463,0.18 -1.084,0.503 -0.62,0.323 -1.276,0.967 -0.655,0.643 -0.863,0.929 -0.208,0.286 -0.325,0.993 -0.116,0.707 -0.067,1.243 0.048,0.535 0.117,0.878 0.069,0.342 0.594,1.181 0.525,0.839 1.204,1.479 0.679,0.641 1.068,0.991" />
    <path
       id="STROKE_664b71a0-0c13-49b8-9b22-d303e5a481fe"
       opacity="1"
       fill="none"
       stroke="#71c047"
       stroke-width="1.84"
       stroke-opacity="1"
       stroke-linecap="round"
       stroke-linejoin="round"
       d="m 450.726,371.585 q 0,0 -0.014,0.02 -0.013,0.02 -0.005,0.027 0.008,0.007 0.039,0.08 0.03,0.072 0.154,0.196 0.123,0.125 0.311,0.261 0.188,0.136 0.389,0.271 0.201,0.135 1.172,0.864 0.97,0.73 1.865,1.474 0.895,0.744 1.277,1.106 0.383,0.362 2.271,2.272 1.887,1.911 3.952,3.459 0.083,0.061 -0.072,-0.245 -0.154,-0.307 0.711,-1.324 0.866,-1.017 1.239,-1.413 0.374,-0.396 1.211,-1.372 0.837,-0.977 1.805,-2.163 0.968,-1.186 1.5,-1.806 0.532,-0.62 1.121,-1.075 0.588,-0.454 0.827,-0.667 0.239,-0.213 0.251,-0.255" />
    <path
       id="STROKE_f3eeb5e9-4c33-4ed8-ac49-a6830da42367"
       opacity="1"
       fill="none"
       stroke="#71c047"
       stroke-width="1.84"
       stroke-opacity="1"
       stroke-linecap="round"
       stroke-linejoin="round"
       d="m 451.321,321.585 q -0.05,0.14 0.337,-0.16 0.388,-0.3 1.205,-0.986 0.818,-0.686 1.791,-1.282 0.974,-0.597 3.001,-1.204 2.027,-0.607 4.293,-1.599 -0.227,0.237 2.147,2.561 2.373,2.324 3.592,3.564 1.219,1.239 1.884,1.816 0.665,0.577 1.179,1.004 -0.286,-0.098 -0.259,-0.104 -0.143,-0.08 -0.235,-0.142" />
    <path
       id="STROKE_5f4d7770-f8a2-4f55-9d54-07a13dec24c3"
       opacity="1"
       fill="none"
       stroke="#71c047"
       stroke-width="1.84"
       stroke-opacity="1"
       stroke-linecap="round"
       stroke-linejoin="round"
       d="m 454.74,357.975 q 0.14,-0.002 -0.14,-0.024 -0.279,-0.023 -0.416,0.031 -0.138,0.054 -0.258,0.156 -0.121,0.101 -0.196,0.19 -0.076,0.09 -0.103,0.205 -0.028,0.116 -0.049,0.087 -0.02,-0.028 -0.104,0.588 -0.084,0.616 0.088,1.412 0.171,0.797 0.629,1.524 0.458,0.728 0.997,1.276 0.538,0.549 1.196,0.868 0.658,0.319 1.241,0.344 0.583,0.024 1.033,0.019 0.45,-0.005 1.069,-0.437 0.619,-0.431 0.957,-0.756 0.338,-0.325 0.695,-0.807 0.357,-0.482 0.502,-1.125 0.145,-0.644 0.153,-1.19 0.008,-0.547 -0.357,-1.104 -0.365,-0.558 -0.993,-0.987 -0.629,-0.429 -1.499,-0.656 -0.869,-0.228 -1.517,-0.307 -0.648,-0.079 -1.033,-0.011 -0.385,0.068 -0.454,0.149 -0.069,0.08 -0.146,0.175 -0.076,0.096 -0.071,0.11 0.006,0.015 0.006,0.009 0,-0.006 0,0.045 0.255,0 0.212,0 0.368,-0.004 0.28,-0.007 0.14,0.013 1.661,-0.537 1.52,-0.55 2.806,-1.152 1.287,-0.602 1.939,-0.934 0.652,-0.333 1.496,-0.605 0.844,-0.272 1.562,-0.347 0.719,-0.075 1.309,0.055 0.59,0.131 1.047,0.444 0.458,0.313 0.925,0.934 0.467,0.621 0.854,1.343 0.386,0.722 0.368,3.709 -0.019,2.988 0.013,3.073" />
    <path
       id="STROKE_469e5903-64f0-4bae-a253-5be1b4b63abb"
       opacity="1"
       fill="none"
       stroke="#71c047"
       stroke-width="1.84"
       stroke-opacity="1"
       stroke-linecap="round"
       stroke-linejoin="round"
       d="m 467.291,348.487 q 0.015,0.018 0.892,-0.006 0.877,-0.024 1.49,-0.033 0.613,-0.009 1.566,0.375 0.953,0.383 1.453,0.75 0.5,0.366 0.695,0.53" />
    <path
       id="STROKE_7de95254-5883-4501-942a-85c6d4e416be"
       opacity="1"
       fill="none"
       stroke="#71c047"
       stroke-width="1.84"
       stroke-opacity="1"
       stroke-linecap="round"
       stroke-linejoin="round"
       d="m 414.038,444.748 q -0.041,0.08 0.014,0.025 0.056,-0.054 -0.208,0.215 -0.264,0.27 -0.258,0.275 0.007,0.005 -0.004,0.023 -0.01,0.019 -0.134,0.248 -0.123,0.229 -0.106,0.22 v 0.016 q 0.113,-0.288 1.373,-2.668 1.259,-2.381 1.964,-3.975 0.706,-1.594 1.963,-4.403 1.257,-2.808 2.216,-5.132 0.959,-2.325 2.592,-6.503 1.633,-4.178 2.755,-7.319 1.123,-3.141 2.319,-7.057 1.196,-3.915 1.73,-5.923 0.533,-2.008 1.44,-4.962 0.907,-2.955 1.581,-4.474 0.673,-1.518 1.327,-3.27 0.653,-1.752 1.692,-3.514 1.039,-1.762 1.623,-2.918 0.584,-1.156 0.802,-1.706 0.218,-0.551 0.202,-1.396 0.035,-0.015 0.07,-0.031" />
    <path
       id="STROKE_4bd2b72c-21ab-46a5-8db2-2fa3014fa8c0"
       opacity="1"
       fill="none"
       stroke="#71c047"
       stroke-width="1.84"
       stroke-opacity="1"
       stroke-linecap="round"
       stroke-linejoin="round"
       d="m 435.139,377.247 q -0.052,0.091 -0.023,0.105 0.029,0.014 -0.672,0.416 0.187,-0.458 0.215,-0.391 0.338,-0.397 2.319,-2.155 1.982,-1.758 3.06,-2.848 1.078,-1.091 2.883,-1.849 0.086,0.099 0.581,1.94 0.496,1.842 0.653,3.426 0.156,1.584 0.227,2.596 0.072,1.012 0.086,1.828 0.015,0.815 -0.071,2.851 -0.016,0 -0.07,0 0.035,-0.099 0.07,-0.198" />
    <path
       id="STROKE_9e33713a-c6d7-4ab7-89b5-15f831b1fd78"
       opacity="1"
       fill="none"
       stroke="#71c047"
       stroke-width="1.583"
       stroke-opacity="1"
       stroke-linecap="round"
       stroke-linejoin="round"
       d="m 266.694,296.488 q 0.213,0.428 2.257,1.483 2.043,1.054 3.41,1.557 1.367,0.502 4.004,1.575 2.636,1.072 4.867,2.036 2.231,0.963 4.009,1.695 1.777,0.733 4.807,1.929 3.03,1.195 6.123,2.419 3.092,1.224 6.045,2.338 2.953,1.114 4.461,1.738 1.508,0.624 3.992,1.451 2.485,0.826 3.995,1.274 1.509,0.449 7.119,2.066 5.609,1.618 10.094,2.711 4.484,1.094 6.715,1.518 2.231,0.425 3.44,0.647 1.21,0.222 2.758,0.566 1.549,0.344 4.678,0.947 3.129,0.602 5.604,1.097 2.475,0.494 3.654,0.828 1.179,0.335 5.645,1.031 4.465,0.696 9.796,1.377 5.33,0.681 8.405,1.316 3.075,0.635 9.598,1.343 6.522,0.709 9.806,0.945 3.284,0.237 5.339,0.52 2.056,0.284 7.525,0.804 5.47,0.521 9.973,0.907 4.503,0.386 8.022,0.849 0.015,0.083 0.031,0.166" />
    <path
       id="STROKE_e05ffbbd-6f2e-4f81-9653-2804d706f4ad"
       opacity="1"
       fill="none"
       stroke="#71c047"
       stroke-width="1.84"
       stroke-opacity="1"
       stroke-linecap="round"
       stroke-linejoin="round"
       d="m 432.467,339.332 q -0.632,0.376 -0.429,0.265 -0.047,0.052 -0.266,0.162 0.197,-0.025 3.624,-0.831 3.428,-0.806 5.573,-1.114 2.146,-0.308 3.678,-1.145 0.272,-0.141 -0.641,-0.238 -0.914,-0.096 -1.685,-0.411 -0.771,-0.315 -1.263,-0.492 -0.491,-0.177 -2.268,-1.151 -1.777,-0.974 -2.853,-1.823 -1.076,-0.849 -2.29,-1.569 -1.214,-0.72 -2.508,-1.419 -0.13,-0.254 0.439,0.708 0.57,0.963 0.747,1.782 0.178,0.819 0.244,1.054" />
    <path
       id="STROKE_a34a57dd-d36e-4158-9f53-1770a77f4662"
       opacity="1"
       fill="none"
       stroke="#71c047"
       stroke-width="1.84"
       stroke-opacity="1"
       stroke-linecap="round"
       stroke-linejoin="round"
       d="m 454.084,332.612 q 0.037,-0.238 -0.027,0.567 -0.064,0.806 0.023,1.965 0.086,1.16 0.168,1.857 0.081,0.696 0.056,1.26 -0.026,0.564 0.539,2.073 0.514,0.177 2.745,-0.226 2.23,-0.403 6.285,-1.008 -0.259,0 -0.197,0 -0.341,-0.045 -0.269,-0.047 -0.069,-0.018 -0.202,-0.065 -0.134,-0.048 -0.135,-0.054 -10e-4,-0.006 -0.031,-0.035 -0.03,-0.029 -0.029,-0.008 0.002,0.021 -0.284,-0.186 -0.286,-0.208 -0.526,-0.932 -0.241,-0.725 -0.275,-1.398 -0.034,-0.674 0.151,-1.236 0.185,-0.563 0.618,-1.176 0.432,-0.613 0.976,-1.039 0.544,-0.427 1.186,-0.553 0.642,-0.126 1.309,-0.052 0.667,0.074 1.486,0.562 0.82,0.489 1.342,1.119 0.522,0.631 0.797,1.077 0.275,0.447 0.513,1.136 0.238,0.69 0.32,1.734 0.083,1.045 -0.154,1.701 -0.236,0.657 -0.284,0.73" />
    <path
       id="STROKE_846a9bcb-2308-4764-9e30-6276bd8c1be6"
       opacity="1"
       fill="none"
       stroke="#71c047"
       stroke-width="1.64"
       stroke-opacity="1"
       stroke-linecap="round"
       stroke-linejoin="round"
       d="m 485.519,377.37 q -0.448,0.551 -1.171,7.508 -0.723,6.958 -0.661,11.845 0.063,4.887 0.027,9.156 -0.037,4.27 0.011,7.313 0.047,3.043 0.139,5.016 0.091,1.972 0.772,7.217 0.681,5.245 1.176,8.073 0.494,2.829 0.75,4.481 0.257,1.653 2.815,12.045 2.558,10.392 4.2,16.091 1.642,5.699 2.584,8.736 0.943,3.036 3.376,9.378 2.432,6.342 5.204,13.089 0.044,0 0.088,0" />
    <path
       id="STROKE_7df01893-35ad-447f-9949-fea9c7d21622"
       opacity="1"
       fill="none"
       stroke="#71c047"
       stroke-width="1.84"
       stroke-opacity="1"
       stroke-linecap="round"
       stroke-linejoin="round"
       d="m 500.589,498.299 q -0.228,0.078 -1.208,-0.19 -0.08,-0.142 1.045,0.621 1.124,0.762 3.927,3.191 2.803,2.429 4.426,3.776 1.624,1.347 2.501,1.766 0.878,0.419 1.575,0.574 0.697,0.154 1,-0.15 0.304,-0.304 0.326,-0.76 0.022,-0.456 0.043,-1.251 0.021,-0.794 -0.183,-1.404 -0.203,-0.61 -1.029,-5.106 -0.826,-4.495 -3.119,-10.518 -1.126,0.921 -0.763,0.63 -0.027,-0.518 -2.779,2.478 -2.752,2.995 -3.005,3.413" />
    <path
       id="STROKE_14066223-f7af-4d56-9fed-0ab1e8c7eaa3"
       opacity="1"
       fill="none"
       stroke="#71c047"
       stroke-width="1.646"
       stroke-opacity="1"
       stroke-linecap="round"
       stroke-linejoin="round"
       d="m 415.077,679.617 q -0.432,0.429 -0.308,0.301 -0.044,0.051 -0.208,0.08 -0.317,-0.364 1.654,-5.817 1.972,-5.453 3.288,-9.076 1.317,-3.622 2.919,-7.781 1.603,-4.159 4.018,-9.488 2.414,-5.33 6.309,-11.751 3.894,-6.422 6.336,-10.377 2.441,-3.956 3.984,-6.263 1.542,-2.307 4.034,-5.649 2.492,-3.343 5.296,-6.815 2.803,-3.473 4.763,-5.468 1.96,-1.995 6.63,-6.452 4.67,-4.456 7.405,-6.939 2.735,-2.484 6.601,-5.47 3.866,-2.986 6.755,-5.184 2.888,-2.198 4.37,-3.216 1.481,-1.018 2.129,-1.45 0.648,-0.433 0.983,-0.66 0.335,-0.226 0.28,-0.186 -0.056,0.04 -0.037,0.015 0.018,-0.025 0.331,-0.241 0.313,-0.215 0.467,-0.255 0.154,-0.04 0.275,-0.04" />
    <path
       id="STROKE_437f1452-94fe-4d3b-ad23-dba00c3a039a"
       opacity="1"
       fill="none"
       stroke="#71c047"
       stroke-width="1.84"
       stroke-opacity="1"
       stroke-linecap="round"
       stroke-linejoin="round"
       d="m 489.429,564.226 q -0.709,0 -0.516,0 -0.093,0 -0.329,0 0.018,-0.097 2.623,-0.283 2.605,-0.186 5.468,-0.528 2.863,-0.342 4.185,-0.426 1.321,-0.084 1.822,-0.065 0.5,0.019 0.771,0.153 0.271,0.135 0.432,1.281 0.16,1.145 -1.035,3.237 -1.195,2.092 -2.024,3.453 -0.828,1.361 -0.936,1.528 -0.108,0.168 -1.329,2.142 -1.222,1.974 -2.98,5.612 0.1,-0.027 0.321,-0.234 0.222,-0.206 0.338,-0.367" />
    <path
       id="STROKE_6b088d0f-6e8f-44b9-8ea0-f56b8ba5d258"
       opacity="1"
       fill="none"
       stroke="#71c047"
       stroke-width="1.479"
       stroke-opacity="1"
       stroke-linecap="round"
       stroke-linejoin="round"
       d="m 496.114,580.746 q 0.084,-0.031 0.125,0.212 -0.183,-0.002 -0.889,-1.01 -0.707,-1.009 -1.745,-2.975 -1.038,-1.967 -1.559,-3.056 -0.522,-1.088 -1.262,-3.396 -0.74,-2.309 -1.129,-3.958 -0.39,-1.65 -0.515,-2.004" />
    <path
       id="STROKE_b1667d63-3fd5-4f24-ae5d-778b5168d87b"
       opacity="1"
       fill="none"
       stroke="#71c047"
       stroke-width="1.723"
       stroke-opacity="1"
       stroke-linecap="round"
       stroke-linejoin="round"
       d="m 444.914,383.681 q -0.021,0.007 -1.539,-0.475 -1.517,-0.481 -2.57,-0.897 -1.052,-0.415 -2.238,-0.987 -1.185,-0.573 -1.789,-0.935 -0.604,-0.362 -0.984,-0.619 -0.379,-0.256 -0.657,-0.437 -0.278,-0.182 -0.576,-0.363" />
    <path
       id="STROKE_e5301543-6dc5-4379-9b7d-de9fcca51033"
       opacity="1"
       fill="none"
       stroke="#71c047"
       stroke-width="1.84"
       stroke-opacity="1"
       stroke-linecap="round"
       stroke-linejoin="round"
       d="m 521.5,559.831 q 0,0 -0.013,0.02 -0.014,0.02 -0.006,0.027 0.008,0.007 0.039,0.08 0.031,0.072 0.154,0.196 0.123,0.124 0.311,0.261 0.188,0.136 0.389,0.271 0.201,0.135 1.172,0.864 0.97,0.729 1.865,1.474 0.895,0.744 1.278,1.106 0.383,0.362 2.27,2.272 1.887,1.911 3.952,3.459 0.083,0.061 -0.071,-0.246 -0.155,-0.306 0.711,-1.323 0.865,-1.017 1.239,-1.413 0.373,-0.396 1.21,-1.372 0.837,-0.977 1.805,-2.163 0.968,-1.186 1.5,-1.806 0.532,-0.62 1.121,-1.075 0.589,-0.455 0.828,-0.668 0.238,-0.213 0.251,-0.255" />
    <path
       id="STROKE_c917e2d5-0e60-4e54-a19e-1ee329c21d27"
       opacity="1"
       fill="none"
       stroke="#71c047"
       stroke-width="1.84"
       stroke-opacity="1"
       stroke-linecap="round"
       stroke-linejoin="round"
       d="m 522.096,509.831 q -0.051,0.139 0.336,-0.16 0.388,-0.3 1.206,-0.986 0.817,-0.686 1.791,-1.282 0.973,-0.597 3,-1.204 2.027,-0.607 4.293,-1.599 -0.227,0.237 2.147,2.561 2.373,2.324 3.592,3.564 1.219,1.239 1.884,1.816 0.665,0.577 1.179,1.004 -0.286,-0.098 -0.259,-0.104 -0.143,-0.08 -0.235,-0.142" />
    <path
       id="STROKE_05e7a96a-6dc4-46fb-a76b-70d387d1b8f9"
       opacity="1"
       fill="none"
       stroke="#71c047"
       stroke-width="1.84"
       stroke-opacity="1"
       stroke-linecap="round"
       stroke-linejoin="round"
       d="m 525.514,546.221 q 0.14,-0.002 -0.139,-0.025 -0.28,-0.022 -0.417,0.032 -0.138,0.054 -0.258,0.155 -0.12,0.101 -0.196,0.191 -0.076,0.09 -0.103,0.205 -0.028,0.116 -0.048,0.087 -0.021,-0.028 -0.105,0.588 -0.084,0.616 0.088,1.412 0.172,0.796 0.629,1.524 0.458,0.728 0.997,1.276 0.539,0.549 1.197,0.868 0.658,0.319 1.24,0.343 0.583,0.025 1.033,0.02 0.451,-0.005 1.069,-0.437 0.619,-0.431 0.957,-0.757 0.338,-0.325 0.695,-0.806 0.357,-0.482 0.502,-1.125 0.145,-0.644 0.153,-1.19 0.008,-0.547 -0.357,-1.104 -0.364,-0.558 -0.993,-0.987 -0.629,-0.429 -1.498,-0.657 -0.87,-0.227 -1.518,-0.306 -0.648,-0.079 -1.033,-0.011 -0.384,0.068 -0.454,0.149 -0.069,0.08 -0.146,0.175 -0.076,0.095 -0.07,0.11 0.005,0.014 0.005,0.009 0,-0.006 10e-4,0.045 0.254,0 0.211,0 0.368,-0.004 0.281,-0.007 0.14,0.013 1.66,-0.537 1.52,-0.55 2.806,-1.152 1.287,-0.602 1.939,-0.935 0.652,-0.332 1.496,-0.604 0.844,-0.272 1.562,-0.347 0.719,-0.075 1.309,0.055 0.59,0.131 1.048,0.444 0.457,0.313 0.924,0.934 0.467,0.621 0.854,1.343 0.386,0.722 0.368,3.709 -0.018,2.988 0.013,3.073" />
    <path
       id="STROKE_35170891-4e19-45b1-8fc0-3ffb696f0a71"
       opacity="1"
       fill="none"
       stroke="#71c047"
       stroke-width="1.84"
       stroke-opacity="1"
       stroke-linecap="round"
       stroke-linejoin="round"
       d="m 538.065,536.733 q 0.015,0.017 0.892,-0.006 0.878,-0.024 1.491,-0.033 0.613,-0.009 1.566,0.374 0.952,0.384 1.452,0.75 0.5,0.367 0.695,0.531" />
    <path
       id="STROKE_bb1010aa-032b-42a0-81ee-459d4bee183f"
       opacity="1"
       fill="none"
       stroke="#71c047"
       stroke-width="1.84"
       stroke-opacity="1"
       stroke-linecap="round"
       stroke-linejoin="round"
       d="m 525.764,529.534 q 0.13,-0.038 -0.117,0.005 -0.246,0.043 -0.434,0.061 -0.188,0.018 -0.257,-0.033 -0.07,-0.051 -0.427,-0.553 -0.357,-0.502 -0.516,-1.595 -0.159,-1.093 -0.184,-1.905 -0.025,-0.812 0.02,-1.54 0.044,-0.728 0.301,-1.16 0.256,-0.431 0.596,-0.802 0.34,-0.371 1.239,-0.502 0.898,-0.131 1.578,-0.104 0.679,0.026 2.563,1.525 1.884,1.499 3.229,2.848 1.345,1.349 2.302,2.15 0.957,0.801 1.827,1.139 0.87,0.338 1.399,0.35 0.528,0.012 0.956,-0.122 0.428,-0.135 0.803,-0.375 0.375,-0.239 0.708,-1.224 0.333,-0.985 0.299,-1.861 -0.035,-0.875 -0.599,-1.941 -0.564,-1.065 -1.456,-1.95 -0.892,-0.886 -1.477,-1.26 -0.586,-0.374 -1.05,-0.492 -0.464,-0.117 -1.046,-0.005 -0.582,0.112 -1.079,0.93 -0.497,0.818 -0.618,1.268 -0.122,0.45 -0.585,1.78 -0.463,1.33 -1.002,2.352 -0.538,1.023 -1.192,1.94 -0.654,0.918 -1.385,1.589 -0.73,0.672 -1.362,0.936 -0.632,0.263 -1.284,0.405 -0.652,0.141 -1.607,-1.284 -0.955,-1.424 -1.185,-1.777" />
  </g>
  <metadata
     id="metadata888">
    <rdf:RDF>
      <cc:Work
         rdf:about="">
        <dc:title>Random blog drawings</dc:title>
      </cc:Work>
    </rdf:RDF>
  </metadata>
</svg>
