<?xml version="1.0" encoding="UTF-8" standalone="no"?>
<svg
   width="107.59141mm"
   height="50.769817mm"
   version="1.1"
   viewBox="-1664.014 240.936 559.13486 263.84537"
   id="svg72"
   sodipodi:docname="example.svg"
   inkscape:version="1.1.2 (0a00cf5339, 2022-02-04, custom)"
   xmlns:inkscape="http://www.inkscape.org/namespaces/inkscape"
   xmlns:sodipodi="http://sodipodi.sourceforge.net/DTD/sodipodi-0.dtd"
   xmlns="http://www.w3.org/2000/svg"
   xmlns:svg="http://www.w3.org/2000/svg"
   xmlns:rdf="http://www.w3.org/1999/02/22-rdf-syntax-ns#"
   xmlns:cc="http://creativecommons.org/ns#"
   xmlns:dc="http://purl.org/dc/elements/1.1/">
  <sodipodi:namedview
     id="namedview74"
     pagecolor="#ffffff"
     bordercolor="#666666"
     borderopacity="1.0"
     inkscape:pageshadow="2"
     inkscape:pageopacity="0.0"
     inkscape:pagecheckerboard="0"
     inkscape:document-units="mm"
     showgrid="false"
     fit-margin-top="5"
     fit-margin-bottom="5"
     fit-margin-left="2"
     fit-margin-right="2"
     inkscape:zoom="3.5894829"
     inkscape:cx="180.66669"
     inkscape:cy="122.30174"
     inkscape:current-layer="svg72" />
  <!--
	Exported with Concepts: Smarter Sketching
	Version: 1055 on iOS 15.3
	https://concepts.app/
	-->
  <title
     id="title2">The big line problem</title>
  <desc
     id="desc4">Drawing exported from Concepts: Smarter Sketching</desc>
  <defs
     id="defs6" />
  <metadata
     id="metadata891">
    <rdf:RDF>
      <cc:Work
         rdf:about="">
        <dc:title>The big line problem</dc:title>
      </cc:Work>
    </rdf:RDF>
  </metadata>
  <g
     id="g1147"
     opacity="1"
     transform="matrix(0,2,-2,0,-627.61626,3588.2339)">
    <path
       id="path1021"
       opacity="1"
       fill="none"
       stroke="#333333"
       stroke-width="1.837"
       stroke-opacity="1"
       stroke-linecap="round"
       stroke-linejoin="round"
       d="m -1623.766,497.968 -0.2,-0.028 q -0.303,0.102 -0.416,-2.472 10e-4,-0.021 0.681,-0.209 0.68,-0.189 2.762,0.779 2.082,0.968 3.201,1.605 1.119,0.637 2.17,0.902 1.051,0.265 1.724,0.041 0.673,-0.224 1.253,-0.953 0.579,-0.728 0.944,-1.099 0.365,-0.37 0.918,-0.737 0.554,-0.366 1.699,-0.544 1.146,-0.178 3.477,0.154 2.33,0.331 3.57,0.46 1.239,0.13 2.731,0.154 1.492,0.025 4.43,0.76 2.937,0.736 3.292,0.867" />
    <path
       id="path1023"
       opacity="1"
       fill="none"
       stroke="#333333"
       stroke-width="1.837"
       stroke-opacity="1"
       stroke-linecap="round"
       stroke-linejoin="round"
       d="m -1623.573,496.934 q -0.112,-0.029 -0.437,-0.432 -0.325,-0.402 -0.551,-0.879 -0.227,-0.476 -0.352,-1.333 -0.125,-0.857 -0.152,-2.739 -0.027,-1.882 0.078,-3.414 0.104,-1.532 0.725,-4.036 0.62,-2.503 0.855,-5.14 0.235,-2.636 -0.563,-7.413 -0.798,-4.776 -1.044,-6.227 -0.247,-1.452 -0.283,-1.962 -0.036,-0.51 0.521,-2.472 0.557,-1.961 0.605,-2.421 0.048,-0.46 0.068,-1.08 0.021,-0.62 -0.129,-1.477 -0.15,-0.856 -0.348,-1.485 -0.198,-0.628 -1.367,-4.151 0.739,-0.546 1.311,-0.847 0.571,-0.3 1.57,-0.777 0.998,-0.476 1.712,-0.703 0.713,-0.227 1.094,-0.255 0.382,-0.027 1.018,-0.069 0.636,-0.042 3.377,-0.067 2.741,-0.025 4.894,0.225 2.153,0.251 4.955,0.702 2.802,0.451 5.63,0.461 2.829,0.01 4.557,0.153 1.728,0.144 2.771,0.444 1.044,0.3 1.585,0.531 0.542,0.231 0.878,0.421 0.337,0.191 0.771,0.581 0.433,0.389 0.603,0.655 0.169,0.266 0.383,0.919 0.214,0.653 0.569,4.07 0.355,3.418 0.498,6.037 0.143,2.62 0.448,4.301 0.305,1.681 1.234,4.372 0.929,2.691 1.513,4.632 0.584,1.94 0.703,3.681 0.118,1.741 -0.346,3.125 -0.463,1.385 -1.612,3.63 -1.149,2.244 -2.58,7.668 -1.431,5.423 -1.649,5.941" />
    <path
       id="path1025"
       opacity="1"
       fill="none"
       stroke="#333333"
       stroke-width="1.837"
       stroke-opacity="1"
       stroke-linecap="round"
       stroke-linejoin="round"
       d="m -1622.372,424.139 q -0.04,-0.087 -0.04,-0.3 0,-0.214 0.181,-0.483 0.181,-0.27 0.555,-0.511 0.375,-0.241 2.108,-0.532 1.734,-0.291 4.001,0.138 2.267,0.428 4.797,1.249 2.531,0.821 5.065,1.259 2.533,0.437 4.479,0.541 1.946,0.103 3.962,-0.534 2.015,-0.638 3.232,-1.308 1.217,-0.669 3.512,-1.02 2.296,-0.351 4.897,0.02 2.601,0.372 2.47,0.531" />
    <path
       id="path1027"
       opacity="1"
       fill="none"
       stroke="#333333"
       stroke-width="1.825"
       stroke-opacity="1"
       stroke-linecap="round"
       stroke-linejoin="round"
       d="m -1624.511,421.098 -0.464,-0.19 q -0.199,-0.113 -0.477,-0.322 -0.278,-0.21 -0.366,-0.3 -0.087,-0.09 -0.794,-0.902 -0.707,-0.812 -1.237,-4.639 -0.53,-3.827 -0.589,-6.35 -0.059,-2.524 -0.174,-5.126 -0.115,-2.601 0.506,-5.778 0.621,-3.177 1.102,-4.685 0.482,-1.509 0.542,-2.561 0.06,-1.053 -0.034,-1.629 -0.094,-0.576 -0.314,-1.097 -0.219,-0.521 -0.878,-1.808 -0.659,-1.286 -0.903,-2.054 -0.244,-0.768 -0.248,-0.857 -0.01,-0.09 -0.057,-1 -0.053,-0.911 -0.103,-1.611 -0.049,-0.7 -0.059,-0.988 -0.01,-0.287 0.041,-0.538 -0.015,-0.113 6.293,-0.184 6.307,-0.071 9.937,-0.042 3.629,0.029 5.496,-0.055 1.868,-0.084 3.333,-0.319 1.464,-0.235 3.079,-0.322 1.614,-0.086 3.299,-0.152 1.684,-0.067 2.63,0.034 0.947,0.1 2.05,0.627 1.104,0.526 1.766,0.987 0.662,0.461 0.919,0.729 0.257,0.268 0.301,0.33 0.045,0.062 0.285,0.537 0.24,0.476 0.618,1.822 0.378,1.346 0.743,2.665 0.365,1.318 0.799,2.748 0.435,1.429 1.256,3.67 0.82,2.241 1.428,4.098 0.608,1.857 0.647,3.045 0.039,1.188 -0.758,7.439 -0.798,6.25 -1.238,9.619 -0.439,3.369 -0.783,4.89 -0.343,1.52 -0.638,2.452 -0.296,0.932 -0.674,1.653 -0.378,0.721 -0.712,1.22" />
    <path
       id="path1029"
       opacity="1"
       fill="none"
       stroke="#333333"
       stroke-width="1.837"
       stroke-opacity="1"
       stroke-linecap="round"
       stroke-linejoin="round"
       d="m -1604.4,491.576 q -0.205,-0.144 -0.988,-1.499 -0.783,-1.355 -1.136,-2.354 -0.353,-0.998 -0.356,-1.239 0,-0.24 0.01,-0.699 0.01,-0.459 0.141,-1.113 0.133,-0.653 0.208,-0.971 0.075,-0.317 0.19,-1.157 0.115,-0.841 -0.19,-3 -0.305,-2.158 -0.805,-3.829 -0.499,-1.672 -0.784,-3.647 -0.285,-1.975 -0.206,-3.32 0.078,-1.345 0.361,-2.557 0.282,-1.212 0.499,-3.112 0.217,-1.9 0.362,-6.792 0.145,-4.892 0.164,-5.282" />
    <path
       id="path1031"
       opacity="1"
       fill="none"
       stroke="#333333"
       stroke-width="1.837"
       stroke-opacity="1"
       stroke-linecap="round"
       stroke-linejoin="round"
       d="m -1602.269,422.322 -0.534,-0.156 q -0.682,-0.283 -1.676,-1.249 -0.993,-0.966 -1.493,-1.633 -0.5,-0.668 -0.854,-1.455 -0.354,-0.788 -0.366,-2.483 -0.013,-1.696 0.407,-3.26 0.42,-1.564 0.683,-2.811 0.263,-1.248 0.293,-2.798 0.029,-1.551 0.122,-5.143 0.094,-3.591 0.044,-6.45 -0.05,-2.86 -0.332,-5.283 -0.283,-2.424 -0.239,-3.71 0.044,-1.287 0.178,-2.099 0.135,-0.812 0.248,-1.269 0.113,-0.458 0.345,-1.792 0.231,-1.334 0.343,-1.832" />
    <path
       id="path1033"
       opacity="1"
       fill="none"
       stroke="#fac141"
       stroke-width="1.837"
       stroke-opacity="1"
       stroke-linecap="round"
       stroke-linejoin="round"
       d="m -1618.94,493.521 q 0.017,-0.011 1.563,-0.266 1.545,-0.255 2.498,-0.364 0.953,-0.109 2.371,-0.171 1.418,-0.062 2.268,-0.061 0.85,0 2.084,0.077 l 0.077,0.058" />
    <path
       id="path1035"
       opacity="1"
       fill="none"
       stroke="#fac141"
       stroke-width="1.837"
       stroke-opacity="1"
       stroke-linecap="round"
       stroke-linejoin="round"
       d="m -1619.073,493.663 q -0.331,-0.103 -0.56,-0.307 -0.229,-0.205 -0.317,-0.821 -0.088,-0.615 -0.08,-1.063 0.01,-0.448 0.229,-1.012 0.222,-0.564 0.446,-0.872 0.224,-0.308 0.622,-0.727 0.398,-0.419 0.936,-0.799 0.539,-0.38 1.216,-0.671 0.677,-0.291 1.739,-0.552 1.061,-0.26 2.081,-0.39 1.019,-0.13 2.028,-0.152 1.008,-0.021 1.741,0.05 0.733,0.072 1.151,0.185 0.418,0.114 0.601,0.23 0.184,0.115 0.215,0.201 0.032,0.085 0.056,0.191" />
    <path
       id="path1037"
       opacity="1"
       fill="none"
       stroke="#fac141"
       stroke-width="1.837"
       stroke-opacity="1"
       stroke-linecap="round"
       stroke-linejoin="round"
       d="m -1611.913,491.75 q -0.012,-0.044 -0.062,-0.082 -0.05,-0.039 -0.319,-1.288 -0.269,-1.248 -0.324,-1.489" />
    <path
       id="path1039"
       opacity="1"
       fill="none"
       stroke="#fac141"
       stroke-width="1.837"
       stroke-opacity="1"
       stroke-linecap="round"
       stroke-linejoin="round"
       d="m -1620.02,483.877 q 0.031,0.026 1.471,-0.216 1.44,-0.242 2.315,-0.402 0.875,-0.161 1.718,-0.25 0.843,-0.089 2.089,-0.154 1.247,-0.064 2.495,-0.128 1.248,-0.063 1.379,-0.072" />
    <path
       id="path1041"
       opacity="1"
       fill="none"
       stroke="#fac141"
       stroke-width="1.837"
       stroke-opacity="1"
       stroke-linecap="round"
       stroke-linejoin="round"
       d="m -1613.5,479.642 q 0.133,10e-4 0.963,0.05 0.83,0.049 1.889,-0.256 1.059,-0.304 1.168,-0.344" />
    <path
       id="path1043"
       opacity="1"
       fill="none"
       stroke="#fac141"
       stroke-width="1.837"
       stroke-opacity="1"
       stroke-linecap="round"
       stroke-linejoin="round"
       d="m -1615.428,480.456 q -0.104,-0.047 -0.103,-0.076 -0.021,-0.038 -0.067,-0.163 -0.046,-0.126 -0.073,-0.201" />
    <path
       id="path1045"
       opacity="1"
       fill="none"
       stroke="#fac141"
       stroke-width="1.837"
       stroke-opacity="1"
       stroke-linecap="round"
       stroke-linejoin="round"
       d="m -1615.205,472.439 q -0.063,0.091 -0.138,0.415 -0.075,0.324 0.206,0.886 0.28,0.562 0.51,0.892 0.231,0.33 0.522,0.604 0.29,0.274 0.515,0.437 0.226,0.164 0.734,0.349 0.509,0.185 1.02,0.243 0.512,0.058 0.878,0.034 0.367,-0.025 0.717,-0.264 0.35,-0.239 0.48,-0.391 0.129,-0.151 0.317,-0.541 0.187,-0.39 0.226,-0.873 0.038,-0.483 0.023,-0.782 -0.015,-0.299 -0.088,-0.543 -0.074,-0.244 -0.37,-0.678 -0.296,-0.434 -0.422,-0.58" />
    <path
       id="path1047"
       opacity="1"
       fill="none"
       stroke="#fac141"
       stroke-width="1.837"
       stroke-opacity="1"
       stroke-linecap="round"
       stroke-linejoin="round"
       d="m -1614.239,468.129 q 0.167,-0.08 0.17,-0.117 0.043,-0.034 0.135,-0.585 0.091,-0.551 0.051,-1.019 -0.04,-0.468 -0.109,-0.645 -0.07,-0.177 -0.169,-0.335 -0.099,-0.158 -0.297,-0.291 -0.197,-0.133 -0.35,-0.143 -0.154,-0.01 -0.312,0.02 -0.158,0.03 -0.419,0.366 -0.261,0.335 -0.377,0.902 -0.116,0.566 -0.077,1.074 0.04,0.508 0.183,0.867 0.144,0.36 0.486,0.778 0.343,0.418 0.898,0.761 0.556,0.342 1.195,0.497 0.64,0.156 1.124,0.166 0.484,0.01 0.833,-0.092 0.348,-0.102 0.639,-0.401 0.291,-0.298 0.429,-0.535 0.137,-0.236 0.208,-0.48 0.072,-0.244 0.095,-0.375 0.023,-0.13 0.051,-0.604 0.029,-0.475 -0.281,-1.299 -0.309,-0.825 -0.682,-1.451 -0.372,-0.627 -0.503,-0.843" />
    <path
       id="path1049"
       opacity="1"
       fill="none"
       stroke="#f45e58"
       stroke-width="1.837"
       stroke-opacity="1"
       stroke-linecap="round"
       stroke-linejoin="round"
       d="m -1619.202,414.89 q 0.093,0.004 1.212,-0.018 1.119,-0.023 2.355,-0.091 1.236,-0.068 2.324,-0.195 1.088,-0.127 1.504,-0.227 0.417,-0.1 0.534,-0.139" />
    <path
       id="path1051"
       opacity="1"
       fill="none"
       stroke="#f45e58"
       stroke-width="1.837"
       stroke-opacity="1"
       stroke-linecap="round"
       stroke-linejoin="round"
       d="m -1619.907,417.926 q -0.084,0.067 -0.454,0.288 -0.37,0.221 -0.71,0.28 -0.339,0.06 -0.595,-0.057 -0.256,-0.116 -0.563,-0.527 -0.307,-0.41 -0.436,-0.655 -0.128,-0.246 -0.194,-0.395 -0.066,-0.15 -0.133,-0.307 -0.067,-0.157 -0.245,-0.783 -0.178,-0.626 -0.24,-1.38 -0.063,-0.754 -0.033,-1.354 0.029,-0.6 0.271,-1.272 0.242,-0.672 0.572,-1.158 0.331,-0.485 0.642,-0.747 0.311,-0.262 0.766,-0.387 0.456,-0.124 0.911,-0.088 0.456,0.036 0.862,0.32 0.406,0.285 0.62,0.537 0.214,0.253 0.371,0.463 0.157,0.21 0.428,0.938 0.272,0.729 0.348,1.822 0,-0.016 0.017,-0.648 0.015,-0.632 0.214,-1.342 0.199,-0.709 0.473,-1.279 0.274,-0.57 0.72,-1.019 0.446,-0.449 0.918,-0.708 0.473,-0.26 1.061,-0.332 0.588,-0.072 0.96,-0.058 0.371,0.014 0.685,0.104 0.315,0.09 0.665,0.38 0.351,0.29 0.556,0.54 0.205,0.25 0.557,1.192 0.352,0.943 0.551,2.143 0.199,1.199 0.25,2.262 0.051,1.063 0.043,1.618 -0.01,0.554 -0.099,0.955 -0.091,0.4 -0.227,0.626 -0.136,0.226 -0.259,0.313 -0.123,0.087 -0.227,0.085 -0.103,-0.002 -0.223,-0.03" />
    <path
       id="path1053"
       opacity="1"
       fill="none"
       stroke="#f45e58"
       stroke-width="1.837"
       stroke-opacity="1"
       stroke-linecap="round"
       stroke-linejoin="round"
       d="m -1614.72,404.86 q 0.077,0.207 0.284,0.483 0.208,0.277 0.78,0.391 0.573,0.115 1.104,0.03 0.531,-0.086 0.864,-0.319 0.332,-0.232 0.5,-0.544 0.168,-0.311 0.207,-0.629 0.04,-0.317 -0.095,-0.738 -0.135,-0.421 -0.511,-0.83 -0.377,-0.409 -0.764,-0.635 -0.387,-0.226 -0.918,-0.304 -0.532,-0.078 -0.842,-0.033 -0.31,0.045 -0.524,0.121 -0.214,0.076 -0.462,0.228 -0.248,0.151 -0.413,0.419 -0.166,0.268 -0.21,0.486 -0.044,0.218 -0.056,0.418 -0.012,0.201 0,0.504 0.01,0.303 0.149,0.712 0.14,0.409 0.294,0.639 0.154,0.229 0.325,0.381 0.171,0.152 0.551,0.187 0.38,0.036 0.578,0.023" />
    <path
       id="path1055"
       opacity="1"
       fill="none"
       stroke="#f45e58"
       stroke-width="1.837"
       stroke-opacity="1"
       stroke-linecap="round"
       stroke-linejoin="round"
       d="m -1622.672,399.241 q -0.071,-0.004 -0.186,0.014 10e-4,-0.093 1.15,-0.372 1.15,-0.279 3.101,-0.509 1.951,-0.231 3.422,-0.42 1.472,-0.188 2.388,-0.25 0.013,-0.006 -0.313,-0.011 -0.327,-0.006 -0.697,-0.116 -0.369,-0.109 -0.656,-0.313 -0.286,-0.204 -0.577,-0.811 -0.292,-0.607 -0.41,-1.209 -0.118,-0.603 -0.101,-1.054 0.018,-0.452 0.19,-0.846 0.172,-0.395 0.551,-0.715 0.38,-0.319 1.004,-0.466 0.623,-0.147 1.132,-0.17 0.509,-0.023 0.769,0.01 0.26,0.033 0.476,0.175 0.216,0.141 0.373,0.351 0.157,0.209 0.251,0.72 0.093,0.51 0.071,1.117 -0.022,0.606 -0.493,1.77 -0.47,1.165 -0.508,1.236" />
    <path
       id="path1057"
       opacity="1"
       fill="none"
       stroke="#333333"
       stroke-width="1.837"
       stroke-opacity="1"
       stroke-linecap="round"
       stroke-linejoin="round"
       d="m -1631.989,287.519 q -0.018,-0.018 -0.189,-0.211 -0.171,-0.194 -0.168,-0.226 0,-0.033 -0.075,-0.363 -0.079,-0.331 0.089,-0.73 0.168,-0.399 2.361,-0.738 2.192,-0.338 4.035,-0.105 1.842,0.233 4.462,0.714 2.62,0.481 4.464,0.545 1.843,0.063 3.366,-0.468 1.522,-0.532 3.056,-1.162 1.534,-0.629 3.015,-0.827 1.481,-0.198 5.602,0.209 4.121,0.408 6.384,0.581 2.262,0.172 3.541,0.19 1.278,0.017 3.185,-0.842 0,-0.129 -0.593,-0.416 -0.591,-0.286 -1.105,-0.462" />
    <path
       id="path1059"
       opacity="1"
       fill="none"
       stroke="#333333"
       stroke-width="1.837"
       stroke-opacity="1"
       stroke-linecap="round"
       stroke-linejoin="round"
       d="m -1632.506,283.999 q -0.032,-0.044 -1.043,-1.442 -1.011,-1.397 -1.482,-5.862 -0.471,-4.465 -0.681,-7.019 -0.21,-2.553 0.333,-5.478 0.543,-2.925 0.883,-4.35 0.34,-1.425 0.421,-2.254 0.08,-0.828 0.082,-1.038 0,-0.211 0.01,-0.585 0,-0.373 -0.421,-1.978 -0.425,-1.604 -0.665,-2.606 -0.239,-1.001 -0.266,-1.397 -0.026,-0.395 -0.181,-1.187 -0.155,-0.792 -0.226,-1.161 -0.07,-0.369 -0.081,-0.665 -0.012,-0.296 -0.01,-0.394 0.01,-0.098 0.105,-0.307 0.101,-0.209 0.158,-0.245 0.076,-0.16 1.66,0.413 1.583,0.573 2.989,0.998 1.405,0.425 2.983,0.681 1.578,0.256 3.774,0.345 2.197,0.088 4.435,-0.25 2.237,-0.338 4.961,-0.964 2.725,-0.626 4.639,-0.932 1.915,-0.307 3.579,-0.194 1.664,0.112 2.306,0.224 0.641,0.111 1.036,0.139 0.396,0.027 0.633,0.017 0.238,-0.01 0.284,0.009 0.047,0.019 0.849,-0.196 0.802,-0.215 1.388,-0.541 0.586,-0.326 1.128,-0.486 0.542,-0.16 1.763,-0.355 1.222,-0.195 1.555,-0.195 0.333,0 0.827,0.021 0.493,0.022 0.528,0.018 0.034,-0.004 0.661,0.151 0.627,0.155 1.041,0.33 0.414,0.174 0.778,0.315 0.365,0.141 1.417,1.139 1.052,0.999 1.372,1.525 0.32,0.527 0.488,1.238 0.169,0.711 -0.01,4.588 -0.179,3.877 0.066,8.801 0.244,4.924 0.601,7.405 0.357,2.481 0.215,4.223 -0.142,1.741 -0.41,2.624 -0.269,0.882 -0.378,3.638 -0.109,2.756 -0.171,3.315" />
    <path
       id="path1061"
       opacity="1"
       fill="none"
       stroke="#333333"
       stroke-width="1.837"
       stroke-opacity="1"
       stroke-linecap="round"
       stroke-linejoin="round"
       d="m -1608.611,283.958 q -0.029,-0.046 -0.406,-0.28 -0.377,-0.234 -0.823,-1.1 -0.446,-0.867 -0.76,-1.971 -0.313,-1.105 -0.636,-3.434 -0.322,-2.33 -0.281,-4.022 0.042,-1.691 0.691,-4.058 0.649,-2.367 1.099,-3.901 0.45,-1.534 0.388,-4.828 -0.062,-3.294 -0.405,-5.301 -0.343,-2.007 -0.057,-5.544 0.286,-3.537 0.37,-4.088" />
    <path
       id="path1063"
       opacity="1"
       fill="none"
       stroke="#1c7aa2"
       stroke-width="1.815"
       stroke-opacity="1"
       stroke-linecap="round"
       stroke-linejoin="round"
       d="m -1625.678,274.138 q 0.018,0.01 0.156,0.092 0.137,0.082 0.199,0.107 0.063,0.025 0.217,0.059 0.153,0.035 7.824,-0.979 l 0.091,-0.116" />
    <path
       id="path1065"
       opacity="1"
       fill="none"
       stroke="#1c7aa2"
       stroke-width="1.815"
       stroke-opacity="1"
       stroke-linecap="round"
       stroke-linejoin="round"
       d="m -1625.067,275.577 -0.205,-0.024 q -0.023,-0.029 -0.182,-0.043 -0.158,-0.015 -3.944,-8.533" />
    <path
       id="path1067"
       opacity="1"
       fill="none"
       stroke="#1c7aa2"
       stroke-width="1.815"
       stroke-opacity="1"
       stroke-linecap="round"
       stroke-linejoin="round"
       d="m -1623.196,273.06 -0.064,-0.69 q -0.024,-0.209 -0.724,-1.75 -0.699,-1.54 -0.86,-1.842" />
    <path
       id="path1069"
       opacity="1"
       fill="none"
       stroke="#1c7aa2"
       stroke-width="1.815"
       stroke-opacity="1"
       stroke-linecap="round"
       stroke-linejoin="round"
       d="m -1621.793,266.027 0.104,0.092 q 0.251,0.08 4.118,-0.46 l -0.023,-0.078" />
    <path
       id="path1071"
       opacity="1"
       fill="none"
       stroke="#1c7aa2"
       stroke-width="1.815"
       stroke-opacity="1"
       stroke-linecap="round"
       stroke-linejoin="round"
       d="m -1624.663,265.673 q -0.36,0.108 -0.675,0.198" />
    <path
       id="path1073"
       opacity="1"
       fill="none"
       stroke="#1c7aa2"
       stroke-width="1.815"
       stroke-opacity="1"
       stroke-linecap="round"
       stroke-linejoin="round"
       d="m -1622.628,259.051 -0.242,0.084 q -0.021,0.004 -0.165,0.108 -0.144,0.104 -0.213,0.259 -0.07,0.155 -0.072,0.41 0,0.254 0.018,0.319 0.021,0.064 0.284,0.418 0.262,0.353 0.554,0.524 0.292,0.17 0.719,0.269 0.427,0.1 1.004,0.054 0.576,-0.045 1.009,-0.421 0.433,-0.376 0.592,-0.883 0.16,-0.507 0.133,-0.896 -0.027,-0.388 -0.327,-0.7 -0.3,-0.312 -0.494,-0.402 -0.195,-0.091 -0.467,-0.162 -0.271,-0.071 -0.588,-0.094 l -0.186,0.015 q -0.082,0.058 -0.093,0.114 0.417,-0.024 0.501,-0.045 0.084,-0.02 1.127,-0.598 1.044,-0.577 2.007,-0.908 0.964,-0.331 1.218,-0.341 0.254,-0.01 0.45,-0.008 0.195,0.003 0.53,0.209 0.335,0.206 0.55,0.523 0.214,0.317 0.447,1.25 0.232,0.934 0.332,2.506 0.1,1.572 -0.094,2.442 -0.193,0.871 -0.296,1.151" />
    <path
       id="path1075"
       opacity="1"
       fill="none"
       stroke="#504695"
       stroke-width="1.815"
       stroke-opacity="1"
       stroke-linecap="round"
       stroke-linejoin="round"
       d="m -1600.715,405.098 -0.027,0.18 q -0.018,0.49 -0.014,0.538 0,0.048 0.121,0.364 0.117,0.317 1.085,1.287 0.969,0.97 2.109,1.707 1.14,0.736 1.985,1.014 0.845,0.277 1.672,0.338 0.828,0.061 1.475,-0.237 0.648,-0.298 1.192,-1.058 0.544,-0.76 0.708,-1.46 0.164,-0.7 0.179,-1.172 0.014,-0.472 -0.304,-1.06 -0.318,-0.589 -0.725,-0.957 -0.407,-0.368 -0.622,-0.503 -0.215,-0.134 -0.41,-0.207 -0.195,-0.073 -0.208,-0.085 -0.012,-0.012 -0.286,-0.023 -0.274,-0.012 -0.475,0.03 -0.2,0.041 -0.345,0.142 -0.146,0.1 -0.163,0.103 -0.016,0.003 -0.187,0.276 -0.17,0.273 -0.202,0.474 -0.031,0.201 -0.03,0.328 10e-4,0.127 -0.01,0.29 -0.01,0.164 0.445,0.885 0.453,0.721 0.619,0.926" />
    <path
       id="path1077"
       opacity="1"
       fill="none"
       stroke="#504695"
       stroke-width="1.815"
       stroke-opacity="1"
       stroke-linecap="round"
       stroke-linejoin="round"
       d="m -1594.487,400.554 q 0,0.173 1.772,0.013 1.775,-0.159 2.002,-0.219" />
    <circle
       id="circle1079"
       opacity="1"
       fill="#504695"
       stroke="#504695"
       stroke-width="0.1"
       stroke-opacity="1"
       fill-opacity="1"
       cx="-1596.469"
       cy="400.88699"
       r="0.90799999" />
    <path
       id="path1081"
       opacity="1"
       fill="none"
       stroke="#504695"
       stroke-width="1.815"
       stroke-opacity="1"
       stroke-linecap="round"
       stroke-linejoin="round"
       d="m -1601.411,396.158 q 0.038,-0.009 5.94,-0.077 5.902,-0.067 6.246,-0.1" />
    <path
       id="path1083"
       opacity="1"
       fill="none"
       stroke="#333333"
       stroke-width="1.837"
       stroke-opacity="1"
       stroke-linecap="round"
       stroke-linejoin="round"
       d="m -1629.72,357.09 q -0.018,-0.018 -0.189,-0.211 -0.171,-0.194 -0.168,-0.226 0,-0.033 -0.075,-0.363 -0.078,-0.331 0.09,-0.73 0.168,-0.399 2.36,-0.738 2.193,-0.338 4.035,-0.105 1.842,0.233 4.462,0.714 2.62,0.481 4.464,0.544 1.844,0.064 3.366,-0.467 1.522,-0.532 3.056,-1.162 1.534,-0.63 3.015,-0.827 1.481,-0.198 5.602,0.209 4.122,0.408 6.384,0.581 2.262,0.172 3.541,0.19 1.278,0.017 3.185,-0.842 0,-0.129 -0.593,-0.416 -0.591,-0.287 -1.105,-0.462" />
    <path
       id="path1085"
       opacity="1"
       fill="none"
       stroke="#333333"
       stroke-width="1.837"
       stroke-opacity="1"
       stroke-linecap="round"
       stroke-linejoin="round"
       d="m -1630.237,353.57 q -0.031,-0.044 -1.043,-1.442 -1.011,-1.397 -1.482,-5.862 -0.471,-4.465 -0.681,-7.019 -0.21,-2.553 0.333,-5.478 0.543,-2.925 0.884,-4.35 0.34,-1.425 0.42,-2.254 0.08,-0.828 0.083,-1.038 0,-0.211 0,-0.585 0,-0.373 -0.421,-1.978 -0.424,-1.604 -0.664,-2.606 -0.24,-1.002 -0.267,-1.397 -0.026,-0.395 -0.181,-1.187 -0.155,-0.792 -0.225,-1.161 -0.071,-0.369 -0.082,-0.665 -0.012,-0.296 -0.01,-0.394 0.01,-0.098 0.106,-0.307 0.1,-0.209 0.157,-0.245 0.076,-0.16 1.66,0.413 1.584,0.573 2.989,0.998 1.406,0.425 2.983,0.681 1.578,0.256 3.775,0.345 2.196,0.088 4.434,-0.25 2.237,-0.338 4.962,-0.964 2.724,-0.626 4.639,-0.933 1.914,-0.306 3.578,-0.193 1.664,0.112 2.306,0.224 0.642,0.111 1.037,0.139 0.395,0.027 0.632,0.017 0.238,-0.01 0.285,0.009 0.047,0.019 0.849,-0.196 0.802,-0.215 1.387,-0.541 0.586,-0.326 1.128,-0.486 0.542,-0.16 1.764,-0.355 1.221,-0.195 1.554,-0.195 0.334,0 0.827,0.021 0.493,0.022 0.528,0.018 0.035,-0.005 0.661,0.151 0.627,0.155 1.041,0.329 0.414,0.175 0.779,0.316 0.364,0.141 1.416,1.139 1.052,0.999 1.372,1.525 0.32,0.527 0.488,1.238 0.169,0.711 -0.01,4.588 -0.179,3.877 0.066,8.801 0.244,4.924 0.601,7.405 0.357,2.481 0.215,4.223 -0.142,1.741 -0.41,2.624 -0.269,0.882 -0.377,3.638 -0.109,2.756 -0.171,3.315" />
    <path
       id="path1087"
       opacity="1"
       fill="none"
       stroke="#333333"
       stroke-width="1.837"
       stroke-opacity="1"
       stroke-linecap="round"
       stroke-linejoin="round"
       d="m -1606.342,353.529 q -0.029,-0.046 -0.406,-0.28 -0.377,-0.234 -0.823,-1.1 -0.446,-0.867 -0.76,-1.971 -0.313,-1.105 -0.635,-3.434 -0.323,-2.33 -0.281,-4.022 0.041,-1.691 0.69,-4.058 0.649,-2.367 1.099,-3.901 0.45,-1.534 0.388,-4.828 -0.062,-3.294 -0.405,-5.301 -0.343,-2.007 -0.056,-5.544 0.286,-3.537 0.37,-4.088" />
    <path
       id="path1089"
       opacity="1"
       fill="none"
       stroke="#71c047"
       stroke-width="1.837"
       stroke-opacity="1"
       stroke-linecap="round"
       stroke-linejoin="round"
       d="m -1622.103,345.175 q 0,0.061 0.028,0.146 0.01,0.035 0.578,0.035 0.572,0 0.907,-0.048 0.335,-0.047 0.813,-0.121 0.478,-0.073 1.219,-0.191 0.74,-0.118 1.496,-0.216 0.755,-0.098 1.533,-0.205 0.778,-0.107 1.437,-0.226 0.66,-0.12 1.413,-0.299 l -0.027,-0.008" />
    <path
       id="path1091"
       opacity="1"
       fill="none"
       stroke="#71c047"
       stroke-width="1.837"
       stroke-opacity="1"
       stroke-linecap="round"
       stroke-linejoin="round"
       d="m -1622.092,346.604 q -0.272,-0.226 -0.533,-0.589 -0.261,-0.363 -0.457,-0.692 -0.197,-0.329 -0.743,-1.713 -0.546,-1.383 -0.933,-3.727 -0.387,-2.345 -0.429,-2.526" />
    <path
       id="path1093"
       opacity="1"
       fill="none"
       stroke="#71c047"
       stroke-width="1.837"
       stroke-opacity="1"
       stroke-linecap="round"
       stroke-linejoin="round"
       d="m -1616.243,344.076 q -0.015,-0.054 -0.537,-0.953 -0.521,-0.899 -0.822,-1.609 -0.301,-0.71 -0.518,-1.471 -0.216,-0.762 -0.304,-1.238 -0.088,-0.476 -0.119,-0.636" />
    <path
       id="path1095"
       opacity="1"
       fill="none"
       stroke="#71c047"
       stroke-width="1.837"
       stroke-opacity="1"
       stroke-linecap="round"
       stroke-linejoin="round"
       d="m -1611.66,344.646 q 0.014,-0.046 -0.301,-0.94 -0.316,-0.895 -0.53,-1.544 -0.213,-0.65 -0.383,-1.318 -0.17,-0.669 -0.512,-1.844 -0.341,-1.176 -0.399,-1.336" />
    <path
       id="path1097"
       opacity="1"
       fill="none"
       stroke="#71c047"
       stroke-width="1.837"
       stroke-opacity="1"
       stroke-linecap="round"
       stroke-linejoin="round"
       d="m -1617.884,335.201 0.029,0.01 q 0.049,-0.021 1.29,-0.454 1.241,-0.433 2.059,-0.747 0.818,-0.314 1.189,-0.51 0.372,-0.197 0.636,-0.402 0.265,-0.206 0.273,-0.399 0.01,-0.194 -0.971,-0.367 -0.979,-0.174 -2.115,-0.23 -1.137,-0.056 -1.895,-0.102 -0.759,-0.045 -1.398,-0.205 l -0.066,-0.059" />
    <path
       id="path1099"
       opacity="1"
       fill="none"
       stroke="#71c047"
       stroke-width="1.837"
       stroke-opacity="1"
       stroke-linecap="round"
       stroke-linejoin="round"
       d="m -1616.573,328.097 q -0.036,-0.179 -0.322,-0.752 -0.286,-0.573 -0.564,-0.896 -0.278,-0.324 -0.437,-0.435 -0.16,-0.111 -0.301,-0.15 -0.141,-0.039 -0.255,-0.019 -0.113,0.02 -0.182,0.113 -0.069,0.094 -0.108,0.488 -0.039,0.393 0.153,0.914 0.191,0.521 0.562,0.997 0.37,0.477 0.601,0.683 0.231,0.205 0.572,0.409 0.341,0.203 0.622,0.318 0.281,0.116 0.792,0.208 0.511,0.093 0.917,0.072 0.406,-0.021 0.718,-0.166 0.312,-0.145 0.661,-0.58 0.35,-0.436 0.599,-1.188 0.249,-0.752 0.263,-1.477 0.013,-0.726 -0.079,-1.106 -0.093,-0.381 -0.181,-0.633" />
    <path
       id="path1101"
       opacity="1"
       fill="none"
       stroke="#fac141"
       stroke-width="1.837"
       stroke-opacity="1"
       stroke-linecap="round"
       stroke-linejoin="round"
       d="m -1601.811,347.63 q 0.017,-0.011 1.563,-0.266 1.545,-0.255 2.498,-0.364 0.954,-0.109 2.371,-0.171 1.418,-0.062 2.268,-0.061 0.85,0 2.084,0.076 l 0.077,0.059" />
    <path
       id="path1103"
       opacity="1"
       fill="none"
       stroke="#fac141"
       stroke-width="1.837"
       stroke-opacity="1"
       stroke-linecap="round"
       stroke-linejoin="round"
       d="m -1601.944,347.772 q -0.331,-0.103 -0.56,-0.308 -0.229,-0.204 -0.317,-0.82 -0.088,-0.615 -0.08,-1.063 0.01,-0.448 0.23,-1.012 0.222,-0.564 0.445,-0.872 0.224,-0.308 0.622,-0.727 0.398,-0.419 0.937,-0.799 0.538,-0.38 1.215,-0.671 0.678,-0.291 1.739,-0.552 1.062,-0.261 2.081,-0.391 1.019,-0.13 2.028,-0.151 1.008,-0.021 1.741,0.05 0.734,0.072 1.151,0.185 0.418,0.114 0.601,0.23 0.184,0.115 0.215,0.201 0.032,0.085 0.056,0.19" />
    <path
       id="path1105"
       opacity="1"
       fill="none"
       stroke="#fac141"
       stroke-width="1.837"
       stroke-opacity="1"
       stroke-linecap="round"
       stroke-linejoin="round"
       d="m -1594.784,345.858 q -0.012,-0.043 -0.062,-0.081 -0.05,-0.039 -0.319,-1.288 -0.269,-1.248 -0.324,-1.489" />
    <path
       id="path1107"
       opacity="1"
       fill="none"
       stroke="#fac141"
       stroke-width="1.837"
       stroke-opacity="1"
       stroke-linecap="round"
       stroke-linejoin="round"
       d="m -1602.891,337.986 q 0.031,0.026 1.471,-0.216 1.44,-0.242 2.315,-0.403 0.876,-0.16 1.718,-0.249 0.843,-0.089 2.09,-0.154 1.246,-0.064 2.494,-0.128 1.248,-0.063 1.379,-0.072" />
    <path
       id="path1109"
       opacity="1"
       fill="none"
       stroke="#fac141"
       stroke-width="1.837"
       stroke-opacity="1"
       stroke-linecap="round"
       stroke-linejoin="round"
       d="m -1596.371,333.751 q 0.133,0.001 0.963,0.05 0.83,0.049 1.889,-0.256 1.059,-0.304 1.168,-0.344" />
    <path
       id="path1111"
       opacity="1"
       fill="none"
       stroke="#fac141"
       stroke-width="1.837"
       stroke-opacity="1"
       stroke-linecap="round"
       stroke-linejoin="round"
       d="m -1598.299,334.565 q -0.104,-0.047 -0.103,-0.076 -0.021,-0.038 -0.067,-0.163 -0.046,-0.126 -0.072,-0.201" />
    <path
       id="path1113"
       opacity="1"
       fill="none"
       stroke="#fac141"
       stroke-width="1.837"
       stroke-opacity="1"
       stroke-linecap="round"
       stroke-linejoin="round"
       d="m -1598.076,326.548 q -0.062,0.091 -0.137,0.415 -0.075,0.324 0.205,0.886 0.28,0.562 0.51,0.892 0.231,0.33 0.522,0.604 0.29,0.274 0.516,0.437 0.225,0.164 0.733,0.349 0.509,0.185 1.02,0.243 0.512,0.058 0.879,0.034 0.367,-0.025 0.717,-0.264 0.35,-0.239 0.479,-0.391 0.13,-0.151 0.317,-0.541 0.188,-0.39 0.226,-0.873 0.038,-0.484 0.023,-0.782 -0.015,-0.299 -0.088,-0.543 -0.074,-0.244 -0.37,-0.678 -0.296,-0.434 -0.422,-0.58" />
    <path
       id="path1115"
       opacity="1"
       fill="none"
       stroke="#fac141"
       stroke-width="1.837"
       stroke-opacity="1"
       stroke-linecap="round"
       stroke-linejoin="round"
       d="m -1597.109,322.238 q 0.166,-0.08 0.169,-0.117 0.044,-0.034 0.135,-0.585 0.091,-0.551 0.051,-1.019 -0.04,-0.469 -0.109,-0.645 -0.07,-0.177 -0.169,-0.335 -0.099,-0.158 -0.296,-0.291 -0.198,-0.133 -0.351,-0.143 -0.154,-0.01 -0.312,0.02 -0.158,0.03 -0.419,0.366 -0.26,0.335 -0.377,0.901 -0.116,0.567 -0.077,1.075 0.04,0.508 0.184,0.867 0.143,0.36 0.486,0.778 0.342,0.418 0.897,0.761 0.556,0.342 1.195,0.497 0.64,0.155 1.124,0.166 0.484,0.01 0.833,-0.092 0.349,-0.102 0.64,-0.401 0.29,-0.299 0.428,-0.535 0.137,-0.236 0.209,-0.48 0.071,-0.244 0.094,-0.375 0.023,-0.13 0.052,-0.604 0.028,-0.475 -0.281,-1.3 -0.31,-0.824 -0.683,-1.45 -0.372,-0.627 -0.503,-0.844" />
    <path
       id="path1117"
       opacity="1"
       fill="none"
       stroke="#1c7aa2"
       stroke-width="1.815"
       stroke-opacity="1"
       stroke-linecap="round"
       stroke-linejoin="round"
       d="m -1599.727,484.339 q 0.018,0.011 0.156,0.092 0.137,0.082 0.2,0.107 0.062,0.025 0.216,0.06 0.154,0.035 7.825,-0.98 l 0.091,-0.115" />
    <path
       id="path1119"
       opacity="1"
       fill="none"
       stroke="#1c7aa2"
       stroke-width="1.815"
       stroke-opacity="1"
       stroke-linecap="round"
       stroke-linejoin="round"
       d="m -1599.116,485.779 -0.205,-0.025 q -0.023,-0.028 -0.182,-0.043 -0.158,-0.015 -3.944,-8.532" />
    <path
       id="path1121"
       opacity="1"
       fill="none"
       stroke="#1c7aa2"
       stroke-width="1.815"
       stroke-opacity="1"
       stroke-linecap="round"
       stroke-linejoin="round"
       d="m -1597.245,483.262 -0.064,-0.69 q -0.024,-0.21 -0.723,-1.75 -0.7,-1.54 -0.86,-1.842" />
    <path
       id="path1123"
       opacity="1"
       fill="none"
       stroke="#1c7aa2"
       stroke-width="1.815"
       stroke-opacity="1"
       stroke-linecap="round"
       stroke-linejoin="round"
       d="m -1595.842,476.229 0.104,0.092 q 0.251,0.08 4.118,-0.46 l -0.023,-0.079" />
    <path
       id="path1125"
       opacity="1"
       fill="none"
       stroke="#1c7aa2"
       stroke-width="1.815"
       stroke-opacity="1"
       stroke-linecap="round"
       stroke-linejoin="round"
       d="m -1598.712,475.874 q -0.36,0.109 -0.675,0.199" />
    <path
       id="path1127"
       opacity="1"
       fill="none"
       stroke="#1c7aa2"
       stroke-width="1.815"
       stroke-opacity="1"
       stroke-linecap="round"
       stroke-linejoin="round"
       d="m -1596.676,469.253 -0.243,0.083 q -0.021,0.004 -0.165,0.108 -0.144,0.104 -0.213,0.259 -0.069,0.155 -0.072,0.41 0,0.255 0.018,0.319 0.022,0.065 0.284,0.418 0.262,0.354 0.554,0.524 0.292,0.17 0.72,0.27 0.427,0.099 1.003,0.054 0.576,-0.046 1.009,-0.422 0.433,-0.376 0.593,-0.883 0.159,-0.506 0.132,-0.895 -0.027,-0.389 -0.326,-0.701 -0.3,-0.311 -0.495,-0.402 -0.195,-0.09 -0.466,-0.161 -0.272,-0.072 -0.588,-0.094 l -0.187,0.014 q -0.081,0.059 -0.093,0.115 0.418,-0.024 0.501,-0.045 0.084,-0.021 1.128,-0.598 1.043,-0.577 2.007,-0.908 0.963,-0.331 1.217,-0.341 0.254,-0.01 0.45,-0.008 0.196,0.002 0.531,0.208 0.335,0.207 0.549,0.524 0.215,0.317 0.447,1.25 0.233,0.933 0.333,2.505 0.1,1.572 -0.094,2.443 -0.194,0.87 -0.296,1.15" />
    <path
       id="path1129"
       opacity="1"
       fill="none"
       stroke="#f45e58"
       stroke-width="1.837"
       stroke-opacity="1"
       stroke-linecap="round"
       stroke-linejoin="round"
       d="m -1602.429,273.153 q 0.093,0.005 1.212,-0.018 1.119,-0.022 2.355,-0.091 1.236,-0.068 2.324,-0.195 1.088,-0.126 1.505,-0.227 0.416,-0.1 0.533,-0.139" />
    <path
       id="path1131"
       opacity="1"
       fill="none"
       stroke="#f45e58"
       stroke-width="1.837"
       stroke-opacity="1"
       stroke-linecap="round"
       stroke-linejoin="round"
       d="m -1603.134,276.189 q -0.084,0.067 -0.454,0.288 -0.37,0.221 -0.709,0.281 -0.34,0.059 -0.596,-0.057 -0.255,-0.117 -0.563,-0.527 -0.307,-0.411 -0.435,-0.656 -0.129,-0.245 -0.195,-0.395 -0.066,-0.149 -0.133,-0.306 -0.067,-0.157 -0.245,-0.784 -0.177,-0.626 -0.24,-1.38 -0.063,-0.754 -0.033,-1.353 0.029,-0.6 0.271,-1.273 0.242,-0.672 0.573,-1.157 0.33,-0.486 0.641,-0.748 0.311,-0.262 0.766,-0.386 0.456,-0.125 0.911,-0.089 0.456,0.036 0.862,0.321 0.406,0.284 0.62,0.537 0.214,0.252 0.371,0.462 0.157,0.21 0.429,0.939 0.271,0.728 0.347,1.821 0,-0.015 0.017,-0.648 0.015,-0.632 0.214,-1.341 0.199,-0.71 0.473,-1.28 0.274,-0.57 0.72,-1.019 0.446,-0.448 0.918,-0.708 0.473,-0.26 1.061,-0.332 0.589,-0.071 0.96,-0.057 0.371,0.013 0.686,0.103 0.314,0.09 0.665,0.38 0.35,0.29 0.555,0.54 0.205,0.25 0.557,1.193 0.352,0.943 0.551,2.142 0.199,1.199 0.25,2.263 0.051,1.063 0.043,1.617 -0.01,0.555 -0.099,0.955 -0.091,0.401 -0.227,0.626 -0.136,0.226 -0.259,0.313 -0.123,0.088 -0.226,0.086 -0.104,-0.002 -0.224,-0.031" />
    <path
       id="path1133"
       opacity="1"
       fill="none"
       stroke="#f45e58"
       stroke-width="1.837"
       stroke-opacity="1"
       stroke-linecap="round"
       stroke-linejoin="round"
       d="m -1597.947,263.124 q 0.077,0.207 0.285,0.483 0.207,0.276 0.78,0.391 0.573,0.115 1.104,0.029 0.531,-0.086 0.863,-0.318 0.332,-0.233 0.5,-0.544 0.168,-0.312 0.207,-0.629 0.04,-0.318 -0.095,-0.738 -0.135,-0.421 -0.511,-0.831 -0.377,-0.409 -0.764,-0.635 -0.387,-0.226 -0.918,-0.304 -0.532,-0.078 -0.841,-0.033 -0.31,0.045 -0.525,0.121 -0.214,0.077 -0.462,0.228 -0.248,0.151 -0.413,0.419 -0.165,0.268 -0.21,0.486 -0.044,0.218 -0.056,0.418 -0.012,0.201 0,0.504 0.01,0.304 0.148,0.713 0.141,0.409 0.294,0.638 0.154,0.229 0.325,0.381 0.171,0.152 0.551,0.188 0.381,0.035 0.578,0.022" />
    <path
       id="path1135"
       opacity="1"
       fill="none"
       stroke="#f45e58"
       stroke-width="1.837"
       stroke-opacity="1"
       stroke-linecap="round"
       stroke-linejoin="round"
       d="m -1605.899,257.505 q -0.071,-0.004 -0.186,0.013 10e-4,-0.092 1.151,-0.371 1.15,-0.28 3.1,-0.51 1.951,-0.231 3.422,-0.419 1.472,-0.189 2.388,-0.25 0.014,-0.006 -0.313,-0.012 -0.327,-0.006 -0.696,-0.115 -0.37,-0.11 -0.656,-0.314 -0.287,-0.204 -0.578,-0.811 -0.291,-0.606 -0.41,-1.209 -0.118,-0.602 -0.101,-1.054 0.018,-0.452 0.19,-0.846 0.172,-0.395 0.552,-0.714 0.379,-0.32 1.003,-0.467 0.623,-0.146 1.132,-0.17 0.509,-0.023 0.769,0.01 0.26,0.033 0.476,0.175 0.217,0.142 0.373,0.351 0.157,0.209 0.251,0.72 0.094,0.511 0.071,1.117 -0.022,0.606 -0.493,1.771 -0.47,1.164 -0.508,1.236" />
    <path
       id="path1137"
       opacity="1"
       fill="none"
       stroke="#f85db3"
       stroke-width="1.332"
       stroke-opacity="1"
       stroke-linecap="round"
       stroke-linejoin="round"
       stroke-dasharray="0.133, 1.998"
       d="m -1594.611,464.714 q 0.01,0.025 0.011,0.021 10e-4,-0.005 -0.03,0.057 -0.031,0.062 -0.203,0.179 -0.172,0.118 -0.299,0.155 -0.127,0.037 -0.284,0.026 -0.157,-0.011 -0.216,0.045 -0.058,0.057 -0.838,-0.4 -0.78,-0.457 -1.457,-0.903 -0.676,-0.446 -1.424,-1.043 -0.749,-0.597 -1.274,-1.152 -0.526,-0.555 -1.141,-1.25 -0.614,-0.694 -1.093,-1.256 -0.48,-0.562 -0.926,-1.113 -0.445,-0.551 -1.574,-1.938 -1.128,-1.388 -1.853,-2.269 -0.726,-0.882 -1.086,-1.499 -0.36,-0.618 -1.173,-1.752 -0.813,-1.135 -1.624,-2.348 -0.811,-1.212 -1.346,-2.074 -0.535,-0.863 -0.987,-1.555 -0.451,-0.692 -0.734,-1.127 -0.283,-0.435 -0.559,-0.885 -0.276,-0.45 -1.08,-1.636 -0.804,-1.186 -1.487,-2.354 -0.684,-1.169 -1.263,-2.172 -0.579,-1.003 -1.383,-2.357 -0.803,-1.355 -1.413,-2.483 -0.61,-1.129 -1.235,-2.322 -0.625,-1.194 -0.944,-1.765 -0.319,-0.571 -1.04,-1.911 -0.722,-1.34 -1.048,-1.965 -0.325,-0.626 -2.14,-4.694 -1.814,-4.068 -2.961,-6.807 -1.148,-2.738 -1.639,-4.013 -0.492,-1.276 -0.729,-1.87 -0.237,-0.595 -0.474,-1.173 -0.238,-0.577 -1.208,-3.256 -0.971,-2.678 -2.266,-7.247 -1.295,-4.569 -1.917,-6.807 -0.621,-2.239 -0.903,-3.288 -0.281,-1.05 -0.54,-2.172 -0.259,-1.122 -0.487,-2.211 -0.229,-1.089 -0.349,-1.691 -0.12,-0.602 -0.391,-1.977 -0.271,-1.375 -0.569,-2.826 -0.298,-1.452 -0.556,-2.812 -0.258,-1.36 -0.589,-3.016 -0.331,-1.656 -0.785,-4.036 -0.455,-2.379 -0.817,-5.088 -0.361,-2.71 -0.537,-4.117 -0.175,-1.408 -0.548,-4.955 -0.372,-3.547 -0.638,-7.152 -0.266,-3.604 -0.368,-5.334 -0.101,-1.731 -0.163,-2.916 -0.062,-1.185 -0.14,-2.256 -0.078,-1.071 -0.203,-4.18 -0.125,-3.108 -0.16,-4.668 -0.035,-1.561 -0.044,-3.673 -0.01,-2.112 0.11,-4.173 0.119,-2.061 0.384,-4.375 0.266,-2.314 0.436,-3.49 0.171,-1.176 0.248,-1.77 0.077,-0.594 0.229,-1.469 0.151,-0.876 0.22,-1.377 0.07,-0.501 0.526,-2.763 0.456,-2.263 0.891,-3.767 0.435,-1.505 0.677,-2.407 0.242,-0.902 0.952,-2.766 0.71,-1.863 1.311,-3.2 0.601,-1.338 1.169,-2.376 0.567,-1.039 1.078,-1.892 0.511,-0.853 1.498,-2.111 0.986,-1.259 1.462,-1.833 0.475,-0.575 0.87,-1.079 0.395,-0.503 1.032,-1.486 0.015,0.009 0.031,0.018" />
    <path
       id="path1139"
       opacity="1"
       fill="none"
       stroke="#f85db3"
       stroke-width="1.332"
       stroke-opacity="1"
       stroke-linecap="round"
       stroke-linejoin="round"
       stroke-dasharray="0.133, 1.998"
       d="m -1581.395,267.81 q 0.134,-0.046 2.479,2.477 2.345,2.523 3.861,4.273 1.516,1.751 2.267,2.598 0.752,0.848 1.013,1.177 0.262,0.329 1.044,1.665 0.782,1.336 1.308,2.336 0.526,1 1.522,3.044 0.996,2.044 1.731,3.665 0.734,1.621 1.431,3.229 0.697,1.609 1.086,2.491 0.389,0.882 1.122,2.775 0.732,1.892 1.689,5.217 0.958,3.325 1.443,5.016 0.485,1.692 0.682,2.553 0.197,0.861 0.361,1.615 0.164,0.754 0.243,1.174 0.078,0.421 0.276,1.162 0.198,0.742 0.572,3.356 0.374,2.614 0.529,4.222 0.156,1.608 0.338,3.966 0.182,2.359 0.319,4.366 0.138,2.007 0.234,5.108 0.096,3.101 0.154,4.654 0.058,1.553 0.086,2.201 0.028,0.648 0.074,2.103 0.046,1.455 0.111,2.761 0.064,1.306 0.014,3.481 -0.049,2.175 -0.069,3.33 -0.019,1.155 -0.318,3.238 -0.299,2.083 -0.505,3.245 -0.206,1.161 -0.569,2.421 -0.363,1.26 -0.555,1.873 -0.191,0.613 -0.49,1.315 -0.299,0.703 -0.51,1.21 -0.211,0.508 -0.982,1.078 -0.77,0.571 -1.535,1.022 -0.765,0.45 -1.358,0.871 -0.594,0.421 -2.611,0.713 -2.017,0.293 -3.291,0.427 -1.274,0.134 -2.388,0.116 -1.114,-0.019 -1.999,-0.026 -0.885,-0.008 -2.577,-0.019 -1.692,-0.011 -2.68,-0.019 -0.987,-0.008 -2.113,-0.218 -1.125,-0.21 -1.92,-0.395 -0.795,-0.184 -2.103,-0.329 -1.31,-0.144 -2.521,-0.334 -1.212,-0.189 -1.923,-0.27 -0.711,-0.08 -2.072,-0.087 -1.361,-0.007 -2.783,-0.206 -1.422,-0.199 -2.444,-0.284 -1.023,-0.085 -1.733,-0.205 -0.709,-0.12 -3.093,-0.333 -2.383,-0.214 -3.56,-0.298 -1.178,-0.085 -2.047,-0.115 -0.869,-0.03 -1.314,-0.028 -0.446,0.002 -0.797,0.022 -0.352,0.019 -1.697,0.06 -1.344,0.041 -2.12,0.007 -0.776,-0.033 -1.828,0.135 -1.053,0.168 -1.598,0.272 -0.545,0.105 -0.831,0.207 -0.286,0.103 -0.634,0.41 -0.348,0.306 -0.427,0.405 -0.079,0.1 -0.527,0.663 -0.447,0.564 -0.655,1.661 -0.209,1.098 -0.243,1.795 -0.035,0.698 -0.062,1.102 -0.028,0.403 -0.062,1.583 -0.035,1.18 0.113,3.385 -0.01,-0.002 0.021,-0.154 0.029,-0.152 0.065,-0.238" />
    <path
       id="path1141"
       opacity="1"
       fill="none"
       stroke="#f85db3"
       stroke-width="1.332"
       stroke-opacity="1"
       stroke-linecap="round"
       stroke-linejoin="round"
       stroke-dasharray="0.133, 1.998"
       d="m -1583.717,400.45 q 0,0 0,0.003 0,0.003 0,0.038 -0.063,-0.015 1.5,-0.028 1.564,-0.014 3.466,0.209 1.902,0.222 3.351,0.279 1.449,0.058 2.154,0.051 0.704,-0.006 1.147,0.011 0.443,0.018 0.624,0.017 0.181,-10e-4 0.506,0.011 0.325,0.012 0.56,0.017 0.234,0.005 0.257,0.012" />
    <path
       id="path1143"
       opacity="1"
       fill="none"
       stroke="#f85db3"
       stroke-width="1.332"
       stroke-opacity="1"
       stroke-linecap="round"
       stroke-linejoin="round"
       stroke-dasharray="0.133, 1.998"
       d="m -1568.976,409.246 q -0.013,0.147 0.028,0.306 0.127,-0.24 0.175,-1.16 0.048,-0.92 0.045,-2.003 0,-1.083 -0.043,-2.306 -0.04,-1.223 -0.138,-3.224 -0.098,-2.001 -0.312,-3.434 -0.215,-1.432 -0.446,-2.204 -0.231,-0.773 -0.258,-1.053 -0.026,-0.28 -0.026,-0.316" />
    <path
       id="path1145"
       opacity="1"
       fill="none"
       stroke="#f85db3"
       stroke-width="1.332"
       stroke-opacity="1"
       stroke-linecap="round"
       stroke-linejoin="round"
       stroke-dasharray="0.133, 1.998"
       d="m -1655.801,512.329 q -0.49,0.03 -0.337,0 -0.107,-0.002 -1.043,-2.251 -0.937,-2.248 -1.435,-3.677 -0.498,-1.43 -0.835,-3.505 -0.336,-2.076 -0.4,-4.505 -0.064,-2.428 -0.134,-3.818 -0.071,-1.389 0.606,-3.912 0.677,-2.523 1.226,-4.125 0.549,-1.602 1.197,-2.711 0.648,-1.109 1.255,-1.97 0.607,-0.861 1.919,-2.333 1.312,-1.473 2.878,-2.613 1.566,-1.14 3.62,-2.337 2.054,-1.197 3.331,-1.886 1.276,-0.689 2.079,-1.167 0.802,-0.478 2.304,-1.137 1.503,-0.659 3.89,-1.226 2.386,-0.567 3.516,-0.921 1.129,-0.353 2.784,-0.508 1.655,-0.156 2.21,-0.169 0.555,-0.012 1.354,0.031 0.799,0.043 1.291,0.197 0.492,0.154 0.785,0.225 0.292,0.071 0.702,0.258 0,0.012 0,0.047 -0.185,0.009 -0.224,-0.044 -0.039,-0.054 -0.125,-0.129" />
  </g>
</svg>
