<?xml version="1.0" encoding="UTF-8" standalone="no"?>
<svg
   width="143.06538mm"
   height="55.956219mm"
   version="1.1"
   viewBox="-1892.132 139.558 743.49316 290.79543"
   id="svg121"
   sodipodi:docname="line_focus_last.svg"
   inkscape:version="1.1.2 (0a00cf5339, 2022-02-04, custom)"
   xmlns:inkscape="http://www.inkscape.org/namespaces/inkscape"
   xmlns:sodipodi="http://sodipodi.sourceforge.net/DTD/sodipodi-0.dtd"
   xmlns="http://www.w3.org/2000/svg"
   xmlns:svg="http://www.w3.org/2000/svg"
   xmlns:rdf="http://www.w3.org/1999/02/22-rdf-syntax-ns#"
   xmlns:cc="http://creativecommons.org/ns#"
   xmlns:dc="http://purl.org/dc/elements/1.1/">
  <sodipodi:namedview
     id="namedview123"
     pagecolor="#ffffff"
     bordercolor="#666666"
     borderopacity="1.0"
     inkscape:pageshadow="2"
     inkscape:pageopacity="0.0"
     inkscape:pagecheckerboard="0"
     inkscape:document-units="mm"
     showgrid="false"
     fit-margin-top="5"
     fit-margin-bottom="5"
     fit-margin-left="2"
     fit-margin-right="2"
     inkscape:zoom="2.1434252"
     inkscape:cx="270.36166"
     inkscape:cy="105.90526"
     inkscape:current-layer="svg121" />
  <!--
	Exported with Concepts: Smarter Sketching
	Version: 1055 on iOS 15.3
	https://concepts.app/
	-->
  <title
     id="title2">The big line problem</title>
  <desc
     id="desc4">Drawing exported from Concepts: Smarter Sketching</desc>
  <defs
     id="defs6" />
  <g
     id="Pen"
     opacity="1"
     transform="matrix(0,1.6,-1.6,0,-928.20465,3185.1629)">
    <path
       id="STROKE_80326aac-bd67-44b8-92a8-618c60473399"
       opacity="1"
       fill="none"
       stroke="#f45e58"
       stroke-width="1.736"
       stroke-opacity="1"
       stroke-linecap="round"
       stroke-linejoin="round"
       d="m -1880.834,574.562 q 0.013,0.422 0.041,1.035 0.028,0.614 1.532,1.655 1.503,1.042 2.573,1.472 1.071,0.431 1.807,0.703 0.736,0.272 3.09,0.554 2.355,0.283 4.002,0.192 1.647,-0.09 2.948,-0.58 1.3,-0.491 2.524,-1.457 1.224,-0.966 2.056,-2.154 0.831,-1.189 1.161,-2.754 0.33,-1.565 0.221,-2.616 -0.109,-1.052 -0.842,-2.181 -0.732,-1.129 -2.287,-2.221 -1.555,-1.093 -3.332,-1.881 -1.776,-0.788 -4.338,-1.128 -2.562,-0.339 -3.992,-0.263 -1.43,0.076 -2.348,0.22 -0.919,0.144 -2.085,0.608 -1.166,0.464 -1.948,1.08 -0.783,0.617 -1.273,1.526 -0.489,0.909 -0.626,2.174 -0.137,1.264 0.154,2.798 0.291,1.534 1.14,2.863 0.85,1.329 1.713,2.21 0.862,0.881 2.427,1.647 1.565,0.766 5.795,1.264" />
    <path
       id="STROKE_e071ac7c-c8dd-44ac-9a8f-7b7d6e6e2241"
       opacity="1"
       fill="none"
       stroke="#f45e58"
       stroke-width="1.837"
       stroke-opacity="1"
       stroke-linecap="round"
       stroke-linejoin="round"
       d="m -1854.245,572.806 0.301,0.022 q 0.027,0.056 15.289,-2.353 0.076,0.095 0.214,1.049 0.137,0.954 0.553,2.033 0.416,1.08 2.376,3.511 1.961,2.431 6.953,7.094 l 0.139,0.193" />
    <path
       id="STROKE_fa8d8e98-d628-46ca-a200-fe17e66fa779"
       opacity="1"
       fill="none"
       stroke="#f45e58"
       stroke-width="1.837"
       stroke-opacity="1"
       stroke-linecap="round"
       stroke-linejoin="round"
       d="m -1837.532,570.357 q 0.01,-0.05 0.481,-0.672 0.475,-0.622 2.735,-1.852 2.259,-1.229 3.754,-1.933 1.495,-0.704 3.044,-1.542 l 0.124,-0.059" />
    <path
       id="STROKE_3d0cfece-b081-4954-b1a6-79388db691f7"
       opacity="1"
       fill="none"
       stroke="#f45e58"
       stroke-width="1.837"
       stroke-opacity="1"
       stroke-linecap="round"
       stroke-linejoin="round"
       d="m -1848.01,574.06 q -0.193,0.209 -1.251,4.58 -1.058,4.37 -1.103,8.896 0.05,0.042 0.204,0.056 0.154,0.014 0.36,-0.024" />
    <path
       id="STROKE_ddf999e6-7ca2-47a2-a6ce-588c7824b074"
       opacity="1"
       fill="none"
       stroke="#f45e58"
       stroke-width="1.702"
       stroke-opacity="1"
       stroke-linecap="round"
       stroke-linejoin="round"
       d="m -1848.807,571.909 q -0.053,-0.016 -1.709,-2.302 -1.655,-2.285 -3.723,-7.28 -2.068,-4.995 -2.229,-5.345" />
    <path
       id="STROKE_cb78ae72-8df1-41df-8a90-5a49a8981479"
       opacity="1"
       fill="none"
       stroke="#333333"
       stroke-width="1.837"
       stroke-opacity="1"
       stroke-linecap="round"
       stroke-linejoin="round"
       d="m -1847.119,525.441 q 0.153,0.729 0.226,0.838 0.074,0.109 0.302,0.33 0.228,0.22 0.27,0.23 0.041,0.009 0.255,0.154 0.214,0.146 0.999,0.254 0.784,0.109 1.265,-0.013 0.48,-0.123 0.933,-0.662 0.452,-0.538 0.6,-1.103 0.148,-0.565 0.037,-1.222 -0.111,-0.658 -0.552,-0.983 -0.441,-0.325 -0.88,-0.325 -0.439,0 -0.691,0.108 -0.252,0.107 -0.553,0.645 -0.3,0.538 -0.385,1.373 -0.084,0.835 0.198,1.648 0.281,0.813 1.463,1.807" />
    <path
       id="STROKE_7adcfd0e-d649-4992-9a7b-e8f641b012d4"
       opacity="1"
       fill="none"
       stroke="#333333"
       stroke-width="1.837"
       stroke-opacity="1"
       stroke-linecap="round"
       stroke-linejoin="round"
       d="m -1845.261,512.467 q -0.054,0.396 -0.023,0.438 l 0.038,0.418 q 0.039,0.351 0.646,0.943 0.608,0.592 1.46,0.704 0.852,0.112 1.197,-0.318 0.345,-0.431 0.366,-0.97 0.021,-0.54 -0.124,-0.981 -0.145,-0.44 -0.42,-0.785 -0.275,-0.344 -0.378,-0.451 -0.104,-0.107 -0.676,-0.374 -0.571,-0.266 -0.861,-0.291 -0.29,-0.026 -0.701,0.087 -0.41,0.114 -0.643,0.552 -0.232,0.439 -0.247,0.98 -0.016,0.54 0.545,1.406 0.561,0.867 0.72,1.053" />
    <path
       id="STROKE_f8c45261-e10c-4836-b4e1-ac7dbcb09a89"
       opacity="1"
       fill="none"
       stroke="#333333"
       stroke-width="1.837"
       stroke-opacity="1"
       stroke-linecap="round"
       stroke-linejoin="round"
       d="m -1844.93,504.653 q 0.024,0.045 0.141,0.169 0.118,0.124 0.395,0.316 0.277,0.191 0.304,0.216 0.027,0.024 0.655,0.164 0.628,0.141 1.094,0.043 0.465,-0.097 0.668,-0.482 0.204,-0.386 0.236,-0.693 0.032,-0.307 0.011,-0.49 -0.02,-0.183 -0.051,-0.323 -0.03,-0.141 -0.634,-0.917 -0.605,-0.776 -1.207,-1.07 -0.602,-0.295 -0.878,-0.355 -0.276,-0.06 -0.912,-0.002 -0.637,0.057 -0.726,1.917 -0.09,1.859 -0.021,2.239" />
    <path
       id="STROKE_f06b08c1-2eac-4de1-bd3a-51e6b9132024"
       opacity="1"
       fill="none"
       stroke="#000000"
       stroke-width="1.742"
       stroke-opacity="1"
       stroke-linecap="round"
       stroke-linejoin="round"
       d="m -1881.623,467.15 q -0.696,1.25 -0.725,1.644 -0.028,0.394 0.012,0.619 0.04,0.224 0.26,0.555 0.219,0.33 1.221,1.088 1.002,0.758 2.858,1.568 1.856,0.809 4.226,1.152 2.37,0.343 4.107,0.304 1.737,-0.04 3.518,-0.699 1.781,-0.658 3.119,-1.677 1.338,-1.018 2.107,-1.968 0.769,-0.949 1.252,-1.732 0.482,-0.783 0.996,-2.472 0.514,-1.689 0.626,-3.231 0.112,-1.542 -0.231,-3.072 -0.344,-1.53 -1.236,-2.875 -0.892,-1.345 -2.399,-2.574 -1.507,-1.229 -3.379,-1.983 -1.871,-0.755 -4.152,-0.985 -2.28,-0.23 -4.3,-0.015 -2.02,0.215 -3.708,0.914 -1.688,0.699 -2.885,1.581 -1.198,0.882 -1.978,2.02 -0.78,1.137 -1.09,3.044 -0.31,1.906 -0.198,3.48 0.111,1.573 0.751,3.151 0.64,1.579 1.421,2.633 0.78,1.054 2.177,2.093 1.397,1.039 4.204,1.137 2.808,0.098 3.666,0.073" />
    <path
       id="STROKE_696ea1ad-bbe4-496f-97f8-6a53595b84a7"
       opacity="1"
       fill="none"
       stroke="#000000"
       stroke-width="1.837"
       stroke-opacity="1"
       stroke-linecap="round"
       stroke-linejoin="round"
       d="m -1852.192,460.036 q 0.062,0.09 3.335,-0.472 3.273,-0.561 6.09,-0.909 2.816,-0.348 4.225,-0.369 1.409,-0.022 1.882,0.024 0.472,0.045 0.772,0.25 0.3,0.205 0.454,0.821 0.154,0.616 0.325,1.398 0.171,0.783 0.425,1.409 0.253,0.627 0.488,1.084 0.235,0.456 0.419,0.756 0.183,0.3 0.327,0.543 0.144,0.243 1.328,1.742 1.183,1.499 2.499,2.796 1.315,1.297 2.196,2.036 0.881,0.739 1.401,1.12 0.521,0.382 0.753,0.446" />
    <path
       id="STROKE_ac68dbfe-ab90-46c9-baf9-f67e84a2c8aa"
       opacity="1"
       fill="none"
       stroke="#000000"
       stroke-width="1.837"
       stroke-opacity="1"
       stroke-linecap="round"
       stroke-linejoin="round"
       d="m -1836.073,456.327 q 0.346,0.113 8.966,-5.278 -0.049,-0.091 -0.321,-0.283" />
    <path
       id="STROKE_d05a198c-375f-415e-bfe2-d5a54d781ffa"
       opacity="1"
       fill="none"
       stroke="#000000"
       stroke-width="1.837"
       stroke-opacity="1"
       stroke-linecap="round"
       stroke-linejoin="round"
       d="m -1850.495,462.817 q -0.139,0.273 -0.799,2.501 -0.66,2.229 -0.788,4.168 -0.129,1.94 -0.064,2.771 0.064,0.832 0.208,1.236 0.145,0.405 0.415,0.564 0.27,0.158 0.561,0.277" />
    <path
       id="STROKE_da7532d2-ab59-43e9-b591-282a3c9a9959"
       opacity="1"
       fill="none"
       stroke="#000000"
       stroke-width="1.837"
       stroke-opacity="1"
       stroke-linecap="round"
       stroke-linejoin="round"
       d="m -1850.266,458.019 q -0.286,-0.426 -1.281,-2.223 -0.996,-1.797 -1.705,-4.062 -0.71,-2.266 -1.078,-4.052 -0.368,-1.786 -0.509,-2.312" />
    <path
       id="STROKE_4f0ef3dd-3ffe-4f44-969c-23f4749e5e7e"
       opacity="1"
       fill="none"
       stroke="#000000"
       stroke-width="1.804"
       stroke-opacity="1"
       stroke-linecap="round"
       stroke-linejoin="round"
       d="m -1883.388,404.393 q 0.068,0.319 0.83,1.345 0.763,1.026 2.281,1.855 1.519,0.83 3.694,1.424 2.176,0.595 4.397,0.744 2.222,0.149 3.661,0.008 1.438,-0.141 2.674,-0.96 1.235,-0.819 2.025,-1.76 0.79,-0.941 1.371,-3.012 0.581,-2.07 0.712,-3.605 0.131,-1.534 -0.113,-2.662 -0.243,-1.128 -0.49,-1.65 -0.247,-0.522 -1.221,-1.556 -0.973,-1.033 -1.858,-1.575 -0.884,-0.542 -1.598,-0.908 -0.713,-0.365 -2.782,-0.761 -2.069,-0.397 -3.88,-0.474 -1.811,-0.077 -3.524,0.158 -1.713,0.234 -2.753,0.689 -1.04,0.455 -2.165,1.315 -1.124,0.86 -1.769,1.898 -0.644,1.038 -0.938,2.123 -0.294,1.086 -0.139,2.347 0.155,1.261 0.505,2.23 0.349,0.969 2.147,2.722 1.797,1.752 2.319,2.184" />
    <path
       id="STROKE_bb1a4bf9-f4c6-4589-ac41-85b1f14cd521"
       opacity="1"
       fill="none"
       stroke="#000000"
       stroke-width="1.756"
       stroke-opacity="1"
       stroke-linecap="round"
       stroke-linejoin="round"
       d="m -1856.867,397.673 q 0.745,0.102 0.792,0.117 0.135,0.071 5.934,0.103 5.798,0.032 9.031,-0.127 3.233,-0.159 4.86,-0.292 1.626,-0.132 3.144,-0.152 0.179,0.467 0.794,3.648 0.616,3.181 2.306,5.402 1.691,2.221 1.883,2.462" />
    <path
       id="STROKE_886c293b-87e3-4c89-9a4f-da07b9bd5622"
       opacity="1"
       fill="none"
       stroke="#000000"
       stroke-width="1.837"
       stroke-opacity="1"
       stroke-linecap="round"
       stroke-linejoin="round"
       d="m -1834.783,398.138 q 0.296,-0.36 0.935,-0.791 0.64,-0.43 1.597,-0.99 0.956,-0.56 2.28,-1.403 1.324,-0.844 1.779,-1.166 0.456,-0.323 0.989,-1.536 l -0.191,-0.432" />
    <path
       id="STROKE_f9fc7418-50dc-4328-b9f1-3796658f9f31"
       opacity="1"
       fill="none"
       stroke="#000000"
       stroke-width="1.837"
       stroke-opacity="1"
       stroke-linecap="round"
       stroke-linejoin="round"
       d="m -1848.875,401.911 q 0.026,0.07 -1.095,3.327 -1.121,3.256 -1.965,6.793 l 0.082,0.373" />
    <path
       id="STROKE_d9f6f0b7-7396-44f4-b37a-7f1860dacff3"
       opacity="1"
       fill="none"
       stroke="#000000"
       stroke-width="1.688"
       stroke-opacity="1"
       stroke-linecap="round"
       stroke-linejoin="round"
       d="m -1849.766,400.161 q -0.386,-0.266 -1.708,-3.278 -1.321,-3.012 -2.151,-6.337 -0.831,-3.325 -0.985,-3.823" />
    <path
       id="STROKE_5e04b126-8277-4b3b-8d5b-ab96a421e06e"
       opacity="1"
       fill="none"
       stroke="#000000"
       stroke-width="1.724"
       stroke-opacity="1"
       stroke-linecap="round"
       stroke-linejoin="round"
       d="m -1884.448,340.484 q 0.03,0.157 0.07,0.981 0.039,0.825 0.595,1.542 0.557,0.718 1.856,1.426 1.3,0.708 3.656,1.293 2.357,0.586 4.89,0.729 2.533,0.142 4.19,0.034 1.658,-0.109 2.855,-0.486 1.198,-0.378 2.261,-1.074 1.063,-0.695 1.85,-1.676 0.787,-0.98 1.214,-2.398 0.427,-1.418 0.462,-2.811 0.034,-1.393 -0.847,-3.171 -0.882,-1.777 -2.006,-3.037 -1.123,-1.259 -2.077,-2.127 -0.954,-0.868 -2.646,-1.737 -1.692,-0.87 -3.556,-1.324 -1.865,-0.455 -3.779,-0.508 -1.915,-0.053 -2.913,0.02 -0.998,0.073 -1.674,0.278 -0.675,0.206 -1.699,0.783 -1.023,0.577 -2.082,1.837 -1.059,1.26 -1.618,3.396 -0.56,2.136 -0.691,3.378 -0.132,1.242 -0.148,1.894 -0.017,0.651 -0.016,1.34 10e-4,0.69 0.091,1.295 0.09,0.605 0.293,1.219 0.204,0.614 1.639,1.852 1.436,1.238 2.019,1.614" />
    <path
       id="STROKE_6e5bce42-c84d-4a86-affd-4e14f1f30feb"
       opacity="1"
       fill="none"
       stroke="#000000"
       stroke-width="1.721"
       stroke-opacity="1"
       stroke-linecap="round"
       stroke-linejoin="round"
       d="m -1856.926,336.01 0.067,0.063 q 0.564,0.122 0.602,0.151 0.037,0.029 3.085,0.037 3.047,0.008 4.817,-0.064 1.77,-0.071 4.551,-0.158 2.782,-0.087 4.509,-0.099 1.728,-0.012 6.098,0.026 -0.024,0.007 -0.126,0.17 -0.102,0.162 -0.151,0.625 -0.048,0.463 0.058,1.231 0.106,0.768 1.3,2.504 1.194,1.735 2.143,2.87 0.948,1.135 5.405,4.082 l 0.228,0.117" />
    <path
       id="STROKE_43162c56-dee6-490d-b172-d7c1245b5ee5"
       opacity="1"
       fill="none"
       stroke="#000000"
       stroke-width="1.837"
       stroke-opacity="1"
       stroke-linecap="round"
       stroke-linejoin="round"
       d="m -1833.324,336.042 q 0,-0.175 0.509,-0.833 0.512,-0.658 2.2,-1.368 1.687,-0.711 2.761,-1.129 1.073,-0.419 1.476,-0.652 0.403,-0.233 0.633,-0.5 0.229,-0.267 0.379,-0.945" />
    <path
       id="STROKE_88f28cdf-c776-496b-a107-c0df9939c20f"
       opacity="1"
       fill="none"
       stroke="#000000"
       stroke-width="1.837"
       stroke-opacity="1"
       stroke-linecap="round"
       stroke-linejoin="round"
       d="m -1849.8,337.703 q -0.103,0.342 -1.098,3.452 -0.995,3.11 -1.551,5.056 -0.557,1.945 -0.598,3.164 -0.04,1.218 0.171,1.526 0.212,0.307 0.455,0.571" />
    <path
       id="STROKE_095f9556-6c73-4171-bba3-f72d86a04ebb"
       opacity="1"
       fill="none"
       stroke="#000000"
       stroke-width="1.837"
       stroke-opacity="1"
       stroke-linecap="round"
       stroke-linejoin="round"
       d="m -1850.266,335.915 q -0.826,-0.299 -2.239,-3.226 -1.412,-2.927 -1.982,-4.781 -0.569,-1.854 -0.839,-2.976 -0.269,-1.121 -0.455,-1.928 -0.185,-0.807 -0.322,-1.291" />
    <path
       id="STROKE_e501a2ec-0727-4b9a-a6ba-799491eec471"
       opacity="1"
       fill="none"
       stroke="#000000"
       stroke-width="1.837"
       stroke-opacity="1"
       stroke-linecap="round"
       stroke-linejoin="round"
       d="m -1845.567,299.75 q 0.267,0.373 0.294,0.436 0.026,0.062 0.749,0.658 0.722,0.596 1.382,0.708 0.66,0.111 1.032,0.012 0.373,-0.099 0.511,-0.244 0.138,-0.145 0.209,-0.848 0.07,-0.703 -0.513,-1.424 -0.582,-0.722 -1.545,-1.069 -0.962,-0.346 -1.559,-0.352 -0.598,-0.006 -0.96,0.123 -0.361,0.129 -0.623,0.471 -0.263,0.341 -0.309,0.894 -0.046,0.553 0.525,1.321 0.571,0.767 3.726,1.859" />
    <path
       id="STROKE_4f230373-1d50-4b18-9d3f-d94390be1538"
       opacity="1"
       fill="none"
       stroke="#000000"
       stroke-width="1.837"
       stroke-opacity="1"
       stroke-linecap="round"
       stroke-linejoin="round"
       d="m -1842.911,290.613 q 0.089,0.603 0.239,0.917 0.15,0.314 0.637,0.44 0.487,0.125 0.729,0.093 0.242,-0.033 0.48,-0.295 0.239,-0.263 0.294,-0.522 0.055,-0.26 0.085,-0.391 0.031,-0.131 -0.246,-0.884 -0.276,-0.753 -0.684,-1.111 -0.408,-0.359 -1.208,-0.627 -0.799,-0.269 -1.457,-0.232 -0.658,0.037 -1.135,0.364 -0.478,0.326 -0.662,0.614 -0.183,0.287 -0.231,0.46 -0.048,0.174 -0.106,0.566 -0.057,0.392 0.351,1.29 0.407,0.898 2.413,2.296" />
    <path
       id="STROKE_e905de17-d6bf-45e3-9163-06b5dfe24816"
       opacity="1"
       fill="none"
       stroke="#000000"
       stroke-width="1.837"
       stroke-opacity="1"
       stroke-linecap="round"
       stroke-linejoin="round"
       d="m -1844.404,282.335 q 0.203,0.33 0.71,1.008 0.507,0.678 1.09,0.969 0.582,0.291 1.123,0.265 0.541,-0.026 0.797,-0.263 0.257,-0.236 0.361,-0.782 0.103,-0.545 0.027,-0.962 -0.076,-0.417 -0.341,-0.861 -0.266,-0.445 -0.535,-0.704 -0.27,-0.26 -0.511,-0.421 -0.24,-0.161 -0.744,-0.274 -0.505,-0.113 -0.907,0.094 -0.403,0.208 -0.622,0.517 -0.218,0.31 -0.428,0.798 -0.21,0.487 -0.385,0.947" />
    <path
       id="STROKE_9b61b43c-e742-41a2-a6aa-88e2128f908c"
       opacity="1"
       fill="none"
       stroke="#000000"
       stroke-width="1.687"
       stroke-opacity="1"
       stroke-linecap="round"
       stroke-linejoin="round"
       d="m -1881.301,241.128 q -0.013,0.028 -0.216,0.842 -0.202,0.815 0,1.502 0.201,0.686 0.311,0.811 0.11,0.125 1.183,0.838 1.073,0.713 3.253,1.045 2.18,0.333 3.849,0.23 1.67,-0.102 3.121,-0.605 1.451,-0.503 2.61,-1.347 1.159,-0.845 1.83,-1.889 0.67,-1.043 0.913,-2.563 0.242,-1.52 0.167,-2.703 -0.075,-1.184 -0.475,-2.302 -0.4,-1.119 -1.448,-2.323 -1.047,-1.204 -1.9,-1.85 -0.853,-0.647 -2.096,-1.295 -1.243,-0.648 -3.447,-0.928 -2.204,-0.28 -4.194,-0.203 -1.991,0.076 -3.413,0.481 -1.422,0.406 -2.418,0.969 -0.995,0.564 -1.667,1.314 -0.671,0.75 -0.961,2.112 -0.29,1.363 0.12,3.216 0.409,1.853 1.387,3.457 0.977,1.604 1.527,2.389 0.551,0.785 2.261,1.919 1.71,1.134 2.917,1.598 1.207,0.465 2.057,0.745" />
    <path
       id="STROKE_ed52fd55-31d4-49d0-9e2f-0dc8e263b504"
       opacity="1"
       fill="none"
       stroke="#000000"
       stroke-width="1.746"
       stroke-opacity="1"
       stroke-linecap="round"
       stroke-linejoin="round"
       d="m -1857.995,236.993 0.147,0.112 q 0.136,0.079 3.14,0.104 3.003,0.024 4.744,-0.069 1.741,-0.092 5.61,-0.307 3.868,-0.215 6.263,-0.346 2.395,-0.132 3.422,0.078 1.028,0.211 1.438,0.358" />
    <path
       id="STROKE_39688f50-246b-496a-89ce-3a2ff1636b9f"
       opacity="1"
       fill="none"
       stroke="#000000"
       stroke-width="1.837"
       stroke-opacity="1"
       stroke-linecap="round"
       stroke-linejoin="round"
       d="m -1834.758,237.915 q -0.035,0.125 2.782,3.175 2.818,3.05 7.011,6.396 l 0.286,0.133" />
    <path
       id="STROKE_c0980ec9-252b-4638-b0e7-821e37757293"
       opacity="1"
       fill="none"
       stroke="#000000"
       stroke-width="1.837"
       stroke-opacity="1"
       stroke-linecap="round"
       stroke-linejoin="round"
       d="m -1836.387,233.945 q 0.482,-0.119 0.526,-0.107 0.044,0.012 2.39,-1.261 2.346,-1.274 3.99,-2.116 1.644,-0.841 2.411,-1.596 0.767,-0.755 0.963,-1.192 0.195,-0.437 0.265,-0.645" />
    <path
       id="STROKE_a48358e0-f27c-46be-9df9-1b1dc3515e5b"
       opacity="1"
       fill="none"
       stroke="#000000"
       stroke-width="1.713"
       stroke-opacity="1"
       stroke-linecap="round"
       stroke-linejoin="round"
       d="m -1850.105,240.238 q 0.533,0.216 -5.909,12.516 l -0.064,0.19" />
    <path
       id="STROKE_31f29adb-f962-4cd6-94a5-768505064444"
       opacity="1"
       fill="none"
       stroke="#000000"
       stroke-width="1.787"
       stroke-opacity="1"
       stroke-linecap="round"
       stroke-linejoin="round"
       d="m -1851.7,235.962 q -0.087,-0.029 -1.733,-2.485 -1.647,-2.456 -2.96,-7.258 -1.314,-4.803 -1.475,-5.248" />
    <path
       id="STROKE_18a1ef08-8fac-4b31-b8ad-1b1aaaae3ba9"
       opacity="1"
       fill="none"
       stroke="#333333"
       stroke-width="1.837"
       stroke-opacity="1"
       stroke-linecap="round"
       stroke-linejoin="round"
       d="m -1777.123,178.008 -0.734,-0.01 q -0.42,-0.019 -1.567,0.042 -1.146,0.062 -2.036,0.326 -0.889,0.265 -1.731,0.666 -0.842,0.401 -1.821,0.992 -0.978,0.591 -1.526,0.977 -0.547,0.387 -4.889,3.44 -4.342,3.053 -7.063,4.749 -2.72,1.696 -5.347,4.654 -2.626,2.958 -3.908,4.978 -1.281,2.021 -2.263,3.348 -0.982,1.326 -1.327,1.707 -0.345,0.38 -0.582,0.491" />
    <path
       id="STROKE_e3054ece-3703-4152-9c08-9067814fcc92"
       opacity="1"
       fill="none"
       stroke="#000000"
       stroke-width="1.837"
       stroke-opacity="1"
       stroke-linecap="round"
       stroke-linejoin="round"
       d="m -1818.606,200.849 -0.135,-0.237 -0.191,-0.263 q -0.218,-0.26 -0.252,-0.342 -0.033,-0.083 0.498,0.119 0.532,0.202 1.155,0.566 0.623,0.364 2.747,1.736 2.123,1.372 3.467,2.287 1.344,0.915 1.656,1.129 0.312,0.214 0.808,0.614 0.495,0.4 1.137,1.026" />
    <path
       id="STROKE_66cccc14-c83f-4a98-8480-cac18a4df8f3"
       opacity="1"
       fill="none"
       stroke="#000000"
       stroke-width="1.837"
       stroke-opacity="1"
       stroke-linecap="round"
       stroke-linejoin="round"
       d="m -1807.099,207.579 q -0.328,0.442 -0.337,0.443 -0.01,0.002 -1.817,0.667 -1.807,0.664 -3.716,1.281 -1.909,0.616 -2.811,1.097 -0.902,0.481 -1.241,0.693 -0.339,0.212 -0.706,0.428 -0.367,0.216 -1.017,0.377 -0.165,-0.375 -0.266,-5.621 -0.102,-5.247 -0.132,-5.692" />
    <path
       id="STROKE_b753a4ae-8116-4716-b713-175aef251102"
       opacity="1"
       fill="none"
       stroke="#000000"
       stroke-width="1.837"
       stroke-opacity="1"
       stroke-linecap="round"
       stroke-linejoin="round"
       d="m -1798.267,485.579 -0.201,-0.028 q -0.302,0.102 -0.416,-2.472 10e-4,-0.02 0.681,-0.209 0.681,-0.189 2.762,0.779 2.082,0.968 3.201,1.605 1.12,0.637 2.17,0.902 1.051,0.265 1.724,0.041 0.674,-0.224 1.253,-0.952 0.58,-0.729 0.944,-1.1 0.365,-0.37 0.919,-0.737 0.553,-0.366 1.699,-0.544 1.145,-0.178 3.476,0.154 2.331,0.332 3.57,0.461 1.24,0.129 2.732,0.154 1.492,0.025 4.429,0.76 2.937,0.735 3.292,0.867" />
    <path
       id="STROKE_92769ee4-89b0-43a7-bac6-c0b769a82634"
       opacity="1"
       fill="none"
       stroke="#000000"
       stroke-width="1.837"
       stroke-opacity="1"
       stroke-linecap="round"
       stroke-linejoin="round"
       d="m -1798.075,484.545 q -0.112,-0.029 -0.437,-0.432 -0.325,-0.402 -0.551,-0.879 -0.227,-0.476 -0.351,-1.333 -0.125,-0.857 -0.152,-2.739 -0.028,-1.882 0.077,-3.414 0.104,-1.532 0.725,-4.035 0.62,-2.504 0.855,-5.141 0.235,-2.636 -0.563,-7.412 -0.798,-4.777 -1.044,-6.228 -0.247,-1.451 -0.283,-1.962 -0.036,-0.51 0.521,-2.472 0.557,-1.961 0.605,-2.421 0.048,-0.46 0.069,-1.08 0.02,-0.62 -0.13,-1.476 -0.15,-0.857 -0.348,-1.485 -0.198,-0.629 -1.367,-4.152 0.739,-0.546 1.311,-0.846 0.571,-0.301 1.57,-0.777 0.999,-0.477 1.712,-0.704 0.714,-0.227 1.095,-0.254 0.381,-0.028 1.017,-0.07 0.637,-0.042 3.378,-0.067 2.74,-0.025 4.893,0.226 2.154,0.25 4.956,0.701 2.802,0.451 5.63,0.461 2.828,0.01 4.556,0.154 1.728,0.143 2.772,0.443 1.043,0.3 1.585,0.531 0.541,0.231 0.878,0.422 0.336,0.19 0.77,0.58 0.434,0.389 0.603,0.656 0.17,0.266 0.383,0.918 0.214,0.653 0.569,4.071 0.355,3.417 0.499,6.037 0.143,2.619 0.448,4.3 0.304,1.681 1.233,4.372 0.929,2.691 1.513,4.632 0.584,1.94 0.703,3.681 0.118,1.741 -0.345,3.126 -0.464,1.384 -1.613,3.629 -1.149,2.244 -2.58,7.668 -1.431,5.423 -1.649,5.941" />
    <path
       id="STROKE_d4aec79a-a050-4eeb-9630-a564bfc9490d"
       opacity="1"
       fill="none"
       stroke="#000000"
       stroke-width="1.837"
       stroke-opacity="1"
       stroke-linecap="round"
       stroke-linejoin="round"
       d="m -1796.098,419.649 q -0.039,-0.088 -0.039,-0.301 0,-0.213 0.18,-0.483 0.181,-0.27 0.556,-0.511 0.374,-0.24 2.108,-0.532 1.733,-0.291 4,0.138 2.267,0.428 4.798,1.249 2.531,0.822 5.064,1.259 2.534,0.438 4.48,0.541 1.946,0.104 3.961,-0.534 2.016,-0.638 3.232,-1.308 1.217,-0.669 3.513,-1.02 2.296,-0.351 4.896,0.021 2.601,0.371 2.471,0.53" />
    <path
       id="STROKE_ea51c224-910b-444e-a85b-f0e32f87a3ca"
       opacity="1"
       fill="none"
       stroke="#000000"
       stroke-width="1.825"
       stroke-opacity="1"
       stroke-linecap="round"
       stroke-linejoin="round"
       d="m -1798.237,416.607 -0.463,-0.19 q -0.199,-0.112 -0.477,-0.322 -0.278,-0.21 -0.366,-0.3 -0.088,-0.09 -0.795,-0.902 -0.706,-0.812 -1.236,-4.639 -0.53,-3.827 -0.59,-6.35 -0.059,-2.524 -0.174,-5.125 -0.115,-2.602 0.506,-5.779 0.621,-3.177 1.103,-4.685 0.481,-1.509 0.541,-2.561 0.061,-1.052 -0.033,-1.629 -0.094,-0.576 -0.314,-1.097 -0.22,-0.521 -0.879,-1.807 -0.659,-1.287 -0.903,-2.055 -0.244,-0.767 -0.248,-0.857 0,-0.09 -0.057,-1 -0.053,-0.911 -0.102,-1.611 -0.05,-0.7 -0.06,-0.988 -0.01,-0.287 0.041,-0.538 -0.015,-0.113 6.293,-0.184 6.308,-0.07 9.937,-0.042 3.629,0.029 5.497,-0.055 1.868,-0.084 3.332,-0.319 1.465,-0.235 3.079,-0.322 1.615,-0.086 3.299,-0.152 1.684,-0.067 2.631,0.034 0.946,0.1 2.05,0.627 1.103,0.526 1.766,0.987 0.662,0.461 0.918,0.729 0.257,0.269 0.302,0.33 0.044,0.062 0.284,0.538 0.24,0.475 0.618,1.821 0.378,1.347 0.743,2.665 0.366,1.318 0.8,2.748 0.434,1.429 1.255,3.67 0.821,2.241 1.428,4.098 0.608,1.857 0.647,3.045 0.04,1.188 -0.758,7.439 -0.798,6.251 -1.237,9.62 -0.44,3.369 -0.783,4.889 -0.343,1.52 -0.639,2.452 -0.296,0.932 -0.674,1.653 -0.378,0.721 -0.711,1.22" />
    <path
       id="STROKE_0de765a0-d457-4388-9f76-f724f3548923"
       opacity="1"
       fill="none"
       stroke="#000000"
       stroke-width="1.837"
       stroke-opacity="1"
       stroke-linecap="round"
       stroke-linejoin="round"
       d="m -1799.22,357.519 q -0.019,-0.018 -0.189,-0.211 -0.171,-0.193 -0.168,-0.226 0,-0.033 -0.076,-0.363 -0.078,-0.33 0.09,-0.73 0.168,-0.399 2.361,-0.737 2.192,-0.339 4.035,-0.106 1.842,0.234 4.462,0.714 2.619,0.481 4.463,0.545 1.844,0.064 3.367,-0.468 1.522,-0.531 3.056,-1.161 1.534,-0.63 3.015,-0.828 1.48,-0.198 5.602,0.21 4.121,0.407 6.384,0.58 2.262,0.173 3.54,0.19 1.279,0.018 3.185,-0.842 0,-0.128 -0.593,-0.415 -0.59,-0.287 -1.105,-0.462" />
    <path
       id="STROKE_0941b2b5-e181-4595-98ba-a524581a3568"
       opacity="1"
       fill="none"
       stroke="#000000"
       stroke-width="1.837"
       stroke-opacity="1"
       stroke-linecap="round"
       stroke-linejoin="round"
       d="m -1799.737,353.999 q -0.032,-0.044 -1.043,-1.441 -1.011,-1.398 -1.482,-5.863 -0.472,-4.465 -0.681,-7.019 -0.21,-2.553 0.333,-5.478 0.543,-2.925 0.883,-4.35 0.34,-1.425 0.42,-2.253 0.081,-0.829 0.083,-1.039 0,-0.211 0.01,-0.584 0,-0.374 -0.422,-1.978 -0.424,-1.605 -0.664,-2.607 -0.24,-1.001 -0.266,-1.397 -0.026,-0.395 -0.181,-1.187 -0.156,-0.792 -0.226,-1.161 -0.07,-0.368 -0.082,-0.664 -0.011,-0.296 -0.01,-0.395 0.01,-0.098 0.105,-0.307 0.1,-0.209 0.158,-0.244 0.076,-0.16 1.659,0.412 1.584,0.573 2.99,0.998 1.405,0.426 2.983,0.681 1.577,0.256 3.774,0.345 2.197,0.089 4.434,-0.25 2.238,-0.338 4.962,-0.964 2.725,-0.626 4.639,-0.932 1.915,-0.306 3.579,-0.194 1.664,0.113 2.306,0.224 0.641,0.111 1.036,0.139 0.395,0.028 0.633,0.017 0.237,-0.01 0.284,0.01 0.047,0.019 0.849,-0.197 0.802,-0.215 1.388,-0.541 0.586,-0.326 1.128,-0.486 0.542,-0.16 1.763,-0.355 1.222,-0.194 1.555,-0.194 0.333,-10e-4 0.826,0.021 0.494,0.021 0.529,0.017 0.034,-0.004 0.661,0.151 0.626,0.155 1.041,0.33 0.414,0.174 0.778,0.316 0.365,0.141 1.417,1.139 1.052,0.998 1.372,1.524 0.32,0.527 0.488,1.238 0.168,0.712 -0.011,4.588 -0.178,3.877 0.066,8.801 0.245,4.924 0.602,7.405 0.357,2.481 0.215,4.223 -0.142,1.741 -0.411,2.624 -0.268,0.882 -0.377,3.638 -0.109,2.756 -0.171,3.315" />
    <path
       id="STROKE_2bd4d90b-3bd5-459a-8b35-eba4322f003e"
       opacity="1"
       fill="none"
       stroke="#000000"
       stroke-width="1.837"
       stroke-opacity="1"
       stroke-linecap="round"
       stroke-linejoin="round"
       d="m -1778.901,479.187 q -0.205,-0.144 -0.989,-1.499 -0.783,-1.355 -1.136,-2.354 -0.353,-0.998 -0.355,-1.239 0,-0.24 0,-0.699 0.01,-0.459 0.141,-1.113 0.134,-0.653 0.209,-0.97 0.074,-0.317 0.189,-1.158 0.115,-0.841 -0.19,-2.999 -0.305,-2.158 -0.804,-3.83 -0.5,-1.672 -0.785,-3.647 -0.284,-1.975 -0.206,-3.32 0.079,-1.344 0.361,-2.557 0.282,-1.212 0.499,-3.112 0.218,-1.9 0.363,-6.792 0.145,-4.892 0.163,-5.282" />
    <path
       id="STROKE_b79532ac-cbb0-4a5b-88cf-2b9482dbf079"
       opacity="1"
       fill="none"
       stroke="#000000"
       stroke-width="1.837"
       stroke-opacity="1"
       stroke-linecap="round"
       stroke-linejoin="round"
       d="m -1775.995,417.831 -0.534,-0.156 q -0.682,-0.283 -1.675,-1.249 -0.994,-0.966 -1.493,-1.633 -0.5,-0.668 -0.854,-1.455 -0.354,-0.787 -0.367,-2.483 -0.013,-1.696 0.407,-3.26 0.42,-1.564 0.683,-2.811 0.263,-1.248 0.293,-2.798 0.03,-1.551 0.123,-5.142 0.093,-3.592 0.043,-6.451 -0.049,-2.859 -0.332,-5.283 -0.282,-2.424 -0.238,-3.71 0.043,-1.287 0.178,-2.099 0.134,-0.812 0.247,-1.269 0.113,-0.458 0.345,-1.792 0.232,-1.334 0.344,-1.832" />
    <path
       id="STROKE_8b1da565-7170-495b-90ed-22ac0239269e"
       opacity="1"
       fill="none"
       stroke="#000000"
       stroke-width="1.837"
       stroke-opacity="1"
       stroke-linecap="round"
       stroke-linejoin="round"
       d="m -1775.842,353.958 q -0.029,-0.046 -0.406,-0.28 -0.377,-0.234 -0.823,-1.1 -0.447,-0.867 -0.76,-1.971 -0.314,-1.104 -0.636,-3.434 -0.322,-2.33 -0.281,-4.021 0.042,-1.692 0.691,-4.059 0.649,-2.366 1.099,-3.9 0.449,-1.534 0.388,-4.828 -0.062,-3.294 -0.405,-5.301 -0.343,-2.007 -0.057,-5.545 0.286,-3.537 0.37,-4.087" />
    <path
       id="STROKE_81393b6b-4bf1-48d1-8288-d6feb2bc3a6b"
       opacity="1"
       fill="none"
       stroke="#000000"
       stroke-width="1.837"
       stroke-opacity="1"
       stroke-linecap="round"
       stroke-linejoin="round"
       d="m -1793.442,481.132 q 0.017,-0.011 1.563,-0.266 1.545,-0.254 2.499,-0.364 0.953,-0.109 2.37,-0.171 1.418,-0.061 2.268,-0.061 0.85,0 2.084,0.077 l 0.077,0.058" />
    <path
       id="STROKE_2b0055da-5b19-49ec-af74-f2bd17285e81"
       opacity="1"
       fill="none"
       stroke="#000000"
       stroke-width="1.837"
       stroke-opacity="1"
       stroke-linecap="round"
       stroke-linejoin="round"
       d="m -1793.574,481.274 q -0.331,-0.102 -0.561,-0.307 -0.229,-0.205 -0.317,-0.82 -0.088,-0.616 -0.08,-1.064 0.01,-0.447 0.23,-1.012 0.222,-0.564 0.445,-0.872 0.224,-0.307 0.622,-0.726 0.398,-0.42 0.937,-0.8 0.538,-0.38 1.216,-0.671 0.677,-0.291 1.738,-0.552 1.062,-0.26 2.081,-0.39 1.02,-0.13 2.028,-0.152 1.008,-0.021 1.741,0.051 0.734,0.071 1.151,0.185 0.418,0.113 0.602,0.229 0.183,0.116 0.215,0.201 0.031,0.085 0.055,0.191" />
    <path
       id="STROKE_5747344c-3ad1-4adc-be87-1b20267a17a5"
       opacity="1"
       fill="none"
       stroke="#000000"
       stroke-width="1.837"
       stroke-opacity="1"
       stroke-linecap="round"
       stroke-linejoin="round"
       d="m -1786.415,479.361 q -0.012,-0.043 -0.062,-0.082 -0.049,-0.039 -0.319,-1.287 -0.269,-1.249 -0.324,-1.489" />
    <path
       id="STROKE_9aca695f-a788-4350-8f5f-aade1788984c"
       opacity="1"
       fill="none"
       stroke="#000000"
       stroke-width="1.837"
       stroke-opacity="1"
       stroke-linecap="round"
       stroke-linejoin="round"
       d="m -1794.522,471.488 q 0.031,0.027 1.471,-0.216 1.44,-0.242 2.315,-0.402 0.876,-0.16 1.718,-0.25 0.843,-0.089 2.09,-0.153 1.246,-0.065 2.494,-0.128 1.248,-0.064 1.379,-0.073" />
    <path
       id="STROKE_27dbd6f2-f205-4602-b247-7731e4d417a7"
       opacity="1"
       fill="none"
       stroke="#000000"
       stroke-width="1.837"
       stroke-opacity="1"
       stroke-linecap="round"
       stroke-linejoin="round"
       d="m -1788.002,467.253 q 0.133,0.001 0.963,0.05 0.831,0.049 1.889,-0.255 1.059,-0.305 1.168,-0.344" />
    <path
       id="STROKE_5d03164c-4987-4120-bf9e-42079fef97d5"
       opacity="1"
       fill="none"
       stroke="#000000"
       stroke-width="1.837"
       stroke-opacity="1"
       stroke-linecap="round"
       stroke-linejoin="round"
       d="m -1789.93,468.067 q -0.104,-0.047 -0.103,-0.076 -0.02,-0.038 -0.067,-0.163 -0.046,-0.125 -0.072,-0.2" />
    <path
       id="STROKE_4ef0bc3d-f912-4ee2-8789-ad5b64f03bd8"
       opacity="1"
       fill="none"
       stroke="#000000"
       stroke-width="1.837"
       stroke-opacity="1"
       stroke-linecap="round"
       stroke-linejoin="round"
       d="m -1789.707,460.051 q -0.062,0.09 -0.137,0.414 -0.075,0.324 0.205,0.886 0.28,0.562 0.511,0.892 0.23,0.33 0.521,0.604 0.29,0.274 0.516,0.438 0.225,0.163 0.734,0.348 0.508,0.186 1.02,0.244 0.511,0.058 0.878,0.033 0.367,-0.025 0.717,-0.264 0.35,-0.239 0.479,-0.39 0.13,-0.152 0.317,-0.542 0.188,-0.39 0.226,-0.873 0.038,-0.483 0.023,-0.782 -0.015,-0.299 -0.088,-0.543 -0.073,-0.244 -0.37,-0.678 -0.296,-0.434 -0.422,-0.58" />
    <path
       id="STROKE_e36ccc1a-1684-42a0-9655-5e2c3df18210"
       opacity="1"
       fill="none"
       stroke="#000000"
       stroke-width="1.837"
       stroke-opacity="1"
       stroke-linecap="round"
       stroke-linejoin="round"
       d="m -1788.74,455.74 q 0.167,-0.08 0.169,-0.117 0.044,-0.034 0.135,-0.585 0.091,-0.55 0.051,-1.019 -0.04,-0.468 -0.109,-0.645 -0.07,-0.176 -0.169,-0.335 -0.099,-0.158 -0.296,-0.291 -0.197,-0.133 -0.351,-0.143 -0.154,-0.01 -0.312,0.02 -0.158,0.03 -0.419,0.366 -0.26,0.335 -0.377,0.902 -0.116,0.566 -0.077,1.074 0.04,0.508 0.184,0.868 0.143,0.359 0.486,0.777 0.342,0.418 0.898,0.761 0.555,0.342 1.195,0.498 0.639,0.155 1.123,0.165 0.484,0.01 0.833,-0.092 0.349,-0.102 0.64,-0.4 0.291,-0.299 0.428,-0.535 0.137,-0.236 0.209,-0.481 0.071,-0.244 0.094,-0.374 0.023,-0.131 0.052,-0.605 0.029,-0.475 -0.281,-1.299 -0.31,-0.825 -0.682,-1.451 -0.373,-0.627 -0.504,-0.843" />
    <path
       id="STROKE_673b32e3-5468-4b04-bbb6-6aad3f684c32"
       opacity="1"
       fill="none"
       stroke="#000000"
       stroke-width="1.837"
       stroke-opacity="1"
       stroke-linecap="round"
       stroke-linejoin="round"
       d="m -1773.395,476.932 q 0.086,0.061 2.275,-0.265 2.189,-0.326 3.631,-0.605 1.443,-0.28 2.321,-0.372 0.879,-0.091 0.991,-0.111" />
    <path
       id="STROKE_5548a00b-0d96-4b6a-92f6-e5baeb1c57d7"
       opacity="1"
       fill="none"
       stroke="#000000"
       stroke-width="1.837"
       stroke-opacity="1"
       stroke-linecap="round"
       stroke-linejoin="round"
       d="m -1774.212,478.625 q -0.053,0.009 -0.295,0.063 -0.243,0.055 -0.589,-0.138 -0.347,-0.192 -0.702,-0.616 -0.355,-0.424 -0.598,-0.927 -0.243,-0.503 -0.341,-1.22 -0.098,-0.716 -0.098,-1.145 0,-0.428 0.201,-1.017 0.201,-0.59 0.397,-0.941 0.196,-0.351 0.486,-0.664 0.289,-0.312 0.528,-0.485 0.238,-0.172 0.566,-0.285 0.328,-0.113 0.726,-0.119 0.399,-0.006 0.76,0.073 0.361,0.08 0.805,0.386 0.444,0.307 0.825,0.942 0.382,0.636 0.709,1.684 0.01,-0.024 0.017,-0.518 0.01,-0.495 0.136,-1.007 0.128,-0.513 0.358,-0.944 0.229,-0.432 0.6,-0.896 0.371,-0.465 0.987,-0.883 0.616,-0.419 0.967,-0.606 0.35,-0.188 0.867,-0.322 0.517,-0.134 0.932,-0.145 0.415,-0.012 0.773,0.104 0.359,0.116 0.737,0.493 0.377,0.378 0.618,0.768 0.24,0.391 0.465,1.388 0.225,0.998 0.273,1.583 0.047,0.586 0.06,0.922 0.013,0.336 0.032,0.906 0.018,0.57 -0.039,1.197 -0.057,0.627 -0.145,0.92 -0.087,0.293 -0.157,0.447" />
    <path
       id="STROKE_c7c3442b-eee2-4d8f-b0fd-e9872452e09f"
       opacity="1"
       fill="none"
       stroke="#000000"
       stroke-width="1.837"
       stroke-opacity="1"
       stroke-linecap="round"
       stroke-linejoin="round"
       d="m -1769.443,466.264 q 0.01,0.008 0.328,0.287 0.32,0.278 0.927,0.355 0.607,0.076 1.374,-0.08 0.767,-0.155 1.427,-0.46 0.66,-0.305 1.055,-0.579 0.396,-0.275 0.692,-0.594 0.296,-0.319 0.439,-0.668 0.143,-0.348 0.144,-0.666 10e-4,-0.317 -0.27,-0.665 -0.272,-0.348 -0.761,-0.582 -0.489,-0.234 -1.253,-0.316 -0.764,-0.081 -1.332,-0.018 -0.568,0.064 -1.181,0.347 -0.612,0.284 -0.992,0.58 -0.38,0.297 -0.621,0.642 -0.242,0.345 -0.306,0.785 -0.063,0.44 10e-4,0.79 0.064,0.35 0.392,0.766 0.328,0.417 0.928,0.751 0.599,0.334 1.048,0.42 0.449,0.085 0.662,0.114" />
    <path
       id="STROKE_50a618e4-350d-4829-8238-8e632d746670"
       opacity="1"
       fill="none"
       stroke="#000000"
       stroke-width="1.837"
       stroke-opacity="1"
       stroke-linecap="round"
       stroke-linejoin="round"
       d="m -1777.428,459.896 q 0.269,0.071 0.994,0.117 0.726,0.045 2.097,-0.056 1.371,-0.102 3.128,-0.379 1.756,-0.278 3.247,-0.581 1.491,-0.303 1.73,-0.355 0.019,-0.009 -0.626,-0.021 -0.644,-0.012 -1.125,-0.035 -0.48,-0.024 -0.782,-0.131 -0.301,-0.107 -0.512,-0.398 -0.212,-0.292 -0.255,-0.681 -0.044,-0.388 0.031,-0.709 0.075,-0.321 0.358,-0.721 0.284,-0.4 0.833,-0.855 0.549,-0.454 1.127,-0.765 0.577,-0.311 1.168,-0.481 0.591,-0.169 0.983,-0.183 0.392,-0.014 0.55,0.019 0.158,0.033 0.442,0.233 0.284,0.2 0.518,0.615 0.233,0.416 0.308,1.066 0.076,0.65 -0.035,1.444 -0.11,0.794 -0.545,1.557 -0.435,0.763 -0.527,0.892" />
    <path
       id="STROKE_fd0beb61-c34b-4c79-8d5f-657daa67390a"
       opacity="1"
       fill="none"
       stroke="#000000"
       stroke-width="1.837"
       stroke-opacity="1"
       stroke-linecap="round"
       stroke-linejoin="round"
       d="m -1792.928,410.399 q 0.093,0.004 1.212,-0.018 1.119,-0.023 2.355,-0.091 1.236,-0.068 2.324,-0.195 1.089,-0.127 1.505,-0.227 0.416,-0.1 0.533,-0.139" />
    <path
       id="STROKE_6f9b9715-8731-441f-9dc2-e87de5ab02a1"
       opacity="1"
       fill="none"
       stroke="#000000"
       stroke-width="1.837"
       stroke-opacity="1"
       stroke-linecap="round"
       stroke-linejoin="round"
       d="m -1793.633,413.435 q -0.083,0.067 -0.453,0.288 -0.371,0.221 -0.71,0.28 -0.34,0.06 -0.595,-0.057 -0.256,-0.116 -0.564,-0.526 -0.307,-0.411 -0.435,-0.656 -0.129,-0.246 -0.194,-0.395 -0.066,-0.149 -0.134,-0.306 -0.067,-0.158 -0.244,-0.784 -0.178,-0.626 -0.241,-1.38 -0.063,-0.754 -0.033,-1.354 0.03,-0.599 0.272,-1.272 0.241,-0.672 0.572,-1.158 0.33,-0.485 0.641,-0.747 0.311,-0.262 0.767,-0.386 0.455,-0.125 0.911,-0.089 0.455,0.036 0.861,0.32 0.407,0.285 0.621,0.537 0.214,0.253 0.371,0.463 0.157,0.21 0.428,0.939 0.271,0.728 0.347,1.821 0,-0.016 0.018,-0.648 0.015,-0.632 0.213,-1.342 0.199,-0.709 0.473,-1.279 0.274,-0.57 0.72,-1.019 0.446,-0.449 0.919,-0.708 0.472,-0.26 1.06,-0.332 0.589,-0.072 0.96,-0.058 0.371,0.014 0.686,0.104 0.314,0.09 0.665,0.38 0.351,0.29 0.555,0.54 0.205,0.25 0.557,1.193 0.353,0.943 0.551,2.142 0.199,1.199 0.25,2.262 0.052,1.063 0.043,1.618 -0.01,0.555 -0.099,0.955 -0.09,0.401 -0.226,0.626 -0.136,0.226 -0.26,0.313 -0.123,0.088 -0.226,0.085 -0.103,-0.002 -0.224,-0.03" />
    <path
       id="STROKE_7774c198-80c8-4d6e-a880-fea7598b47b0"
       opacity="1"
       fill="none"
       stroke="#000000"
       stroke-width="1.837"
       stroke-opacity="1"
       stroke-linecap="round"
       stroke-linejoin="round"
       d="m -1788.446,400.37 q 0.077,0.206 0.285,0.482 0.207,0.277 0.78,0.391 0.573,0.115 1.104,0.03 0.531,-0.086 0.863,-0.319 0.332,-0.232 0.5,-0.543 0.168,-0.312 0.208,-0.629 0.039,-0.318 -0.096,-0.739 -0.135,-0.42 -0.511,-0.83 -0.376,-0.409 -0.764,-0.635 -0.387,-0.226 -0.918,-0.304 -0.531,-0.078 -0.841,-0.033 -0.31,0.045 -0.524,0.121 -0.215,0.076 -0.463,0.228 -0.248,0.151 -0.413,0.419 -0.165,0.268 -0.209,0.486 -0.044,0.218 -0.057,0.418 -0.012,0.201 0,0.504 0.01,0.303 0.149,0.712 0.14,0.41 0.294,0.639 0.153,0.229 0.324,0.381 0.171,0.152 0.551,0.187 0.381,0.036 0.578,0.023" />
    <path
       id="STROKE_dd2f20c5-9fef-4184-8a7f-53e6fa741d51"
       opacity="1"
       fill="none"
       stroke="#000000"
       stroke-width="1.837"
       stroke-opacity="1"
       stroke-linecap="round"
       stroke-linejoin="round"
       d="m -1796.398,394.75 q -0.071,-0.003 -0.185,0.014 0,-0.092 1.15,-0.372 1.15,-0.279 3.1,-0.509 1.951,-0.231 3.423,-0.419 1.471,-0.189 2.387,-0.25 0.014,-0.007 -0.313,-0.012 -0.326,-0.006 -0.696,-0.116 -0.37,-0.109 -0.656,-0.313 -0.286,-0.204 -0.578,-0.811 -0.291,-0.607 -0.41,-1.209 -0.118,-0.602 -0.1,-1.054 0.017,-0.452 0.189,-0.846 0.172,-0.395 0.552,-0.715 0.38,-0.319 1.003,-0.466 0.623,-0.146 1.132,-0.17 0.509,-0.023 0.769,0.01 0.261,0.033 0.477,0.175 0.216,0.142 0.373,0.351 0.156,0.209 0.25,0.72 0.094,0.51 0.071,1.117 -0.022,0.606 -0.493,1.771 -0.47,1.164 -0.508,1.235" />
    <path
       id="STROKE_70c7b5a9-2076-4a1d-8496-4fa01e4d3f7c"
       opacity="1"
       fill="none"
       stroke="#000000"
       stroke-width="1.697"
       stroke-opacity="1"
       stroke-linecap="round"
       stroke-linejoin="round"
       d="m -1772.96,412.511 q 0,0.006 -0.01,0.04 0.033,0.034 1.654,-0.297 1.62,-0.331 9.279,-0.446 l 0.078,-0.012" />
    <path
       id="STROKE_c587c924-4194-43b8-80d8-3f0dbb276fe9"
       opacity="1"
       fill="none"
       stroke="#000000"
       stroke-width="1.837"
       stroke-opacity="1"
       stroke-linecap="round"
       stroke-linejoin="round"
       d="m -1772.683,413.039 q -0.496,-0.627 -0.733,-0.974 -0.237,-0.348 -0.41,-0.606 -0.174,-0.258 -0.795,-1.426 -0.621,-1.167 -1.289,-3.029 -0.668,-1.862 -0.773,-2.136" />
    <path
       id="STROKE_d7d5b420-69e8-4df5-900d-5b2a75aafd24"
       opacity="1"
       fill="none"
       stroke="#000000"
       stroke-width="1.837"
       stroke-opacity="1"
       stroke-linecap="round"
       stroke-linejoin="round"
       d="m -1767.232,410.938 q -0.177,-0.13 -0.182,-0.143 -0.102,-0.09 -0.577,-0.719 -0.475,-0.63 -1.176,-1.922 -0.7,-1.293 -1.01,-2.06 -0.309,-0.767 -0.403,-0.995" />
    <path
       id="STROKE_329477ac-c5cc-4a9c-9704-0b636868600e"
       opacity="1"
       fill="none"
       stroke="#000000"
       stroke-width="1.837"
       stroke-opacity="1"
       stroke-linecap="round"
       stroke-linejoin="round"
       d="m -1761.823,411.906 q -0.129,-0.167 -0.14,-0.172 -0.01,-0.006 -0.321,-0.4 -0.311,-0.395 -0.739,-1.107 -0.427,-0.713 -0.907,-2.117 -0.481,-1.404 -0.698,-2.432 -0.217,-1.027 -0.27,-1.218" />
    <path
       id="STROKE_75306939-1190-46f2-ad10-eb770610d004"
       opacity="1"
       fill="none"
       stroke="#000000"
       stroke-width="1.837"
       stroke-opacity="1"
       stroke-linecap="round"
       stroke-linejoin="round"
       d="m -1769.732,401.646 q 0.112,0.07 0.164,0.092 0.051,0.022 0.13,0.02 0.079,-10e-4 0.797,-0.353 0.719,-0.353 1.493,-0.614 0.774,-0.261 1.619,-0.547 0.844,-0.286 1.329,-0.506 0.484,-0.221 0.878,-0.496 0.395,-0.276 0.57,-0.446 0.175,-0.17 0.239,-0.34 0.064,-0.171 0.059,-0.206 -0.01,-0.036 -0.071,-0.132 -0.066,-0.095 -0.187,-0.164 -0.122,-0.068 -0.196,-0.093 -0.074,-0.024 -0.418,-0.142 -0.345,-0.118 -2.079,-0.283 -1.735,-0.165 -2.648,-0.185 -0.914,-0.019 -1.404,-0.033 -0.491,-0.014 -1.09,0.084" />
    <path
       id="STROKE_b1bd87b5-4733-498b-b167-ea5887653a92"
       opacity="1"
       fill="none"
       stroke="#000000"
       stroke-width="1.837"
       stroke-opacity="1"
       stroke-linecap="round"
       stroke-linejoin="round"
       d="m -1767.297,394.201 q 0.082,-0.017 0.109,-0.559 0.027,-0.543 -0.142,-1.069 -0.169,-0.526 -0.424,-0.926 -0.255,-0.4 -0.48,-0.604 -0.224,-0.204 -0.417,-0.306 -0.193,-0.102 -0.323,-0.14 -0.13,-0.039 -0.257,-0.032 -0.128,0.007 -0.256,0.153 -0.128,0.146 -0.196,0.744 -0.067,0.598 0.01,1.177 0.076,0.579 0.258,1.059 0.183,0.481 0.457,0.882 0.275,0.401 0.887,0.759 0.613,0.358 1.473,0.506 0.86,0.148 1.319,0.155 0.458,0.007 0.784,-0.051 0.326,-0.057 0.569,-0.178 0.244,-0.12 0.541,-0.49 0.298,-0.369 0.446,-1.151 0.147,-0.782 0.038,-1.607 -0.109,-0.824 -0.326,-1.549 -0.217,-0.725 -0.741,-1.924 -0.524,-1.199 -0.685,-1.536" />
    <path
       id="STROKE_e0bf7130-baf8-46cd-8a9a-7e897be04139"
       opacity="1"
       fill="none"
       stroke="#000000"
       stroke-width="1.837"
       stroke-opacity="1"
       stroke-linecap="round"
       stroke-linejoin="round"
       d="m -1791.604,345.604 q 0,0.062 0.029,0.146 0.01,0.035 0.577,0.035 0.573,0 0.908,-0.047 0.334,-0.048 0.812,-0.121 0.478,-0.074 1.219,-0.192 0.741,-0.118 1.496,-0.216 0.756,-0.098 1.533,-0.205 0.778,-0.106 1.438,-0.226 0.66,-0.12 1.413,-0.298 l -0.027,-0.009" />
    <path
       id="STROKE_2a933aa9-730c-4b99-a5a7-f9a829a2ef01"
       opacity="1"
       fill="none"
       stroke="#000000"
       stroke-width="1.837"
       stroke-opacity="1"
       stroke-linecap="round"
       stroke-linejoin="round"
       d="m -1791.593,347.033 q -0.272,-0.226 -0.532,-0.589 -0.261,-0.363 -0.458,-0.692 -0.196,-0.329 -0.742,-1.712 -0.547,-1.384 -0.934,-3.728 -0.387,-2.344 -0.429,-2.526" />
    <path
       id="STROKE_02ade96a-a30d-49fd-8807-75e387539b14"
       opacity="1"
       fill="none"
       stroke="#000000"
       stroke-width="1.837"
       stroke-opacity="1"
       stroke-linecap="round"
       stroke-linejoin="round"
       d="m -1785.744,344.505 q -0.015,-0.054 -0.536,-0.953 -0.522,-0.899 -0.823,-1.609 -0.301,-0.709 -0.517,-1.471 -0.217,-0.761 -0.305,-1.237 -0.088,-0.476 -0.119,-0.637" />
    <path
       id="STROKE_12a4014f-6446-4ba4-b144-c22b6878f251"
       opacity="1"
       fill="none"
       stroke="#000000"
       stroke-width="1.837"
       stroke-opacity="1"
       stroke-linecap="round"
       stroke-linejoin="round"
       d="m -1781.16,345.076 q 0.014,-0.046 -0.302,-0.941 -0.316,-0.895 -0.529,-1.544 -0.214,-0.649 -0.384,-1.318 -0.169,-0.668 -0.511,-1.844 -0.342,-1.176 -0.4,-1.336" />
    <path
       id="STROKE_8fa9451a-0a4b-4350-8155-1e7255cabb74"
       opacity="1"
       fill="none"
       stroke="#000000"
       stroke-width="1.837"
       stroke-opacity="1"
       stroke-linecap="round"
       stroke-linejoin="round"
       d="m -1787.384,335.63 0.029,0.01 q 0.049,-0.021 1.289,-0.454 1.241,-0.433 2.059,-0.747 0.818,-0.313 1.19,-0.51 0.371,-0.196 0.636,-0.402 0.264,-0.205 0.273,-0.399 0.01,-0.194 -0.971,-0.367 -0.979,-0.174 -2.116,-0.23 -1.137,-0.056 -1.895,-0.102 -0.758,-0.045 -1.398,-0.204 l -0.066,-0.06" />
    <path
       id="STROKE_bd920c6c-e064-41f4-af02-e7a560983089"
       opacity="1"
       fill="none"
       stroke="#000000"
       stroke-width="1.837"
       stroke-opacity="1"
       stroke-linecap="round"
       stroke-linejoin="round"
       d="m -1786.073,328.527 q -0.037,-0.179 -0.323,-0.752 -0.286,-0.573 -0.564,-0.897 -0.277,-0.323 -0.437,-0.435 -0.159,-0.111 -0.301,-0.15 -0.141,-0.039 -0.254,-0.019 -0.114,0.02 -0.183,0.114 -0.069,0.093 -0.108,0.487 -0.038,0.393 0.153,0.914 0.191,0.521 0.562,0.998 0.371,0.476 0.602,0.682 0.231,0.206 0.572,0.409 0.341,0.203 0.622,0.319 0.28,0.115 0.792,0.208 0.511,0.092 0.917,0.071 0.406,-0.021 0.718,-0.166 0.312,-0.144 0.661,-0.58 0.349,-0.435 0.599,-1.187 0.249,-0.753 0.262,-1.478 0.013,-0.725 -0.079,-1.106 -0.092,-0.38 -0.181,-0.633" />
    <path
       id="STROKE_f309834f-a0aa-4709-a615-f35784665b23"
       opacity="1"
       fill="none"
       stroke="#000000"
       stroke-width="1.837"
       stroke-opacity="1"
       stroke-linecap="round"
       stroke-linejoin="round"
       d="m -1765.355,341.315 q 0.165,0.103 0.432,0.283 0.268,0.18 0.649,0.276 0.382,0.095 0.603,0.072 0.222,-0.023 0.335,-0.091 0.113,-0.069 0.164,-0.128 0.052,-0.059 0.109,-0.236 0.058,-0.176 -0.011,-0.467 -0.07,-0.291 -0.376,-0.536 -0.306,-0.244 -0.788,-0.375 -0.481,-0.131 -0.838,-0.143 -0.356,-0.013 -0.643,0.127 -0.286,0.14 -0.41,0.278 -0.123,0.137 -0.175,0.244 -0.052,0.108 -0.05,0.213 0,0.104 0.029,0.242" />
    <path
       id="STROKE_a633d037-4c88-4045-a68e-376e563e34ef"
       opacity="1"
       fill="none"
       stroke="#000000"
       stroke-width="1.837"
       stroke-opacity="1"
       stroke-linecap="round"
       stroke-linejoin="round"
       d="m -1764.924,333.541 q 0.023,0.018 0.414,0.204 0.39,0.186 0.598,0.219 0.207,0.033 0.419,-0.027 0.212,-0.061 0.216,-0.132 0,-0.071 0,-0.098 0,-0.026 -0.025,-0.099 -0.023,-0.073 -0.489,-0.451 -0.466,-0.378 -0.918,-0.564 -0.453,-0.186 -0.714,-0.195 -0.261,-0.009 -0.361,0.03 -0.1,0.039 -0.148,0.088 -0.047,0.048 -0.109,0.26 -0.062,0.213 0.054,0.54 0.117,0.326 0.252,0.5 0.135,0.175 0.234,0.286" />
    <path
       id="STROKE_f75bc846-62f5-469c-9305-b60fb9d58ace"
       opacity="1"
       fill="none"
       stroke="#000000"
       stroke-width="1.837"
       stroke-opacity="1"
       stroke-linecap="round"
       stroke-linejoin="round"
       d="m -1765.708,325.732 q 0.078,0.07 0.416,0.347 0.337,0.276 0.556,0.369 0.219,0.092 0.38,0.098 0.16,0.007 0.283,-0.078 0.124,-0.085 0.172,-0.397 0.049,-0.311 -0.128,-0.646 -0.177,-0.336 -0.584,-0.707 -0.407,-0.371 -0.742,-0.543 -0.335,-0.172 -0.473,-0.181 -0.138,-0.01 -0.208,0.01 -0.07,0.019 -0.168,0.113 -0.098,0.094 -0.178,0.212 -0.081,0.119 -0.17,0.3 -0.089,0.182 -0.289,0.718" />
    <path
       id="STROKE_2cd2460c-6515-403c-b7b6-8c09e7d3622b"
       opacity="1"
       fill="none"
       stroke="#000000"
       stroke-width="1.837"
       stroke-opacity="1"
       stroke-linecap="round"
       stroke-linejoin="round"
       d="m -1861.634,200.06 q 0.041,0.008 1.92,0.18 0.067,0.096 0.01,0.257 -0.058,0.162 -0.329,0.386 -0.272,0.224 -1.064,0.37 -0.793,0.146 -1.411,-0.047 -0.618,-0.193 -1.272,-0.881 -0.655,-0.688 -0.799,-1.443 -0.144,-0.755 -0.01,-1.007 0.137,-0.253 0.962,-0.487 0.826,-0.234 1.76,0.048 0.935,0.281 1.322,0.465 0.387,0.183 0.74,0.285 0.353,0.102 0.466,0.071 0.193,-0.257 -0.382,-1.538 -0.574,-1.281 -1.286,-1.967 -0.713,-0.686 -1.097,-0.835 -0.384,-0.15 -0.691,-0.04 -0.308,0.11 -0.311,0.126 0,0.016 -0.209,0.444 -0.205,0.428 -0.123,1.737 0.082,1.31 0.656,2.532 0.01,0.009 -0.549,-0.807 -0.557,-0.816 -0.871,-1.882 0.04,-0.187 1.409,0.572 1.369,0.759 2.279,1.378 0.91,0.619 1.608,0.635 0.093,0.055 0.209,-0.536 0.115,-0.591 0.059,-1.109 -0.057,-0.519 -0.178,-0.756 -0.121,-0.237 -0.135,-0.238 -0.015,-0.001 -0.11,-0.078 -0.095,-0.077 -0.129,-0.09 -0.033,-0.012 -0.175,-0.011 -0.143,10e-4 -0.239,0.035 -0.096,0.035 -0.114,0.03 -0.018,-0.004 -0.383,1.092 -0.365,1.096 -0.722,2 -0.356,0.905 -0.747,1.319 -0.39,0.414 -0.738,0.475 -0.347,0.062 -0.718,-0.111 -0.37,-0.174 -0.664,-0.499 -0.294,-0.325 -0.547,-0.742 -0.253,-0.416 -0.356,-0.658 -0.103,-0.242 -0.158,-0.446 -0.055,-0.204 -0.071,-0.375 -0.016,-0.171 0.012,-0.344 0.028,-0.173 0.116,-0.25 0.088,-0.076 0.117,-0.076 0.029,0.001 0.184,-0.079 0.155,-0.08 1.009,0.17 0.854,0.25 1.372,0.515 0.519,0.264 0.757,0.325 0.239,0.06 0.406,-0.012 l 0.065,-0.322 q -0.03,-0.172 -0.359,-0.7 -0.33,-0.528 -0.741,-0.798 -0.411,-0.269 -0.698,-0.355 -0.287,-0.086 -0.878,-0.197" />
    <path
       id="STROKE_0d2d3979-f39c-49c5-a110-7921edb7aa97"
       opacity="1"
       fill="none"
       stroke="#000000"
       stroke-width="1.837"
       stroke-opacity="1"
       stroke-linecap="round"
       stroke-linejoin="round"
       d="m -1845.158,179.871 q 0.077,1.054 0.203,1.582 0.127,0.527 0.875,1.645 0.749,1.117 1.339,1.666 0.59,0.55 0.885,0.757 0.295,0.207 0.761,0.401 0.466,0.195 0.603,0.2 0.137,0.006 0.358,0.012 0.221,0.005 0.471,-0.04 0.25,-0.046 0.485,-0.225 0.234,-0.178 0.461,-0.476 0.228,-0.299 0.507,-1.708 0.279,-1.41 0.278,-2.219 0,-0.809 -0.211,-1.973 -0.211,-1.165 -0.45,-1.851 -0.239,-0.686 -0.921,-1.654 -0.681,-0.967 -1.043,-1.347 -0.362,-0.379 -0.656,-0.539 -0.293,-0.16 -0.707,-0.333 -0.415,-0.172 -0.685,-0.229 -0.27,-0.056 -0.345,-0.072 -0.076,-0.016 -0.402,-0.008 -0.325,0.007 -0.513,0.05 -0.188,0.043 -0.501,0.379 -0.313,0.336 -0.458,0.867 -0.146,0.531 -0.182,0.93 -0.035,0.399 -0.041,0.67 -0.01,0.27 0.016,0.903 0.023,0.632 0.491,2.015 0.469,1.383 0.739,1.952" />
    <path
       id="STROKE_a1a49fbf-c7e4-47e5-ad06-27bd19050a02"
       opacity="1"
       fill="none"
       stroke="#000000"
       stroke-width="1.837"
       stroke-opacity="1"
       stroke-linecap="round"
       stroke-linejoin="round"
       d="m -1839.278,186.375 0.188,-0.017 q 0.179,-0.025 1.606,-0.115 1.428,-0.09 3.181,-0.063 1.753,0.026 2.993,0.003 1.239,-0.024 1.839,-0.071 0.6,-0.047 0.893,-0.062 0.292,-0.014 1.235,-0.026 0.942,-0.012 2.101,-0.008 1.159,0.004 2.143,0.059 0.984,0.055 1.392,0.069 0.408,0.014 0.503,0.017" />
    <path
       id="STROKE_eb17d218-a618-47c5-a72c-53ff6a45415c"
       opacity="1"
       fill="none"
       stroke="#000000"
       stroke-width="1.837"
       stroke-opacity="1"
       stroke-linecap="round"
       stroke-linejoin="round"
       d="m -1841.449,173.168 q 0.136,-0.004 0.253,-0.009 0.116,-0.005 0.302,-0.042 0.186,-0.036 0.842,-0.116 0.657,-0.08 1.053,-0.106 0.396,-0.026 0.633,-0.035 0.238,-0.008 2.209,0.021 1.971,0.029 3.835,0.019 1.863,-0.011 2.842,-0.016 0.979,-0.006 1.644,0.024 0.665,0.029 1.001,0.033 0.337,0.004 0.58,0.002 0.243,-0.003 1.045,0.032 0.802,0.034 1.525,0.007 0.723,-0.026 0.823,-0.036" />
    <path
       id="STROKE_6b82b660-9460-466a-a1f7-f4f29fc64f9e"
       opacity="1"
       fill="none"
       stroke="#000000"
       stroke-width="1.837"
       stroke-opacity="1"
       stroke-linecap="round"
       stroke-linejoin="round"
       d="m -1820.795,185.988 q 0.229,-0.033 0.632,-0.188 0.403,-0.154 0.678,-0.379 0.275,-0.225 0.382,-0.37 0.107,-0.145 0.207,-0.465 0.1,-0.32 0.106,-0.769 0,-0.449 -0.016,-0.667 -0.021,-0.217 -0.088,-0.598 -0.067,-0.38 -0.165,-1.019 -0.097,-0.638 -0.203,-1.601 -0.106,-0.962 -0.187,-1.547 -0.082,-0.585 -0.176,-1.095 -0.094,-0.51 -0.287,-1.021 -0.193,-0.51 -0.305,-0.747 -0.112,-0.237 -0.178,-0.348 -0.066,-0.11 -0.194,-0.322 -0.129,-0.212 -0.206,-0.342 -0.078,-0.131 -0.26,-0.504 -0.183,-0.373 -0.322,-0.544 -0.139,-0.171 -0.185,-0.216" />
    <path
       id="STROKE_f705a0f5-8004-463a-8fec-98943a76a994"
       opacity="1"
       fill="none"
       stroke="#000000"
       stroke-width="1.837"
       stroke-opacity="1"
       stroke-linecap="round"
       stroke-linejoin="round"
       d="m -1834.885,184.573 q 0.015,-0.008 0.264,-0.245 0.249,-0.238 0.495,-0.942 0.245,-0.704 0.35,-1.307 0.106,-0.602 0.041,-1.195 -0.065,-0.593 -0.566,-1.797 -0.502,-1.204 -1.032,-2.721 -0.531,-1.517 -0.57,-1.611" />
    <path
       id="STROKE_abc71000-e6d7-4b77-ae49-def6d1e874b5"
       opacity="1"
       fill="none"
       stroke="#000000"
       stroke-width="1.837"
       stroke-opacity="1"
       stroke-linecap="round"
       stroke-linejoin="round"
       d="m -1830.26,184.253 q 0.168,-0.052 0.331,-0.241 0.163,-0.189 0.25,-0.804 0.088,-0.614 0.103,-1.22 0.015,-0.606 -0.277,-1.593 -0.292,-0.987 -0.667,-1.747 -0.376,-0.76 -0.701,-1.43 -0.324,-0.67 -0.676,-1.558 -0.351,-0.888 -0.509,-1.234 -0.159,-0.346 -0.201,-0.424" />
    <path
       id="STROKE_2f446273-8330-4356-81da-b3df378115d3"
       opacity="1"
       fill="none"
       stroke="#000000"
       stroke-width="1.837"
       stroke-opacity="1"
       stroke-linecap="round"
       stroke-linejoin="round"
       d="m -1826.671,183.363 q 0.119,0.044 0.25,0.02 0.132,-0.024 0.251,-0.613 0.119,-0.59 0.039,-1.36 -0.081,-0.771 -0.237,-1.413 -0.156,-0.641 -0.255,-0.987 -0.098,-0.345 -0.236,-0.719 -0.138,-0.373 -0.432,-1.017 -0.294,-0.645 -0.695,-1.669 -0.401,-1.024 -0.748,-1.801 -0.011,-0.01 0.01,0.05 0.02,0.059 0.066,0.157" />
    <path
       id="STROKE_b2637f99-91c8-4795-8d38-ec5372efa8e7"
       opacity="1"
       fill="none"
       stroke="#000000"
       stroke-width="1.837"
       stroke-opacity="1"
       stroke-linecap="round"
       stroke-linejoin="round"
       d="m -1821.339,184.234 q -0.015,-0.283 0,-0.297 0.011,-0.013 -0.077,-0.938 -0.089,-0.924 -0.231,-1.679 -0.143,-0.755 -1.458,-4.988 -1.314,-4.233 -1.401,-4.461" />
    <path
       id="STROKE_4e7011ec-56ad-4801-a2da-8a0b610f4f41"
       opacity="1"
       fill="none"
       stroke="#000000"
       stroke-width="1.277"
       stroke-opacity="1"
       stroke-linecap="round"
       stroke-linejoin="round"
       d="m -1865.158,190.16 q -0.118,0.031 -0.352,-0.002 -0.233,-0.032 -0.578,-0.369 -0.344,-0.337 -0.509,-0.638 -0.164,-0.301 -0.208,-0.993 -0.045,-0.691 -0.061,-0.825" />
    <path
       id="STROKE_2eee0055-a046-49fd-be9d-df4db6f53d49"
       opacity="1"
       fill="none"
       stroke="#000000"
       stroke-width="1.277"
       stroke-opacity="1"
       stroke-linecap="round"
       stroke-linejoin="round"
       d="m -1867.012,183.615 q -0.084,-0.113 -0.092,-0.118 -0.047,-0.026 -0.161,-0.552 -0.113,-0.526 -10e-4,-0.905 0.113,-0.378 0.187,-0.527" />
    <path
       id="STROKE_dd0d0999-2856-4859-952b-adb99e227c90"
       opacity="1"
       fill="none"
       stroke="#000000"
       stroke-width="1.277"
       stroke-opacity="1"
       stroke-linecap="round"
       stroke-linejoin="round"
       d="m -1864.364,178.852 q 0.066,0.034 0.526,0.115 0.46,0.082 0.845,-0.07 0.385,-0.153 0.453,-0.19" />
    <path
       id="STROKE_22726a91-d77a-4b51-9627-12d85c7492af"
       opacity="1"
       fill="none"
       stroke="#000000"
       stroke-width="1.277"
       stroke-opacity="1"
       stroke-linecap="round"
       stroke-linejoin="round"
       d="m -1859.895,179.025 q 0.038,0.033 0.054,0.052 0.017,0.019 0.089,0.051 0.072,0.032 0.159,0.055 0.087,0.022 0.155,0.029 0.067,0.008 0.201,0.019 0.133,0.01 0.206,0.017" />
    <path
       id="STROKE_9e08c015-7126-42f4-979a-fecd86f8f71f"
       opacity="1"
       fill="none"
       stroke="#000000"
       stroke-width="1.277"
       stroke-opacity="1"
       stroke-linecap="round"
       stroke-linejoin="round"
       d="m -1855.666,179.073 q 0.014,0.005 0.239,0.115 0.224,0.109 1.185,0.157" />
    <path
       id="STROKE_e8f6eddb-a69e-43aa-8dfd-2459c1a0674e"
       opacity="1"
       fill="none"
       stroke="#000000"
       stroke-width="1.277"
       stroke-opacity="1"
       stroke-linecap="round"
       stroke-linejoin="round"
       d="m -1852.785,179.5 q 0.015,0.008 0.43,0.057 0.415,0.049 0.511,0.069" />
    <path
       id="STROKE_3aed8ade-7c53-4cdb-9400-c1a97f5674a6"
       opacity="1"
       fill="none"
       stroke="#000000"
       stroke-width="1.277"
       stroke-opacity="1"
       stroke-linecap="round"
       stroke-linejoin="round"
       d="m -1849.887,179.829 q 0.024,0.011 0.687,-0.068 0.664,-0.079 0.768,-0.096" />
    <path
       id="STROKE_d40c2445-afa2-441f-adc8-9582127b6b1d"
       opacity="1"
       fill="none"
       stroke="#000000"
       stroke-width="1.277"
       stroke-opacity="1"
       stroke-linecap="round"
       stroke-linejoin="round"
       d="m -1847.842,179.557 q 0.024,0.009 0.029,0.023 0.01,0.014 0.289,0.089 0.284,0.076 0.372,0.102" />
    <path
       id="STROKE_9010e2c0-4807-4df4-9cd6-8bf40b664f19"
       opacity="1"
       fill="none"
       stroke="#000000"
       stroke-width="1.277"
       stroke-opacity="1"
       stroke-linecap="round"
       stroke-linejoin="round"
       d="m -1846.425,182.124 0.029,0.009 0.08,-0.071 q 0.018,-0.045 0.654,-0.387 0.635,-0.342 1.046,-0.56 0.411,-0.218 0.56,-0.325 0.15,-0.107 0.383,-0.321 0.233,-0.213 0.315,-0.353 0.082,-0.139 0.089,-0.209 0.01,-0.071 -0.029,-0.176 -0.036,-0.106 -0.187,-0.259 -0.15,-0.153 -0.182,-0.177 -0.033,-0.024 -0.613,-0.534 -0.579,-0.51 -1.238,-0.951 -0.658,-0.44 -1.286,-0.708 -0.629,-0.267 -0.755,-0.324" />
    <path
       id="STROKE_3502745f-70ab-4ddb-bc7e-1baf8cfb9d0a"
       opacity="1"
       fill="none"
       stroke="#000000"
       stroke-width="1.713"
       stroke-opacity="1"
       stroke-linecap="round"
       stroke-linejoin="round"
       d="m -1759.462,186.244 q -0.563,-0.173 -0.606,-0.212 -0.203,-0.082 -0.357,-0.16 -0.153,-0.077 -1.044,-0.349 -0.891,-0.273 -1.309,-0.258 -0.418,0.016 -0.948,0.168 -0.53,0.152 -1.438,0.882 -0.907,0.729 -1.659,1.984 -0.751,1.255 -0.915,2.074 -0.163,0.82 -0.131,1.372 0.032,0.551 0.462,1.073 0.43,0.523 0.784,0.714 0.354,0.191 1.135,0.433 0.781,0.242 3.115,0.356 2.334,0.113 4.251,-0.02 1.916,-0.133 4.268,-0.578 2.351,-0.446 5.025,-0.893 2.675,-0.447 4.405,-0.679 1.73,-0.232 2.771,-0.329 1.041,-0.097 2.8,0.007 0.017,0.031 -0.217,0.332" />
    <path
       id="STROKE_46417813-27d9-4294-a362-6ae3ef5a815e"
       opacity="1"
       fill="none"
       stroke="#000000"
       stroke-width="1.837"
       stroke-opacity="1"
       stroke-linecap="round"
       stroke-linejoin="round"
       d="m -1750.451,193.085 q -0.022,-0.029 -0.118,-0.17 -0.096,-0.142 -0.216,-0.412 -0.119,-0.271 -0.172,-0.545 -0.054,-0.273 -0.071,-0.348 -0.018,-0.075 -0.015,-0.897 0,-0.821 0.477,-1.641 0.474,-0.821 0.731,-1.134" />
    <path
       id="STROKE_9a7c24c0-9618-4744-bdcc-103109209c1e"
       opacity="1"
       fill="none"
       stroke="#000000"
       stroke-width="1.837"
       stroke-opacity="1"
       stroke-linecap="round"
       stroke-linejoin="round"
       d="m -1749.377,184.301 0.383,-0.04 q 0.679,-0.115 7.033,-1.118 -0.032,-0.009 -0.14,0.01 -0.108,0.019 -0.302,0.07" />
    <circle
       id="STROKE_e376136b-3baa-4b55-959d-de6a526512b6"
       opacity="1"
       fill="#000000"
       stroke="#000000"
       stroke-width="0.1"
       stroke-opacity="1"
       fill-opacity="1"
       cx="-1754.7159"
       cy="184.088"
       r="0.91900003" />
    <path
       id="STROKE_d5d0b9fb-7e58-4d6f-b7ae-88bc9cf57e09"
       opacity="1"
       fill="none"
       stroke="#000000"
       stroke-width="1.837"
       stroke-opacity="1"
       stroke-linecap="round"
       stroke-linejoin="round"
       d="m -1750.854,179 q 0.191,0.128 9.281,-2.17 0.074,-0.065 -1.896,0.413 -1.97,0.477 -3.364,0.772 -1.394,0.295 -2.222,0.329 -0.828,0.034 -1.248,-0.131 -0.42,-0.164 -0.601,-1.406 -0.181,-1.242 -0.203,-1.563" />
    <path
       id="STROKE_804a3299-84ef-45cf-b1b5-29e20cefc05d"
       opacity="1"
       fill="none"
       stroke="#000000"
       stroke-width="1.837"
       stroke-opacity="1"
       stroke-linecap="round"
       stroke-linejoin="round"
       d="m -1750.949,165.015 -0.368,0.162 q -0.044,0.007 -0.262,1.016 -0.218,1.01 0,1.907 0.223,0.898 0.587,1.414 0.363,0.516 0.748,0.675 0.384,0.158 0.723,0.12 0.34,-0.039 0.523,-0.437 0.184,-0.398 0.551,-1.536 0.368,-1.138 0.594,-1.556 0.226,-0.418 0.553,-0.922 0.327,-0.503 1.047,-1.14 0.72,-0.637 1.142,-0.833 0.422,-0.196 0.987,-0.27 0.564,-0.073 1.226,0.303 0.662,0.376 1.05,1.288 0.388,0.912 0.434,1.738 0.045,0.826 -0.383,1.58 -0.429,0.753 -1.38,1.029 -0.952,0.276 -1.387,0.36" />
    <path
       id="STROKE_f68fe454-b479-4c1e-943d-245aafab714b"
       opacity="1"
       fill="none"
       stroke="#000000"
       stroke-width="1.575"
       stroke-opacity="1"
       stroke-linecap="round"
       stroke-linejoin="round"
       d="m -1766.807,160.886 q -0.038,-0.001 -0.145,0.03 0,0.011 2.771,-0.858 2.775,-0.87 7.202,-1.485 4.427,-0.615 6.573,-0.84 2.146,-0.226 3.873,-0.24 1.726,-0.015 2.608,0.108 l 0.108,0.17" />
    <path
       id="STROKE_14f4ed70-90f4-432f-a945-6d9a5661390b"
       opacity="1"
       fill="none"
       stroke="#000000"
       stroke-width="1.193"
       stroke-opacity="1"
       stroke-linecap="round"
       stroke-linejoin="round"
       d="m -1758.199,171.08 q -0.219,-0.279 -2.484,-6.17 -2.265,-5.891 -3.412,-9.406 -1.148,-3.516 -1.785,-5.551 -0.637,-2.036 -0.994,-3.1 -0.357,-1.065 -0.707,-1.989" />
    <path
       id="STROKE_903e7f1b-ec81-4865-a738-0d64fad0457d"
       opacity="1"
       fill="none"
       stroke="#000000"
       stroke-width="1.837"
       stroke-opacity="1"
       stroke-linecap="round"
       stroke-linejoin="round"
       d="m -1797.002,592.903 -0.099,-0.112 q -0.146,-0.116 -0.129,-1.1 0.016,-0.983 0.523,-1.169 0.507,-0.185 2.552,0.629 2.045,0.814 3.192,1.385 1.146,0.571 2.163,0.761 1.018,0.191 1.645,-0.018 0.628,-0.209 1.286,-0.807 0.658,-0.598 1.043,-0.933 0.385,-0.336 0.938,-0.665 0.552,-0.329 1.665,-0.537 1.114,-0.209 3.438,0.056 2.325,0.265 3.567,0.385 1.242,0.12 2.724,0.206 1.482,0.085 4.317,0.756 2.836,0.672 3.411,0.844" />
    <path
       id="STROKE_c9fd30f1-605b-4bad-a47b-f9e518071db3"
       opacity="1"
       fill="none"
       stroke="#000000"
       stroke-width="1.837"
       stroke-opacity="1"
       stroke-linecap="round"
       stroke-linejoin="round"
       d="m -1796.809,591.869 q -0.08,-0.083 -0.36,-0.493 -0.28,-0.41 -0.496,-0.877 -0.215,-0.468 -0.38,-1.297 -0.166,-0.828 -0.208,-2.708 -0.043,-1.88 0.075,-3.405 0.117,-1.526 0.679,-4.04 0.561,-2.514 0.777,-5.147 0.215,-2.634 -0.533,-7.41 -0.749,-4.776 -0.957,-6.236 -0.209,-1.46 -0.214,-1.956 -0.01,-0.496 0.443,-2.468 0.448,-1.972 0.5,-2.434 0.052,-0.461 0.059,-1.077 0.01,-0.616 -0.124,-1.466 -0.131,-0.85 -0.306,-1.48 -0.174,-0.63 -0.868,-4.01 0.486,-0.603 0.974,-0.938 0.488,-0.334 1.472,-0.793 0.985,-0.459 1.695,-0.67 0.711,-0.211 1.729,-0.316 1.017,-0.105 3.754,-0.119 2.736,-0.013 4.885,0.22 2.15,0.233 4.953,0.647 2.804,0.414 5.638,0.468 2.833,0.054 4.552,0.222 1.719,0.169 2.757,0.462 1.037,0.293 1.568,0.538 0.532,0.245 0.845,0.443 0.313,0.198 0.724,0.59 0.41,0.392 0.581,0.647 0.17,0.255 0.407,0.881 0.237,0.625 0.629,4.031 0.392,3.407 0.566,6.02 0.174,2.613 0.486,4.286 0.312,1.673 1.203,4.372 0.892,2.698 1.441,4.642 0.55,1.943 0.634,3.672 0.083,1.729 -0.331,3.108 -0.414,1.379 -1.497,3.654 -1.082,2.275 -2.542,7.587 -1.46,5.312 -1.698,6.021" />
    <path
       id="STROKE_4b481ee9-372f-42f0-af09-9ffdae7c7f59"
       opacity="1"
       fill="none"
       stroke="#000000"
       stroke-width="1.837"
       stroke-opacity="1"
       stroke-linecap="round"
       stroke-linejoin="round"
       d="m -1777.636,586.512 q -0.158,-0.193 -0.93,-1.537 -0.772,-1.344 -1.089,-2.341 -0.317,-0.997 -0.335,-1.682 -0.017,-0.685 0.074,-1.343 0.091,-0.658 0.145,-0.981 0.054,-0.324 0.132,-1.16 0.077,-0.835 -0.201,-2.98 -0.278,-2.145 -0.725,-3.834 -0.448,-1.69 -0.722,-3.656 -0.274,-1.966 -0.203,-3.307 0.071,-1.34 0.303,-2.559 0.232,-1.219 0.454,-3.119 0.223,-1.899 0.383,-6.732 0.16,-4.834 0.179,-5.34" />
    <path
       id="STROKE_217a39a6-92b3-4b40-ace0-8e3479d9d87a"
       opacity="1"
       fill="none"
       stroke="#f45e58"
       stroke-width="1.815"
       stroke-opacity="1"
       stroke-linecap="round"
       stroke-linejoin="round"
       d="m -1793.159,583.748 q -0.014,0.007 -0.434,-0.042 v -0.024 q 0.014,-0.02 0.869,0.019 0.856,0.038 2.866,0.321 2.01,0.282 3.008,0.419 0.998,0.138 1.597,0.171 0.6,0.034 0.884,0.032 0.285,-0.003 0.482,-0.085 0.197,-0.082 0.235,-1.025 0.039,-0.942 -0.169,-2.078 -0.207,-1.136 -0.239,-1.252" />
    <path
       id="STROKE_34dcd4d2-ca47-4d48-95e4-70911df433dd"
       opacity="1"
       fill="none"
       stroke="#f45e58"
       stroke-width="1.815"
       stroke-opacity="1"
       stroke-linecap="round"
       stroke-linejoin="round"
       d="m -1789.451,577.323 q -0.039,-0.017 -0.12,-0.075 -0.081,-0.058 -0.172,-0.136 -0.092,-0.079 -0.165,-0.161 -0.073,-0.082 -0.168,-0.227 -0.094,-0.145 -0.162,-0.297 -0.069,-0.152 -0.119,-0.273 -0.05,-0.121 -0.134,-0.646 -0.084,-0.526 -0.053,-0.886 0.031,-0.36 0.237,-0.732 0.206,-0.372 0.523,-0.642 0.317,-0.27 0.972,-0.503 0.655,-0.233 3.167,-0.229 l -0.087,0.032 q -0.025,0.004 -0.275,0.091 -0.249,0.087 -0.447,0.212 -0.197,0.125 -0.36,0.299 -0.164,0.174 -0.254,0.351 -0.09,0.178 -0.112,0.679 -0.021,0.501 0.077,0.821 0.098,0.321 0.383,0.783 0.284,0.462 0.685,0.627 0.4,0.166 0.842,0.173 0.442,0.006 0.79,-0.155 0.348,-0.161 0.618,-0.477 0.271,-0.316 0.364,-0.822 0.093,-0.505 0.096,-0.872 0,-0.366 -0.275,-0.91 -0.279,-0.544 -0.397,-0.71" />
    <path
       id="STROKE_9dc6be11-0861-43b4-8d73-2931bde9ed4f"
       opacity="1"
       fill="none"
       stroke="#f45e58"
       stroke-width="1.815"
       stroke-opacity="1"
       stroke-linecap="round"
       stroke-linejoin="round"
       d="m -1790.234,565.812 q -0.041,0.088 -0.184,0.354 -0.144,0.267 -0.199,0.419 -0.056,0.153 -0.081,0.276 -0.026,0.123 -0.031,0.184 0,0.06 -0.019,0.173 -0.013,0.114 0.068,0.435 0.081,0.321 0.292,0.618 0.211,0.298 0.539,0.578 0.328,0.279 0.581,0.361 0.252,0.081 0.512,0.046 0.26,-0.035 0.433,-0.218 0.173,-0.183 0.307,-0.505 0.134,-0.321 0.218,-0.785 0.083,-0.465 0.236,-1.087 0.153,-0.622 0.349,-0.999 0.195,-0.378 0.352,-0.579 0.157,-0.201 0.299,-0.341 0.143,-0.14 0.322,-0.252 0.18,-0.111 0.414,-0.182 0.233,-0.072 0.513,0.041 0.28,0.113 0.585,0.476 0.306,0.363 0.561,0.829 0.255,0.466 0.411,1.088 0.156,0.621 0.17,1.248 0.015,0.627 -0.325,1.416 -0.34,0.789 -0.401,0.902" />
    <path
       id="STROKE_6c7998a0-a4e4-4dfe-95ee-51a714c8111d"
       opacity="1"
       fill="none"
       stroke="#f45e58"
       stroke-width="1.815"
       stroke-opacity="1"
       stroke-linecap="round"
       stroke-linejoin="round"
       d="m -1795.677,560.181 q 0,0.037 0.143,0.194 0.143,0.156 0.3,0.238 0.156,0.083 0.249,0.119 0.093,0.036 0.205,0.068 0.113,0.032 0.259,0.076 0.145,0.043 1.33,0.264 1.185,0.221 2.378,0.291 1.192,0.071 1.878,0.053 0.686,-0.018 1.25,-0.103 0.564,-0.085 1.461,-0.406 0.897,-0.32 1.997,-0.866" />
    <path
       id="STROKE_e61b836d-7b51-4de7-af73-aea3d3701d87"
       opacity="1"
       fill="none"
       stroke="#f45e58"
       stroke-width="1.815"
       stroke-opacity="1"
       stroke-linecap="round"
       stroke-linejoin="round"
       d="m -1792.799,565.993 q -0.028,-0.193 -0.033,-0.2 -0.041,-0.209 -0.412,-2.166 -0.371,-1.957 -0.488,-4.166 -0.117,-2.208 -0.15,-2.547" />
    <path
       id="STROKE_5abf2263-c680-476e-884a-d96e5804177d"
       opacity="1"
       fill="none"
       stroke="#000000"
       stroke-width="1.837"
       stroke-opacity="1"
       stroke-linecap="round"
       stroke-linejoin="round"
       d="m -1768.542,576.759 0.049,0.365 q 0.01,0.053 0.117,0.238 0.107,0.184 0.333,0.304 0.226,0.12 0.531,0.153 0.305,0.033 0.622,-0.03 0.317,-0.063 0.551,-0.283 0.233,-0.219 0.306,-0.496 0.074,-0.276 0.041,-0.591 -0.032,-0.314 -0.303,-0.588 -0.271,-0.275 -0.594,-0.419 -0.323,-0.144 -0.66,-0.171 -0.337,-0.028 -0.573,-0.003 -0.236,0.024 -0.407,0.201 -0.171,0.177 -0.254,0.296" />
    <path
       id="STROKE_78702235-84d1-4a29-b796-08e073b18602"
       opacity="1"
       fill="none"
       stroke="#000000"
       stroke-width="1.837"
       stroke-opacity="1"
       stroke-linecap="round"
       stroke-linejoin="round"
       d="m -1768.772,568.311 q 0.011,0.009 0.188,0.14 0.176,0.131 0.472,0.173 0.297,0.041 0.552,-0.118 0.256,-0.159 0.388,-0.389 0.133,-0.23 0.163,-0.369 0.03,-0.14 0.028,-0.365 0,-0.224 -0.157,-0.437 -0.154,-0.212 -0.389,-0.343 -0.236,-0.13 -0.629,-0.163 -0.394,-0.034 -0.642,0.074 -0.249,0.108 -0.419,0.224" />
    <path
       id="STROKE_88ed9be8-125e-4343-a6b4-597c0ed47dc1"
       opacity="1"
       fill="none"
       stroke="#000000"
       stroke-width="1.837"
       stroke-opacity="1"
       stroke-linecap="round"
       stroke-linejoin="round"
       d="m -1769.061,559.16 q 0.081,0.051 0.228,0.111 0.147,0.061 0.344,0.041 0.198,-0.02 0.305,-0.436 0.106,-0.416 0.08,-0.771 -0.026,-0.354 -0.205,-0.743 -0.179,-0.388 -0.472,-0.606 -0.292,-0.218 -0.616,-0.256 -0.323,-0.039 -0.521,0.045 -0.197,0.084 -0.303,0.227 -0.106,0.142 -0.198,0.308" />
  </g>
  <metadata
     id="metadata940">
    <rdf:RDF>
      <cc:Work
         rdf:about="">
        <dc:title>The big line problem</dc:title>
      </cc:Work>
    </rdf:RDF>
  </metadata>
</svg>
