<?xml version="1.0" encoding="UTF-8" standalone="no"?>
<svg
   width="130.20129mm"
   height="47.339169mm"
   version="1.1"
   viewBox="-1265.675 476.96 676.64021 246.01499"
   id="svg117"
   sodipodi:docname="problem_description.svg"
   inkscape:version="1.1.2 (0a00cf5339, 2022-02-04, custom)"
   xmlns:inkscape="http://www.inkscape.org/namespaces/inkscape"
   xmlns:sodipodi="http://sodipodi.sourceforge.net/DTD/sodipodi-0.dtd"
   xmlns="http://www.w3.org/2000/svg"
   xmlns:svg="http://www.w3.org/2000/svg"
   xmlns:rdf="http://www.w3.org/1999/02/22-rdf-syntax-ns#"
   xmlns:cc="http://creativecommons.org/ns#"
   xmlns:dc="http://purl.org/dc/elements/1.1/">
  <sodipodi:namedview
     id="namedview119"
     pagecolor="#ffffff"
     bordercolor="#666666"
     borderopacity="1.0"
     inkscape:pageshadow="2"
     inkscape:pageopacity="0.0"
     inkscape:pagecheckerboard="0"
     inkscape:document-units="mm"
     showgrid="false"
     fit-margin-top="5"
     fit-margin-bottom="5"
     fit-margin-left="2"
     fit-margin-right="2"
     inkscape:zoom="1.9175411"
     inkscape:cx="128.55005"
     inkscape:cy="89.176707"
     inkscape:current-layer="svg117" />
  <!--
	Exported with Concepts: Smarter Sketching
	Version: 1055 on iOS 15.3
	https://concepts.app/
	-->
  <title
     id="title2">The big line problem</title>
  <desc
     id="desc4">Drawing exported from Concepts: Smarter Sketching</desc>
  <defs
     id="defs6" />
  <g
     id="g1041"
     transform="matrix(1.3,0,0,1.3,376.58435,-150.88245)">
    <g
       id="Pen"
       opacity="1"
       transform="rotate(90,-1015.7182,747.31554)">
      <path
         id="STROKE_4e5b6f72-0789-4dd5-badf-35a6bb7b6370"
         opacity="1"
         fill="none"
         stroke="#333333"
         stroke-width="1.736"
         stroke-opacity="1"
         stroke-linecap="round"
         stroke-linejoin="round"
         d="m -1253.661,912.671 q 0.013,0.422 0.041,1.035 0.028,0.614 1.531,1.655 1.504,1.041 2.574,1.472 1.07,0.431 1.807,0.703 0.736,0.272 3.09,0.554 2.354,0.283 4.002,0.192 1.647,-0.09 2.947,-0.58 1.301,-0.491 2.525,-1.457 1.224,-0.966 2.055,-2.154 0.832,-1.189 1.162,-2.754 0.329,-1.565 0.22,-2.616 -0.109,-1.052 -0.841,-2.181 -0.733,-1.129 -2.287,-2.221 -1.555,-1.093 -3.332,-1.881 -1.777,-0.788 -4.339,-1.128 -2.562,-0.339 -3.991,-0.263 -1.43,0.076 -2.349,0.22 -0.918,0.144 -2.084,0.608 -1.166,0.464 -1.949,1.08 -0.782,0.617 -1.272,1.526 -0.489,0.909 -0.626,2.174 -0.137,1.264 0.154,2.798 0.291,1.534 1.14,2.863 0.85,1.329 1.712,2.21 0.863,0.881 2.428,1.647 1.565,0.766 5.795,1.264" />
      <path
         id="STROKE_f542ff24-7378-420e-aca9-2820b02694cb"
         opacity="1"
         fill="none"
         stroke="#333333"
         stroke-width="1.837"
         stroke-opacity="1"
         stroke-linecap="round"
         stroke-linejoin="round"
         d="m -1227.073,910.915 0.302,0.022 q 0.027,0.056 15.288,-2.353 0.077,0.095 0.214,1.049 0.138,0.954 0.554,2.033 0.416,1.08 2.376,3.511 1.96,2.431 6.953,7.094 l 0.138,0.193" />
      <path
         id="STROKE_bbdcbb69-c774-4d3e-9bc1-19b7361d6f94"
         opacity="1"
         fill="none"
         stroke="#333333"
         stroke-width="1.837"
         stroke-opacity="1"
         stroke-linecap="round"
         stroke-linejoin="round"
         d="m -1210.359,908.466 q 0.01,-0.05 0.481,-0.672 0.474,-0.622 2.734,-1.852 2.26,-1.23 3.755,-1.933 1.495,-0.704 3.044,-1.542 l 0.124,-0.059" />
      <path
         id="STROKE_2960bd42-a413-4770-b327-fb4a14066035"
         opacity="1"
         fill="none"
         stroke="#333333"
         stroke-width="1.837"
         stroke-opacity="1"
         stroke-linecap="round"
         stroke-linejoin="round"
         d="m -1220.837,912.169 q -0.193,0.209 -1.251,4.58 -1.058,4.37 -1.103,8.896 0.05,0.042 0.204,0.056 0.154,0.014 0.36,-0.024" />
      <path
         id="STROKE_43d3c84f-c4e0-4e99-a974-bf22d2ab274d"
         opacity="1"
         fill="none"
         stroke="#333333"
         stroke-width="1.702"
         stroke-opacity="1"
         stroke-linecap="round"
         stroke-linejoin="round"
         d="m -1221.635,910.018 q -0.053,-0.016 -1.708,-2.302 -1.655,-2.285 -3.723,-7.28 -2.068,-4.995 -2.229,-5.345" />
      <path
         id="STROKE_7ad23463-14e0-4107-9f2c-67c5d8f09a52"
         opacity="1"
         fill="none"
         stroke="#333333"
         stroke-width="1.837"
         stroke-opacity="1"
         stroke-linecap="round"
         stroke-linejoin="round"
         d="m -1219.946,863.55 q 0.153,0.729 0.226,0.838 0.074,0.109 0.302,0.33 0.228,0.22 0.269,0.23 0.042,0.009 0.256,0.154 0.214,0.146 0.999,0.255 0.784,0.108 1.265,-0.014 0.48,-0.123 0.932,-0.662 0.453,-0.538 0.601,-1.103 0.147,-0.565 0.037,-1.223 -0.111,-0.657 -0.552,-0.982 -0.441,-0.325 -0.88,-0.325 -0.439,0 -0.691,0.108 -0.252,0.107 -0.553,0.645 -0.301,0.538 -0.385,1.373 -0.084,0.835 0.198,1.648 0.281,0.813 1.463,1.807" />
      <path
         id="STROKE_c918652f-93b9-413b-be4d-e4d08dd17f29"
         opacity="1"
         fill="none"
         stroke="#333333"
         stroke-width="1.837"
         stroke-opacity="1"
         stroke-linecap="round"
         stroke-linejoin="round"
         d="m -1218.088,850.576 q -0.054,0.396 -0.023,0.438 l 0.037,0.418 q 0.04,0.351 0.647,0.943 0.608,0.592 1.46,0.704 0.852,0.112 1.197,-0.318 0.345,-0.431 0.366,-0.97 0.021,-0.54 -0.124,-0.981 -0.145,-0.44 -0.42,-0.785 -0.275,-0.344 -0.379,-0.451 -0.103,-0.107 -0.675,-0.374 -0.572,-0.266 -0.861,-0.291 -0.29,-0.026 -0.701,0.087 -0.411,0.114 -0.643,0.552 -0.233,0.439 -0.248,0.98 -0.015,0.54 0.546,1.406 0.561,0.866 0.72,1.053" />
      <path
         id="STROKE_1f95120d-b6b1-4c6b-be73-efbd667a6d37"
         opacity="1"
         fill="none"
         stroke="#333333"
         stroke-width="1.837"
         stroke-opacity="1"
         stroke-linecap="round"
         stroke-linejoin="round"
         d="m -1217.757,842.762 q 0.023,0.045 0.141,0.169 0.117,0.124 0.395,0.316 0.277,0.191 0.303,0.216 0.027,0.024 0.656,0.164 0.628,0.141 1.093,0.043 0.465,-0.097 0.669,-0.482 0.203,-0.386 0.235,-0.693 0.032,-0.307 0.012,-0.49 -0.02,-0.183 -0.051,-0.323 -0.03,-0.141 -0.635,-0.917 -0.604,-0.776 -1.206,-1.07 -0.602,-0.295 -0.878,-0.355 -0.276,-0.06 -0.913,-0.002 -0.636,0.057 -0.725,1.917 -0.09,1.859 -0.021,2.239" />
      <path
         id="STROKE_1b081597-1cfb-4678-8007-6629554911a6"
         opacity="1"
         fill="none"
         stroke="#fac141"
         stroke-width="1.742"
         stroke-opacity="1"
         stroke-linecap="round"
         stroke-linejoin="round"
         d="m -1254.45,805.259 q -0.697,1.25 -0.725,1.644 -0.028,0.394 0.012,0.619 0.04,0.224 0.259,0.555 0.22,0.33 1.222,1.088 1.001,0.758 2.857,1.568 1.856,0.809 4.226,1.152 2.371,0.343 4.108,0.304 1.737,-0.04 3.518,-0.699 1.781,-0.658 3.119,-1.677 1.338,-1.018 2.107,-1.968 0.769,-0.949 1.251,-1.732 0.482,-0.783 0.996,-2.472 0.515,-1.689 0.627,-3.231 0.112,-1.542 -0.231,-3.072 -0.344,-1.53 -1.236,-2.875 -0.893,-1.345 -2.4,-2.574 -1.506,-1.229 -3.378,-1.983 -1.872,-0.755 -4.152,-0.985 -2.28,-0.23 -4.3,-0.015 -2.02,0.215 -3.708,0.914 -1.688,0.699 -2.886,1.581 -1.197,0.882 -1.977,2.02 -0.781,1.137 -1.09,3.044 -0.31,1.906 -0.198,3.479 0.111,1.574 0.751,3.152 0.64,1.579 1.421,2.633 0.78,1.054 2.177,2.093 1.396,1.039 4.204,1.137 2.808,0.098 3.666,0.073" />
      <path
         id="STROKE_077ac941-7b1a-4717-aec5-b27e3ee1d2a5"
         opacity="1"
         fill="none"
         stroke="#fac141"
         stroke-width="1.837"
         stroke-opacity="1"
         stroke-linecap="round"
         stroke-linejoin="round"
         d="m -1225.02,798.145 q 0.063,0.09 3.336,-0.472 3.273,-0.561 6.089,-0.909 2.817,-0.348 4.226,-0.369 1.409,-0.022 1.882,0.024 0.472,0.045 0.772,0.25 0.3,0.205 0.454,0.821 0.153,0.616 0.325,1.398 0.171,0.783 0.425,1.409 0.253,0.627 0.488,1.084 0.235,0.456 0.419,0.756 0.183,0.3 0.327,0.543 0.143,0.243 1.327,1.742 1.184,1.499 2.5,2.796 1.315,1.297 2.196,2.036 0.88,0.739 1.401,1.12 0.521,0.382 0.753,0.446" />
      <path
         id="STROKE_f26f593a-a201-4351-ab2e-e759f2b46e5c"
         opacity="1"
         fill="none"
         stroke="#fac141"
         stroke-width="1.837"
         stroke-opacity="1"
         stroke-linecap="round"
         stroke-linejoin="round"
         d="m -1208.9,794.436 q 0.346,0.113 8.966,-5.277 -0.049,-0.092 -0.321,-0.284" />
      <path
         id="STROKE_3255d7e5-5255-4a8b-95be-82ce2cba9b41"
         opacity="1"
         fill="none"
         stroke="#fac141"
         stroke-width="1.837"
         stroke-opacity="1"
         stroke-linecap="round"
         stroke-linejoin="round"
         d="m -1223.323,800.926 q -0.139,0.272 -0.798,2.501 -0.66,2.229 -0.788,4.168 -0.129,1.94 -0.065,2.771 0.065,0.832 0.209,1.236 0.144,0.405 0.415,0.564 0.27,0.158 0.561,0.277" />
      <path
         id="STROKE_ab1f8f02-0d03-4d16-b21b-f23adeefb869"
         opacity="1"
         fill="none"
         stroke="#fac141"
         stroke-width="1.837"
         stroke-opacity="1"
         stroke-linecap="round"
         stroke-linejoin="round"
         d="m -1223.094,796.128 q -0.285,-0.426 -1.281,-2.223 -0.995,-1.797 -1.705,-4.062 -0.709,-2.266 -1.077,-4.052 -0.369,-1.786 -0.51,-2.312" />
      <path
         id="STROKE_243c8c2f-775c-4ff5-a733-3db1087ff0be"
         opacity="1"
         fill="none"
         stroke="#f45e58"
         stroke-width="1.804"
         stroke-opacity="1"
         stroke-linecap="round"
         stroke-linejoin="round"
         d="m -1256.215,742.502 q 0.068,0.319 0.83,1.345 0.762,1.026 2.281,1.855 1.519,0.829 3.694,1.424 2.176,0.595 4.397,0.744 2.222,0.149 3.66,0.008 1.439,-0.141 2.675,-0.96 1.235,-0.819 2.025,-1.76 0.79,-0.941 1.371,-3.012 0.58,-2.07 0.711,-3.605 0.132,-1.534 -0.112,-2.662 -0.244,-1.128 -0.491,-1.65 -0.246,-0.522 -1.22,-1.556 -0.973,-1.033 -1.858,-1.575 -0.884,-0.542 -1.598,-0.908 -0.714,-0.365 -2.783,-0.761 -2.068,-0.397 -3.879,-0.474 -1.811,-0.077 -3.524,0.158 -1.713,0.234 -2.753,0.689 -1.04,0.454 -2.165,1.315 -1.125,0.86 -1.769,1.898 -0.644,1.038 -0.938,2.123 -0.295,1.085 -0.139,2.347 0.155,1.261 0.505,2.23 0.349,0.969 2.147,2.721 1.797,1.753 2.318,2.184" />
      <path
         id="STROKE_2b6da7f4-637b-4af2-90ec-26cbd1e3168e"
         opacity="1"
         fill="none"
         stroke="#f45e58"
         stroke-width="1.756"
         stroke-opacity="1"
         stroke-linecap="round"
         stroke-linejoin="round"
         d="m -1229.694,735.782 q 0.745,0.102 0.792,0.117 0.135,0.071 5.933,0.103 5.799,0.032 9.032,-0.127 3.233,-0.159 4.859,-0.292 1.627,-0.132 3.144,-0.152 0.18,0.467 0.795,3.648 0.615,3.181 2.306,5.402 1.69,2.221 1.882,2.462" />
      <path
         id="STROKE_2aa0cf82-ed72-4ee2-9234-004906a7da38"
         opacity="1"
         fill="none"
         stroke="#f45e58"
         stroke-width="1.837"
         stroke-opacity="1"
         stroke-linecap="round"
         stroke-linejoin="round"
         d="m -1207.611,736.247 q 0.296,-0.36 0.936,-0.791 0.64,-0.43 1.596,-0.99 0.957,-0.56 2.281,-1.403 1.323,-0.844 1.779,-1.166 0.456,-0.323 0.988,-1.536 l -0.19,-0.432" />
      <path
         id="STROKE_74dc758a-6566-4822-91bc-1f0611c9b00d"
         opacity="1"
         fill="none"
         stroke="#f45e58"
         stroke-width="1.837"
         stroke-opacity="1"
         stroke-linecap="round"
         stroke-linejoin="round"
         d="m -1221.702,740.02 q 0.026,0.07 -1.095,3.327 -1.121,3.256 -1.965,6.794 l 0.082,0.372" />
      <path
         id="STROKE_3f686e33-5400-4757-96e2-dc06d9a5e9a6"
         opacity="1"
         fill="none"
         stroke="#f45e58"
         stroke-width="1.688"
         stroke-opacity="1"
         stroke-linecap="round"
         stroke-linejoin="round"
         d="m -1222.593,738.27 q -0.387,-0.266 -1.708,-3.278 -1.322,-3.012 -2.152,-6.337 -0.83,-3.325 -0.985,-3.823" />
      <path
         id="STROKE_13431379-2e3d-43d2-a773-576256ca5f86"
         opacity="1"
         fill="none"
         stroke="#71c047"
         stroke-width="1.724"
         stroke-opacity="1"
         stroke-linecap="round"
         stroke-linejoin="round"
         d="m -1257.275,678.593 q 0.03,0.157 0.069,0.981 0.04,0.825 0.596,1.542 0.556,0.718 1.856,1.426 1.299,0.708 3.656,1.293 2.357,0.586 4.89,0.729 2.532,0.142 4.19,0.034 1.657,-0.109 2.855,-0.486 1.197,-0.378 2.261,-1.074 1.063,-0.695 1.85,-1.676 0.787,-0.98 1.214,-2.398 0.426,-1.418 0.461,-2.811 0.035,-1.393 -0.847,-3.171 -0.881,-1.777 -2.005,-3.037 -1.123,-1.259 -2.077,-2.127 -0.955,-0.868 -2.646,-1.737 -1.692,-0.87 -3.556,-1.324 -1.865,-0.455 -3.78,-0.508 -1.914,-0.053 -2.913,0.02 -0.998,0.073 -1.673,0.278 -0.676,0.206 -1.699,0.783 -1.023,0.577 -2.082,1.837 -1.059,1.26 -1.618,3.396 -0.56,2.136 -0.691,3.378 -0.132,1.242 -0.148,1.894 -0.017,0.651 -0.016,1.34 0,0.69 0.09,1.295 0.091,0.605 0.294,1.219 0.203,0.614 1.639,1.852 1.436,1.238 2.019,1.614" />
      <path
         id="STROKE_eb82cee7-7e0c-42e3-a730-db065c6bfcb0"
         opacity="1"
         fill="none"
         stroke="#71c047"
         stroke-width="1.721"
         stroke-opacity="1"
         stroke-linecap="round"
         stroke-linejoin="round"
         d="m -1229.754,674.119 0.067,0.063 q 0.565,0.122 0.603,0.151 0.037,0.029 3.084,0.037 3.048,0.008 4.818,-0.064 1.77,-0.071 4.551,-0.158 2.781,-0.087 4.509,-0.099 1.728,-0.012 6.098,0.026 -0.024,0.007 -0.126,0.17 -0.102,0.162 -0.151,0.625 -0.048,0.463 0.058,1.231 0.106,0.768 1.3,2.504 1.194,1.735 2.142,2.87 0.949,1.135 5.406,4.082 l 0.228,0.117" />
      <path
         id="STROKE_4db3462b-f7cc-4079-a1c4-aff228307e3b"
         opacity="1"
         fill="none"
         stroke="#71c047"
         stroke-width="1.837"
         stroke-opacity="1"
         stroke-linecap="round"
         stroke-linejoin="round"
         d="m -1206.151,674.151 q 0,-0.175 0.508,-0.833 0.512,-0.658 2.2,-1.369 1.688,-0.71 2.761,-1.128 1.074,-0.419 1.477,-0.652 0.402,-0.234 0.632,-0.5 0.23,-0.267 0.38,-0.945" />
      <path
         id="STROKE_acd671b3-4fef-48b6-9245-e8001e081987"
         opacity="1"
         fill="none"
         stroke="#71c047"
         stroke-width="1.837"
         stroke-opacity="1"
         stroke-linecap="round"
         stroke-linejoin="round"
         d="m -1222.627,675.812 q -0.103,0.342 -1.098,3.452 -0.995,3.11 -1.552,5.056 -0.556,1.945 -0.597,3.164 -0.041,1.218 0.171,1.526 0.212,0.307 0.454,0.571" />
      <path
         id="STROKE_88d7bf3f-291b-4343-badb-cf827f7e725a"
         opacity="1"
         fill="none"
         stroke="#71c047"
         stroke-width="1.837"
         stroke-opacity="1"
         stroke-linecap="round"
         stroke-linejoin="round"
         d="m -1223.094,674.024 q -0.825,-0.299 -2.238,-3.226 -1.413,-2.927 -1.982,-4.781 -0.57,-1.854 -0.839,-2.976 -0.27,-1.121 -0.455,-1.928 -0.185,-0.807 -0.323,-1.291" />
      <path
         id="STROKE_e4d1993d-703c-4f09-90ad-75d459318647"
         opacity="1"
         fill="none"
         stroke="#333333"
         stroke-width="1.837"
         stroke-opacity="1"
         stroke-linecap="round"
         stroke-linejoin="round"
         d="m -1218.394,637.859 q 0.266,0.373 0.293,0.436 0.027,0.062 0.749,0.658 0.723,0.596 1.383,0.708 0.66,0.111 1.032,0.012 0.372,-0.099 0.51,-0.244 0.139,-0.145 0.209,-0.848 0.071,-0.703 -0.512,-1.424 -0.583,-0.722 -1.545,-1.069 -0.962,-0.347 -1.56,-0.352 -0.597,-0.006 -0.959,0.123 -0.361,0.129 -0.624,0.471 -0.262,0.341 -0.308,0.894 -0.046,0.553 0.525,1.321 0.57,0.767 3.726,1.859" />
      <path
         id="STROKE_7f18a659-08e7-4907-98dc-f9cfcec41519"
         opacity="1"
         fill="none"
         stroke="#333333"
         stroke-width="1.837"
         stroke-opacity="1"
         stroke-linecap="round"
         stroke-linejoin="round"
         d="m -1215.738,628.722 q 0.088,0.603 0.238,0.917 0.151,0.314 0.637,0.44 0.487,0.125 0.729,0.093 0.242,-0.033 0.481,-0.295 0.239,-0.263 0.294,-0.522 0.055,-0.26 0.085,-0.391 0.03,-0.131 -0.246,-0.884 -0.277,-0.753 -0.685,-1.111 -0.408,-0.359 -1.207,-0.627 -0.799,-0.269 -1.457,-0.232 -0.658,0.037 -1.136,0.364 -0.478,0.326 -0.661,0.614 -0.183,0.287 -0.231,0.46 -0.048,0.174 -0.106,0.566 -0.057,0.392 0.35,1.29 0.408,0.898 2.414,2.296" />
      <path
         id="STROKE_5730deb6-4019-48c9-aae7-aa4b016e9e25"
         opacity="1"
         fill="none"
         stroke="#333333"
         stroke-width="1.837"
         stroke-opacity="1"
         stroke-linecap="round"
         stroke-linejoin="round"
         d="m -1217.232,620.444 q 0.203,0.33 0.711,1.008 0.507,0.678 1.089,0.969 0.583,0.291 1.123,0.265 0.541,-0.026 0.798,-0.263 0.256,-0.236 0.36,-0.782 0.104,-0.545 0.028,-0.962 -0.076,-0.417 -0.342,-0.861 -0.265,-0.445 -0.535,-0.705 -0.27,-0.259 -0.51,-0.42 -0.241,-0.161 -0.745,-0.274 -0.504,-0.113 -0.907,0.094 -0.402,0.208 -0.621,0.517 -0.218,0.31 -0.429,0.797 -0.21,0.488 -0.384,0.948" />
      <path
         id="STROKE_0ba06b70-3b04-4360-865b-85440b4f1643"
         opacity="1"
         fill="none"
         stroke="#1c7aa2"
         stroke-width="1.687"
         stroke-opacity="1"
         stroke-linecap="round"
         stroke-linejoin="round"
         d="m -1254.128,579.237 q -0.013,0.028 -0.216,0.842 -0.203,0.815 0,1.501 0.2,0.687 0.311,0.812 0.11,0.125 1.183,0.838 1.073,0.713 3.253,1.045 2.18,0.333 3.849,0.23 1.669,-0.103 3.12,-0.605 1.451,-0.503 2.611,-1.348 1.159,-0.844 1.83,-1.888 0.67,-1.043 0.913,-2.563 0.242,-1.52 0.167,-2.704 -0.075,-1.183 -0.475,-2.301 -0.401,-1.119 -1.448,-2.323 -1.048,-1.204 -1.9,-1.85 -0.853,-0.647 -2.096,-1.295 -1.243,-0.648 -3.447,-0.928 -2.204,-0.28 -4.195,-0.203 -1.99,0.076 -3.412,0.482 -1.423,0.405 -2.418,0.968 -0.995,0.564 -1.667,1.314 -0.672,0.75 -0.961,2.112 -0.29,1.363 0.12,3.216 0.409,1.853 1.386,3.457 0.977,1.604 1.528,2.389 0.55,0.785 2.261,1.919 1.71,1.134 2.917,1.598 1.207,0.465 2.057,0.745" />
      <path
         id="STROKE_6fa194c0-6ee1-4a69-ba04-4921fe289c43"
         opacity="1"
         fill="none"
         stroke="#1c7aa2"
         stroke-width="1.746"
         stroke-opacity="1"
         stroke-linecap="round"
         stroke-linejoin="round"
         d="m -1230.823,575.102 0.148,0.112 q 0.136,0.079 3.139,0.104 3.004,0.024 4.745,-0.069 1.741,-0.092 5.609,-0.307 3.869,-0.215 6.264,-0.347 2.395,-0.131 3.422,0.079 1.027,0.211 1.438,0.357" />
      <path
         id="STROKE_ce73e71c-267c-4dba-a0bb-3162791c22d3"
         opacity="1"
         fill="none"
         stroke="#1c7aa2"
         stroke-width="1.837"
         stroke-opacity="1"
         stroke-linecap="round"
         stroke-linejoin="round"
         d="m -1207.585,576.024 q -0.036,0.125 2.782,3.175 2.818,3.05 7.01,6.396 l 0.286,0.133" />
      <path
         id="STROKE_b5d8f1a2-45c4-4e2c-a4d2-2f6014368622"
         opacity="1"
         fill="none"
         stroke="#1c7aa2"
         stroke-width="1.837"
         stroke-opacity="1"
         stroke-linecap="round"
         stroke-linejoin="round"
         d="m -1209.214,572.054 q 0.481,-0.119 0.526,-0.107 0.044,0.012 2.39,-1.261 2.346,-1.274 3.99,-2.116 1.644,-0.841 2.411,-1.596 0.767,-0.755 0.962,-1.192 0.196,-0.437 0.266,-0.645" />
      <path
         id="STROKE_5318b514-4859-485c-8b4d-9c4e427f03e6"
         opacity="1"
         fill="none"
         stroke="#1c7aa2"
         stroke-width="1.713"
         stroke-opacity="1"
         stroke-linecap="round"
         stroke-linejoin="round"
         d="m -1222.933,578.347 q 0.534,0.216 -5.908,12.516 l -0.064,0.19" />
      <path
         id="STROKE_984b37fd-1e88-46f5-b3b6-e54c78f67b52"
         opacity="1"
         fill="none"
         stroke="#1c7aa2"
         stroke-width="1.787"
         stroke-opacity="1"
         stroke-linecap="round"
         stroke-linejoin="round"
         d="m -1224.528,574.071 q -0.086,-0.029 -1.732,-2.485 -1.647,-2.456 -2.961,-7.258 -1.313,-4.803 -1.475,-5.248" />
      <path
         id="STROKE_1c3e8437-7576-4548-bbf2-c2ddfb6859bc"
         opacity="1"
         fill="none"
         stroke="#333333"
         stroke-width="1.331"
         stroke-opacity="1"
         stroke-linecap="round"
         stroke-linejoin="round"
         d="m -1147.828,961.612 q -0.119,-0.017 -2.463,-0.076 -2.345,-0.059 -9.68,-2.526 -7.335,-2.466 -11.138,-3.844 -3.802,-1.378 -6.305,-2.54 -2.503,-1.162 -7.462,-3.89 -4.96,-2.729 -10.758,-5.383 -0.139,0.26 -0.103,0.759" />
      <path
         id="STROKE_0b49fa79-6d3b-4fc6-b3b6-1e0ac3b1fb83"
         opacity="1"
         fill="none"
         stroke="#333333"
         stroke-width="1.837"
         stroke-opacity="1"
         stroke-linecap="round"
         stroke-linejoin="round"
         d="m -1193.237,948.65 -0.089,0.037 q -0.032,-0.014 -0.478,-0.178 -0.446,-0.164 -3.542,-2.196 -3.095,-2.033 -5.223,-4.134 -0.113,-0.095 2.341,-0.632 2.454,-0.538 3.833,-0.719 1.38,-0.181 2.059,-0.156 0.679,0.024 0.991,0.207 0.313,0.182 0.537,0.51 0.225,0.328 0.339,0.653 0.113,0.325 0.161,0.606 0.048,0.28 0.119,1.433 0.071,1.153 0.085,1.573 0.014,0.419 0.251,1.236 0.237,0.817 0.534,1.452" />
      <path
         id="STROKE_bc1640bd-851f-4add-b97c-e82850ed20e4"
         opacity="1"
         fill="none"
         stroke="#333333"
         stroke-width="1.837"
         stroke-opacity="1"
         stroke-linecap="round"
         stroke-linejoin="round"
         d="m -1149.95,516.117 -0.734,-0.01 q -0.42,-0.019 -1.567,0.042 -1.147,0.062 -2.036,0.326 -0.889,0.265 -1.731,0.666 -0.842,0.401 -1.821,0.992 -0.979,0.591 -1.526,0.977 -0.547,0.387 -4.889,3.44 -4.342,3.053 -7.063,4.749 -2.721,1.696 -5.347,4.654 -2.627,2.958 -3.908,4.978 -1.281,2.021 -2.263,3.348 -0.983,1.326 -1.327,1.707 -0.345,0.38 -0.582,0.491" />
      <path
         id="STROKE_c8262481-94a6-4127-8665-fee05cbc9cd9"
         opacity="1"
         fill="none"
         stroke="#333333"
         stroke-width="1.837"
         stroke-opacity="1"
         stroke-linecap="round"
         stroke-linejoin="round"
         d="m -1191.433,538.958 -0.135,-0.237 -0.191,-0.263 q -0.218,-0.26 -0.252,-0.342 -0.033,-0.083 0.498,0.119 0.532,0.202 1.155,0.566 0.623,0.364 2.746,1.736 2.124,1.372 3.468,2.287 1.344,0.915 1.656,1.129 0.312,0.214 0.807,0.614 0.496,0.4 1.138,1.026" />
      <path
         id="STROKE_00135ad8-8247-449c-a2b9-d1cdb1baa500"
         opacity="1"
         fill="none"
         stroke="#333333"
         stroke-width="1.837"
         stroke-opacity="1"
         stroke-linecap="round"
         stroke-linejoin="round"
         d="m -1179.927,545.688 q -0.327,0.442 -0.336,0.443 -0.01,0.002 -1.817,0.667 -1.807,0.664 -3.716,1.281 -1.909,0.616 -2.811,1.097 -0.902,0.481 -1.241,0.693 -0.339,0.212 -0.706,0.428 -0.367,0.216 -1.018,0.377 -0.164,-0.375 -0.265,-5.621 -0.102,-5.247 -0.132,-5.692" />
      <path
         id="STROKE_d5dbb57e-37e7-4691-a4e0-276f63f913b0"
         opacity="1"
         fill="none"
         stroke="#333333"
         stroke-width="1.837"
         stroke-opacity="1"
         stroke-linecap="round"
         stroke-linejoin="round"
         d="m -1171.094,823.688 -0.201,-0.028 q -0.303,0.102 -0.416,-2.472 10e-4,-0.02 0.681,-0.209 0.68,-0.189 2.762,0.779 2.082,0.968 3.201,1.605 1.119,0.637 2.17,0.902 1.051,0.265 1.724,0.041 0.673,-0.224 1.253,-0.952 0.579,-0.729 0.944,-1.1 0.365,-0.37 0.918,-0.737 0.554,-0.366 1.699,-0.544 1.146,-0.178 3.477,0.154 2.33,0.332 3.57,0.461 1.239,0.129 2.731,0.154 1.492,0.025 4.43,0.76 2.937,0.735 3.292,0.867" />
      <path
         id="STROKE_75a5d55b-64d1-445e-bde4-02c96d73e991"
         opacity="1"
         fill="none"
         stroke="#333333"
         stroke-width="1.837"
         stroke-opacity="1"
         stroke-linecap="round"
         stroke-linejoin="round"
         d="m -1170.902,822.654 q -0.112,-0.029 -0.437,-0.432 -0.325,-0.402 -0.551,-0.879 -0.227,-0.476 -0.352,-1.333 -0.125,-0.856 -0.152,-2.739 -0.027,-1.882 0.078,-3.414 0.104,-1.532 0.725,-4.035 0.62,-2.504 0.855,-5.141 0.235,-2.636 -0.563,-7.412 -0.798,-4.777 -1.044,-6.228 -0.247,-1.451 -0.283,-1.962 -0.036,-0.51 0.521,-2.472 0.557,-1.961 0.605,-2.421 0.048,-0.46 0.068,-1.08 0.021,-0.62 -0.129,-1.476 -0.15,-0.857 -0.348,-1.485 -0.198,-0.629 -1.367,-4.152 0.739,-0.546 1.311,-0.846 0.571,-0.301 1.57,-0.777 0.999,-0.477 1.712,-0.704 0.713,-0.227 1.094,-0.254 0.382,-0.028 1.018,-0.07 0.636,-0.042 3.377,-0.067 2.741,-0.025 4.894,0.225 2.153,0.251 4.955,0.702 2.802,0.451 5.63,0.461 2.829,0.01 4.557,0.154 1.728,0.143 2.771,0.443 1.044,0.3 1.585,0.531 0.542,0.231 0.878,0.422 0.337,0.19 0.771,0.58 0.433,0.389 0.603,0.656 0.17,0.266 0.383,0.918 0.214,0.653 0.569,4.071 0.355,3.417 0.498,6.037 0.143,2.619 0.448,4.3 0.305,1.681 1.234,4.372 0.929,2.691 1.513,4.632 0.584,1.94 0.703,3.681 0.118,1.741 -0.346,3.126 -0.463,1.384 -1.612,3.629 -1.149,2.244 -2.58,7.668 -1.431,5.423 -1.649,5.941" />
      <path
         id="STROKE_c142984e-4873-42d5-b240-732e6cfced53"
         opacity="1"
         fill="none"
         stroke="#333333"
         stroke-width="1.837"
         stroke-opacity="1"
         stroke-linecap="round"
         stroke-linejoin="round"
         d="m -1168.925,757.758 q -0.039,-0.088 -0.039,-0.301 0,-0.213 0.18,-0.483 0.181,-0.27 0.555,-0.511 0.375,-0.24 2.109,-0.532 1.733,-0.291 4,0.138 2.267,0.428 4.798,1.249 2.53,0.822 5.064,1.259 2.533,0.438 4.479,0.541 1.946,0.104 3.962,-0.534 2.016,-0.638 3.232,-1.308 1.217,-0.669 3.513,-1.02 2.295,-0.351 4.896,0.021 2.601,0.371 2.47,0.53" />
      <path
         id="STROKE_fa3c885a-c742-46bb-b33c-4dfc01c05775"
         opacity="1"
         fill="none"
         stroke="#333333"
         stroke-width="1.825"
         stroke-opacity="1"
         stroke-linecap="round"
         stroke-linejoin="round"
         d="m -1171.064,754.716 -0.464,-0.19 q -0.199,-0.112 -0.477,-0.322 -0.277,-0.21 -0.365,-0.3 -0.088,-0.09 -0.795,-0.902 -0.706,-0.812 -1.236,-4.639 -0.531,-3.827 -0.59,-6.35 -0.059,-2.524 -0.174,-5.125 -0.115,-2.602 0.506,-5.779 0.621,-3.177 1.102,-4.685 0.482,-1.509 0.542,-2.561 0.06,-1.052 -0.034,-1.629 -0.094,-0.576 -0.314,-1.097 -0.219,-0.521 -0.878,-1.807 -0.659,-1.287 -0.903,-2.055 -0.244,-0.767 -0.248,-0.857 0,-0.09 -0.057,-1 -0.053,-0.91 -0.103,-1.611 -0.049,-0.7 -0.059,-0.988 -0.01,-0.287 0.041,-0.538 -0.015,-0.113 6.293,-0.184 6.308,-0.07 9.937,-0.042 3.629,0.029 5.496,-0.055 1.868,-0.084 3.333,-0.319 1.465,-0.235 3.079,-0.322 1.614,-0.086 3.299,-0.152 1.684,-0.067 2.631,0.034 0.946,0.1 2.049,0.627 1.104,0.526 1.766,0.987 0.663,0.461 0.919,0.729 0.257,0.268 0.301,0.33 0.045,0.062 0.285,0.538 0.24,0.475 0.618,1.821 0.378,1.347 0.743,2.665 0.365,1.318 0.8,2.748 0.434,1.429 1.255,3.67 0.82,2.241 1.428,4.098 0.608,1.857 0.647,3.045 0.039,1.188 -0.758,7.439 -0.798,6.251 -1.238,9.619 -0.439,3.37 -0.782,4.89 -0.343,1.52 -0.639,2.452 -0.296,0.932 -0.674,1.653 -0.378,0.721 -0.712,1.22" />
      <path
         id="STROKE_c19e2e96-fa87-451a-a94e-e1b4208dabce"
         opacity="1"
         fill="none"
         stroke="#333333"
         stroke-width="1.837"
         stroke-opacity="1"
         stroke-linecap="round"
         stroke-linejoin="round"
         d="m -1172.047,695.628 q -0.019,-0.018 -0.19,-0.211 -0.17,-0.194 -0.168,-0.226 0,-0.033 -0.075,-0.363 -0.078,-0.33 0.09,-0.73 0.168,-0.399 2.36,-0.737 2.193,-0.339 4.035,-0.106 1.843,0.234 4.462,0.714 2.62,0.481 4.464,0.545 1.844,0.064 3.366,-0.468 1.523,-0.531 3.057,-1.161 1.534,-0.63 3.014,-0.828 1.481,-0.198 5.602,0.209 4.122,0.408 6.384,0.581 2.263,0.173 3.541,0.19 1.279,0.018 3.185,-0.842 0,-0.129 -0.593,-0.415 -0.591,-0.287 -1.105,-0.462" />
      <path
         id="STROKE_1206c324-74bb-4cce-8f16-ebca16c369f9"
         opacity="1"
         fill="none"
         stroke="#333333"
         stroke-width="1.837"
         stroke-opacity="1"
         stroke-linecap="round"
         stroke-linejoin="round"
         d="m -1172.564,692.108 q -0.032,-0.044 -1.043,-1.441 -1.011,-1.398 -1.483,-5.863 -0.471,-4.465 -0.681,-7.019 -0.21,-2.553 0.333,-5.478 0.544,-2.925 0.884,-4.35 0.34,-1.425 0.42,-2.253 0.08,-0.829 0.083,-1.039 0,-0.211 0.01,-0.584 0,-0.374 -0.422,-1.978 -0.424,-1.605 -0.664,-2.607 -0.24,-1.001 -0.266,-1.397 -0.027,-0.395 -0.182,-1.187 -0.155,-0.792 -0.225,-1.161 -0.07,-0.368 -0.082,-0.664 -0.011,-0.296 -0.01,-0.395 0.01,-0.098 0.106,-0.307 0.1,-0.209 0.157,-0.244 0.076,-0.161 1.66,0.412 1.584,0.573 2.99,0.998 1.405,0.426 2.983,0.681 1.577,0.256 3.774,0.345 2.197,0.089 4.434,-0.25 2.237,-0.338 4.962,-0.964 2.724,-0.626 4.639,-0.932 1.914,-0.306 3.578,-0.194 1.665,0.113 2.306,0.224 0.642,0.111 1.037,0.139 0.395,0.028 0.633,0.017 0.237,-0.01 0.284,0.009 0.047,0.02 0.849,-0.196 0.802,-0.215 1.388,-0.541 0.586,-0.326 1.128,-0.486 0.541,-0.16 1.763,-0.355 1.221,-0.194 1.554,-0.194 0.334,-0.001 0.827,0.021 0.494,0.021 0.528,0.017 0.035,-0.004 0.662,0.151 0.626,0.155 1.04,0.33 0.414,0.174 0.779,0.316 0.364,0.141 1.416,1.139 1.053,0.998 1.373,1.524 0.319,0.527 0.488,1.238 0.168,0.712 -0.011,4.588 -0.179,3.877 0.066,8.801 0.245,4.924 0.602,7.405 0.357,2.481 0.215,4.223 -0.142,1.741 -0.411,2.624 -0.268,0.882 -0.377,3.638 -0.109,2.756 -0.171,3.315" />
      <path
         id="STROKE_61aeaf78-9d13-4ad2-a83e-72043ae45653"
         opacity="1"
         fill="none"
         stroke="#333333"
         stroke-width="1.837"
         stroke-opacity="1"
         stroke-linecap="round"
         stroke-linejoin="round"
         d="m -1151.729,817.296 q -0.205,-0.144 -0.988,-1.499 -0.783,-1.355 -1.136,-2.354 -0.353,-0.998 -0.355,-1.239 0,-0.24 0,-0.699 0.01,-0.459 0.141,-1.113 0.133,-0.653 0.208,-0.97 0.075,-0.317 0.19,-1.158 0.115,-0.841 -0.19,-2.999 -0.305,-2.158 -0.805,-3.83 -0.499,-1.672 -0.784,-3.647 -0.285,-1.975 -0.206,-3.32 0.078,-1.345 0.36,-2.557 0.283,-1.212 0.5,-3.112 0.217,-1.9 0.362,-6.792 0.145,-4.892 0.164,-5.282" />
      <path
         id="STROKE_ee288546-036f-45ae-921c-0a08a08b7914"
         opacity="1"
         fill="none"
         stroke="#333333"
         stroke-width="1.837"
         stroke-opacity="1"
         stroke-linecap="round"
         stroke-linejoin="round"
         d="m -1148.822,755.94 -0.534,-0.156 q -0.682,-0.283 -1.676,-1.249 -0.993,-0.966 -1.493,-1.633 -0.499,-0.668 -0.854,-1.455 -0.354,-0.788 -0.366,-2.483 -0.013,-1.696 0.407,-3.26 0.42,-1.564 0.683,-2.811 0.263,-1.248 0.293,-2.798 0.029,-1.551 0.123,-5.142 0.093,-3.592 0.043,-6.451 -0.049,-2.859 -0.332,-5.283 -0.283,-2.424 -0.239,-3.71 0.044,-1.287 0.179,-2.099 0.134,-0.812 0.247,-1.269 0.113,-0.458 0.345,-1.792 0.231,-1.334 0.344,-1.832" />
      <path
         id="STROKE_0cec274a-97f6-4fe4-ab21-1a439aee3895"
         opacity="1"
         fill="none"
         stroke="#333333"
         stroke-width="1.837"
         stroke-opacity="1"
         stroke-linecap="round"
         stroke-linejoin="round"
         d="m -1148.67,692.067 q -0.029,-0.046 -0.406,-0.28 -0.377,-0.234 -0.823,-1.1 -0.446,-0.867 -0.759,-1.971 -0.314,-1.104 -0.636,-3.434 -0.322,-2.33 -0.281,-4.021 0.041,-1.692 0.69,-4.059 0.65,-2.366 1.099,-3.9 0.45,-1.534 0.388,-4.828 -0.061,-3.294 -0.404,-5.301 -0.343,-2.007 -0.057,-5.545 0.286,-3.537 0.37,-4.087" />
      <path
         id="STROKE_9e0f9802-da91-4b48-8574-f056b7a1bb36"
         opacity="1"
         fill="none"
         stroke="#fac141"
         stroke-width="1.837"
         stroke-opacity="1"
         stroke-linecap="round"
         stroke-linejoin="round"
         d="m -1166.269,819.241 q 0.017,-0.011 1.563,-0.266 1.545,-0.254 2.498,-0.364 0.953,-0.109 2.371,-0.171 1.418,-0.061 2.268,-0.061 0.85,0 2.084,0.077 l 0.077,0.058" />
      <path
         id="STROKE_4f7a66f4-3e39-499e-8240-f378a53985ba"
         opacity="1"
         fill="none"
         stroke="#fac141"
         stroke-width="1.837"
         stroke-opacity="1"
         stroke-linecap="round"
         stroke-linejoin="round"
         d="m -1166.402,819.383 q -0.331,-0.102 -0.56,-0.307 -0.229,-0.205 -0.317,-0.82 -0.088,-0.616 -0.08,-1.064 0.01,-0.447 0.23,-1.012 0.221,-0.564 0.445,-0.872 0.224,-0.307 0.622,-0.726 0.398,-0.42 0.937,-0.8 0.538,-0.38 1.215,-0.671 0.677,-0.291 1.739,-0.552 1.061,-0.26 2.081,-0.39 1.019,-0.13 2.028,-0.152 1.008,-0.021 1.741,0.051 0.733,0.071 1.151,0.185 0.418,0.113 0.601,0.229 0.184,0.116 0.215,0.201 0.032,0.085 0.056,0.191" />
      <path
         id="STROKE_f9e83aa9-a963-4cf1-9dfc-3ad0ed23fbfc"
         opacity="1"
         fill="none"
         stroke="#fac141"
         stroke-width="1.837"
         stroke-opacity="1"
         stroke-linecap="round"
         stroke-linejoin="round"
         d="m -1159.242,817.47 q -0.012,-0.043 -0.062,-0.082 -0.05,-0.039 -0.319,-1.287 -0.269,-1.249 -0.324,-1.489" />
      <path
         id="STROKE_8e91ed77-a1f9-4133-86c9-f403c78f97dc"
         opacity="1"
         fill="none"
         stroke="#fac141"
         stroke-width="1.837"
         stroke-opacity="1"
         stroke-linecap="round"
         stroke-linejoin="round"
         d="m -1167.349,809.597 q 0.031,0.027 1.471,-0.216 1.44,-0.242 2.315,-0.402 0.875,-0.161 1.718,-0.25 0.843,-0.089 2.09,-0.153 1.246,-0.065 2.494,-0.128 1.248,-0.064 1.379,-0.073" />
      <path
         id="STROKE_4b3fa997-b11c-4dae-903f-416e5fd12ab1"
         opacity="1"
         fill="none"
         stroke="#fac141"
         stroke-width="1.837"
         stroke-opacity="1"
         stroke-linecap="round"
         stroke-linejoin="round"
         d="m -1160.829,805.362 q 0.133,0.001 0.963,0.05 0.83,0.049 1.889,-0.255 1.059,-0.305 1.168,-0.344" />
      <path
         id="STROKE_df59483b-1c60-4d6d-9389-8a3018fea9aa"
         opacity="1"
         fill="none"
         stroke="#fac141"
         stroke-width="1.837"
         stroke-opacity="1"
         stroke-linecap="round"
         stroke-linejoin="round"
         d="m -1162.757,806.176 q -0.104,-0.047 -0.103,-0.076 -0.021,-0.038 -0.067,-0.163 -0.046,-0.125 -0.073,-0.2" />
      <path
         id="STROKE_858690a6-ce63-4aba-a0aa-2901a1ffa50b"
         opacity="1"
         fill="none"
         stroke="#fac141"
         stroke-width="1.837"
         stroke-opacity="1"
         stroke-linecap="round"
         stroke-linejoin="round"
         d="m -1162.534,798.16 q -0.063,0.09 -0.138,0.414 -0.075,0.324 0.206,0.886 0.28,0.562 0.51,0.892 0.231,0.33 0.521,0.604 0.291,0.274 0.517,0.437 0.225,0.164 0.733,0.349 0.509,0.186 1.02,0.244 0.512,0.058 0.879,0.033 0.366,-0.025 0.716,-0.264 0.35,-0.239 0.48,-0.39 0.129,-0.152 0.317,-0.542 0.187,-0.39 0.226,-0.873 0.038,-0.483 0.023,-0.782 -0.015,-0.299 -0.088,-0.543 -0.074,-0.244 -0.37,-0.678 -0.296,-0.434 -0.422,-0.58" />
      <path
         id="STROKE_3bccd76d-3b6a-434c-a249-c8dc2de219a1"
         opacity="1"
         fill="none"
         stroke="#fac141"
         stroke-width="1.837"
         stroke-opacity="1"
         stroke-linecap="round"
         stroke-linejoin="round"
         d="m -1161.568,793.849 q 0.167,-0.08 0.17,-0.117 0.044,-0.034 0.135,-0.585 0.091,-0.55 0.051,-1.019 -0.04,-0.468 -0.11,-0.645 -0.069,-0.176 -0.168,-0.335 -0.099,-0.158 -0.297,-0.291 -0.197,-0.133 -0.35,-0.143 -0.154,-0.01 -0.312,0.02 -0.158,0.03 -0.419,0.366 -0.261,0.335 -0.377,0.902 -0.116,0.566 -0.077,1.074 0.04,0.508 0.183,0.868 0.144,0.359 0.486,0.777 0.343,0.418 0.898,0.761 0.556,0.342 1.195,0.498 0.64,0.155 1.124,0.165 0.484,0.01 0.833,-0.092 0.348,-0.102 0.639,-0.4 0.291,-0.299 0.429,-0.535 0.137,-0.236 0.208,-0.481 0.072,-0.244 0.095,-0.374 0.023,-0.131 0.051,-0.605 0.029,-0.475 -0.28,-1.299 -0.31,-0.825 -0.683,-1.451 -0.372,-0.627 -0.503,-0.843" />
      <path
         id="STROKE_d6ec5e0b-aebf-4575-a4ae-dec8e018a58a"
         opacity="1"
         fill="none"
         stroke="#f45e58"
         stroke-width="1.837"
         stroke-opacity="1"
         stroke-linecap="round"
         stroke-linejoin="round"
         d="m -1146.222,815.041 q 0.086,0.061 2.275,-0.265 2.188,-0.326 3.631,-0.605 1.442,-0.28 2.321,-0.372 0.879,-0.091 0.99,-0.111" />
      <path
         id="STROKE_fe5697f6-073c-4fd3-8a60-f4ef54e5ddab"
         opacity="1"
         fill="none"
         stroke="#f45e58"
         stroke-width="1.837"
         stroke-opacity="1"
         stroke-linecap="round"
         stroke-linejoin="round"
         d="m -1147.04,816.734 q -0.052,0.009 -0.294,0.063 -0.243,0.055 -0.59,-0.138 -0.346,-0.192 -0.701,-0.616 -0.355,-0.424 -0.598,-0.927 -0.244,-0.503 -0.342,-1.22 -0.098,-0.716 -0.098,-1.145 0,-0.428 0.201,-1.017 0.202,-0.59 0.398,-0.941 0.195,-0.351 0.485,-0.664 0.29,-0.312 0.528,-0.485 0.239,-0.172 0.567,-0.285 0.328,-0.113 0.726,-0.119 0.399,-0.006 0.76,0.073 0.361,0.08 0.805,0.386 0.444,0.307 0.825,0.942 0.382,0.636 0.708,1.684 0.01,-0.024 0.017,-0.518 0.01,-0.495 0.137,-1.007 0.128,-0.513 0.358,-0.944 0.229,-0.432 0.6,-0.896 0.37,-0.465 0.987,-0.883 0.616,-0.419 0.967,-0.606 0.35,-0.188 0.867,-0.322 0.517,-0.134 0.932,-0.145 0.415,-0.012 0.773,0.104 0.359,0.116 0.736,0.493 0.378,0.378 0.619,0.768 0.24,0.391 0.465,1.388 0.225,0.998 0.273,1.583 0.047,0.586 0.06,0.922 0.013,0.336 0.031,0.906 0.018,0.57 -0.038,1.197 -0.057,0.627 -0.145,0.92 -0.088,0.293 -0.158,0.447" />
      <path
         id="STROKE_db47c8ac-b1a8-4110-9df0-5207dfad3b0d"
         opacity="1"
         fill="none"
         stroke="#f45e58"
         stroke-width="1.837"
         stroke-opacity="1"
         stroke-linecap="round"
         stroke-linejoin="round"
         d="m -1142.27,804.373 q 0.01,0.008 0.327,0.287 0.32,0.278 0.927,0.355 0.607,0.076 1.375,-0.08 0.767,-0.155 1.427,-0.46 0.659,-0.305 1.055,-0.579 0.395,-0.275 0.691,-0.594 0.296,-0.319 0.44,-0.668 0.143,-0.348 0.144,-0.666 10e-4,-0.317 -0.271,-0.665 -0.271,-0.348 -0.76,-0.582 -0.489,-0.234 -1.253,-0.316 -0.764,-0.081 -1.332,-0.018 -0.568,0.064 -1.181,0.347 -0.612,0.284 -0.992,0.58 -0.38,0.297 -0.622,0.642 -0.241,0.344 -0.305,0.784 -0.063,0.44 10e-4,0.791 0.064,0.349 0.392,0.766 0.328,0.417 0.927,0.751 0.6,0.334 1.049,0.42 0.449,0.085 0.661,0.114" />
      <path
         id="STROKE_ef0f8bc9-4d66-44b6-95fb-73a0a936dae5"
         opacity="1"
         fill="none"
         stroke="#f45e58"
         stroke-width="1.837"
         stroke-opacity="1"
         stroke-linecap="round"
         stroke-linejoin="round"
         d="m -1150.256,798.005 q 0.269,0.071 0.995,0.117 0.725,0.045 2.096,-0.056 1.372,-0.102 3.128,-0.379 1.757,-0.278 3.248,-0.581 1.491,-0.303 1.73,-0.355 0.018,-0.009 -0.626,-0.021 -0.644,-0.012 -1.125,-0.035 -0.48,-0.024 -0.782,-0.131 -0.301,-0.107 -0.513,-0.398 -0.211,-0.292 -0.254,-0.681 -0.044,-0.388 0.031,-0.709 0.074,-0.321 0.358,-0.721 0.284,-0.401 0.833,-0.855 0.549,-0.454 1.126,-0.765 0.578,-0.311 1.169,-0.481 0.591,-0.169 0.983,-0.183 0.391,-0.014 0.55,0.019 0.158,0.033 0.442,0.233 0.284,0.2 0.518,0.615 0.233,0.416 0.308,1.066 0.075,0.65 -0.035,1.444 -0.11,0.794 -0.545,1.557 -0.436,0.763 -0.527,0.892" />
      <path
         id="STROKE_571aa375-ad71-4736-9338-b99e63f8a03b"
         opacity="1"
         fill="none"
         stroke="#f45e58"
         stroke-width="1.837"
         stroke-opacity="1"
         stroke-linecap="round"
         stroke-linejoin="round"
         d="m -1165.755,748.508 q 0.093,0.004 1.212,-0.018 1.119,-0.023 2.355,-0.091 1.236,-0.068 2.324,-0.195 1.088,-0.127 1.505,-0.227 0.416,-0.1 0.533,-0.139" />
      <path
         id="STROKE_3c7b93b0-1615-4f3b-ad57-e0106da18ad9"
         opacity="1"
         fill="none"
         stroke="#f45e58"
         stroke-width="1.837"
         stroke-opacity="1"
         stroke-linecap="round"
         stroke-linejoin="round"
         d="m -1166.46,751.544 q -0.084,0.067 -0.454,0.288 -0.37,0.221 -0.709,0.28 -0.34,0.06 -0.596,-0.057 -0.255,-0.116 -0.563,-0.527 -0.307,-0.41 -0.436,-0.655 -0.128,-0.246 -0.194,-0.395 -0.066,-0.149 -0.133,-0.306 -0.067,-0.158 -0.245,-0.784 -0.178,-0.626 -0.24,-1.38 -0.063,-0.754 -0.033,-1.354 0.029,-0.599 0.271,-1.272 0.242,-0.672 0.573,-1.158 0.33,-0.485 0.641,-0.747 0.311,-0.262 0.766,-0.386 0.456,-0.125 0.911,-0.089 0.456,0.036 0.862,0.32 0.406,0.285 0.62,0.537 0.214,0.253 0.371,0.463 0.157,0.21 0.429,0.939 0.271,0.728 0.347,1.821 0,-0.016 0.017,-0.648 0.015,-0.632 0.214,-1.342 0.199,-0.709 0.473,-1.279 0.274,-0.57 0.72,-1.019 0.446,-0.449 0.918,-0.708 0.473,-0.26 1.061,-0.332 0.589,-0.072 0.96,-0.058 0.371,0.014 0.685,0.104 0.315,0.09 0.666,0.38 0.35,0.29 0.555,0.54 0.205,0.25 0.557,1.193 0.352,0.943 0.551,2.142 0.199,1.199 0.25,2.262 0.051,1.063 0.043,1.618 -0.01,0.555 -0.099,0.955 -0.091,0.401 -0.227,0.626 -0.136,0.226 -0.259,0.313 -0.123,0.088 -0.226,0.085 -0.104,-0.002 -0.224,-0.03" />
      <path
         id="STROKE_750b1f7c-366b-4e67-a4e3-80110f4ca7bd"
         opacity="1"
         fill="none"
         stroke="#f45e58"
         stroke-width="1.837"
         stroke-opacity="1"
         stroke-linecap="round"
         stroke-linejoin="round"
         d="m -1161.273,738.479 q 0.077,0.206 0.284,0.482 0.208,0.277 0.781,0.391 0.573,0.115 1.104,0.03 0.531,-0.086 0.863,-0.319 0.332,-0.232 0.5,-0.543 0.168,-0.312 0.207,-0.629 0.04,-0.318 -0.095,-0.739 -0.135,-0.42 -0.511,-0.83 -0.377,-0.409 -0.764,-0.635 -0.387,-0.226 -0.918,-0.304 -0.532,-0.078 -0.842,-0.033 -0.309,0.045 -0.524,0.121 -0.214,0.076 -0.462,0.228 -0.248,0.151 -0.413,0.419 -0.165,0.268 -0.209,0.486 -0.045,0.218 -0.057,0.418 -0.012,0.201 0,0.504 0.01,0.303 0.149,0.712 0.141,0.409 0.294,0.639 0.154,0.229 0.325,0.381 0.171,0.152 0.551,0.187 0.381,0.036 0.578,0.023" />
      <path
         id="STROKE_3619bf1f-008c-408d-89b9-bd4c747f3374"
         opacity="1"
         fill="none"
         stroke="#f45e58"
         stroke-width="1.837"
         stroke-opacity="1"
         stroke-linecap="round"
         stroke-linejoin="round"
         d="m -1169.225,732.859 q -0.071,-0.003 -0.186,0.014 10e-4,-0.092 1.151,-0.372 1.15,-0.279 3.1,-0.509 1.951,-0.231 3.422,-0.419 1.472,-0.189 2.388,-0.25 0.013,-0.007 -0.313,-0.012 -0.327,-0.006 -0.696,-0.116 -0.37,-0.109 -0.657,-0.313 -0.286,-0.204 -0.577,-0.811 -0.292,-0.607 -0.41,-1.209 -0.118,-0.602 -0.101,-1.054 0.018,-0.452 0.19,-0.846 0.172,-0.395 0.551,-0.715 0.38,-0.319 1.004,-0.466 0.623,-0.146 1.132,-0.17 0.509,-0.023 0.769,0.01 0.26,0.033 0.476,0.175 0.216,0.142 0.373,0.351 0.157,0.209 0.251,0.72 0.094,0.51 0.071,1.117 -0.022,0.606 -0.493,1.771 -0.47,1.164 -0.508,1.235" />
      <path
         id="STROKE_660c299c-c307-4f98-8895-6df9e9257998"
         opacity="1"
         fill="none"
         stroke="#71c047"
         stroke-width="1.697"
         stroke-opacity="1"
         stroke-linecap="round"
         stroke-linejoin="round"
         d="m -1145.787,750.62 q 0,0.006 -0.01,0.04 0.033,0.034 1.654,-0.297 1.62,-0.331 9.279,-0.446 l 0.078,-0.012" />
      <path
         id="STROKE_9188a878-d03f-40b0-ad66-94780eb9ece7"
         opacity="1"
         fill="none"
         stroke="#71c047"
         stroke-width="1.837"
         stroke-opacity="1"
         stroke-linecap="round"
         stroke-linejoin="round"
         d="m -1145.51,751.148 q -0.496,-0.627 -0.733,-0.974 -0.238,-0.348 -0.411,-0.606 -0.173,-0.258 -0.794,-1.426 -0.621,-1.167 -1.289,-3.029 -0.668,-1.862 -0.773,-2.136" />
      <path
         id="STROKE_502d9b67-3d44-434b-bcf5-e47e50027177"
         opacity="1"
         fill="none"
         stroke="#71c047"
         stroke-width="1.837"
         stroke-opacity="1"
         stroke-linecap="round"
         stroke-linejoin="round"
         d="m -1140.059,749.047 q -0.177,-0.13 -0.182,-0.143 -0.103,-0.09 -0.577,-0.719 -0.475,-0.63 -1.176,-1.922 -0.701,-1.293 -1.01,-2.06 -0.31,-0.767 -0.404,-0.995" />
      <path
         id="STROKE_0ba98976-df01-4f05-ab9b-6815bd219348"
         opacity="1"
         fill="none"
         stroke="#71c047"
         stroke-width="1.837"
         stroke-opacity="1"
         stroke-linecap="round"
         stroke-linejoin="round"
         d="m -1134.65,750.015 q -0.129,-0.167 -0.14,-0.172 -0.011,-0.006 -0.322,-0.4 -0.311,-0.395 -0.738,-1.107 -0.427,-0.713 -0.908,-2.117 -0.48,-1.404 -0.697,-2.432 -0.218,-1.027 -0.27,-1.218" />
      <path
         id="STROKE_290e97bc-68c6-4238-9580-a6e4fe3c15ff"
         opacity="1"
         fill="none"
         stroke="#71c047"
         stroke-width="1.837"
         stroke-opacity="1"
         stroke-linecap="round"
         stroke-linejoin="round"
         d="m -1142.559,739.755 q 0.112,0.07 0.163,0.092 0.052,0.022 0.131,0.02 0.079,-10e-4 0.797,-0.353 0.719,-0.353 1.493,-0.614 0.774,-0.261 1.618,-0.547 0.845,-0.286 1.329,-0.506 0.485,-0.221 0.879,-0.496 0.395,-0.276 0.57,-0.446 0.175,-0.17 0.239,-0.34 0.064,-0.171 0.059,-0.206 -0.01,-0.036 -0.071,-0.132 -0.066,-0.095 -0.188,-0.164 -0.121,-0.068 -0.195,-0.093 -0.074,-0.024 -0.419,-0.142 -0.344,-0.118 -2.079,-0.283 -1.734,-0.165 -2.648,-0.185 -0.913,-0.019 -1.403,-0.033 -0.491,-0.014 -1.09,0.084" />
      <path
         id="STROKE_463b26a1-5818-4eb7-a163-adebf9a247df"
         opacity="1"
         fill="none"
         stroke="#71c047"
         stroke-width="1.837"
         stroke-opacity="1"
         stroke-linecap="round"
         stroke-linejoin="round"
         d="m -1140.124,732.31 q 0.082,-0.017 0.109,-0.559 0.026,-0.543 -0.142,-1.069 -0.17,-0.526 -0.424,-0.926 -0.255,-0.4 -0.48,-0.604 -0.225,-0.204 -0.418,-0.306 -0.193,-0.102 -0.323,-0.14 -0.129,-0.039 -0.257,-0.032 -0.127,0.007 -0.255,0.153 -0.129,0.146 -0.196,0.744 -0.068,0.598 0.01,1.177 0.075,0.579 0.258,1.059 0.182,0.481 0.457,0.882 0.274,0.401 0.887,0.759 0.613,0.358 1.473,0.506 0.86,0.148 1.318,0.155 0.459,0.007 0.785,-0.051 0.326,-0.057 0.569,-0.178 0.243,-0.12 0.541,-0.49 0.297,-0.369 0.445,-1.151 0.148,-0.782 0.039,-1.607 -0.109,-0.824 -0.326,-1.549 -0.217,-0.725 -0.741,-1.924 -0.524,-1.199 -0.686,-1.536" />
      <path
         id="STROKE_84cfce4c-2aa0-42bc-8bb4-60f09ee49fd3"
         opacity="1"
         fill="none"
         stroke="#71c047"
         stroke-width="1.837"
         stroke-opacity="1"
         stroke-linecap="round"
         stroke-linejoin="round"
         d="m -1164.431,683.713 q 0,0.062 0.029,0.146 0.01,0.035 0.577,0.035 0.573,0 0.907,-0.047 0.335,-0.048 0.813,-0.122 0.478,-0.073 1.219,-0.191 0.74,-0.118 1.496,-0.216 0.755,-0.098 1.533,-0.205 0.778,-0.106 1.438,-0.226 0.659,-0.12 1.412,-0.298 l -0.026,-0.009" />
      <path
         id="STROKE_a325abb5-7a48-405e-835a-6ef8f45dc4c0"
         opacity="1"
         fill="none"
         stroke="#71c047"
         stroke-width="1.837"
         stroke-opacity="1"
         stroke-linecap="round"
         stroke-linejoin="round"
         d="m -1164.42,685.142 q -0.272,-0.226 -0.533,-0.589 -0.26,-0.363 -0.457,-0.692 -0.196,-0.329 -0.743,-1.712 -0.546,-1.384 -0.933,-3.728 -0.387,-2.344 -0.429,-2.526" />
      <path
         id="STROKE_c254da77-ed49-4f76-b37a-d3258e75ab46"
         opacity="1"
         fill="none"
         stroke="#71c047"
         stroke-width="1.837"
         stroke-opacity="1"
         stroke-linecap="round"
         stroke-linejoin="round"
         d="m -1158.571,682.614 q -0.015,-0.054 -0.537,-0.953 -0.521,-0.899 -0.822,-1.609 -0.301,-0.709 -0.518,-1.471 -0.216,-0.761 -0.304,-1.237 -0.088,-0.476 -0.119,-0.637" />
      <path
         id="STROKE_31e6733d-5340-40c9-b57b-76079d83313a"
         opacity="1"
         fill="none"
         stroke="#71c047"
         stroke-width="1.837"
         stroke-opacity="1"
         stroke-linecap="round"
         stroke-linejoin="round"
         d="m -1153.988,683.185 q 0.015,-0.047 -0.301,-0.941 -0.316,-0.895 -0.529,-1.544 -0.214,-0.649 -0.384,-1.318 -0.17,-0.668 -0.511,-1.844 -0.342,-1.176 -0.4,-1.336" />
      <path
         id="STROKE_d2e5ceb2-1c82-4940-befc-c9125a061995"
         opacity="1"
         fill="none"
         stroke="#71c047"
         stroke-width="1.837"
         stroke-opacity="1"
         stroke-linecap="round"
         stroke-linejoin="round"
         d="m -1160.211,673.739 0.029,0.01 q 0.048,-0.021 1.289,-0.454 1.241,-0.433 2.059,-0.747 0.818,-0.313 1.19,-0.51 0.371,-0.196 0.636,-0.402 0.264,-0.205 0.272,-0.399 0.01,-0.194 -0.971,-0.367 -0.978,-0.174 -2.115,-0.23 -1.137,-0.056 -1.895,-0.102 -0.758,-0.045 -1.398,-0.205 l -0.066,-0.059" />
      <path
         id="STROKE_9352b6b9-4125-49e7-a537-4873b4a3d287"
         opacity="1"
         fill="none"
         stroke="#71c047"
         stroke-width="1.837"
         stroke-opacity="1"
         stroke-linecap="round"
         stroke-linejoin="round"
         d="m -1158.901,666.636 q -0.036,-0.179 -0.322,-0.752 -0.286,-0.573 -0.564,-0.897 -0.278,-0.323 -0.437,-0.435 -0.16,-0.111 -0.301,-0.15 -0.141,-0.039 -0.255,-0.019 -0.113,0.02 -0.182,0.114 -0.069,0.093 -0.108,0.487 -0.039,0.393 0.153,0.914 0.191,0.521 0.562,0.998 0.371,0.476 0.601,0.682 0.231,0.206 0.572,0.409 0.341,0.203 0.622,0.319 0.281,0.115 0.792,0.208 0.512,0.092 0.917,0.071 0.406,-0.021 0.718,-0.166 0.312,-0.144 0.662,-0.58 0.349,-0.435 0.598,-1.188 0.25,-0.752 0.263,-1.477 0.013,-0.725 -0.079,-1.106 -0.093,-0.38 -0.181,-0.633" />
      <path
         id="STROKE_dbcafd8f-d355-4540-9a51-86915f698a16"
         opacity="1"
         fill="none"
         stroke="#000000"
         stroke-width="1.837"
         stroke-opacity="1"
         stroke-linecap="round"
         stroke-linejoin="round"
         d="m -1138.183,679.424 q 0.166,0.103 0.433,0.283 0.267,0.18 0.649,0.276 0.381,0.095 0.603,0.072 0.221,-0.023 0.334,-0.091 0.113,-0.069 0.165,-0.128 0.051,-0.059 0.109,-0.236 0.058,-0.176 -0.012,-0.467 -0.069,-0.291 -0.375,-0.536 -0.306,-0.244 -0.788,-0.375 -0.481,-0.131 -0.838,-0.143 -0.356,-0.013 -0.643,0.127 -0.287,0.14 -0.41,0.278 -0.124,0.137 -0.175,0.244 -0.052,0.108 -0.05,0.212 0,0.105 0.029,0.243" />
      <path
         id="STROKE_1c712180-acb9-4f69-89d4-a39d1a354dd6"
         opacity="1"
         fill="none"
         stroke="#000000"
         stroke-width="1.837"
         stroke-opacity="1"
         stroke-linecap="round"
         stroke-linejoin="round"
         d="m -1137.751,671.65 q 0.023,0.018 0.413,0.204 0.391,0.186 0.598,0.219 0.208,0.034 0.42,-0.027 0.212,-0.061 0.216,-0.132 0,-0.071 10e-4,-0.098 -10e-4,-0.026 -0.024,-0.099 -0.023,-0.073 -0.489,-0.451 -0.466,-0.378 -0.919,-0.564 -0.452,-0.186 -0.713,-0.195 -0.262,-0.009 -0.361,0.03 -0.1,0.039 -0.148,0.088 -0.048,0.048 -0.109,0.26 -0.062,0.213 0.054,0.54 0.117,0.326 0.252,0.5 0.135,0.175 0.234,0.286" />
      <path
         id="STROKE_659c31d7-8cfb-47c4-840f-439294363011"
         opacity="1"
         fill="none"
         stroke="#000000"
         stroke-width="1.837"
         stroke-opacity="1"
         stroke-linecap="round"
         stroke-linejoin="round"
         d="m -1138.535,663.841 q 0.078,0.07 0.416,0.347 0.337,0.276 0.556,0.369 0.219,0.092 0.379,0.098 0.161,0.007 0.284,-0.078 0.123,-0.085 0.172,-0.397 0.049,-0.311 -0.128,-0.646 -0.177,-0.336 -0.584,-0.707 -0.407,-0.371 -0.742,-0.543 -0.335,-0.172 -0.473,-0.181 -0.139,-0.01 -0.208,0.01 -0.07,0.019 -0.168,0.113 -0.098,0.094 -0.178,0.212 -0.081,0.119 -0.17,0.3 -0.089,0.182 -0.289,0.718" />
      <path
         id="STROKE_71985907-a0b3-4dcc-bf16-b7c9ccf6f00f"
         opacity="1"
         fill="none"
         stroke="#1c7aa2"
         stroke-width="1.837"
         stroke-opacity="1"
         stroke-linecap="round"
         stroke-linejoin="round"
         d="m -1234.461,538.169 q 0.041,0.008 1.919,0.18 0.067,0.096 0.01,0.257 -0.058,0.162 -0.33,0.386 -0.271,0.224 -1.064,0.37 -0.792,0.146 -1.41,-0.047 -0.618,-0.193 -1.273,-0.881 -0.654,-0.688 -0.798,-1.443 -0.144,-0.755 -0.01,-1.007 0.137,-0.253 0.962,-0.487 0.826,-0.234 1.76,0.048 0.935,0.281 1.321,0.465 0.387,0.183 0.741,0.285 0.353,0.102 0.466,0.071 0.192,-0.257 -0.382,-1.538 -0.575,-1.281 -1.287,-1.967 -0.712,-0.686 -1.096,-0.835 -0.384,-0.15 -0.692,-0.04 -0.307,0.11 -0.311,0.126 0,0.016 -0.208,0.444 -0.205,0.428 -0.123,1.737 0.082,1.31 0.656,2.532 0.01,0.009 -0.549,-0.807 -0.557,-0.816 -0.871,-1.882 0.04,-0.187 1.409,0.572 1.369,0.759 2.279,1.378 0.909,0.619 1.608,0.635 0.093,0.055 0.209,-0.536 0.115,-0.591 0.058,-1.109 -0.057,-0.519 -0.177,-0.756 -0.121,-0.237 -0.135,-0.238 -0.015,-10e-4 -0.11,-0.078 -0.095,-0.077 -0.129,-0.09 -0.033,-0.012 -0.176,-0.011 -0.142,10e-4 -0.238,0.035 -0.096,0.035 -0.114,0.03 -0.018,-0.004 -0.383,1.092 -0.365,1.096 -0.722,2 -0.357,0.905 -0.747,1.319 -0.39,0.414 -0.738,0.475 -0.347,0.062 -0.718,-0.111 -0.371,-0.174 -0.664,-0.499 -0.294,-0.325 -0.547,-0.742 -0.253,-0.416 -0.356,-0.658 -0.103,-0.242 -0.158,-0.446 -0.056,-0.204 -0.072,-0.375 -0.016,-0.171 0.013,-0.344 0.028,-0.173 0.116,-0.25 0.088,-0.076 0.117,-0.076 0.029,0.001 0.184,-0.079 0.155,-0.08 1.009,0.17 0.854,0.25 1.372,0.515 0.518,0.264 0.757,0.325 0.239,0.06 0.405,-0.012 l 0.065,-0.322 q -0.029,-0.172 -0.358,-0.7 -0.33,-0.528 -0.741,-0.798 -0.411,-0.269 -0.698,-0.355 -0.287,-0.086 -0.879,-0.197" />
      <path
         id="STROKE_fb95a293-9bd5-4c21-94f6-e32b1149b8e4"
         opacity="1"
         fill="none"
         stroke="#1c7aa2"
         stroke-width="1.837"
         stroke-opacity="1"
         stroke-linecap="round"
         stroke-linejoin="round"
         d="m -1217.986,517.98 q 0.078,1.054 0.204,1.582 0.126,0.527 0.875,1.645 0.749,1.117 1.339,1.666 0.589,0.55 0.885,0.757 0.295,0.207 0.761,0.401 0.466,0.195 0.603,0.2 0.137,0.006 0.358,0.012 0.221,0.005 0.471,-0.04 0.25,-0.046 0.484,-0.225 0.234,-0.178 0.462,-0.476 0.228,-0.299 0.507,-1.708 0.278,-1.41 0.278,-2.219 -10e-4,-0.809 -0.212,-1.973 -0.211,-1.165 -0.45,-1.851 -0.239,-0.686 -0.92,-1.654 -0.681,-0.967 -1.043,-1.347 -0.362,-0.379 -0.656,-0.539 -0.294,-0.16 -0.708,-0.333 -0.414,-0.172 -0.684,-0.229 -0.27,-0.056 -0.346,-0.072 -0.076,-0.016 -0.401,-0.008 -0.325,0.007 -0.513,0.05 -0.188,0.043 -0.501,0.379 -0.313,0.336 -0.459,0.867 -0.145,0.531 -0.181,0.93 -0.035,0.399 -0.042,0.67 -0.01,0.27 0.017,0.903 0.023,0.632 0.491,2.015 0.469,1.383 0.739,1.952" />
      <path
         id="STROKE_295f1292-51ea-481f-8fe2-d26abb510a56"
         opacity="1"
         fill="none"
         stroke="#1c7aa2"
         stroke-width="1.837"
         stroke-opacity="1"
         stroke-linecap="round"
         stroke-linejoin="round"
         d="m -1212.105,524.484 0.188,-0.016 q 0.178,-0.026 1.606,-0.116 1.428,-0.09 3.181,-0.063 1.753,0.026 2.992,0.003 1.24,-0.024 1.84,-0.071 0.6,-0.047 0.893,-0.062 0.292,-0.014 1.235,-0.026 0.942,-0.012 2.101,-0.008 1.159,0.004 2.143,0.059 0.984,0.055 1.392,0.069 0.408,0.015 0.502,0.017" />
      <path
         id="STROKE_6fcbea84-fc3d-42bb-8b55-abc2d7ea1d6c"
         opacity="1"
         fill="none"
         stroke="#1c7aa2"
         stroke-width="1.837"
         stroke-opacity="1"
         stroke-linecap="round"
         stroke-linejoin="round"
         d="m -1214.276,511.277 q 0.136,-0.004 0.252,-0.009 0.117,-0.005 0.303,-0.042 0.186,-0.036 0.842,-0.116 0.656,-0.08 1.053,-0.106 0.396,-0.026 0.633,-0.035 0.237,-0.008 2.209,0.021 1.971,0.029 3.834,0.019 1.864,-0.011 2.843,-0.016 0.979,-0.006 1.644,0.024 0.664,0.029 1.001,0.033 0.337,0.004 0.58,0.002 0.243,-0.003 1.045,0.032 0.802,0.034 1.525,0.007 0.723,-0.026 0.823,-0.036" />
      <path
         id="STROKE_bce8e5ba-c602-4155-a56e-0efac813992c"
         opacity="1"
         fill="none"
         stroke="#1c7aa2"
         stroke-width="1.837"
         stroke-opacity="1"
         stroke-linecap="round"
         stroke-linejoin="round"
         d="m -1193.622,524.097 q 0.229,-0.033 0.632,-0.188 0.403,-0.154 0.678,-0.379 0.275,-0.225 0.382,-0.37 0.107,-0.145 0.207,-0.465 0.1,-0.32 0.106,-0.769 0,-0.449 -0.016,-0.667 -0.021,-0.217 -0.088,-0.598 -0.068,-0.38 -0.165,-1.019 -0.098,-0.638 -0.203,-1.6 -0.106,-0.963 -0.187,-1.548 -0.082,-0.585 -0.176,-1.095 -0.095,-0.51 -0.288,-1.021 -0.193,-0.51 -0.305,-0.747 -0.111,-0.237 -0.177,-0.348 -0.066,-0.11 -0.195,-0.322 -0.128,-0.212 -0.205,-0.342 -0.078,-0.131 -0.26,-0.504 -0.183,-0.373 -0.322,-0.544 -0.139,-0.171 -0.185,-0.216" />
      <path
         id="STROKE_28891c4c-95e7-4551-b140-ddfffc0c5972"
         opacity="1"
         fill="none"
         stroke="#1c7aa2"
         stroke-width="1.837"
         stroke-opacity="1"
         stroke-linecap="round"
         stroke-linejoin="round"
         d="m -1207.713,522.682 q 0.015,-0.008 0.265,-0.245 0.249,-0.238 0.494,-0.942 0.245,-0.704 0.351,-1.307 0.106,-0.602 0.041,-1.195 -0.065,-0.593 -0.567,-1.797 -0.501,-1.204 -1.032,-2.721 -0.53,-1.517 -0.569,-1.611" />
      <path
         id="STROKE_c74aba64-75d1-4174-9277-3da7dd820e30"
         opacity="1"
         fill="none"
         stroke="#1c7aa2"
         stroke-width="1.837"
         stroke-opacity="1"
         stroke-linecap="round"
         stroke-linejoin="round"
         d="m -1203.087,522.362 q 0.168,-0.052 0.331,-0.241 0.162,-0.189 0.25,-0.804 0.087,-0.614 0.103,-1.22 0.015,-0.606 -0.277,-1.593 -0.292,-0.987 -0.668,-1.747 -0.375,-0.76 -0.7,-1.43 -0.325,-0.67 -0.676,-1.558 -0.351,-0.888 -0.51,-1.234 -0.158,-0.346 -0.201,-0.424" />
      <path
         id="STROKE_17eedd62-56e4-454a-8100-3d3a98e3976b"
         opacity="1"
         fill="none"
         stroke="#1c7aa2"
         stroke-width="1.837"
         stroke-opacity="1"
         stroke-linecap="round"
         stroke-linejoin="round"
         d="m -1199.499,521.472 q 0.12,0.044 0.251,0.02 0.131,-0.024 0.251,-0.613 0.119,-0.59 0.038,-1.36 -0.081,-0.771 -0.236,-1.413 -0.156,-0.641 -0.255,-0.986 -0.099,-0.346 -0.236,-0.72 -0.138,-0.373 -0.432,-1.017 -0.295,-0.645 -0.695,-1.669 -0.401,-1.024 -0.749,-1.801 -0.01,-0.01 0.01,0.05 0.019,0.059 0.066,0.157" />
      <path
         id="STROKE_5e9ed3f9-bdc2-47dd-a1f6-8d2c83999465"
         opacity="1"
         fill="none"
         stroke="#1c7aa2"
         stroke-width="1.837"
         stroke-opacity="1"
         stroke-linecap="round"
         stroke-linejoin="round"
         d="m -1194.166,522.343 q -0.016,-0.283 0,-0.297 0.011,-0.013 -0.077,-0.938 -0.089,-0.924 -0.232,-1.679 -0.142,-0.755 -1.457,-4.988 -1.315,-4.233 -1.401,-4.461" />
      <path
         id="STROKE_f6d1b208-54b2-4d0f-a72d-5739112c6ecd"
         opacity="1"
         fill="none"
         stroke="#1c7aa2"
         stroke-width="1.277"
         stroke-opacity="1"
         stroke-linecap="round"
         stroke-linejoin="round"
         d="m -1237.985,528.269 q -0.118,0.031 -0.352,-0.002 -0.234,-0.032 -0.578,-0.369 -0.345,-0.337 -0.509,-0.638 -0.164,-0.302 -0.208,-0.993 -0.045,-0.691 -0.061,-0.825" />
      <path
         id="STROKE_fa2ea904-b41c-4c2a-bd14-0da124941cfc"
         opacity="1"
         fill="none"
         stroke="#1c7aa2"
         stroke-width="1.277"
         stroke-opacity="1"
         stroke-linecap="round"
         stroke-linejoin="round"
         d="m -1239.839,521.724 q -0.084,-0.113 -0.092,-0.118 -0.047,-0.025 -0.161,-0.552 -0.114,-0.526 -10e-4,-0.905 0.113,-0.378 0.187,-0.527" />
      <path
         id="STROKE_704bd042-356d-4f8e-ac81-3b8cc01d4f8b"
         opacity="1"
         fill="none"
         stroke="#1c7aa2"
         stroke-width="1.277"
         stroke-opacity="1"
         stroke-linecap="round"
         stroke-linejoin="round"
         d="m -1237.191,516.961 q 0.066,0.034 0.526,0.115 0.46,0.082 0.845,-0.07 0.384,-0.153 0.453,-0.19" />
      <path
         id="STROKE_fa3aebbf-28b8-4ae3-8cdf-bb9eef223dc7"
         opacity="1"
         fill="none"
         stroke="#1c7aa2"
         stroke-width="1.277"
         stroke-opacity="1"
         stroke-linecap="round"
         stroke-linejoin="round"
         d="m -1232.722,517.134 q 0.037,0.033 0.054,0.052 0.016,0.019 0.088,0.051 0.072,0.032 0.16,0.055 0.087,0.022 0.154,0.029 0.068,0.008 0.201,0.019 0.134,0.01 0.206,0.017" />
      <path
         id="STROKE_3333a42f-9ed6-485a-bfe3-dbe9552abafa"
         opacity="1"
         fill="none"
         stroke="#1c7aa2"
         stroke-width="1.277"
         stroke-opacity="1"
         stroke-linecap="round"
         stroke-linejoin="round"
         d="m -1228.493,517.182 q 0.014,0.005 0.238,0.115 0.224,0.109 1.186,0.157" />
      <path
         id="STROKE_ba98d03e-1d07-4d77-93cf-9633e97eedbd"
         opacity="1"
         fill="none"
         stroke="#1c7aa2"
         stroke-width="1.277"
         stroke-opacity="1"
         stroke-linecap="round"
         stroke-linejoin="round"
         d="m -1225.612,517.609 q 0.015,0.008 0.43,0.057 0.415,0.049 0.51,0.069" />
      <path
         id="STROKE_41eb6241-3ba5-4c2e-914b-172ce70e42ce"
         opacity="1"
         fill="none"
         stroke="#1c7aa2"
         stroke-width="1.277"
         stroke-opacity="1"
         stroke-linecap="round"
         stroke-linejoin="round"
         d="m -1222.714,517.938 q 0.023,0.011 0.687,-0.068 0.664,-0.079 0.767,-0.096" />
      <path
         id="STROKE_99d23f84-1482-4512-844a-46d063602d69"
         opacity="1"
         fill="none"
         stroke="#1c7aa2"
         stroke-width="1.277"
         stroke-opacity="1"
         stroke-linecap="round"
         stroke-linejoin="round"
         d="m -1220.669,517.666 q 0.024,0.009 0.028,0.023 0.01,0.014 0.289,0.089 0.284,0.076 0.373,0.102" />
      <path
         id="STROKE_7251b7f0-eaf5-4ea8-85d1-51ed077cb11d"
         opacity="1"
         fill="none"
         stroke="#1c7aa2"
         stroke-width="1.277"
         stroke-opacity="1"
         stroke-linecap="round"
         stroke-linejoin="round"
         d="m -1219.252,520.233 0.029,0.009 0.08,-0.071 q 0.018,-0.045 0.653,-0.387 0.636,-0.342 1.047,-0.56 0.411,-0.218 0.56,-0.325 0.149,-0.107 0.382,-0.321 0.233,-0.213 0.316,-0.353 0.082,-0.139 0.089,-0.209 0.01,-0.071 -0.03,-0.176 -0.036,-0.106 -0.186,-0.259 -0.151,-0.153 -0.183,-0.177 -0.032,-0.024 -0.612,-0.534 -0.58,-0.51 -1.238,-0.951 -0.658,-0.44 -1.286,-0.708 -0.629,-0.267 -0.755,-0.323" />
      <path
         id="STROKE_871eb201-8317-4f81-82ed-a6263ebbd531"
         opacity="1"
         fill="none"
         stroke="#000000"
         stroke-width="1.645"
         stroke-opacity="1"
         stroke-linecap="round"
         stroke-linejoin="round"
         d="m -1135.757,985.735 q 0.036,0.21 0.141,0.303 0.105,0.093 2.037,-0.491 1.931,-0.583 4.959,-1.339 3.029,-0.756 5.319,-1.254 2.29,-0.498 4.111,-0.874 1.821,-0.376 4.947,-1.445 l 0.086,-0.106" />
      <path
         id="STROKE_66271220-bafb-4897-8a01-46507323b16a"
         opacity="1"
         fill="none"
         stroke="#000000"
         stroke-width="1.837"
         stroke-opacity="1"
         stroke-linecap="round"
         stroke-linejoin="round"
         d="m -1123.073,978.74 q -0.265,-0.061 -1.314,-0.822 -1.049,-0.761 -1.362,-1.616 -0.313,-0.854 -0.128,-1.612 0.184,-0.757 1.331,-1.505 1.146,-0.748 5.586,-0.909 0.052,0.05 -0.271,0.348 -0.324,0.298 -0.604,0.632 -0.279,0.334 -0.373,0.503 -0.094,0.169 -0.151,0.376 -0.056,0.207 -0.092,0.406 -0.037,0.199 0.074,0.628 0.11,0.429 0.278,0.64 0.167,0.211 0.319,0.308 0.152,0.097 0.536,0.202 0.385,0.104 0.85,0.015 0.466,-0.089 0.884,-0.401 0.418,-0.311 0.802,-0.883 0.385,-0.572 0.503,-0.939 0.119,-0.366 0.177,-0.991 0.057,-0.625 0.01,-0.998 -0.051,-0.374 -0.257,-0.828 -0.206,-0.455 -0.571,-0.903 -0.365,-0.448 -0.638,-0.737" />
      <path
         id="STROKE_ed006011-0a3d-48b1-beb7-a054a5bf61f2"
         opacity="1"
         fill="none"
         stroke="#000000"
         stroke-width="1.837"
         stroke-opacity="1"
         stroke-linecap="round"
         stroke-linejoin="round"
         d="m -1128.293,962.072 q -0.149,0.375 -0.137,0.425 l -0.077,0.387 q -0.056,1.172 0.556,2.496 0.612,1.324 1.42,2.04 0.807,0.716 1.419,0.898 0.612,0.183 1.014,-0.017 0.402,-0.2 0.558,-0.751 0.157,-0.55 0.194,-1.839 0.037,-1.288 0.048,-1.968 0.01,-0.68 0.221,-1.487 0.211,-0.807 0.821,-1.204 0.61,-0.397 1.001,-0.494 0.391,-0.096 1.282,0.051 0.892,0.146 1.523,0.554 0.632,0.407 1.142,0.874 0.509,0.467 0.846,1.383 0.338,0.916 0.293,1.657 -0.044,0.741 -1.211,1.267 -1.166,0.526 -1.594,0.656" />
      <path
         id="STROKE_15864c04-aaa7-4e4b-aa4b-1562ecd73ae6"
         opacity="1"
         fill="none"
         stroke="#000000"
         stroke-width="1.629"
         stroke-opacity="1"
         stroke-linecap="round"
         stroke-linejoin="round"
         d="m -1141.04,960.591 q 0.55,0.012 0.582,-0.004 0.486,-0.048 4.971,-1.035 4.484,-0.987 7.561,-1.876 3.077,-0.889 4.971,-1.46 1.893,-0.571 3.122,-0.682 l 0.061,0.099" />
      <path
         id="STROKE_81893f25-e881-49fe-b386-1ef2d93126fd"
         opacity="1"
         fill="none"
         stroke="#000000"
         stroke-width="1.219"
         stroke-opacity="1"
         stroke-linecap="round"
         stroke-linejoin="round"
         d="m -1133.537,969.807 q -0.445,-0.248 -2.822,-4.178 -2.377,-3.93 -4.355,-8.219 -1.978,-4.289 -2.984,-7.204 -1.006,-2.915 -1.354,-3.819" />
      <path
         id="STROKE_58d9530e-3002-4218-b419-5a51f11f6b4b"
         opacity="1"
         fill="none"
         stroke="#000000"
         stroke-width="1.713"
         stroke-opacity="1"
         stroke-linecap="round"
         stroke-linejoin="round"
         d="m -1132.29,524.353 q -0.562,-0.173 -0.605,-0.212 -0.204,-0.082 -0.357,-0.16 -0.154,-0.077 -1.044,-0.349 -0.891,-0.273 -1.309,-0.258 -0.419,0.016 -0.949,0.168 -0.53,0.152 -1.437,0.882 -0.907,0.729 -1.659,1.984 -0.751,1.255 -0.915,2.074 -0.163,0.82 -0.132,1.372 0.032,0.551 0.463,1.073 0.43,0.523 0.784,0.714 0.354,0.191 1.135,0.433 0.781,0.242 3.115,0.356 2.334,0.113 4.251,-0.02 1.916,-0.133 4.267,-0.578 2.352,-0.446 5.026,-0.893 2.674,-0.447 4.405,-0.679 1.73,-0.232 2.771,-0.329 1.04,-0.098 2.799,0.007 0.017,0.031 -0.217,0.332" />
      <path
         id="STROKE_a7cbefa9-f6d9-419e-8cef-7107578931d3"
         opacity="1"
         fill="none"
         stroke="#000000"
         stroke-width="1.837"
         stroke-opacity="1"
         stroke-linecap="round"
         stroke-linejoin="round"
         d="m -1123.278,531.194 q -0.022,-0.029 -0.118,-0.17 -0.097,-0.142 -0.216,-0.412 -0.119,-0.271 -0.173,-0.545 -0.053,-0.273 -0.071,-0.348 -0.017,-0.075 -0.014,-0.897 0,-0.821 0.477,-1.641 0.474,-0.821 0.731,-1.134" />
      <path
         id="STROKE_832ab876-c189-4515-8cda-50ed74cbcbaf"
         opacity="1"
         fill="none"
         stroke="#000000"
         stroke-width="1.837"
         stroke-opacity="1"
         stroke-linecap="round"
         stroke-linejoin="round"
         d="m -1122.204,522.41 0.383,-0.04 q 0.678,-0.115 7.033,-1.119 -0.033,-0.008 -0.141,0.011 -0.108,0.019 -0.301,0.07" />
      <circle
         id="STROKE_e92e1f02-d059-4538-a49f-c823f7b62aef"
         opacity="1"
         fill="#000000"
         stroke="#000000"
         stroke-width="0.1"
         stroke-opacity="1"
         fill-opacity="1"
         cx="-1127.543"
         cy="522.19702"
         r="0.91900003" />
      <path
         id="STROKE_1f0c1a37-6f67-4d7c-aa26-0cde8472e860"
         opacity="1"
         fill="none"
         stroke="#000000"
         stroke-width="1.837"
         stroke-opacity="1"
         stroke-linecap="round"
         stroke-linejoin="round"
         d="m -1123.681,517.109 q 0.191,0.128 9.28,-2.17 0.074,-0.065 -1.896,0.413 -1.97,0.477 -3.364,0.772 -1.393,0.295 -2.221,0.329 -0.828,0.034 -1.248,-0.131 -0.42,-0.164 -0.601,-1.406 -0.181,-1.242 -0.203,-1.563" />
      <path
         id="STROKE_f5c612a6-845b-4fa6-996f-2050cccc19a5"
         opacity="1"
         fill="none"
         stroke="#000000"
         stroke-width="1.837"
         stroke-opacity="1"
         stroke-linecap="round"
         stroke-linejoin="round"
         d="m -1123.776,503.124 -0.368,0.162 q -0.044,0.007 -0.262,1.016 -0.218,1.01 0,1.907 0.223,0.898 0.586,1.414 0.364,0.516 0.748,0.675 0.385,0.158 0.724,0.12 0.339,-0.039 0.523,-0.437 0.184,-0.398 0.551,-1.536 0.368,-1.138 0.594,-1.556 0.226,-0.418 0.553,-0.922 0.327,-0.503 1.047,-1.14 0.719,-0.637 1.142,-0.833 0.422,-0.196 0.987,-0.27 0.564,-0.073 1.226,0.303 0.662,0.376 1.05,1.288 0.388,0.912 0.433,1.738 0.046,0.826 -0.383,1.58 -0.428,0.753 -1.379,1.029 -0.952,0.276 -1.388,0.36" />
      <path
         id="STROKE_631fdaa2-9ef5-4a4e-b274-4d70e1469c76"
         opacity="1"
         fill="none"
         stroke="#000000"
         stroke-width="1.575"
         stroke-opacity="1"
         stroke-linecap="round"
         stroke-linejoin="round"
         d="m -1139.634,498.995 q -0.039,-10e-4 -0.145,0.03 0,0.011 2.771,-0.858 2.774,-0.87 7.202,-1.485 4.427,-0.615 6.573,-0.84 2.146,-0.226 3.872,-0.24 1.726,-0.015 2.608,0.108 l 0.109,0.17" />
      <path
         id="STROKE_18bf5454-ac5f-4cb6-97ba-b26c63623b09"
         opacity="1"
         fill="none"
         stroke="#000000"
         stroke-width="1.193"
         stroke-opacity="1"
         stroke-linecap="round"
         stroke-linejoin="round"
         d="m -1131.026,509.189 q -0.22,-0.279 -2.484,-6.17 -2.265,-5.891 -3.412,-9.406 -1.148,-3.516 -1.785,-5.551 -0.638,-2.036 -0.994,-3.1 -0.357,-1.065 -0.707,-1.989" />
    </g>
  </g>
  <metadata
     id="metadata936">
    <rdf:RDF>
      <cc:Work
         rdf:about="">
        <dc:title>The big line problem</dc:title>
      </cc:Work>
    </rdf:RDF>
  </metadata>
</svg>
