<?xml version="1.0" encoding="UTF-8" standalone="no"?>
<svg
   xmlns:dc="http://purl.org/dc/elements/1.1/"
   xmlns:cc="http://creativecommons.org/ns#"
   xmlns:rdf="http://www.w3.org/1999/02/22-rdf-syntax-ns#"
   xmlns:svg="http://www.w3.org/2000/svg"
   xmlns="http://www.w3.org/2000/svg"
   xmlns:sodipodi="http://sodipodi.sourceforge.net/DTD/sodipodi-0.dtd"
   xmlns:inkscape="http://www.inkscape.org/namespaces/inkscape"
   version="1.1"
   viewBox="0 0 156.78738 260.09958"
   stroke-miterlimit="10"
   id="svg39"
   sodipodi:docname="three_commits.svg"
   width="156.78738"
   height="260.09958"
   style="fill:none;stroke:none;stroke-linecap:square;stroke-miterlimit:10"
   inkscape:version="0.92.5 (2060ec1f9f, 2020-04-08)">
  <metadata
     id="metadata45">
    <rdf:RDF>
      <cc:Work
         rdf:about="">
        <dc:format>image/svg+xml</dc:format>
        <dc:type
           rdf:resource="http://purl.org/dc/dcmitype/StillImage" />
        <dc:title></dc:title>
      </cc:Work>
    </rdf:RDF>
  </metadata>
  <defs
     id="defs43" />
  <sodipodi:namedview
     pagecolor="#ffffff"
     bordercolor="#666666"
     borderopacity="1"
     objecttolerance="10"
     gridtolerance="10"
     guidetolerance="10"
     inkscape:pageopacity="0"
     inkscape:pageshadow="2"
     inkscape:window-width="640"
     inkscape:window-height="480"
     id="namedview41"
     showgrid="false"
     fit-margin-top="15"
     fit-margin-left="15"
     fit-margin-right="15"
     fit-margin-bottom="15"
     inkscape:zoom="0.55390031"
     inkscape:cx="-74.697298"
     inkscape:cy="88.138794"
     inkscape:current-layer="layer1" />
  <clipPath
     id="g800ff8fafc_0_232.0">
    <path
       d="M 0,0 H 960 V 540 H 0 Z"
       id="path2"
       inkscape:connector-curvature="0"
       style="clip-rule:nonzero" />
  </clipPath>
  <g
     clip-path="url(#g800ff8fafc_0_232.0)"
     id="g37"
     transform="translate(-401.6063,-241.96866)" />
  <g
     inkscape:groupmode="layer"
     id="layer1"
     inkscape:label="Layer 1"
     transform="translate(-401.6063,-241.96866)">
    <rect
       style="fill:#ffffff;fill-opacity:1;stroke:#000000;stroke-opacity:0.01162792"
       id="rect869"
       width="232.89389"
       height="315.94131"
       x="345.63956"
       y="207.79146" />
  </g>
  <g
     inkscape:groupmode="layer"
     id="layer2"
     inkscape:label="Layer 2"
     transform="translate(-401.6063,-241.96866)">
    <path
       d="m 417.6063,436.43045 h 124.78738 v 49.63779 H 417.6063 Z"
       id="path7"
       inkscape:connector-curvature="0"
       style="fill:#000000;fill-opacity:0;fill-rule:evenodd" />
    <path
       d="m 417.6063,436.43045 h 124.78738 v 49.63779 H 417.6063 Z"
       id="path9"
       inkscape:connector-curvature="0"
       style="fill-rule:evenodd;stroke:#000000;stroke-width:2;stroke-linecap:butt;stroke-linejoin:round" />
    <path
       d="m 443.3457,460.91934 v -0.25 q 0,-0.29688 0.10938,-0.40625 0.10937,-0.125 0.28125,-0.125 0.17187,0 0.28125,0.125 0.10937,0.10937 0.10937,0.40625 v 1.75 q 0,0.29687 -0.10937,0.42187 -0.10938,0.10938 -0.28125,0.10938 -0.15625,0 -0.26563,-0.0937 -0.10937,-0.10938 -0.125,-0.35938 -0.0625,-0.67187 -0.875,-1.26562 -0.79687,-0.59375 -2.17187,-0.59375 -1.73438,0 -2.64063,1.09375 -0.90625,1.07812 -0.90625,2.48437 0,1.51563 0.98438,2.5 1,0.98438 2.57812,0.98438 0.92188,0 1.85938,-0.32813 0.9375,-0.34375 1.70312,-1.09375 0.1875,-0.17187 0.34375,-0.17187 0.15625,0 0.26563,0.10937 0.10937,0.0937 0.10937,0.25 0,0.40625 -0.9375,1.01563 -1.51562,1 -3.375,1 -1.875,0 -3.09375,-1.20313 -1.20312,-1.20312 -1.20312,-3.04687 0,-1.89063 1.23437,-3.125 1.23438,-1.25 3.125,-1.25 1.78125,0 3,1.0625 z m 12.51123,3.25 q 0,1.78125 -1.28125,3.04687 -1.28125,1.26563 -3.07812,1.26563 -1.8125,0 -3.09375,-1.26563 -1.26563,-1.28125 -1.26563,-3.04687 0,-1.78125 1.26563,-3.04688 1.28125,-1.26562 3.09375,-1.26562 1.79687,0 3.07812,1.26562 1.28125,1.25 1.28125,3.04688 z m -0.79687,0 q 0,-1.46875 -1.04688,-2.5 -1.03125,-1.03125 -2.51562,-1.03125 -1.48438,0 -2.53125,1.04687 -1.04688,1.03125 -1.04688,2.48438 0,1.45312 1.04688,2.5 1.04687,1.03125 2.53125,1.03125 1.48437,0 2.51562,-1.03125 1.04688,-1.04688 1.04688,-2.5 z m 4.29248,-4.03125 v 0.78125 q 0.98437,-1.0625 1.98437,-1.0625 0.60938,0 1.0625,0.32812 0.45313,0.3125 0.76563,0.96875 0.51562,-0.65625 1.04687,-0.96875 0.53125,-0.32812 1.07813,-0.32812 0.84375,0 1.34375,0.54687 0.65625,0.70313 0.65625,1.54688 v 5.4375 h 0.65625 q 0.28125,0 0.39062,0.10937 0.125,0.10938 0.125,0.28125 0,0.17188 -0.125,0.28125 -0.10937,0.10938 -0.39062,0.10938 h -1.4375 v -6.15625 q 0,-0.59375 -0.35938,-0.98438 -0.35937,-0.39062 -0.82812,-0.39062 -0.4375,0 -0.90625,0.32812 -0.46875,0.3125 -1.07813,1.25 v 5.17188 h 0.65625 q 0.26563,0 0.39063,0.10937 0.125,0.10938 0.125,0.28125 0,0.17188 -0.125,0.28125 -0.125,0.10938 -0.39063,0.10938 h -1.4375 v -6.09375 q 0,-0.625 -0.375,-1.03125 -0.35937,-0.40625 -0.8125,-0.40625 -0.42187,0 -0.82812,0.28125 -0.5625,0.375 -1.1875,1.29687 v 5.17188 h 0.65625 q 0.28125,0 0.39062,0.10937 0.125,0.10938 0.125,0.28125 0,0.17188 -0.125,0.28125 -0.10937,0.10938 -0.39062,0.10938 h -2.09375 q -0.28125,0 -0.40625,-0.10938 -0.125,-0.10937 -0.125,-0.28125 0,-0.17187 0.125,-0.28125 0.125,-0.10937 0.40625,-0.10937 h 0.65625 v -6.46875 h -0.65625 q -0.28125,0 -0.40625,-0.10938 -0.125,-0.10937 -0.125,-0.28125 0,-0.17187 0.125,-0.28125 0.125,-0.10937 0.40625,-0.10937 z m 11.40185,0 v 0.78125 q 0.98438,-1.0625 1.98438,-1.0625 0.60937,0 1.0625,0.32812 0.45312,0.3125 0.76562,0.96875 0.51563,-0.65625 1.04688,-0.96875 0.53125,-0.32812 1.07812,-0.32812 0.84375,0 1.34375,0.54687 0.65625,0.70313 0.65625,1.54688 v 5.4375 h 0.65625 q 0.28125,0 0.39063,0.10937 0.125,0.10938 0.125,0.28125 0,0.17188 -0.125,0.28125 -0.10938,0.10938 -0.39063,0.10938 h -1.4375 v -6.15625 q 0,-0.59375 -0.35937,-0.98438 -0.35938,-0.39062 -0.82813,-0.39062 -0.4375,0 -0.90625,0.32812 -0.46875,0.3125 -1.07812,1.25 v 5.17188 h 0.65625 q 0.26562,0 0.39062,0.10937 0.125,0.10938 0.125,0.28125 0,0.17188 -0.125,0.28125 -0.125,0.10938 -0.39062,0.10938 h -1.4375 v -6.09375 q 0,-0.625 -0.375,-1.03125 -0.35938,-0.40625 -0.8125,-0.40625 -0.42188,0 -0.82813,0.28125 -0.5625,0.375 -1.1875,1.29687 v 5.17188 h 0.65625 q 0.28125,0 0.39063,0.10937 0.125,0.10938 0.125,0.28125 0,0.17188 -0.125,0.28125 -0.10938,0.10938 -0.39063,0.10938 h -2.09375 q -0.28125,0 -0.40625,-0.10938 -0.125,-0.10937 -0.125,-0.28125 0,-0.17187 0.125,-0.28125 0.125,-0.10937 0.40625,-0.10937 h 0.65625 v -6.46875 h -0.65625 q -0.28125,0 -0.40625,-0.10938 -0.125,-0.10937 -0.125,-0.28125 0,-0.17187 0.125,-0.28125 0.125,-0.10937 0.40625,-0.10937 z m 15.33936,-4 v 2.01562 h -1.15625 v -2.01562 z m 0.0156,4 v 7.25 h 3.0625 q 0.29688,0 0.40625,0.10937 0.125,0.10938 0.125,0.28125 0,0.17188 -0.125,0.28125 -0.10937,0.10938 -0.40625,0.10938 h -6.90625 q -0.26562,0 -0.39062,-0.10938 -0.125,-0.10937 -0.125,-0.28125 0,-0.17187 0.125,-0.28125 0.125,-0.10937 0.39062,-0.10937 h 3.0625 v -6.46875 h -2.26562 q -0.28125,0 -0.40625,-0.10938 -0.125,-0.10937 -0.125,-0.28125 0,-0.17187 0.125,-0.28125 0.125,-0.10937 0.40625,-0.10937 z m 9.38623,0 h 4.23438 q 0.28125,0 0.39062,0.10937 0.125,0.10938 0.125,0.28125 0,0.17188 -0.125,0.28125 -0.10937,0.10938 -0.39062,0.10938 h -4.23438 v 5.1875 q 0,0.6875 0.54688,1.14062 0.54687,0.45313 1.59375,0.45313 0.78125,0 1.70312,-0.23438 0.92188,-0.25 1.4375,-0.54687 0.1875,-0.10938 0.29688,-0.10938 0.15625,0 0.26562,0.125 0.10938,0.10938 0.10938,0.26563 0,0.14062 -0.125,0.25 -0.29688,0.3125 -1.4375,0.67187 -1.14063,0.35938 -2.1875,0.35938 -1.375,0 -2.1875,-0.64063 -0.79688,-0.64062 -0.79688,-1.73437 v -5.1875 h -1.4375 q -0.28125,0 -0.40625,-0.10938 -0.10937,-0.10937 -0.10937,-0.28125 0,-0.17187 0.10937,-0.28125 0.125,-0.10937 0.40625,-0.10937 h 1.4375 v -2.29688 q 0,-0.28125 0.10938,-0.40625 0.10937,-0.125 0.28125,-0.125 0.17187,0 0.28125,0.125 0.10937,0.125 0.10937,0.40625 z m 27.99121,1.25 v 1.92187 q 0,2.51563 -1.20312,3.98438 -0.9375,1.15625 -2.35938,1.15625 -0.6875,0 -1.29687,-0.28125 -0.60938,-0.26563 -1.03125,-0.76563 -0.26563,-0.29687 -0.59375,-0.96875 -0.3125,-0.6875 -0.45313,-1.25 -0.21875,-0.79687 -0.21875,-1.875 v -1.92187 q 0,-2.53125 1.20313,-3.98438 0.9375,-1.15625 2.35937,-1.15625 0.70313,0 1.29688,0.28125 0.60937,0.26563 1.03125,0.76563 0.28125,0.3125 0.59375,0.98437 0.3125,0.67188 0.46875,1.23438 0.20312,0.79687 0.20312,1.875 z m -0.78125,0.0937 q 0,-1.09375 -0.3125,-2.04688 -0.3125,-0.95312 -0.70312,-1.51562 -0.23438,-0.32813 -0.59375,-0.5625 -0.53125,-0.32813 -1.1875,-0.32813 -1.3125,0 -2.0625,1.34375 -0.73438,1.32813 -0.73438,3.10938 v 1.71875 q 0,1.10937 0.3125,2.0625 0.3125,0.95312 0.70313,1.53125 0.21875,0.3125 0.59375,0.54687 0.53125,0.32813 1.20312,0.32813 1.29688,0 2.03125,-1.34375 0.75,-1.34375 0.75,-3.125 z"
       id="path11"
       inkscape:connector-curvature="0"
       style="fill:#000000;fill-rule:nonzero" />
    <path
       d="m 417.6063,348.3071 h 124.78738 v 49.63779 H 417.6063 Z"
       id="path13"
       inkscape:connector-curvature="0"
       style="fill:#000000;fill-opacity:0;fill-rule:evenodd" />
    <path
       d="m 417.6063,348.3071 h 124.78738 v 49.63779 H 417.6063 Z"
       id="path15"
       inkscape:connector-curvature="0"
       style="fill-rule:evenodd;stroke:#000000;stroke-width:2;stroke-linecap:butt;stroke-linejoin:round" />
    <path
       d="m 443.3457,372.796 v -0.25 q 0,-0.29688 0.10938,-0.40625 0.10937,-0.125 0.28125,-0.125 0.17187,0 0.28125,0.125 0.10937,0.10937 0.10937,0.40625 v 1.75 q 0,0.29687 -0.10937,0.42187 -0.10938,0.10938 -0.28125,0.10938 -0.15625,0 -0.26563,-0.0937 -0.10937,-0.10938 -0.125,-0.35938 -0.0625,-0.67187 -0.875,-1.26562 -0.79687,-0.59375 -2.17187,-0.59375 -1.73438,0 -2.64063,1.09375 -0.90625,1.07812 -0.90625,2.48437 0,1.51563 0.98438,2.5 1,0.98438 2.57812,0.98438 0.92188,0 1.85938,-0.32813 0.9375,-0.34375 1.70312,-1.09375 0.1875,-0.17187 0.34375,-0.17187 0.15625,0 0.26563,0.10937 0.10937,0.0937 0.10937,0.25 0,0.40625 -0.9375,1.01563 -1.51562,1 -3.375,1 -1.875,0 -3.09375,-1.20313 -1.20312,-1.20312 -1.20312,-3.04687 0,-1.89063 1.23437,-3.125 1.23438,-1.25 3.125,-1.25 1.78125,0 3,1.0625 z m 12.51123,3.25 q 0,1.78125 -1.28125,3.04687 -1.28125,1.26563 -3.07812,1.26563 -1.8125,0 -3.09375,-1.26563 -1.26563,-1.28125 -1.26563,-3.04687 0,-1.78125 1.26563,-3.04688 1.28125,-1.26562 3.09375,-1.26562 1.79687,0 3.07812,1.26562 1.28125,1.25 1.28125,3.04688 z m -0.79687,0 q 0,-1.46875 -1.04688,-2.5 -1.03125,-1.03125 -2.51562,-1.03125 -1.48438,0 -2.53125,1.04687 -1.04688,1.03125 -1.04688,2.48438 0,1.45312 1.04688,2.5 1.04687,1.03125 2.53125,1.03125 1.48437,0 2.51562,-1.03125 1.04688,-1.04688 1.04688,-2.5 z m 4.29248,-4.03125 v 0.78125 q 0.98437,-1.0625 1.98437,-1.0625 0.60938,0 1.0625,0.32812 0.45313,0.3125 0.76563,0.96875 0.51562,-0.65625 1.04687,-0.96875 0.53125,-0.32812 1.07813,-0.32812 0.84375,0 1.34375,0.54687 0.65625,0.70313 0.65625,1.54688 v 5.4375 h 0.65625 q 0.28125,0 0.39062,0.10937 0.125,0.10938 0.125,0.28125 0,0.17188 -0.125,0.28125 -0.10937,0.10938 -0.39062,0.10938 h -1.4375 v -6.15625 q 0,-0.59375 -0.35938,-0.98438 -0.35937,-0.39062 -0.82812,-0.39062 -0.4375,0 -0.90625,0.32812 -0.46875,0.3125 -1.07813,1.25 v 5.17188 h 0.65625 q 0.26563,0 0.39063,0.10937 0.125,0.10938 0.125,0.28125 0,0.17188 -0.125,0.28125 -0.125,0.10938 -0.39063,0.10938 h -1.4375 v -6.09375 q 0,-0.625 -0.375,-1.03125 -0.35937,-0.40625 -0.8125,-0.40625 -0.42187,0 -0.82812,0.28125 -0.5625,0.375 -1.1875,1.29687 v 5.17188 h 0.65625 q 0.28125,0 0.39062,0.10937 0.125,0.10938 0.125,0.28125 0,0.17188 -0.125,0.28125 -0.10937,0.10938 -0.39062,0.10938 h -2.09375 q -0.28125,0 -0.40625,-0.10938 -0.125,-0.10937 -0.125,-0.28125 0,-0.17187 0.125,-0.28125 0.125,-0.10937 0.40625,-0.10937 h 0.65625 V 372.796 h -0.65625 q -0.28125,0 -0.40625,-0.10938 -0.125,-0.10937 -0.125,-0.28125 0,-0.17187 0.125,-0.28125 0.125,-0.10937 0.40625,-0.10937 z m 11.40185,0 v 0.78125 q 0.98438,-1.0625 1.98438,-1.0625 0.60937,0 1.0625,0.32812 0.45312,0.3125 0.76562,0.96875 0.51563,-0.65625 1.04688,-0.96875 0.53125,-0.32812 1.07812,-0.32812 0.84375,0 1.34375,0.54687 0.65625,0.70313 0.65625,1.54688 v 5.4375 h 0.65625 q 0.28125,0 0.39063,0.10937 0.125,0.10938 0.125,0.28125 0,0.17188 -0.125,0.28125 -0.10938,0.10938 -0.39063,0.10938 h -1.4375 v -6.15625 q 0,-0.59375 -0.35937,-0.98438 -0.35938,-0.39062 -0.82813,-0.39062 -0.4375,0 -0.90625,0.32812 -0.46875,0.3125 -1.07812,1.25 v 5.17188 h 0.65625 q 0.26562,0 0.39062,0.10937 0.125,0.10938 0.125,0.28125 0,0.17188 -0.125,0.28125 -0.125,0.10938 -0.39062,0.10938 h -1.4375 v -6.09375 q 0,-0.625 -0.375,-1.03125 -0.35938,-0.40625 -0.8125,-0.40625 -0.42188,0 -0.82813,0.28125 -0.5625,0.375 -1.1875,1.29687 v 5.17188 h 0.65625 q 0.28125,0 0.39063,0.10937 0.125,0.10938 0.125,0.28125 0,0.17188 -0.125,0.28125 -0.10938,0.10938 -0.39063,0.10938 h -2.09375 q -0.28125,0 -0.40625,-0.10938 -0.125,-0.10937 -0.125,-0.28125 0,-0.17187 0.125,-0.28125 0.125,-0.10937 0.40625,-0.10937 h 0.65625 V 372.796 h -0.65625 q -0.28125,0 -0.40625,-0.10938 -0.125,-0.10937 -0.125,-0.28125 0,-0.17187 0.125,-0.28125 0.125,-0.10937 0.40625,-0.10937 z m 15.33936,-4 v 2.01562 h -1.15625 v -2.01562 z m 0.0156,4 v 7.25 h 3.0625 q 0.29688,0 0.40625,0.10937 0.125,0.10938 0.125,0.28125 0,0.17188 -0.125,0.28125 -0.10937,0.10938 -0.40625,0.10938 h -6.90625 q -0.26562,0 -0.39062,-0.10938 -0.125,-0.10937 -0.125,-0.28125 0,-0.17187 0.125,-0.28125 0.125,-0.10937 0.39062,-0.10937 h 3.0625 V 372.796 h -2.26562 q -0.28125,0 -0.40625,-0.10938 -0.125,-0.10937 -0.125,-0.28125 0,-0.17187 0.125,-0.28125 0.125,-0.10937 0.40625,-0.10937 z m 9.38623,0 h 4.23438 q 0.28125,0 0.39062,0.10937 0.125,0.10938 0.125,0.28125 0,0.17188 -0.125,0.28125 -0.10937,0.10938 -0.39062,0.10938 h -4.23438 v 5.1875 q 0,0.6875 0.54688,1.14062 0.54687,0.45313 1.59375,0.45313 0.78125,0 1.70312,-0.23438 0.92188,-0.25 1.4375,-0.54687 0.1875,-0.10938 0.29688,-0.10938 0.15625,0 0.26562,0.125 0.10938,0.10938 0.10938,0.26563 0,0.14062 -0.125,0.25 -0.29688,0.3125 -1.4375,0.67187 -1.14063,0.35938 -2.1875,0.35938 -1.375,0 -2.1875,-0.64063 -0.79688,-0.64062 -0.79688,-1.73437 v -5.1875 h -1.4375 q -0.28125,0 -0.40625,-0.10938 -0.10937,-0.10937 -0.10937,-0.28125 0,-0.17187 0.10937,-0.28125 0.125,-0.10937 0.40625,-0.10937 h 1.4375 v -2.29688 q 0,-0.28125 0.10938,-0.40625 0.10937,-0.125 0.28125,-0.125 0.17187,0 0.28125,0.125 0.10937,0.125 0.10937,0.40625 z m 24.80371,-3.76563 v 11.01563 h 2.67188 q 0.26562,0 0.39062,0.10937 0.125,0.10938 0.125,0.28125 0,0.17188 -0.125,0.28125 -0.125,0.10938 -0.39062,0.10938 h -6.125 q -0.28125,0 -0.40625,-0.10938 -0.125,-0.10937 -0.125,-0.28125 0,-0.17187 0.125,-0.28125 0.125,-0.10937 0.40625,-0.10937 h 2.67187 v -9.9375 l -2.54687,0.79687 q -0.1875,0.0469 -0.26563,0.0469 -0.14062,0 -0.26562,-0.10938 -0.10938,-0.125 -0.10938,-0.28125 0,-0.14062 0.0937,-0.25 0.0781,-0.0781 0.3125,-0.15625 z"
       id="path17"
       inkscape:connector-curvature="0"
       style="fill:#000000;fill-rule:nonzero" />
    <path
       d="m 480,397.9449 v 38.48819"
       id="path19"
       inkscape:connector-curvature="0"
       style="fill:#000000;fill-opacity:0;fill-rule:evenodd" />
    <path
       d="m 480,397.9449 v 26.48819"
       id="path21"
       inkscape:connector-curvature="0"
       style="fill-rule:evenodd;stroke:#1a1a1a;stroke-width:2;stroke-linecap:butt;stroke-linejoin:round" />
    <path
       d="m 476.69653,424.43307 3.30347,9.0762 3.30346,-9.0762 z"
       id="path23"
       inkscape:connector-curvature="0"
       style="fill:#1a1a1a;fill-rule:evenodd;stroke:#1a1a1a;stroke-width:2;stroke-linecap:butt" />
    <path
       d="m 417.6063,257.96866 h 124.78738 v 49.63779 H 417.6063 Z"
       id="path25"
       inkscape:connector-curvature="0"
       style="fill:#000000;fill-opacity:0;fill-rule:evenodd" />
    <path
       d="m 417.6063,257.96866 h 124.78738 v 49.63779 H 417.6063 Z"
       id="path27"
       inkscape:connector-curvature="0"
       style="fill-rule:evenodd;stroke:#000000;stroke-width:2;stroke-linecap:butt;stroke-linejoin:round" />
    <path
       d="m 443.3457,282.45755 v -0.25 q 0,-0.29687 0.10938,-0.40625 0.10937,-0.125 0.28125,-0.125 0.17187,0 0.28125,0.125 0.10937,0.10938 0.10937,0.40625 v 1.75 q 0,0.29688 -0.10937,0.42188 -0.10938,0.10937 -0.28125,0.10937 -0.15625,0 -0.26563,-0.0937 -0.10937,-0.10937 -0.125,-0.35937 -0.0625,-0.67188 -0.875,-1.26563 -0.79687,-0.59375 -2.17187,-0.59375 -1.73438,0 -2.64063,1.09375 -0.90625,1.07813 -0.90625,2.48438 0,1.51562 0.98438,2.5 1,0.98437 2.57812,0.98437 0.92188,0 1.85938,-0.32812 0.9375,-0.34375 1.70312,-1.09375 0.1875,-0.17188 0.34375,-0.17188 0.15625,0 0.26563,0.10938 0.10937,0.0937 0.10937,0.25 0,0.40625 -0.9375,1.01562 -1.51562,1 -3.375,1 -1.875,0 -3.09375,-1.20312 -1.20312,-1.20313 -1.20312,-3.04688 0,-1.89062 1.23437,-3.125 1.23438,-1.25 3.125,-1.25 1.78125,0 3,1.0625 z m 12.51123,3.25 q 0,1.78125 -1.28125,3.04688 -1.28125,1.26562 -3.07812,1.26562 -1.8125,0 -3.09375,-1.26562 -1.26563,-1.28125 -1.26563,-3.04688 0,-1.78125 1.26563,-3.04687 1.28125,-1.26563 3.09375,-1.26563 1.79687,0 3.07812,1.26563 1.28125,1.25 1.28125,3.04687 z m -0.79687,0 q 0,-1.46875 -1.04688,-2.5 -1.03125,-1.03125 -2.51562,-1.03125 -1.48438,0 -2.53125,1.04688 -1.04688,1.03125 -1.04688,2.48437 0,1.45313 1.04688,2.5 1.04687,1.03125 2.53125,1.03125 1.48437,0 2.51562,-1.03125 1.04688,-1.04687 1.04688,-2.5 z m 4.29248,-4.03125 v 0.78125 q 0.98437,-1.0625 1.98437,-1.0625 0.60938,0 1.0625,0.32813 0.45313,0.3125 0.76563,0.96875 0.51562,-0.65625 1.04687,-0.96875 0.53125,-0.32813 1.07813,-0.32813 0.84375,0 1.34375,0.54688 0.65625,0.70312 0.65625,1.54687 v 5.4375 h 0.65625 q 0.28125,0 0.39062,0.10938 0.125,0.10937 0.125,0.28125 0,0.17187 -0.125,0.28125 -0.10937,0.10937 -0.39062,0.10937 h -1.4375 v -6.15625 q 0,-0.59375 -0.35938,-0.98437 -0.35937,-0.39063 -0.82812,-0.39063 -0.4375,0 -0.90625,0.32813 -0.46875,0.3125 -1.07813,1.25 v 5.17187 h 0.65625 q 0.26563,0 0.39063,0.10938 0.125,0.10937 0.125,0.28125 0,0.17187 -0.125,0.28125 -0.125,0.10937 -0.39063,0.10937 h -1.4375 v -6.09375 q 0,-0.625 -0.375,-1.03125 -0.35937,-0.40625 -0.8125,-0.40625 -0.42187,0 -0.82812,0.28125 -0.5625,0.375 -1.1875,1.29688 v 5.17187 h 0.65625 q 0.28125,0 0.39062,0.10938 0.125,0.10937 0.125,0.28125 0,0.17187 -0.125,0.28125 -0.10937,0.10937 -0.39062,0.10937 h -2.09375 q -0.28125,0 -0.40625,-0.10937 -0.125,-0.10938 -0.125,-0.28125 0,-0.17188 0.125,-0.28125 0.125,-0.10938 0.40625,-0.10938 h 0.65625 v -6.46875 h -0.65625 q -0.28125,0 -0.40625,-0.10937 -0.125,-0.10938 -0.125,-0.28125 0,-0.17188 0.125,-0.28125 0.125,-0.10938 0.40625,-0.10938 z m 11.40185,0 v 0.78125 q 0.98438,-1.0625 1.98438,-1.0625 0.60937,0 1.0625,0.32813 0.45312,0.3125 0.76562,0.96875 0.51563,-0.65625 1.04688,-0.96875 0.53125,-0.32813 1.07812,-0.32813 0.84375,0 1.34375,0.54688 0.65625,0.70312 0.65625,1.54687 v 5.4375 h 0.65625 q 0.28125,0 0.39063,0.10938 0.125,0.10937 0.125,0.28125 0,0.17187 -0.125,0.28125 -0.10938,0.10937 -0.39063,0.10937 h -1.4375 v -6.15625 q 0,-0.59375 -0.35937,-0.98437 -0.35938,-0.39063 -0.82813,-0.39063 -0.4375,0 -0.90625,0.32813 -0.46875,0.3125 -1.07812,1.25 v 5.17187 h 0.65625 q 0.26562,0 0.39062,0.10938 0.125,0.10937 0.125,0.28125 0,0.17187 -0.125,0.28125 -0.125,0.10937 -0.39062,0.10937 h -1.4375 v -6.09375 q 0,-0.625 -0.375,-1.03125 -0.35938,-0.40625 -0.8125,-0.40625 -0.42188,0 -0.82813,0.28125 -0.5625,0.375 -1.1875,1.29688 v 5.17187 h 0.65625 q 0.28125,0 0.39063,0.10938 0.125,0.10937 0.125,0.28125 0,0.17187 -0.125,0.28125 -0.10938,0.10937 -0.39063,0.10937 h -2.09375 q -0.28125,0 -0.40625,-0.10937 -0.125,-0.10938 -0.125,-0.28125 0,-0.17188 0.125,-0.28125 0.125,-0.10938 0.40625,-0.10938 h 0.65625 v -6.46875 h -0.65625 q -0.28125,0 -0.40625,-0.10937 -0.125,-0.10938 -0.125,-0.28125 0,-0.17188 0.125,-0.28125 0.125,-0.10938 0.40625,-0.10938 z m 15.33936,-4 v 2.01563 h -1.15625 v -2.01563 z m 0.0156,4 v 7.25 h 3.0625 q 0.29688,0 0.40625,0.10938 0.125,0.10937 0.125,0.28125 0,0.17187 -0.125,0.28125 -0.10937,0.10937 -0.40625,0.10937 h -6.90625 q -0.26562,0 -0.39062,-0.10937 -0.125,-0.10938 -0.125,-0.28125 0,-0.17188 0.125,-0.28125 0.125,-0.10938 0.39062,-0.10938 h 3.0625 v -6.46875 h -2.26562 q -0.28125,0 -0.40625,-0.10937 -0.125,-0.10938 -0.125,-0.28125 0,-0.17188 0.125,-0.28125 0.125,-0.10938 0.40625,-0.10938 z m 9.38623,0 h 4.23438 q 0.28125,0 0.39062,0.10938 0.125,0.10937 0.125,0.28125 0,0.17187 -0.125,0.28125 -0.10937,0.10937 -0.39062,0.10937 h -4.23438 v 5.1875 q 0,0.6875 0.54688,1.14063 0.54687,0.45312 1.59375,0.45312 0.78125,0 1.70312,-0.23437 0.92188,-0.25 1.4375,-0.54688 0.1875,-0.10937 0.29688,-0.10937 0.15625,0 0.26562,0.125 0.10938,0.10937 0.10938,0.26562 0,0.14063 -0.125,0.25 -0.29688,0.3125 -1.4375,0.67188 -1.14063,0.35937 -2.1875,0.35937 -1.375,0 -2.1875,-0.64062 -0.79688,-0.64063 -0.79688,-1.73438 v -5.1875 h -1.4375 q -0.28125,0 -0.40625,-0.10937 -0.10937,-0.10938 -0.10937,-0.28125 0,-0.17188 0.10937,-0.28125 0.125,-0.10938 0.40625,-0.10938 h 1.4375 v -2.29687 q 0,-0.28125 0.10938,-0.40625 0.10937,-0.125 0.28125,-0.125 0.17187,0 0.28125,0.125 0.10937,0.125 0.10937,0.40625 z m 21.05371,7.25 h 5.98438 v -0.29687 q 0,-0.28125 0.10937,-0.40625 0.10938,-0.125 0.29688,-0.125 0.15625,0 0.26562,0.125 0.125,0.125 0.125,0.40625 v 1.07812 h -7.53125 v -1.15625 q 2.375,-2.125 4.60938,-4.34375 1.04687,-1.01562 1.4375,-1.5 0.39062,-0.48437 0.53125,-0.84375 0.15625,-0.375 0.15625,-0.75 0,-1 -0.8125,-1.76562 -0.8125,-0.78125 -1.95313,-0.78125 -1.01562,0 -1.8125,0.59375 -0.78125,0.57812 -1.01562,1.45312 -0.0469,0.21875 -0.14063,0.28125 -0.10937,0.0937 -0.25,0.0937 -0.15625,0 -0.26562,-0.10937 -0.10938,-0.10938 -0.10938,-0.25 0,-0.45313 0.48438,-1.20313 0.48437,-0.76562 1.34375,-1.20312 0.85937,-0.4375 1.76562,-0.4375 1.45313,0 2.5,1.01562 1.04688,1 1.04688,2.28125 0,0.54688 -0.17188,1 -0.17187,0.4375 -0.60937,0.98438 -0.42188,0.53125 -1.51563,1.60937 -2.73437,2.70313 -4.46875,4.20313 z"
       id="path29"
       inkscape:connector-curvature="0"
       style="fill:#000000;fill-rule:nonzero" />
    <path
       d="m 480,307.60645 v 40.69293"
       id="path31"
       inkscape:connector-curvature="0"
       style="fill:#000000;fill-opacity:0;fill-rule:evenodd" />
    <path
       d="m 480,307.60648 v 28.6929"
       id="path33"
       inkscape:connector-curvature="0"
       style="fill-rule:evenodd;stroke:#1a1a1a;stroke-width:2;stroke-linecap:butt;stroke-linejoin:round" />
    <path
       d="m 476.69653,336.29938 3.30347,9.0762 3.30346,-9.0762 z"
       id="path35"
       inkscape:connector-curvature="0"
       style="fill:#1a1a1a;fill-rule:evenodd;stroke:#1a1a1a;stroke-width:2;stroke-linecap:butt" />
  </g>
</svg>
