<?xml version="1.0" encoding="UTF-8" standalone="no"?>
<!-- Created with Inkscape (http://www.inkscape.org/) -->

<svg
   width="109.21681mm"
   height="44.142609mm"
   viewBox="0 0 109.21681 44.142609"
   version="1.1"
   id="svg9356"
   inkscape:version="1.1.2 (0a00cf5339, 2022-02-04, custom)"
   sodipodi:docname="preview.svg"
   inkscape:export-filename="/extra_ssd/workspace/felipepiovezan.github.io/docs/compilers/llvm_ir_p1/preview.jpg"
   inkscape:export-xdpi="96"
   inkscape:export-ydpi="96"
   xmlns:inkscape="http://www.inkscape.org/namespaces/inkscape"
   xmlns:sodipodi="http://sodipodi.sourceforge.net/DTD/sodipodi-0.dtd"
   xmlns="http://www.w3.org/2000/svg"
   xmlns:svg="http://www.w3.org/2000/svg">
  <sodipodi:namedview
     id="namedview9358"
     pagecolor="#ffffff"
     bordercolor="#666666"
     borderopacity="1.0"
     inkscape:pageshadow="2"
     inkscape:pageopacity="1"
     inkscape:pagecheckerboard="0"
     inkscape:document-units="mm"
     showgrid="false"
     inkscape:zoom="1.2810466"
     inkscape:cx="171.34427"
     inkscape:cy="9.3673407"
     inkscape:current-layer="layer1"
     lock-margins="false"
     fit-margin-top="3"
     fit-margin-left="1"
     fit-margin-right="1"
     fit-margin-bottom="3" />
  <defs
     id="defs9353" />
  <g
     inkscape:label="Layer 1"
     inkscape:groupmode="layer"
     id="layer1"
     transform="translate(-87.307065,-87.981139)">
    <g
       id="par_g14030"
       transform="matrix(0.19242427,0,0,0.19242427,157.20567,-11.36238)">
      <g
         id="g36690">
        <path
           id="STROKE_066a658b-e3f6-4db8-bd06-e234fb240c36"
           opacity="1"
           fill="none"
           stroke="#000000"
           stroke-width="1.736"
           stroke-opacity="1"
           stroke-linecap="round"
           stroke-linejoin="round"
           d="m -298.90663,585.89068 q 0.064,-0.136 0.193,-0.242 0.128,-0.107 0.207,-0.284 0.08,-0.177 0.061,-0.299 -0.019,-0.122 -0.148,-0.172 -0.13,-0.05 -0.311,-0.171 -0.181,-0.121 -0.21,-0.078 -0.028,0.042 -0.788,10e-4 -0.76,-0.04 -2.155,1.031 -1.396,1.071 -2.212,2.167 -0.816,1.097 -1.369,1.965 -0.553,0.869 -1.099,2.133 -0.546,1.264 -0.785,2.854 -0.239,1.589 -0.261,2.887 -0.022,1.298 0.33,2.241 0.353,0.943 1.398,1.735 1.045,0.791 3.053,1.206 2.009,0.415 3.465,0.008 1.457,-0.408 1.713,-0.543" />
        <path
           id="STROKE_bd67a69a-c3a8-47de-a928-1a770bccb2e5"
           opacity="1"
           fill="none"
           stroke="#000000"
           stroke-width="1.762"
           stroke-opacity="1"
           stroke-linecap="round"
           stroke-linejoin="round"
           d="m -292.90663,593.50568 q -0.351,0.295 -0.848,0.776 -0.497,0.481 -0.61,1.568 -0.112,1.088 0.425,2.113 0.538,1.026 1.582,1.993 1.044,0.967 2.192,1.388 1.148,0.421 2.334,0.481 1.187,0.061 2.067,-0.191 0.88,-0.252 1.875,-1.098 0.995,-0.845 1.435,-2.256 0.441,-1.41 0.525,-2.953 0.085,-1.543 -0.288,-2.864 -0.372,-1.322 -0.931,-2.308 -0.558,-0.986 -1.086,-1.673 -0.527,-0.686 -1.529,-0.938 -1.003,-0.252 -1.736,-0.143 -0.733,0.11 -1.3,0.192 -0.567,0.083 -1.951,1.43 -1.383,1.347 -2.332,2.282 -0.949,0.934 -1.72,3.108 -0.772,2.174 -0.971,2.836" />
        <path
           id="STROKE_6a7f2d96-a4e4-4342-acec-034c44ba6120"
           opacity="1"
           fill="none"
           stroke="#000000"
           stroke-width="1.603"
           stroke-opacity="1"
           stroke-linecap="round"
           stroke-linejoin="round"
           d="m -273.51263,568.14968 q 0,-0.014 0,-0.242 -0.106,-0.051 0.163,0.671 0.268,0.722 1.016,4.598 0.747,3.876 1.069,5.976 0.322,2.099 0.644,5.517 0.323,3.417 0.972,13.881 -0.039,0.062 -0.492,-1.717 -0.453,-1.779 -1.129,-3.219 -0.676,-1.439 -1.163,-2.146 -0.487,-0.706 -1.157,-1.407 -0.671,-0.701 -1.594,-1.022 -0.922,-0.321 -1.835,-0.356 -0.912,-0.035 -1.961,0.575 -1.05,0.609 -1.669,1.365 -0.62,0.756 -0.912,1.94 -0.293,1.184 -0.193,2.432 0.1,1.249 0.511,2.477 0.411,1.228 1.273,2.186 0.862,0.959 1.599,1.511 0.736,0.553 1.763,0.992 1.028,0.44 2.384,0.4 1.356,-0.039 2.362,-0.157 1.007,-0.119 2.082,-1.146 1.076,-1.028 1.365,-1.377" />
        <path
           id="STROKE_8e066f93-6c4f-40f0-9aaf-5ad9a5797dec"
           opacity="1"
           fill="none"
           stroke="#000000"
           stroke-width="1.774"
           stroke-opacity="1"
           stroke-linecap="round"
           stroke-linejoin="round"
           d="m -264.40863,592.02568 q -0.121,0.053 -0.17,0.166 -0.048,0.114 -0.014,0.102 0.034,-0.011 0.018,-0.024 -0.016,-0.013 -0.085,0.024 -0.068,0.037 0.796,0.454 0.864,0.417 2.149,0.517 1.285,0.1 2.104,-0.096 0.819,-0.196 1.068,-1.088 0.249,-0.892 0.085,-1.848 -0.164,-0.957 -0.418,-1.3 -0.255,-0.343 -0.866,-0.908 -0.61,-0.566 -1.989,-0.815 -1.379,-0.249 -2.987,0.549 -1.609,0.799 -2.446,1.418 -0.837,0.619 -1.706,1.687 -0.868,1.068 -1.405,2.196 -0.537,1.128 -0.621,2.426 -0.083,1.297 0.233,2.282 0.316,0.985 1.547,1.969 1.23,0.983 3.081,1.384 1.85,0.401 3.35,0.365 1.499,-0.035 2.728,-0.181 1.23,-0.146 2.756,-1.457 1.526,-1.311 1.934,-1.716" />
      </g>
      <g
         id="par_g33414"
         inkscape:label="par_g33414">
        <path
           id="STROKE_3fb4599c-dc09-4f9f-ab7e-d37d6af60104"
           opacity="1"
           fill="none"
           stroke="#000000"
           stroke-width="1.178"
           stroke-opacity="1"
           stroke-linecap="round"
           stroke-linejoin="round"
           d="m -357.447,570.584 q -0.104,0.165 0.318,-0.634 0.029,0 0.062,0 0.536,0.108 1.102,6.405 0.566,6.298 0.702,9.712 0.137,3.415 0.183,6.009 0.047,2.594 0.045,4.544 -10e-4,1.949 0.005,3.605 0.005,1.656 0.021,2.483 0.015,0.827 -0.008,4.412 -0.023,3.585 -0.045,6.55 -0.023,2.965 1.099,5.867 0.18,-0.074 0.285,-0.149" />
        <path
           id="STROKE_27227ab4-6f4c-4315-a306-fb9966623bf2"
           opacity="1"
           fill="none"
           stroke="#000000"
           stroke-width="1.228"
           stroke-opacity="1"
           stroke-linecap="round"
           stroke-linejoin="round"
           d="m -354.817,567.531 q -0.018,-0.014 -0.005,0.317 0.347,0.581 7.695,-0.819 7.348,-1.4 11.595,-2.072 4.246,-0.671 6.245,-0.981 1.999,-0.309 3.753,-0.541 1.754,-0.232 8.329,-1.023 6.574,-0.79 13.115,-1.193 6.542,-0.403 13.027,-0.63 6.486,-0.227 10.097,-0.366 3.612,-0.139 5.718,-0.223 2.107,-0.083 3.677,-0.151 1.571,-0.067 2.801,-0.12 1.231,-0.053 7.646,-0.138 6.414,-0.086 12.956,-0.604 6.541,-0.517 10.983,-1.023 4.442,-0.506 7.208,-0.616 2.765,-0.109 5.164,-0.146 2.398,-0.037 4.417,-0.07 2.019,-0.033 3.431,0.201 1.411,0.234 2.017,0.476 0.606,0.241 1.388,0.903 0.782,0.663 1.444,2.852 0.661,2.189 1.505,7.345 0.843,5.155 1.324,8.706 0.481,3.551 1.252,6.725 0.77,3.173 1.165,4.907 0.396,1.734 0.58,2.584 0.185,0.851 0.556,2.495 0.371,1.644 0.94,4.025 0.569,2.381 1.125,4.438 0.555,2.056 1.242,4.616 0.687,2.559 1.062,5.917 0.375,3.358 0.407,5.021 0.033,1.663 0.022,2.322 -0.01,0.66 -0.141,1.114 -0.131,0.455 -0.949,1.534 -0.818,1.078 -4.603,1.032 -3.784,-0.045 -13.177,0.095 -9.392,0.14 -14.356,0.198 -4.964,0.058 -7.699,0.008 -2.736,-0.05 -3.874,-0.12 -1.138,-0.069 -5.595,-0.258 -4.456,-0.189 -7.296,-0.312 -2.84,-0.123 -4.277,-0.185 -1.438,-0.061 -6.274,-0.167 -4.837,-0.106 -13.924,-0.58 -9.088,-0.474 -13.694,-0.729 -4.607,-0.254 -6.603,-0.262 -1.995,-0.008 -7.958,-0.141 -5.962,-0.132 -10.494,-0.315 -4.532,-0.184 -9.15,-0.155 -4.619,0.028 -7.366,0.168 -2.748,0.141 -7.317,-0.034 -4.568,-0.176 -4.948,-0.268" />
      </g>
    </g>
    <g
       id="g14065"
       transform="matrix(0.19242427,0,0,0.19242427,148.16832,-12.244801)">
      <path
         id="STROKE_402e9692-c60e-46fa-ab3e-50eb8b4b4763"
         opacity="1"
         fill="none"
         stroke="#71c047"
         stroke-width="1.108"
         stroke-opacity="1"
         stroke-linecap="round"
         stroke-linejoin="round"
         d="m -115.98,594.355 -0.676,-0.142 q -0.02,0.009 -0.034,-0.126 -0.014,-0.135 1.811,-1.173 1.824,-1.037 3.68,-1.774 1.855,-0.736 3.039,-1.178 1.184,-0.441 5.523,-1.516 4.338,-1.075 7.736,-1.717 3.399,-0.643 5.166,-1.005 1.767,-0.362 5.243,-1.029 3.476,-0.667 10.642,-1.652 7.167,-0.984 13.189,-1.25 6.023,-0.267 9.093,-0.291 3.069,-0.024 5.066,-0.088 1.996,-0.064 8.665,-0.1 6.669,-0.035 10.339,0.002 3.67,0.038 8.24,0.21 4.569,0.172 8.975,0.672 4.406,0.5 6.806,0.845 2.4,0.345 4.514,0.519 2.114,0.174 11.538,1.482 0.064,0.028 0.03,-0.268" />
      <path
         id="STROKE_a1d4b27d-db80-4cf7-a6a8-db8c6fb7750f"
         opacity="1"
         fill="none"
         stroke="#71c047"
         stroke-width="1.691"
         stroke-opacity="1"
         stroke-linecap="round"
         stroke-linejoin="round"
         d="m 14.598,576.892 q 0.346,0.009 2.717,1.287 2.37,1.277 3.745,2.138 1.374,0.86 2.84,2.081 1.467,1.22 2.289,2.19 0.823,0.97 1.044,1.563 0.221,0.593 0.201,1.023 -0.021,0.43 -3.024,1.324 -3.003,0.893 -5.159,1.594 -2.156,0.701 -3.102,0.986 -0.947,0.285 -1.381,0.241 -0.435,-0.043 -0.577,-0.201 -0.142,-0.157 -0.244,-0.502 -0.101,-0.345 -0.109,-1.326 -0.007,-0.98 0.128,-1.804 0.135,-0.824 0.287,-1.493 0.151,-0.669 0.795,-2.99 0.645,-2.321 1.211,-4.067 0.567,-1.746 0.931,-2.77" />
    </g>
    <g
       id="par_g14058"
       transform="matrix(0.19242427,0,0,0.19242427,144.55024,-12.427519)">
      <g
         id="g48801">
        <path
           id="STROKE_02bcbe67-a18c-4432-9150-49602095b3b6"
           opacity="1"
           fill="none"
           stroke="#000000"
           stroke-width="1.303"
           stroke-opacity="1"
           stroke-linecap="round"
           stroke-linejoin="round"
           d="m 98.509,563.332 q -0.064,0.071 0.375,-0.754 h 0.014 q 0.164,0.052 0.352,6.079 0.188,6.026 0.181,9.821 -0.006,3.795 -0.044,5.676 -0.038,1.88 -0.112,2.771 -0.073,0.891 -0.083,2.189 -0.01,1.297 0.024,2.477 0.029,0 0.043,0 0.103,0.027 -0.115,-0.752 -0.217,-0.778 -0.369,-1.034" />
        <path
           id="STROKE_1cb964c7-0e73-4691-bac1-89597aabe2fe"
           opacity="1"
           fill="none"
           stroke="#000000"
           stroke-width="1.385"
           stroke-opacity="1"
           stroke-linecap="round"
           stroke-linejoin="round"
           d="m 95.215,566.477 q -0.574,-0.438 -0.495,-0.416 0.08,0.022 0.059,0.021 -0.022,0 -0.01,0 0.067,-0.123 -0.022,-0.069 -0.089,0.054 0.011,-0.074 0.1,-0.128 0.423,-0.323 0.323,-0.195 0.584,-0.281 0.262,-0.086 0.509,-0.18 0.247,-0.094 4.13,-1.431 3.882,-1.338 7.426,-2.577 3.545,-1.24 6.988,-1.829 0.062,0.286 0.01,0.384 -0.052,0.097 -0.124,0.278" />
        <path
           id="STROKE_11ef8d5f-5a6c-4d1c-8b42-de36dc142551"
           opacity="1"
           fill="none"
           stroke="#000000"
           stroke-width="1.644"
           stroke-opacity="1"
           stroke-linecap="round"
           stroke-linejoin="round"
           d="m 98.87,578.205 q 0.384,0.483 1.346,0.899 0.962,0.416 4.063,-0.883 3.102,-1.299 7.212,-2.286 0.102,-0.107 -0.011,0.34 -0.112,0.446 -0.279,0.685" />
        <path
           id="STROKE_fc67c623-7065-4a56-ad32-b6af483c708b"
           opacity="1"
           fill="none"
           stroke="#000000"
           stroke-width="1.828"
           stroke-opacity="1"
           stroke-linecap="round"
           stroke-linejoin="round"
           d="m 97.996,591.2 q 0.116,0.514 1.642,0.798 1.526,0.284 2.773,0.192 1.247,-0.093 2.507,-0.266 1.26,-0.173 2.561,-0.447 1.301,-0.274 2.315,-0.586 1.013,-0.312 1.377,-0.874 0.363,-0.561 0.391,-0.696" />
        <path
           id="STROKE_a4c85059-ae7a-4e0a-996c-171f4866658b"
           opacity="1"
           fill="none"
           stroke="#000000"
           stroke-width="1.828"
           stroke-opacity="1"
           stroke-linecap="round"
           stroke-linejoin="round"
           d="m 113.945,582.432 q 0.139,-0.396 0.556,-1.226 0.417,-0.83 1.36,-1.565 0.943,-0.734 1.576,-0.994 0.633,-0.26 1.655,-0.346 1.023,-0.086 1.472,2.311 0.448,2.396 0.867,4.196 0.418,1.801 0.749,2.721 0.331,0.921 0.913,1.816 0.582,0.895 1.29,1.341 0.708,0.446 1.516,0.417 0.808,-0.03 1.35,-0.837 0.542,-0.806 0.66,-1.031" />
        <path
           id="STROKE_d7d1d409-7958-4203-802e-732b1c4c4f3a"
           opacity="1"
           fill="none"
           stroke="#000000"
           stroke-width="1.617"
           stroke-opacity="1"
           stroke-linecap="round"
           stroke-linejoin="round"
           d="m 127.245,577.116 q -0.126,0.203 -1.868,1.854 -1.743,1.65 -3.189,3.455 -1.446,1.805 -2.771,3.466 -1.325,1.662 -2.122,2.93 -0.796,1.268 -1.154,1.972 -0.358,0.703 -0.34,1.339 0.409,0.087 0.71,-0.176 0.301,-0.262 0.51,-0.458" />
        <path
           id="STROKE_beccb20d-690e-4d8f-bd3f-e7136f874fe4"
           opacity="1"
           fill="none"
           stroke="#000000"
           stroke-width="1.828"
           stroke-opacity="1"
           stroke-linecap="round"
           stroke-linejoin="round"
           d="m 133.007,580.774 q 0.008,0.03 0.236,0.179 0.227,0.15 0.179,0.072 -0.049,-0.078 -0.048,0 0.002,0.078 1.68,0.32 1.678,0.243 3,0.234 1.321,-0.008 1.793,-0.103 0.471,-0.095 0.963,-0.298 0.492,-0.203 0.486,-0.48 -0.006,-0.276 -0.36,-0.641 -0.353,-0.364 -1.817,-0.698 -1.464,-0.335 -2.797,-0.486 -1.333,-0.152 -2.621,0.03 -1.289,0.182 -2.28,0.871 -0.991,0.688 -1.511,1.651 -0.52,0.963 -0.547,2.334 -0.026,1.371 0.668,2.844 0.694,1.473 1.629,2.512 0.936,1.04 1.672,1.506 0.736,0.466 1.751,0.868 1.015,0.403 2.147,-0.194 1.131,-0.597 1.416,-0.857" />
        <path
           id="STROKE_b1bfc8fa-46f9-4ad0-abcd-8f67a5742d43"
           opacity="1"
           fill="none"
           stroke="#000000"
           stroke-width="1.828"
           stroke-opacity="1"
           stroke-linecap="round"
           stroke-linejoin="round"
           d="m 150.854,577.807 q 0.015,0.064 0.005,-0.527 -0.247,0.027 -0.145,-0.055 0.102,-0.083 -0.673,0.021 -0.776,0.104 -1.46,0.681 -0.683,0.576 -1.255,1.192 -0.572,0.615 -1.201,1.72 -0.629,1.105 -0.847,2.401 -0.218,1.296 -0.094,2.299 0.123,1.003 0.461,1.71 0.338,0.707 1.17,1.219 0.832,0.512 1.709,0.808 0.877,0.296 2.304,-0.046 1.428,-0.342 2.289,-1.326 0.86,-0.985 1.088,-1.273" />
        <path
           id="STROKE_60edd1d0-8933-4338-b63d-2e2c34ca10f1"
           opacity="1"
           fill="none"
           stroke="#000000"
           stroke-width="1.804"
           stroke-opacity="1"
           stroke-linecap="round"
           stroke-linejoin="round"
           d="m 157.794,580.29 q 0.414,0.105 0.152,1.45 -0.262,1.346 -0.353,2.479 -0.091,1.134 -0.005,1.993 0.087,0.859 0.512,1.599 0.424,0.741 1.06,1.208 0.637,0.468 1.426,0.608 0.789,0.14 1.83,-0.013 1.04,-0.153 2.102,-1.183 1.062,-1.03 2.008,-2.757 0.946,-1.726 1.476,-3.584 0.53,-1.858 0.658,-3.118 0.129,-1.259 0.087,-1.849 -0.042,-0.59 -0.106,-0.988 -0.065,-0.398 -0.783,-0.306 -0.718,0.092 -0.96,0.255" />
        <path
           id="STROKE_58490ab4-2e6a-44de-a64e-daac0d67559b"
           opacity="1"
           fill="none"
           stroke="#000000"
           stroke-width="1.387"
           stroke-opacity="1"
           stroke-linecap="round"
           stroke-linejoin="round"
           d="m 174.502,557.682 q 0.028,-0.136 0.237,-1.239 -0.21,0.314 0.442,3.862 0.652,3.547 1.114,9.684 0.462,6.137 0.713,19.182 -0.09,-0.21 -0.181,-0.419" />
        <path
           id="STROKE_a1c7b753-2d57-4ce4-b9b7-d4824b6eb39d"
           opacity="1"
           fill="none"
           stroke="#000000"
           stroke-width="1.236"
           stroke-opacity="1"
           stroke-linecap="round"
           stroke-linejoin="round"
           d="m 164.847,566.812 q -0.122,0.054 1.069,-0.248 1.191,-0.302 3.929,-0.659 2.738,-0.358 4.443,-0.585 1.704,-0.228 5.361,-0.472 3.657,-0.244 6.251,0.104 2.594,0.348 3.23,0.529" />
        <path
           id="STROKE_99690916-c60d-4efc-ace8-56563359ee3c"
           opacity="1"
           fill="none"
           stroke="#000000"
           stroke-width="1.828"
           stroke-opacity="1"
           stroke-linecap="round"
           stroke-linejoin="round"
           d="m 183.273,578.746 q 0.056,0.268 -0.08,-0.282 -0.137,-0.55 -0.084,-0.951 0.053,-0.4 0.37,-0.5 0.317,-0.1 0.753,-0.307 0.437,-0.208 1.704,-0.31 1.268,-0.102 2.338,-0.12 1.069,-0.019 1.972,0.437 0.903,0.456 1.373,0.795 0.469,0.338 0.885,1.663 0.415,1.325 0.098,2.779 -0.318,1.453 -0.931,2.556 -0.613,1.102 -1.14,1.583 -0.527,0.482 -0.923,0.645 -0.396,0.164 -0.738,0.116 -0.343,-0.047 -0.685,-0.089 -0.341,-0.042 -0.892,-1.15 -0.551,-1.108 -0.907,-1.717 -0.356,-0.608 -0.548,-0.901 -0.191,-0.294 -0.96,-0.408 -0.171,0.339 -0.147,1.472 0.024,1.134 0.83,2.309 0.806,1.176 1.841,1.865 1.035,0.69 1.785,0.952 0.751,0.262 1.649,0.436 0.899,0.173 2.015,-0.561 1.116,-0.733 1.434,-1.004" />
        <path
           id="STROKE_81c75941-1330-4344-982c-05ef216de5bc"
           opacity="1"
           fill="none"
           stroke="#000000"
           stroke-width="1.645"
           stroke-opacity="1"
           stroke-linecap="round"
           stroke-linejoin="round"
           d="m 201.491,560.073 q -0.007,0.029 0.027,-10e-4 0.033,-0.029 -0.36,-0.519 -0.054,-0.402 -0.242,1.433 -0.188,1.836 -0.065,5 0.124,3.164 0.738,8.678 0.614,5.514 1.05,13.209 -0.048,0.088 -0.093,0.076 -0.045,-0.011 -0.19,-0.107 -0.145,-0.095 -0.308,-0.329 -0.164,-0.233 -0.169,-0.415 -0.005,-0.181 -0.221,-0.426 -0.215,-0.245 -0.417,-2.424 -0.201,-2.18 -0.168,-3.395 0.033,-1.215 0.078,-1.84 0.045,-0.624 0.172,-1.077 0.128,-0.454 0.993,-0.765 0.866,-0.311 2.11,-0.297 1.244,0.014 2.607,0.786 1.362,0.773 2.372,1.795 1.01,1.022 1.433,2.402 0.422,1.381 0.553,2.459 0.131,1.079 -0.361,2.207 -0.492,1.129 -1.449,1.909 -0.956,0.78 -2.387,1.192 -1.43,0.412 -2.301,0.422 -0.87,0.01 -1.811,-0.21 -0.941,-0.22 -1.39,-1.192 -0.448,-0.972 -0.51,-2.036 -0.062,-1.064 0.501,-2.024 0.562,-0.96 0.804,-1.277" />
        <path
           id="STROKE_0b91d552-fd84-48b9-9885-3e2e02926022"
           opacity="1"
           fill="none"
           stroke="#000000"
           stroke-width="1.439"
           stroke-opacity="1"
           stroke-linecap="round"
           stroke-linejoin="round"
           d="m 218.559,558.5 q 0.058,-0.072 -0.059,-0.336 -0.117,-0.265 -0.738,-0.604 -0.116,0.393 0.049,10.401 0.165,10.007 -0.154,20.67 0,-0.27 0,-0.703 0,-0.433 0,-0.721" />
        <path
           id="STROKE_c8ce4b64-d470-41ef-b9a4-74dcf2526d08"
           opacity="1"
           fill="none"
           stroke="#000000"
           stroke-width="1.702"
           stroke-opacity="1"
           stroke-linecap="round"
           stroke-linejoin="round"
           d="m 223.78,579.08 q 0.047,-0.156 0.725,0.092 0.677,0.248 2.187,0.537 1.51,0.289 2.401,0.314 0.892,0.024 1.858,-0.154 0.965,-0.178 1.711,-0.897 0.746,-0.719 0.971,-1.492 0.225,-0.774 0.25,-1.225 0.026,-0.452 -0.199,-0.887 -0.226,-0.435 -0.957,-0.669 -0.731,-0.234 -1.878,-0.251 -1.146,-0.016 -2.567,0.574 -1.421,0.589 -2.742,1.657 -1.322,1.067 -2.103,2.285 -0.78,1.218 -1.169,2.149 -0.388,0.932 -0.494,2.287 -0.105,1.354 -0.082,2.137 0.023,0.784 0.467,1.677 0.445,0.894 1.069,1.799 0.624,0.904 1.933,1.421 1.31,0.518 2.872,0.717 1.562,0.199 4.419,-0.99 2.857,-1.188 4.654,-2.464 1.797,-1.276 2.385,-1.7" />
        <path
           id="STROKE_d046eb66-521d-4351-b0ad-7d16323bc131"
           opacity="1"
           fill="none"
           stroke="#000000"
           stroke-width="1.417"
           stroke-opacity="1"
           stroke-linecap="round"
           stroke-linejoin="round"
           d="m 101.253,610.812 q 0.187,-0.192 0.166,-0.185 0.014,-0.042 0.042,-0.092 0.015,0 0.029,0 -0.173,0.143 1.005,5.485 1.178,5.342 2.014,13.074 -0.014,-0.107 -0.029,-0.213" />
        <path
           id="STROKE_aaff0cac-6133-4b46-85f5-9703889a7df1"
           opacity="1"
           fill="none"
           stroke="#000000"
           stroke-width="1.538"
           stroke-opacity="1"
           stroke-linecap="round"
           stroke-linejoin="round"
           d="m 94.009,610.812 q -0.265,-0.069 -0.501,-0.375 -0.236,-0.306 -0.005,-0.695 0.23,-0.389 0.737,-0.749 0.506,-0.36 2.366,-1.323 1.859,-0.962 4.28,-1.668 2.421,-0.707 4.642,-0.981 2.221,-0.274 3.966,-0.208 1.745,0.066 3.202,0.654 1.457,0.588 2.376,1.162 0.919,0.574 1.579,1.517 0.66,0.943 0.874,1.884 0.214,0.941 -0.359,1.83 -0.573,0.889 -1.733,1.965 -1.161,1.075 -3.059,2.227 -1.897,1.151 -3.584,1.698 -1.686,0.548 -2.826,0.81 -1.14,0.262 -2.572,0.086 -1.432,-0.177 -1.627,-0.312" />
        <path
           id="STROKE_21260903-ee8e-4bbe-aa5a-6c6ceb3d7123"
           opacity="1"
           fill="none"
           stroke="#000000"
           stroke-width="1.828"
           stroke-opacity="1"
           stroke-linecap="round"
           stroke-linejoin="round"
           d="m 112.977,621.444 q -0.068,-0.006 0.832,1.991 0.899,1.996 1.043,5.186 -0.966,0.68 -1.62,-1.381 -0.655,-2.06 -0.588,-3.615 0.067,-1.554 0.166,-2.331 0.1,-0.776 0.909,-1.541 0.809,-0.765 2.221,-0.821 1.413,-0.057 1.774,-0.057" />
        <path
           id="STROKE_08f8e6f6-3ea4-4dbd-8b7d-4e46001e60f2"
           opacity="1"
           fill="none"
           stroke="#000000"
           stroke-width="1.828"
           stroke-opacity="1"
           stroke-linecap="round"
           stroke-linejoin="round"
           d="m 125.318,620.69 q 0.114,0.023 -0.712,0.668 -0.826,0.645 -1.345,1.24 -0.519,0.595 -0.617,1.463 -0.098,0.868 -0.071,1.34 0.027,0.471 0.722,1.367 0.695,0.896 2.109,1.224 1.414,0.327 2.344,0.32 0.929,-0.006 1.578,-0.234 0.648,-0.228 1.494,-0.984 0.845,-0.756 1.411,-1.674 0.565,-0.918 0.694,-2.141 0.13,-1.224 0.062,-2.081 -0.068,-0.858 -0.459,-1.454 -0.39,-0.597 -1.047,-1.191 -0.656,-0.594 -1.873,-0.726 -1.217,-0.132 -2.106,-0.105 -0.888,0.027 -1.909,0.564 -1.021,0.536 -1.583,1.172 -0.561,0.637 -0.871,1.182 -0.31,0.544 -0.355,1.771 -0.046,1.228 0.51,2.141 0.557,0.913 0.875,1.333" />
        <path
           id="STROKE_8b344b3c-91e1-4477-a3c8-5a7c5e194be7"
           opacity="1"
           fill="none"
           stroke="#000000"
           stroke-width="1.828"
           stroke-opacity="1"
           stroke-linecap="round"
           stroke-linejoin="round"
           d="m 142.652,619.032 q -0.299,-0.071 -1.687,0.193 -1.389,0.264 -2.504,0.92 -1.115,0.657 -1.538,1.446 -0.422,0.789 -0.568,1.671 -0.145,0.881 0.135,1.812 0.281,0.931 1.285,1.824 1.005,0.893 2.302,1.204 1.297,0.31 2.296,0.079 0.998,-0.23 1.565,-0.792 0.566,-0.562 1.129,-1.982 0.562,-1.421 0.659,-2.541 0.097,-1.119 0.154,-1.543" />
        <path
           id="STROKE_74f15392-3ed4-43e4-a87f-b4d9fe21e9a5"
           opacity="1"
           fill="none"
           stroke="#000000"
           stroke-width="1.734"
           stroke-opacity="1"
           stroke-linecap="round"
           stroke-linejoin="round"
           d="m 145.006,619.786 q 0.117,-0.234 -1.281,-0.576 -0.795,0.22 0.667,2.789 1.462,2.569 2.497,4.046 1.034,1.478 1.753,3.087 0.719,1.609 1.074,2.622 0.355,1.014 0.634,2.69 0.279,1.676 0.322,2.688 0.044,1.011 -0.364,2.11 -0.408,1.098 -1.549,2.146 -1.141,1.047 -2.717,1.635 -1.577,0.589 -3.191,0.647 -1.614,0.057 -3.332,-0.539 -1.719,-0.597 -3.187,-1.566 -1.467,-0.97 -2.593,-2.052 -1.126,-1.082 -1.52,-1.445" />
        <path
           id="STROKE_b083c4f2-d7f2-4cce-af8c-46c29a7f9ccc"
           opacity="1"
           fill="none"
           stroke="#000000"
           stroke-width="1.828"
           stroke-opacity="1"
           stroke-linecap="round"
           stroke-linejoin="round"
           d="m 150.892,619.21 q -0.046,-0.411 3.038,9.429 -0.471,0.333 -1.489,-2.268 -1.018,-2.6 -1.473,-4.523 -0.454,-1.922 -0.509,-2.904 -0.054,-0.982 -0.001,-1.369 0.053,-0.386 0.37,-0.599 0.318,-0.212 1.01,-0.289 0.692,-0.077 1.817,0.451 1.125,0.527 1.49,0.769" />
        <path
           id="STROKE_b2b61496-3cfe-408d-aba8-9f1815a32dfc"
           opacity="1"
           fill="none"
           stroke="#000000"
           stroke-width="1.828"
           stroke-opacity="1"
           stroke-linecap="round"
           stroke-linejoin="round"
           d="m 159.512,619.907 q 0.048,0.148 0.364,-0.636 0.317,-0.784 1.027,-1.3 0.711,-0.515 0.951,-0.562 0.24,-0.046 0.708,-0.097 0.467,-0.051 1.003,-0.122 0.535,-0.071 1.299,0.363 0.764,0.433 1.094,1.81 0.33,1.376 0.227,2.778 -0.103,1.402 -0.783,2.696 -0.681,1.295 -1.256,2.079 -0.574,0.784 -1.031,0.932 -0.457,0.149 -0.862,0.191 -0.405,0.041 -0.727,-1.75 -0.322,-1.792 -1.682,-3.877 -0.424,0.07 0.163,1.394 0.587,1.324 1.085,2.099 0.498,0.775 0.922,1.22 0.424,0.446 1.378,1.32 0.954,0.875 2.754,0.851 1.801,-0.024 2.147,-0.145" />
        <path
           id="STROKE_d8367748-ed46-4358-ad71-b9c985e4b4bb"
           opacity="1"
           fill="none"
           stroke="#000000"
           stroke-width="1.828"
           stroke-opacity="1"
           stroke-linecap="round"
           stroke-linejoin="round"
           d="m 171.881,617.907 q 0.071,-0.164 -0.094,0.274 -0.165,0.439 0.778,2.339 0.944,1.901 1.714,3.564 0.771,1.663 0.436,3.59 -0.705,0.408 -1.174,-0.385 -0.468,-0.793 -0.602,-2.313 -0.134,-1.519 -0.141,-2.65 -0.006,-1.13 0.299,-2.184 0.305,-1.054 1.003,-1.869 0.698,-0.816 1.789,-1.245 1.091,-0.429 2.037,-0.43 0.946,-10e-4 1.632,0.118 0.686,0.12 1.387,0.877 0.701,0.758 1.096,2.571 0.396,1.813 0.38,3.45 -0.017,1.637 -1.464,3.21 -0.327,-0.37 0.194,-2.555 0.521,-2.186 1.26,-3.697 0.738,-1.512 1.699,-2.508 0.962,-0.997 2.104,-1.593 1.142,-0.596 2.605,-0.796 1.464,-0.2 2.817,0.265 1.353,0.465 2.367,1.393 1.013,0.928 1.797,1.984 0.785,1.055 1.26,3.262 0.475,2.207 -0.048,4.215 -0.524,2.008 -0.676,2.236" />
      </g>
      <g
         id="par_g48775">
        <path
           id="STROKE_9a4afc26-cdcf-43dc-9ba1-72b06837e11a"
           opacity="1"
           fill="none"
           stroke="#000000"
           stroke-width="1.229"
           stroke-opacity="1"
           stroke-linecap="round"
           stroke-linejoin="round"
           d="m 78.906,550.764 q 0.216,-0.169 0.764,-0.348 0.105,0.124 -0.007,0.003 -0.112,-0.122 0.142,3.179 0.253,3.301 1.012,7.583 0.76,4.282 1.059,6.982 0.298,2.701 0.395,4.001 0.097,1.3 0.169,2.195 0.073,0.896 0.098,6.269 0.025,5.373 0.011,8.353 -0.014,2.981 -0.033,6.944 -0.019,3.963 0.391,8.634 0.411,4.671 0.923,7.866 0.513,3.195 0.874,5.143 0.361,1.948 1.084,4.422 0.723,2.474 1.369,4.236 0.647,1.762 1.74,4.071 h 0.015 q -0.029,-0.043 -0.216,-0.313 -0.188,-0.271 -0.354,-0.498" />
        <path
           id="STROKE_5a7ecbb6-d900-4fb7-9f32-88b65ea36977"
           opacity="1"
           fill="none"
           stroke="#000000"
           stroke-width="1.19"
           stroke-opacity="1"
           stroke-linecap="round"
           stroke-linejoin="round"
           d="m 80.083,549.313 q 0.027,0.122 -1.827,-3.249 0.639,-0.531 3.335,0.098 2.696,0.63 6.118,0.877 3.421,0.248 7.746,0.087 4.325,-0.161 9.478,-0.699 5.153,-0.538 8.808,-0.819 3.655,-0.281 9.019,-0.774 5.365,-0.493 8.114,-0.727 2.75,-0.233 11.018,-1.203 8.269,-0.97 12.798,-1.529 4.529,-0.56 7.055,-0.822 2.526,-0.262 3.801,-0.424 1.276,-0.162 6.74,-0.644 5.464,-0.483 10.309,-0.726 4.844,-0.243 7.612,-0.314 2.768,-0.07 4.341,-0.082 1.573,-0.012 12.286,-0.078 10.713,-0.065 16.262,-0.135 5.549,-0.069 7.877,-0.104 2.327,-0.036 4.456,-0.051 2.129,-0.015 3.629,0.271 1.5,0.285 2.497,0.585 0.998,0.3 2.982,1.214 1.984,0.914 3.547,2.239 1.564,1.325 2.426,2.46 0.861,1.136 1.876,2.578 1.016,1.443 2.769,5.373 1.754,3.93 2.656,5.96 0.902,2.029 2.279,7.107 1.377,5.077 2.022,8.267 0.644,3.189 0.996,4.686 0.352,1.496 0.771,5.474 0.419,3.978 0.428,7.942 0.009,3.964 -0.225,7.241 -0.233,3.277 -0.642,7.257 -0.409,3.98 -0.534,6.107 -0.126,2.127 -0.879,5.04 -0.753,2.913 -1.631,4.953 -0.877,2.04 -1.345,3.038 -0.467,0.997 -1.33,2.432 -0.863,1.435 -2.484,3.182 -1.621,1.748 -3.384,3.165 -1.763,1.417 -4.604,2.752 -2.84,1.336 -4.858,2.001 -2.017,0.665 -3.282,1.026 -1.265,0.36 -4.043,1.092 -2.778,0.732 -5.998,1.314 -3.22,0.582 -6.019,0.898 -2.8,0.316 -8.007,0.785 -5.206,0.469 -12.49,1.245 -7.283,0.777 -11.234,1.139 -3.95,0.363 -5.864,0.5 -1.914,0.137 -12.427,0.726 -10.513,0.59 -16.132,0.871 -5.618,0.281 -7.999,0.42 -2.381,0.139 -5.01,0.269 -2.629,0.131 -4.21,0.175 -1.581,0.044 -2.648,0.099 -1.067,0.054 -5.954,0.071 -4.887,0.016 -9.525,0.004 -4.637,-0.012 -10.393,-0.03 -5.756,-0.017 -9.139,-0.118 -3.383,-0.101 -6.025,-0.306 -2.643,-0.205 -4.259,-0.477 -1.617,-0.272 -2.397,-0.502 -0.781,-0.229 -1.732,-0.941 -0.952,-0.711 -1.198,-3.012 -0.246,-2.3 0.324,-5.106 0.571,-2.805 1.16,-4.254 0.59,-1.448 0.879,-2.035" />
      </g>
    </g>
    <path
       id="STROKE_3322260d-6b7c-4b29-b283-55a99738d51e"
       opacity="1"
       fill="none"
       stroke="#71c047"
       stroke-width="0.265738"
       stroke-opacity="1"
       stroke-linecap="round"
       stroke-linejoin="round"
       d="m 112.53423,116.12143 q -0.002,0.0494 0.16722,0.88034 0.16875,0.83089 0.26362,1.37256 0.0947,0.54148 0.1499,0.84552 0.0554,0.30383 0.13046,0.5205 l 0.0379,0.0264" />
    <path
       id="STROKE_9f66ad4a-e05c-4f67-841a-789377a4ae88"
       opacity="1"
       fill="none"
       stroke="#71c047"
       stroke-width="0.295564"
       stroke-opacity="1"
       stroke-linecap="round"
       stroke-linejoin="round"
       d="m 110.75546,116.8665 q -0.0552,-0.047 -0.13239,-0.12546 -0.0772,-0.0785 -0.11064,-0.12604 -0.0333,-0.0473 -0.0468,-0.11777 -0.0135,-0.0702 3.9e-4,-0.15105 0.0139,-0.0808 0.0543,-0.15355 0.0404,-0.0725 0.11642,-0.16895 0.0758,-0.0964 0.14239,-0.16414 0.0664,-0.0675 0.14817,-0.13989 0.0818,-0.0722 0.24264,-0.19762 0.16068,-0.12527 0.37716,-0.24342 0.21666,-0.11795 0.39158,-0.19473 0.1751,-0.0766 0.4216,-0.1549 0.24669,-0.0785 0.6146,-0.12951 0.36773,-0.0508 0.67945,-0.0394 0.31192,0.0113 0.59132,0.0981 0.2794,0.087 0.46182,0.2032 0.18223,0.11642 0.32655,0.28498 0.14431,0.16838 0.21108,0.41083 0.0666,0.24226 0.0364,0.48587 -0.0304,0.24361 -0.24457,0.59921 -0.21417,0.35579 -0.40505,0.56631 -0.19108,0.21032 -0.39447,0.36021 -0.2032,0.14971 -0.41525,0.2186 -0.21186,0.0691 -0.34136,0.0614 -0.1295,-0.007 -0.16568,-0.0743 -0.0362,-0.067 0.06,-0.17838 0.096,-0.11142 0.35887,-0.21898 0.26285,-0.10737 0.61152,-0.13624 0.34887,-0.0291 0.57516,-0.0191 0.22629,0.0102 0.4216,0.0822 0.19531,0.0722 0.33424,0.18569 0.13874,0.11334 0.22244,0.26092 0.0835,0.1474 0.1093,0.36003 0.026,0.21244 -0.0641,0.4622 -0.0899,0.24977 -0.25958,0.47972 -0.16972,0.22975 -0.57285,0.54552 -0.40312,0.31596 -0.64346,0.46413 -0.24034,0.14836 -0.58151,0.30056 -0.34117,0.15221 -0.7391,0.24496 -0.39793,0.0929 -0.72024,0.12257 -0.32212,0.0296 -0.70043,-0.0562 -0.3783,-0.0858 -0.59651,-0.18454 -0.21821,-0.0987 -0.2973,-0.1726 -0.0793,-0.0741 -0.13354,-0.14297" />
    <path
       id="STROKE_7f84972b-0ba1-43a1-8907-4f7eae728390"
       opacity="1"
       fill="none"
       stroke="#71c047"
       stroke-width="0.349442"
       stroke-opacity="1"
       stroke-linecap="round"
       stroke-linejoin="round"
       d="m 117.06409,118.49941 q -0.009,0.009 -0.0248,0.0321 -0.016,0.0229 -0.0179,0.0431 -0.002,0.0204 0.0117,0.0575 0.0137,0.0371 0.0396,0.0643 0.026,0.0271 0.0279,0.0346 0.002,0.008 0.15279,0.0847 0.15086,0.0772 0.38696,0.11007 0.23611,0.0331 0.40429,-0.003 0.16798,-0.0362 0.25438,-0.0953 0.0862,-0.0591 0.14567,-0.16414 0.0594,-0.10506 0.0564,-0.19242 -0.003,-0.0875 -0.0217,-0.12623 -0.0187,-0.0385 -0.10814,-0.12508 -0.0897,-0.0866 -0.30134,-0.15259 -0.21166,-0.0658 -0.43642,-0.0916 -0.22475,-0.0258 -0.44969,0.01 -0.22494,0.0356 -0.4191,0.15529 -0.19416,0.11969 -0.32712,0.30942 -0.13297,0.18953 -0.16241,0.39697 -0.0294,0.20762 0.0119,0.42083 0.0416,0.21301 0.20359,0.44527 0.16202,0.23206 0.37061,0.39062 0.20839,0.15856 0.50299,0.21744 0.2948,0.0591 0.49915,0.0556 0.20416,-0.004 0.47106,-0.0824 0.26689,-0.0789 0.46663,-0.33078 0.19954,-0.25188 0.2488,-0.33443" />
    <path
       id="STROKE_8460ef2d-785e-4ff7-8fb6-a29d0ba9c005"
       opacity="1"
       fill="none"
       stroke="#71c047"
       stroke-width="0.321733"
       stroke-opacity="1"
       stroke-linecap="round"
       stroke-linejoin="round"
       d="m 119.18134,115.28477 q -0.0277,0.0404 -0.0641,0.19704 -0.0364,0.15663 0.20243,0.92537 0.2388,0.76873 0.38254,1.23998 0.14393,0.47106 0.22302,0.74026 0.0791,0.2692 0.18684,0.75161 0.10757,0.4824 0.122,0.96962 -0.0285,0.0212 -0.13104,-0.20262 -0.10256,-0.22379 -0.1805,-0.52166 -0.0777,-0.29787 -0.0949,-0.56284 -0.0171,-0.26478 -0.006,-0.41718 0.0114,-0.15259 0.0452,-0.24553 0.0339,-0.0928 0.0425,-0.11449 0.009,-0.0217 0.1347,-0.17357 0.12585,-0.15182 0.30114,-0.24457 0.1753,-0.0926 0.41487,-0.122 0.23957,-0.0294 0.41545,0.0429 0.17568,0.0724 0.29402,0.18049 0.11853,0.10795 0.25766,0.33155 0.13912,0.22341 0.21647,0.53552 0.0774,0.3123 0.10507,0.65559 0.0277,0.34328 -0.0775,0.61883 -0.0268,2e-4 -0.0522,0.006" />
    <path
       id="STROKE_939f779f-0e9c-4119-841d-40c2b688566e"
       opacity="1"
       fill="none"
       stroke="#71c047"
       stroke-width="0.349442"
       stroke-opacity="1"
       stroke-linecap="round"
       stroke-linejoin="round"
       d="m 122.7154,118.37934 q -0.0308,-0.0146 -0.0687,-0.0483 -0.0377,-0.0335 -0.0485,-0.0727 -0.0106,-0.0393 -0.0113,-0.0731 -9.6e-4,-0.0337 0.0237,-0.0822 0.0248,-0.0487 0.0591,-0.0895 0.0344,-0.0408 0.0781,-0.0779 0.0439,-0.0369 0.0797,-0.0612 0.0358,-0.0242 0.0587,-0.0404 0.0229,-0.0162 0.20512,-0.0883 0.18242,-0.0723 0.41449,-0.0937 0.23225,-0.0214 0.41659,0.0579 0.18435,0.0793 0.31808,0.23803 0.13354,0.15875 0.21821,0.45508 0.0847,0.29653 0.0862,0.49126 0.001,0.19493 -0.0624,0.34387 -0.0637,0.14893 -0.13739,0.22148 -0.0739,0.0724 -0.11122,0.0876 -0.0373,0.0152 -0.1397,0.0254 -0.10237,0.0102 -0.30499,-0.14798 -0.20263,-0.15798 -0.35445,-0.28613 -0.15182,-0.12796 -0.2438,-0.17126 -0.0918,-0.0431 -0.14817,-0.0319 -0.0562,0.0112 -0.0877,0.0529 -0.0314,0.0418 -0.0416,0.0739 -0.0102,0.0321 -0.0169,0.16279 -0.007,0.13085 0.0412,0.27728 0.0479,0.14663 0.22725,0.34059 0.17934,0.19416 0.41179,0.29557 0.23264,0.10121 0.46028,0.11179 0.22764,0.0104 0.34675,-0.0164 0.11892,-0.0269 0.2311,-0.0997 0.11199,-0.0729 0.18935,-0.1624 0.0775,-0.0897 0.14181,-0.18204" />
    <path
       id="STROKE_7c71b103-db13-4532-a979-a0762850ce80"
       opacity="1"
       fill="none"
       stroke="#71c047"
       stroke-width="0.319039"
       stroke-opacity="1"
       stroke-linecap="round"
       stroke-linejoin="round"
       d="m 125.05412,118.07569 q 0.009,0.0418 0.23938,0.44681 0.23033,0.40486 0.42834,0.72929 0.19819,0.32442 0.3175,0.50184 0.11949,0.17722 0.21436,0.28613 0.0949,0.10911 0.1676,0.16145 0.0729,0.0523 0.19839,0.0371 0.0331,-0.0275 0.10121,-0.67772 0.0679,-0.6504 -0.0725,-1.89403 l -0.005,0.0394 -0.01,0.0997" />
    <path
       id="STROKE_a88bb0a2-b050-4625-b16c-63f15200f255"
       opacity="1"
       fill="none"
       stroke="#71c047"
       stroke-width="0.349442"
       stroke-opacity="1"
       stroke-linecap="round"
       stroke-linejoin="round"
       d="m 127.9707,117.96101 q -0.0366,0.0267 0.14412,2.07202 -9.6e-4,-0.005 -0.0283,-0.0881 -0.0275,-0.0829 -0.0583,-0.17819" />
    <path
       id="STROKE_e8eddb70-fbc6-4a58-b276-a37e79d18e44"
       opacity="1"
       fill="none"
       stroke="#71c047"
       stroke-width="0.349442"
       stroke-opacity="1"
       stroke-linecap="round"
       stroke-linejoin="round"
       d="m 127.82311,117.17014 q -0.0152,-0.008 -0.0737,-0.045 l 0.0106,-0.0292" />
    <path
       id="STROKE_0e965a52-d866-4bfb-8a23-4807d04a425d"
       opacity="1"
       fill="none"
       stroke="#71c047"
       stroke-width="0.348096"
       stroke-opacity="1"
       stroke-linecap="round"
       stroke-linejoin="round"
       d="m 129.5099,118.20115 q -0.0866,0.0862 -0.19569,0.26824 -0.10911,0.18203 -0.13259,0.39235 -0.0237,0.21032 -0.0115,0.35099 0.0121,0.14066 0.11007,0.33943 0.0979,0.19878 0.27228,0.3581 0.17414,0.15952 0.33751,0.24361 0.16337,0.0839 0.32366,0.12258 0.16009,0.0387 0.36079,-0.0131 0.20051,-0.052 0.37908,-0.29268 0.17857,-0.24091 0.28613,-0.59459 0.10776,-0.35367 0.12912,-0.61133 0.0212,-0.25765 0.004,-0.45739 -0.0173,-0.19974 -0.12104,-0.35387 -0.10352,-0.15413 -0.25304,-0.23264 -0.14932,-0.0785 -0.34674,-0.0725 -0.19724,0.006 -0.35137,0.0614 -0.15413,0.0554 -0.38908,0.23918 -0.23495,0.18396 -0.3658,0.35156 -0.13085,0.1678 -0.21167,0.40371 -0.0808,0.23572 -0.0858,0.41544 -0.005,0.17953 0.004,0.29095" />
    <path
       id="STROKE_6addbba3-c9f0-44de-9a24-ce4706b4d59d"
       opacity="1"
       fill="none"
       stroke="#71c047"
       stroke-width="0.349442"
       stroke-opacity="1"
       stroke-linecap="round"
       stroke-linejoin="round"
       d="m 132.26099,118.10936 q -0.005,0.01 -0.0273,0.0102 -0.004,0.005 0.01,0.0214 0.0131,0.0162 0.1599,0.25208 0.14682,0.23591 0.28171,0.6579 0.1347,0.42218 0.17973,0.70061 0.0452,0.27844 0.0341,0.41756 -0.0258,-0.002 -0.137,-0.32904 -0.11103,-0.32712 -0.127,-0.65367 -0.016,-0.32635 5.8e-4,-0.51069 0.0165,-0.18434 0.0693,-0.30384 0.0525,-0.11969 0.2438,-0.30172 0.19108,-0.18203 0.64231,-0.28671 0.45104,-0.10449 0.57516,-0.13143" />
    <path
       id="STROKE_d5412c7a-b54c-4807-8572-a5224299d560"
       opacity="1"
       fill="none"
       stroke="#71c047"
       stroke-width="0.349442"
       stroke-opacity="1"
       stroke-linecap="round"
       stroke-linejoin="round"
       d="m 136.95634,118.63718 0.0217,-0.035 q 0.071,-0.08 0.21282,-0.10775 0.14182,-0.0277 0.33001,-0.0366 0.18819,-0.009 0.34367,-0.0104 0.15528,-10e-4 0.58978,-0.0439 0.4343,-0.0423 0.5436,-0.0593" />
    <path
       id="STROKE_5e28c71b-6a80-473e-815e-74664673a137"
       opacity="1"
       fill="none"
       stroke="#71c047"
       stroke-width="0.284018"
       stroke-opacity="1"
       stroke-linecap="round"
       stroke-linejoin="round"
       d="m 140.84504,118.38472 q -0.0294,0.0924 -0.0294,0.43046 0,0.33828 0.15875,1.34177 0.15875,1.00369 0.24033,1.51284 0.0814,0.50896 0.13355,0.83397 0.0521,0.32481 -0.0171,0.83146 l -0.0394,0.0471" />
    <path
       id="STROKE_cff47292-4ee7-45eb-9bb5-ca8abe1a8b32"
       opacity="1"
       fill="none"
       stroke="#71c047"
       stroke-width="0.349442"
       stroke-opacity="1"
       stroke-linecap="round"
       stroke-linejoin="round"
       d="m 140.46154,118.40223 q -0.0106,-0.05 -0.0323,-0.17799 -0.0216,-0.12796 -0.0218,-0.24226 0,-0.11449 0.11276,-0.28614 0.11277,-0.17164 0.34906,-0.31576 0.23649,-0.14432 0.48934,-0.19551 0.25284,-0.0512 0.46624,-0.0491 0.21359,0.002 0.41448,0.0675 0.20089,0.0656 0.37369,0.23418 0.17261,0.16856 0.28363,0.37522 0.11103,0.20667 0.15568,0.47414 0.0448,0.26766 -0.005,0.50781 -0.0496,0.24033 -0.24284,0.49972 -0.193,0.25939 -0.41044,0.43315 -0.21725,0.17395 -0.42834,0.25881 -0.2109,0.0849 -0.38369,0.0733 -0.1728,-0.0115 -0.28902,-0.25746 -0.11642,-0.24573 -0.15125,-0.35098" />
    <path
       id="STROKE_a554a82c-df37-46e2-ba21-7b248f97d906"
       opacity="1"
       fill="none"
       stroke="#71c047"
       stroke-width="0.347133"
       stroke-opacity="1"
       stroke-linecap="round"
       stroke-linejoin="round"
       d="m 143.84801,117.97178 q -0.005,0.0375 0.15894,0.52186 0.16337,0.48433 0.29518,0.84974 0.13162,0.36542 0.12912,0.71774 -0.0129,9.7e-4 -0.0221,0.0117 -0.009,0.0108 -0.11546,-0.12507 -0.10621,-0.13586 -0.21609,-0.59094 -0.10968,-0.45508 -0.15509,-0.73929 -0.0454,-0.28421 -0.052,-0.51801 -0.007,-0.23379 0.01,-0.34251 0.0162,-0.10892 0.0558,-0.188 0.0395,-0.0791 0.15933,-0.14471 0.11988,-0.0654 0.22783,-0.0695 0.10775,-0.004 0.2488,0.0468 0.14105,0.0508 0.24303,0.10044" />
    <path
       id="STROKE_e69d4cfd-5bb3-420d-b2a6-fe73671da3f4"
       opacity="1"
       fill="none"
       stroke="#71c047"
       stroke-width="0.349442"
       stroke-opacity="1"
       stroke-linecap="round"
       stroke-linejoin="round"
       d="m 146.23349,117.99468 -0.0113,0.0639 q -0.009,0.0179 0.0258,0.16684 0.0348,0.14893 0.20146,0.24938 0.16664,0.10044 0.28652,0.13431 0.11988,0.0341 0.28518,0.0425 0.16548,0.008 0.28267,-0.0304 0.11738,-0.0387 0.20454,-0.12411 0.0874,-0.0852 0.13028,-0.27209 0.0427,-0.18684 -0.0148,-0.34559 -0.0577,-0.15875 -0.15125,-0.24861 -0.0937,-0.0899 -0.30364,-0.16722 -0.20994,-0.0776 -0.4293,-0.0754 -0.21936,0.002 -0.40621,0.0614 -0.18684,0.0595 -0.40082,0.2338 -0.21397,0.17433 -0.32308,0.37696 -0.10929,0.20262 -0.11122,0.48837 -0.002,0.28575 0.12912,0.54802 0.13104,0.26247 0.31807,0.45336 0.18704,0.19107 0.47144,0.30633 0.28441,0.11527 0.63558,0.1449 0.35098,0.0296 0.54514,-0.0533 0.19416,-0.0827 0.28325,-0.13528" />
    <path
       id="STROKE_3b5dc8f0-853f-49ab-9e94-97f0d70adbe7"
       opacity="1"
       fill="none"
       stroke="#71c047"
       stroke-width="0.349442"
       stroke-opacity="1"
       stroke-linecap="round"
       stroke-linejoin="round"
       d="m 149.93324,117.66814 q -0.006,-0.004 -0.17703,-0.0781 -0.17088,-0.0741 -0.4066,-0.10795 -0.23552,-0.0339 -0.40774,0.0139 -0.17222,0.0479 -0.28479,0.18318 -0.11257,0.13547 -0.12546,0.2744 -0.0129,0.13893 0.0348,0.2388 0.0479,0.10006 0.45046,0.29268 0.40255,0.19281 0.65444,0.30826 0.25207,0.11526 0.36137,0.19512 0.1093,0.0798 0.19781,0.16875 0.0883,0.0889 0.14759,0.20532 0.0591,0.11642 0.0766,0.24938 0.0173,0.13297 -0.005,0.21552 -0.0223,0.0827 -0.0656,0.13412 -0.0431,0.0516 -0.0777,0.0895 -0.0348,0.0381 -0.29883,0.1041 -0.26401,0.0662 -0.48106,0.0608 -0.21686,-0.005 -0.44027,-0.0883 -0.2234,-0.0829 -0.36811,-0.19531 -0.1447,-0.11238 -0.19954,-0.20878 -0.0546,-0.0964 -0.0527,-0.1626 0.002,-0.0662 0.0202,-0.14355" />
    <path
       id="STROKE_ed4c17ae-783e-40f7-8e78-c1e6399026c3"
       opacity="1"
       fill="none"
       stroke="#71c047"
       stroke-width="0.348673"
       stroke-opacity="1"
       stroke-linecap="round"
       stroke-linejoin="round"
       d="m 150.9577,118.33354 q -0.008,0.0308 -0.0171,0.0968 -0.009,0.066 0.0371,0.13777 0.0464,0.0718 0.19262,0.12835 0.14605,0.0564 0.22629,0.0745 0.0802,0.0181 0.23842,0.0119 0.15817,-0.006 0.28786,-0.0356 0.1295,-0.0294 0.24573,-0.12507 0.11603,-0.0958 0.17568,-0.18242 0.0595,-0.0866 0.0895,-0.23438 0.0302,-0.14759 0.0277,-0.22032 -0.002,-0.0727 -0.041,-0.15894 -0.0385,-0.0862 -0.10487,-0.1372 -0.0664,-0.0512 -0.27228,-0.0858 -0.2057,-0.0348 -0.45585,0.0383 -0.24996,0.0729 -0.44373,0.19204 -0.19397,0.11892 -0.3785,0.32654 -0.18454,0.20763 -0.26228,0.37638 -0.0777,0.16857 -0.10891,0.41006 -0.0314,0.24149 -0.01,0.41506 0.0212,0.17357 0.10487,0.30807 0.0839,0.13431 0.26824,0.28209 0.18434,0.14779 0.52493,0.20667 0.34078,0.0589 0.55899,0.0416 0.2184,-0.0171 0.32693,-0.0575 0.10872,-0.0404 0.22995,-0.1016" />
    <path
       id="STROKE_e2e77009-05d3-44da-b9e5-0cd150b50fe4"
       opacity="1"
       fill="none"
       stroke="#71c047"
       stroke-width="0.349442"
       stroke-opacity="1"
       stroke-linecap="round"
       stroke-linejoin="round"
       d="m 153.50174,117.76666 q -0.0106,0.0202 0.006,0.30922 0.0164,0.28902 0.20686,0.78182 0.19031,0.49261 0.33636,0.8255 0.14624,0.3329 0.15297,0.55592 -0.0146,0.0133 -0.0847,0.008 -0.07,-0.005 -0.22187,-0.19646 -0.15182,-0.19166 -0.24341,-0.48895 -0.0916,-0.2973 -0.12046,-0.48684 -0.0291,-0.18934 -0.0352,-0.44276 -0.006,-0.25362 0.0227,-0.44143 0.0291,-0.1878 0.16606,-0.40293 0.13701,-0.21513 0.29614,-0.34021 0.15914,-0.12507 0.2948,-0.19415 0.13585,-0.0689 0.49992,-0.0302 0.36406,0.0387 0.48664,0.0787" />
    <path
       id="STROKE_4a573ac6-1e9e-48b9-bf7f-9623d16a2676"
       opacity="1"
       fill="none"
       stroke="#71c047"
       stroke-width="0.342323"
       stroke-opacity="1"
       stroke-linecap="round"
       stroke-linejoin="round"
       d="m 156.26515,117.34159 q 0.003,0.0106 -0.015,0.15202 -0.0181,0.14162 0.11084,0.4851 0.12892,0.34348 0.22937,0.52878 0.10044,0.18511 0.22898,0.40024 0.12835,0.21513 0.37119,0.53206 0.24284,0.31711 0.41121,0.47009 0.16856,0.15317 0.34174,0.17453 0.0181,-2e-4 0.14971,-0.60575 0.13181,-0.60556 0.1753,-1.14743 0.0435,-0.54187 -0.0558,-0.94961 l -0.0498,-0.0564" />
    <path
       id="STROKE_d349029a-c852-4b83-a79b-206a1b409f20"
       opacity="1"
       fill="none"
       stroke="#71c047"
       stroke-width="0.349442"
       stroke-opacity="1"
       stroke-linecap="round"
       stroke-linejoin="round"
       d="m 159.45554,117.80033 q -0.003,0.0125 -0.0483,0.0356 -0.0458,0.0229 -0.0843,0.1701 -0.0385,0.14721 -0.0248,0.40948 0.0135,0.26208 0.0475,0.46875 0.0342,0.20666 0.27536,0.96597 0.003,3.8e-4 0.0181,-0.0766 0.0146,-0.077 0.0235,-0.16741" />
    <path
       id="STROKE_393d96f1-d451-4d47-b03a-7e368619329c"
       opacity="1"
       fill="none"
       stroke="#71c047"
       stroke-width="0.349442"
       stroke-opacity="1"
       stroke-linecap="round"
       stroke-linejoin="round"
       d="m 159.5023,116.18493 -0.18319,0.0733 q -0.0339,0.096 -0.0248,0.14009 0.009,0.0441 0.037,0.11853" />
    <path
       id="STROKE_67ccd692-8ae3-4790-895d-2c256dabcc08"
       opacity="1"
       fill="none"
       stroke="#71c047"
       stroke-width="0.349442"
       stroke-opacity="1"
       stroke-linecap="round"
       stroke-linejoin="round"
       d="m 160.87409,118.10936 q -0.097,0.0581 -0.137,0.17627 -0.0402,0.11814 0.019,0.72928 0.0591,0.61114 0.14028,1.34466 0.0156,0.0473 0.0633,-0.50511 0.0477,-0.55245 0.0679,-0.8992 0.0204,-0.34655 0.0681,-0.5536 0.0477,-0.20705 0.1397,-0.33925 0.092,-0.132 0.27112,-0.18222 0.17896,-0.0502 0.36503,-0.0112 0.18588,0.0389 0.34983,0.19935 0.16394,0.16029 0.26785,0.34925 0.10391,0.18896 0.15067,0.58535 0.0468,0.3962 -0.0777,1.2573 l 0.0456,0.045" />
    <path
       id="STROKE_4bdb34a5-9c04-47ac-b7b7-a9f3b8723bec"
       opacity="1"
       fill="none"
       stroke="#71c047"
       stroke-width="0.297103"
       stroke-opacity="1"
       stroke-linecap="round"
       stroke-linejoin="round"
       d="m 165.56944,117.88673 q -0.009,-0.0125 -0.16029,-0.0808 -0.15163,-0.0683 -0.33905,-0.0514 -0.18723,0.0168 -0.44912,0.17838 -0.2617,0.16164 -0.45508,0.35348 -0.19339,0.19204 -0.33886,0.44566 -0.14548,0.25381 -0.20128,0.41948 -0.056,0.16568 -0.0756,0.27998 -0.0196,0.11449 -0.0194,0.25862 3.9e-4,0.14413 0.0535,0.2794 0.0529,0.13508 0.26323,0.28402 0.21013,0.14874 0.39313,0.19993 0.18299,0.051 0.3656,0.0469 0.18261,-0.004 0.4091,-0.14932 0.22648,-0.14548 0.42198,-0.39486 0.19551,-0.24938 0.31866,-0.51685 0.12296,-0.26747 0.14893,-0.47067 0.0258,-0.20339 0,-0.315 -0.026,-0.1116 -0.0989,-0.13912 -0.0731,-0.0275 -0.14143,1.9e-4 -0.0683,0.0275 -0.17088,0.19531 -0.10237,0.1676 -0.17068,0.46413 -0.0681,0.29633 0.15856,0.97059 0.22668,0.67425 0.36541,1.04198 0.13894,0.36791 0.20013,0.56957 0.0612,0.20185 0.095,0.31731 0.0337,0.11545 0.10661,0.45489 0.0729,0.33944 0.0783,0.63442 0.005,0.29499 -0.0585,0.54957 -0.0637,0.25438 -0.20628,0.47663 -0.14259,0.22225 -0.36657,0.41775 -0.22379,0.19551 -0.52974,0.34637 -0.30596,0.15105 -0.60364,0.25054 -0.29787,0.0997 -0.73852,0.16163 -0.44085,0.062 -0.85206,0.0718 -0.41121,0.01 -0.79817,-0.0344 -0.38716,-0.0441 -0.79645,-0.16798 -0.40928,-0.12373 -0.9625,-0.48453 -0.55322,-0.36079 -0.66752,-0.45027" />
    <path
       id="STROKE_0a566ec3-13c3-41a0-ab8f-48498f8bbf11"
       opacity="1"
       fill="none"
       stroke="#71c047"
       stroke-width="0.259196"
       stroke-opacity="1"
       stroke-linecap="round"
       stroke-linejoin="round"
       d="m 126.47806,123.91538 0.0262,-0.0733 q 0.0237,-0.0235 0.21571,0.70427 0.19223,0.72756 0.30134,1.54074 0.1091,0.81319 0.11564,1.24787 0.007,0.43469 -0.004,0.33136 -0.0104,-0.10314 -0.025,-0.19724" />
    <path
       id="STROKE_da4d1f01-2062-442a-9b97-ee5ec0fb50d1"
       opacity="1"
       fill="none"
       stroke="#71c047"
       stroke-width="0.22937"
       stroke-opacity="1"
       stroke-linecap="round"
       stroke-linejoin="round"
       d="m 123.0989,125.09109 q 0.002,0.005 -0.006,2e-4 0.009,-0.0152 1.12068,-0.54899 1.11144,-0.53398 2.07298,-0.94249 0.96135,-0.40852 1.56422,-0.66175 0.60267,-0.25323 0.99118,-0.35676 0.3885,-0.10371 0.4393,-0.11526" />
    <path
       id="STROKE_72e01fec-f628-45ad-ae9a-ee35e4d224fd"
       opacity="1"
       fill="none"
       stroke="#71c047"
       stroke-width="0.349442"
       stroke-opacity="1"
       stroke-linecap="round"
       stroke-linejoin="round"
       d="m 128.1435,126.11672 0.046,-0.19474 0.0562,-0.0262 q 0.27402,0.0239 0.55996,1.76627 -0.0114,0.007 -0.11796,-0.23957 -0.10679,-0.24727 -0.19108,-0.63712 -0.0843,-0.38985 -0.10237,-0.6706 -0.0181,-0.28075 0.0171,-0.44623 0.035,-0.16568 0.0976,-0.26766 0.0625,-0.10179 0.22033,-0.2211 0.15759,-0.11911 0.447,-0.15432 0.2894,-0.035 0.40216,-0.0385" />
    <path
       id="STROKE_c42c939f-fdf3-44c8-9257-10258461664c"
       opacity="1"
       fill="none"
       stroke="#71c047"
       stroke-width="0.349442"
       stroke-opacity="1"
       stroke-linecap="round"
       stroke-linejoin="round"
       d="m 130.53437,125.37165 q 0.01,-0.0189 0.13854,-0.13989 0.12854,-0.12104 0.26824,-0.18646 0.13989,-0.0654 0.36099,-0.0348 0.22129,0.0304 0.35098,0.25881 0.1295,0.22841 0.16722,0.72005 0.0377,0.49164 0.0331,0.72679 -0.005,0.23514 -0.0364,0.35406 -0.0314,0.11911 -0.0833,0.1574 -0.052,0.0385 -0.0981,0.0354 -0.0462,-0.003 -0.18165,-0.21802 -0.13566,-0.21494 -0.23091,-0.37638 -0.0952,-0.16145 -0.16413,-0.22687 -0.0691,-0.0656 -0.17126,-0.10025 -0.10218,-0.0348 -0.20647,-0.0115 -0.1043,0.0231 -0.17665,0.11199 -0.0722,0.0887 -0.0991,0.22148 -0.0269,0.13297 0.002,0.27171 0.0293,0.13873 0.13277,0.26516 0.10372,0.12642 0.1907,0.18973 0.0872,0.0635 0.29286,0.14893 0.20571,0.0856 0.44701,0.12008 0.2411,0.0344 0.41698,0.002 0.17588,-0.0319 0.28132,-0.067" />
    <path
       id="STROKE_2ea3efce-22b1-4c26-8790-297d3fa997e0"
       opacity="1"
       fill="none"
       stroke="#71c047"
       stroke-width="0.343862"
       stroke-opacity="1"
       stroke-linecap="round"
       stroke-linejoin="round"
       d="m 132.81536,125.44592 q -0.008,0.0319 0.0602,0.3431 0.0679,0.31095 0.49973,1.64676 -0.0352,-0.0269 -0.13797,-0.36445 -0.10275,-0.3377 -0.13893,-0.71274 -0.0364,-0.37503 -0.0256,-0.56572 0.011,-0.1905 0.0535,-0.30057 0.0427,-0.11007 0.0951,-0.16741 0.0525,-0.0571 0.193,-0.0962 0.14047,-0.0389 0.28094,-0.0206 0.14047,0.0185 0.34406,0.14489 0.20377,0.12662 0.36214,0.34483 0.15817,0.21821 0.2488,0.55726 0.0906,0.33905 0.077,0.89458 -0.0139,0.55553 -0.025,0.65136" />
    <path
       id="STROKE_6c3c38d6-eea3-48b5-ba2c-a6714dc88379"
       opacity="1"
       fill="none"
       stroke="#71c047"
       stroke-width="0.349442"
       stroke-opacity="1"
       stroke-linecap="round"
       stroke-linejoin="round"
       d="m 136.6881,125.37165 q -0.006,-0.0471 -0.0254,-0.1168 -0.0194,-0.0697 -0.05,-0.12104 -0.0304,-0.0512 -0.0554,-0.0745 -0.0252,-0.0231 -0.0579,-0.0385 -0.0327,-0.0152 -0.0843,-0.0318 -0.0516,-0.0164 -0.28287,0.0512 -0.23148,0.0675 -0.40794,0.22187 -0.17645,0.15452 -0.24746,0.23938 -0.0712,0.085 -0.10602,0.16567 -0.035,0.0806 -0.0391,0.1703 -0.004,0.0895 0.10929,0.19723 0.11315,0.10757 0.57843,0.25978 0.46548,0.1522 0.75103,0.24091 0.28575,0.0889 0.47529,0.20609 0.18935,0.11718 0.25246,0.18992 0.0633,0.0727 0.0952,0.17626 0.0319,0.10353 0.0398,0.21436 0.008,0.11103 -0.0314,0.24323 -0.0396,0.13219 -0.183,0.29691 -0.14355,0.1649 -0.34232,0.26227 -0.19858,0.0972 -0.45489,0.13143 -0.25631,0.0343 -0.45008,-0.004 -0.19358,-0.0381 -0.33867,-0.16318 -0.14509,-0.12488 -0.22321,-0.30364 -0.0781,-0.17877 -0.0858,-0.33925 -0.008,-0.16048 0.0248,-0.26131 0.0321,-0.10102 0.0806,-0.19204" />
    <path
       id="STROKE_2202470f-a9c4-45b6-8100-f20ba21d998a"
       opacity="1"
       fill="none"
       stroke="#71c047"
       stroke-width="0.293255"
       stroke-opacity="1"
       stroke-linecap="round"
       stroke-linejoin="round"
       d="m 139.28948,123.82918 q -0.002,-0.0241 0.003,-0.19397 0.005,-0.16991 -0.0841,-0.34906 -0.0889,-0.17914 -0.35849,-0.35829 -0.26978,-0.17895 -0.47836,-0.26862 -0.20878,-0.0897 -0.44989,-0.1093 -0.2413,-0.0196 -0.3785,-0.002 -0.1372,0.0179 -0.26766,0.11622 -0.13027,0.0983 -0.20012,0.2971 -0.07,0.19858 -0.0371,0.44316 0.0327,0.24476 0.0874,0.3835 0.0546,0.13893 0.18973,0.41929 0.13527,0.28036 0.28248,0.58709 0.1472,0.30653 0.27093,0.5842 0.12354,0.27747 0.34713,0.9092 0.22379,0.63173 0.36041,1.13088 0.13682,0.49934 0.18897,0.88342 0.0521,0.38427 -0.003,0.53186 -0.0548,0.14778 -0.0901,0.14316 -0.035,-0.005 -0.2055,-0.29883" />
    <path
       id="STROKE_87d3463c-d404-4b6f-a54a-a9747978b94e"
       opacity="1"
       fill="none"
       stroke="#71c047"
       stroke-width="0.349442"
       stroke-opacity="1"
       stroke-linecap="round"
       stroke-linejoin="round"
       d="m 138.16976,125.87503 q 0.0275,-0.0254 0.36388,-0.12873 0.33635,-0.10353 0.65328,-0.0887 0.31692,0.0148 0.41236,0.0341" />
    <path
       id="STROKE_26cd483e-eef9-499a-9205-e151b38f0fb0"
       opacity="1"
       fill="none"
       stroke="#71c047"
       stroke-width="0.349442"
       stroke-opacity="1"
       stroke-linecap="round"
       stroke-linejoin="round"
       d="m 140.04397,126.28278 q -0.019,0.0404 -0.0745,0.14201 -0.0556,0.1014 -0.0908,0.26901 -0.0354,0.1676 0.0252,0.31827 0.0606,0.15047 0.15548,0.26208 0.0949,0.1116 0.25092,0.21917 0.15606,0.10776 0.39774,0.16876 0.24169,0.0612 0.3962,0.0562 0.15433,-0.005 0.254,-0.0481 0.0997,-0.0431 0.22687,-0.18588 0.127,-0.14278 0.17934,-0.46837 0.0521,-0.32558 0.0237,-0.55187 -0.0287,-0.2261 -0.10622,-0.39331 -0.0777,-0.16703 -0.17972,-0.30172 -0.10218,-0.1347 -0.28575,-0.21706 -0.18358,-0.0824 -0.36272,-0.0958 -0.17934,-0.0133 -0.39871,0.06 -0.21936,0.0733 -0.41332,0.24938 -0.19397,0.17626 -0.20032,0.52801 -0.007,0.35156 0.008,0.44797" />
    <path
       id="STROKE_3eaa3f57-b95f-4e7b-8b44-fe1d3f4433be"
       opacity="1"
       fill="none"
       stroke="#71c047"
       stroke-width="0.349442"
       stroke-opacity="1"
       stroke-linecap="round"
       stroke-linejoin="round"
       d="m 142.56627,126.09921 q 0.002,0.009 0.008,0.075 0.006,0.0658 0.0283,0.12931 0.0223,0.0637 0.19089,0.31346 0.16875,0.24977 0.31192,0.49626 0.14316,0.2465 0.17991,0.46009 -0.0114,0.0152 -0.0978,-0.0587 -0.0864,-0.0741 -0.24592,-0.35464 -0.15952,-0.28055 -0.2463,-0.65963 -0.087,-0.37888 -0.0885,-0.61345 -0.002,-0.23456 0.0433,-0.37407 0.0448,-0.13951 0.10853,-0.22052 0.0635,-0.0812 0.14413,-0.13624 0.0806,-0.0548 0.19126,-0.0872 0.11065,-0.0321 0.2109,-0.0535" />
    <path
       id="STROKE_4d55c902-fe16-4680-9138-db1f1f163a08"
       opacity="1"
       fill="none"
       stroke="#71c047"
       stroke-width="0.348865"
       stroke-opacity="1"
       stroke-linecap="round"
       stroke-linejoin="round"
       d="m 144.44222,125.38801 -0.0317,-0.021 q -0.0354,-0.008 0.11372,0.52551 0.14932,0.53398 0.27709,1.00657 0.12758,0.47279 0.0839,0.79472 -0.0133,0.005 -0.0443,0.001 -0.031,-0.004 -0.0431,-0.0208 -0.0121,-0.0171 -0.0396,-0.0583 -0.0277,-0.041 -0.14913,-0.36215 -0.12161,-0.32115 -0.18204,-0.7339 -0.0606,-0.41295 -0.0304,-0.77663 0.0302,-0.36387 0.11084,-0.47856 0.0806,-0.11449 0.19704,-0.17664 0.11661,-0.0622 0.25997,-0.0321 0.14354,0.03 0.23264,0.0993 0.0893,0.0693 0.20243,0.20397 0.11295,0.13451 0.27997,0.48241 0.16703,0.3479 0.2669,0.70755 0.10006,0.35944 0.12045,0.69946 0.0204,0.34001 -0.0544,0.55264 -0.0872,-0.0233 -0.14875,-0.33578 -0.0618,-0.31269 -0.0781,-0.69965 -0.0164,-0.38716 -0.0102,-0.60114 0.006,-0.21397 0.0656,-0.41429 0.0593,-0.20031 0.17626,-0.38215 0.11699,-0.18184 0.32943,-0.28517 0.21244,-0.10334 0.3733,-0.0951 0.16106,0.008 0.29172,0.076 0.13065,0.0677 0.29979,0.34982 0.16934,0.28229 0.2517,0.73295 0.0825,0.45085 0.0874,0.89246 0.005,0.44142 0.002,0.44719" />
    <path
       id="STROKE_6eb53a1e-bc9c-4c23-acbe-86e825baec03"
       opacity="1"
       fill="none"
       stroke="#71c047"
       stroke-width="0.349442"
       stroke-opacity="1"
       stroke-linecap="round"
       stroke-linejoin="round"
       d="m 148.48043,125.22733 q 0.1043,-0.10487 0.11007,-0.10506 0.006,-3.9e-4 0.13239,-0.0352 0.12642,-0.0348 0.30326,-0.002 0.17684,0.0329 0.32135,0.15298 0.14451,0.12007 0.21955,0.23052 0.0749,0.11065 0.13335,0.39794 0.0587,0.28748 0.0533,0.50088 -0.005,0.2132 -0.0546,0.37099 -0.0495,0.1576 -0.10141,0.21513 -0.052,0.0577 -0.13258,0.0716 -0.0808,0.0137 -0.15086,-0.0306 -0.0701,-0.0444 -0.22148,-0.22841 -0.15125,-0.18396 -0.2794,-0.3556 -0.12797,-0.17164 -0.21129,-0.23303 -0.0831,-0.0614 -0.1293,-0.0725 -0.0464,-0.011 -0.0899,0 -0.0433,0.0112 -0.0837,0.19012 -0.0402,0.17895 -0.0187,0.39543 0.0217,0.21667 0.17415,0.46643 0.1522,0.24996 0.34097,0.41083 0.18896,0.16087 0.46952,0.23456 0.28036,0.0737 0.49761,0.0441 0.21724,-0.0294 0.4039,-0.19897 0.18665,-0.16952 0.24745,-0.23668" />
    <path
       id="STROKE_67071002-ca2f-4af7-9e7f-28ed509d5b7a"
       opacity="1"
       fill="none"
       stroke="#71c047"
       stroke-width="0.22937"
       stroke-opacity="1"
       stroke-linecap="round"
       stroke-linejoin="round"
       d="m 150.55631,122.88976 q 0.009,0.009 0.31403,0.93691 0.30557,0.92768 0.46913,1.65177 0.16356,0.7239 0.30692,1.39989 0.14335,0.67599 0.39293,1.38295 l -0.0518,-0.11064" />
    <path
       id="STROKE_5f9fadb6-c3e7-4eb5-b5b6-fc45e29a869e"
       opacity="1"
       fill="none"
       stroke="#71c047"
       stroke-width="0.281324"
       stroke-opacity="1"
       stroke-linecap="round"
       stroke-linejoin="round"
       d="m 149.46526,124.49977 q 0.0391,-0.13161 0.54167,-0.26458 0.50262,-0.13277 0.95789,-0.13912 0.45528,-0.006 0.83455,0.15836 0.37926,0.16472 0.51396,0.23996" />
    <path
       id="STROKE_1e86fcbc-ffd9-4ef8-9561-9448eea6e503"
       opacity="1"
       fill="none"
       stroke="#71c047"
       stroke-width="0.349442"
       stroke-opacity="1"
       stroke-linecap="round"
       stroke-linejoin="round"
       d="m 152.92563,126.03032 q -0.11719,0.10756 -0.15087,0.46374 -0.0339,0.35598 0.10449,0.8076 0.13835,0.45162 0.33617,0.87053 l 0.0289,0.0418" />
    <circle
       id="STROKE_b50067d7-86f4-4520-a72c-62f2ed3e0011"
       opacity="1"
       fill="#71c047"
       stroke="#71c047"
       stroke-width="0.0192424"
       stroke-opacity="1"
       fill-opacity="1"
       cx="152.76534"
       cy="125.09109"
       r="0.17472124" />
    <path
       id="STROKE_fc24f52b-7f1f-4508-861b-78854e2ccd11"
       opacity="1"
       fill="none"
       stroke="#71c047"
       stroke-width="0.344055"
       stroke-opacity="1"
       stroke-linecap="round"
       stroke-linejoin="round"
       d="m 154.16599,126.15039 q -0.0543,0.0583 -0.1624,0.18242 -0.10815,0.12392 -0.14528,0.32212 -0.0371,0.19839 0.0269,0.39466 0.0641,0.19646 0.22725,0.35406 0.16337,0.15759 0.41544,0.22706 0.25227,0.0693 0.45759,0.0658 0.20512,-0.003 0.37311,-0.0616 0.16779,-0.0583 0.34983,-0.22244 0.18184,-0.16433 0.30403,-0.37754 0.12218,-0.21339 0.14701,-0.46913 0.0246,-0.25554 0.014,-0.39601 -0.0106,-0.14027 -0.0899,-0.27805 -0.0791,-0.13758 -0.23745,-0.27305 -0.15836,-0.13527 -0.37561,-0.19358 -0.21706,-0.0585 -0.44315,-0.0427 -0.2261,0.016 -0.37985,0.0789 -0.15355,0.0631 -0.25804,0.14201 -0.10429,0.0789 -0.23534,0.26862 -0.13123,0.18954 -0.18857,0.43834 -0.0573,0.249 -0.0751,0.36253" />
    <path
       id="STROKE_32bc5957-b7f5-440c-8e49-b7c5987e1e8f"
       opacity="1"
       fill="none"
       stroke="#71c047"
       stroke-width="0.34925"
       stroke-opacity="1"
       stroke-linecap="round"
       stroke-linejoin="round"
       d="m 156.87725,125.74418 q -0.003,0.0158 0.15259,0.48279 0.15606,0.46702 0.24246,0.85302 0.0864,0.386 0.067,0.72486 -0.0704,0.0192 -0.13085,-0.1168 -0.0602,-0.13604 -0.0812,-0.518 -0.021,-0.38197 0.002,-0.65444 0.0225,-0.27228 0.0941,-0.46624 0.0716,-0.19397 0.1474,-0.29287 0.076,-0.0989 0.15894,-0.15587 0.0828,-0.0571 0.22668,-0.0637 0.14413,-0.006 0.26247,0.0344 0.11834,0.0408 0.25361,0.13796 0.13547,0.0972 0.27651,0.2796 0.14105,0.18241 0.22187,0.44565 0.081,0.26304 0.0624,0.59324 -0.0187,0.33001 -0.18512,0.71813 -0.16644,0.38831 -0.22013,0.49088" />
  </g>
</svg>
