<?xml version="1.0" encoding="UTF-8" standalone="no"?>
<svg
   xmlns:dc="http://purl.org/dc/elements/1.1/"
   xmlns:cc="http://creativecommons.org/ns#"
   xmlns:rdf="http://www.w3.org/1999/02/22-rdf-syntax-ns#"
   xmlns:svg="http://www.w3.org/2000/svg"
   xmlns="http://www.w3.org/2000/svg"
   xmlns:sodipodi="http://sodipodi.sourceforge.net/DTD/sodipodi-0.dtd"
   xmlns:inkscape="http://www.inkscape.org/namespaces/inkscape"
   version="1.1"
   viewBox="0 0 910.75641 198.93701"
   stroke-miterlimit="10"
   id="svg85"
   sodipodi:docname="locations.svg"
   width="910.75641"
   height="198.93701"
   style="fill:none;stroke:none;stroke-linecap:square;stroke-miterlimit:10"
   inkscape:version="0.92.4 5da689c313, 2019-01-14">
  <metadata
     id="metadata91">
    <rdf:RDF>
      <cc:Work
         rdf:about="">
        <dc:format>image/svg+xml</dc:format>
        <dc:type
           rdf:resource="http://purl.org/dc/dcmitype/StillImage" />
        <dc:title />
      </cc:Work>
    </rdf:RDF>
  </metadata>
  <defs
     id="defs89" />
  <sodipodi:namedview
     pagecolor="#ffffff"
     bordercolor="#666666"
     borderopacity="1"
     objecttolerance="10"
     gridtolerance="10"
     guidetolerance="10"
     inkscape:pageopacity="0"
     inkscape:pageshadow="2"
     inkscape:window-width="956"
     inkscape:window-height="1045"
     id="namedview87"
     showgrid="false"
     fit-margin-top="15"
     fit-margin-left="15"
     fit-margin-right="15"
     fit-margin-bottom="15"
     inkscape:zoom="0.45254834"
     inkscape:cx="470.02397"
     inkscape:cy="-24.680969"
     inkscape:window-x="960"
     inkscape:window-y="16"
     inkscape:window-maximized="0"
     inkscape:current-layer="layer1" />
  <clipPath
     id="g7418849574_1_52.0">
    <path
       d="M 0,0 H 960 V 540 H 0 Z"
       id="path2"
       inkscape:connector-curvature="0"
       style="clip-rule:nonzero" />
  </clipPath>
  <g
     clip-path="url(#g7418849574_1_52.0)"
     id="g83"
     transform="translate(-44.377452,-221.09842)" />
  <g
     inkscape:groupmode="layer"
     id="layer2"
     inkscape:label="bg">
    <rect
       style="fill:#ffffff;fill-opacity:1"
       id="rect71"
       width="919.23883"
       height="207.71262"
       x="0"
       y="0.063229531" />
  </g>
  <g
     inkscape:groupmode="layer"
     id="layer1"
     inkscape:label="fg"
     style="display:inline">
    <path
       transform="translate(-44.377452,-221.09842)"
       d="m 59.377953,293.66928 880.755897,0.22049"
       id="path13"
       inkscape:connector-curvature="0"
       style="fill:#000000;fill-opacity:0;fill-rule:evenodd;stroke:none;stroke-linecap:square;stroke-miterlimit:10" />
    <path
       transform="translate(-44.377452,-221.09842)"
       d="m 59.377953,293.66928 856.755897,0.21448"
       id="path15"
       inkscape:connector-curvature="0"
       style="fill:none;fill-rule:evenodd;stroke:#000000;stroke-width:4;stroke-linecap:butt;stroke-linejoin:round;stroke-miterlimit:10" />
    <path
       transform="translate(-44.377452,-221.09842)"
       d="m 916.1322,300.4907 18.15405,-6.60239 -18.15075,-6.61148 z"
       id="path17"
       inkscape:connector-curvature="0"
       style="fill:#000000;fill-rule:evenodd;stroke:#000000;stroke-width:4;stroke-linecap:butt;stroke-miterlimit:10" />
    <path
       transform="translate(-44.377452,-221.09842)"
       d="m 684.46454,236.59842 h 214.33075 v 139.94696 l -27.99005,27.99005 h -186.3407 z"
       id="path19"
       inkscape:connector-curvature="0"
       style="fill:#e9edee;fill-rule:evenodd;stroke:none;stroke-linecap:square;stroke-miterlimit:10" />
    <path
       transform="translate(-44.377452,-221.09842)"
       d="m 870.80524,404.53543 5.59796,-22.39206 22.39209,-5.59799 z"
       id="path21"
       inkscape:connector-curvature="0"
       style="fill:#babdbe;fill-rule:evenodd;stroke:none;stroke-linecap:square;stroke-miterlimit:10" />
    <path
       transform="translate(-44.377452,-221.09842)"
       d="m 870.80524,404.53543 5.59796,-22.39206 22.39209,-5.59799 -27.99005,27.99005 H 684.46454 V 236.59842 h 214.33075 v 139.94696"
       id="path23"
       inkscape:connector-curvature="0"
       style="fill:#000000;fill-opacity:0;fill-rule:evenodd;stroke:none;stroke-linecap:square;stroke-miterlimit:10" />
    <path
       transform="translate(-44.377452,-221.09842)"
       d="m 870.80524,404.53543 5.59796,-22.39206 22.39209,-5.59799 -27.99005,27.99005 H 684.46454 V 236.59842 h 214.33075 v 139.94696"
       id="path25"
       inkscape:connector-curvature="0"
       style="fill:none;fill-rule:evenodd;stroke:#1a1a1a;stroke-width:1;stroke-linecap:butt;stroke-linejoin:round;stroke-miterlimit:10" />
    <path
       transform="translate(-44.377452,-221.09842)"
       d="m 388.04462,236.59842 h 214.33069 v 139.94696 l -27.99005,27.99005 H 388.04462 Z"
       id="path27"
       inkscape:connector-curvature="0"
       style="fill:#e9edee;fill-rule:evenodd;stroke:none;stroke-linecap:square;stroke-miterlimit:10" />
    <path
       transform="translate(-44.377452,-221.09842)"
       d="m 574.38525,404.53543 5.59802,-22.39206 22.39203,-5.59799 z"
       id="path29"
       inkscape:connector-curvature="0"
       style="fill:#babdbe;fill-rule:evenodd;stroke:none;stroke-linecap:square;stroke-miterlimit:10" />
    <path
       transform="translate(-44.377452,-221.09842)"
       d="m 574.38525,404.53543 5.59802,-22.39206 22.39203,-5.59799 -27.99005,27.99005 H 388.04461 V 236.59842 H 602.3753 v 139.94696"
       id="path31"
       inkscape:connector-curvature="0"
       style="fill:#000000;fill-opacity:0;fill-rule:evenodd;stroke:none;stroke-linecap:square;stroke-miterlimit:10" />
    <path
       transform="translate(-44.377452,-221.09842)"
       d="m 574.38525,404.53543 5.59802,-22.39206 22.39203,-5.59799 -27.99005,27.99005 H 388.04461 V 236.59842 H 602.3753 v 139.94696"
       id="path33"
       inkscape:connector-curvature="0"
       style="fill:none;fill-rule:evenodd;stroke:#1a1a1a;stroke-width:1;stroke-linecap:butt;stroke-linejoin:round;stroke-miterlimit:10" />
    <path
       transform="translate(-44.377452,-221.09842)"
       d="m 91.62467,236.59842 h 214.33072 v 139.94696 l -27.99005,27.99005 H 91.624669 Z"
       id="path41"
       inkscape:connector-curvature="0"
       style="fill:#e9edee;fill-rule:evenodd;stroke:none;stroke-linecap:square;stroke-miterlimit:10" />
    <path
       transform="translate(-44.377452,-221.09842)"
       d="m 277.96533,404.53543 5.59799,-22.39206 22.39206,-5.59799 z"
       id="path43"
       inkscape:connector-curvature="0"
       style="fill:#babdbe;fill-rule:evenodd;stroke:none;stroke-linecap:square;stroke-miterlimit:10" />
    <path
       transform="translate(-44.377452,-221.09842)"
       d="m 277.96533,404.53543 5.59799,-22.39206 22.39206,-5.59799 -27.99005,27.99005 H 91.624661 V 236.59842 H 305.95538 v 139.94696"
       id="path45"
       inkscape:connector-curvature="0"
       style="fill:#000000;fill-opacity:0;fill-rule:evenodd;stroke:none;stroke-linecap:square;stroke-miterlimit:10" />
    <path
       transform="translate(-44.377452,-221.09842)"
       d="m 277.96533,404.53543 5.59799,-22.39206 22.39206,-5.59799 -27.99005,27.99005 H 91.624661 V 236.59842 H 305.95538 v 139.94696"
       id="path47"
       inkscape:connector-curvature="0"
       style="fill:none;fill-rule:evenodd;stroke:#1a1a1a;stroke-width:1;stroke-linecap:butt;stroke-linejoin:round;stroke-miterlimit:10" />
    <path
       transform="translate(-44.377452,-221.09842)"
       d="m 138.94751,270 h 119.68503 v 48.25198 H 138.94751 Z"
       id="path49"
       inkscape:connector-curvature="0"
       style="fill:#ffffff;fill-rule:evenodd;stroke:none;stroke-linecap:square;stroke-miterlimit:10" />
    <path
       transform="translate(-44.377452,-221.09842)"
       d="m 138.94751,270 h 119.68503 v 48.25198 H 138.94751 Z"
       id="path51"
       inkscape:connector-curvature="0"
       style="fill:none;fill-rule:evenodd;stroke:#000000;stroke-width:1;stroke-linecap:butt;stroke-linejoin:round;stroke-miterlimit:10" />
    <path
       transform="translate(-44.377452,-221.09842)"
       d="m 178.93858,285.63873 q -0.0781,0.14062 -0.17188,0.21875 -0.0937,0.0625 -0.25,0.0625 -0.15625,0 -0.375,-0.15625 -0.20312,-0.15625 -0.53125,-0.34375 -0.3125,-0.20313 -0.76562,-0.35938 -0.45313,-0.15625 -1.09375,-0.15625 -0.60938,0 -1.07813,0.17188 -0.46875,0.15625 -0.78125,0.4375 -0.3125,0.28125 -0.46875,0.65625 -0.15625,0.375 -0.15625,0.8125 0,0.5625 0.26563,0.9375 0.28125,0.35937 0.73437,0.625 0.45313,0.26562 1.03125,0.45312 0.57813,0.1875 1.17188,0.39063 0.60937,0.20312 1.17187,0.46875 0.57813,0.25 1.03125,0.64062 0.45313,0.39063 0.71875,0.96875 0.28125,0.5625 0.28125,1.39063 0,0.875 -0.29687,1.65625 -0.29688,0.76562 -0.875,1.34375 -0.5625,0.5625 -1.40625,0.89062 -0.82813,0.32813 -1.89063,0.32813 -1.29687,0 -2.375,-0.46875 -1.0625,-0.48438 -1.8125,-1.28125 l 0.51563,-0.85938 q 0.0781,-0.10937 0.1875,-0.17187 0.10937,-0.0781 0.23437,-0.0781 0.1875,0 0.4375,0.21875 0.26563,0.20313 0.64063,0.46875 0.375,0.25 0.90625,0.45313 0.54687,0.20312 1.3125,0.20312 0.64062,0 1.14062,-0.17187 0.51563,-0.17188 0.85938,-0.48438 0.35937,-0.32812 0.54687,-0.78125 0.1875,-0.45312 0.1875,-1 0,-0.60937 -0.28125,-0.98437 -0.28125,-0.39063 -0.73437,-0.65625 -0.4375,-0.26563 -1.01563,-0.4375 -0.5625,-0.1875 -1.17187,-0.375 -0.59375,-0.20313 -1.17188,-0.45313 -0.57812,-0.25 -1.03125,-0.64062 -0.4375,-0.40625 -0.71875,-1 -0.26562,-0.60938 -0.26562,-1.5 0,-0.70313 0.26562,-1.35938 0.28125,-0.67187 0.79688,-1.1875 0.53125,-0.51562 1.29687,-0.8125 0.76563,-0.3125 1.76563,-0.3125 1.125,0 2.04687,0.35938 0.92188,0.34375 1.60938,1.01562 z m 6.60657,1.6875 q 1.03125,0 1.85937,0.34375 0.84375,0.34375 1.42188,0.98437 0.59375,0.625 0.90625,1.53125 0.3125,0.89063 0.3125,2 0,1.125 -0.3125,2.03125 -0.3125,0.89063 -0.90625,1.53125 -0.57813,0.625 -1.42188,0.96875 -0.82812,0.32813 -1.85937,0.32813 -1.03125,0 -1.875,-0.32813 -0.82813,-0.34375 -1.42188,-0.96875 -0.57812,-0.64062 -0.90625,-1.53125 -0.3125,-0.90625 -0.3125,-2.03125 0,-1.10937 0.3125,-2 0.32813,-0.90625 0.90625,-1.53125 0.59375,-0.64062 1.42188,-0.98437 0.84375,-0.34375 1.875,-0.34375 z m 0,8.42187 q 1.39062,0 2.07812,-0.9375 0.70313,-0.9375 0.70313,-2.60937 0,-1.6875 -0.70313,-2.625 -0.6875,-0.95313 -2.07812,-0.95313 -0.70313,0 -1.23438,0.25 -0.51562,0.23438 -0.875,0.70313 -0.34375,0.45312 -0.51562,1.125 -0.17188,0.65625 -0.17188,1.5 0,0.84375 0.17188,1.5 0.17187,0.65625 0.51562,1.10937 0.35938,0.45313 0.875,0.70313 0.53125,0.23437 1.23438,0.23437 z m 7.98225,-8.28125 v 6.03125 q 0,1.07813 0.48438,1.67188 0.5,0.57812 1.5,0.57812 0.73437,0 1.375,-0.34375 0.64062,-0.34375 1.1875,-0.96875 v -6.96875 h 1.65625 v 9.45313 h -0.98438 q -0.35937,0 -0.45312,-0.34375 l -0.125,-1.01563 q -0.625,0.67188 -1.39063,1.09375 -0.76562,0.42188 -1.75,0.42188 -0.76562,0 -1.35937,-0.25 -0.59375,-0.26563 -1,-0.73438 -0.39063,-0.46875 -0.59375,-1.125 -0.20313,-0.67187 -0.20313,-1.46875 v -6.03125 z m 8.93538,9.45313 v -9.45313 h 0.95313 q 0.26562,0 0.375,0.10938 0.10937,0.0937 0.14062,0.34375 l 0.10938,1.48437 q 0.48437,-0.98437 1.1875,-1.54687 0.71875,-0.5625 1.6875,-0.5625 0.39062,0 0.70312,0.0937 0.32813,0.0937 0.59375,0.25 l -0.21875,1.23437 q -0.0625,0.23438 -0.28125,0.23438 -0.14062,0 -0.40625,-0.0781 -0.26562,-0.0937 -0.75,-0.0937 -0.875,0 -1.45312,0.5 -0.57813,0.5 -0.98438,1.46875 v 6.01563 z m 13.97159,-7.76563 q -0.0781,0.0937 -0.15625,0.15625 -0.0781,0.0469 -0.21875,0.0469 -0.14063,0 -0.29688,-0.10938 -0.15625,-0.10937 -0.42187,-0.25 -0.25,-0.14062 -0.60938,-0.25 -0.35937,-0.125 -0.875,-0.125 -0.6875,0 -1.21875,0.25 -0.53125,0.23438 -0.89062,0.70313 -0.35938,0.46875 -0.54688,1.14062 -0.1875,0.65625 -0.1875,1.46875 0,0.85938 0.20313,1.53125 0.20312,0.67188 0.54687,1.125 0.35938,0.45313 0.85938,0.6875 0.51562,0.23438 1.15625,0.23438 0.59375,0 0.98437,-0.14063 0.39063,-0.15625 0.65625,-0.32812 0.26563,-0.17188 0.42188,-0.3125 0.17187,-0.15625 0.34375,-0.15625 0.21875,0 0.3125,0.15625 l 0.46875,0.60937 q -0.60938,0.76563 -1.53125,1.10938 -0.92188,0.34375 -1.95313,0.34375 -0.89062,0 -1.65625,-0.3125 -0.75,-0.32813 -1.3125,-0.95313 -0.5625,-0.625 -0.89062,-1.53125 -0.3125,-0.90625 -0.3125,-2.0625 0,-1.04687 0.29687,-1.9375 0.29688,-0.90625 0.85938,-1.54687 0.5625,-0.65625 1.39062,-1.01563 0.82813,-0.35937 1.90625,-0.35937 0.98438,0 1.75,0.32812 0.76563,0.3125 1.35938,0.89063 z m 6.00934,-1.82812 q 0.84375,0 1.5625,0.28125 0.71875,0.28125 1.23437,0.82812 0.53125,0.53125 0.8125,1.32813 0.29688,0.78125 0.29688,1.78125 0,0.39062 -0.0781,0.53125 -0.0781,0.125 -0.3125,0.125 h -6.29687 q 0.0156,0.89062 0.23437,1.5625 0.23438,0.65625 0.625,1.10937 0.39063,0.4375 0.9375,0.65625 0.54688,0.21875 1.20313,0.21875 0.625,0 1.07812,-0.14062 0.45313,-0.15625 0.78125,-0.3125 0.32813,-0.17188 0.54688,-0.3125 0.21875,-0.15625 0.375,-0.15625 0.21875,0 0.32812,0.15625 l 0.46875,0.60937 q -0.3125,0.375 -0.75,0.65625 -0.42187,0.26563 -0.92187,0.45313 -0.48438,0.17187 -1.01563,0.25 -0.51562,0.0937 -1.01562,0.0937 -0.98438,0 -1.8125,-0.32813 -0.82813,-0.32812 -1.4375,-0.96875 -0.59375,-0.64062 -0.9375,-1.57812 -0.32813,-0.9375 -0.32813,-2.17188 0,-0.98437 0.29688,-1.84375 0.3125,-0.85937 0.875,-1.48437 0.57812,-0.625 1.39062,-0.98438 0.82813,-0.35937 1.85938,-0.35937 z m 0.0312,1.21875 q -1.20313,0 -1.89063,0.70312 -0.6875,0.6875 -0.85937,1.92188 h 5.14062 q 0,-0.57813 -0.17187,-1.0625 -0.15625,-0.48438 -0.46875,-0.82813 -0.29688,-0.35937 -0.75,-0.54687 -0.4375,-0.1875 -1,-0.1875 z"
       id="path53"
       inkscape:connector-curvature="0"
       style="fill:#000000;fill-rule:nonzero;stroke:none;stroke-linecap:square;stroke-miterlimit:10" />
    <path
       transform="translate(-44.377452,-221.09842)"
       d="m 423.57217,270 h 143.2756 v 48.25198 h -143.2756 z"
       id="path55"
       inkscape:connector-curvature="0"
       style="fill:#ffffff;fill-rule:evenodd;stroke:none;stroke-linecap:square;stroke-miterlimit:10" />
    <path
       transform="translate(-44.377452,-221.09842)"
       d="m 423.57217,270 h 143.2756 v 48.25198 h -143.2756 z"
       id="path57"
       inkscape:connector-curvature="0"
       style="fill:none;fill-rule:evenodd;stroke:#000000;stroke-width:1;stroke-linecap:butt;stroke-linejoin:round;stroke-miterlimit:10" />
    <path
       transform="translate(-44.377452,-221.09842)"
       d="m 439.7095,296.91998 v -13.375 h 4.26562 q 1.23438,0 2.125,0.25 0.89063,0.25 1.45313,0.70312 0.57812,0.4375 0.84375,1.09375 0.28125,0.64063 0.28125,1.45313 0,0.48437 -0.15625,0.95312 -0.15625,0.45313 -0.46875,0.84375 -0.3125,0.39063 -0.78125,0.70313 -0.46875,0.29687 -1.09375,0.5 1.45312,0.29687 2.20312,1.0625 0.75,0.75 0.75,2 0,0.85937 -0.3125,1.5625 -0.3125,0.6875 -0.92187,1.20312 -0.59375,0.5 -1.46875,0.78125 -0.875,0.26563 -1.98438,0.26563 z m 1.8125,-6.09375 v 4.65625 h 2.89062 q 0.76563,0 1.3125,-0.17188 0.5625,-0.1875 0.92188,-0.5 0.35937,-0.32812 0.53125,-0.76562 0.17187,-0.45313 0.17187,-0.98438 0,-1.03125 -0.73437,-1.625 -0.73438,-0.60937 -2.21875,-0.60937 z m 0,-1.28125 h 2.39062 q 0.75,0 1.3125,-0.17188 0.5625,-0.17187 0.92188,-0.46875 0.375,-0.29687 0.54687,-0.71875 0.1875,-0.42187 0.1875,-0.92187 0,-1.1875 -0.71875,-1.73438 -0.70312,-0.54687 -2.1875,-0.54687 H 441.522 Z m 11.42999,-2.07813 v 6.03125 q 0,1.07813 0.48438,1.67188 0.5,0.57812 1.5,0.57812 0.73437,0 1.375,-0.34375 0.64062,-0.34375 1.1875,-0.96875 v -6.96875 h 1.65625 v 9.45313 h -0.98438 q -0.35937,0 -0.45312,-0.34375 l -0.125,-1.01563 q -0.625,0.67188 -1.39063,1.09375 -0.76562,0.42188 -1.75,0.42188 -0.76562,0 -1.35937,-0.25 -0.59375,-0.26563 -1,-0.73438 -0.39063,-0.46875 -0.59375,-1.125 -0.20313,-0.67187 -0.20313,-1.46875 v -6.03125 z m 10.77912,0 v 9.45313 h -1.65625 v -9.45313 z m 0.375,-2.96875 q 0,0.25 -0.0937,0.46875 -0.0937,0.20313 -0.26563,0.375 -0.15625,0.15625 -0.375,0.25 -0.21875,0.0937 -0.45312,0.0937 -0.25,0 -0.46875,-0.0937 -0.20313,-0.0937 -0.35938,-0.25 -0.15625,-0.17187 -0.25,-0.375 -0.0937,-0.21875 -0.0937,-0.46875 0,-0.23437 0.0937,-0.45312 0.0937,-0.21875 0.25,-0.375 0.15625,-0.17188 0.35938,-0.26563 0.21875,-0.0937 0.46875,-0.0937 0.23437,0 0.45312,0.0937 0.21875,0.0937 0.375,0.26563 0.17188,0.15625 0.26563,0.375 0.0937,0.21875 0.0937,0.45312 z m 4.401,-1.3125 v 13.73438 h -1.65625 V 283.1856 Z m 9.5885,13.73438 q -0.35938,0 -0.45313,-0.34375 l -0.14062,-1.15625 q -0.60938,0.75 -1.39063,1.1875 -0.78125,0.4375 -1.78125,0.4375 -0.8125,0 -1.48437,-0.3125 -0.65625,-0.3125 -1.125,-0.90625 -0.46875,-0.60938 -0.71875,-1.51563 -0.25,-0.90625 -0.25,-2.07812 0,-1.04688 0.28125,-1.9375 0.28125,-0.90625 0.79687,-1.5625 0.53125,-0.67188 1.28125,-1.04688 0.76563,-0.39062 1.71875,-0.39062 0.875,0 1.48438,0.29687 0.625,0.29688 1.10937,0.82813 v -5.23438 h 1.65625 v 13.73438 z m -3.21875,-1.21875 q 0.8125,0 1.42187,-0.35938 0.60938,-0.375 1.125,-1.0625 v -4.5625 q -0.45312,-0.625 -1,-0.875 -0.54687,-0.25 -1.21875,-0.25 -1.3125,0 -2.03125,0.95313 -0.70312,0.9375 -0.70312,2.6875 0,0.92187 0.15625,1.57812 0.15625,0.65625 0.46875,1.07813 0.3125,0.42187 0.75,0.625 0.45312,0.1875 1.03125,0.1875 z m 17.52951,1.21875 h -0.73438 q -0.23437,0 -0.39062,-0.0781 -0.14063,-0.0781 -0.1875,-0.3125 l -0.1875,-0.875 q -0.375,0.32813 -0.73438,0.59375 -0.35937,0.26563 -0.75,0.45313 -0.39062,0.1875 -0.82812,0.28125 -0.4375,0.0937 -0.98438,0.0937 -0.54687,0 -1.03125,-0.15625 -0.48437,-0.15625 -0.84375,-0.46875 -0.34375,-0.3125 -0.5625,-0.78125 -0.20312,-0.46875 -0.20312,-1.10938 0,-0.5625 0.29687,-1.07812 0.3125,-0.51563 1,-0.90625 0.6875,-0.40625 1.79688,-0.65625 1.10937,-0.26563 2.71875,-0.3125 v -0.73438 q 0,-1.09375 -0.46875,-1.65625 -0.46875,-0.57812 -1.40625,-0.57812 -0.59375,0 -1.01563,0.15625 -0.40625,0.15625 -0.71875,0.35937 -0.29687,0.1875 -0.51562,0.34375 -0.21875,0.14063 -0.4375,0.14063 -0.17188,0 -0.29688,-0.0781 -0.125,-0.0937 -0.20312,-0.21875 l -0.29688,-0.53125 q 0.78125,-0.76562 1.6875,-1.14062 0.90625,-0.375 2.01563,-0.375 0.78125,0 1.39062,0.26562 0.625,0.26563 1.04688,0.73438 0.42187,0.46875 0.625,1.125 0.21875,0.65625 0.21875,1.45312 z m -4.29688,-1.01563 q 0.4375,0 0.79688,-0.0781 0.35937,-0.0937 0.67187,-0.25 0.32813,-0.17188 0.625,-0.40625 0.29688,-0.23438 0.57813,-0.53125 V 292.67 q -1.15625,0.0312 -1.95313,0.1875 -0.79687,0.14062 -1.3125,0.375 -0.5,0.23437 -0.73437,0.54687 -0.21875,0.3125 -0.21875,0.70313 0,0.375 0.125,0.65625 0.125,0.26562 0.32812,0.4375 0.20313,0.17187 0.48438,0.25 0.28125,0.0781 0.60937,0.0781 z m 6.81812,1.01563 v -9.45313 h 0.95312 q 0.26563,0 0.375,0.10938 0.10938,0.0937 0.14063,0.34375 l 0.10937,1.48437 q 0.48438,-0.98437 1.1875,-1.54687 0.71875,-0.5625 1.6875,-0.5625 0.39063,0 0.70313,0.0937 0.32812,0.0937 0.59375,0.25 l -0.21875,1.23437 q -0.0625,0.23438 -0.28125,0.23438 -0.14063,0 -0.40625,-0.0781 -0.26563,-0.0937 -0.75,-0.0937 -0.875,0 -1.45313,0.5 -0.57812,0.5 -0.98437,1.46875 v 6.01563 z m 10.37784,0.15625 q -1.10938,0 -1.71875,-0.625 -0.59375,-0.625 -0.59375,-1.8125 v -5.78125 h -1.14063 q -0.15625,0 -0.26562,-0.0781 -0.0937,-0.0937 -0.0937,-0.28125 v -0.65625 l 1.54687,-0.20312 0.39063,-2.92188 q 0.0156,-0.14062 0.10937,-0.21875 0.10938,-0.0937 0.26563,-0.0937 h 0.84375 v 3.25 h 2.70312 v 1.20313 h -2.70312 v 5.67187 q 0,0.59375 0.28125,0.89063 0.29687,0.28125 0.75,0.28125 0.26562,0 0.45312,-0.0625 0.20313,-0.0781 0.32813,-0.15625 0.14062,-0.0781 0.23437,-0.14063 0.10938,-0.0781 0.1875,-0.0781 0.125,0 0.23438,0.15625 l 0.48437,0.79687 q -0.4375,0.39063 -1.04687,0.625 -0.59375,0.23438 -1.25,0.23438 z m 5.94314,-9.60938 v 9.45313 h -1.65625 v -9.45313 z m 0.375,-2.96875 q 0,0.25 -0.0937,0.46875 -0.0937,0.20313 -0.26562,0.375 -0.15625,0.15625 -0.375,0.25 -0.21875,0.0937 -0.45313,0.0937 -0.25,0 -0.46875,-0.0937 -0.20312,-0.0937 -0.35937,-0.25 -0.15625,-0.17187 -0.25,-0.375 -0.0937,-0.21875 -0.0937,-0.46875 0,-0.23437 0.0937,-0.45312 0.0937,-0.21875 0.25,-0.375 0.15625,-0.17188 0.35937,-0.26563 0.21875,-0.0937 0.46875,-0.0937 0.23438,0 0.45313,0.0937 0.21875,0.0937 0.375,0.26563 0.17187,0.15625 0.26562,0.375 0.0937,0.21875 0.0937,0.45312 z m 2.93225,12.42188 v -8.03125 l -1.04687,-0.125 q -0.1875,-0.0469 -0.3125,-0.14063 -0.125,-0.0937 -0.125,-0.28125 v -0.6875 h 1.48437 v -0.90625 q 0,-0.8125 0.21875,-1.4375 0.23438,-0.64062 0.65625,-1.0625 0.4375,-0.4375 1.03125,-0.65625 0.59375,-0.23437 1.34375,-0.23437 0.625,0 1.17188,0.1875 l -0.0312,0.82812 q -0.0156,0.1875 -0.17188,0.23438 -0.14062,0.0312 -0.40625,0.0312 h -0.29687 q -0.42188,0 -0.78125,0.10937 -0.34375,0.10938 -0.59375,0.35938 -0.25,0.25 -0.39063,0.67187 -0.14062,0.40625 -0.14062,1.01563 v 0.85937 h 2.73437 v 1.20313 h -2.67187 v 8.0625 z m 12.84967,0 h -0.73437 q -0.23438,0 -0.39063,-0.0781 -0.14062,-0.0781 -0.1875,-0.3125 l -0.1875,-0.875 q -0.375,0.32813 -0.73437,0.59375 -0.35938,0.26563 -0.75,0.45313 -0.39063,0.1875 -0.82813,0.28125 -0.4375,0.0937 -0.98437,0.0937 -0.54688,0 -1.03125,-0.15625 -0.48438,-0.15625 -0.84375,-0.46875 -0.34375,-0.3125 -0.5625,-0.78125 -0.20313,-0.46875 -0.20313,-1.10938 0,-0.5625 0.29688,-1.07812 0.3125,-0.51563 1,-0.90625 0.6875,-0.40625 1.79687,-0.65625 1.10938,-0.26563 2.71875,-0.3125 v -0.73438 q 0,-1.09375 -0.46875,-1.65625 -0.46875,-0.57812 -1.40625,-0.57812 -0.59375,0 -1.01562,0.15625 -0.40625,0.15625 -0.71875,0.35937 -0.29688,0.1875 -0.51563,0.34375 -0.21875,0.14063 -0.4375,0.14063 -0.17187,0 -0.29687,-0.0781 -0.125,-0.0937 -0.20313,-0.21875 l -0.29687,-0.53125 q 0.78125,-0.76562 1.6875,-1.14062 0.90625,-0.375 2.01562,-0.375 0.78125,0 1.39063,0.26562 0.625,0.26563 1.04687,0.73438 0.42188,0.46875 0.625,1.125 0.21875,0.65625 0.21875,1.45312 z m -4.29687,-1.01563 q 0.4375,0 0.79687,-0.0781 0.35938,-0.0937 0.67188,-0.25 0.32812,-0.17188 0.625,-0.40625 0.29687,-0.23438 0.57812,-0.53125 V 292.67 q -1.15625,0.0312 -1.95312,0.1875 -0.79688,0.14062 -1.3125,0.375 -0.5,0.23437 -0.73438,0.54687 -0.21875,0.3125 -0.21875,0.70313 0,0.375 0.125,0.65625 0.125,0.26562 0.32813,0.4375 0.20312,0.17187 0.48437,0.25 0.28125,0.0781 0.60938,0.0781 z m 13.27124,-6.75 q -0.0781,0.0937 -0.15625,0.15625 -0.0781,0.0469 -0.21875,0.0469 -0.14063,0 -0.29688,-0.10938 -0.15625,-0.10937 -0.42187,-0.25 -0.25,-0.14062 -0.60938,-0.25 -0.35937,-0.125 -0.875,-0.125 -0.6875,0 -1.21875,0.25 -0.53125,0.23438 -0.89062,0.70313 -0.35938,0.46875 -0.54688,1.14062 -0.1875,0.65625 -0.1875,1.46875 0,0.85938 0.20313,1.53125 0.20312,0.67188 0.54687,1.125 0.35938,0.45313 0.85938,0.6875 0.51562,0.23438 1.15625,0.23438 0.59375,0 0.98437,-0.14063 0.39063,-0.15625 0.65625,-0.32812 0.26563,-0.17188 0.42188,-0.3125 0.17187,-0.15625 0.34375,-0.15625 0.21875,0 0.3125,0.15625 l 0.46875,0.60937 q -0.60938,0.76563 -1.53125,1.10938 -0.92188,0.34375 -1.95313,0.34375 -0.89062,0 -1.65625,-0.3125 -0.75,-0.32813 -1.3125,-0.95313 -0.5625,-0.625 -0.89062,-1.53125 -0.3125,-0.90625 -0.3125,-2.0625 0,-1.04687 0.29687,-1.9375 0.29688,-0.90625 0.85938,-1.54687 0.5625,-0.65625 1.39062,-1.01563 0.82813,-0.35937 1.90625,-0.35937 0.98438,0 1.75,0.32812 0.76563,0.3125 1.35938,0.89063 z m 5.11871,7.92188 q -1.10937,0 -1.71875,-0.625 -0.59375,-0.625 -0.59375,-1.8125 v -5.78125 h -1.14062 q -0.15625,0 -0.26563,-0.0781 -0.0937,-0.0937 -0.0937,-0.28125 v -0.65625 l 1.54688,-0.20312 0.39062,-2.92188 q 0.0156,-0.14062 0.10938,-0.21875 0.10937,-0.0937 0.26562,-0.0937 h 0.84375 v 3.25 h 2.70313 v 1.20313 h -2.70313 v 5.67187 q 0,0.59375 0.28125,0.89063 0.29688,0.28125 0.75,0.28125 0.26563,0 0.45313,-0.0625 0.20312,-0.0781 0.32812,-0.15625 0.14063,-0.0781 0.23438,-0.14063 0.10937,-0.0781 0.1875,-0.0781 0.125,0 0.23437,0.15625 l 0.48438,0.79687 q -0.4375,0.39063 -1.04688,0.625 -0.59375,0.23438 -1.25,0.23438 z m 9.50562,-8.04688 q -0.10938,0.20313 -0.34375,0.20313 -0.14063,0 -0.3125,-0.0937 -0.17188,-0.10938 -0.4375,-0.23438 -0.25,-0.125 -0.60938,-0.23437 -0.35937,-0.10938 -0.84375,-0.10938 -0.40625,0 -0.75,0.10938 -0.32812,0.10937 -0.57812,0.29687 -0.23438,0.1875 -0.35938,0.4375 -0.125,0.23438 -0.125,0.53125 0,0.35938 0.20313,0.60938 0.21875,0.23437 0.5625,0.42187 0.34375,0.17188 0.78125,0.3125 0.4375,0.125 0.89062,0.28125 0.46875,0.15625 0.90625,0.34375 0.4375,0.1875 0.78125,0.46875 0.35938,0.28125 0.5625,0.6875 0.20313,0.40625 0.20313,0.96875 0,0.65625 -0.23438,1.21875 -0.21875,0.54688 -0.6875,0.95313 -0.45312,0.40625 -1.125,0.64062 -0.65625,0.23438 -1.51562,0.23438 -0.98438,0 -1.79688,-0.32813 -0.79687,-0.32812 -1.35937,-0.82812 l 0.39062,-0.625 q 0.0781,-0.125 0.17188,-0.1875 0.10937,-0.0781 0.28125,-0.0781 0.15625,0 0.34375,0.14063 0.1875,0.125 0.45312,0.28125 0.26563,0.15625 0.64063,0.29687 0.39062,0.125 0.95312,0.125 0.48438,0 0.84375,-0.125 0.375,-0.125 0.60938,-0.32812 0.25,-0.21875 0.35937,-0.5 0.125,-0.28125 0.125,-0.60938 0,-0.39062 -0.21875,-0.64062 -0.20312,-0.25 -0.54687,-0.4375 -0.34375,-0.1875 -0.79688,-0.3125 -0.4375,-0.14063 -0.90625,-0.28125 -0.45312,-0.15625 -0.90625,-0.34375 -0.4375,-0.20313 -0.78125,-0.48438 -0.34375,-0.29687 -0.5625,-0.71875 -0.20312,-0.42187 -0.20312,-1.03125 0,-0.53125 0.21875,-1.03125 0.23437,-0.5 0.65625,-0.875 0.4375,-0.39062 1.0625,-0.60937 0.625,-0.21875 1.42187,-0.21875 0.9375,0 1.67188,0.29687 0.75,0.28125 1.28125,0.79688 z"
       id="path59"
       inkscape:connector-curvature="0"
       style="fill:#000000;fill-rule:nonzero;stroke:none;stroke-linecap:square;stroke-miterlimit:10" />
    <path
       transform="translate(-44.377452,-221.09842)"
       d="m 705.96063,270 h 171.33856 v 48.25198 H 705.96063 Z"
       id="path61"
       inkscape:connector-curvature="0"
       style="fill:#ffffff;fill-rule:evenodd;stroke:none;stroke-linecap:square;stroke-miterlimit:10" />
    <path
       transform="translate(-44.377452,-221.09842)"
       d="m 705.96063,270 h 171.33856 v 48.25198 H 705.96063 Z"
       id="path63"
       inkscape:connector-curvature="0"
       style="fill:none;fill-rule:evenodd;stroke:#000000;stroke-width:1;stroke-linecap:butt;stroke-linejoin:round;stroke-miterlimit:10" />
    <path
       transform="translate(-44.377452,-221.09842)"
       d="m 719.52997,296.91998 h -1.8125 v -13.375 h 1.8125 z m 3.32123,0 v -9.45313 h 0.98437 q 0.35938,0 0.45313,0.34375 l 0.125,1.03125 q 0.625,-0.6875 1.375,-1.09375 0.76562,-0.42187 1.76562,-0.42187 0.78125,0 1.35938,0.26562 0.59375,0.25 0.98437,0.71875 0.40625,0.46875 0.60938,1.14063 0.20312,0.65625 0.20312,1.45312 v 6.01563 h -1.65625 v -6.01563 q 0,-1.07812 -0.5,-1.67187 -0.48437,-0.59375 -1.48437,-0.59375 -0.73438,0 -1.375,0.35937 -0.64063,0.35938 -1.1875,0.96875 v 6.95313 z m 15.77911,-7.89063 q -0.10937,0.20313 -0.34375,0.20313 -0.14062,0 -0.3125,-0.0937 -0.17187,-0.10938 -0.4375,-0.23438 -0.25,-0.125 -0.60937,-0.23437 -0.35938,-0.10938 -0.84375,-0.10938 -0.40625,0 -0.75,0.10938 -0.32813,0.10937 -0.57813,0.29687 -0.23437,0.1875 -0.35937,0.4375 -0.125,0.23438 -0.125,0.53125 0,0.35938 0.20312,0.60938 0.21875,0.23437 0.5625,0.42187 0.34375,0.17188 0.78125,0.3125 0.4375,0.125 0.89063,0.28125 0.46875,0.15625 0.90625,0.34375 0.4375,0.1875 0.78125,0.46875 0.35937,0.28125 0.5625,0.6875 0.20312,0.40625 0.20312,0.96875 0,0.65625 -0.23437,1.21875 -0.21875,0.54688 -0.6875,0.95313 -0.45313,0.40625 -1.125,0.64062 -0.65625,0.23438 -1.51563,0.23438 -0.98437,0 -1.79687,-0.32813 -0.79688,-0.32812 -1.35938,-0.82812 l 0.39063,-0.625 q 0.0781,-0.125 0.17187,-0.1875 0.10938,-0.0781 0.28125,-0.0781 0.15625,0 0.34375,0.14063 0.1875,0.125 0.45313,0.28125 0.26562,0.15625 0.64062,0.29687 0.39063,0.125 0.95313,0.125 0.48437,0 0.84375,-0.125 0.375,-0.125 0.60937,-0.32812 0.25,-0.21875 0.35938,-0.5 0.125,-0.28125 0.125,-0.60938 0,-0.39062 -0.21875,-0.64062 -0.20313,-0.25 -0.54688,-0.4375 -0.34375,-0.1875 -0.79687,-0.3125 -0.4375,-0.14063 -0.90625,-0.28125 -0.45313,-0.15625 -0.90625,-0.34375 -0.4375,-0.20313 -0.78125,-0.48438 -0.34375,-0.29687 -0.5625,-0.71875 -0.20313,-0.42187 -0.20313,-1.03125 0,-0.53125 0.21875,-1.03125 0.23438,-0.5 0.65625,-0.875 0.4375,-0.39062 1.0625,-0.60937 0.625,-0.21875 1.42188,-0.21875 0.9375,0 1.67187,0.29687 0.75,0.28125 1.28125,0.79688 z m 5.54993,8.04688 q -1.10938,0 -1.71875,-0.625 -0.59375,-0.625 -0.59375,-1.8125 v -5.78125 h -1.14063 q -0.15625,0 -0.26562,-0.0781 -0.0937,-0.0937 -0.0937,-0.28125 v -0.65625 l 1.54687,-0.20312 0.39063,-2.92188 q 0.0156,-0.14062 0.10937,-0.21875 0.10938,-0.0937 0.26563,-0.0937 h 0.84375 v 3.25 h 2.70312 v 1.20313 h -2.70312 v 5.67187 q 0,0.59375 0.28125,0.89063 0.29687,0.28125 0.75,0.28125 0.26562,0 0.45312,-0.0625 0.20313,-0.0781 0.32813,-0.15625 0.14062,-0.0781 0.23437,-0.14063 0.10938,-0.0781 0.1875,-0.0781 0.125,0 0.23438,0.15625 l 0.48437,0.79687 q -0.4375,0.39063 -1.04687,0.625 -0.59375,0.23438 -1.25,0.23438 z m 11.03692,-0.15625 h -0.73437 q -0.23438,0 -0.39063,-0.0781 -0.14062,-0.0781 -0.1875,-0.3125 l -0.1875,-0.875 q -0.375,0.32813 -0.73437,0.59375 -0.35938,0.26563 -0.75,0.45313 -0.39063,0.1875 -0.82813,0.28125 -0.4375,0.0937 -0.98437,0.0937 -0.54688,0 -1.03125,-0.15625 -0.48438,-0.15625 -0.84375,-0.46875 -0.34375,-0.3125 -0.5625,-0.78125 -0.20313,-0.46875 -0.20313,-1.10938 0,-0.5625 0.29688,-1.07812 0.3125,-0.51563 1,-0.90625 0.6875,-0.40625 1.79687,-0.65625 1.10938,-0.26563 2.71875,-0.3125 v -0.73438 q 0,-1.09375 -0.46875,-1.65625 -0.46875,-0.57812 -1.40625,-0.57812 -0.59375,0 -1.01562,0.15625 -0.40625,0.15625 -0.71875,0.35937 -0.29688,0.1875 -0.51563,0.34375 -0.21875,0.14063 -0.4375,0.14063 -0.17187,0 -0.29687,-0.0781 -0.125,-0.0937 -0.20313,-0.21875 l -0.29687,-0.53125 q 0.78125,-0.76562 1.6875,-1.14062 0.90625,-0.375 2.01562,-0.375 0.78125,0 1.39063,0.26562 0.625,0.26563 1.04687,0.73438 0.42188,0.46875 0.625,1.125 0.21875,0.65625 0.21875,1.45312 z m -4.29687,-1.01563 q 0.4375,0 0.79687,-0.0781 0.35938,-0.0937 0.67188,-0.25 0.32812,-0.17188 0.625,-0.40625 0.29687,-0.23438 0.57812,-0.53125 V 292.67 q -1.15625,0.0312 -1.95312,0.1875 -0.79688,0.14062 -1.3125,0.375 -0.5,0.23437 -0.73438,0.54687 -0.21875,0.3125 -0.21875,0.70313 0,0.375 0.125,0.65625 0.125,0.26562 0.32813,0.4375 0.20312,0.17187 0.48437,0.25 0.28125,0.0781 0.60938,0.0781 z m 8.66186,-12.71875 v 13.73438 H 757.9259 V 283.1856 Z m 4.77601,0 v 13.73438 h -1.65625 V 283.1856 Z m 6.68225,4.14063 q 0.84375,0 1.5625,0.28125 0.71875,0.28125 1.23437,0.82812 0.53125,0.53125 0.8125,1.32813 0.29688,0.78125 0.29688,1.78125 0,0.39062 -0.0781,0.53125 -0.0781,0.125 -0.3125,0.125 h -6.29687 q 0.0156,0.89062 0.23437,1.5625 0.23438,0.65625 0.625,1.10937 0.39063,0.4375 0.9375,0.65625 0.54688,0.21875 1.20313,0.21875 0.625,0 1.07812,-0.14062 0.45313,-0.15625 0.78125,-0.3125 0.32813,-0.17188 0.54688,-0.3125 0.21875,-0.15625 0.375,-0.15625 0.21875,0 0.32812,0.15625 l 0.46875,0.60937 q -0.3125,0.375 -0.75,0.65625 -0.42187,0.26563 -0.92187,0.45313 -0.48438,0.17187 -1.01563,0.25 -0.51562,0.0937 -1.01562,0.0937 -0.98438,0 -1.8125,-0.32813 -0.82813,-0.32812 -1.4375,-0.96875 -0.59375,-0.64062 -0.9375,-1.57812 -0.32813,-0.9375 -0.32813,-2.17188 0,-0.98437 0.29688,-1.84375 0.3125,-0.85937 0.875,-1.48437 0.57812,-0.625 1.39062,-0.98438 0.82813,-0.35937 1.85938,-0.35937 z m 0.0312,1.21875 q -1.20313,0 -1.89063,0.70312 -0.6875,0.6875 -0.85937,1.92188 h 5.14062 q 0,-0.57813 -0.17187,-1.0625 -0.15625,-0.48438 -0.46875,-0.82813 -0.29688,-0.35937 -0.75,-0.54687 -0.4375,-0.1875 -1,-0.1875 z m 12.65088,8.375 q -0.35938,0 -0.45313,-0.34375 l -0.14062,-1.15625 q -0.60938,0.75 -1.39063,1.1875 -0.78125,0.4375 -1.78125,0.4375 -0.8125,0 -1.48437,-0.3125 -0.65625,-0.3125 -1.125,-0.90625 -0.46875,-0.60938 -0.71875,-1.51563 -0.25,-0.90625 -0.25,-2.07812 0,-1.04688 0.28125,-1.9375 0.28125,-0.90625 0.79687,-1.5625 0.53125,-0.67188 1.28125,-1.04688 0.76563,-0.39062 1.71875,-0.39062 0.875,0 1.48438,0.29687 0.625,0.29688 1.10937,0.82813 v -5.23438 h 1.65625 v 13.73438 z m -3.21875,-1.21875 q 0.8125,0 1.42187,-0.35938 0.60938,-0.375 1.125,-1.0625 v -4.5625 q -0.45312,-0.625 -1,-0.875 -0.54687,-0.25 -1.21875,-0.25 -1.3125,0 -2.03125,0.95313 -0.70312,0.9375 -0.70312,2.6875 0,0.92187 0.15625,1.57812 0.15625,0.65625 0.46875,1.07813 0.3125,0.42187 0.75,0.625 0.45312,0.1875 1.03125,0.1875 z m 10.59198,4.42187 v -12.65625 h 0.98437 q 0.35938,0 0.45313,0.34375 l 0.14062,1.125 q 0.60938,-0.73437 1.39063,-1.1875 0.78125,-0.45312 1.79687,-0.45312 0.8125,0 1.46875,0.3125 0.65625,0.3125 1.125,0.9375 0.46875,0.60937 0.71875,1.51562 0.25,0.90625 0.25,2.07813 0,1.04687 -0.28125,1.95312 -0.28125,0.89063 -0.79687,1.54688 -0.51563,0.65625 -1.28125,1.03125 -0.76563,0.375 -1.71875,0.375 -0.875,0 -1.5,-0.28125 -0.60938,-0.29688 -1.09375,-0.82813 v 4.1875 z m 4.20312,-11.48437 q -0.8125,0 -1.42187,0.375 -0.60938,0.375 -1.125,1.0625 v 4.5625 q 0.46875,0.625 1.01562,0.875 0.54688,0.25 1.21875,0.25 1.3125,0 2.01563,-0.9375 0.70312,-0.95313 0.70312,-2.6875 0,-0.92188 -0.15625,-1.57813 -0.15625,-0.67187 -0.46875,-1.09375 -0.3125,-0.42187 -0.76562,-0.625 -0.4375,-0.20312 -1.01563,-0.20312 z m 6.09515,8.28125 v -9.45313 h 0.95313 q 0.26562,0 0.375,0.10938 0.10937,0.0937 0.14062,0.34375 l 0.10938,1.48437 q 0.48437,-0.98437 1.1875,-1.54687 0.71875,-0.5625 1.6875,-0.5625 0.39062,0 0.70312,0.0937 0.32813,0.0937 0.59375,0.25 l -0.21875,1.23437 q -0.0625,0.23438 -0.28125,0.23438 -0.14062,0 -0.40625,-0.0781 -0.26562,-0.0937 -0.75,-0.0937 -0.875,0 -1.45312,0.5 -0.57813,0.5 -0.98438,1.46875 v 6.01563 z m 11.34656,-9.59375 q 1.03125,0 1.85938,0.34375 0.84375,0.34375 1.42187,0.98437 0.59375,0.625 0.90625,1.53125 0.3125,0.89063 0.3125,2 0,1.125 -0.3125,2.03125 -0.3125,0.89063 -0.90625,1.53125 -0.57812,0.625 -1.42187,0.96875 -0.82813,0.32813 -1.85938,0.32813 -1.03125,0 -1.875,-0.32813 -0.82812,-0.34375 -1.42187,-0.96875 -0.57813,-0.64062 -0.90625,-1.53125 -0.3125,-0.90625 -0.3125,-2.03125 0,-1.10937 0.3125,-2 0.32812,-0.90625 0.90625,-1.53125 0.59375,-0.64062 1.42187,-0.98437 0.84375,-0.34375 1.875,-0.34375 z m 0,8.42187 q 1.39063,0 2.07813,-0.9375 0.70312,-0.9375 0.70312,-2.60937 0,-1.6875 -0.70312,-2.625 -0.6875,-0.95313 -2.07813,-0.95313 -0.70312,0 -1.23437,0.25 -0.51563,0.23438 -0.875,0.70313 -0.34375,0.45312 -0.51563,1.125 -0.17187,0.65625 -0.17187,1.5 0,0.84375 0.17187,1.5 0.17188,0.65625 0.51563,1.10937 0.35937,0.45313 0.875,0.70313 0.53125,0.23437 1.23437,0.23437 z m 9.7323,-8.4375 q 0.60938,0 1.14063,0.14063 0.54687,0.125 0.98437,0.39062 h 2.5625 v 0.625 q 0,0.29688 -0.39062,0.39063 l -1.07813,0.14062 q 0.32813,0.60938 0.32813,1.35938 0,0.6875 -0.26563,1.25 -0.26562,0.5625 -0.75,0.96875 -0.46875,0.39062 -1.125,0.60937 -0.64062,0.21875 -1.40625,0.21875 -0.67187,0 -1.25,-0.15625 -0.29687,0.1875 -0.45312,0.40625 -0.15625,0.20313 -0.15625,0.40625 0,0.34375 0.26562,0.51563 0.28125,0.17187 0.71875,0.25 0.45313,0.0625 1.01563,0.0937 0.57812,0.0156 1.17187,0.0625 0.59375,0.0312 1.15625,0.14062 0.5625,0.0937 1.01563,0.32813 0.45312,0.23437 0.71875,0.65625 0.26562,0.40625 0.26562,1.0625 0,0.59375 -0.3125,1.15625 -0.29687,0.57812 -0.85937,1.01562 -0.5625,0.45313 -1.39063,0.71875 -0.8125,0.26563 -1.85937,0.26563 -1.03125,0 -1.8125,-0.20313 -0.78125,-0.20312 -1.29688,-0.5625 -0.5,-0.34375 -0.76562,-0.79687 -0.25,-0.4375 -0.25,-0.9375 0,-0.70313 0.4375,-1.1875 0.45312,-0.5 1.21875,-0.78125 -0.40625,-0.1875 -0.64063,-0.5 -0.23437,-0.3125 -0.23437,-0.82813 0,-0.21875 0.0781,-0.4375 0.0781,-0.21875 0.21875,-0.42187 0.15625,-0.21875 0.375,-0.40625 0.23438,-0.20313 0.53125,-0.35938 -0.70312,-0.39062 -1.10937,-1.03125 -0.39063,-0.65625 -0.39063,-1.51562 0,-0.6875 0.26563,-1.25 0.28125,-0.57813 0.75,-0.96875 0.46875,-0.39063 1.125,-0.60938 0.67187,-0.21875 1.45312,-0.21875 z m 2.9375,10.125 q 0,-0.35937 -0.20312,-0.5625 -0.1875,-0.21875 -0.53125,-0.32812 -0.32813,-0.125 -0.76563,-0.17188 -0.4375,-0.0625 -0.92187,-0.0781 -0.48438,-0.0312 -0.98438,-0.0625 -0.5,-0.0312 -0.96875,-0.10938 -0.53125,0.25 -0.85937,0.625 -0.32813,0.35938 -0.32813,0.85938 0,0.3125 0.15625,0.59375 0.17188,0.28125 0.5,0.46875 0.34375,0.20312 0.84375,0.3125 0.51563,0.125 1.20313,0.125 0.67187,0 1.20312,-0.125 0.53125,-0.10938 0.89063,-0.34375 0.375,-0.21875 0.5625,-0.53125 0.20312,-0.29688 0.20312,-0.67188 z m -2.9375,-5.14062 q 0.5,0 0.89063,-0.125 0.39062,-0.14063 0.64062,-0.39063 0.26563,-0.26562 0.39063,-0.60937 0.14062,-0.34375 0.14062,-0.76563 0,-0.875 -0.53125,-1.375 -0.53125,-0.51562 -1.53125,-0.51562 -1,0 -1.53125,0.51562 -0.53125,0.5 -0.53125,1.375 0,0.42188 0.14063,0.76563 0.14062,0.34375 0.39062,0.60937 0.26563,0.25 0.64063,0.39063 0.39062,0.125 0.89062,0.125 z m 6.34583,4.625 v -9.45313 h 0.95312 q 0.26563,0 0.375,0.10938 0.10938,0.0937 0.14063,0.34375 l 0.10937,1.48437 q 0.48438,-0.98437 1.1875,-1.54687 0.71875,-0.5625 1.6875,-0.5625 0.39063,0 0.70313,0.0937 0.32812,0.0937 0.59375,0.25 l -0.21875,1.23437 q -0.0625,0.23438 -0.28125,0.23438 -0.14063,0 -0.40625,-0.0781 -0.26563,-0.0937 -0.75,-0.0937 -0.875,0 -1.45313,0.5 -0.57812,0.5 -0.98437,1.46875 v 6.01563 z m 14.10132,0 h -0.73438 q -0.23437,0 -0.39062,-0.0781 -0.14063,-0.0781 -0.1875,-0.3125 l -0.1875,-0.875 q -0.375,0.32813 -0.73438,0.59375 -0.35937,0.26563 -0.75,0.45313 -0.39062,0.1875 -0.82812,0.28125 -0.4375,0.0937 -0.98438,0.0937 -0.54687,0 -1.03125,-0.15625 -0.48437,-0.15625 -0.84375,-0.46875 -0.34375,-0.3125 -0.5625,-0.78125 -0.20312,-0.46875 -0.20312,-1.10938 0,-0.5625 0.29687,-1.07812 0.3125,-0.51563 1,-0.90625 0.6875,-0.40625 1.79688,-0.65625 1.10937,-0.26563 2.71875,-0.3125 v -0.73438 q 0,-1.09375 -0.46875,-1.65625 -0.46875,-0.57812 -1.40625,-0.57812 -0.59375,0 -1.01563,0.15625 -0.40625,0.15625 -0.71875,0.35937 -0.29687,0.1875 -0.51562,0.34375 -0.21875,0.14063 -0.4375,0.14063 -0.17188,0 -0.29688,-0.0781 -0.125,-0.0937 -0.20312,-0.21875 l -0.29688,-0.53125 q 0.78125,-0.76562 1.6875,-1.14062 0.90625,-0.375 2.01563,-0.375 0.78125,0 1.39062,0.26562 0.625,0.26563 1.04688,0.73438 0.42187,0.46875 0.625,1.125 0.21875,0.65625 0.21875,1.45312 z m -4.29688,-1.01563 q 0.4375,0 0.79688,-0.0781 0.35937,-0.0937 0.67187,-0.25 0.32813,-0.17188 0.625,-0.40625 0.29688,-0.23438 0.57813,-0.53125 V 292.67 q -1.15625,0.0312 -1.95313,0.1875 -0.79687,0.14062 -1.3125,0.375 -0.5,0.23437 -0.73437,0.54687 -0.21875,0.3125 -0.21875,0.70313 0,0.375 0.125,0.65625 0.125,0.26562 0.32812,0.4375 0.20313,0.17187 0.48438,0.25 0.28125,0.0781 0.60937,0.0781 z m 6.81805,1.01563 v -9.45313 h 0.98438 q 0.35937,0 0.45312,0.34375 l 0.125,0.96875 q 0.51563,-0.64062 1.15625,-1.04687 0.65625,-0.40625 1.51563,-0.40625 0.96875,0 1.5625,0.53125 0.59375,0.53125 0.84375,1.4375 0.20312,-0.51563 0.51562,-0.89063 0.32813,-0.375 0.71875,-0.60937 0.40625,-0.25 0.85938,-0.35938 0.45312,-0.10937 0.92187,-0.10937 0.75,0 1.32813,0.23437 0.57812,0.23438 0.98437,0.70313 0.40625,0.45312 0.625,1.125 0.21875,0.65625 0.21875,1.51562 v 6.01563 h -1.65625 v -6.01563 q 0,-1.10937 -0.5,-1.6875 -0.48437,-0.57812 -1.40625,-0.57812 -0.40625,0 -0.78125,0.15625 -0.35937,0.14062 -0.64062,0.42187 -0.28125,0.28125 -0.45313,0.70313 -0.15625,0.42187 -0.15625,0.98437 v 6.01563 h -1.65625 v -6.01563 q 0,-1.14062 -0.46875,-1.70312 -0.45312,-0.5625 -1.32812,-0.5625 -0.60938,0 -1.14063,0.34375 -0.53125,0.32812 -0.96875,0.89062 v 7.04688 z m 20.72309,-7.89063 q -0.10938,0.20313 -0.34375,0.20313 -0.14063,0 -0.3125,-0.0937 -0.17188,-0.10938 -0.4375,-0.23438 -0.25,-0.125 -0.60938,-0.23437 -0.35937,-0.10938 -0.84375,-0.10938 -0.40625,0 -0.75,0.10938 -0.32812,0.10937 -0.57812,0.29687 -0.23438,0.1875 -0.35938,0.4375 -0.125,0.23438 -0.125,0.53125 0,0.35938 0.20313,0.60938 0.21875,0.23437 0.5625,0.42187 0.34375,0.17188 0.78125,0.3125 0.4375,0.125 0.89062,0.28125 0.46875,0.15625 0.90625,0.34375 0.4375,0.1875 0.78125,0.46875 0.35938,0.28125 0.5625,0.6875 0.20313,0.40625 0.20313,0.96875 0,0.65625 -0.23438,1.21875 -0.21875,0.54688 -0.6875,0.95313 -0.45312,0.40625 -1.125,0.64062 -0.65625,0.23438 -1.51562,0.23438 -0.98438,0 -1.79688,-0.32813 -0.79687,-0.32812 -1.35937,-0.82812 l 0.39062,-0.625 q 0.0781,-0.125 0.17188,-0.1875 0.10937,-0.0781 0.28125,-0.0781 0.15625,0 0.34375,0.14063 0.1875,0.125 0.45312,0.28125 0.26563,0.15625 0.64063,0.29687 0.39062,0.125 0.95312,0.125 0.48438,0 0.84375,-0.125 0.375,-0.125 0.60938,-0.32812 0.25,-0.21875 0.35937,-0.5 0.125,-0.28125 0.125,-0.60938 0,-0.39062 -0.21875,-0.64062 -0.20312,-0.25 -0.54687,-0.4375 -0.34375,-0.1875 -0.79688,-0.3125 -0.4375,-0.14063 -0.90625,-0.28125 -0.45312,-0.15625 -0.90625,-0.34375 -0.4375,-0.20313 -0.78125,-0.48438 -0.34375,-0.29687 -0.5625,-0.71875 -0.20312,-0.42187 -0.20312,-1.03125 0,-0.53125 0.21875,-1.03125 0.23437,-0.5 0.65625,-0.875 0.4375,-0.39062 1.0625,-0.60937 0.625,-0.21875 1.42187,-0.21875 0.9375,0 1.67188,0.29687 0.75,0.28125 1.28125,0.79688 z"
       id="path65"
       inkscape:connector-curvature="0"
       style="fill:#000000;fill-rule:nonzero;stroke:none;stroke-linecap:square;stroke-miterlimit:10" />
    <path
       transform="translate(-44.377452,-221.09842)"
       d="M 118.99475,349.56168 H 278.5853 V 395.0105 H 118.99475 Z"
       id="path67"
       inkscape:connector-curvature="0"
       style="fill:#000000;fill-opacity:0;fill-rule:evenodd;stroke:none;stroke-linecap:square;stroke-miterlimit:10" />
    <path
       transform="translate(-44.377452,-221.09842)"
       d="m 137.5217,365.20044 q -0.0781,0.14063 -0.17188,0.21875 -0.0937,0.0625 -0.25,0.0625 -0.15625,0 -0.375,-0.15625 -0.20312,-0.15625 -0.53125,-0.34375 -0.3125,-0.20312 -0.76562,-0.35937 -0.45313,-0.15625 -1.09375,-0.15625 -0.60938,0 -1.07813,0.17187 -0.46875,0.15625 -0.78125,0.4375 -0.3125,0.28125 -0.46875,0.65625 -0.15625,0.375 -0.15625,0.8125 0,0.5625 0.26563,0.9375 0.28125,0.35938 0.73437,0.625 0.45313,0.26563 1.03125,0.45313 0.57813,0.1875 1.17188,0.39062 0.60937,0.20313 1.17187,0.46875 0.57813,0.25 1.03125,0.64063 0.45313,0.39062 0.71875,0.96875 0.28125,0.5625 0.28125,1.39062 0,0.875 -0.29687,1.65625 -0.29688,0.76563 -0.875,1.34375 -0.5625,0.5625 -1.40625,0.89063 -0.82813,0.32812 -1.89063,0.32812 -1.29687,0 -2.375,-0.46875 -1.0625,-0.48437 -1.8125,-1.28125 l 0.51563,-0.85937 q 0.0781,-0.10938 0.1875,-0.17188 0.10937,-0.0781 0.23437,-0.0781 0.1875,0 0.4375,0.21875 0.26563,0.20312 0.64063,0.46875 0.375,0.25 0.90625,0.45312 0.54687,0.20313 1.3125,0.20313 0.64062,0 1.14062,-0.17188 0.51563,-0.17187 0.85938,-0.48437 0.35937,-0.32813 0.54687,-0.78125 0.1875,-0.45313 0.1875,-1 0,-0.60938 -0.28125,-0.98438 -0.28125,-0.39062 -0.73437,-0.65625 -0.4375,-0.26562 -1.01563,-0.4375 -0.5625,-0.1875 -1.17187,-0.375 -0.59375,-0.20312 -1.17188,-0.45312 -0.57812,-0.25 -1.03125,-0.64063 -0.4375,-0.40625 -0.71875,-1 -0.26562,-0.60937 -0.26562,-1.5 0,-0.70312 0.26562,-1.35937 0.28125,-0.67188 0.79688,-1.1875 0.53125,-0.51563 1.29687,-0.8125 0.76563,-0.3125 1.76563,-0.3125 1.125,0 2.04687,0.35937 0.92188,0.34375 1.60938,1.01563 z m 6.60657,1.6875 q 1.03125,0 1.85937,0.34375 0.84375,0.34375 1.42188,0.98438 0.59375,0.625 0.90625,1.53125 0.3125,0.89062 0.3125,2 0,1.125 -0.3125,2.03125 -0.3125,0.89062 -0.90625,1.53125 -0.57813,0.625 -1.42188,0.96875 -0.82812,0.32812 -1.85937,0.32812 -1.03125,0 -1.875,-0.32812 -0.82813,-0.34375 -1.42188,-0.96875 -0.57812,-0.64063 -0.90625,-1.53125 -0.3125,-0.90625 -0.3125,-2.03125 0,-1.10938 0.3125,-2 0.32813,-0.90625 0.90625,-1.53125 0.59375,-0.64063 1.42188,-0.98438 0.84375,-0.34375 1.875,-0.34375 z m 0,8.42188 q 1.39062,0 2.07812,-0.9375 0.70313,-0.9375 0.70313,-2.60938 0,-1.6875 -0.70313,-2.625 -0.6875,-0.95312 -2.07812,-0.95312 -0.70313,0 -1.23438,0.25 -0.51562,0.23437 -0.875,0.70312 -0.34375,0.45313 -0.51562,1.125 -0.17188,0.65625 -0.17188,1.5 0,0.84375 0.17188,1.5 0.17187,0.65625 0.51562,1.10938 0.35938,0.45312 0.875,0.70312 0.53125,0.23438 1.23438,0.23438 z m 7.98225,-8.28125 v 6.03125 q 0,1.07812 0.48438,1.67187 0.5,0.57813 1.5,0.57813 0.73437,0 1.375,-0.34375 0.64062,-0.34375 1.1875,-0.96875 v -6.96875 h 1.65625 v 9.45312 h -0.98438 q -0.35937,0 -0.45312,-0.34375 l -0.125,-1.01562 q -0.625,0.67187 -1.39063,1.09375 -0.76562,0.42187 -1.75,0.42187 -0.76562,0 -1.35937,-0.25 -0.59375,-0.26562 -1,-0.73437 -0.39063,-0.46875 -0.59375,-1.125 -0.20313,-0.67188 -0.20313,-1.46875 v -6.03125 z m 8.93538,9.45312 v -9.45312 h 0.95313 q 0.26562,0 0.375,0.10937 0.10937,0.0937 0.14062,0.34375 l 0.10938,1.48438 q 0.48437,-0.98438 1.1875,-1.54688 0.71875,-0.5625 1.6875,-0.5625 0.39062,0 0.70312,0.0937 0.32813,0.0937 0.59375,0.25 l -0.21875,1.23438 q -0.0625,0.23437 -0.28125,0.23437 -0.14062,0 -0.40625,-0.0781 -0.26562,-0.0937 -0.75,-0.0937 -0.875,0 -1.45312,0.5 -0.57813,0.5 -0.98438,1.46875 v 6.01562 z m 13.97159,-7.76562 q -0.0781,0.0937 -0.15625,0.15625 -0.0781,0.0469 -0.21875,0.0469 -0.14063,0 -0.29688,-0.10937 -0.15625,-0.10938 -0.42187,-0.25 -0.25,-0.14063 -0.60938,-0.25 -0.35937,-0.125 -0.875,-0.125 -0.6875,0 -1.21875,0.25 -0.53125,0.23437 -0.89062,0.70312 -0.35938,0.46875 -0.54688,1.14063 -0.1875,0.65625 -0.1875,1.46875 0,0.85937 0.20313,1.53125 0.20312,0.67187 0.54687,1.125 0.35938,0.45312 0.85938,0.6875 0.51562,0.23437 1.15625,0.23437 0.59375,0 0.98437,-0.14062 0.39063,-0.15625 0.65625,-0.32813 0.26563,-0.17187 0.42188,-0.3125 0.17187,-0.15625 0.34375,-0.15625 0.21875,0 0.3125,0.15625 l 0.46875,0.60938 q -0.60938,0.76562 -1.53125,1.10937 -0.92188,0.34375 -1.95313,0.34375 -0.89062,0 -1.65625,-0.3125 -0.75,-0.32812 -1.3125,-0.95312 -0.5625,-0.625 -0.89062,-1.53125 -0.3125,-0.90625 -0.3125,-2.0625 0,-1.04688 0.29687,-1.9375 0.29688,-0.90625 0.85938,-1.54688 0.5625,-0.65625 1.39062,-1.01562 0.82813,-0.35938 1.90625,-0.35938 0.98438,0 1.75,0.32813 0.76563,0.3125 1.35938,0.89062 z m 6.00934,-1.82813 q 0.84375,0 1.5625,0.28125 0.71875,0.28125 1.23437,0.82813 0.53125,0.53125 0.8125,1.32812 0.29688,0.78125 0.29688,1.78125 0,0.39063 -0.0781,0.53125 -0.0781,0.125 -0.3125,0.125 h -6.29687 q 0.0156,0.89063 0.23437,1.5625 0.23438,0.65625 0.625,1.10938 0.39063,0.4375 0.9375,0.65625 0.54688,0.21875 1.20313,0.21875 0.625,0 1.07812,-0.14063 0.45313,-0.15625 0.78125,-0.3125 0.32813,-0.17187 0.54688,-0.3125 0.21875,-0.15625 0.375,-0.15625 0.21875,0 0.32812,0.15625 l 0.46875,0.60938 q -0.3125,0.375 -0.75,0.65625 -0.42187,0.26562 -0.92187,0.45312 -0.48438,0.17188 -1.01563,0.25 -0.51562,0.0937 -1.01562,0.0937 -0.98438,0 -1.8125,-0.32812 -0.82813,-0.32813 -1.4375,-0.96875 -0.59375,-0.64063 -0.9375,-1.57813 -0.32813,-0.9375 -0.32813,-2.17187 0,-0.98438 0.29688,-1.84375 0.3125,-0.85938 0.875,-1.48438 0.57812,-0.625 1.39062,-0.98437 0.82813,-0.35938 1.85938,-0.35938 z m 0.0312,1.21875 q -1.20313,0 -1.89063,0.70313 -0.6875,0.6875 -0.85937,1.92187 h 5.14062 q 0,-0.57812 -0.17187,-1.0625 -0.15625,-0.48437 -0.46875,-0.82812 -0.29688,-0.35938 -0.75,-0.54688 -0.4375,-0.1875 -1,-0.1875 z m 21.43904,1.70313 q 0,1.5 -0.48438,2.73437 -0.46875,1.21875 -1.34375,2.10938 -0.85937,0.875 -2.07812,1.35937 -1.20313,0.46875 -2.67188,0.46875 h -5 v -13.375 h 5 q 1.46875,0 2.67188,0.48438 1.21875,0.48437 2.07812,1.375 0.875,0.875 1.34375,2.10937 0.48438,1.21875 0.48438,2.73438 z m -1.84375,0 q 0,-1.23438 -0.34375,-2.20313 -0.32813,-0.96875 -0.95313,-1.64062 -0.60937,-0.67188 -1.48437,-1.03125 -0.875,-0.35938 -1.95313,-0.35938 h -3.1875 v 10.4375 h 3.1875 q 1.07813,0 1.95313,-0.34375 0.875,-0.35937 1.48437,-1.01562 0.625,-0.67188 0.95313,-1.64063 0.34375,-0.98437 0.34375,-2.20312 z m 5.8919,-2.78125 v 9.45312 h -1.65625 v -9.45312 z m 0.375,-2.96875 q 0,0.25 -0.0937,0.46875 -0.0937,0.20312 -0.26562,0.375 -0.15625,0.15625 -0.375,0.25 -0.21875,0.0937 -0.45313,0.0937 -0.25,0 -0.46875,-0.0937 -0.20312,-0.0937 -0.35937,-0.25 -0.15625,-0.17188 -0.25,-0.375 -0.0937,-0.21875 -0.0937,-0.46875 0,-0.23438 0.0937,-0.45313 0.0937,-0.21875 0.25,-0.375 0.15625,-0.17187 0.35937,-0.26562 0.21875,-0.0937 0.46875,-0.0937 0.23438,0 0.45313,0.0937 0.21875,0.0937 0.375,0.26562 0.17187,0.15625 0.26562,0.375 0.0937,0.21875 0.0937,0.45313 z m 2.55726,12.42187 v -9.45312 h 0.95312 q 0.26563,0 0.375,0.10937 0.10938,0.0937 0.14063,0.34375 l 0.10937,1.48438 q 0.48438,-0.98438 1.1875,-1.54688 0.71875,-0.5625 1.6875,-0.5625 0.39063,0 0.70313,0.0937 0.32812,0.0937 0.59375,0.25 l -0.21875,1.23438 q -0.0625,0.23437 -0.28125,0.23437 -0.14063,0 -0.40625,-0.0781 -0.26563,-0.0937 -0.75,-0.0937 -0.875,0 -1.45313,0.5 -0.57812,0.5 -0.98437,1.46875 v 6.01562 z m 11.26846,-9.59375 q 0.84375,0 1.5625,0.28125 0.71875,0.28125 1.23437,0.82813 0.53125,0.53125 0.8125,1.32812 0.29688,0.78125 0.29688,1.78125 0,0.39063 -0.0781,0.53125 -0.0781,0.125 -0.3125,0.125 h -6.29687 q 0.0156,0.89063 0.23437,1.5625 0.23438,0.65625 0.625,1.10938 0.39063,0.4375 0.9375,0.65625 0.54688,0.21875 1.20313,0.21875 0.625,0 1.07812,-0.14063 0.45313,-0.15625 0.78125,-0.3125 0.32813,-0.17187 0.54688,-0.3125 0.21875,-0.15625 0.375,-0.15625 0.21875,0 0.32812,0.15625 l 0.46875,0.60938 q -0.3125,0.375 -0.75,0.65625 -0.42187,0.26562 -0.92187,0.45312 -0.48438,0.17188 -1.01563,0.25 -0.51562,0.0937 -1.01562,0.0937 -0.98438,0 -1.8125,-0.32812 -0.82813,-0.32813 -1.4375,-0.96875 -0.59375,-0.64063 -0.9375,-1.57813 -0.32813,-0.9375 -0.32813,-2.17187 0,-0.98438 0.29688,-1.84375 0.3125,-0.85938 0.875,-1.48438 0.57812,-0.625 1.39062,-0.98437 0.82813,-0.35938 1.85938,-0.35938 z m 0.0312,1.21875 q -1.20313,0 -1.89063,0.70313 -0.6875,0.6875 -0.85937,1.92187 h 5.14062 q 0,-0.57812 -0.17187,-1.0625 -0.15625,-0.48437 -0.46875,-0.82812 -0.29688,-0.35938 -0.75,-0.54688 -0.4375,-0.1875 -1,-0.1875 z m 12.44775,0.60938 q -0.0781,0.0937 -0.15625,0.15625 -0.0781,0.0469 -0.21875,0.0469 -0.14062,0 -0.29687,-0.10937 -0.15625,-0.10938 -0.42188,-0.25 -0.25,-0.14063 -0.60937,-0.25 -0.35938,-0.125 -0.875,-0.125 -0.6875,0 -1.21875,0.25 -0.53125,0.23437 -0.89063,0.70312 -0.35937,0.46875 -0.54687,1.14063 -0.1875,0.65625 -0.1875,1.46875 0,0.85937 0.20312,1.53125 0.20313,0.67187 0.54688,1.125 0.35937,0.45312 0.85937,0.6875 0.51563,0.23437 1.15625,0.23437 0.59375,0 0.98438,-0.14062 0.39062,-0.15625 0.65625,-0.32813 0.26562,-0.17187 0.42187,-0.3125 0.17188,-0.15625 0.34375,-0.15625 0.21875,0 0.3125,0.15625 l 0.46875,0.60938 q -0.60937,0.76562 -1.53125,1.10937 -0.92187,0.34375 -1.95312,0.34375 -0.89063,0 -1.65625,-0.3125 -0.75,-0.32812 -1.3125,-0.95312 -0.5625,-0.625 -0.89063,-1.53125 -0.3125,-0.90625 -0.3125,-2.0625 0,-1.04688 0.29688,-1.9375 0.29687,-0.90625 0.85937,-1.54688 0.5625,-0.65625 1.39063,-1.01562 0.82812,-0.35938 1.90625,-0.35938 0.98437,0 1.75,0.32813 0.76562,0.3125 1.35937,0.89062 z m 5.11872,7.92187 q -1.10938,0 -1.71875,-0.625 -0.59375,-0.625 -0.59375,-1.8125 v -5.78125 h -1.14063 q -0.15625,0 -0.26562,-0.0781 -0.0937,-0.0937 -0.0937,-0.28125 v -0.65625 l 1.54687,-0.20313 0.39063,-2.92187 q 0.0156,-0.14063 0.10937,-0.21875 0.10938,-0.0937 0.26563,-0.0937 h 0.84375 v 3.25 h 2.70312 v 1.20312 h -2.70312 v 5.67188 q 0,0.59375 0.28125,0.89062 0.29687,0.28125 0.75,0.28125 0.26562,0 0.45312,-0.0625 0.20313,-0.0781 0.32813,-0.15625 0.14062,-0.0781 0.23437,-0.14062 0.10938,-0.0781 0.1875,-0.0781 0.125,0 0.23438,0.15625 l 0.48437,0.79688 q -0.4375,0.39062 -1.04687,0.625 -0.59375,0.23437 -1.25,0.23437 z m 7.92753,-9.75 q 1.03125,0 1.85938,0.34375 0.84375,0.34375 1.42187,0.98438 0.59375,0.625 0.90625,1.53125 0.3125,0.89062 0.3125,2 0,1.125 -0.3125,2.03125 -0.3125,0.89062 -0.90625,1.53125 -0.57812,0.625 -1.42187,0.96875 -0.82813,0.32812 -1.85938,0.32812 -1.03125,0 -1.875,-0.32812 -0.82812,-0.34375 -1.42187,-0.96875 -0.57813,-0.64063 -0.90625,-1.53125 -0.3125,-0.90625 -0.3125,-2.03125 0,-1.10938 0.3125,-2 0.32812,-0.90625 0.90625,-1.53125 0.59375,-0.64063 1.42187,-0.98438 0.84375,-0.34375 1.875,-0.34375 z m 0,8.42188 q 1.39063,0 2.07813,-0.9375 0.70312,-0.9375 0.70312,-2.60938 0,-1.6875 -0.70312,-2.625 -0.6875,-0.95312 -2.07813,-0.95312 -0.70312,0 -1.23437,0.25 -0.51563,0.23437 -0.875,0.70312 -0.34375,0.45313 -0.51563,1.125 -0.17187,0.65625 -0.17187,1.5 0,0.84375 0.17187,1.5 0.17188,0.65625 0.51563,1.10938 0.35937,0.45312 0.875,0.70312 0.53125,0.23438 1.23437,0.23438 z m 6.54477,1.17187 v -9.45312 h 0.95313 q 0.26562,0 0.375,0.10937 0.10937,0.0937 0.14062,0.34375 l 0.10938,1.48438 q 0.48437,-0.98438 1.1875,-1.54688 0.71875,-0.5625 1.6875,-0.5625 0.39062,0 0.70312,0.0937 0.32813,0.0937 0.59375,0.25 l -0.21875,1.23438 q -0.0625,0.23437 -0.28125,0.23437 -0.14062,0 -0.40625,-0.0781 -0.26562,-0.0937 -0.75,-0.0937 -0.875,0 -1.45312,0.5 -0.57813,0.5 -0.98438,1.46875 v 6.01562 z M 263.1,379.27857 q -0.0781,0.17187 -0.20313,0.28125 -0.125,0.125 -0.39062,0.125 h -1.23438 l 1.73438,-3.75 -3.90625,-8.90625 h 1.4375 q 0.21875,0 0.34375,0.10937 0.125,0.10938 0.17187,0.23438 l 2.53125,5.95312 q 0.0781,0.20313 0.14063,0.42188 0.0625,0.20312 0.10937,0.40625 0.0625,-0.20313 0.125,-0.40625 0.0781,-0.21875 0.15625,-0.42188 l 2.45313,-5.95312 q 0.0625,-0.14063 0.1875,-0.23438 0.14062,-0.10937 0.29687,-0.10937 h 1.32813 z"
       id="path69"
       inkscape:connector-curvature="0"
       style="fill:#0000ff;fill-rule:nonzero;stroke:none;stroke-linecap:square;stroke-miterlimit:10" />
    <path
       transform="translate(-44.377452,-221.09842)"
       d="M 415.4147,349.56168 H 575.00525 V 395.0105 H 415.4147 Z"
       id="path71"
       inkscape:connector-curvature="0"
       style="fill:#000000;fill-opacity:0;fill-rule:evenodd;stroke:none;stroke-linecap:square;stroke-miterlimit:10" />
    <path
       transform="translate(-44.377452,-221.09842)"
       d="m 434.20593,376.4817 v -13.375 h 4.26563 q 1.23437,0 2.125,0.25 0.89062,0.25 1.45312,0.70312 0.57813,0.4375 0.84375,1.09375 0.28125,0.64063 0.28125,1.45313 0,0.48437 -0.15625,0.95312 -0.15625,0.45313 -0.46875,0.84375 -0.3125,0.39063 -0.78125,0.70313 -0.46875,0.29687 -1.09375,0.5 1.45313,0.29687 2.20313,1.0625 0.75,0.75 0.75,2 0,0.85937 -0.3125,1.5625 -0.3125,0.6875 -0.92188,1.20312 -0.59375,0.5 -1.46875,0.78125 -0.875,0.26563 -1.98437,0.26563 z m 1.8125,-6.09375 v 4.65625 h 2.89063 q 0.76562,0 1.3125,-0.17188 0.5625,-0.1875 0.92187,-0.5 0.35938,-0.32812 0.53125,-0.76562 0.17188,-0.45313 0.17188,-0.98438 0,-1.03125 -0.73438,-1.625 -0.73437,-0.60937 -2.21875,-0.60937 z m 0,-1.28125 h 2.39063 q 0.75,0 1.3125,-0.17188 0.5625,-0.17187 0.92187,-0.46875 0.375,-0.29687 0.54688,-0.71875 0.1875,-0.42187 0.1875,-0.92187 0,-1.1875 -0.71875,-1.73438 -0.70313,-0.54687 -2.1875,-0.54687 h -2.45313 z m 11.42996,-2.07813 v 6.03125 q 0,1.07813 0.48438,1.67188 0.5,0.57812 1.5,0.57812 0.73437,0 1.375,-0.34375 0.64062,-0.34375 1.1875,-0.96875 v -6.96875 h 1.65625 v 9.45313 h -0.98438 q -0.35937,0 -0.45312,-0.34375 l -0.125,-1.01563 q -0.625,0.67188 -1.39063,1.09375 -0.76562,0.42188 -1.75,0.42188 -0.76562,0 -1.35937,-0.25 -0.59375,-0.26563 -1,-0.73438 -0.39063,-0.46875 -0.59375,-1.125 -0.20313,-0.67187 -0.20313,-1.46875 v -6.03125 z m 10.77915,0 v 9.45313 h -1.65625 v -9.45313 z m 0.375,-2.96875 q 0,0.25 -0.0937,0.46875 -0.0937,0.20313 -0.26563,0.375 -0.15625,0.15625 -0.375,0.25 -0.21875,0.0937 -0.45312,0.0937 -0.25,0 -0.46875,-0.0937 -0.20313,-0.0937 -0.35938,-0.25 -0.15625,-0.17187 -0.25,-0.375 -0.0937,-0.21875 -0.0937,-0.46875 0,-0.23437 0.0937,-0.45312 0.0937,-0.21875 0.25,-0.375 0.15625,-0.17188 0.35938,-0.26563 0.21875,-0.0937 0.46875,-0.0937 0.23437,0 0.45312,0.0937 0.21875,0.0937 0.375,0.26563 0.17188,0.15625 0.26563,0.375 0.0937,0.21875 0.0937,0.45312 z m 4.401,-1.3125 v 13.73438 h -1.65625 v -13.73438 z m 9.5885,13.73438 q -0.35938,0 -0.45313,-0.34375 l -0.14062,-1.15625 q -0.60938,0.75 -1.39063,1.1875 -0.78125,0.4375 -1.78125,0.4375 -0.8125,0 -1.48437,-0.3125 -0.65625,-0.3125 -1.125,-0.90625 -0.46875,-0.60938 -0.71875,-1.51563 -0.25,-0.90625 -0.25,-2.07812 0,-1.04688 0.28125,-1.9375 0.28125,-0.90625 0.79687,-1.5625 0.53125,-0.67188 1.28125,-1.04688 0.76563,-0.39062 1.71875,-0.39062 0.875,0 1.48438,0.29687 0.625,0.29688 1.10937,0.82813 v -5.23438 h 1.65625 v 13.73438 z m -3.21875,-1.21875 q 0.8125,0 1.42187,-0.35938 0.60938,-0.375 1.125,-1.0625 v -4.5625 q -0.45312,-0.625 -1,-0.875 -0.54687,-0.25 -1.21875,-0.25 -1.3125,0 -2.03125,0.95313 -0.70312,0.9375 -0.70312,2.6875 0,0.92187 0.15625,1.57812 0.15625,0.65625 0.46875,1.07813 0.3125,0.42187 0.75,0.625 0.45312,0.1875 1.03125,0.1875 z m 22.43576,-5.45313 q 0,1.5 -0.48438,2.73438 -0.46875,1.21875 -1.34375,2.10937 -0.85937,0.875 -2.07812,1.35938 -1.20313,0.46875 -2.67188,0.46875 h -5 v -13.375 h 5 q 1.46875,0 2.67188,0.48437 1.21875,0.48438 2.07812,1.375 0.875,0.875 1.34375,2.10938 0.48438,1.21875 0.48438,2.73437 z m -1.84375,0 q 0,-1.23437 -0.34375,-2.20312 -0.32813,-0.96875 -0.95313,-1.64063 -0.60937,-0.67187 -1.48437,-1.03125 -0.875,-0.35937 -1.95313,-0.35937 h -3.1875 v 10.4375 h 3.1875 q 1.07813,0 1.95313,-0.34375 0.875,-0.35938 1.48437,-1.01563 0.625,-0.67187 0.95313,-1.64062 0.34375,-0.98438 0.34375,-2.20313 z m 5.8919,-2.78125 v 9.45313 h -1.65625 v -9.45313 z m 0.375,-2.96875 q 0,0.25 -0.0937,0.46875 -0.0937,0.20313 -0.26562,0.375 -0.15625,0.15625 -0.375,0.25 -0.21875,0.0937 -0.45313,0.0937 -0.25,0 -0.46875,-0.0937 -0.20312,-0.0937 -0.35937,-0.25 -0.15625,-0.17187 -0.25,-0.375 -0.0937,-0.21875 -0.0937,-0.46875 0,-0.23437 0.0937,-0.45312 0.0937,-0.21875 0.25,-0.375 0.15625,-0.17188 0.35937,-0.26563 0.21875,-0.0937 0.46875,-0.0937 0.23438,0 0.45313,0.0937 0.21875,0.0937 0.375,0.26563 0.17187,0.15625 0.26562,0.375 0.0937,0.21875 0.0937,0.45312 z m 2.55726,12.42188 v -9.45313 h 0.95312 q 0.26563,0 0.375,0.10938 0.10938,0.0937 0.14063,0.34375 l 0.10937,1.48437 q 0.48438,-0.98437 1.1875,-1.54687 0.71875,-0.5625 1.6875,-0.5625 0.39063,0 0.70313,0.0937 0.32812,0.0937 0.59375,0.25 l -0.21875,1.23437 q -0.0625,0.23438 -0.28125,0.23438 -0.14063,0 -0.40625,-0.0781 -0.26563,-0.0937 -0.75,-0.0937 -0.875,0 -1.45313,0.5 -0.57812,0.5 -0.98437,1.46875 v 6.01563 z m 11.26846,-9.59375 q 0.84375,0 1.5625,0.28125 0.71875,0.28125 1.23437,0.82812 0.53125,0.53125 0.8125,1.32813 0.29688,0.78125 0.29688,1.78125 0,0.39062 -0.0781,0.53125 -0.0781,0.125 -0.3125,0.125 h -6.29687 q 0.0156,0.89062 0.23437,1.5625 0.23438,0.65625 0.625,1.10937 0.39063,0.4375 0.9375,0.65625 0.54688,0.21875 1.20313,0.21875 0.625,0 1.07812,-0.14062 0.45313,-0.15625 0.78125,-0.3125 0.32813,-0.17188 0.54688,-0.3125 0.21875,-0.15625 0.375,-0.15625 0.21875,0 0.32812,0.15625 l 0.46875,0.60937 q -0.3125,0.375 -0.75,0.65625 -0.42187,0.26563 -0.92187,0.45313 -0.48438,0.17187 -1.01563,0.25 -0.51562,0.0937 -1.01562,0.0937 -0.98438,0 -1.8125,-0.32813 -0.82813,-0.32812 -1.4375,-0.96875 -0.59375,-0.64062 -0.9375,-1.57812 -0.32813,-0.9375 -0.32813,-2.17188 0,-0.98437 0.29688,-1.84375 0.3125,-0.85937 0.875,-1.48437 0.57812,-0.625 1.39062,-0.98438 0.82813,-0.35937 1.85938,-0.35937 z m 0.0312,1.21875 q -1.20313,0 -1.89063,0.70312 -0.6875,0.6875 -0.85937,1.92188 h 5.14062 q 0,-0.57813 -0.17187,-1.0625 -0.15625,-0.48438 -0.46875,-0.82813 -0.29688,-0.35937 -0.75,-0.54687 -0.4375,-0.1875 -1,-0.1875 z m 12.44775,0.60937 q -0.0781,0.0937 -0.15625,0.15625 -0.0781,0.0469 -0.21875,0.0469 -0.14062,0 -0.29687,-0.10938 -0.15625,-0.10937 -0.42188,-0.25 -0.25,-0.14062 -0.60937,-0.25 -0.35938,-0.125 -0.875,-0.125 -0.6875,0 -1.21875,0.25 -0.53125,0.23438 -0.89063,0.70313 -0.35937,0.46875 -0.54687,1.14062 -0.1875,0.65625 -0.1875,1.46875 0,0.85938 0.20312,1.53125 0.20313,0.67188 0.54688,1.125 0.35937,0.45313 0.85937,0.6875 0.51563,0.23438 1.15625,0.23438 0.59375,0 0.98438,-0.14063 0.39062,-0.15625 0.65625,-0.32812 0.26562,-0.17188 0.42187,-0.3125 0.17188,-0.15625 0.34375,-0.15625 0.21875,0 0.3125,0.15625 l 0.46875,0.60937 q -0.60937,0.76563 -1.53125,1.10938 -0.92187,0.34375 -1.95312,0.34375 -0.89063,0 -1.65625,-0.3125 -0.75,-0.32813 -1.3125,-0.95313 -0.5625,-0.625 -0.89063,-1.53125 -0.3125,-0.90625 -0.3125,-2.0625 0,-1.04687 0.29688,-1.9375 0.29687,-0.90625 0.85937,-1.54687 0.5625,-0.65625 1.39063,-1.01563 0.82812,-0.35937 1.90625,-0.35937 0.98437,0 1.75,0.32812 0.76562,0.3125 1.35937,0.89063 z m 5.11872,7.92188 q -1.10938,0 -1.71875,-0.625 -0.59375,-0.625 -0.59375,-1.8125 v -5.78125 h -1.14063 q -0.15625,0 -0.26562,-0.0781 -0.0937,-0.0937 -0.0937,-0.28125 v -0.65625 l 1.54687,-0.20312 0.39063,-2.92188 q 0.0156,-0.14062 0.10937,-0.21875 0.10938,-0.0937 0.26563,-0.0937 h 0.84375 v 3.25 h 2.70312 v 1.20313 h -2.70312 v 5.67187 q 0,0.59375 0.28125,0.89063 0.29687,0.28125 0.75,0.28125 0.26562,0 0.45312,-0.0625 0.20313,-0.0781 0.32813,-0.15625 0.14062,-0.0781 0.23437,-0.14063 0.10938,-0.0781 0.1875,-0.0781 0.125,0 0.23438,0.15625 l 0.48437,0.79687 q -0.4375,0.39063 -1.04687,0.625 -0.59375,0.23438 -1.25,0.23438 z m 7.92755,-9.75 q 1.03125,0 1.85937,0.34375 0.84375,0.34375 1.42188,0.98437 0.59375,0.625 0.90625,1.53125 0.3125,0.89063 0.3125,2 0,1.125 -0.3125,2.03125 -0.3125,0.89063 -0.90625,1.53125 -0.57813,0.625 -1.42188,0.96875 -0.82812,0.32813 -1.85937,0.32813 -1.03125,0 -1.875,-0.32813 -0.82813,-0.34375 -1.42188,-0.96875 -0.57812,-0.64062 -0.90625,-1.53125 -0.3125,-0.90625 -0.3125,-2.03125 0,-1.10937 0.3125,-2 0.32813,-0.90625 0.90625,-1.53125 0.59375,-0.64062 1.42188,-0.98437 0.84375,-0.34375 1.875,-0.34375 z m 0,8.42187 q 1.39062,0 2.07812,-0.9375 0.70313,-0.9375 0.70313,-2.60937 0,-1.6875 -0.70313,-2.625 -0.6875,-0.95313 -2.07812,-0.95313 -0.70313,0 -1.23438,0.25 -0.51562,0.23438 -0.875,0.70313 -0.34375,0.45312 -0.51562,1.125 -0.17188,0.65625 -0.17188,1.5 0,0.84375 0.17188,1.5 0.17187,0.65625 0.51562,1.10937 0.35938,0.45313 0.875,0.70313 0.53125,0.23437 1.23438,0.23437 z m 6.54474,1.17188 v -9.45313 h 0.95312 q 0.26563,0 0.375,0.10938 0.10938,0.0937 0.14063,0.34375 l 0.10937,1.48437 q 0.48438,-0.98437 1.1875,-1.54687 0.71875,-0.5625 1.6875,-0.5625 0.39063,0 0.70313,0.0937 0.32812,0.0937 0.59375,0.25 l -0.21875,1.23437 q -0.0625,0.23438 -0.28125,0.23438 -0.14063,0 -0.40625,-0.0781 -0.26563,-0.0937 -0.75,-0.0937 -0.875,0 -1.45313,0.5 -0.57812,0.5 -0.98437,1.46875 v 6.01563 z m 10.28405,2.79687 q -0.0781,0.17188 -0.20312,0.28125 -0.125,0.125 -0.39063,0.125 h -1.23437 l 1.73437,-3.75 -3.90625,-8.90625 h 1.4375 q 0.21875,0 0.34375,0.10938 0.125,0.10937 0.17188,0.23437 l 2.53125,5.95313 q 0.0781,0.20312 0.14062,0.42187 0.0625,0.20313 0.10938,0.40625 0.0625,-0.20312 0.125,-0.40625 0.0781,-0.21875 0.15625,-0.42187 l 2.45312,-5.95313 q 0.0625,-0.14062 0.1875,-0.23437 0.14063,-0.10938 0.29688,-0.10938 h 1.32812 z"
       id="path73"
       inkscape:connector-curvature="0"
       style="fill:#0000ff;fill-rule:nonzero;stroke:none;stroke-linecap:square;stroke-miterlimit:10" />
    <path
       transform="translate(-44.377452,-221.09842)"
       d="M 711.83466,349.56168 H 871.42518 V 395.0105 H 711.83466 Z"
       id="path75"
       inkscape:connector-curvature="0"
       style="fill:#000000;fill-opacity:0;fill-rule:evenodd;stroke:none;stroke-linecap:square;stroke-miterlimit:10" />
    <path
       transform="translate(-44.377452,-221.09842)"
       d="m 728.8953,376.4817 h -1.8125 v -13.375 h 1.8125 z m 3.32123,0 v -9.45313 h 0.98437 q 0.35938,0 0.45313,0.34375 l 0.125,1.03125 q 0.625,-0.6875 1.375,-1.09375 0.76562,-0.42187 1.76562,-0.42187 0.78125,0 1.35938,0.26562 0.59375,0.25 0.98437,0.71875 0.40625,0.46875 0.60938,1.14063 0.20312,0.65625 0.20312,1.45312 v 6.01563 h -1.65625 v -6.01563 q 0,-1.07812 -0.5,-1.67187 -0.48437,-0.59375 -1.48437,-0.59375 -0.73438,0 -1.375,0.35937 -0.64063,0.35938 -1.1875,0.96875 v 6.95313 z m 15.77911,-7.89063 q -0.10937,0.20313 -0.34375,0.20313 -0.14062,0 -0.3125,-0.0937 -0.17187,-0.10938 -0.4375,-0.23438 -0.25,-0.125 -0.60937,-0.23437 -0.35938,-0.10938 -0.84375,-0.10938 -0.40625,0 -0.75,0.10938 -0.32813,0.10937 -0.57813,0.29687 -0.23437,0.1875 -0.35937,0.4375 -0.125,0.23438 -0.125,0.53125 0,0.35938 0.20312,0.60938 0.21875,0.23437 0.5625,0.42187 0.34375,0.17188 0.78125,0.3125 0.4375,0.125 0.89063,0.28125 0.46875,0.15625 0.90625,0.34375 0.4375,0.1875 0.78125,0.46875 0.35937,0.28125 0.5625,0.6875 0.20312,0.40625 0.20312,0.96875 0,0.65625 -0.23437,1.21875 -0.21875,0.54688 -0.6875,0.95313 -0.45313,0.40625 -1.125,0.64062 -0.65625,0.23438 -1.51563,0.23438 -0.98437,0 -1.79687,-0.32813 -0.79688,-0.32812 -1.35938,-0.82812 l 0.39063,-0.625 q 0.0781,-0.125 0.17187,-0.1875 0.10938,-0.0781 0.28125,-0.0781 0.15625,0 0.34375,0.14063 0.1875,0.125 0.45313,0.28125 0.26562,0.15625 0.64062,0.29687 0.39063,0.125 0.95313,0.125 0.48437,0 0.84375,-0.125 0.375,-0.125 0.60937,-0.32812 0.25,-0.21875 0.35938,-0.5 0.125,-0.28125 0.125,-0.60938 0,-0.39062 -0.21875,-0.64062 -0.20313,-0.25 -0.54688,-0.4375 -0.34375,-0.1875 -0.79687,-0.3125 -0.4375,-0.14063 -0.90625,-0.28125 -0.45313,-0.15625 -0.90625,-0.34375 -0.4375,-0.20313 -0.78125,-0.48438 -0.34375,-0.29687 -0.5625,-0.71875 -0.20313,-0.42187 -0.20313,-1.03125 0,-0.53125 0.21875,-1.03125 0.23438,-0.5 0.65625,-0.875 0.4375,-0.39062 1.0625,-0.60937 0.625,-0.21875 1.42188,-0.21875 0.9375,0 1.67187,0.29687 0.75,0.28125 1.28125,0.79688 z m 5.54993,8.04688 q -1.10938,0 -1.71875,-0.625 -0.59375,-0.625 -0.59375,-1.8125 v -5.78125 h -1.14063 q -0.15625,0 -0.26562,-0.0781 -0.0937,-0.0937 -0.0937,-0.28125 v -0.65625 l 1.54687,-0.20312 0.39063,-2.92188 q 0.0156,-0.14062 0.10937,-0.21875 0.10938,-0.0937 0.26563,-0.0937 h 0.84375 v 3.25 h 2.70312 v 1.20313 h -2.70312 v 5.67187 q 0,0.59375 0.28125,0.89063 0.29687,0.28125 0.75,0.28125 0.26562,0 0.45312,-0.0625 0.20313,-0.0781 0.32813,-0.15625 0.14062,-0.0781 0.23437,-0.14063 0.10938,-0.0781 0.1875,-0.0781 0.125,0 0.23438,0.15625 l 0.48437,0.79687 q -0.4375,0.39063 -1.04687,0.625 -0.59375,0.23438 -1.25,0.23438 z m 11.03692,-0.15625 h -0.73437 q -0.23438,0 -0.39063,-0.0781 -0.14062,-0.0781 -0.1875,-0.3125 l -0.1875,-0.875 q -0.375,0.32813 -0.73437,0.59375 -0.35938,0.26563 -0.75,0.45313 -0.39063,0.1875 -0.82813,0.28125 -0.4375,0.0937 -0.98437,0.0937 -0.54688,0 -1.03125,-0.15625 -0.48438,-0.15625 -0.84375,-0.46875 -0.34375,-0.3125 -0.5625,-0.78125 -0.20313,-0.46875 -0.20313,-1.10938 0,-0.5625 0.29688,-1.07812 0.3125,-0.51563 1,-0.90625 0.6875,-0.40625 1.79687,-0.65625 1.10938,-0.26563 2.71875,-0.3125 v -0.73438 q 0,-1.09375 -0.46875,-1.65625 -0.46875,-0.57812 -1.40625,-0.57812 -0.59375,0 -1.01562,0.15625 -0.40625,0.15625 -0.71875,0.35937 -0.29688,0.1875 -0.51563,0.34375 -0.21875,0.14063 -0.4375,0.14063 -0.17187,0 -0.29687,-0.0781 -0.125,-0.0937 -0.20313,-0.21875 l -0.29687,-0.53125 q 0.78125,-0.76562 1.6875,-1.14062 0.90625,-0.375 2.01562,-0.375 0.78125,0 1.39063,0.26562 0.625,0.26563 1.04687,0.73438 0.42188,0.46875 0.625,1.125 0.21875,0.65625 0.21875,1.45312 z m -4.29687,-1.01563 q 0.4375,0 0.79687,-0.0781 0.35938,-0.0937 0.67188,-0.25 0.32812,-0.17188 0.625,-0.40625 0.29687,-0.23438 0.57812,-0.53125 v -1.96875 q -1.15625,0.0312 -1.95312,0.1875 -0.79688,0.14062 -1.3125,0.375 -0.5,0.23437 -0.73438,0.54687 -0.21875,0.3125 -0.21875,0.70313 0,0.375 0.125,0.65625 0.125,0.26562 0.32813,0.4375 0.20312,0.17187 0.48437,0.25 0.28125,0.0781 0.60938,0.0781 z m 8.66186,-12.71875 v 13.73438 h -1.65625 v -13.73438 z m 4.77601,0 v 13.73438 h -1.65625 v -13.73438 z m 18.37664,7.0625 q 0,1.5 -0.48437,2.73438 -0.46875,1.21875 -1.34375,2.10937 -0.85938,0.875 -2.07813,1.35938 -1.20312,0.46875 -2.67187,0.46875 h -5 v -13.375 h 5 q 1.46875,0 2.67187,0.48437 1.21875,0.48438 2.07813,1.375 0.875,0.875 1.34375,2.10938 0.48437,1.21875 0.48437,2.73437 z m -1.84375,0 q 0,-1.23437 -0.34375,-2.20312 -0.32812,-0.96875 -0.95312,-1.64063 -0.60938,-0.67187 -1.48438,-1.03125 -0.875,-0.35937 -1.95312,-0.35937 h -3.1875 v 10.4375 h 3.1875 q 1.07812,0 1.95312,-0.34375 0.875,-0.35938 1.48438,-1.01563 0.625,-0.67187 0.95312,-1.64062 0.34375,-0.98438 0.34375,-2.20313 z m 5.89191,-2.78125 v 9.45313 h -1.65625 v -9.45313 z m 0.375,-2.96875 q 0,0.25 -0.0937,0.46875 -0.0937,0.20313 -0.26562,0.375 -0.15625,0.15625 -0.375,0.25 -0.21875,0.0937 -0.45313,0.0937 -0.25,0 -0.46875,-0.0937 -0.20312,-0.0937 -0.35937,-0.25 -0.15625,-0.17187 -0.25,-0.375 -0.0937,-0.21875 -0.0937,-0.46875 0,-0.23437 0.0937,-0.45312 0.0937,-0.21875 0.25,-0.375 0.15625,-0.17188 0.35937,-0.26563 0.21875,-0.0937 0.46875,-0.0937 0.23438,0 0.45313,0.0937 0.21875,0.0937 0.375,0.26563 0.17187,0.15625 0.26562,0.375 0.0937,0.21875 0.0937,0.45312 z m 2.55725,12.42188 v -9.45313 h 0.95313 q 0.26562,0 0.375,0.10938 0.10937,0.0937 0.14062,0.34375 l 0.10938,1.48437 q 0.48437,-0.98437 1.1875,-1.54687 0.71875,-0.5625 1.6875,-0.5625 0.39062,0 0.70312,0.0937 0.32813,0.0937 0.59375,0.25 l -0.21875,1.23437 q -0.0625,0.23438 -0.28125,0.23438 -0.14062,0 -0.40625,-0.0781 -0.26562,-0.0937 -0.75,-0.0937 -0.875,0 -1.45312,0.5 -0.57813,0.5 -0.98438,1.46875 v 6.01563 z m 11.2685,-9.59375 q 0.84375,0 1.5625,0.28125 0.71875,0.28125 1.23437,0.82812 0.53125,0.53125 0.8125,1.32813 0.29688,0.78125 0.29688,1.78125 0,0.39062 -0.0781,0.53125 -0.0781,0.125 -0.3125,0.125 h -6.29687 q 0.0156,0.89062 0.23437,1.5625 0.23438,0.65625 0.625,1.10937 0.39063,0.4375 0.9375,0.65625 0.54688,0.21875 1.20313,0.21875 0.625,0 1.07812,-0.14062 0.45313,-0.15625 0.78125,-0.3125 0.32813,-0.17188 0.54688,-0.3125 0.21875,-0.15625 0.375,-0.15625 0.21875,0 0.32812,0.15625 l 0.46875,0.60937 q -0.3125,0.375 -0.75,0.65625 -0.42187,0.26563 -0.92187,0.45313 -0.48438,0.17187 -1.01563,0.25 -0.51562,0.0937 -1.01562,0.0937 -0.98438,0 -1.8125,-0.32813 -0.82813,-0.32812 -1.4375,-0.96875 -0.59375,-0.64062 -0.9375,-1.57812 -0.32813,-0.9375 -0.32813,-2.17188 0,-0.98437 0.29688,-1.84375 0.3125,-0.85937 0.875,-1.48437 0.57812,-0.625 1.39062,-0.98438 0.82813,-0.35937 1.85938,-0.35937 z m 0.0312,1.21875 q -1.20313,0 -1.89063,0.70312 -0.6875,0.6875 -0.85937,1.92188 h 5.14062 q 0,-0.57813 -0.17187,-1.0625 -0.15625,-0.48438 -0.46875,-0.82813 -0.29688,-0.35937 -0.75,-0.54687 -0.4375,-0.1875 -1,-0.1875 z m 12.44775,0.60937 q -0.0781,0.0937 -0.15625,0.15625 -0.0781,0.0469 -0.21875,0.0469 -0.14063,0 -0.29688,-0.10938 -0.15625,-0.10937 -0.42187,-0.25 -0.25,-0.14062 -0.60938,-0.25 -0.35937,-0.125 -0.875,-0.125 -0.6875,0 -1.21875,0.25 -0.53125,0.23438 -0.89062,0.70313 -0.35938,0.46875 -0.54688,1.14062 -0.1875,0.65625 -0.1875,1.46875 0,0.85938 0.20313,1.53125 0.20312,0.67188 0.54687,1.125 0.35938,0.45313 0.85938,0.6875 0.51562,0.23438 1.15625,0.23438 0.59375,0 0.98437,-0.14063 0.39063,-0.15625 0.65625,-0.32812 0.26563,-0.17188 0.42188,-0.3125 0.17187,-0.15625 0.34375,-0.15625 0.21875,0 0.3125,0.15625 l 0.46875,0.60937 q -0.60938,0.76563 -1.53125,1.10938 -0.92188,0.34375 -1.95313,0.34375 -0.89062,0 -1.65625,-0.3125 -0.75,-0.32813 -1.3125,-0.95313 -0.5625,-0.625 -0.89062,-1.53125 -0.3125,-0.90625 -0.3125,-2.0625 0,-1.04687 0.29687,-1.9375 0.29688,-0.90625 0.85938,-1.54687 0.5625,-0.65625 1.39062,-1.01563 0.82813,-0.35937 1.90625,-0.35937 0.98438,0 1.75,0.32812 0.76563,0.3125 1.35938,0.89063 z m 5.11871,7.92188 q -1.10937,0 -1.71875,-0.625 -0.59375,-0.625 -0.59375,-1.8125 v -5.78125 h -1.14062 q -0.15625,0 -0.26563,-0.0781 -0.0937,-0.0937 -0.0937,-0.28125 v -0.65625 l 1.54688,-0.20312 0.39062,-2.92188 q 0.0156,-0.14062 0.10938,-0.21875 0.10937,-0.0937 0.26562,-0.0937 h 0.84375 v 3.25 h 2.70313 v 1.20313 h -2.70313 v 5.67187 q 0,0.59375 0.28125,0.89063 0.29688,0.28125 0.75,0.28125 0.26563,0 0.45313,-0.0625 0.20312,-0.0781 0.32812,-0.15625 0.14063,-0.0781 0.23438,-0.14063 0.10937,-0.0781 0.1875,-0.0781 0.125,0 0.23437,0.15625 l 0.48438,0.79687 q -0.4375,0.39063 -1.04688,0.625 -0.59375,0.23438 -1.25,0.23438 z m 7.92749,-9.75 q 1.03125,0 1.85938,0.34375 0.84375,0.34375 1.42187,0.98437 0.59375,0.625 0.90625,1.53125 0.3125,0.89063 0.3125,2 0,1.125 -0.3125,2.03125 -0.3125,0.89063 -0.90625,1.53125 -0.57812,0.625 -1.42187,0.96875 -0.82813,0.32813 -1.85938,0.32813 -1.03125,0 -1.875,-0.32813 -0.82812,-0.34375 -1.42187,-0.96875 -0.57813,-0.64062 -0.90625,-1.53125 -0.3125,-0.90625 -0.3125,-2.03125 0,-1.10937 0.3125,-2 0.32812,-0.90625 0.90625,-1.53125 0.59375,-0.64062 1.42187,-0.98437 0.84375,-0.34375 1.875,-0.34375 z m 0,8.42187 q 1.39063,0 2.07813,-0.9375 0.70312,-0.9375 0.70312,-2.60937 0,-1.6875 -0.70312,-2.625 -0.6875,-0.95313 -2.07813,-0.95313 -0.70312,0 -1.23437,0.25 -0.51563,0.23438 -0.875,0.70313 -0.34375,0.45312 -0.51563,1.125 -0.17187,0.65625 -0.17187,1.5 0,0.84375 0.17187,1.5 0.17188,0.65625 0.51563,1.10937 0.35937,0.45313 0.875,0.70313 0.53125,0.23437 1.23437,0.23437 z m 6.5448,1.17188 v -9.45313 h 0.95313 q 0.26562,0 0.375,0.10938 0.10937,0.0937 0.14062,0.34375 l 0.10938,1.48437 q 0.48437,-0.98437 1.1875,-1.54687 0.71875,-0.5625 1.6875,-0.5625 0.39062,0 0.70312,0.0937 0.32813,0.0937 0.59375,0.25 l -0.21875,1.23437 q -0.0625,0.23438 -0.28125,0.23438 -0.14062,0 -0.40625,-0.0781 -0.26562,-0.0937 -0.75,-0.0937 -0.875,0 -1.45312,0.5 -0.57813,0.5 -0.98438,1.46875 v 6.01563 z m 10.28406,2.79687 q -0.0781,0.17188 -0.20312,0.28125 -0.125,0.125 -0.39063,0.125 h -1.23437 l 1.73437,-3.75 -3.90625,-8.90625 h 1.4375 q 0.21875,0 0.34375,0.10938 0.125,0.10937 0.17188,0.23437 l 2.53125,5.95313 q 0.0781,0.20312 0.14062,0.42187 0.0625,0.20313 0.10938,0.40625 0.0625,-0.20312 0.125,-0.40625 0.0781,-0.21875 0.15625,-0.42187 l 2.45312,-5.95313 q 0.0625,-0.14062 0.1875,-0.23437 0.14063,-0.10938 0.29688,-0.10938 h 1.32812 z"
       id="path77"
       inkscape:connector-curvature="0"
       style="fill:#0000ff;fill-rule:nonzero;stroke:none;stroke-linecap:square;stroke-miterlimit:10" />
  </g>
</svg>
