<?xml version="1.0" encoding="UTF-8" standalone="no"?>
<svg
   xmlns:dc="http://purl.org/dc/elements/1.1/"
   xmlns:cc="http://creativecommons.org/ns#"
   xmlns:rdf="http://www.w3.org/1999/02/22-rdf-syntax-ns#"
   xmlns:svg="http://www.w3.org/2000/svg"
   xmlns="http://www.w3.org/2000/svg"
   xmlns:sodipodi="http://sodipodi.sourceforge.net/DTD/sodipodi-0.dtd"
   xmlns:inkscape="http://www.inkscape.org/namespaces/inkscape"
   version="1.1"
   viewBox="0 0 910.75641 274.07217"
   stroke-miterlimit="10"
   id="svg77"
   sodipodi:docname="different_systems.svg"
   width="910.75641"
   height="274.07217"
   style="fill:none;stroke:none;stroke-linecap:square;stroke-miterlimit:10"
   inkscape:version="0.92.4 5da689c313, 2019-01-14">
  <metadata
     id="metadata83">
    <rdf:RDF>
      <cc:Work
         rdf:about="">
        <dc:format>image/svg+xml</dc:format>
        <dc:type
           rdf:resource="http://purl.org/dc/dcmitype/StillImage" />
        <dc:title />
      </cc:Work>
    </rdf:RDF>
  </metadata>
  <defs
     id="defs81" />
  <sodipodi:namedview
     pagecolor="#ffffff"
     bordercolor="#666666"
     borderopacity="1"
     objecttolerance="10"
     gridtolerance="10"
     guidetolerance="10"
     inkscape:pageopacity="0"
     inkscape:pageshadow="2"
     inkscape:window-width="636"
     inkscape:window-height="1045"
     id="namedview79"
     showgrid="false"
     fit-margin-top="15"
     fit-margin-left="15"
     fit-margin-right="15"
     fit-margin-bottom="15"
     inkscape:zoom="0.38890873"
     inkscape:cx="486.26052"
     inkscape:cy="12.695791"
     inkscape:window-x="1280"
     inkscape:window-y="16"
     inkscape:window-maximized="0"
     inkscape:current-layer="layer2" />
  <clipPath
     id="g7418849574_1_37.0">
    <path
       d="M 0,0 H 960 V 540 H 0 Z"
       id="path2"
       inkscape:connector-curvature="0"
       style="clip-rule:nonzero" />
  </clipPath>
  <g
     clip-path="url(#g7418849574_1_37.0)"
     id="g75"
     transform="translate(-44.377452,-203.2546)" />
  <g
     inkscape:groupmode="layer"
     id="layer2"
     inkscape:label="bg"
     style="display:inline">
    <rect
       style="fill:#ffffff;fill-opacity:1"
       id="rect63"
       width="943.66614"
       height="313.69827"
       x="-7.713892"
       y="-8.7705383" />
  </g>
  <g
     inkscape:groupmode="layer"
     id="layer1"
     inkscape:label="Layer 1"
     style="display:inline">
    <path
       transform="translate(-44.377452,-203.2546)"
       d="m 59.377953,293.66928 880.755897,0.22049"
       id="path13"
       inkscape:connector-curvature="0"
       style="fill:#000000;fill-opacity:0;fill-rule:evenodd;stroke:none;stroke-linecap:square;stroke-miterlimit:10" />
    <path
       transform="translate(-44.377452,-203.2546)"
       d="m 59.377953,293.66928 856.755897,0.21448"
       id="path15"
       inkscape:connector-curvature="0"
       style="fill:none;fill-rule:evenodd;stroke:#000000;stroke-width:4;stroke-linecap:butt;stroke-linejoin:round;stroke-miterlimit:10" />
    <path
       transform="translate(-44.377452,-203.2546)"
       d="m 916.1322,300.4907 18.15405,-6.60239 -18.15075,-6.61148 z"
       id="path17"
       inkscape:connector-curvature="0"
       style="fill:#000000;fill-rule:evenodd;stroke:#000000;stroke-width:4;stroke-linecap:butt;stroke-miterlimit:10" />
    <path
       transform="translate(-44.377452,-203.2546)"
       d="M 138.94751,270 H 258.63254 V 441.43307 H 138.94751 Z"
       id="path25"
       inkscape:connector-curvature="0"
       style="fill:#ffffff;fill-rule:evenodd;stroke:none;stroke-linecap:square;stroke-miterlimit:10" />
    <path
       transform="translate(-44.377452,-203.2546)"
       d="M 138.94751,270 H 258.63254 V 441.43307 H 138.94751 Z"
       id="path27"
       inkscape:connector-curvature="0"
       style="fill:none;fill-rule:evenodd;stroke:#000000;stroke-width:1;stroke-linecap:butt;stroke-linejoin:round;stroke-miterlimit:10" />
    <path
       transform="translate(-44.377452,-203.2546)"
       d="m 178.93858,285.63873 q -0.0781,0.14062 -0.17188,0.21875 -0.0937,0.0625 -0.25,0.0625 -0.15625,0 -0.375,-0.15625 -0.20312,-0.15625 -0.53125,-0.34375 -0.3125,-0.20313 -0.76562,-0.35938 -0.45313,-0.15625 -1.09375,-0.15625 -0.60938,0 -1.07813,0.17188 -0.46875,0.15625 -0.78125,0.4375 -0.3125,0.28125 -0.46875,0.65625 -0.15625,0.375 -0.15625,0.8125 0,0.5625 0.26563,0.9375 0.28125,0.35937 0.73437,0.625 0.45313,0.26562 1.03125,0.45312 0.57813,0.1875 1.17188,0.39063 0.60937,0.20312 1.17187,0.46875 0.57813,0.25 1.03125,0.64062 0.45313,0.39063 0.71875,0.96875 0.28125,0.5625 0.28125,1.39063 0,0.875 -0.29687,1.65625 -0.29688,0.76562 -0.875,1.34375 -0.5625,0.5625 -1.40625,0.89062 -0.82813,0.32813 -1.89063,0.32813 -1.29687,0 -2.375,-0.46875 -1.0625,-0.48438 -1.8125,-1.28125 l 0.51563,-0.85938 q 0.0781,-0.10937 0.1875,-0.17187 0.10937,-0.0781 0.23437,-0.0781 0.1875,0 0.4375,0.21875 0.26563,0.20313 0.64063,0.46875 0.375,0.25 0.90625,0.45313 0.54687,0.20312 1.3125,0.20312 0.64062,0 1.14062,-0.17187 0.51563,-0.17188 0.85938,-0.48438 0.35937,-0.32812 0.54687,-0.78125 0.1875,-0.45312 0.1875,-1 0,-0.60937 -0.28125,-0.98437 -0.28125,-0.39063 -0.73437,-0.65625 -0.4375,-0.26563 -1.01563,-0.4375 -0.5625,-0.1875 -1.17187,-0.375 -0.59375,-0.20313 -1.17188,-0.45313 -0.57812,-0.25 -1.03125,-0.64062 -0.4375,-0.40625 -0.71875,-1 -0.26562,-0.60938 -0.26562,-1.5 0,-0.70313 0.26562,-1.35938 0.28125,-0.67187 0.79688,-1.1875 0.53125,-0.51562 1.29687,-0.8125 0.76563,-0.3125 1.76563,-0.3125 1.125,0 2.04687,0.35938 0.92188,0.34375 1.60938,1.01562 z m 6.60657,1.6875 q 1.03125,0 1.85937,0.34375 0.84375,0.34375 1.42188,0.98437 0.59375,0.625 0.90625,1.53125 0.3125,0.89063 0.3125,2 0,1.125 -0.3125,2.03125 -0.3125,0.89063 -0.90625,1.53125 -0.57813,0.625 -1.42188,0.96875 -0.82812,0.32813 -1.85937,0.32813 -1.03125,0 -1.875,-0.32813 -0.82813,-0.34375 -1.42188,-0.96875 -0.57812,-0.64062 -0.90625,-1.53125 -0.3125,-0.90625 -0.3125,-2.03125 0,-1.10937 0.3125,-2 0.32813,-0.90625 0.90625,-1.53125 0.59375,-0.64062 1.42188,-0.98437 0.84375,-0.34375 1.875,-0.34375 z m 0,8.42187 q 1.39062,0 2.07812,-0.9375 0.70313,-0.9375 0.70313,-2.60937 0,-1.6875 -0.70313,-2.625 -0.6875,-0.95313 -2.07812,-0.95313 -0.70313,0 -1.23438,0.25 -0.51562,0.23438 -0.875,0.70313 -0.34375,0.45312 -0.51562,1.125 -0.17188,0.65625 -0.17188,1.5 0,0.84375 0.17188,1.5 0.17187,0.65625 0.51562,1.10937 0.35938,0.45313 0.875,0.70313 0.53125,0.23437 1.23438,0.23437 z m 7.98225,-8.28125 v 6.03125 q 0,1.07813 0.48438,1.67188 0.5,0.57812 1.5,0.57812 0.73437,0 1.375,-0.34375 0.64062,-0.34375 1.1875,-0.96875 v -6.96875 h 1.65625 v 9.45313 h -0.98438 q -0.35937,0 -0.45312,-0.34375 l -0.125,-1.01563 q -0.625,0.67188 -1.39063,1.09375 -0.76562,0.42188 -1.75,0.42188 -0.76562,0 -1.35937,-0.25 -0.59375,-0.26563 -1,-0.73438 -0.39063,-0.46875 -0.59375,-1.125 -0.20313,-0.67187 -0.20313,-1.46875 v -6.03125 z m 8.93538,9.45313 v -9.45313 h 0.95313 q 0.26562,0 0.375,0.10938 0.10937,0.0937 0.14062,0.34375 l 0.10938,1.48437 q 0.48437,-0.98437 1.1875,-1.54687 0.71875,-0.5625 1.6875,-0.5625 0.39062,0 0.70312,0.0937 0.32813,0.0937 0.59375,0.25 l -0.21875,1.23437 q -0.0625,0.23438 -0.28125,0.23438 -0.14062,0 -0.40625,-0.0781 -0.26562,-0.0937 -0.75,-0.0937 -0.875,0 -1.45312,0.5 -0.57813,0.5 -0.98438,1.46875 v 6.01563 z m 13.97159,-7.76563 q -0.0781,0.0937 -0.15625,0.15625 -0.0781,0.0469 -0.21875,0.0469 -0.14063,0 -0.29688,-0.10938 -0.15625,-0.10937 -0.42187,-0.25 -0.25,-0.14062 -0.60938,-0.25 -0.35937,-0.125 -0.875,-0.125 -0.6875,0 -1.21875,0.25 -0.53125,0.23438 -0.89062,0.70313 -0.35938,0.46875 -0.54688,1.14062 -0.1875,0.65625 -0.1875,1.46875 0,0.85938 0.20313,1.53125 0.20312,0.67188 0.54687,1.125 0.35938,0.45313 0.85938,0.6875 0.51562,0.23438 1.15625,0.23438 0.59375,0 0.98437,-0.14063 0.39063,-0.15625 0.65625,-0.32812 0.26563,-0.17188 0.42188,-0.3125 0.17187,-0.15625 0.34375,-0.15625 0.21875,0 0.3125,0.15625 l 0.46875,0.60937 q -0.60938,0.76563 -1.53125,1.10938 -0.92188,0.34375 -1.95313,0.34375 -0.89062,0 -1.65625,-0.3125 -0.75,-0.32813 -1.3125,-0.95313 -0.5625,-0.625 -0.89062,-1.53125 -0.3125,-0.90625 -0.3125,-2.0625 0,-1.04687 0.29687,-1.9375 0.29688,-0.90625 0.85938,-1.54687 0.5625,-0.65625 1.39062,-1.01563 0.82813,-0.35937 1.90625,-0.35937 0.98438,0 1.75,0.32812 0.76563,0.3125 1.35938,0.89063 z m 6.00934,-1.82812 q 0.84375,0 1.5625,0.28125 0.71875,0.28125 1.23437,0.82812 0.53125,0.53125 0.8125,1.32813 0.29688,0.78125 0.29688,1.78125 0,0.39062 -0.0781,0.53125 -0.0781,0.125 -0.3125,0.125 h -6.29687 q 0.0156,0.89062 0.23437,1.5625 0.23438,0.65625 0.625,1.10937 0.39063,0.4375 0.9375,0.65625 0.54688,0.21875 1.20313,0.21875 0.625,0 1.07812,-0.14062 0.45313,-0.15625 0.78125,-0.3125 0.32813,-0.17188 0.54688,-0.3125 0.21875,-0.15625 0.375,-0.15625 0.21875,0 0.32812,0.15625 l 0.46875,0.60937 q -0.3125,0.375 -0.75,0.65625 -0.42187,0.26563 -0.92187,0.45313 -0.48438,0.17187 -1.01563,0.25 -0.51562,0.0937 -1.01562,0.0937 -0.98438,0 -1.8125,-0.32813 -0.82813,-0.32812 -1.4375,-0.96875 -0.59375,-0.64062 -0.9375,-1.57812 -0.32813,-0.9375 -0.32813,-2.17188 0,-0.98437 0.29688,-1.84375 0.3125,-0.85937 0.875,-1.48437 0.57812,-0.625 1.39062,-0.98438 0.82813,-0.35937 1.85938,-0.35937 z m 0.0312,1.21875 q -1.20313,0 -1.89063,0.70312 -0.6875,0.6875 -0.85937,1.92188 h 5.14062 q 0,-0.57813 -0.17187,-1.0625 -0.15625,-0.48438 -0.46875,-0.82813 -0.29688,-0.35937 -0.75,-0.54687 -0.4375,-0.1875 -1,-0.1875 z"
       id="path29"
       inkscape:connector-curvature="0"
       style="fill:#000000;fill-rule:nonzero;stroke:none;stroke-linecap:square;stroke-miterlimit:10" />
    <path
       transform="translate(-44.377452,-203.2546)"
       d="m 199.45784,330.04498 v 3.98437 h 3.79687 v 1.25 h -3.79687 v 4.01563 h -1.375 v -4.01563 h -3.76563 v -1.25 h 3.76563 v -3.98437 z"
       id="path31"
       inkscape:connector-curvature="0"
       style="fill:#000000;fill-rule:nonzero;stroke:none;stroke-linecap:square;stroke-miterlimit:10" />
    <path
       transform="translate(-44.377452,-203.2546)"
       d="m 162.01326,384.91998 h -1.40625 q -0.23438,0 -0.39063,-0.125 -0.14062,-0.125 -0.21875,-0.29688 l -1.25,-3.23437 h -6 l -1.25,3.23437 q -0.0625,0.15625 -0.23437,0.29688 -0.15625,0.125 -0.375,0.125 h -1.40625 l 5.34375,-13.375 h 1.84375 z m -8.76563,-4.96875 h 5 l -2.10937,-5.4375 q -0.20313,-0.5 -0.39063,-1.25 -0.10937,0.375 -0.21875,0.70312 -0.0937,0.3125 -0.1875,0.5625 z m 11.62375,-4.48438 v 6.03125 q 0,1.07813 0.48438,1.67188 0.5,0.57812 1.5,0.57812 0.73437,0 1.375,-0.34375 0.64062,-0.34375 1.1875,-0.96875 v -6.96875 h 1.65625 v 9.45313 h -0.98438 q -0.35937,0 -0.45312,-0.34375 l -0.125,-1.01563 q -0.625,0.67188 -1.39063,1.09375 -0.76562,0.42188 -1.75,0.42188 -0.76562,0 -1.35937,-0.25 -0.59375,-0.26563 -1,-0.73438 -0.39063,-0.46875 -0.59375,-1.125 -0.20313,-0.67187 -0.20313,-1.46875 v -6.03125 z m 11.79476,9.60938 q -1.10938,0 -1.71875,-0.625 -0.59375,-0.625 -0.59375,-1.8125 v -5.78125 h -1.14063 q -0.15625,0 -0.26562,-0.0781 -0.0937,-0.0937 -0.0937,-0.28125 v -0.65625 l 1.54687,-0.20312 0.39063,-2.92188 q 0.0156,-0.14062 0.10937,-0.21875 0.10938,-0.0937 0.26563,-0.0937 h 0.84375 v 3.25 h 2.70312 v 1.20313 h -2.70312 v 5.67187 q 0,0.59375 0.28125,0.89063 0.29687,0.28125 0.75,0.28125 0.26562,0 0.45312,-0.0625 0.20313,-0.0781 0.32813,-0.15625 0.14062,-0.0781 0.23437,-0.14063 0.10938,-0.0781 0.1875,-0.0781 0.125,0 0.23438,0.15625 l 0.48437,0.79687 q -0.4375,0.39063 -1.04687,0.625 -0.59375,0.23438 -1.25,0.23438 z m 7.92753,-9.75 q 1.03125,0 1.85938,0.34375 0.84375,0.34375 1.42187,0.98437 0.59375,0.625 0.90625,1.53125 0.3125,0.89063 0.3125,2 0,1.125 -0.3125,2.03125 -0.3125,0.89063 -0.90625,1.53125 -0.57812,0.625 -1.42187,0.96875 -0.82813,0.32813 -1.85938,0.32813 -1.03125,0 -1.875,-0.32813 -0.82812,-0.34375 -1.42187,-0.96875 -0.57813,-0.64062 -0.90625,-1.53125 -0.3125,-0.90625 -0.3125,-2.03125 0,-1.10937 0.3125,-2 0.32812,-0.90625 0.90625,-1.53125 0.59375,-0.64062 1.42187,-0.98437 0.84375,-0.34375 1.875,-0.34375 z m 0,8.42187 q 1.39063,0 2.07813,-0.9375 0.70312,-0.9375 0.70312,-2.60937 0,-1.6875 -0.70312,-2.625 -0.6875,-0.95313 -2.07813,-0.95313 -0.70312,0 -1.23437,0.25 -0.51563,0.23438 -0.875,0.70313 -0.34375,0.45312 -0.51563,1.125 -0.17187,0.65625 -0.17187,1.5 0,0.84375 0.17187,1.5 0.17188,0.65625 0.51563,1.10937 0.35937,0.45313 0.875,0.70313 0.53125,0.23437 1.23437,0.23437 z m 6.54476,1.17188 v -9.45313 h 0.98437 q 0.35938,0 0.45313,0.34375 l 0.125,0.96875 q 0.51562,-0.64062 1.15625,-1.04687 0.65625,-0.40625 1.51562,-0.40625 0.96875,0 1.5625,0.53125 0.59375,0.53125 0.84375,1.4375 0.20313,-0.51563 0.51563,-0.89063 0.32812,-0.375 0.71875,-0.60937 0.40625,-0.25 0.85937,-0.35938 0.45313,-0.10937 0.92188,-0.10937 0.75,0 1.32812,0.23437 0.57813,0.23438 0.98438,0.70313 0.40625,0.45312 0.625,1.125 0.21875,0.65625 0.21875,1.51562 v 6.01563 h -1.65625 v -6.01563 q 0,-1.10937 -0.5,-1.6875 -0.48438,-0.57812 -1.40625,-0.57812 -0.40625,0 -0.78125,0.15625 -0.35938,0.14062 -0.64063,0.42187 -0.28125,0.28125 -0.45312,0.70313 -0.15625,0.42187 -0.15625,0.98437 v 6.01563 h -1.65625 v -6.01563 q 0,-1.14062 -0.46875,-1.70312 -0.45313,-0.5625 -1.32813,-0.5625 -0.60937,0 -1.14062,0.34375 -0.53125,0.32812 -0.96875,0.89062 v 7.04688 z m 22.25429,0 h -0.73438 q -0.23437,0 -0.39062,-0.0781 -0.14063,-0.0781 -0.1875,-0.3125 l -0.1875,-0.875 q -0.375,0.32813 -0.73438,0.59375 -0.35937,0.26563 -0.75,0.45313 -0.39062,0.1875 -0.82812,0.28125 -0.4375,0.0937 -0.98438,0.0937 -0.54687,0 -1.03125,-0.15625 -0.48437,-0.15625 -0.84375,-0.46875 -0.34375,-0.3125 -0.5625,-0.78125 -0.20312,-0.46875 -0.20312,-1.10938 0,-0.5625 0.29687,-1.07812 0.3125,-0.51563 1,-0.90625 0.6875,-0.40625 1.79688,-0.65625 1.10937,-0.26563 2.71875,-0.3125 v -0.73438 q 0,-1.09375 -0.46875,-1.65625 -0.46875,-0.57812 -1.40625,-0.57812 -0.59375,0 -1.01563,0.15625 -0.40625,0.15625 -0.71875,0.35937 -0.29687,0.1875 -0.51562,0.34375 -0.21875,0.14063 -0.4375,0.14063 -0.17188,0 -0.29688,-0.0781 -0.125,-0.0937 -0.20312,-0.21875 l -0.29688,-0.53125 q 0.78125,-0.76562 1.6875,-1.14062 0.90625,-0.375 2.01563,-0.375 0.78125,0 1.39062,0.26562 0.625,0.26563 1.04688,0.73438 0.42187,0.46875 0.625,1.125 0.21875,0.65625 0.21875,1.45312 z m -4.29688,-1.01563 q 0.4375,0 0.79688,-0.0781 0.35937,-0.0937 0.67187,-0.25 0.32813,-0.17188 0.625,-0.40625 0.29688,-0.23438 0.57813,-0.53125 V 380.67 q -1.15625,0.0312 -1.95313,0.1875 -0.79687,0.14062 -1.3125,0.375 -0.5,0.23437 -0.73437,0.54687 -0.21875,0.3125 -0.21875,0.70313 0,0.375 0.125,0.65625 0.125,0.26562 0.32812,0.4375 0.20313,0.17187 0.48438,0.25 0.28125,0.0781 0.60937,0.0781 z m 9.67748,1.17188 q -1.10938,0 -1.71875,-0.625 -0.59375,-0.625 -0.59375,-1.8125 v -5.78125 h -1.14063 q -0.15625,0 -0.26562,-0.0781 -0.0937,-0.0937 -0.0937,-0.28125 v -0.65625 l 1.54687,-0.20312 0.39063,-2.92188 q 0.0156,-0.14062 0.10937,-0.21875 0.10938,-0.0937 0.26563,-0.0937 h 0.84375 v 3.25 h 2.70312 v 1.20313 h -2.70312 v 5.67187 q 0,0.59375 0.28125,0.89063 0.29687,0.28125 0.75,0.28125 0.26562,0 0.45312,-0.0625 0.20313,-0.0781 0.32813,-0.15625 0.14062,-0.0781 0.23437,-0.14063 0.10938,-0.0781 0.1875,-0.0781 0.125,0 0.23438,0.15625 l 0.48437,0.79687 q -0.4375,0.39063 -1.04687,0.625 -0.59375,0.23438 -1.25,0.23438 z m 7.84941,-9.75 q 0.84375,0 1.5625,0.28125 0.71875,0.28125 1.23437,0.82812 0.53125,0.53125 0.8125,1.32813 0.29688,0.78125 0.29688,1.78125 0,0.39062 -0.0781,0.53125 -0.0781,0.125 -0.3125,0.125 h -6.29687 q 0.0156,0.89062 0.23437,1.5625 0.23438,0.65625 0.625,1.10937 0.39063,0.4375 0.9375,0.65625 0.54688,0.21875 1.20313,0.21875 0.625,0 1.07812,-0.14062 0.45313,-0.15625 0.78125,-0.3125 0.32813,-0.17188 0.54688,-0.3125 0.21875,-0.15625 0.375,-0.15625 0.21875,0 0.32812,0.15625 l 0.46875,0.60937 q -0.3125,0.375 -0.75,0.65625 -0.42187,0.26563 -0.92187,0.45313 -0.48438,0.17187 -1.01563,0.25 -0.51562,0.0937 -1.01562,0.0937 -0.98438,0 -1.8125,-0.32813 -0.82813,-0.32812 -1.4375,-0.96875 -0.59375,-0.64062 -0.9375,-1.57812 -0.32813,-0.9375 -0.32813,-2.17188 0,-0.98437 0.29688,-1.84375 0.3125,-0.85937 0.875,-1.48437 0.57812,-0.625 1.39062,-0.98438 0.82813,-0.35937 1.85938,-0.35937 z m 0.0312,1.21875 q -1.20313,0 -1.89063,0.70312 -0.6875,0.6875 -0.85937,1.92188 h 5.14062 q 0,-0.57813 -0.17187,-1.0625 -0.15625,-0.48438 -0.46875,-0.82813 -0.29688,-0.35937 -0.75,-0.54687 -0.4375,-0.1875 -1,-0.1875 z m 12.65088,8.375 q -0.35938,0 -0.45313,-0.34375 l -0.14062,-1.15625 q -0.60938,0.75 -1.39063,1.1875 -0.78125,0.4375 -1.78125,0.4375 -0.8125,0 -1.48437,-0.3125 -0.65625,-0.3125 -1.125,-0.90625 -0.46875,-0.60938 -0.71875,-1.51563 -0.25,-0.90625 -0.25,-2.07812 0,-1.04688 0.28125,-1.9375 0.28125,-0.90625 0.79687,-1.5625 0.53125,-0.67188 1.28125,-1.04688 0.76563,-0.39062 1.71875,-0.39062 0.875,0 1.48438,0.29687 0.625,0.29688 1.10937,0.82813 v -5.23438 h 1.65625 v 13.73438 z m -3.21875,-1.21875 q 0.8125,0 1.42187,-0.35938 0.60938,-0.375 1.125,-1.0625 v -4.5625 q -0.45312,-0.625 -1,-0.875 -0.54687,-0.25 -1.21875,-0.25 -1.3125,0 -2.03125,0.95313 -0.70312,0.9375 -0.70312,2.6875 0,0.92187 0.15625,1.57812 0.15625,0.65625 0.46875,1.07813 0.3125,0.42187 0.75,0.625 0.45312,0.1875 1.03125,0.1875 z m 6.56947,-5.07813 h 4.60937 v 1.40625 h -4.60937 z"
       id="path33"
       inkscape:connector-curvature="0"
       style="fill:#0000ff;fill-rule:nonzero;stroke:none;stroke-linecap:square;stroke-miterlimit:10" />
    <path
       transform="translate(-44.377452,-203.2546)"
       d="M 179.82062,406.91998 V 393.1856 h 1.67187 v 5.64063 q 0.57813,-0.67188 1.34375,-1.07813 0.76563,-0.42187 1.73438,-0.42187 0.82812,0 1.48437,0.3125 0.67188,0.29687 1.125,0.90625 0.46875,0.60937 0.71875,1.51562 0.25,0.90625 0.25,2.07813 0,1.04687 -0.28125,1.95312 -0.26562,0.89063 -0.79687,1.54688 -0.53125,0.65625 -1.29688,1.03125 -0.75,0.375 -1.70312,0.375 -0.92188,0 -1.5625,-0.34375 -0.625,-0.35938 -1.10938,-1 l -0.0781,0.85937 q -0.0781,0.35938 -0.4375,0.35938 z m 4.21875,-8.28125 q -0.8125,0 -1.4375,0.375 -0.60938,0.375 -1.10938,1.0625 v 4.5625 q 0.4375,0.625 0.98438,0.875 0.54687,0.25 1.21875,0.25 1.32812,0 2.03125,-0.9375 0.71875,-0.95313 0.71875,-2.6875 0,-0.92188 -0.17188,-1.57813 -0.15625,-0.67187 -0.46875,-1.09375 -0.3125,-0.42187 -0.76562,-0.625 -0.4375,-0.20312 -1,-0.20312 z m 7.5851,-1.17188 v 6.03125 q 0,1.07813 0.48437,1.67188 0.5,0.57812 1.5,0.57812 0.73438,0 1.375,-0.34375 0.64063,-0.34375 1.1875,-0.96875 v -6.96875 h 1.65625 v 9.45313 h -0.98437 q -0.35938,0 -0.45313,-0.34375 l -0.125,-1.01563 q -0.625,0.67188 -1.39062,1.09375 -0.76563,0.42188 -1.75,0.42188 -0.76563,0 -1.35938,-0.25 -0.59375,-0.26563 -1,-0.73438 -0.39062,-0.46875 -0.59375,-1.125 -0.20312,-0.67187 -0.20312,-1.46875 v -6.03125 z m 10.77913,0 v 9.45313 h -1.65625 v -9.45313 z m 0.375,-2.96875 q 0,0.25 -0.0937,0.46875 -0.0937,0.20313 -0.26563,0.375 -0.15625,0.15625 -0.375,0.25 -0.21875,0.0937 -0.45312,0.0937 -0.25,0 -0.46875,-0.0937 -0.20313,-0.0937 -0.35938,-0.25 -0.15625,-0.17187 -0.25,-0.375 -0.0937,-0.21875 -0.0937,-0.46875 0,-0.23437 0.0937,-0.45312 0.0937,-0.21875 0.25,-0.375 0.15625,-0.17188 0.35938,-0.26563 0.21875,-0.0937 0.46875,-0.0937 0.23437,0 0.45312,0.0937 0.21875,0.0937 0.375,0.26563 0.17188,0.15625 0.26563,0.375 0.0937,0.21875 0.0937,0.45312 z m 4.401,-1.3125 v 13.73438 h -1.65625 V 393.1856 Z m 9.5885,13.73438 q -0.35938,0 -0.45313,-0.34375 l -0.14062,-1.15625 q -0.60938,0.75 -1.39063,1.1875 -0.78125,0.4375 -1.78125,0.4375 -0.8125,0 -1.48437,-0.3125 -0.65625,-0.3125 -1.125,-0.90625 -0.46875,-0.60938 -0.71875,-1.51563 -0.25,-0.90625 -0.25,-2.07812 0,-1.04688 0.28125,-1.9375 0.28125,-0.90625 0.79687,-1.5625 0.53125,-0.67188 1.28125,-1.04688 0.76563,-0.39062 1.71875,-0.39062 0.875,0 1.48438,0.29687 0.625,0.29688 1.10937,0.82813 v -5.23438 h 1.65625 v 13.73438 z m -3.21875,-1.21875 q 0.8125,0 1.42187,-0.35938 0.60938,-0.375 1.125,-1.0625 v -4.5625 q -0.45312,-0.625 -1,-0.875 -0.54687,-0.25 -1.21875,-0.25 -1.3125,0 -2.03125,0.95313 -0.70312,0.9375 -0.70312,2.6875 0,0.92187 0.15625,1.57812 0.15625,0.65625 0.46875,1.07813 0.3125,0.42187 0.75,0.625 0.45312,0.1875 1.03125,0.1875 z"
       id="path35"
       inkscape:connector-curvature="0"
       style="fill:#0000ff;fill-rule:nonzero;stroke:none;stroke-linecap:square;stroke-miterlimit:10" />
    <path
       transform="translate(-44.377452,-203.2546)"
       d="m 160.76202,428.91998 q -0.35938,0 -0.45313,-0.34375 l -0.14062,-1.15625 q -0.60938,0.75 -1.39063,1.1875 -0.78125,0.4375 -1.78125,0.4375 -0.8125,0 -1.48437,-0.3125 -0.65625,-0.3125 -1.125,-0.90625 -0.46875,-0.60938 -0.71875,-1.51563 -0.25,-0.90625 -0.25,-2.07812 0,-1.04688 0.28125,-1.9375 0.28125,-0.90625 0.79687,-1.5625 0.53125,-0.67188 1.28125,-1.04688 0.76563,-0.39062 1.71875,-0.39062 0.875,0 1.48438,0.29687 0.625,0.29688 1.10937,0.82813 v -5.23438 h 1.65625 v 13.73438 z m -3.21875,-1.21875 q 0.8125,0 1.42187,-0.35938 0.60938,-0.375 1.125,-1.0625 v -4.5625 q -0.45312,-0.625 -1,-0.875 -0.54687,-0.25 -1.21875,-0.25 -1.3125,0 -2.03125,0.95313 -0.70312,0.9375 -0.70312,2.6875 0,0.92187 0.15625,1.57812 0.15625,0.65625 0.46875,1.07813 0.3125,0.42187 0.75,0.625 0.45312,0.1875 1.03125,0.1875 z m 10.74135,-8.375 q 0.84375,0 1.5625,0.28125 0.71875,0.28125 1.23437,0.82812 0.53125,0.53125 0.8125,1.32813 0.29688,0.78125 0.29688,1.78125 0,0.39062 -0.0781,0.53125 -0.0781,0.125 -0.3125,0.125 h -6.29687 q 0.0156,0.89062 0.23437,1.5625 0.23438,0.65625 0.625,1.10937 0.39063,0.4375 0.9375,0.65625 0.54688,0.21875 1.20313,0.21875 0.625,0 1.07812,-0.14062 0.45313,-0.15625 0.78125,-0.3125 0.32813,-0.17188 0.54688,-0.3125 0.21875,-0.15625 0.375,-0.15625 0.21875,0 0.32812,0.15625 l 0.46875,0.60937 q -0.3125,0.375 -0.75,0.65625 -0.42187,0.26563 -0.92187,0.45313 -0.48438,0.17187 -1.01563,0.25 -0.51562,0.0937 -1.01562,0.0937 -0.98438,0 -1.8125,-0.32813 -0.82813,-0.32812 -1.4375,-0.96875 -0.59375,-0.64062 -0.9375,-1.57812 -0.32813,-0.9375 -0.32813,-2.17188 0,-0.98437 0.29688,-1.84375 0.3125,-0.85937 0.875,-1.48437 0.57812,-0.625 1.39062,-0.98438 0.82813,-0.35937 1.85938,-0.35937 z m 0.0312,1.21875 q -1.20313,0 -1.89063,0.70312 -0.6875,0.6875 -0.85937,1.92188 h 5.14062 q 0,-0.57813 -0.17187,-1.0625 -0.15625,-0.48438 -0.46875,-0.82813 -0.29688,-0.35937 -0.75,-0.54687 -0.4375,-0.1875 -1,-0.1875 z m 11.40088,0.48437 q -0.10938,0.20313 -0.34375,0.20313 -0.14063,0 -0.3125,-0.0937 -0.17188,-0.10938 -0.4375,-0.23438 -0.25,-0.125 -0.60938,-0.23437 -0.35937,-0.10938 -0.84375,-0.10938 -0.40625,0 -0.75,0.10938 -0.32812,0.10937 -0.57812,0.29687 -0.23438,0.1875 -0.35938,0.4375 -0.125,0.23438 -0.125,0.53125 0,0.35938 0.20313,0.60938 0.21875,0.23437 0.5625,0.42187 0.34375,0.17188 0.78125,0.3125 0.4375,0.125 0.89062,0.28125 0.46875,0.15625 0.90625,0.34375 0.4375,0.1875 0.78125,0.46875 0.35938,0.28125 0.5625,0.6875 0.20313,0.40625 0.20313,0.96875 0,0.65625 -0.23438,1.21875 -0.21875,0.54688 -0.6875,0.95313 -0.45312,0.40625 -1.125,0.64062 -0.65625,0.23438 -1.51562,0.23438 -0.98438,0 -1.79688,-0.32813 -0.79687,-0.32812 -1.35937,-0.82812 l 0.39062,-0.625 q 0.0781,-0.125 0.17188,-0.1875 0.10937,-0.0781 0.28125,-0.0781 0.15625,0 0.34375,0.14063 0.1875,0.125 0.45312,0.28125 0.26563,0.15625 0.64063,0.29687 0.39062,0.125 0.95312,0.125 0.48438,0 0.84375,-0.125 0.375,-0.125 0.60938,-0.32812 0.25,-0.21875 0.35937,-0.5 0.125,-0.28125 0.125,-0.60938 0,-0.39062 -0.21875,-0.64062 -0.20312,-0.25 -0.54687,-0.4375 -0.34375,-0.1875 -0.79688,-0.3125 -0.4375,-0.14063 -0.90625,-0.28125 -0.45312,-0.15625 -0.90625,-0.34375 -0.4375,-0.20313 -0.78125,-0.48438 -0.34375,-0.29687 -0.5625,-0.71875 -0.20312,-0.42187 -0.20312,-1.03125 0,-0.53125 0.21875,-1.03125 0.23437,-0.5 0.65625,-0.875 0.4375,-0.39062 1.0625,-0.60937 0.625,-0.21875 1.42187,-0.21875 0.9375,0 1.67188,0.29687 0.75,0.28125 1.28125,0.79688 z m 9.14369,0.125 q -0.0781,0.0937 -0.15625,0.15625 -0.0781,0.0469 -0.21875,0.0469 -0.14063,0 -0.29688,-0.10938 -0.15625,-0.10937 -0.42187,-0.25 -0.25,-0.14062 -0.60938,-0.25 -0.35937,-0.125 -0.875,-0.125 -0.6875,0 -1.21875,0.25 -0.53125,0.23438 -0.89062,0.70313 -0.35938,0.46875 -0.54688,1.14062 -0.1875,0.65625 -0.1875,1.46875 0,0.85938 0.20313,1.53125 0.20312,0.67188 0.54687,1.125 0.35938,0.45313 0.85938,0.6875 0.51562,0.23438 1.15625,0.23438 0.59375,0 0.98437,-0.14063 0.39063,-0.15625 0.65625,-0.32812 0.26563,-0.17188 0.42188,-0.3125 0.17187,-0.15625 0.34375,-0.15625 0.21875,0 0.3125,0.15625 l 0.46875,0.60937 q -0.60938,0.76563 -1.53125,1.10938 -0.92188,0.34375 -1.95313,0.34375 -0.89062,0 -1.65625,-0.3125 -0.75,-0.32813 -1.3125,-0.95313 -0.5625,-0.625 -0.89062,-1.53125 -0.3125,-0.90625 -0.3125,-2.0625 0,-1.04687 0.29687,-1.9375 0.29688,-0.90625 0.85938,-1.54687 0.5625,-0.65625 1.39062,-1.01563 0.82813,-0.35937 1.90625,-0.35937 0.98438,0 1.75,0.32812 0.76563,0.3125 1.35938,0.89063 z m 2.25934,7.76563 v -9.45313 h 0.95312 q 0.26563,0 0.375,0.10938 0.10938,0.0937 0.14063,0.34375 l 0.10937,1.48437 q 0.48438,-0.98437 1.1875,-1.54687 0.71875,-0.5625 1.6875,-0.5625 0.39063,0 0.70313,0.0937 0.32812,0.0937 0.59375,0.25 l -0.21875,1.23437 q -0.0625,0.23438 -0.28125,0.23438 -0.14063,0 -0.40625,-0.0781 -0.26563,-0.0937 -0.75,-0.0937 -0.875,0 -1.45313,0.5 -0.57812,0.5 -0.98437,1.46875 v 6.01563 z m 9.36221,-9.45313 v 9.45313 h -1.65625 v -9.45313 z m 0.375,-2.96875 q 0,0.25 -0.0937,0.46875 -0.0937,0.20313 -0.26562,0.375 -0.15625,0.15625 -0.375,0.25 -0.21875,0.0937 -0.45313,0.0937 -0.25,0 -0.46875,-0.0937 -0.20312,-0.0937 -0.35937,-0.25 -0.15625,-0.17187 -0.25,-0.375 -0.0937,-0.21875 -0.0937,-0.46875 0,-0.23437 0.0937,-0.45312 0.0937,-0.21875 0.25,-0.375 0.15625,-0.17188 0.35937,-0.26563 0.21875,-0.0937 0.46875,-0.0937 0.23438,0 0.45313,0.0937 0.21875,0.0937 0.375,0.26563 0.17187,0.15625 0.26562,0.375 0.0937,0.21875 0.0937,0.45312 z m 2.55725,15.625 v -12.65625 h 0.98438 q 0.35937,0 0.45312,0.34375 l 0.14063,1.125 q 0.60937,-0.73437 1.39062,-1.1875 0.78125,-0.45312 1.79688,-0.45312 0.8125,0 1.46875,0.3125 0.65625,0.3125 1.125,0.9375 0.46875,0.60937 0.71875,1.51562 0.25,0.90625 0.25,2.07813 0,1.04687 -0.28125,1.95312 -0.28125,0.89063 -0.79688,1.54688 -0.51562,0.65625 -1.28125,1.03125 -0.76562,0.375 -1.71875,0.375 -0.875,0 -1.5,-0.28125 -0.60937,-0.29688 -1.09375,-0.82813 v 4.1875 z m 4.20313,-11.48437 q -0.8125,0 -1.42188,0.375 -0.60937,0.375 -1.125,1.0625 v 4.5625 q 0.46875,0.625 1.01563,0.875 0.54687,0.25 1.21875,0.25 1.3125,0 2.01562,-0.9375 0.70313,-0.95313 0.70313,-2.6875 0,-0.92188 -0.15625,-1.57813 -0.15625,-0.67187 -0.46875,-1.09375 -0.3125,-0.42187 -0.76563,-0.625 -0.4375,-0.20312 -1.01562,-0.20312 z m 8.95449,8.4375 q -1.10937,0 -1.71875,-0.625 -0.59375,-0.625 -0.59375,-1.8125 v -5.78125 h -1.14062 q -0.15625,0 -0.26563,-0.0781 -0.0937,-0.0937 -0.0937,-0.28125 v -0.65625 l 1.54688,-0.20312 0.39062,-2.92188 q 0.0156,-0.14062 0.10938,-0.21875 0.10937,-0.0937 0.26562,-0.0937 h 0.84375 v 3.25 h 2.70313 v 1.20313 h -2.70313 v 5.67187 q 0,0.59375 0.28125,0.89063 0.29688,0.28125 0.75,0.28125 0.26563,0 0.45313,-0.0625 0.20312,-0.0781 0.32812,-0.15625 0.14063,-0.0781 0.23438,-0.14063 0.10937,-0.0781 0.1875,-0.0781 0.125,0 0.23437,0.15625 l 0.48438,0.79687 q -0.4375,0.39063 -1.04688,0.625 -0.59375,0.23438 -1.25,0.23438 z m 5.94317,-9.60938 v 9.45313 h -1.65625 v -9.45313 z m 0.375,-2.96875 q 0,0.25 -0.0937,0.46875 -0.0937,0.20313 -0.26563,0.375 -0.15625,0.15625 -0.375,0.25 -0.21875,0.0937 -0.45312,0.0937 -0.25,0 -0.46875,-0.0937 -0.20313,-0.0937 -0.35938,-0.25 -0.15625,-0.17187 -0.25,-0.375 -0.0937,-0.21875 -0.0937,-0.46875 0,-0.23437 0.0937,-0.45312 0.0937,-0.21875 0.25,-0.375 0.15625,-0.17188 0.35938,-0.26563 0.21875,-0.0937 0.46875,-0.0937 0.23437,0 0.45312,0.0937 0.21875,0.0937 0.375,0.26563 0.17188,0.15625 0.26563,0.375 0.0937,0.21875 0.0937,0.45312 z m 6.38537,2.82813 q 1.03125,0 1.85938,0.34375 0.84375,0.34375 1.42187,0.98437 0.59375,0.625 0.90625,1.53125 0.3125,0.89063 0.3125,2 0,1.125 -0.3125,2.03125 -0.3125,0.89063 -0.90625,1.53125 -0.57812,0.625 -1.42187,0.96875 -0.82813,0.32813 -1.85938,0.32813 -1.03125,0 -1.875,-0.32813 -0.82812,-0.34375 -1.42187,-0.96875 -0.57813,-0.64062 -0.90625,-1.53125 -0.3125,-0.90625 -0.3125,-2.03125 0,-1.10937 0.3125,-2 0.32812,-0.90625 0.90625,-1.53125 0.59375,-0.64062 1.42187,-0.98437 0.84375,-0.34375 1.875,-0.34375 z m 0,8.42187 q 1.39063,0 2.07813,-0.9375 0.70312,-0.9375 0.70312,-2.60937 0,-1.6875 -0.70312,-2.625 -0.6875,-0.95313 -2.07813,-0.95313 -0.70312,0 -1.23437,0.25 -0.51563,0.23438 -0.875,0.70313 -0.34375,0.45312 -0.51563,1.125 -0.17187,0.65625 -0.17187,1.5 0,0.84375 0.17187,1.5 0.17188,0.65625 0.51563,1.10937 0.35937,0.45313 0.875,0.70313 0.53125,0.23437 1.23437,0.23437 z m 6.54476,1.17188 v -9.45313 h 0.98437 q 0.35938,0 0.45313,0.34375 l 0.125,1.03125 q 0.625,-0.6875 1.375,-1.09375 0.76562,-0.42187 1.76562,-0.42187 0.78125,0 1.35938,0.26562 0.59375,0.25 0.98437,0.71875 0.40625,0.46875 0.60938,1.14063 0.20312,0.65625 0.20312,1.45312 v 6.01563 h -1.65625 v -6.01563 q 0,-1.07812 -0.5,-1.67187 -0.48437,-0.59375 -1.48437,-0.59375 -0.73438,0 -1.375,0.35937 -0.64063,0.35938 -1.1875,0.96875 v 6.95313 z"
       id="path37"
       inkscape:connector-curvature="0"
       style="fill:#0000ff;fill-rule:nonzero;stroke:none;stroke-linecap:square;stroke-miterlimit:10" />
    <path
       transform="translate(-44.377452,-203.2546)"
       d="m 423.57217,270 h 143.2756 v 48.25198 h -143.2756 z"
       id="path39"
       inkscape:connector-curvature="0"
       style="fill:#ffffff;fill-rule:evenodd;stroke:none;stroke-linecap:square;stroke-miterlimit:10" />
    <path
       transform="translate(-44.377452,-203.2546)"
       d="m 423.57217,270 h 143.2756 v 48.25198 h -143.2756 z"
       id="path41"
       inkscape:connector-curvature="0"
       style="fill:none;fill-rule:evenodd;stroke:#000000;stroke-width:1;stroke-linecap:butt;stroke-linejoin:round;stroke-miterlimit:10" />
    <path
       transform="translate(-44.377452,-203.2546)"
       d="m 439.7095,296.91998 v -13.375 h 4.26562 q 1.23438,0 2.125,0.25 0.89063,0.25 1.45313,0.70312 0.57812,0.4375 0.84375,1.09375 0.28125,0.64063 0.28125,1.45313 0,0.48437 -0.15625,0.95312 -0.15625,0.45313 -0.46875,0.84375 -0.3125,0.39063 -0.78125,0.70313 -0.46875,0.29687 -1.09375,0.5 1.45312,0.29687 2.20312,1.0625 0.75,0.75 0.75,2 0,0.85937 -0.3125,1.5625 -0.3125,0.6875 -0.92187,1.20312 -0.59375,0.5 -1.46875,0.78125 -0.875,0.26563 -1.98438,0.26563 z m 1.8125,-6.09375 v 4.65625 h 2.89062 q 0.76563,0 1.3125,-0.17188 0.5625,-0.1875 0.92188,-0.5 0.35937,-0.32812 0.53125,-0.76562 0.17187,-0.45313 0.17187,-0.98438 0,-1.03125 -0.73437,-1.625 -0.73438,-0.60937 -2.21875,-0.60937 z m 0,-1.28125 h 2.39062 q 0.75,0 1.3125,-0.17188 0.5625,-0.17187 0.92188,-0.46875 0.375,-0.29687 0.54687,-0.71875 0.1875,-0.42187 0.1875,-0.92187 0,-1.1875 -0.71875,-1.73438 -0.70312,-0.54687 -2.1875,-0.54687 H 441.522 Z m 11.42999,-2.07813 v 6.03125 q 0,1.07813 0.48438,1.67188 0.5,0.57812 1.5,0.57812 0.73437,0 1.375,-0.34375 0.64062,-0.34375 1.1875,-0.96875 v -6.96875 h 1.65625 v 9.45313 h -0.98438 q -0.35937,0 -0.45312,-0.34375 l -0.125,-1.01563 q -0.625,0.67188 -1.39063,1.09375 -0.76562,0.42188 -1.75,0.42188 -0.76562,0 -1.35937,-0.25 -0.59375,-0.26563 -1,-0.73438 -0.39063,-0.46875 -0.59375,-1.125 -0.20313,-0.67187 -0.20313,-1.46875 v -6.03125 z m 10.77912,0 v 9.45313 h -1.65625 v -9.45313 z m 0.375,-2.96875 q 0,0.25 -0.0937,0.46875 -0.0937,0.20313 -0.26563,0.375 -0.15625,0.15625 -0.375,0.25 -0.21875,0.0937 -0.45312,0.0937 -0.25,0 -0.46875,-0.0937 -0.20313,-0.0937 -0.35938,-0.25 -0.15625,-0.17187 -0.25,-0.375 -0.0937,-0.21875 -0.0937,-0.46875 0,-0.23437 0.0937,-0.45312 0.0937,-0.21875 0.25,-0.375 0.15625,-0.17188 0.35938,-0.26563 0.21875,-0.0937 0.46875,-0.0937 0.23437,0 0.45312,0.0937 0.21875,0.0937 0.375,0.26563 0.17188,0.15625 0.26563,0.375 0.0937,0.21875 0.0937,0.45312 z m 4.401,-1.3125 v 13.73438 h -1.65625 V 283.1856 Z m 9.5885,13.73438 q -0.35938,0 -0.45313,-0.34375 l -0.14062,-1.15625 q -0.60938,0.75 -1.39063,1.1875 -0.78125,0.4375 -1.78125,0.4375 -0.8125,0 -1.48437,-0.3125 -0.65625,-0.3125 -1.125,-0.90625 -0.46875,-0.60938 -0.71875,-1.51563 -0.25,-0.90625 -0.25,-2.07812 0,-1.04688 0.28125,-1.9375 0.28125,-0.90625 0.79687,-1.5625 0.53125,-0.67188 1.28125,-1.04688 0.76563,-0.39062 1.71875,-0.39062 0.875,0 1.48438,0.29687 0.625,0.29688 1.10937,0.82813 v -5.23438 h 1.65625 v 13.73438 z m -3.21875,-1.21875 q 0.8125,0 1.42187,-0.35938 0.60938,-0.375 1.125,-1.0625 v -4.5625 q -0.45312,-0.625 -1,-0.875 -0.54687,-0.25 -1.21875,-0.25 -1.3125,0 -2.03125,0.95313 -0.70312,0.9375 -0.70312,2.6875 0,0.92187 0.15625,1.57812 0.15625,0.65625 0.46875,1.07813 0.3125,0.42187 0.75,0.625 0.45312,0.1875 1.03125,0.1875 z m 17.52951,1.21875 h -0.73438 q -0.23437,0 -0.39062,-0.0781 -0.14063,-0.0781 -0.1875,-0.3125 l -0.1875,-0.875 q -0.375,0.32813 -0.73438,0.59375 -0.35937,0.26563 -0.75,0.45313 -0.39062,0.1875 -0.82812,0.28125 -0.4375,0.0937 -0.98438,0.0937 -0.54687,0 -1.03125,-0.15625 -0.48437,-0.15625 -0.84375,-0.46875 -0.34375,-0.3125 -0.5625,-0.78125 -0.20312,-0.46875 -0.20312,-1.10938 0,-0.5625 0.29687,-1.07812 0.3125,-0.51563 1,-0.90625 0.6875,-0.40625 1.79688,-0.65625 1.10937,-0.26563 2.71875,-0.3125 v -0.73438 q 0,-1.09375 -0.46875,-1.65625 -0.46875,-0.57812 -1.40625,-0.57812 -0.59375,0 -1.01563,0.15625 -0.40625,0.15625 -0.71875,0.35937 -0.29687,0.1875 -0.51562,0.34375 -0.21875,0.14063 -0.4375,0.14063 -0.17188,0 -0.29688,-0.0781 -0.125,-0.0937 -0.20312,-0.21875 l -0.29688,-0.53125 q 0.78125,-0.76562 1.6875,-1.14062 0.90625,-0.375 2.01563,-0.375 0.78125,0 1.39062,0.26562 0.625,0.26563 1.04688,0.73438 0.42187,0.46875 0.625,1.125 0.21875,0.65625 0.21875,1.45312 z m -4.29688,-1.01563 q 0.4375,0 0.79688,-0.0781 0.35937,-0.0937 0.67187,-0.25 0.32813,-0.17188 0.625,-0.40625 0.29688,-0.23438 0.57813,-0.53125 V 292.67 q -1.15625,0.0312 -1.95313,0.1875 -0.79687,0.14062 -1.3125,0.375 -0.5,0.23437 -0.73437,0.54687 -0.21875,0.3125 -0.21875,0.70313 0,0.375 0.125,0.65625 0.125,0.26562 0.32812,0.4375 0.20313,0.17187 0.48438,0.25 0.28125,0.0781 0.60937,0.0781 z m 6.81812,1.01563 v -9.45313 h 0.95312 q 0.26563,0 0.375,0.10938 0.10938,0.0937 0.14063,0.34375 l 0.10937,1.48437 q 0.48438,-0.98437 1.1875,-1.54687 0.71875,-0.5625 1.6875,-0.5625 0.39063,0 0.70313,0.0937 0.32812,0.0937 0.59375,0.25 l -0.21875,1.23437 q -0.0625,0.23438 -0.28125,0.23438 -0.14063,0 -0.40625,-0.0781 -0.26563,-0.0937 -0.75,-0.0937 -0.875,0 -1.45313,0.5 -0.57812,0.5 -0.98437,1.46875 v 6.01563 z m 10.37784,0.15625 q -1.10938,0 -1.71875,-0.625 -0.59375,-0.625 -0.59375,-1.8125 v -5.78125 h -1.14063 q -0.15625,0 -0.26562,-0.0781 -0.0937,-0.0937 -0.0937,-0.28125 v -0.65625 l 1.54687,-0.20312 0.39063,-2.92188 q 0.0156,-0.14062 0.10937,-0.21875 0.10938,-0.0937 0.26563,-0.0937 h 0.84375 v 3.25 h 2.70312 v 1.20313 h -2.70312 v 5.67187 q 0,0.59375 0.28125,0.89063 0.29687,0.28125 0.75,0.28125 0.26562,0 0.45312,-0.0625 0.20313,-0.0781 0.32813,-0.15625 0.14062,-0.0781 0.23437,-0.14063 0.10938,-0.0781 0.1875,-0.0781 0.125,0 0.23438,0.15625 l 0.48437,0.79687 q -0.4375,0.39063 -1.04687,0.625 -0.59375,0.23438 -1.25,0.23438 z m 5.94314,-9.60938 v 9.45313 h -1.65625 v -9.45313 z m 0.375,-2.96875 q 0,0.25 -0.0937,0.46875 -0.0937,0.20313 -0.26562,0.375 -0.15625,0.15625 -0.375,0.25 -0.21875,0.0937 -0.45313,0.0937 -0.25,0 -0.46875,-0.0937 -0.20312,-0.0937 -0.35937,-0.25 -0.15625,-0.17187 -0.25,-0.375 -0.0937,-0.21875 -0.0937,-0.46875 0,-0.23437 0.0937,-0.45312 0.0937,-0.21875 0.25,-0.375 0.15625,-0.17188 0.35937,-0.26563 0.21875,-0.0937 0.46875,-0.0937 0.23438,0 0.45313,0.0937 0.21875,0.0937 0.375,0.26563 0.17187,0.15625 0.26562,0.375 0.0937,0.21875 0.0937,0.45312 z m 2.93225,12.42188 v -8.03125 l -1.04687,-0.125 q -0.1875,-0.0469 -0.3125,-0.14063 -0.125,-0.0937 -0.125,-0.28125 v -0.6875 h 1.48437 v -0.90625 q 0,-0.8125 0.21875,-1.4375 0.23438,-0.64062 0.65625,-1.0625 0.4375,-0.4375 1.03125,-0.65625 0.59375,-0.23437 1.34375,-0.23437 0.625,0 1.17188,0.1875 l -0.0312,0.82812 q -0.0156,0.1875 -0.17188,0.23438 -0.14062,0.0312 -0.40625,0.0312 h -0.29687 q -0.42188,0 -0.78125,0.10937 -0.34375,0.10938 -0.59375,0.35938 -0.25,0.25 -0.39063,0.67187 -0.14062,0.40625 -0.14062,1.01563 v 0.85937 h 2.73437 v 1.20313 h -2.67187 v 8.0625 z m 12.84967,0 h -0.73437 q -0.23438,0 -0.39063,-0.0781 -0.14062,-0.0781 -0.1875,-0.3125 l -0.1875,-0.875 q -0.375,0.32813 -0.73437,0.59375 -0.35938,0.26563 -0.75,0.45313 -0.39063,0.1875 -0.82813,0.28125 -0.4375,0.0937 -0.98437,0.0937 -0.54688,0 -1.03125,-0.15625 -0.48438,-0.15625 -0.84375,-0.46875 -0.34375,-0.3125 -0.5625,-0.78125 -0.20313,-0.46875 -0.20313,-1.10938 0,-0.5625 0.29688,-1.07812 0.3125,-0.51563 1,-0.90625 0.6875,-0.40625 1.79687,-0.65625 1.10938,-0.26563 2.71875,-0.3125 v -0.73438 q 0,-1.09375 -0.46875,-1.65625 -0.46875,-0.57812 -1.40625,-0.57812 -0.59375,0 -1.01562,0.15625 -0.40625,0.15625 -0.71875,0.35937 -0.29688,0.1875 -0.51563,0.34375 -0.21875,0.14063 -0.4375,0.14063 -0.17187,0 -0.29687,-0.0781 -0.125,-0.0937 -0.20313,-0.21875 l -0.29687,-0.53125 q 0.78125,-0.76562 1.6875,-1.14062 0.90625,-0.375 2.01562,-0.375 0.78125,0 1.39063,0.26562 0.625,0.26563 1.04687,0.73438 0.42188,0.46875 0.625,1.125 0.21875,0.65625 0.21875,1.45312 z m -4.29687,-1.01563 q 0.4375,0 0.79687,-0.0781 0.35938,-0.0937 0.67188,-0.25 0.32812,-0.17188 0.625,-0.40625 0.29687,-0.23438 0.57812,-0.53125 V 292.67 q -1.15625,0.0312 -1.95312,0.1875 -0.79688,0.14062 -1.3125,0.375 -0.5,0.23437 -0.73438,0.54687 -0.21875,0.3125 -0.21875,0.70313 0,0.375 0.125,0.65625 0.125,0.26562 0.32813,0.4375 0.20312,0.17187 0.48437,0.25 0.28125,0.0781 0.60938,0.0781 z m 13.27124,-6.75 q -0.0781,0.0937 -0.15625,0.15625 -0.0781,0.0469 -0.21875,0.0469 -0.14063,0 -0.29688,-0.10938 -0.15625,-0.10937 -0.42187,-0.25 -0.25,-0.14062 -0.60938,-0.25 -0.35937,-0.125 -0.875,-0.125 -0.6875,0 -1.21875,0.25 -0.53125,0.23438 -0.89062,0.70313 -0.35938,0.46875 -0.54688,1.14062 -0.1875,0.65625 -0.1875,1.46875 0,0.85938 0.20313,1.53125 0.20312,0.67188 0.54687,1.125 0.35938,0.45313 0.85938,0.6875 0.51562,0.23438 1.15625,0.23438 0.59375,0 0.98437,-0.14063 0.39063,-0.15625 0.65625,-0.32812 0.26563,-0.17188 0.42188,-0.3125 0.17187,-0.15625 0.34375,-0.15625 0.21875,0 0.3125,0.15625 l 0.46875,0.60937 q -0.60938,0.76563 -1.53125,1.10938 -0.92188,0.34375 -1.95313,0.34375 -0.89062,0 -1.65625,-0.3125 -0.75,-0.32813 -1.3125,-0.95313 -0.5625,-0.625 -0.89062,-1.53125 -0.3125,-0.90625 -0.3125,-2.0625 0,-1.04687 0.29687,-1.9375 0.29688,-0.90625 0.85938,-1.54687 0.5625,-0.65625 1.39062,-1.01563 0.82813,-0.35937 1.90625,-0.35937 0.98438,0 1.75,0.32812 0.76563,0.3125 1.35938,0.89063 z m 5.11871,7.92188 q -1.10937,0 -1.71875,-0.625 -0.59375,-0.625 -0.59375,-1.8125 v -5.78125 h -1.14062 q -0.15625,0 -0.26563,-0.0781 -0.0937,-0.0937 -0.0937,-0.28125 v -0.65625 l 1.54688,-0.20312 0.39062,-2.92188 q 0.0156,-0.14062 0.10938,-0.21875 0.10937,-0.0937 0.26562,-0.0937 h 0.84375 v 3.25 h 2.70313 v 1.20313 h -2.70313 v 5.67187 q 0,0.59375 0.28125,0.89063 0.29688,0.28125 0.75,0.28125 0.26563,0 0.45313,-0.0625 0.20312,-0.0781 0.32812,-0.15625 0.14063,-0.0781 0.23438,-0.14063 0.10937,-0.0781 0.1875,-0.0781 0.125,0 0.23437,0.15625 l 0.48438,0.79687 q -0.4375,0.39063 -1.04688,0.625 -0.59375,0.23438 -1.25,0.23438 z m 9.50562,-8.04688 q -0.10938,0.20313 -0.34375,0.20313 -0.14063,0 -0.3125,-0.0937 -0.17188,-0.10938 -0.4375,-0.23438 -0.25,-0.125 -0.60938,-0.23437 -0.35937,-0.10938 -0.84375,-0.10938 -0.40625,0 -0.75,0.10938 -0.32812,0.10937 -0.57812,0.29687 -0.23438,0.1875 -0.35938,0.4375 -0.125,0.23438 -0.125,0.53125 0,0.35938 0.20313,0.60938 0.21875,0.23437 0.5625,0.42187 0.34375,0.17188 0.78125,0.3125 0.4375,0.125 0.89062,0.28125 0.46875,0.15625 0.90625,0.34375 0.4375,0.1875 0.78125,0.46875 0.35938,0.28125 0.5625,0.6875 0.20313,0.40625 0.20313,0.96875 0,0.65625 -0.23438,1.21875 -0.21875,0.54688 -0.6875,0.95313 -0.45312,0.40625 -1.125,0.64062 -0.65625,0.23438 -1.51562,0.23438 -0.98438,0 -1.79688,-0.32813 -0.79687,-0.32812 -1.35937,-0.82812 l 0.39062,-0.625 q 0.0781,-0.125 0.17188,-0.1875 0.10937,-0.0781 0.28125,-0.0781 0.15625,0 0.34375,0.14063 0.1875,0.125 0.45312,0.28125 0.26563,0.15625 0.64063,0.29687 0.39062,0.125 0.95312,0.125 0.48438,0 0.84375,-0.125 0.375,-0.125 0.60938,-0.32812 0.25,-0.21875 0.35937,-0.5 0.125,-0.28125 0.125,-0.60938 0,-0.39062 -0.21875,-0.64062 -0.20312,-0.25 -0.54687,-0.4375 -0.34375,-0.1875 -0.79688,-0.3125 -0.4375,-0.14063 -0.90625,-0.28125 -0.45312,-0.15625 -0.90625,-0.34375 -0.4375,-0.20313 -0.78125,-0.48438 -0.34375,-0.29687 -0.5625,-0.71875 -0.20312,-0.42187 -0.20312,-1.03125 0,-0.53125 0.21875,-1.03125 0.23437,-0.5 0.65625,-0.875 0.4375,-0.39062 1.0625,-0.60937 0.625,-0.21875 1.42187,-0.21875 0.9375,0 1.67188,0.29687 0.75,0.28125 1.28125,0.79688 z"
       id="path43"
       inkscape:connector-curvature="0"
       style="fill:#000000;fill-rule:nonzero;stroke:none;stroke-linecap:square;stroke-miterlimit:10" />
    <path
       transform="translate(-44.377452,-203.2546)"
       d="m 705.96063,270 h 171.33856 v 48.25198 H 705.96063 Z"
       id="path45"
       inkscape:connector-curvature="0"
       style="fill:#ffffff;fill-rule:evenodd;stroke:none;stroke-linecap:square;stroke-miterlimit:10" />
    <path
       transform="translate(-44.377452,-203.2546)"
       d="m 705.96063,270 h 171.33856 v 48.25198 H 705.96063 Z"
       id="path47"
       inkscape:connector-curvature="0"
       style="fill:none;fill-rule:evenodd;stroke:#000000;stroke-width:1;stroke-linecap:butt;stroke-linejoin:round;stroke-miterlimit:10" />
    <path
       transform="translate(-44.377452,-203.2546)"
       d="m 719.52997,296.91998 h -1.8125 v -13.375 h 1.8125 z m 3.32123,0 v -9.45313 h 0.98437 q 0.35938,0 0.45313,0.34375 l 0.125,1.03125 q 0.625,-0.6875 1.375,-1.09375 0.76562,-0.42187 1.76562,-0.42187 0.78125,0 1.35938,0.26562 0.59375,0.25 0.98437,0.71875 0.40625,0.46875 0.60938,1.14063 0.20312,0.65625 0.20312,1.45312 v 6.01563 h -1.65625 v -6.01563 q 0,-1.07812 -0.5,-1.67187 -0.48437,-0.59375 -1.48437,-0.59375 -0.73438,0 -1.375,0.35937 -0.64063,0.35938 -1.1875,0.96875 v 6.95313 z m 15.77911,-7.89063 q -0.10937,0.20313 -0.34375,0.20313 -0.14062,0 -0.3125,-0.0937 -0.17187,-0.10938 -0.4375,-0.23438 -0.25,-0.125 -0.60937,-0.23437 -0.35938,-0.10938 -0.84375,-0.10938 -0.40625,0 -0.75,0.10938 -0.32813,0.10937 -0.57813,0.29687 -0.23437,0.1875 -0.35937,0.4375 -0.125,0.23438 -0.125,0.53125 0,0.35938 0.20312,0.60938 0.21875,0.23437 0.5625,0.42187 0.34375,0.17188 0.78125,0.3125 0.4375,0.125 0.89063,0.28125 0.46875,0.15625 0.90625,0.34375 0.4375,0.1875 0.78125,0.46875 0.35937,0.28125 0.5625,0.6875 0.20312,0.40625 0.20312,0.96875 0,0.65625 -0.23437,1.21875 -0.21875,0.54688 -0.6875,0.95313 -0.45313,0.40625 -1.125,0.64062 -0.65625,0.23438 -1.51563,0.23438 -0.98437,0 -1.79687,-0.32813 -0.79688,-0.32812 -1.35938,-0.82812 l 0.39063,-0.625 q 0.0781,-0.125 0.17187,-0.1875 0.10938,-0.0781 0.28125,-0.0781 0.15625,0 0.34375,0.14063 0.1875,0.125 0.45313,0.28125 0.26562,0.15625 0.64062,0.29687 0.39063,0.125 0.95313,0.125 0.48437,0 0.84375,-0.125 0.375,-0.125 0.60937,-0.32812 0.25,-0.21875 0.35938,-0.5 0.125,-0.28125 0.125,-0.60938 0,-0.39062 -0.21875,-0.64062 -0.20313,-0.25 -0.54688,-0.4375 -0.34375,-0.1875 -0.79687,-0.3125 -0.4375,-0.14063 -0.90625,-0.28125 -0.45313,-0.15625 -0.90625,-0.34375 -0.4375,-0.20313 -0.78125,-0.48438 -0.34375,-0.29687 -0.5625,-0.71875 -0.20313,-0.42187 -0.20313,-1.03125 0,-0.53125 0.21875,-1.03125 0.23438,-0.5 0.65625,-0.875 0.4375,-0.39062 1.0625,-0.60937 0.625,-0.21875 1.42188,-0.21875 0.9375,0 1.67187,0.29687 0.75,0.28125 1.28125,0.79688 z m 5.54993,8.04688 q -1.10938,0 -1.71875,-0.625 -0.59375,-0.625 -0.59375,-1.8125 v -5.78125 h -1.14063 q -0.15625,0 -0.26562,-0.0781 -0.0937,-0.0937 -0.0937,-0.28125 v -0.65625 l 1.54687,-0.20312 0.39063,-2.92188 q 0.0156,-0.14062 0.10937,-0.21875 0.10938,-0.0937 0.26563,-0.0937 h 0.84375 v 3.25 h 2.70312 v 1.20313 h -2.70312 v 5.67187 q 0,0.59375 0.28125,0.89063 0.29687,0.28125 0.75,0.28125 0.26562,0 0.45312,-0.0625 0.20313,-0.0781 0.32813,-0.15625 0.14062,-0.0781 0.23437,-0.14063 0.10938,-0.0781 0.1875,-0.0781 0.125,0 0.23438,0.15625 l 0.48437,0.79687 q -0.4375,0.39063 -1.04687,0.625 -0.59375,0.23438 -1.25,0.23438 z m 11.03692,-0.15625 h -0.73437 q -0.23438,0 -0.39063,-0.0781 -0.14062,-0.0781 -0.1875,-0.3125 l -0.1875,-0.875 q -0.375,0.32813 -0.73437,0.59375 -0.35938,0.26563 -0.75,0.45313 -0.39063,0.1875 -0.82813,0.28125 -0.4375,0.0937 -0.98437,0.0937 -0.54688,0 -1.03125,-0.15625 -0.48438,-0.15625 -0.84375,-0.46875 -0.34375,-0.3125 -0.5625,-0.78125 -0.20313,-0.46875 -0.20313,-1.10938 0,-0.5625 0.29688,-1.07812 0.3125,-0.51563 1,-0.90625 0.6875,-0.40625 1.79687,-0.65625 1.10938,-0.26563 2.71875,-0.3125 v -0.73438 q 0,-1.09375 -0.46875,-1.65625 -0.46875,-0.57812 -1.40625,-0.57812 -0.59375,0 -1.01562,0.15625 -0.40625,0.15625 -0.71875,0.35937 -0.29688,0.1875 -0.51563,0.34375 -0.21875,0.14063 -0.4375,0.14063 -0.17187,0 -0.29687,-0.0781 -0.125,-0.0937 -0.20313,-0.21875 l -0.29687,-0.53125 q 0.78125,-0.76562 1.6875,-1.14062 0.90625,-0.375 2.01562,-0.375 0.78125,0 1.39063,0.26562 0.625,0.26563 1.04687,0.73438 0.42188,0.46875 0.625,1.125 0.21875,0.65625 0.21875,1.45312 z m -4.29687,-1.01563 q 0.4375,0 0.79687,-0.0781 0.35938,-0.0937 0.67188,-0.25 0.32812,-0.17188 0.625,-0.40625 0.29687,-0.23438 0.57812,-0.53125 V 292.67 q -1.15625,0.0312 -1.95312,0.1875 -0.79688,0.14062 -1.3125,0.375 -0.5,0.23437 -0.73438,0.54687 -0.21875,0.3125 -0.21875,0.70313 0,0.375 0.125,0.65625 0.125,0.26562 0.32813,0.4375 0.20312,0.17187 0.48437,0.25 0.28125,0.0781 0.60938,0.0781 z m 8.66186,-12.71875 v 13.73438 H 757.9259 V 283.1856 Z m 4.77601,0 v 13.73438 h -1.65625 V 283.1856 Z m 6.68225,4.14063 q 0.84375,0 1.5625,0.28125 0.71875,0.28125 1.23437,0.82812 0.53125,0.53125 0.8125,1.32813 0.29688,0.78125 0.29688,1.78125 0,0.39062 -0.0781,0.53125 -0.0781,0.125 -0.3125,0.125 h -6.29687 q 0.0156,0.89062 0.23437,1.5625 0.23438,0.65625 0.625,1.10937 0.39063,0.4375 0.9375,0.65625 0.54688,0.21875 1.20313,0.21875 0.625,0 1.07812,-0.14062 0.45313,-0.15625 0.78125,-0.3125 0.32813,-0.17188 0.54688,-0.3125 0.21875,-0.15625 0.375,-0.15625 0.21875,0 0.32812,0.15625 l 0.46875,0.60937 q -0.3125,0.375 -0.75,0.65625 -0.42187,0.26563 -0.92187,0.45313 -0.48438,0.17187 -1.01563,0.25 -0.51562,0.0937 -1.01562,0.0937 -0.98438,0 -1.8125,-0.32813 -0.82813,-0.32812 -1.4375,-0.96875 -0.59375,-0.64062 -0.9375,-1.57812 -0.32813,-0.9375 -0.32813,-2.17188 0,-0.98437 0.29688,-1.84375 0.3125,-0.85937 0.875,-1.48437 0.57812,-0.625 1.39062,-0.98438 0.82813,-0.35937 1.85938,-0.35937 z m 0.0312,1.21875 q -1.20313,0 -1.89063,0.70312 -0.6875,0.6875 -0.85937,1.92188 h 5.14062 q 0,-0.57813 -0.17187,-1.0625 -0.15625,-0.48438 -0.46875,-0.82813 -0.29688,-0.35937 -0.75,-0.54687 -0.4375,-0.1875 -1,-0.1875 z m 12.65088,8.375 q -0.35938,0 -0.45313,-0.34375 l -0.14062,-1.15625 q -0.60938,0.75 -1.39063,1.1875 -0.78125,0.4375 -1.78125,0.4375 -0.8125,0 -1.48437,-0.3125 -0.65625,-0.3125 -1.125,-0.90625 -0.46875,-0.60938 -0.71875,-1.51563 -0.25,-0.90625 -0.25,-2.07812 0,-1.04688 0.28125,-1.9375 0.28125,-0.90625 0.79687,-1.5625 0.53125,-0.67188 1.28125,-1.04688 0.76563,-0.39062 1.71875,-0.39062 0.875,0 1.48438,0.29687 0.625,0.29688 1.10937,0.82813 v -5.23438 h 1.65625 v 13.73438 z m -3.21875,-1.21875 q 0.8125,0 1.42187,-0.35938 0.60938,-0.375 1.125,-1.0625 v -4.5625 q -0.45312,-0.625 -1,-0.875 -0.54687,-0.25 -1.21875,-0.25 -1.3125,0 -2.03125,0.95313 -0.70312,0.9375 -0.70312,2.6875 0,0.92187 0.15625,1.57812 0.15625,0.65625 0.46875,1.07813 0.3125,0.42187 0.75,0.625 0.45312,0.1875 1.03125,0.1875 z m 10.59198,4.42187 v -12.65625 h 0.98437 q 0.35938,0 0.45313,0.34375 l 0.14062,1.125 q 0.60938,-0.73437 1.39063,-1.1875 0.78125,-0.45312 1.79687,-0.45312 0.8125,0 1.46875,0.3125 0.65625,0.3125 1.125,0.9375 0.46875,0.60937 0.71875,1.51562 0.25,0.90625 0.25,2.07813 0,1.04687 -0.28125,1.95312 -0.28125,0.89063 -0.79687,1.54688 -0.51563,0.65625 -1.28125,1.03125 -0.76563,0.375 -1.71875,0.375 -0.875,0 -1.5,-0.28125 -0.60938,-0.29688 -1.09375,-0.82813 v 4.1875 z m 4.20312,-11.48437 q -0.8125,0 -1.42187,0.375 -0.60938,0.375 -1.125,1.0625 v 4.5625 q 0.46875,0.625 1.01562,0.875 0.54688,0.25 1.21875,0.25 1.3125,0 2.01563,-0.9375 0.70312,-0.95313 0.70312,-2.6875 0,-0.92188 -0.15625,-1.57813 -0.15625,-0.67187 -0.46875,-1.09375 -0.3125,-0.42187 -0.76562,-0.625 -0.4375,-0.20312 -1.01563,-0.20312 z m 6.09515,8.28125 v -9.45313 h 0.95313 q 0.26562,0 0.375,0.10938 0.10937,0.0937 0.14062,0.34375 l 0.10938,1.48437 q 0.48437,-0.98437 1.1875,-1.54687 0.71875,-0.5625 1.6875,-0.5625 0.39062,0 0.70312,0.0937 0.32813,0.0937 0.59375,0.25 l -0.21875,1.23437 q -0.0625,0.23438 -0.28125,0.23438 -0.14062,0 -0.40625,-0.0781 -0.26562,-0.0937 -0.75,-0.0937 -0.875,0 -1.45312,0.5 -0.57813,0.5 -0.98438,1.46875 v 6.01563 z m 11.34656,-9.59375 q 1.03125,0 1.85938,0.34375 0.84375,0.34375 1.42187,0.98437 0.59375,0.625 0.90625,1.53125 0.3125,0.89063 0.3125,2 0,1.125 -0.3125,2.03125 -0.3125,0.89063 -0.90625,1.53125 -0.57812,0.625 -1.42187,0.96875 -0.82813,0.32813 -1.85938,0.32813 -1.03125,0 -1.875,-0.32813 -0.82812,-0.34375 -1.42187,-0.96875 -0.57813,-0.64062 -0.90625,-1.53125 -0.3125,-0.90625 -0.3125,-2.03125 0,-1.10937 0.3125,-2 0.32812,-0.90625 0.90625,-1.53125 0.59375,-0.64062 1.42187,-0.98437 0.84375,-0.34375 1.875,-0.34375 z m 0,8.42187 q 1.39063,0 2.07813,-0.9375 0.70312,-0.9375 0.70312,-2.60937 0,-1.6875 -0.70312,-2.625 -0.6875,-0.95313 -2.07813,-0.95313 -0.70312,0 -1.23437,0.25 -0.51563,0.23438 -0.875,0.70313 -0.34375,0.45312 -0.51563,1.125 -0.17187,0.65625 -0.17187,1.5 0,0.84375 0.17187,1.5 0.17188,0.65625 0.51563,1.10937 0.35937,0.45313 0.875,0.70313 0.53125,0.23437 1.23437,0.23437 z m 9.7323,-8.4375 q 0.60938,0 1.14063,0.14063 0.54687,0.125 0.98437,0.39062 h 2.5625 v 0.625 q 0,0.29688 -0.39062,0.39063 l -1.07813,0.14062 q 0.32813,0.60938 0.32813,1.35938 0,0.6875 -0.26563,1.25 -0.26562,0.5625 -0.75,0.96875 -0.46875,0.39062 -1.125,0.60937 -0.64062,0.21875 -1.40625,0.21875 -0.67187,0 -1.25,-0.15625 -0.29687,0.1875 -0.45312,0.40625 -0.15625,0.20313 -0.15625,0.40625 0,0.34375 0.26562,0.51563 0.28125,0.17187 0.71875,0.25 0.45313,0.0625 1.01563,0.0937 0.57812,0.0156 1.17187,0.0625 0.59375,0.0312 1.15625,0.14062 0.5625,0.0937 1.01563,0.32813 0.45312,0.23437 0.71875,0.65625 0.26562,0.40625 0.26562,1.0625 0,0.59375 -0.3125,1.15625 -0.29687,0.57812 -0.85937,1.01562 -0.5625,0.45313 -1.39063,0.71875 -0.8125,0.26563 -1.85937,0.26563 -1.03125,0 -1.8125,-0.20313 -0.78125,-0.20312 -1.29688,-0.5625 -0.5,-0.34375 -0.76562,-0.79687 -0.25,-0.4375 -0.25,-0.9375 0,-0.70313 0.4375,-1.1875 0.45312,-0.5 1.21875,-0.78125 -0.40625,-0.1875 -0.64063,-0.5 -0.23437,-0.3125 -0.23437,-0.82813 0,-0.21875 0.0781,-0.4375 0.0781,-0.21875 0.21875,-0.42187 0.15625,-0.21875 0.375,-0.40625 0.23438,-0.20313 0.53125,-0.35938 -0.70312,-0.39062 -1.10937,-1.03125 -0.39063,-0.65625 -0.39063,-1.51562 0,-0.6875 0.26563,-1.25 0.28125,-0.57813 0.75,-0.96875 0.46875,-0.39063 1.125,-0.60938 0.67187,-0.21875 1.45312,-0.21875 z m 2.9375,10.125 q 0,-0.35937 -0.20312,-0.5625 -0.1875,-0.21875 -0.53125,-0.32812 -0.32813,-0.125 -0.76563,-0.17188 -0.4375,-0.0625 -0.92187,-0.0781 -0.48438,-0.0312 -0.98438,-0.0625 -0.5,-0.0312 -0.96875,-0.10938 -0.53125,0.25 -0.85937,0.625 -0.32813,0.35938 -0.32813,0.85938 0,0.3125 0.15625,0.59375 0.17188,0.28125 0.5,0.46875 0.34375,0.20312 0.84375,0.3125 0.51563,0.125 1.20313,0.125 0.67187,0 1.20312,-0.125 0.53125,-0.10938 0.89063,-0.34375 0.375,-0.21875 0.5625,-0.53125 0.20312,-0.29688 0.20312,-0.67188 z m -2.9375,-5.14062 q 0.5,0 0.89063,-0.125 0.39062,-0.14063 0.64062,-0.39063 0.26563,-0.26562 0.39063,-0.60937 0.14062,-0.34375 0.14062,-0.76563 0,-0.875 -0.53125,-1.375 -0.53125,-0.51562 -1.53125,-0.51562 -1,0 -1.53125,0.51562 -0.53125,0.5 -0.53125,1.375 0,0.42188 0.14063,0.76563 0.14062,0.34375 0.39062,0.60937 0.26563,0.25 0.64063,0.39063 0.39062,0.125 0.89062,0.125 z m 6.34583,4.625 v -9.45313 h 0.95312 q 0.26563,0 0.375,0.10938 0.10938,0.0937 0.14063,0.34375 l 0.10937,1.48437 q 0.48438,-0.98437 1.1875,-1.54687 0.71875,-0.5625 1.6875,-0.5625 0.39063,0 0.70313,0.0937 0.32812,0.0937 0.59375,0.25 l -0.21875,1.23437 q -0.0625,0.23438 -0.28125,0.23438 -0.14063,0 -0.40625,-0.0781 -0.26563,-0.0937 -0.75,-0.0937 -0.875,0 -1.45313,0.5 -0.57812,0.5 -0.98437,1.46875 v 6.01563 z m 14.10132,0 h -0.73438 q -0.23437,0 -0.39062,-0.0781 -0.14063,-0.0781 -0.1875,-0.3125 l -0.1875,-0.875 q -0.375,0.32813 -0.73438,0.59375 -0.35937,0.26563 -0.75,0.45313 -0.39062,0.1875 -0.82812,0.28125 -0.4375,0.0937 -0.98438,0.0937 -0.54687,0 -1.03125,-0.15625 -0.48437,-0.15625 -0.84375,-0.46875 -0.34375,-0.3125 -0.5625,-0.78125 -0.20312,-0.46875 -0.20312,-1.10938 0,-0.5625 0.29687,-1.07812 0.3125,-0.51563 1,-0.90625 0.6875,-0.40625 1.79688,-0.65625 1.10937,-0.26563 2.71875,-0.3125 v -0.73438 q 0,-1.09375 -0.46875,-1.65625 -0.46875,-0.57812 -1.40625,-0.57812 -0.59375,0 -1.01563,0.15625 -0.40625,0.15625 -0.71875,0.35937 -0.29687,0.1875 -0.51562,0.34375 -0.21875,0.14063 -0.4375,0.14063 -0.17188,0 -0.29688,-0.0781 -0.125,-0.0937 -0.20312,-0.21875 l -0.29688,-0.53125 q 0.78125,-0.76562 1.6875,-1.14062 0.90625,-0.375 2.01563,-0.375 0.78125,0 1.39062,0.26562 0.625,0.26563 1.04688,0.73438 0.42187,0.46875 0.625,1.125 0.21875,0.65625 0.21875,1.45312 z m -4.29688,-1.01563 q 0.4375,0 0.79688,-0.0781 0.35937,-0.0937 0.67187,-0.25 0.32813,-0.17188 0.625,-0.40625 0.29688,-0.23438 0.57813,-0.53125 V 292.67 q -1.15625,0.0312 -1.95313,0.1875 -0.79687,0.14062 -1.3125,0.375 -0.5,0.23437 -0.73437,0.54687 -0.21875,0.3125 -0.21875,0.70313 0,0.375 0.125,0.65625 0.125,0.26562 0.32812,0.4375 0.20313,0.17187 0.48438,0.25 0.28125,0.0781 0.60937,0.0781 z m 6.81805,1.01563 v -9.45313 h 0.98438 q 0.35937,0 0.45312,0.34375 l 0.125,0.96875 q 0.51563,-0.64062 1.15625,-1.04687 0.65625,-0.40625 1.51563,-0.40625 0.96875,0 1.5625,0.53125 0.59375,0.53125 0.84375,1.4375 0.20312,-0.51563 0.51562,-0.89063 0.32813,-0.375 0.71875,-0.60937 0.40625,-0.25 0.85938,-0.35938 0.45312,-0.10937 0.92187,-0.10937 0.75,0 1.32813,0.23437 0.57812,0.23438 0.98437,0.70313 0.40625,0.45312 0.625,1.125 0.21875,0.65625 0.21875,1.51562 v 6.01563 h -1.65625 v -6.01563 q 0,-1.10937 -0.5,-1.6875 -0.48437,-0.57812 -1.40625,-0.57812 -0.40625,0 -0.78125,0.15625 -0.35937,0.14062 -0.64062,0.42187 -0.28125,0.28125 -0.45313,0.70313 -0.15625,0.42187 -0.15625,0.98437 v 6.01563 h -1.65625 v -6.01563 q 0,-1.14062 -0.46875,-1.70312 -0.45312,-0.5625 -1.32812,-0.5625 -0.60938,0 -1.14063,0.34375 -0.53125,0.32812 -0.96875,0.89062 v 7.04688 z m 20.72309,-7.89063 q -0.10938,0.20313 -0.34375,0.20313 -0.14063,0 -0.3125,-0.0937 -0.17188,-0.10938 -0.4375,-0.23438 -0.25,-0.125 -0.60938,-0.23437 -0.35937,-0.10938 -0.84375,-0.10938 -0.40625,0 -0.75,0.10938 -0.32812,0.10937 -0.57812,0.29687 -0.23438,0.1875 -0.35938,0.4375 -0.125,0.23438 -0.125,0.53125 0,0.35938 0.20313,0.60938 0.21875,0.23437 0.5625,0.42187 0.34375,0.17188 0.78125,0.3125 0.4375,0.125 0.89062,0.28125 0.46875,0.15625 0.90625,0.34375 0.4375,0.1875 0.78125,0.46875 0.35938,0.28125 0.5625,0.6875 0.20313,0.40625 0.20313,0.96875 0,0.65625 -0.23438,1.21875 -0.21875,0.54688 -0.6875,0.95313 -0.45312,0.40625 -1.125,0.64062 -0.65625,0.23438 -1.51562,0.23438 -0.98438,0 -1.79688,-0.32813 -0.79687,-0.32812 -1.35937,-0.82812 l 0.39062,-0.625 q 0.0781,-0.125 0.17188,-0.1875 0.10937,-0.0781 0.28125,-0.0781 0.15625,0 0.34375,0.14063 0.1875,0.125 0.45312,0.28125 0.26563,0.15625 0.64063,0.29687 0.39062,0.125 0.95312,0.125 0.48438,0 0.84375,-0.125 0.375,-0.125 0.60938,-0.32812 0.25,-0.21875 0.35937,-0.5 0.125,-0.28125 0.125,-0.60938 0,-0.39062 -0.21875,-0.64062 -0.20312,-0.25 -0.54687,-0.4375 -0.34375,-0.1875 -0.79688,-0.3125 -0.4375,-0.14063 -0.90625,-0.28125 -0.45312,-0.15625 -0.90625,-0.34375 -0.4375,-0.20313 -0.78125,-0.48438 -0.34375,-0.29687 -0.5625,-0.71875 -0.20312,-0.42187 -0.20312,-1.03125 0,-0.53125 0.21875,-1.03125 0.23437,-0.5 0.65625,-0.875 0.4375,-0.39062 1.0625,-0.60937 0.625,-0.21875 1.42187,-0.21875 0.9375,0 1.67188,0.29687 0.75,0.28125 1.28125,0.79688 z"
       id="path49"
       inkscape:connector-curvature="0"
       style="fill:#000000;fill-rule:nonzero;stroke:none;stroke-linecap:square;stroke-miterlimit:10" />
    <path
       transform="translate(-44.377452,-203.2546)"
       d="m 329.6273,461.82678 c -17.68179,0 -32.01575,-2.38892 -32.01575,-5.33575 v -55.20252 c 0,-2.94687 -14.33392,-5.33575 -32.01574,-5.33575 v 0 c 17.68182,0 32.01574,-2.38889 32.01574,-5.33576 v -55.20251 0 c 0,-2.94687 14.33396,-5.33576 32.01575,-5.33576 z"
       id="path51"
       inkscape:connector-curvature="0"
       style="fill:#000000;fill-opacity:0;fill-rule:evenodd;stroke:none;stroke-linecap:square;stroke-miterlimit:10" />
    <path
       transform="translate(-44.377452,-203.2546)"
       d="m 329.6273,461.82678 c -17.68179,0 -32.01575,-2.38892 -32.01575,-5.33575 v -55.20252 c 0,-2.94687 -14.33392,-5.33575 -32.01574,-5.33575 v 0 c 17.68182,0 32.01574,-2.38889 32.01574,-5.33576 v -55.20251 0 c 0,-2.94687 14.33396,-5.33576 32.01575,-5.33576"
       id="path53"
       inkscape:connector-curvature="0"
       style="fill:#000000;fill-opacity:0;fill-rule:evenodd;stroke:none;stroke-linecap:square;stroke-miterlimit:10" />
    <path
       transform="translate(-44.377452,-203.2546)"
       d="m 329.6273,461.82678 c -17.68179,0 -32.01575,-2.38892 -32.01575,-5.33575 v -55.20252 c 0,-2.94687 -14.33392,-5.33575 -32.01574,-5.33575 v 0 c 17.68182,0 32.01574,-2.38889 32.01574,-5.33576 v -55.20251 0 c 0,-2.94687 14.33396,-5.33576 32.01575,-5.33576"
       id="path55"
       inkscape:connector-curvature="0"
       style="fill:none;fill-rule:evenodd;stroke:#1a1a1a;stroke-width:1;stroke-linecap:butt;stroke-linejoin:round;stroke-miterlimit:10" />
    <path
       transform="translate(-44.377452,-203.2546)"
       d="M 329.6273,336.22046 H 513.56434 V 455.68503 H 329.6273 Z"
       id="path57"
       inkscape:connector-curvature="0"
       style="fill:#000000;fill-opacity:0;fill-rule:evenodd;stroke:none;stroke-linecap:square;stroke-miterlimit:10" />
    <path
       transform="translate(-44.377452,-203.2546)"
       d="m 341.36166,363.14047 h -1.51563 v -13.35938 h 1.64063 v 4.76563 q 1.04687,-1.29688 2.65625,-1.29688 0.89062,0 1.6875,0.35938 0.79687,0.35937 1.3125,1.01562 0.51562,0.64063 0.79687,1.5625 0.29688,0.92188 0.29688,1.96875 0,2.48438 -1.23438,3.84375 -1.21875,1.35938 -2.95312,1.35938 -1.70313,0 -2.6875,-1.4375 z m -0.0156,-4.90625 q 0,1.73437 0.48438,2.51562 0.76562,1.26563 2.09375,1.26563 1.07812,0 1.85937,-0.9375 0.78125,-0.9375 0.78125,-2.78125 0,-1.89063 -0.75,-2.79688 -0.75,-0.90625 -1.82812,-0.90625 -1.0625,0 -1.85938,0.9375 -0.78125,0.9375 -0.78125,2.70313 z m 15.21949,4.90625 v -1.42188 q -1.125,1.64063 -3.0625,1.64063 -0.85938,0 -1.60938,-0.32813 -0.73437,-0.32812 -1.09375,-0.82812 -0.35937,-0.5 -0.5,-1.21875 -0.10937,-0.46875 -0.10937,-1.53125 v -5.98438 h 1.64062 v 5.35938 q 0,1.28125 0.10938,1.73437 0.15625,0.64063 0.65625,1.01563 0.5,0.375 1.23437,0.375 0.73438,0 1.375,-0.375 0.65625,-0.39063 0.92188,-1.03125 0.26562,-0.65625 0.26562,-1.89063 v -5.1875 h 1.64063 v 9.67188 z m 4.04757,-11.46875 v -1.89063 h 1.64063 v 1.89063 z m 0,11.46875 v -9.67188 h 1.64063 v 9.67188 z m 4.09797,0 v -13.35938 h 1.64062 v 13.35938 z m 10.4573,0 v -1.21875 q -0.90625,1.4375 -2.70312,1.4375 -1.15625,0 -2.125,-0.64063 -0.96875,-0.64062 -1.5,-1.78125 -0.53125,-1.14062 -0.53125,-2.625 0,-1.45312 0.48437,-2.625 0.48438,-1.1875 1.4375,-1.8125 0.96875,-0.625 2.17188,-0.625 0.875,0 1.54687,0.375 0.6875,0.35938 1.10938,0.95313 v -4.79688 h 1.64062 v 13.35938 z m -5.17187,-4.82813 q 0,1.85938 0.78125,2.78125 0.78125,0.92188 1.84375,0.92188 1.07812,0 1.82812,-0.875 0.75,-0.89063 0.75,-2.6875 0,-1.98438 -0.76562,-2.90625 -0.76563,-0.9375 -1.89063,-0.9375 -1.07812,0 -1.8125,0.89062 -0.73437,0.89063 -0.73437,2.8125 z m 9.7351,4.82813 v -1.875 h 1.875 v 1.875 z m 4.73017,0 v -9.67188 h 1.46875 v 1.375 q 1.0625,-1.59375 3.07812,-1.59375 0.875,0 1.60938,0.3125 0.73437,0.3125 1.09375,0.82813 0.375,0.5 0.51562,1.20312 0.0937,0.45313 0.0937,1.59375 v 5.95313 h -1.64062 v -5.89063 q 0,-1 -0.20313,-1.48437 -0.1875,-0.5 -0.67187,-0.79688 -0.48438,-0.29687 -1.14063,-0.29687 -1.04687,0 -1.8125,0.67187 -0.75,0.65625 -0.75,2.51563 v 5.28125 z m 10.37573,-11.46875 v -1.89063 h 1.64062 v 1.89063 z m 0,11.46875 v -9.67188 h 1.64062 v 9.67188 z m 4.14481,0 v -9.67188 h 1.46875 v 1.375 q 1.0625,-1.59375 3.07812,-1.59375 0.875,0 1.60938,0.3125 0.73437,0.3125 1.09375,0.82813 0.375,0.5 0.51562,1.20312 0.0937,0.45313 0.0937,1.59375 v 5.95313 h -1.64062 v -5.89063 q 0,-1 -0.20313,-1.48437 -0.1875,-0.5 -0.67187,-0.79688 -0.48438,-0.29687 -1.14063,-0.29687 -1.04687,0 -1.8125,0.67187 -0.75,0.65625 -0.75,2.51563 v 5.28125 z m 10.3601,-11.45313 v -1.90625 h 1.64063 v 1.90625 z m -2.07812,15.20313 0.3125,-1.39063 q 0.5,0.125 0.78125,0.125 0.5,0 0.73437,-0.32812 0.25,-0.32813 0.25,-1.67188 v -10.15625 h 1.64063 v 10.20313 q 0,1.78125 -0.46875,2.48437 -0.59375,0.90625 -1.96875,0.90625 -0.65625,0 -1.28125,-0.17187 z m 12.55105,-4.9375 q -0.92187,0.76562 -1.76562,1.09375 -0.82813,0.3125 -1.79688,0.3125 -1.59375,0 -2.45312,-0.78125 -0.85938,-0.78125 -0.85938,-1.98438 0,-0.71875 0.32813,-1.29687 0.32812,-0.59375 0.84375,-0.9375 0.53125,-0.35938 1.1875,-0.54688 0.46875,-0.125 1.45312,-0.25 1.98438,-0.23437 2.92188,-0.5625 0.0156,-0.34375 0.0156,-0.42187 0,-1 -0.46875,-1.42188 -0.625,-0.54687 -1.875,-0.54687 -1.15625,0 -1.70312,0.40625 -0.54688,0.40625 -0.8125,1.42187 l -1.60938,-0.21875 q 0.21875,-1.01562 0.71875,-1.64062 0.5,-0.64063 1.45313,-0.98438 0.95312,-0.34375 2.1875,-0.34375 1.25,0 2.01562,0.29688 0.78125,0.28125 1.14063,0.73437 0.375,0.4375 0.51562,1.10938 0.0781,0.42187 0.0781,1.51562 v 2.1875 q 0,2.28125 0.10937,2.89063 0.10938,0.59375 0.40625,1.15625 h -1.70312 q -0.26563,-0.51563 -0.32813,-1.1875 z m -0.14062,-3.67188 q -0.89063,0.375 -2.67188,0.625 -1.01562,0.14063 -1.4375,0.32813 -0.42187,0.1875 -0.65625,0.53125 -0.21875,0.34375 -0.21875,0.78125 0,0.65625 0.5,1.09375 0.5,0.4375 1.45313,0.4375 0.9375,0 1.67187,-0.40625 0.75,-0.42188 1.09375,-1.14063 0.26563,-0.5625 0.26563,-1.64062 z"
       id="path59"
       inkscape:connector-curvature="0"
       style="fill:#000000;fill-rule:nonzero;stroke:none;stroke-linecap:square;stroke-miterlimit:10" />
    <path
       transform="translate(-44.377452,-203.2546)"
       d="m 340.0179,385.14047 v -13.35938 h 2.65625 l 3.15625,9.45313 q 0.4375,1.32812 0.64062,1.98437 0.23438,-0.73437 0.70313,-2.14062 l 3.20312,-9.29688 h 2.375 v 13.35938 h -1.70312 v -11.17188 l -3.875,11.17188 h -1.59375 l -3.85938,-11.375 v 11.375 z m 21.69705,-1.1875 q -0.92187,0.76562 -1.76562,1.09375 -0.82813,0.3125 -1.79688,0.3125 -1.59375,0 -2.45312,-0.78125 -0.85938,-0.78125 -0.85938,-1.98438 0,-0.71875 0.32813,-1.29687 0.32812,-0.59375 0.84375,-0.9375 0.53125,-0.35938 1.1875,-0.54688 0.46875,-0.125 1.45312,-0.25 1.98438,-0.23437 2.92188,-0.5625 0.0156,-0.34375 0.0156,-0.42187 0,-1 -0.46875,-1.42188 -0.625,-0.54687 -1.875,-0.54687 -1.15625,0 -1.70312,0.40625 -0.54688,0.40625 -0.8125,1.42187 l -1.60938,-0.21875 q 0.21875,-1.01562 0.71875,-1.64062 0.5,-0.64063 1.45313,-0.98438 0.95312,-0.34375 2.1875,-0.34375 1.25,0 2.01562,0.29688 0.78125,0.28125 1.14063,0.73437 0.375,0.4375 0.51562,1.10938 0.0781,0.42187 0.0781,1.51562 v 2.1875 q 0,2.28125 0.10937,2.89063 0.10938,0.59375 0.40625,1.15625 h -1.70312 q -0.26563,-0.51563 -0.32813,-1.1875 z m -0.14062,-3.67188 q -0.89063,0.375 -2.67188,0.625 -1.01562,0.14063 -1.4375,0.32813 -0.42187,0.1875 -0.65625,0.53125 -0.21875,0.34375 -0.21875,0.78125 0,0.65625 0.5,1.09375 0.5,0.4375 1.45313,0.4375 0.9375,0 1.67187,-0.40625 0.75,-0.42188 1.09375,-1.14063 0.26563,-0.5625 0.26563,-1.64062 z m 4.20385,4.85938 v -13.35938 h 1.64063 v 7.625 l 3.89062,-3.9375 h 2.10938 l -3.6875,3.59375 4.0625,6.07813 h -2.01563 l -3.20312,-4.95313 -1.15625,1.125 v 3.82813 z m 15.95313,-3.10938 1.6875,0.20313 q -0.40625,1.48437 -1.48438,2.3125 -1.07812,0.8125 -2.76562,0.8125 -2.125,0 -3.375,-1.29688 -1.23438,-1.3125 -1.23438,-3.67187 0,-2.45313 1.25,-3.79688 1.26563,-1.34375 3.26563,-1.34375 1.9375,0 3.15625,1.32813 1.23437,1.3125 1.23437,3.70312 0,0.15625 0,0.4375 h -7.21875 q 0.0937,1.59375 0.90625,2.45313 0.8125,0.84375 2.01563,0.84375 0.90625,0 1.54687,-0.46875 0.64063,-0.48438 1.01563,-1.51563 z m -5.39063,-2.65625 h 5.40625 q -0.10937,-1.21875 -0.625,-1.82812 -0.78125,-0.95313 -2.03125,-0.95313 -1.125,0 -1.90625,0.76563 -0.76562,0.75 -0.84375,2.01562 z m 9.53196,5.76563 v -8.40625 h -1.45313 v -1.26563 h 1.45313 v -1.03125 q 0,-0.96875 0.17187,-1.45312 0.23438,-0.64063 0.82813,-1.03125 0.59375,-0.39063 1.67187,-0.39063 0.6875,0 1.53125,0.15625 l -0.25,1.4375 q -0.5,-0.0937 -0.95312,-0.0937 -0.75,0 -1.0625,0.32813 -0.3125,0.3125 -0.3125,1.1875 v 0.89062 h 1.89062 v 1.26563 h -1.89062 v 8.40625 z m 4.79269,-11.46875 v -1.89063 h 1.64063 v 1.89063 z m 0,11.46875 v -9.67188 h 1.64063 v 9.67188 z m 4.09793,0 v -13.35938 h 1.64063 v 13.35938 z m 10.81671,-3.10938 1.6875,0.20313 q -0.40625,1.48437 -1.48437,2.3125 -1.07813,0.8125 -2.76563,0.8125 -2.125,0 -3.375,-1.29688 -1.23437,-1.3125 -1.23437,-3.67187 0,-2.45313 1.25,-3.79688 1.26562,-1.34375 3.26562,-1.34375 1.9375,0 3.15625,1.32813 1.23438,1.3125 1.23438,3.70312 0,0.15625 0,0.4375 h -7.21875 q 0.0937,1.59375 0.90625,2.45313 0.8125,0.84375 2.01562,0.84375 0.90625,0 1.54688,-0.46875 0.64062,-0.48438 1.01562,-1.51563 z m -5.39062,-2.65625 h 5.40625 q -0.10938,-1.21875 -0.625,-1.82812 -0.78125,-0.95313 -2.03125,-0.95313 -1.125,0 -1.90625,0.76563 -0.76563,0.75 -0.84375,2.01562 z"
       id="path61"
       inkscape:connector-curvature="0"
       style="fill:#000000;fill-rule:nonzero;stroke:none;stroke-linecap:square;stroke-miterlimit:10" />
    <path
       transform="translate(-44.377452,-203.2546)"
       d="m 340.3148,407.14047 v -1.875 h 1.875 v 1.875 z m 4.73019,3.70312 v -13.375 h 1.48438 v 1.25 q 0.53125,-0.73437 1.1875,-1.09375 0.67187,-0.375 1.625,-0.375 1.23437,0 2.17187,0.64063 0.95313,0.625 1.4375,1.79687 0.48438,1.15625 0.48438,2.54688 0,1.48437 -0.53125,2.67187 -0.53125,1.1875 -1.54688,1.82813 -1.01562,0.625 -2.14062,0.625 -0.8125,0 -1.46875,-0.34375 -0.65625,-0.34375 -1.0625,-0.875 v 4.70312 z m 1.48438,-8.48437 q 0,1.85937 0.75,2.76562 0.76562,0.89063 1.82812,0.89063 1.09375,0 1.875,-0.92188 0.78125,-0.9375 0.78125,-2.875 0,-1.84375 -0.76562,-2.76562 -0.75,-0.92188 -1.8125,-0.92188 -1.04688,0 -1.85938,0.98438 -0.79687,0.96875 -0.79687,2.84375 z m 10.39133,4.78125 h -1.51563 v -13.35938 h 1.64063 v 4.76563 q 1.04687,-1.29688 2.65625,-1.29688 0.89062,0 1.6875,0.35938 0.79687,0.35937 1.3125,1.01562 0.51562,0.64063 0.79687,1.5625 0.29688,0.92188 0.29688,1.96875 0,2.48438 -1.23438,3.84375 -1.21875,1.35938 -2.95312,1.35938 -1.70313,0 -2.6875,-1.4375 z m -0.0156,-4.90625 q 0,1.73437 0.48438,2.51562 0.76562,1.26563 2.09375,1.26563 1.07812,0 1.85937,-0.9375 0.78125,-0.9375 0.78125,-2.78125 0,-1.89063 -0.75,-2.79688 -0.75,-0.90625 -1.82812,-0.90625 -1.0625,0 -1.85938,0.9375 -0.78125,0.9375 -0.78125,2.70313 z m 7.79761,4.90625 3.53125,-5.03125 -3.26563,-4.64063 h 2.04688 l 1.48437,2.26563 q 0.42188,0.64062 0.67188,1.07812 0.40625,-0.59375 0.73437,-1.0625 l 1.64063,-2.28125 h 1.95312 l -3.34375,4.54688 3.59375,5.125 h -2.01562 l -1.98438,-3 -0.51562,-0.8125 -2.54688,3.8125 z m 10.42187,3.70312 v -13.375 h 1.48438 v 1.25 q 0.53125,-0.73437 1.1875,-1.09375 0.67187,-0.375 1.625,-0.375 1.23437,0 2.17187,0.64063 0.95313,0.625 1.4375,1.79687 0.48438,1.15625 0.48438,2.54688 0,1.48437 -0.53125,2.67187 -0.53125,1.1875 -1.54688,1.82813 -1.01562,0.625 -2.14062,0.625 -0.8125,0 -1.46875,-0.34375 -0.65625,-0.34375 -1.0625,-0.875 v 4.70312 z m 1.48438,-8.48437 q 0,1.85937 0.75,2.76562 0.76562,0.89063 1.82812,0.89063 1.09375,0 1.875,-0.92188 0.78125,-0.9375 0.78125,-2.875 0,-1.84375 -0.76562,-2.76562 -0.75,-0.92188 -1.8125,-0.92188 -1.04688,0 -1.85938,0.98438 -0.79687,0.96875 -0.79687,2.84375 z m 8.8757,4.78125 v -9.67188 h 1.46875 v 1.46875 q 0.5625,-1.03125 1.03125,-1.35937 0.48438,-0.32813 1.0625,-0.32813 0.82813,0 1.6875,0.53125 l -0.5625,1.51563 q -0.60937,-0.35938 -1.20312,-0.35938 -0.54688,0 -0.96875,0.32813 -0.42188,0.32812 -0.60938,0.89062 -0.28125,0.875 -0.28125,1.92188 v 5.0625 z m 5.61893,-4.84375 q 0,-2.6875 1.48437,-3.96875 1.25,-1.07813 3.04688,-1.07813 2,0 3.26562,1.3125 1.26563,1.29688 1.26563,3.60938 0,1.85937 -0.5625,2.9375 -0.5625,1.0625 -1.64063,1.65625 -1.0625,0.59375 -2.32812,0.59375 -2.03125,0 -3.28125,-1.29688 -1.25,-1.3125 -1.25,-3.76562 z m 1.6875,0 q 0,1.85937 0.79687,2.79687 0.8125,0.92188 2.04688,0.92188 1.21875,0 2.03125,-0.92188 0.8125,-0.9375 0.8125,-2.84375 0,-1.79687 -0.8125,-2.71875 -0.8125,-0.92187 -2.03125,-0.92187 -1.23438,0 -2.04688,0.92187 -0.79687,0.90625 -0.79687,2.76563 z m 9.28198,-6.60938 v -1.90625 h 1.64062 v 1.90625 z m -2.07813,15.20313 0.3125,-1.39063 q 0.5,0.125 0.78125,0.125 0.5,0 0.73438,-0.32812 0.25,-0.32813 0.25,-1.67188 v -10.15625 h 1.64062 v 10.20313 q 0,1.78125 -0.46875,2.48437 -0.59375,0.90625 -1.96875,0.90625 -0.65625,0 -1.28125,-0.17187 z m 19.73017,0.17187 q -1.35938,-1.70312 -2.29688,-4 -0.9375,-2.29687 -0.9375,-4.76562 0,-2.15625 0.70313,-4.14063 0.82812,-2.3125 2.53125,-4.59375 h 1.17187 q -1.09375,1.89063 -1.45312,2.70313 -0.54688,1.25 -0.875,2.625 -0.39063,1.70312 -0.39063,3.42187 0,4.375 2.71875,8.75 z m 1.93143,-3.92187 5.17187,-6.95313 -4.5625,-6.40625 h 2.10938 l 2.42187,3.4375 q 0.75,1.0625 1.07813,1.625 0.4375,-0.71875 1.04687,-1.51562 l 2.6875,-3.54688 h 1.92188 l -4.6875,6.29688 5.0625,7.0625 h -2.1875 l -3.35938,-4.76563 q -0.28125,-0.40625 -0.59375,-0.89062 -0.4375,0.73437 -0.625,1 l -3.35937,4.65625 z m 19.91232,-3.54688 1.60937,0.21875 q -0.26562,1.65625 -1.35937,2.60938 -1.07813,0.9375 -2.67188,0.9375 -1.98437,0 -3.1875,-1.29688 -1.20312,-1.29687 -1.20312,-3.71875 0,-1.57812 0.51562,-2.75 0.51563,-1.17187 1.57813,-1.75 1.0625,-0.59375 2.3125,-0.59375 1.57812,0 2.57812,0.79688 1,0.79687 1.28125,2.26562 l -1.59375,0.23438 q -0.23437,-0.96875 -0.8125,-1.45313 -0.57812,-0.5 -1.39062,-0.5 -1.23438,0 -2.01563,0.89063 -0.78125,0.89062 -0.78125,2.8125 0,1.95312 0.75,2.84375 0.75,0.875 1.95313,0.875 0.96875,0 1.60937,-0.59375 0.65625,-0.59375 0.82813,-1.82813 z m 2.40625,-1.29687 q 0,-2.6875 1.48437,-3.96875 1.25,-1.07813 3.04688,-1.07813 2,0 3.26562,1.3125 1.26563,1.29688 1.26563,3.60938 0,1.85937 -0.5625,2.9375 -0.5625,1.0625 -1.64063,1.65625 -1.0625,0.59375 -2.32812,0.59375 -2.03125,0 -3.28125,-1.29688 -1.25,-1.3125 -1.25,-3.76562 z m 1.6875,0 q 0,1.85937 0.79687,2.79687 0.8125,0.92188 2.04688,0.92188 1.21875,0 2.03125,-0.92188 0.8125,-0.9375 0.8125,-2.84375 0,-1.79687 -0.8125,-2.71875 -0.8125,-0.92187 -2.03125,-0.92187 -1.23438,0 -2.04688,0.92187 -0.79687,0.90625 -0.79687,2.76563 z m 15.56323,4.84375 v -1.21875 q -0.90625,1.4375 -2.70312,1.4375 -1.15625,0 -2.125,-0.64063 -0.96875,-0.64062 -1.5,-1.78125 -0.53125,-1.14062 -0.53125,-2.625 0,-1.45312 0.48437,-2.625 0.48438,-1.1875 1.4375,-1.8125 0.96875,-0.625 2.17188,-0.625 0.875,0 1.54687,0.375 0.6875,0.35938 1.10938,0.95313 v -4.79688 h 1.64062 v 13.35938 z m -5.17187,-4.82813 q 0,1.85938 0.78125,2.78125 0.78125,0.92188 1.84375,0.92188 1.07812,0 1.82812,-0.875 0.75,-0.89063 0.75,-2.6875 0,-1.98438 -0.76562,-2.90625 -0.76563,-0.9375 -1.89063,-0.9375 -1.07812,0 -1.8125,0.89062 -0.73437,0.89063 -0.73437,2.8125 z m 15.90695,1.71875 1.6875,0.20313 q -0.40625,1.48437 -1.48438,2.3125 -1.07812,0.8125 -2.76562,0.8125 -2.125,0 -3.375,-1.29688 -1.23438,-1.3125 -1.23438,-3.67187 0,-2.45313 1.25,-3.79688 1.26563,-1.34375 3.26563,-1.34375 1.9375,0 3.15625,1.32813 1.23437,1.3125 1.23437,3.70312 0,0.15625 0,0.4375 h -7.21875 q 0.0937,1.59375 0.90625,2.45313 0.8125,0.84375 2.01563,0.84375 0.90625,0 1.54687,-0.46875 0.64063,-0.48438 1.01563,-1.51563 z m -5.39063,-2.65625 h 5.40625 q -0.10937,-1.21875 -0.625,-1.82812 -0.78125,-0.95313 -2.03125,-0.95313 -1.125,0 -1.90625,0.76563 -0.76562,0.75 -0.84375,2.01562 z m 10.21948,9.6875 h -1.1875 q 2.73438,-4.375 2.73438,-8.75 0,-1.71875 -0.39063,-3.39062 -0.3125,-1.375 -0.875,-2.625 -0.35937,-0.82813 -1.46875,-2.73438 h 1.1875 q 1.70313,2.28125 2.53125,4.59375 0.6875,1.98438 0.6875,4.14063 0,2.46875 -0.9375,4.76562 -0.9375,2.29688 -2.28125,4 z"
       id="path63"
       inkscape:connector-curvature="0"
       style="fill:#000000;fill-rule:nonzero;stroke:none;stroke-linecap:square;stroke-miterlimit:10" />
    <path
       transform="translate(-44.377452,-203.2546)"
       d="m 340.3148,429.14047 v -1.875 h 1.875 v 1.875 z m 7.41769,0 -3.6875,-9.67188 h 1.73438 l 2.07812,5.79688 q 0.32813,0.9375 0.625,1.9375 0.20313,-0.76563 0.60938,-1.82813 l 2.14062,-5.90625 h 1.6875 l -3.65625,9.67188 z m 5.98438,-2.89063 1.625,-0.25 q 0.125,0.96875 0.75,1.5 0.625,0.51563 1.75,0.51563 1.125,0 1.67187,-0.45313 0.54688,-0.46875 0.54688,-1.09375 0,-0.54687 -0.48438,-0.875 -0.32812,-0.21875 -1.67187,-0.54687 -1.8125,-0.46875 -2.51563,-0.79688 -0.6875,-0.32812 -1.04687,-0.90625 -0.35938,-0.59375 -0.35938,-1.3125 0,-0.64062 0.29688,-1.1875 0.29687,-0.5625 0.8125,-0.92187 0.375,-0.28125 1.03125,-0.46875 0.67187,-0.20313 1.42187,-0.20313 1.14063,0 2,0.32813 0.85938,0.32812 1.26563,0.89062 0.42187,0.5625 0.57812,1.5 l -1.60937,0.21875 q -0.10938,-0.75 -0.64063,-1.17187 -0.51562,-0.42188 -1.46875,-0.42188 -1.14062,0 -1.625,0.375 -0.46875,0.375 -0.46875,0.875 0,0.3125 0.1875,0.57813 0.20313,0.26562 0.64063,0.4375 0.23437,0.0937 1.4375,0.42187 1.75,0.45313 2.4375,0.75 0.6875,0.29688 1.07812,0.85938 0.39063,0.5625 0.39063,1.40625 0,0.82812 -0.48438,1.54687 -0.46875,0.71875 -1.375,1.125 -0.90625,0.39063 -2.04687,0.39063 -1.875,0 -2.875,-0.78125 -0.98438,-0.78125 -1.25,-2.32813 z m 16.29687,-0.65625 1.60938,0.21875 q -0.26563,1.65625 -1.35938,2.60938 -1.07812,0.9375 -2.67187,0.9375 -1.98438,0 -3.1875,-1.29688 -1.20313,-1.29687 -1.20313,-3.71875 0,-1.57812 0.51563,-2.75 0.51562,-1.17187 1.57812,-1.75 1.0625,-0.59375 2.3125,-0.59375 1.57813,0 2.57813,0.79688 1,0.79687 1.28125,2.26562 l -1.59375,0.23438 q -0.23438,-0.96875 -0.8125,-1.45313 -0.57813,-0.5 -1.39063,-0.5 -1.23437,0 -2.01562,0.89063 -0.78125,0.89062 -0.78125,2.8125 0,1.95312 0.75,2.84375 0.75,0.875 1.95312,0.875 0.96875,0 1.60938,-0.59375 0.65625,-0.59375 0.82812,-1.82813 z m 1.92188,3.54688 3.53125,-5.03125 -3.26563,-4.64063 h 2.04688 l 1.48437,2.26563 q 0.42188,0.64062 0.67188,1.07812 0.40625,-0.59375 0.73437,-1.0625 l 1.64063,-2.28125 h 1.95312 l -3.34375,4.54688 3.59375,5.125 h -2.01562 l -1.98438,-3 -0.51562,-0.8125 -2.54688,3.8125 z m 9.32812,0 3.53125,-5.03125 -3.26562,-4.64063 h 2.04687 l 1.48438,2.26563 q 0.42187,0.64062 0.67187,1.07812 0.40625,-0.59375 0.73438,-1.0625 l 1.64062,-2.28125 h 1.95313 l -3.34375,4.54688 3.59375,5.125 h -2.01563 l -1.98437,-3 -0.51563,-0.8125 -2.54687,3.8125 z m 10.42188,3.70312 v -13.375 h 1.48437 v 1.25 q 0.53125,-0.73437 1.1875,-1.09375 0.67188,-0.375 1.625,-0.375 1.23438,0 2.17188,0.64063 0.95312,0.625 1.4375,1.79687 0.48437,1.15625 0.48437,2.54688 0,1.48437 -0.53125,2.67187 -0.53125,1.1875 -1.54687,1.82813 -1.01563,0.625 -2.14063,0.625 -0.8125,0 -1.46875,-0.34375 -0.65625,-0.34375 -1.0625,-0.875 v 4.70312 z m 1.48437,-8.48437 q 0,1.85937 0.75,2.76562 0.76563,0.89063 1.82813,0.89063 1.09375,0 1.875,-0.92188 0.78125,-0.9375 0.78125,-2.875 0,-1.84375 -0.76563,-2.76562 -0.75,-0.92188 -1.8125,-0.92188 -1.04687,0 -1.85937,0.98438 -0.79688,0.96875 -0.79688,2.84375 z m 8.87571,4.78125 v -9.67188 h 1.46875 v 1.46875 q 0.5625,-1.03125 1.03125,-1.35937 0.48437,-0.32813 1.0625,-0.32813 0.82812,0 1.6875,0.53125 l -0.5625,1.51563 q -0.60938,-0.35938 -1.20313,-0.35938 -0.54687,0 -0.96875,0.32813 -0.42187,0.32812 -0.60937,0.89062 -0.28125,0.875 -0.28125,1.92188 v 5.0625 z m 5.61892,-4.84375 q 0,-2.6875 1.48438,-3.96875 1.25,-1.07813 3.04687,-1.07813 2,0 3.26563,1.3125 1.26562,1.29688 1.26562,3.60938 0,1.85937 -0.5625,2.9375 -0.5625,1.0625 -1.64062,1.65625 -1.0625,0.59375 -2.32813,0.59375 -2.03125,0 -3.28125,-1.29688 -1.25,-1.3125 -1.25,-3.76562 z m 1.6875,0 q 0,1.85937 0.79688,2.79687 0.8125,0.92188 2.04687,0.92188 1.21875,0 2.03125,-0.92188 0.8125,-0.9375 0.8125,-2.84375 0,-1.79687 -0.8125,-2.71875 -0.8125,-0.92187 -2.03125,-0.92187 -1.23437,0 -2.04687,0.92187 -0.79688,0.90625 -0.79688,2.76563 z m 9.28198,-6.60938 v -1.90625 h 1.64063 v 1.90625 z m -2.07812,15.20313 0.3125,-1.39063 q 0.5,0.125 0.78125,0.125 0.5,0 0.73437,-0.32812 0.25,-0.32813 0.25,-1.67188 v -10.15625 h 1.64063 v 10.20313 q 0,1.78125 -0.46875,2.48437 -0.59375,0.90625 -1.96875,0.90625 -0.65625,0 -1.28125,-0.17187 z m 14.54687,0.17187 q -1.35937,-1.70312 -2.29687,-4 -0.9375,-2.29687 -0.9375,-4.76562 0,-2.15625 0.70312,-4.14063 0.82813,-2.3125 2.53125,-4.59375 h 1.17188 q -1.09375,1.89063 -1.45313,2.70313 -0.54687,1.25 -0.875,2.625 -0.39062,1.70312 -0.39062,3.42187 0,4.375 2.71875,8.75 z m 3.24393,-3.92187 v -13.35938 h 2.65625 l 3.15625,9.45313 q 0.4375,1.32812 0.64063,1.98437 0.23437,-0.73437 0.70312,-2.14062 l 3.20313,-9.29688 h 2.375 v 13.35938 h -1.70313 v -11.17188 l -3.875,11.17188 h -1.59375 l -3.85937,-11.375 v 11.375 z m 14.99393,-4.29688 1.65625,-0.14062 q 0.125,1 0.54687,1.64062 0.4375,0.64063 1.34375,1.04688 0.92188,0.39062 2.0625,0.39062 1,0 1.78125,-0.29687 0.78125,-0.29688 1.15625,-0.8125 0.375,-0.53125 0.375,-1.15625 0,-0.625 -0.375,-1.09375 -0.35937,-0.46875 -1.1875,-0.79688 -0.54687,-0.20312 -2.39062,-0.64062 -1.82813,-0.45313 -2.5625,-0.84375 -0.96875,-0.5 -1.4375,-1.23438 -0.46875,-0.75 -0.46875,-1.67187 0,-1 0.57812,-1.875 0.57813,-0.89063 1.67188,-1.34375 1.10937,-0.45313 2.45312,-0.45313 1.48438,0 2.60938,0.48438 1.14062,0.46875 1.75,1.40625 0.60937,0.92187 0.65625,2.09375 l -1.6875,0.125 q -0.14063,-1.26563 -0.9375,-1.90625 -0.78125,-0.65625 -2.3125,-0.65625 -1.60938,0 -2.34375,0.59375 -0.73438,0.59375 -0.73438,1.42187 0,0.71875 0.53125,1.17188 0.5,0.46875 2.65625,0.96875 2.15625,0.48437 2.95313,0.84375 1.17187,0.53125 1.71875,1.35937 0.5625,0.82813 0.5625,1.90625 0,1.0625 -0.60938,2.01563 -0.60937,0.9375 -1.75,1.46875 -1.14062,0.51562 -2.57812,0.51562 -1.8125,0 -3.04688,-0.53125 -1.21875,-0.53125 -1.92187,-1.59375 -0.6875,-1.0625 -0.71875,-2.40625 z m 16.84982,4.29688 -5.17187,-13.35938 h 1.92187 l 3.46875,9.70313 q 0.42188,1.17187 0.70313,2.1875 0.3125,-1.09375 0.71875,-2.1875 l 3.60937,-9.70313 h 1.79688 l -5.23438,13.35938 z m 18.16232,-4.6875 1.76563,0.45312 q -0.5625,2.17188 -2,3.32813 -1.4375,1.14062 -3.53125,1.14062 -2.15625,0 -3.51563,-0.875 -1.34375,-0.89062 -2.0625,-2.54687 -0.70312,-1.67188 -0.70312,-3.59375 0,-2.07813 0.79687,-3.625 0.79688,-1.5625 2.26563,-2.35938 1.48437,-0.8125 3.25,-0.8125 2,0 3.35937,1.01563 1.375,1.01562 1.90625,2.875 l -1.73437,0.40625 q -0.46875,-1.45313 -1.35938,-2.10938 -0.875,-0.67187 -2.20312,-0.67187 -1.54688,0 -2.57813,0.73437 -1.03125,0.73438 -1.45312,1.98438 -0.42188,1.23437 -0.42188,2.5625 0,1.70312 0.5,2.96875 0.5,1.26562 1.54688,1.90625 1.04687,0.625 2.26562,0.625 1.48438,0 2.51563,-0.85938 1.03125,-0.85937 1.39062,-2.54687 z m 4.81669,8.60937 h -1.1875 q 2.73437,-4.375 2.73437,-8.75 0,-1.71875 -0.39062,-3.39062 -0.3125,-1.375 -0.875,-2.625 -0.35938,-0.82813 -1.46875,-2.73438 h 1.1875 q 1.70312,2.28125 2.53125,4.59375 0.6875,1.98438 0.6875,4.14063 0,2.46875 -0.9375,4.76562 -0.9375,2.29688 -2.28125,4 z"
       id="path65"
       inkscape:connector-curvature="0"
       style="fill:#000000;fill-rule:nonzero;stroke:none;stroke-linecap:square;stroke-miterlimit:10" />
    <path
       transform="translate(-44.377452,-203.2546)"
       d="m 340.3148,451.14047 v -1.875 h 1.875 v 1.875 z m 5.18332,0 v -1.875 h 1.875 v 1.875 z m 5.18329,0 v -1.875 h 1.875 v 1.875 z"
       id="path67"
       inkscape:connector-curvature="0"
       style="fill:#000000;fill-rule:nonzero;stroke:none;stroke-linecap:square;stroke-miterlimit:10" />
    <path
       transform="translate(-44.377452,-203.2546)"
       d="m 76.58268,218.2546 h 807.2126 V 455.64042 H 76.58268 Z"
       id="path69"
       inkscape:connector-curvature="0"
       style="fill:#000000;fill-opacity:0;fill-rule:evenodd;stroke:none;stroke-linecap:square;stroke-miterlimit:10" />
  </g>
</svg>
